<?xml version="1.0" encoding="utf-8"?>
<!-- Generator: Adobe Illustrator 19.1.0, SVG Export Plug-In . SVG Version: 6.00 Build 0)  -->
<svg version="1.1" id="XMLID_2_" xmlns="http://www.w3.org/2000/svg" xmlns:xlink="http://www.w3.org/1999/xlink" x="0px" y="0px"
	 viewBox="0 0 352.0884 75.8443" enable-background="new 0 0 352.0884 75.8443" xml:space="preserve">
<g id="banner">
	<g>
		<path fill="#414042" d="M46.8104,35.7541l1.6601-0.6147c0.3146-0.1163,1.2686,1.0378,2.8587,3.4622
			c3.2758,3.175,6.9347,7.115,10.9731,11.8202l0.6976,1.0412l0.1829-0.3967l0.2736-0.1017l0.3813,0.1881
			c-0.8925-9.772-1.1883-16.793-0.8856-21.0613l0.5642-0.2086l-0.1026-0.2744l2.8587-0.7463l-0.3317,3.3613l1.7679,3.8837
			l1.1609,3.1382l0.3761,0.1727l0.106,0.2898l-0.2736,0.1009l0.3813,0.1881l3.3716,9.1094
			c0.6343,1.7157,1.4088,2.4047,2.3235,2.0662l-0.3402,0.7668l-4.1427,1.5336l-0.1077-0.2889l0.2325-1.0566l-4.5325-12.2468
			l-0.3813-0.1881l0.1727-0.3753l-2.5971-6.1747l-0.2736,0.1017l1.0105,19.7166l0.3761,0.1727
			c-0.3659,0.1351-0.3368,0.7762,0.0889,1.9243c-1.1182,0.4129-2.3731-0.4214-3.7682-2.503
			c-6.7534-6.9218-11.1663-11.7655-13.2402-14.531l-0.2753,0.1009l2.6398,7.1296l0.3744,0.1727l-0.1658,0.3907l0.3146,0.8532
			l0.3813,0.1881l-0.1658,0.3907l1.1558,3.1228l0.3813,0.1872l-0.1676,0.3915l2.2107,5.9712
			c0.2804,0.7617,1.0669,0.9036,2.356,0.4257l0.2154,0.5796l-1.8328,0.9899l-0.1026-0.2744l-0.1727,0.3761l-1.9337,0.7155
			l-0.2086-0.5634c1.1062-0.4095,1.4499-1.1831,1.0275-2.321L48.8296,43.736l-0.9882-3.5144l-0.2736,0.1017l0.1658-0.3907
			l-0.3146-0.8532c-0.5608-1.5131-1.3028-2.0987-2.2261-1.7567l-0.2154-0.5787L46.8104,35.7541z"/>
		<path fill="#414042" d="M78.0557,24.7289l3.0519-0.6283l0.1932-0.365l0.265-0.0812c4.1717-1.2772,7.9212,1.3173,11.2483,7.7844
			l1.19,3.8828l-0.1949,0.365l0.0855,0.2795l0.2804-0.0855c0.5454,1.7807-0.3112,4.7727-2.5697,8.9744
			c-0.766,0.2342-1.6431,0.9044-2.6296,2.0106c-1.9867,0.6087-4.3478,0.6292-7.0817,0.0616
			c-2.686-0.8985-4.6556-2.521-5.9054-4.8676l-1.3097-2.3338l-1.0173-3.3237l0.1778-0.3608l-0.3488-0.1983
			c-1.0207-3.334-0.1624-6.632,2.5766-9.8942L78.0557,24.7289z M73.6532,31.5464l-0.012,0.9036l0.0855,0.2795l0.2633-0.0804
			l0.012-0.9044l-0.0855-0.2795L73.6532,31.5464z M76.2862,34.3752l0.5351,0.7531l-0.1932,0.365l-0.2633,0.0812l0.3437,0.1829
			l0.1641,1.4789l0.0855,0.2795l2.9407,5.7755l0.1932-0.365l0.265-0.0812c0.8172,2.6715,2.6774,3.9196,5.5788,3.7452l1.7012-0.2154
			c-0.0342-0.4078,0.3043-0.9138,1.0139-1.5165l0.0855,0.2795c2.409-2.0055,2.8963-6.2029,1.4618-12.5922
			c-1.1541-3.7691-3.5545-6.4713-7.2031-8.1058l-1.1729,0.053l-1.5302,0.7745l-0.0855-0.2795
			c-3.7084,2.0183-5.0625,4.6582-4.064,7.9195L76.2862,34.3752z M84.6912,24.2091l0.0855,0.2795l0.3488,0.1992l0.5437-0.1667
			l-0.0855-0.2795L84.6912,24.2091z M87.4439,25.4897l0.0855,0.2795l0.9711,1.2319l0.265-0.0812L88.68,26.6404l-0.9728-1.231
			L87.4439,25.4897z"/>
		<path fill="#414042" d="M96.579,19.4809l4.459-0.4078c-0.6104,1.2037-0.8583,2.1739-0.7403,2.9117l0.86,5.4549l0.3368,0.2599
			l-0.2394,0.3496l3.2263,14.7011c4.6812-0.8925,6.9227-1.9705,6.7244-3.2322l-0.2889-1.8286l0.5779-0.0915l0.2889,1.8286
			l0.3505,0.2411l-0.2582,0.3531l0.0496,0.3043l0.5454,1.4764l-0.306,0.0479l-1.508-0.0744l-8.682,2.2919l-0.0479-0.3043
			l-0.2411,0.3505l-1.5234-0.0718l-0.2411,0.3505l-0.3043,0.0479l-0.094-0.5933c1.1763-0.1864,1.4618-2.1987,0.8549-6.0388
			l-0.0957-0.6095l-3.1596-16.257l-1.6687-0.9865L96.579,19.4809z"/>
		<path fill="#414042" d="M115.5501,16.7496l4.4727,0.1804c-0.7625,1.113-1.1353,2.0431-1.1165,2.7903l0.1385,5.5207l0.3009,0.3009
			l-0.2855,0.3154l1.272,14.9978c4.7582-0.2718,7.121-1.0455,7.0903-2.3235l-0.0479-1.8508l0.5847-0.0145l0.0479,1.8508
			l0.3146,0.2847l-0.3009,0.3163l0.0086,0.3086l0.3471,1.5345l-0.3078,0.0077l-1.4858-0.271l-8.9077,1.1336l-0.0086-0.3086
			l-0.2838,0.3163l-1.5011-0.271l-0.2855,0.3154l-0.3078,0.0077l-0.0154-0.601c1.19-0.0299,1.7371-1.9876,1.6396-5.8738
			l-0.0154-0.6172l-1.0002-16.5305l-1.5251-1.1968L115.5501,16.7496z"/>
		<path fill="#414042" d="M134.2956,16.5453l0.2889,0.0427l0.8549,0.4385l1.5234-0.0863l2.0722,0.3078l0.5044,0.6984l-0.7301,0.8275
			c1.7713,2.7484,3.2793,6.1952,4.5257,10.343l0.306,0.0453l5.5019-8.5435c-0.1795-0.8583-0.4138-1.3097-0.7027-1.3524
			l-0.0445,0.3052l-0.8549-0.4385l0.0906-0.6104l3.522,0.8343l0.8839,0.1308l-0.0906,0.6104
			c-1.7149-0.2539-3.6417,1.8525-5.7806,6.3183c-0.3317,0.0171-1.1079,1.1498-2.327,3.3989l0.3043,0.0453l-0.3505,0.2599
			l-0.0445,0.3052l0.0957,3.446l-0.3334,0.2624l-0.4804,5.2326l-0.3625,2.4424c0.5881,0.0872,0.8531,0.3343,0.7933,0.7412
			l-0.0462,0.3052l-2.5766-1.0053l-0.5933-0.0881l-0.9745,0.4787l-0.2889-0.0427l0.0444-0.3052
			c0.0906-0.6104,0.4309-0.872,1.019-0.7848l-0.0615-1.5687l0.542-3.664c0.6377-4.2948,0.0325-7.7126-1.8123-10.2515
			c-1.7935-5.2583-3.31-7.9785-4.553-8.1631L134.2956,16.5453z"/>
		<path fill="#414042" d="M166.5292,30.212l1.838,0.5864c1.7319,0.5531,2.315,1.7226,1.7439,3.5075l-2.4586,2.5749l-0.118,0.371
			l2.4808,6.2619l0.4958-0.2718l0.3727,0.118l-0.253-0.4898l0.1248-0.3907l1.4755-0.7779l1.1147,0.3556l-0.4873,1.5242
			l-2.091,1.4216c-0.2616,0.8215,0.3129,1.9884,1.7251,3.5015l-0.118,0.371l-1.9525,1.0575l-0.371-0.1188l-1.7508-3.4879
			c-1.8705,0.8677-3.6332,1.2814-5.2865,1.2421c-2.0277-1.2934-2.7715-2.7869-2.2312-4.4812
			c0.9044-1.9799,2.2962-3.7751,4.1752-5.3865c-0.6309-2.2979-0.8019-3.8965-0.5163-4.7949l0.6053-1.8961L166.5292,30.212z
			 M164.9477,38.9461c-0.648,2.0329-1.2139,2.9724-1.6961,2.8185c-0.424,1.3293-0.012,2.58,1.2361,3.7537l0.371,0.1188
			c1.431-0.6634,2.4603-0.895,3.0861-0.695l0.118-0.371l-2.7441-5.5062L164.9477,38.9461z M167.8713,31.0703l-1.2207,2.5398
			c0.5745,0.1829,0.742,0.9404,0.5027,2.2714c0.4958,0.1581,0.9472-0.4018,1.3541-1.679l0.371,0.1188
			c-0.0205-1.9594-0.2325-3.0031-0.636-3.1322L167.8713,31.0703z"/>
		<path fill="#414042" d="M204.981,32.9672l0.2719,0.0479l0.4719,0.6942l-0.3385,0.2368l0.2359,0.3385l-0.5711,3.2314
			l-0.6788,0.4736c0.465-2.6227-1.2549-4.4333-5.1583-5.4327c-1.8055,0.3291-2.7749,0.8617-2.9048,1.5969
			c-2.6638,1.8166-4.3188,4.547-4.9633,8.1939l-0.2582,1.4558l0.0821,1.2182l-0.4975,1.1327
			c0.1676,5.2643,1.2276,8.0691,3.1784,8.4144l0.6924,1.0293l1.9833,0.3513c2.9425,0.5206,5.0796-1.1139,6.4098-4.9027
			l0.2377,0.3385l0.2872,0.0513l-0.3385,0.2368l-0.2342,2.9937l-0.3112,1.7593l-0.5745-0.1017
			c0.1385-0.789,0.0222-1.2165-0.3505-1.2823c-1.8328,1.2806-3.6657,1.7593-5.5002,1.4345
			c-4.659-0.8249-7.2835-2.4936-7.8733-5.0061c-0.5625-1.2319-0.5779-3.3519-0.0444-6.3585l0.3112-1.7593
			c1.007-5.6934,3.3955-9.3018,7.1604-10.8234c0.8087-0.4616,2.1816-0.5206,4.1222-0.177l1.696,0.3001l2.91,1.7354L204.981,32.9672z
			"/>
		<path fill="#414042" d="M215.5711,34.2042l3.1066,0.2428l0.2872-0.2966l0.2753-0.0043c4.3632-0.0701,7.2458,3.4639,8.6495,10.5995
			l0.0633,4.0606l-0.2872,0.2966l0.0051,0.2924l0.2924-0.0051c0.0291,1.8628-1.6243,4.4992-4.9599,7.9092
			c-0.8002,0.0128-1.8277,0.4138-3.0826,1.2019c-2.079,0.0333-4.353-0.6018-6.8201-1.9055
			c-2.3321-1.6089-3.7751-3.7135-4.3239-6.3149l-0.6104-2.6056l-0.0564-3.4759l0.2719-0.2966l-0.2804-0.2881
			c-0.0547-3.4861,1.6841-6.4158,5.2215-8.7897L215.5711,34.2042z M209.4503,39.5326l-0.2633,0.8651l0.0051,0.2915l0.2753-0.0043
			l0.2633-0.8651l-0.0051-0.2924L209.4503,39.5326z M211.1942,42.9811l0.306,0.872l-0.2872,0.2966l-0.277,0.0051l0.2804,0.271
			l-0.2531,1.4661l0.0051,0.2924l1.2225,6.3645l0.2872-0.2966l0.277-0.0043c0.0444,2.7928,1.484,4.5086,4.3205,5.1454l1.6944,0.2659
			c0.0804-0.4018,0.5454-0.7942,1.3951-1.1754l0.0034,0.2924c2.8723-1.2584,4.5051-5.1565,4.8984-11.6928
			c-0.0616-3.9409-1.6191-7.2031-4.671-9.7865l-1.1421-0.2744l-1.6841,0.3197l-0.0034-0.2924
			c-4.1239,0.9104-6.1567,3.0707-6.1037,6.4807L211.1942,42.9811z M222.0903,35.5463l0.0034,0.2924l0.2804,0.2881l0.5693-0.0094
			l-0.0051-0.2924L222.0903,35.5463z M224.3796,37.5399l0.0034,0.2924l0.5933,1.4533l0.2753-0.0051l-0.0051-0.2924l-0.5916-1.4524
			L224.3796,37.5399z"/>
		<path fill="#414042" d="M240.9503,30.5343l1.2054,0.0068l0.8514-0.2086l0.147,0.6001c-1.137,0.277-1.4909,1.2943-1.0617,3.051
			l0.3539,0.2146l0.0735,1.537l4.3701,17.8932c-1.2088,0.2949-2.3526-0.6685-3.4314-2.8912l-11.6227-15.4859l-0.2838,0.0692
			l2.1457,8.7889l0.7112,1.6824l-0.2103,0.3685l0.6429,1.3986l0.3573,1.4669l-0.2137,0.3539l0.0735,0.3001l0.2838-0.0701
			l-0.2154,0.3539l0.147,0.5993l0.6429,1.3986l0.1436,1.82c0.2103,0.8634,1.1404,1.773,2.7903,2.7296l-3.4246,0.8369l-0.7112-0.4454
			c1.0105-0.2471,1.2207-1.8474,0.6326-4.8026l-4.1529-17.0093l-2.4193-1.2823l3.9905-0.9745
			c0.795,0.33,3.2878,3.5554,7.4801,9.6762c2.7151,2.904,4.1632,4.724,4.3427,5.46l0.3009-0.0727l-2.0038-8.205l-1.0771-5.6395
			c-0.5762-1.3079-1.1267-1.8978-1.6533-1.7696l0.212-0.3693l-0.0701-0.2838l-2.0602,0.1855l-0.0735-0.3001L240.9503,30.5343z"/>
		<path fill="#414042" d="M255.8216,25.871c3.4007-0.0427,5.4626,1.0199,6.1892,3.1861l0.2,0.6001
			c1.0566,3.1527,0.4086,5.6703-1.9406,7.5536l-2.3868,1.4669c2.6757,0.9993,4.488,2.9159,5.437,5.7498l3.2092,2.8826l1.4327-0.4796
			l0.1898-0.4061l0.277-0.0932c0.2,0.5958,0.5864,0.7976,1.1626,0.6044l0.0975,0.2932c-1.2909,0.5796-1.8927,0.9985-1.8072,1.2558
			c-2.5766,0.212-4.4077-0.1564-5.4917-1.1071l-4.6778-6.3474l-3.2724-0.206l-0.1795,0.3855l1.785,5.3292l-0.1949,0.3907
			c0.9181,2.091,1.8585,3.3117,2.821,3.6631l-2.9612,1.6431l-0.3915-0.1949l-1.3336,0.7719l-0.8634,0.2889l-0.2941-0.8779
			c1.3456-0.4505,1.6875-1.661,1.0276-3.6323l-0.5984-1.7867l-0.3898-0.1949l0.1949-0.3907l-0.795-2.3714l-0.3898-0.1949
			l0.1932-0.3907l-0.689-1.0882l-1.8893-6.6124l-0.2924,0.0975l0.1949-0.3907l-0.1043-0.3078l-0.7865-1.3806l-0.4001-2.162
			l-1.6499-1.0917l-0.7711-0.4095l-0.0975-0.2924l0.5693-0.1915c3.2998-0.9566,4.9924-1.3062,5.0779-1.0498L255.8216,25.871z
			 M250.5727,29.2733l-0.277,0.0923l1.5832,4.7291L251.6892,34.5l0.3898,0.1949l0.0992,0.2924l-0.1949,0.3907l0.3949,0.2103
			l1.2857,3.8349l0.7694,0.4103c4.0264-1.3481,5.2455-4.3889,3.6605-9.1223l-0.1026-0.3086
			c-0.4855-1.4473-1.0361-2.1363-1.6516-2.0671l0.1949,0.5847l-0.5847,0.1966c-0.265-0.7908-0.5882-1.1224-0.9677-0.9951
			l-1.3507-0.1983L250.5727,29.2733z"/>
		<path fill="#414042" d="M274.9244,39.7848c-0.5129,0.7856-0.383,2.4124,0.3932,4.8813l1.4413-0.4522l0.1847,0.589l-0.8686,0.2727
			l-3.3784,1.384l-0.1847-0.589c1.5593-0.4898,2.1508-1.9859,1.773-4.4897l-0.1949-20.8955l0.1829-0.3975l0.5882-0.1847
			l-0.1966,0.4018l0.0923,0.2949l0.2941-0.0923l0.1863-0.3821c7.1296,11.2099,11.7886,17.6068,13.9771,19.1892l2.2192-0.0325
			l0.1847,0.5882l-6.2764,2.2945l-0.3864-0.2017l-0.1846-0.589c0.5779-0.1812,0.8036-0.4736,0.677-0.8762
			c-1.3268-2.421-2.2124-3.5614-2.6569-3.422l-0.1077,0.0342l0.4189-0.2342c-2.1799-2.7877-4.8847-6.8817-8.1127-12.2801
			l-0.2941,0.0923l0.1676,15.1157L274.9244,39.7848z M275.2595,39.4411l0.9199-0.0504l-1.2549,0.3941
			C275.0167,39.642,275.1279,39.5275,275.2595,39.4411z M277.4514,38.9915l-0.3642,0.1992l-0.5728,0.1795l-0.3351,0.0205
			L277.4514,38.9915z M278.4516,38.4384l0.2701,0.1539l-1.2703,0.3992L278.4516,38.4384z M278.8756,38.5435l-0.053,0.1017
			l-0.1009-0.053L278.8756,38.5435z M279.026,38.2588l3.6571-1.1489l-0.9711,0.5428l-2.8365,0.8908L279.026,38.2588z"/>
		<path fill="#414042" d="M291.6114,14.9355l2.674-0.2009l1.1643-0.224l0.3454,0.2479l0.2445-0.3616l0.8617-0.1658
			c3.0621-0.5899,6.0952,2.1337,9.0992,8.1717l1.1524,5.9806c-0.3368,4.8291-1.6345,7.4604-3.8879,7.8947
			c0.1248,0.6488-2.6056,1.5832-8.193,2.8031l-0.3043,0.0581l-0.0547-0.2872c0.7762-0.1496,0.954-1.3191,0.5317-3.5101
			l-3.2844-17.0494l0.0564-1.2515c-0.1539-0.7976-0.9062-1.066-2.2568-0.8061C289.6948,15.8947,290.312,15.4621,291.6114,14.9355z
			 M294.1144,15.3963l-0.2308,0.3428l2.7783,9.7036l-0.3026,0.0581l1.3387,3.7776l-0.1145,0.9489l0.2872-0.0556l-0.2291,0.3582
			l0.6907,2.0346l0.8651,4.4974l2.6159-0.5044c-0.0889-0.4676,0.412-0.978,1.508-1.5311c0.648-3.9067,0.7472-7.0304,0.2958-9.3693
			l-0.3454-0.2479l-0.0547-0.2872l0.2291-0.3582c-2.3406-6.9928-5.254-10.1532-8.7419-9.4813l-0.2479,0.3454L294.1144,15.3963z"/>
	</g>
	<g id="XMLID_1254_">
		<path id="XMLID_1257_" fill-rule="evenodd" clip-rule="evenodd" fill="#414042" d="M25.5467,51.7705
			c1.207,0.1367,3.1629,0.3111,4.5751,0.2547c0.2565-0.0086,0.4172-0.253,0.3472-0.489c-0.1248-0.4309-0.2446-0.86-0.354-1.2942
			l-0.1777-0.6891c-0.0565-0.2153-0.2343-0.3983-0.4531-0.3745c-0.3454,0.0394-0.6874,0.077-1.0139,0.0993
			c-1.4038,0.1008-2.1202,0.1658-3.0775,0.2512c-0.4617,0.0411-1.5251,0.1147-2.5407,0.1539
			c-1.0156,0.0394-1.9799,0.0411-2.2415,0.0411c-0.9848,0.0137-2.214-0.0207-3.2006-0.0735
			c-0.9866-0.0445-1.7336-0.1026-1.7679,0.0445c-0.0427,0.183,0.9181,0.5967,2.0141,0.8924
			c1.0925,0.3078,2.2961,0.5095,2.6501,0.5779C21.5714,51.4509,25.0577,51.7415,25.5467,51.7705z"/>
		<path id="XMLID_1256_" fill-rule="evenodd" clip-rule="evenodd" fill="#414042" d="M21.2398,45.3626
			c0.6343,0.1744,1.3421,0.2957,1.5542,0.3402c0.742,0.1779,2.8432,0.3932,3.1407,0.4342c0.7301,0.1233,1.9236,0.3146,2.775,0.306
			c0.2497,0,0.3112-0.3248,0.2394-0.5762l-0.578-1.9388c-0.065-0.2103-0.2649-0.3162-0.4615-0.2924l-0.2087,0.0222
			c-0.8479,0.0786-1.2805,0.1453-1.8602,0.2378c-0.5608,0.1008-2.5612,0.3248-2.8655,0.3538
			c-1.1797,0.1539-2.8758,0.2446-2.8996,0.5352C20.0567,44.9676,20.6055,45.1915,21.2398,45.3626z"/>
		<path id="XMLID_1255_" fill-rule="evenodd" clip-rule="evenodd" fill="#414042" d="M31.57,55.0567
			c-0.0632-0.1984-0.277-0.3283-0.5009-0.2959l-0.631,0.077c-1.2499,0.1264-1.8756,0.2103-2.7237,0.323
			c-0.8051,0.1266-3.7648,0.3831-4.2384,0.4018c-1.7524,0.1675-4.5016,0.1711-4.5359,0.4531
			c-0.0137,0.1847,0.9267,0.4498,1.9337,0.6396c1.0088,0.1931,2.0876,0.3179,2.4056,0.3642
			c1.1422,0.188,4.2147,0.3556,4.6455,0.3778c0.9967,0.0923,2.568,0.2206,3.8314,0.1693c0.2668-0.0103,0.4874-0.2036,0.4291-0.4225
			C32.0009,56.4433,31.7889,55.7492,31.57,55.0567z"/>
	</g>
	<g id="XMLID_827_">
		<path id="XMLID_1253_" fill-rule="evenodd" clip-rule="evenodd" fill="#414042" d="M336.2194,25.9332
			c-0.9762-0.4874-2.0824-0.8771-2.4073-1.0002c-1.1506-0.4804-4.4042-1.3062-4.8591-1.4123
			c-1.19-0.3453-3.1766-0.8686-4.5222-1.0293c-0.2222-0.0273-0.4086,0.0685-0.4291,0.2087
			c-0.1059,0.795-0.2085,1.5951-0.2633,2.3919c-0.0086,0.1418,0.142,0.2873,0.3624,0.301c0.5471,0.0375,1.1046,0.0632,1.6208,0.1128
			c1.3525,0.1352,2.0432,0.1812,2.9681,0.2479c0.4445,0.0308,1.4652,0.1231,2.4313,0.2428c0.9676,0.1163,1.8806,0.2651,2.127,0.3043
			c0.9335,0.1402,2.0859,0.3727,3.004,0.5916c0.9181,0.2138,1.6037,0.424,1.6755,0.2889
			C338.0182,27.0153,337.2025,26.4118,336.2194,25.9332z"/>
		<path id="XMLID_1252_" fill-rule="evenodd" clip-rule="evenodd" fill="#414042" d="M331.4117,30.3834
			c-0.6222-0.2735-1.3439-0.5095-1.5575-0.5898c-0.7404-0.2975-2.9185-0.8496-3.2298-0.9368
			c-0.7983-0.26-2.1422-0.6754-3.0638-0.7864c-0.1537-0.0189-0.2854,0.0854-0.3043,0.2222
			c-0.1059,0.7968-0.2103,1.5969-0.2803,2.3901c-0.0121,0.142,0.0854,0.2805,0.2358,0.2873
			c0.3745,0.0154,0.7574,0.0154,1.1114,0.041c0.9232,0.0651,1.3934,0.0685,2.0242,0.072c0.6156-0.0068,2.7596,0.0958,3.081,0.1178
			c1.2653,0.0376,3.0024,0.2309,3.0742-0.0513C332.5538,30.9717,332.0409,30.6571,331.4117,30.3834z"/>
		<path id="XMLID_828_" fill-rule="evenodd" clip-rule="evenodd" fill="#414042" d="M324.7454,19.7866
			c0.4291,0.0222,0.8635,0.0291,1.2669,0.0632c1.0568,0.0821,1.6039,0.0958,2.3355,0.118c0.6977,0.0035,3.2622,0.183,3.6794,0.2292
			c1.5251,0.0821,3.9324,0.4582,4.0247,0.188c0.0513-0.1795-0.7266-0.5693-1.5643-0.8941c-0.8412-0.3318-1.7457-0.6052-2.009-0.6993
			c-0.9507-0.3421-3.522-0.9643-3.8725-1.0568c-0.9353-0.2803-2.4705-0.7231-3.5169-0.8479
			c-0.1744-0.0222-0.3232,0.0786-0.3419,0.2171c-0.1061,0.7968-0.2087,1.5969-0.2737,2.3919
			C324.4616,19.6395,324.5728,19.778,324.7454,19.7866z"/>
	</g>
	<g id="XMLID_812_">
		<path id="XMLID_826_" fill-rule="evenodd" clip-rule="evenodd" fill="#414042" d="M337.8847,11.5372
			c-0.8481-0.0256-0.6292,1.0396,0.1145,1.1079C338.7003,12.7082,338.678,11.5627,337.8847,11.5372z"/>
		<path id="XMLID_825_" fill-rule="evenodd" clip-rule="evenodd" fill="#414042" d="M342.7438,14.7635
			c0.3591,0.1658,0.5984,0.506,1.0139,0.4872c0.2547-0.0103,0.4359-0.3129,0.4256-0.4703
			c-0.0341-0.6035-1.8294-1.3437-2.5663-1.5198c-0.2171-0.0548-0.3419-0.0308-0.3864-0.0222c-0.118,0.0256-0.3437,0.041-0.33,0.3523
			C340.9264,14.1752,341.9829,14.4095,342.7438,14.7635z"/>
		<path id="XMLID_824_" fill-rule="evenodd" clip-rule="evenodd" fill="#414042" d="M347.8969,16.4493
			c-0.3897-0.2891-1.1266-0.6788-1.7336-0.655c-0.1847,0.0068-0.636-0.0359-0.5181,0.5011c0.0786,0.3556,0.8805,0.5916,1.113,0.7301
			c0.5301,0.3129,0.9542,0.9659,1.5457,0.8941C349.1245,17.817,348.1364,16.6237,347.8969,16.4493z"/>
		<path id="XMLID_823_" fill-rule="evenodd" clip-rule="evenodd" fill="#414042" d="M339.75,17.2049
			c-0.4051,0.0103-0.7693,0.077-0.7129,0.559c0.0786,0.6823,2.3219,1.1867,2.3646,0.4429
			C341.4376,17.5537,340.4528,17.1895,339.75,17.2049z"/>
		<path id="XMLID_822_" fill-rule="evenodd" clip-rule="evenodd" fill="#414042" d="M347.6251,20.3388
			c-0.9352-0.5846-2.7237-1.1352-3.8589-1.3712c-0.2532-0.0546-0.5883-0.094-0.6702-0.0683
			c-0.1882,0.0564-0.2531,0.0837-0.236,0.277c0.0324,0.4326,0.8822,0.5317,1.2105,0.6565c0.5795,0.2257,1.2498,0.5727,1.9319,0.8668
			c0.5095,0.2206,1.4566,0.8754,1.8807,0.9044c0.2651,0.0154,0.5815-0.2462,0.5643-0.4958
			C348.4303,20.7714,348.0919,20.6312,347.6251,20.3388z"/>
		<path id="XMLID_821_" fill-rule="evenodd" clip-rule="evenodd" fill="#414042" d="M345.6555,23.1342
			c-0.9901-0.2701-2.0193-0.6206-2.6997-0.6292c-0.3659-0.0051-0.6805-0.0084-0.6669,0.2976
			c0.0222,0.5181,0.9677,0.607,1.5491,0.8019c0.4205,0.1418,1.0412,0.4188,1.6431,0.6361c0.5846,0.2085,1.1455,0.6702,1.5916,0.6718
			c0.3078,0,0.5506-0.2957,0.5181-0.5932C347.5241,23.7002,346.2264,23.2916,345.6555,23.1342z"/>
		<path id="XMLID_820_" fill-rule="evenodd" clip-rule="evenodd" fill="#414042" d="M346.5838,27.2804
			c-0.7317-0.4155-1.6583-0.5898-2.751-0.8155c-0.6376-0.1334-1.4566-0.3608-1.831-0.3045
			c-0.2395,0.0394-0.4207,0.1061-0.3813,0.3489c0.0632,0.3829,1.0035,0.5368,1.4533,0.6462c0.6581,0.164,1.1266,0.4,1.6429,0.5454
			c0.3282,0.0907,0.7062,0.1129,1.0601,0.2651c0.5334,0.2257,1.537,0.8155,1.4874,0.0172
			C347.2524,27.7694,346.9737,27.501,346.5838,27.2804z"/>
		<path id="XMLID_819_" fill-rule="evenodd" clip-rule="evenodd" fill="#414042" d="M345.534,30.9237
			c-0.8582-0.3162-1.6208-0.4461-2.4124-0.6222c-0.4223-0.094-0.8805-0.3095-1.1592-0.2805
			c-0.2582,0.0273-0.3813,0.0376-0.3831,0.2547c0.0018,0.5403,1.1644,0.6993,1.6499,0.8635
			c0.3197,0.1059,0.9352,0.3915,1.5028,0.607c0.7129,0.2717,1.9919,1.0806,1.9714,0.1401
			C346.6899,31.4281,345.9684,31.0811,345.534,30.9237z"/>
		<path id="XMLID_818_" fill-rule="evenodd" clip-rule="evenodd" fill="#414042" d="M344.3202,36.3231
			c0.4445,0.2343,1.4311,1.0344,1.5421,0.2479c0.1334-0.9403-1.3575-1.284-2.1884-1.5848
			c-0.5419-0.1915-0.9505-0.3934-1.3045-0.3916c-0.2188,0.0017-0.7096,0.0273-0.6684,0.4377
			c0.0392,0.4053,0.7351,0.5984,1.166,0.7351C343.3559,35.9248,343.9457,36.1231,344.3202,36.3231z"/>
		<path id="XMLID_817_" fill-rule="evenodd" clip-rule="evenodd" fill="#414042" d="M345.6811,40.5051
			c0.024-0.4137-0.5198-0.771-0.978-1.0242c-0.6325-0.347-1.5934-0.8668-2.2721-0.7301c-0.9866,0.2019,0.5676,1.0447,1.0788,1.3148
			C344.0996,40.377,345.6333,41.5087,345.6811,40.5051z"/>
		<path id="XMLID_816_" fill-rule="evenodd" clip-rule="evenodd" fill="#414042" d="M339.4765,41.3856
			c-0.3163,0.0053-0.7078,0.048-0.6686,0.489c0.0548,0.6327,2.2741,1.5337,2.2296,0.4445
			C341.0135,41.7841,340.0765,41.3754,339.4765,41.3856z"/>
		<path id="XMLID_815_" fill-rule="evenodd" clip-rule="evenodd" fill="#414042" d="M344.0089,44.5265
			c0.378,0.2717,0.8139,0.9557,1.2686,0.9762c0.2428,0.0103,0.4447-0.1933,0.4771-0.3813c0.1367-0.8377-1.4447-1.725-2.2944-1.961
			c-0.2087-0.0581-0.4053-0.0273-0.4344-0.0222c-0.1385,0.0205-0.3983,0.053-0.3813,0.3488
			C342.6736,43.9776,343.6978,44.299,344.0089,44.5265z"/>
		<path id="XMLID_814_" fill-rule="evenodd" clip-rule="evenodd" fill="#414042" d="M338.3207,45.1813
			c-0.2376,0.0137-0.5863,0.0359-0.5762,0.3677c0.0172,0.417,0.6616,0.6788,0.7864,0.766c0.2856,0.1999,0.7215,0.6035,1.026,0.6189
			c0.3146,0.0137,0.559-0.3813,0.5196-0.6959C340.0048,45.624,339.0439,45.1403,338.3207,45.1813z"/>
		<path id="XMLID_813_" fill-rule="evenodd" clip-rule="evenodd" fill="#414042" d="M344.7425,48.2964
			c-0.819-0.4736-1.5473-1.0993-2.2329-1.0823c-1.0823,0.024-0.1077,0.889,0.3539,1.1541c0.9729,0.5557,1.3353,0.7505,2.1424,1.3404
			c0.4599,0.3351,1.6191,1.2534,1.4447,0.0427C346.3581,49.1,345.3717,48.6588,344.7425,48.2964z"/>
	</g>
	<g id="XMLID_797_">
		<path id="XMLID_811_" fill-rule="evenodd" clip-rule="evenodd" fill="#414042" d="M12.9477,31.8624
			c-0.3472-0.1299-0.701-0.1282-1.1336-0.2222c-0.9626-0.2138-1.7439-0.7506-2.6946-1.2395
			c-0.4155-0.2155-0.9283-0.3899-1.4018-0.6052c-0.5711-0.2549-1.125-0.6378-1.5678-0.5301
			c-0.2206,0.0495-0.3745,0.2034-0.33,0.5284c0.041,0.3129,0.4377,0.5403,0.9181,0.7728c0.9454,0.4548,1.6363,0.7864,2.5355,1.2156
			c0.5011,0.236,0.9883,0.537,1.3474,0.6411c0.6838,0.2019,3.0022,0.6275,3.0262,0.0291
			C13.6674,31.9685,13.1135,31.9241,12.9477,31.8624z"/>
		<path id="XMLID_810_" fill-rule="evenodd" clip-rule="evenodd" fill="#414042" d="M16.0712,32.6319
			c-0.3282,0.0222-0.677,0.1213-0.6495,0.5282c0.0273,0.4258,0.5744,0.6754,0.7488,0.7934
			c0.2701,0.1795,0.7983,0.5385,1.0737,0.5504c0.6548,0.0257,0.7385-0.8908,0.3283-1.3507
			C17.4356,32.9978,16.7348,32.5925,16.0712,32.6319z"/>
		<path id="XMLID_809_" fill-rule="evenodd" clip-rule="evenodd" fill="#414042" d="M9.5281,34.2886
			c-0.8701-0.4617-1.749-1.4397-2.5372-1.308c-0.2821,0.0462-0.465,0.2497-0.3847,0.6669c0.0786,0.4016,0.5916,0.6035,1.0806,0.8446
			c1.0566,0.5266,1.9183,1.0942,3.1288,1.4976c0.6702,0.2206,1.7285,0.5216,1.7303-0.0769
			C12.5476,35.1708,10.2839,34.692,9.5281,34.2886z"/>
		<path id="XMLID_808_" fill-rule="evenodd" clip-rule="evenodd" fill="#414042" d="M14.9719,36.5744
			c-0.5146,0.0308-0.6651,0.2428-0.6515,0.5284c0.0377,0.8052,2.1202,1.3558,2.1013,0.3692
			C16.4098,36.8822,15.584,36.5352,14.9719,36.5744z"/>
		<path id="XMLID_807_" fill-rule="evenodd" clip-rule="evenodd" fill="#414042" d="M12.5236,39.8829
			c0.0786-0.6874-1.7662-1.0925-2.4808-1.3474c-0.8054-0.282-1.3371-0.5932-1.891-0.9164c-0.4137-0.2376-0.771-0.6719-1.243-0.5762
			c-0.2341,0.0478-0.3642,0.2069-0.3298,0.5317c0.0513,0.4428,0.6497,0.742,1.1334,1.0464c1.1301,0.7147,1.708,0.8976,3.2948,1.3232
			C11.6465,40.1154,12.4638,40.3718,12.5236,39.8829z"/>
		<path id="XMLID_806_" fill-rule="evenodd" clip-rule="evenodd" fill="#414042" d="M14.8984,39.8538
			c-0.9744,0.0718-0.4787,1.1865,0.2087,1.2926C16.0406,41.2864,16.0389,39.7699,14.8984,39.8538z"/>
		<path id="XMLID_805_" fill-rule="evenodd" clip-rule="evenodd" fill="#414042" d="M6.4968,41.8388
			c0.118,0.6462,2.6638,1.7455,3.2963,1.9029c0.766,0.1915,1.7371,0.2462,1.7336-0.2257c-0.0033-0.5165-1.4738-0.9421-2.2123-1.2054
			c-0.4975-0.1779-0.8738-0.3419-1.19-0.5198c-0.4291-0.2411-0.8155-0.6445-1.2448-0.5744
			C6.6336,41.2558,6.4268,41.4524,6.4968,41.8388z"/>
		<path id="XMLID_804_" fill-rule="evenodd" clip-rule="evenodd" fill="#414042" d="M9.5043,46.4687
			c-0.513-0.2052-0.9284-0.3846-1.2977-0.583c-0.4703-0.2479-0.8447-0.6702-1.3542-0.5898
			c-0.229,0.0376-0.3829,0.1486-0.3829,0.4309c0.0051,0.8463,2.2926,1.6429,3.2964,1.8994
			c0.7078,0.1796,2.0926,0.6224,2.1679,0.0786C12.0021,47.2142,10.1043,46.7098,9.5043,46.4687z"/>
		<path id="XMLID_803_" fill-rule="evenodd" clip-rule="evenodd" fill="#414042" d="M11.3678,51.656
			c0.2155-0.7814-2.1559-1.0447-3.028-1.4687c-0.9403-0.4531-1.2891-1.231-2.0568-1.1797
			c-0.3197,0.0222-0.5112,0.1556-0.4923,0.5145c0.0377,0.749,2.2415,1.8534,3.0826,2.0603
			C9.4409,51.7228,11.2738,51.9997,11.3678,51.656z"/>
		<path id="XMLID_802_" fill-rule="evenodd" clip-rule="evenodd" fill="#414042" d="M8.4237,54.0975
			c-1.0618-0.4428-1.8619-0.7779-2.6587-1.0207c-0.0615-0.0205-0.0819,0.0326-0.1077,0.0326
			c-0.3129,0.0137-0.542,0.0973-0.5471,0.4086c-0.0154,0.7385,1.3267,0.9796,2.1662,1.3404c0.4359,0.1847,0.9027,0.395,1.2994,0.53
			c0.7112,0.2411,2.0517,0.7028,2.0654,0.0068C10.6481,54.8601,9.0853,54.3727,8.4237,54.0975z"/>
		<path id="XMLID_801_" fill-rule="evenodd" clip-rule="evenodd" fill="#414042" d="M6.7635,58.4916
			c0.4018,0.1555,2.5596,1.2977,2.498,0.3129c-0.0291-0.4804-1.3763-0.9234-2.0022-1.2173c-0.93-0.4377-1.5489-0.8003-2.2259-1.1028
			c-0.0803-0.0376-0.0172-0.0187-0.1078-0.0172c-0.3366,0.0154-0.5778,0.2138-0.4941,0.6618
			C4.5528,57.787,5.748,58.1052,6.7635,58.4916z"/>
		<path id="XMLID_800_" fill-rule="evenodd" clip-rule="evenodd" fill="#414042" d="M12.5664,59.7192
			c-0.041-0.4738-0.7147-0.9234-1.2959-0.819c-0.424,0.0718-0.5233,0.4359-0.4925,0.6599
			C10.8891,60.4048,12.6485,60.7364,12.5664,59.7192z"/>
		<path id="XMLID_799_" fill-rule="evenodd" clip-rule="evenodd" fill="#414042" d="M5.9805,61.5074
			c-0.3916-0.1675-0.8104-0.559-1.0292-0.7351c-0.2292-0.183-0.5403-0.6462-1.0874-0.5471
			c-0.253,0.0462-0.3932,0.1966-0.3864,0.4822c0.0137,0.4377,0.8036,1.142,1.4088,1.5251c0.571,0.3624,1.4327,0.6087,1.956,0.7182
			c0.766,0.1623,2.4379,0.4513,2.3936-0.2446C9.1914,61.9708,6.7122,61.8203,5.9805,61.5074z"/>
		<path id="XMLID_798_" fill-rule="evenodd" clip-rule="evenodd" fill="#414042" d="M11.5644,63.8207
			c-0.347,0.0427-0.5778,0.2155-0.5471,0.6052c0.0445,0.537,0.9951,1.0156,1.4055,1.0772c0.412,0.065,1.0018-0.166,0.9249-0.6977
			C13.2793,64.3132,12.1168,63.7507,11.5644,63.8207z"/>
	</g>
	<path fill-rule="evenodd" clip-rule="evenodd" fill="#414042" d="M351.8669,16.7587c-0.1744-1.048-0.3146-2.1167-0.6224-3.0399
		c-0.1127-0.3437-0.376-0.636-0.5881-0.9557c-1.0583-1.6072-1.7747-2.5322-3.3989-3.5614
		c-1.0737-0.6753-2.2004-1.4481-3.3784-1.9782c-0.7779-0.347-1.5148-0.8326-2.3219-1.2565c-0.8034-0.424-1.6755-0.749-2.4688-1.1968
		c-0.7592-0.4275-1.5218-0.8599-2.4227-1.1866c-1.3217-0.4822-2.8723-0.9489-4.1666-1.3558
		c-0.5436-0.1693-1.0669-0.1744-1.6002-0.3232c-0.2496-0.0683-0.4667-0.1914-0.6805-0.253c-0.66-0.1967-1.7303-0.4137-2.2842-0.4872
		c-1.5559-0.2034-3.1151-0.2906-4.671-0.5368c-0.4223-0.0684-0.8001-0.212-1.1711-0.2479c-0.3455-0.036-0.6566,0.041-1.0207,0.0513
		c-0.725,0.0187-1.4568-0.0667-2.1988-0.1078c-2.9595-0.1658-5.8952-0.3197-8.7248-0.323c-0.6531,0-1.2396,0.1486-1.9166,0.2204
		c-0.6429,0.0649-1.3011,0.1231-1.9183,0.2189c-1.9799,0.2976-3.7255,0.5215-5.6285,0.819
		c-0.6052,0.0958-1.1403,0.3419-1.7301,0.4377c-1.2549,0.2034-2.4929,0.3882-3.6708,0.7061
		c-0.6069,0.1642-1.101,0.2719-1.7902,0.3864c-0.5625,0.0925-1.053,0.4531-1.59,0.6037c-2.2962,0.6376-4.4179,1.489-6.6407,2.1524
		c-1.1454,0.3421-2.2704,0.7078-3.4091,1.0447c-1.1387,0.3369-2.291,0.5693-3.3185,1.1131
		c-0.9952,0.5249-2.2125,0.7592-3.2776,1.1694c-0.4041,0.155-0.7901,0.3326-1.1739,0.5118
		c-5.1116,1.0571-13.9728,4.4183-19.142,5.8536c-9.4759,1.9816-17.0315,3.2002-23.9914,3.6197
		c-2.3518,0.2832-4.4785,0.3162-6.4222,0.4484c-1.9477,0.0261-3.7194,0.0499-5.3831,0.0722
		c-1.6633-0.0345-3.2187-0.035-4.7372-0.001c-1.5167-0.0167-2.9969,0.0183-4.5163,0.1265
		c-7.3442-1.0621-15.9796-2.0855-25.084-4.1119c-5.3663-1.8029-8.5571-2.3699-11.2814-3.0924
		c-2.3409-0.6266-4.5494-1.674-6.2112-1.5719c-2.1622-1.0058-7.2866-2.2319-10.2222-3.1957
		c-7.102-1.8009-13.6309-3.059-20.0494-3.6833c-1.7422-0.2507-3.509-0.2812-5.2501-0.4011
		c-1.7437-0.0996-3.4717-0.2291-5.1879-0.1825c-1.7121-0.0049-3.4023-0.0097-5.0612-0.0145
		c-1.6579,0.0768-3.2841,0.152-4.8709,0.2255c-3.0453,0.2493-6.067,0.8141-9.2234,1.1622c-1.5775,0.1864-3.1463,0.613-4.767,0.9486
		c-1.6052,0.4088-3.2873,0.671-4.9197,1.3295c-2.3397,0.9716-7.0825,1.9583-9.0234,3.1833
		c-2.0403,0.5002-3.4619,0.9422-4.4267,1.3209c-0.5475,0.0795-1.0287,0.1537-1.2472,0.2133
		c-1.1576,0.3214-2.1389,0.8771-3.2126,1.2961c-1.0685,0.4155-2.149,0.8257-3.1715,1.3523
		c-1.0121,0.5233-1.9559,1.1729-3.0775,1.515c-1.1114,0.3401-2.0636,0.9419-3.1887,1.3608
		c-1.0755,0.4018-2.0295,1.0326-3.0928,1.4756c-1.0601,0.4427-1.98,1.0651-2.999,1.5917c-1.5764,0.8138-3.2758,1.3301-4.8249,2.1081
		c-0.5231,0.2616-0.9916,0.5317-1.5643,0.7438c-1.0925,0.4051-2.2106,0.8941-3.3904,1.2155
		c-0.6274,0.1711-1.3439,0.1556-1.9337,0.3574c-0.5814,0.1948-1.0977,0.4496-1.6757,0.6378
		c-1.183,0.3796-2.4055,0.7676-3.7254,0.9318c-1.2686,0.1556-2.4586,0.6002-3.7889,0.8327c-0.653,0.1127-1.2924,0.2393-2.007,0.3043
		c-0.6772,0.0616-1.308,0.2292-2.0073,0.306c-2.0159,0.2171-4.3291,0.2343-6.4663,0.4685
		c-0.7933,0.0854-1.7781,0.0564-2.4465-0.0958c-0.5165-0.1145-1.2603-0.5557-1.5405-0.9113
		c-0.537-0.6838-0.3147-1.6328-0.0463-2.4056c0.4222-1.2003,0.913-1.6175,1.7644-2.262c0.4137-0.3129,0.8259-0.6207,1.2259-0.7626
		c0.9677-0.3437,1.9011-0.7693,2.922-1.0172c2.1901-0.5317,4.3102-0.8875,6.5055-1.3474c1.1524-0.2427,2.3661-0.2701,3.4229-0.4514
		c1.1113-0.1913,2.3184-0.2017,3.4672-0.3932c1.6995-0.2855,3.2657-0.7693,4.9736-0.8599c1.1609-0.0615,2.1629-0.4342,3.2349-0.6138
		c0.5421-0.0905,0.9933-0.2633,1.5096-0.4172c0.5062-0.1504,1.043-0.164,1.5593-0.3624c1.0088-0.3846,2.0039-0.4958,2.9597-0.8873
		c2.255-0.9249,4.3648-2.1081,5.6848-4.0623c1.1508-1.7098,0.5916-4.2129-1.0447-6.0458c-1.7627-1.9729-5.0966-1.7354-7.1927-1.5764
		c-1.2106,0.0924-2.5202,0.0975-3.9462-0.0461c-2.4311-0.2428-4.0452-1.2532-5.5788-2.1116
		c-0.4769-0.2649-1.349-0.6942-1.7764-0.8138c-0.6257-0.1761-1.4619-0.118-1.8311-0.024c-2.4654,0.6224-2.7921,2.9289-0.6891,4.6675
		c0.4344,0.3556,0.79,0.6977,1.2037,0.908c1.5867,0.7983,3.946,1.0583,5.7003,0.8001c0.8274-0.1231,1.6277-0.3163,2.397-0.4564
		c0.8514-0.1488,1.5799-0.3745,2.291-0.5643c1.3267-0.3505,2.727-1.2224,4.5121-1.1781c4.0128,0.0942,6.8149,3.9786,3.9905,6.5894
		c-0.3215,0.2959-0.8516,0.4872-1.2909,0.7763c-0.4207,0.2752-0.8172,0.6121-1.2413,0.8787
		c-0.8531,0.5388-2.0345,0.9267-3.057,1.1508c-1.6841,0.371-3.6844,0.5726-5.5669,0.653c-0.6447,0.0291-1.2378,0.1966-1.8807,0.2155
		c-1.3644,0.0427-2.804-0.0958-4.2369-0.118c-2.0823-0.0308-4.1939,0.2444-6.302-0.166c-0.7797-0.1504-1.5729-0.1948-2.3697-0.2871
		c-1.5575-0.1812-3.1219-0.3078-4.647-0.4667c-0.701-0.0718-1.4601-0.2787-2.2261-0.3574c-0.7932-0.0854-1.5848-0.212-2.3833-0.3881
		c-4.7085-1.0225-9.7762-2.1013-14.2968-2.3577c-0.8207-0.0479-1.6105-0.2358-2.3611-0.2856
		c-0.7353-0.0513-1.3969,0.0513-2.0979,0.0445c-2.1473-0.0223-4.0623,0.2325-5.7241,0.7626
		c-1.5559,0.4958-3.2349,1.3917-4.0828,2.5321c-0.5112,0.6872-0.636,1.5848-1.0497,2.5389c-0.407,0.9351-0.448,1.9439-0.5677,3.0553
		c-0.0547,0.5299-0.2359,1.0462-0.2291,1.561c0.0068,0.5488,0.1984,1.1147,0.2034,1.6805c0.0119,1.1849,0.1418,2.3031,0.3574,3.4007
		c0.2051,1.0566,0.347,2.1354,0.5198,3.2349c0.1727,1.1215,0.0905,2.2567,0.1898,3.4297c0.0991,1.1761,0.0119,2.3508,0.135,3.5203
		c0.2582,2.3937,0.1044,4.4899-0.0513,6.8542c-0.2634,4.0486-0.8754,7.8683-1.0156,11.9083
		c-0.0615,1.7268-0.5197,3.2178-0.8036,4.7787c-0.205,1.1404-0.0238,2.3012,0.0275,3.433c0.0291,0.5967,0.0958,1.1354,0.2052,1.6979
		c0.3452,1.7455,0.971,3.2775,2.4859,4.5718c0.277,0.2358,0.7043,0.441,1.0856,0.6412c0.4274,0.2206,0.8771,0.4667,1.1968,0.607
		c2.6398,1.1625,5.2985,1.8465,8.3093,2.6295c1.0207,0.2668,2.0295,0.2941,3.0861,0.5284c3.2758,0.7283,6.1584,0.9797,9.1129,1.1233
		c3.0126,0.1453,5.7275,0.0051,8.3094-0.2017c0.9163-0.0735,1.8258-0.0052,2.6703-0.1607c1.2208-0.2206,2.4689-0.3881,3.729-0.4942
		c0.4361-0.0359,0.8139-0.1418,1.2225-0.2154c1.6002-0.2873,3.2433-0.4821,4.6675-0.9387c0.7488-0.2376,1.4874-0.3898,2.2227-0.6
		c1.4396-0.4139,2.7491-1.031,4.1683-1.4806c1.4311-0.4548,2.9133-0.8293,4.3633-1.2549c1.4531-0.4258,2.8141-0.954,4.2948-1.3029
		c0.7318-0.1726,1.4617-0.3556,2.1422-0.6513c0.6823-0.2958,1.3884-0.4651,2.0843-0.7045c2.079-0.713,4.1528-1.4926,5.9771-2.3816
		c0.6393-0.3113,1.3302-0.5352,1.9662-0.8087c1.3506-0.5832,2.6843-1.0755,3.8708-1.6704c1.1901-0.5951,2.5493-1.0209,3.8606-1.6176
		c1.2464-0.5659,2.356-0.8104,3.6555-1.3575l-0.1353,0.0015c2.1197-0.6832,4.2918-1.5806,6.4457-2.3533
		c1.4792-0.5026,2.9601-1.0057,4.3983-1.4943c0.7256-0.2417,1.4404-0.4797,2.1392-0.7125c0.7118-0.1981,1.425-0.3394,2.1133-0.4892
		l4.7676-0.9095c1.5839-0.3398,3.2094-0.4075,4.8112-0.6252c1.2084-0.3596,2.4547-0.4218,3.5711-0.5066
		c1.0051-0.0317,1.9106-0.0459,2.6186-0.3405c0.1622-0.0674,0.3219-0.1165,0.4976-0.1201c5.4689-0.1114,15.2444,0.1324,20.136,0.36
		c0.1434,0.0067,0.2728,0.0497,0.4063,0.1027c0.6877,0.2729,2.2273,0.4985,3.9532,0.7139c1.9189,0.2274,4.0438,0.6216,5.4869,0.9296
		c3.0955,0.601,3.3671,0.2007,6.3987,0.9006c0.0525,0.0121,0.1105,0.0295,0.1611,0.048c3.1503,1.153,5.1144,1.4194,8.2493,2.4258
		c0.0267,0.0085,0.054,0.0163,0.0813,0.0229c3.8696,0.9304,8.4346,2.1523,13.3854,3.5275
		c4.9614,1.3922,10.3544,2.8245,15.8815,3.9788c5.5194,1.1392,11.1696,2.0851,16.584,2.6226
		c5.4147,0.5651,10.5984,0.6245,15.1422,0.4273c4.6486-0.0099,12.0388-0.28,15.0159-1.0449
		c0.1128-0.029,0.2144-0.0403,0.3309-0.0383c1.4782,0.0258,4.5798-0.3749,7.2869-0.8874c0.0712-0.0135,0.1413-0.0193,0.2138-0.019
		c1.6063,0.0062,2.0423,0.0438,3.1563-0.415c0,0,1.9958-0.55,2.3261-0.41c0.2377,0.1007,0.7489,0.0833,1.9776-0.2435l3.1972-0.7103
		l3.1666-0.834c2.0891-0.5327,4.1689-1.0967,6.2225-1.7501c0.0522-0.0166,0.0994-0.0344,0.1494-0.0569
		c2.0874-0.9373,6.0963-2.6193,8.8103-4.0208c0.5356-0.1458,1.0828-0.2629,1.6104-0.4289c1.3404-0.4205,2.6929-0.8941,4.011-1.3763
		c1.3371-0.489,2.71-0.8685,3.9427-1.4738c1.2037-0.5883,2.5304-1.0892,3.9837-1.4141c1.4395-0.3197,2.7457-0.9214,4.0691-1.2993
		c2.6929-0.7677,5.5394-1.4123,8.5504-2.0499c0.7266-0.1523,1.5079-0.2155,2.2926-0.3455c1.5114-0.2479,2.7562-0.7164,4.5189-0.7419
		c0.8582-0.0154,1.7166-0.1608,2.4773-0.1284c0.8585,0.0377,1.6671,0.0137,2.5253-0.0718c0.8241-0.0821,1.708,0.0086,2.5698-0.0187
		c1.6722-0.0513,3.5119,0.1555,5.4216,0.2871c0.8549,0.0582,1.8003,0.0667,2.751,0.1967c1.9285,0.2633,3.7717,0.7147,5.6916,1.0687
		c1.0207,0.188,2.2243,0.3043,2.7391,0.6548c0.6274,0.4291,0.6667,1.5695,0.3727,2.221c-0.3113,0.6804-0.9575,1.3967-1.4379,1.9866
		c-0.5421,0.6686-1.1797,1.1815-1.8362,1.5645c-1.402,0.8155-3.2537,0.9437-5.3721,1.3489
		c-2.3218,0.4463-4.7462,0.8941-7.4785,0.8582c-0.5266-0.0085-1.0344,0.0685-1.5797,0.0856
		c-0.5438,0.017-1.1455-0.0804-1.7338-0.0753c-0.5778,0.0033-1.1489,0.0017-1.7354-0.0308
		c-2.3166-0.1266-4.6196-0.0496-6.8646-0.1984c-1.0668-0.0718-2.185,0.0495-3.2433,0.1162
		c-1.048,0.0685-2.0773,0.3045-2.8981,0.5455c-0.9711,0.2854-1.8071,0.5249-2.5508,0.8823
		c-0.4104,0.1931-0.8327,0.3025-1.2037,0.5231c-0.3333,0.1966-0.6411,0.489-0.9985,0.7386
		c-0.6224,0.4377-1.2789,1.0139-1.749,1.7558c-0.46,0.7266-0.7285,1.9628-0.5797,3.0621c0.0582,0.4514,0.3864,1.0344,0.6651,1.4601
		c0.9095,1.3849,2.4569,2.1508,4.1017,2.8553c1.1865,0.5077,2.6876,0.9078,3.8229,0.8377c3.2161-0.1932,6.2166,0.2154,8.9215,2.7065
		c0.4855,0.4445,0.8377,0.9421,1.3574,1.3181c1.2618,0.913,3.4709,1.2737,4.7736,0.6907c0.6052-0.2702,1.2019-0.7797,1.4225-1.5199
		c0.3727-1.2516-1.1078-2.5442-2.0654-3.1442c-0.4-0.2479-0.93-0.3608-1.4942-0.5471c-0.5267-0.1693-1.0379-0.4395-1.4979-0.5438
		c-1.1865-0.2717-2.3679-0.3369-3.4861-0.4188c-1.7885-0.1317-3.404-0.1761-4.8915-0.0634
		c-0.5198,0.0394-1.0737,0.0444-1.501,0.1078c-2.0826,0.3093-4.6061-0.2701-6.2816-1.2499
		c-0.6977-0.4053-1.8671-1.1319-2.1304-1.8602c-0.4857-1.3422,0.2495-2.7015,0.8292-3.4452
		c0.5694-0.7334,1.4875-1.0156,2.4023-1.284c0.4615-0.1334,0.8514-0.3624,1.3506-0.4514c0.5128-0.094,1.0327-0.2239,1.5524-0.2838
		c1.1062-0.1317,2.3217,0.0377,3.8024,0.1949c2.5715,0.2719,5.2318,0.9901,7.8341,1.4055
		c5.4181,0.8633,10.4703,1.949,15.7261,2.8604c1.301,0.2272,2.6707,0.3692,3.8743,0.3932c1.3063,0.0291,2.5628,0.1898,3.7664,0.2393
		c2.4399,0.1094,4.6026-0.123,6.6611-0.3368c4.2283-0.4395,7.4016-2.2603,9.0429-5.8388c0.7505-1.6396,1.101-3.3015,1.1112-5.7292
		c0.0068-1.1353,0.1147-2.315-0.0068-3.3784c-0.2427-2.1816-0.1761-4.3923-0.4872-6.6424
		c-0.1522-1.0925-0.1317-2.2363-0.1488-3.3477c-0.0205-1.142-0.0342-2.2858-0.0068-3.3663c0.1506-5.6986,1.826-9.5814,2.592-14.3104
		c0.1658-1.0293,0.0342-2.1611,0.2343-3.1733c0.1044-0.5129,0.2513-0.9421,0.2138-1.455
		C352.0481,17.8443,351.9609,17.3229,351.8669,16.7587z M48.3322,4.8984c-0.3574,0.2631-1.1678-0.2651-1.5183-0.5369
		c-0.8359-0.6497-1.1165-1.3575-0.3129-1.8499c0.2874-0.1744,0.53-0.3591,0.8908-0.371c0.8412-0.0308,0.9729,0.5471,1.0464,1.4036
		C48.4826,4.0759,48.5202,4.7581,48.3322,4.8984z M52.1997,5.4915c-0.1385,0.3642-1.72,0.2805-2.1423-0.118
		c-0.3813-0.3641-0.3727-2.0978,0.0546-2.214c0.3899-0.1077,1.3507,0.4496,1.6174,0.836
		C51.8731,4.2025,52.2972,5.235,52.1997,5.4915z M53.7639,4.7581c0.2737-0.0889,0.6088,0.0359,0.6772,0.2548
		C54.6838,5.7806,52.7895,5.0778,53.7639,4.7581z M43.1209,16.3329c0.4566-0.1624,1.4859,0.0923,2.262,0.1744
		c0.2001,0.0205,0.8635-0.0837,0.8907,0.4276c0.0223,0.4479-1.0447,0.4307-1.5746,0.5078
		c-0.4206,0.0599-1.4926,0.3163-1.8431-0.1061C42.6251,17.058,42.6986,16.4818,43.1209,16.3329z M38.585,15.9825
		c0.301-0.2565,0.9848-0.0546,1.4278-0.0086c0.5744,0.0599,0.9045,0.077,1.1061,0.2737c0.2838,0.2734,0.3881,1.0566,0.2598,1.3745
		c-0.123,0.3146-0.8342,0.3917-1.2122,0.472c-0.4496,0.0941-1.1968,0.3179-1.5335,0.041
		C38.3217,17.8768,38.373,16.1654,38.585,15.9825z M34.3038,15.4336c0.3386-0.1761,1.0328,0.0137,1.4824,0.048
		c1.2482,0.1026,1.2087,0.4582,1.2668,1.6361c0.0308,0.6703,0.1438,1.238-0.164,1.5013c-0.2737,0.2307-0.8668,0.2855-1.2721,0.3675
		c-0.4719,0.0992-1.1061,0.3163-1.4311,0.0599c-0.3965-0.3164-0.1008-1.5542-0.0991-2.1185
		C34.0901,16.198,33.856,15.6678,34.3038,15.4336z M30.5903,14.9327c0.0993-0.0822,0.3727-0.0616,0.4789-0.0667
		c0.4274-0.0205,1.1796,0.0325,1.4857,0.3333c0.2257,0.2257,0.3197,1.0378,0.3129,1.5799
		c-0.0035,0.3437-0.1744,0.8994-0.2153,1.4481c-0.0377,0.4685,0.0016,1.1849-0.1642,1.4551
		c-0.1058,0.1693-1.4806,0.8617-1.9148,0.5557c-0.4753-0.3351-0.1078-2.5236-0.0958-3.1717
		C30.4912,16.3552,30.2348,15.2352,30.5903,14.9327z M311.9446,72.2309c0.0753-0.053,0.2598-0.0394,0.347-0.041
		c0.6702-0.0258,1.2807,0.629,1.3011,1.2173c0.0222,0.7061-0.8857,1.3609-1.5799,0.889
		C311.6813,74.0688,311.5856,72.4891,311.9446,72.2309z M308.4055,71.4821c0.1266-0.1882,0.3659-0.1761,0.6462-0.1865
		c1.2225-0.0377,1.3952,0.4035,1.4089,1.561c0.0052,0.554,0.0735,1.1028-0.188,1.1849
		C309.4894,74.2912,307.7593,72.4565,308.4055,71.4821z M305.6083,60.1037c-0.2341,0.4121-1.9011-0.3897-0.7538-0.5334
		C305.3075,59.5139,305.8306,59.7037,305.6083,60.1037z M309.3441,60.8972c-0.5214,0.2153-1.8567-0.2395-1.9438-0.6191
		c-0.1711-0.7402,0.8241-0.6804,1.4839-0.6136c0.3489,0.0341,0.5352-0.0035,0.6959,0.1982
		C309.8758,60.2303,309.575,60.7996,309.3441,60.8972z M311.9788,61.4766c-0.282-0.0444-0.7761-0.1026-0.9454-0.2803
		c-0.4121-0.4361,0.0324-1.2961,0.3316-1.4379c0.1675-0.0787,0.3505-0.053,0.5933-0.0497c0.7147,0.0103,0.9062,0.2137,1.002,0.8943
		C313.0798,61.4749,312.8713,61.6187,311.9788,61.4766z M316.4379,62.0546c-0.236,0.159-1.5936-0.0462-1.8824-0.3282
		c-0.4122-0.4018-0.3129-1.6944-0.0701-1.9166c0.2598-0.2395,0.7215-0.1915,1.183-0.1453c0.2651,0.0256,0.5711-0.0035,0.7935,0.2598
		C316.7267,60.2354,316.8174,61.7963,316.4379,62.0546z M320.2762,61.3793c-0.0189,1.3336,0.0119,1.701-1.3148,1.378
		c-0.7831-0.1898-0.8276-0.2256-0.9985-0.9848c-0.118-0.5233-0.2018-1.6345,0.1248-2.0209c0.1898-0.2257,0.7592-0.2941,1.2292-0.277
		c0.2155,0.0068,0.5369-0.0223,0.7404,0.1572C320.3788,59.9156,320.2813,60.8474,320.2762,61.3793z M324.0717,62.2289
		c-0.0187,0.4839,0.0429,1.0634-0.1349,1.2294c-0.2155,0.2035-1.6242,0.1077-2.0654-0.2172
		c-0.653-0.4838-0.212-1.6755-0.2291-2.5834c-0.0102-0.6513-0.2479-1.0789-0.065-1.3985c0.1592-0.2787,1.3285-0.4155,1.7645-0.3796
		c0.7762,0.0581,0.7899,0.6856,0.8071,1.6944C324.1573,61.186,324.0856,61.793,324.0717,62.2289z M327.4279,64.0737
		c-0.3111,0.1317-1.6413,0.0189-1.9661-0.3401c-0.3967-0.4445-0.1368-2.0722-0.0822-2.6039
		c0.1266-1.1763-0.4496-2.1202,0.2138-2.6484c0.1589-0.1284,0.559-0.118,0.9762-0.2206c0.2992-0.0768,0.3932-0.2325,0.6821-0.2206
		c0.6856,0.0273,0.4976,0.5933,0.5112,1.5558c0.0035,0.4736-0.0068,1.1028-0.0306,1.6123
		C327.6811,62.3725,327.975,63.843,327.4279,64.0737z M330.9108,61.3639c-0.0223,0.4461-0.1077,1.0616-0.1231,1.5969
		c-0.0154,0.5214,0.046,1.0942-0.0839,1.2343c-0.212,0.2377-1.3523,0.1369-1.6636-0.2017c-0.489-0.535-0.0854-2.0072-0.0377-2.9167
		c0.0326-0.624-0.0187-1.2943,0.0258-1.8875c0.0478-0.636-0.0377-1.3166,0.123-1.7816c0.0685-0.2001,0.8668-0.9934,1.2072-1.0139
		c0.783-0.0496,0.4958,0.8292,0.506,1.4122C330.885,58.806,330.9774,60.0678,330.9108,61.3639z M26.6203,23.2043
		c0.089-1.0975,0.1233-1.9319,0.1198-3.0484c-0.0068-1.8192,0.1641-3.3904,0.1266-5.1532
		c-0.0017-0.1178-0.1915-0.7882,0.3778-0.8959c0.2154-0.041,1.3934,0.1077,1.6464,0.4069c0.3386,0.4018,0.212,2.8467,0.2017,3.5273
		c-0.0119,0.6257-0.1794,1.2173-0.1675,1.6944c0.0154,0.5385,0.2941,1.1951,0.1539,1.749
		c-0.1263,0.5026-0.7983,0.7983-1.1761,1.3472c-0.7114,1.0311-1.0942,2.5441-0.5506,4.0898c0.1744,0.4906,0.5506,0.889,0.424,1.2173
		c-0.1436,0.3641-0.8857,0.3505-1.1763,0.1059C26.0408,27.7761,26.5247,24.4199,26.6203,23.2043z M22.606,24.7825
		c0.0546-0.5112,0.1675-0.8806,0.2222-1.3593c0.0513-0.4787-0.0546-1.002,0.0052-1.5353c0.0152-0.1454,0.1213-0.3077,0.1641-0.6481
		c0.07-0.5419-0.0291-1.1334,0.0085-1.7267c0.0837-1.3967,0.0923-3.2999,0.1299-4.9189c0.0104-0.5863-0.0204-1.1301,0.5916-1.1984
		c0.212-0.0222,1.1642,0.0872,1.4396,0.3761c0.2222,0.2325,0.2121,0.8481,0.2598,1.19c0.0649,0.4514,0.2017,0.8223,0.2085,1.1849
		c0.0104,0.4906-0.1777,0.86-0.2188,1.2583c-0.0888,0.8685,0.048,2.0414,0.0411,2.8826c-0.0035,0.8635-0.1984,1.7388-0.277,2.6433
		c-0.0702,0.8034-0.0889,1.6037-0.171,2.7578c-0.0513,0.7197,0.0222,2.2721-0.3316,2.5422c-0.1642,0.1249-1.149,0.159-1.5526-0.0958
		c-0.2752-0.1761-0.6359-1.4326-0.6871-1.8892C22.3803,25.7142,22.558,25.2407,22.606,24.7825z M18.8257,19.809
		c0.1863-1.6893,0.2444-3.1973,0.1317-4.6387c-0.0326-0.4238,0.0204-0.9796,0.0614-1.4789
		c0.0377-0.4701-0.0478-0.9095,0.6464-0.9489c0.2957-0.0204,1.679,0.1061,1.9798,0.4137c0.3386,0.3489,0.1488,2.0894,0.0924,2.893
		c-0.1847,2.5851-0.1094,5.2146-0.3044,7.7793c-0.0615,0.7966-0.3761,1.5079-0.3317,2.209
		c0.0377,0.6325,0.4001,1.4617,0.0991,1.7473c-0.2701,0.2565-1.9421,0.053-2.3047-0.3574c-0.3555-0.4-0.1436-2.6808-0.1436-3.6349
		C18.7521,22.5496,18.6787,21.1544,18.8257,19.809z M14.6077,15.5789c0.0718-1.1011-0.1196-2.751,0.3932-3.1578
		c0.2532-0.2,0.7336-0.1385,1.0737-0.1163c0.2633,0.0189,1.1523,0.053,1.3952,0.371c0.3215,0.4223,0.0768,1.5423,0.0958,2.1288
		c0.0051,0.2393,0.1299,0.5504,0.1555,0.8393c0.1094,1.2191-0.1503,2.4091-0.2343,3.5222c-0.111,1.4822-0.0804,2.6431-0.1264,4.1169
		c-0.0343,0.9901,0.0291,3.5665-0.4514,3.7375c-0.2976,0.1043-1.5526-0.212-1.826-0.5762c-0.147-0.1933-0.188-0.7796-0.2633-1.2464
		c-0.0768-0.4872-0.2256-0.9165-0.2615-1.1985c-0.2206-1.7593,0.1281-4.4777-0.0189-6.5055
		c-0.0256-0.3813-0.1163-0.7318-0.1008-1.0275C14.4539,16.1826,14.5838,15.8884,14.6077,15.5789z M10.4616,15.0131
		c0.0856-0.9985,0.007-2.4005,0.6105-2.7424c0.3111-0.1779,1.1112-0.1026,1.402-0.0649c0.1539,0.0222,0.5128,0.0051,0.6975,0.2598
		c0.2598,0.3523,0.0172,1.1028-0.0103,1.7286c-0.1059,2.4876,0.1301,5.6045,0.1129,8.2049
		c-0.0017,0.3864-0.0872,0.749-0.0599,1.1013c0.0496,0.6462,0.4719,2.1337-0.1761,2.3353c-0.506,0.1574-1.891-0.4018-2.1542-0.7693
		c-0.2155-0.306-0.1061-1.1849-0.0957-1.8516c0.0222-1.2789-0.3472-3.0057-0.3523-4.0607c-0.0035-0.689-0.0308-1.8602-0.041-2.2722
		C10.3847,16.3878,10.4052,15.6661,10.4616,15.0131z M6.9464,15.7533c0.0189-0.1931,0.1317-0.4238,0.166-0.6975
		c0.1845-1.3507,0.0324-2.4174,1.3677-2.3833c1.0549,0.0256,0.7592,0.8395,0.6361,1.7884
		c-0.0786,0.6052-0.1539,1.2053-0.1198,1.7644c0.024,0.3813,0.1983,1.0463,0.2069,1.6242c0.0051,0.5643-0.1213,1.0634-0.1198,1.5731
		c0.0052,0.9214,0.2651,1.8327,0.306,2.6072c0.0308,0.554,0.0275,1.9372-0.2272,2.0894c-0.3934,0.2325-1.7492-0.4514-1.944-0.884
		c-0.089-0.2001,0.024-0.5608,0.0068-0.9661c-0.0136-0.3488-0.1402-0.6856-0.1556-0.8941
		c-0.0478-0.6378,0.1266-1.4037,0.1249-2.1543C7.1875,18.0428,6.8524,16.7792,6.9464,15.7533z M3.6483,14.9858
		c0.1317-0.1711,0.9883-0.8344,1.361-0.8448c0.8275-0.0238,0.5368,0.7404,0.53,1.7252c-0.0068,0.8941,0.1915,1.9815,0.2496,2.7937
		c0.0496,0.6753-0.1144,1.4037-0.1213,1.915c-0.0052,0.4324,0.1418,0.9557-0.2241,0.9796
		c-0.2871,0.0189-0.8034-0.6735-1.0223-1.0308c-0.248-0.4086-0.4942-0.9764-0.749-1.4738c-0.3384-0.66-0.8395-1.1455-0.7437-2.0517
		C2.9918,16.3946,3.3064,15.4303,3.6483,14.9858z M2.4669,20.6022c0.3573-0.118,0.9489,0.7882,1.079,0.9916
		c0.6411,1.0121,1.0258,1.5542,2.0447,2.2568c0.4377,0.3027,0.8788,0.6788,1.2943,0.9266c0.4667,0.2805,1.1642,0.5148,1.725,0.8516
		c0.5676,0.3401,0.9951,0.9694,1.5081,1.1044c0.5709,0.1521,1.1625,0.1078,1.7267,0.2686c0.8754,0.2495,1.7268,0.6308,2.5817,0.8856
		c1.7645,0.5248,3.5049,1.0566,5.5328,1.2943c0.9882,0.1163,1.973,0.4393,2.9441,0.554c0.395,0.046,0.7983-0.0222,1.1797-0.0086
		c0.4103,0.0137,0.8071,0.1436,1.2276,0.1915c0.4668,0.0496,0.9866-0.053,1.4978-0.0581c1.4908-0.0085,2.8723-0.2838,4.317-0.3351
		c1.0344-0.0359,2.0619,0.0375,3.0313-0.0548c0.4822-0.0445,0.9575-0.0821,1.4311-0.1111c0.4667-0.0291,0.8907-0.1658,1.3267-0.1761
		c0.3472-0.0119,0.7917,0.0942,1.1131,0.0788c0.3693-0.0207,0.7283-0.1711,1.1112-0.2565c0.3796-0.0854,0.7763-0.0753,1.214-0.0958
		c0.8138-0.0394,1.5729-0.2256,2.3252-0.3522c1.5696-0.2667,3.1561-0.4342,4.5275-0.8155c1.4395-0.3983,2.91-0.636,4.305-1.0344
		c0.684-0.1949,1.3165-0.5079,1.9885-0.6823c0.742-0.1949,1.5524-0.1675,2.2997-0.3488c0.3657-0.089,0.6616-0.3369,1.0429-0.4991
		c0.376-0.1592,0.8155-0.231,1.1456-0.3848c0.7437-0.3505,1.5387-0.5931,2.1849-0.8838c0.3454-0.1539,0.571-0.4225,0.8857-0.6173
		c0.8719-0.5403,1.9969-0.9318,3.009-1.3609c1.3456-0.5728,2.5698-1.2961,3.8777-1.9251c1.9507-0.937,3.9254-1.8569,5.9738-2.7014
		c0.6735-0.2787,1.3727-0.5438,2.0002-0.8481c1.284-0.6275,2.4894-1.4036,3.8366-1.9507c1.3593-0.554,2.6929-1.1763,4.1307-1.568
		c2.7745-0.6511,5.9004-1.9518,8.7794-3.012c1.4416-0.5016,2.885-1.004,4.2868-1.4918c0.7076-0.2413,1.4045-0.4791,2.0858-0.7114
		c0.6934-0.201,1.3907-0.34,2.0626-0.4904l4.6567-0.9092c1.5463-0.3427,3.1359-0.4083,4.7008-0.6266
		c1.1798-0.3595,2.3982-0.4219,3.4893-0.5067c1.0966-0.0375,2.072-0.0496,2.7921-0.4561
		c5.3689-0.1278,15.3602,0.1298,20.1459,0.3644c0.5311,0.3154,2.1804,0.5673,4.0549,0.8068c1.8759,0.2282,3.9521,0.6219,5.3619,0.93
		c3.0517,0.6064,3.2984,0.1945,6.3362,0.9205c3.131,1.1822,5.0611,1.4417,8.169,2.4667c3.7878,0.9313,8.2593,2.1558,13.11,3.5347
		c4.844,1.3909,10.1106,2.8229,15.5112,3.9777c5.3928,1.1395,10.916,2.0864,16.2104,2.6246
		c5.2947,0.5655,10.3652,0.6257,14.8084,0.4279c4.6306-0.0097,12.0446-0.2914,14.84-1.0908
		c1.3863,0.0628,4.6178-0.3594,7.3914-0.9037c2.0161,0.0316,5.1951-0.4689,7.3984-1.0689l3.1232-0.7111l3.0923-0.8335
		c2.0665-0.5386,4.1226-1.1113,6.1517-1.7744c1.4648-0.6764,4.1122-1.2428,6.7448-1.9778l-0.0031,0.0023
		c0.0181-0.006,0.0413-0.012,0.0598-0.018c0.2607-0.0731,0.5195-0.1487,0.7786-0.2254c1.4877-0.3979,3.5394-0.8149,4.5864-1.327
		c1.2772-0.6308,2.6226-1.1832,4.035-1.6533c1.4087-0.4685,2.7286-1.0482,4.17-1.4328c1.419-0.3796,2.8878-0.7505,4.2589-1.3217
		c0.6583-0.2717,1.3507-0.554,2.0464-0.7625c1.4311-0.4276,2.8467-0.795,4.2864-1.2567c0.718-0.2308,1.4189-0.4736,2.1354-0.6497
		s1.4311-0.4599,2.1816-0.5933c0.7745-0.1385,1.5746-0.1812,2.3304-0.3846c0.7351-0.1984,1.5216-0.2871,2.3217-0.4291
		c1.5251-0.2701,3.1323-0.4633,4.7856-0.6462c0.4086-0.0445,0.8326-0.0462,1.2311-0.1094c0.3674-0.0565,0.7094-0.2309,1.0804-0.2701
		c0.6514-0.0702,1.4124,0.0084,2.1629,0.0051c2.0431-0.0103,4.3956,0.0051,6.5689,0.2651c1.4395,0.1726,2.9167,0.0837,4.3906,0.212
		c1.6345,0.1418,3.2587,0.4445,4.8214,0.6068c1.4839,0.1539,3.9324,0.778,5.4866,1.2653c0.4188,0.1317,0.8463,0.3369,1.2633,0.4445
		c0.961,0.2497,1.6995,0.4463,2.5167,0.7968c0.4139,0.1761,0.8567,0.2717,1.2105,0.4342c0.4053,0.1898,0.8173,0.5729,1.1165,0.7352
		c0.4155,0.2274,0.8806,0.3727,1.308,0.5883c0.4086,0.2067,0.795,0.4291,1.2105,0.6583c0.8173,0.4582,1.7148,0.7556,2.5099,1.2001
		c0.7488,0.419,1.5217,0.937,2.2261,1.4225c0.7728,0.5317,1.5936,0.9933,2.1268,1.4909c0.2873,0.2684,1.2858,1.4839,0.9848,1.7917
		c-0.2939,0.2992-1.1385-0.73-1.3505-0.8617c-1.1627-0.7198-1.9696-1.2464-2.9973-1.8653
		c-0.5163-0.3111-0.8428-0.6891-1.3558-1.0002c-0.913-0.5557-1.9542-0.8635-3.0467-1.3815
		c-0.4685-0.2239-0.9062-0.5555-1.4053-0.783c-1.5218-0.701-3.293-1.0995-4.8934-1.838c-1.0293-0.4804-2.0584-0.8378-3.2057-1.2345
		c-2.3782-0.8207-4.9139-0.9216-7.3877-1.1352c-1.3269-0.1146-2.5818-0.5387-3.7615-0.6036
		c-1.1556-0.0649-2.1953,0.1266-3.2245,0.1299c-0.3727,0-0.7523-0.0973-1.1251-0.1041c-0.8992-0.0154-2.002,0.1162-2.9919,0.0803
		c-1.4874-0.0548-2.6228,0.0068-3.8811,0.2017c-0.6121,0.0958-1.214,0.1829-1.8192,0.2838
		c-0.6156,0.1025-1.2653,0.0786-1.8739,0.1829c-0.5643,0.0975-1.0634,0.3659-1.6276,0.4582
		c-1.1832,0.1898-2.4895,0.2719-3.7101,0.4685c-0.5678,0.0889-1.1233,0.282-1.6825,0.4036c-2.197,0.4685-4.2812,1.3199-6.509,1.8892
		c-0.5607,0.1436-1.0649,0.3282-1.5968,0.5163c-0.5042,0.1761-0.925,0.53-1.4448,0.6805c-0.6121,0.1777-1.3318,0.1486-1.9525,0.2274
		c-0.6103,0.0751-1.2583,0.2462-1.8038,0.3897c-0.5659,0.1504-1.1608,0.3318-1.7045,0.5026
		c-0.5676,0.1761-1.142,0.2805-1.7098,0.4549c-0.6444,0.1966-1.1968,0.6393-1.8585,0.8958
		c-0.7129,0.277-1.4652,0.4019-2.1662,0.7541c-0.6412,0.323-1.2789,0.6872-1.9661,0.9282
		c-1.0858,0.3796-2.2329,0.6174-3.2895,1.0859c-0.0391,0.0172-0.0724,0.041-0.11,0.06c-0.7185,0.2129-1.4782,0.4513-2.2733,0.7106
		c0,0-0.0012,0.0002-0.0017,0.0004l-0.0001,0.0001c-4.1572,1.3557-9.1893,3.2256-13.3284,4.3749
		c-9.4759,1.9817-17.0315,3.2003-23.9914,3.6197c-2.3518,0.2832-4.4785,0.3162-6.4222,0.4484
		c-1.9476,0.0261-3.7194,0.0499-5.3831,0.0722c-1.6631-0.0345-3.2187-0.0349-4.7372-0.001
		c-1.5167-0.0167-2.9969,0.0184-4.5162,0.1266c-7.3442-1.0621-15.9796-2.0856-25.0841-4.1119
		c-5.3662-1.8029-8.5571-2.37-11.2814-3.0925c-2.3408-0.6266-4.5494-1.674-6.2111-1.5718
		c-2.1623-1.0058-7.2867-2.2319-10.2223-3.1957c-7.102-1.8009-13.6309-3.059-20.0493-3.6833
		c-1.7422-0.2508-3.509-0.2812-5.2502-0.4011c-1.7437-0.0995-3.4717-0.2291-5.1879-0.1824
		c-1.712-0.0049-3.4022-0.0098-5.0611-0.0145c-1.658,0.0768-3.2842,0.152-4.871,0.2255c-3.0452,0.2493-6.067,0.8141-9.2234,1.1622
		c-1.5774,0.1865-3.1463,0.613-4.7669,0.9487c-1.6053,0.4088-3.2874,0.6709-4.9197,1.3294
		c-2.3397,0.9716-6.797,1.5957-8.7379,2.8207c-3.5093,0.8055-5.6163,1.4659-6.8109,1.9854
		c-0.2222,0.0726-0.4446,0.1403-0.6702,0.2161c-0.4412,0.1453-0.824,0.4428-1.2754,0.5848
		c-0.4839,0.1539-1.0174,0.1948-1.4807,0.3675c-0.6138,0.2274-1.0396,0.7267-1.6345,0.9969
		c-0.4343,0.1999-0.9335,0.2598-1.3815,0.4308c-0.3369,0.1299-0.6376,0.4615-1.0258,0.6326c-1.0634,0.47-2.3355,0.9471-3.2349,1.59
		c-0.3214,0.2325-0.6735,0.4395-1.0258,0.6325c-0.3555,0.1949-0.7849,0.2737-1.1318,0.4771
		c-0.3761,0.2206-0.6292,0.465-0.9813,0.6445c-0.3625,0.1829-0.7659,0.2565-1.1866,0.4207c-0.53,0.2067-0.9608,0.6189-1.496,0.8907
		c-1.5165,0.7728-3.4434,1.3507-4.8162,2.3012c-0.913,0.6292-2.1048,1.2226-3.2759,1.5165
		c-0.6703,0.166-1.3439,0.1984-1.9799,0.3984c-0.5745,0.1761-1.1318,0.4223-1.7234,0.6275c-1.207,0.4188-2.373,0.7778-3.7648,1.0225
		c-1.3199,0.2307-2.7081,0.4238-4.0947,0.6411c-0.3848,0.0597-0.754,0.0529-1.1045,0.1127
		c-1.5593,0.2651-3.0468,1.0311-4.6916,1.3166c-0.884,0.1555-1.7559-0.0907-2.7491-0.0462
		c-0.4855,0.0222-0.901,0.1658-1.4294,0.2085c-0.9644,0.077-1.92,0.0445-2.8637,0.0804c-1.744,0.0667-3.5051,0.407-5.5328,0.2924
		c-0.4923-0.0273-0.9848-0.017-1.4943-0.041c-0.5198-0.024-1.0601-0.135-1.6003-0.1504c-0.4923-0.0172-0.9659,0.0563-1.4448,0.0154
		c-0.5573-0.048-1.1301-0.1847-1.7114-0.2668c-2.0893-0.2856-4.2742-0.6497-6.5431-1.1097
		c-1.0088-0.2067-1.9679-0.6411-2.9579-0.8941c-0.5659-0.1437-1.0462-0.1728-1.5096-0.33c-1.3028-0.4445-2.3629-0.9848-3.6656-1.585
		c-1.7235-0.795-3.2794-1.4601-4.483-2.4432c-0.4019-0.3282-1.1044-0.93-1.183-1.3968C2.3713,22.3153,1.9797,20.7612,2.4669,20.6022
		z M334.6397,62.9881c-0.0445,0.3967-0.0993,1.2173-0.2719,1.3884c-0.3608,0.3521-1.7252,0.1589-2.0022-0.0703
		c-0.2495-0.2103-0.3351-1.1814-0.3179-1.8465c0.0205-0.7026,0.1779-1.4293,0.1675-2.1885
		c-0.0136-1.2241-0.1367-2.4688-0.0495-3.6484c0.0905-1.1798,0.1693-2.3782,0.395-3.298c0.0768-0.3113,0.2889-0.5797,0.3282-0.8686
		c0.0854-0.6378-0.2069-1.2908,0.3693-1.4156c0.3659-0.0786,1.1114,0.0958,1.2686,0.2906c0.1521,0.188,0.077,0.7592,0.0649,1.1575
		c-0.0751,2.4159-0.0427,4.0317-0.0102,6.391C334.6089,60.7107,334.8174,61.4185,334.6397,62.9881z M338.2062,64.1233
		c-0.2103,0.2958-1.655,0.4462-2.0398,0.2001c-0.347-0.2206-0.253-0.8377-0.2171-1.5541c0.0684-1.2977-0.2052-2.5577-0.2017-3.8947
		c0.0034-0.4104,0.1248-0.9199,0.1266-1.4071c0.0102-1.267-0.0548-2.2074-0.0018-3.77c0.0256-0.7421-0.0702-1.5935,0.412-1.6807
		c0.3163-0.0581,1.655,0.4326,1.9047,0.8001c0.4377,0.6464,0.0273,2.4108-0.0034,3.028c-0.072,1.361,0.0786,2.8005,0.2068,4.4436
		c0.053,0.6719-0.0496,1.4329-0.07,1.9663C338.2985,63.0017,338.4045,63.8412,338.2062,64.1233z M341.3367,62.7111
		c0.0222,0.3316,0.2067,0.6566,0.1572,0.8514c-0.1009,0.3864-1.1678,0.607-1.5952,0.3113
		c-0.6497-0.4515-0.2256-2.4808-0.2411-3.3033c-0.0136-0.6565-0.2069-1.3558-0.2752-2.2466
		c-0.0753-0.9471,0.094-1.9406,0.1537-2.9612c0.0444-0.7933-0.1231-1.6122,0.6019-1.6037c0.1812,0.0018,1.1387,0.4241,1.3217,0.8926
		c0.0941,0.2444,0.0256,0.5898,0.0137,0.9643c-0.0154,0.5249,0.0786,1.1557,0.0735,1.6174
		C341.5265,58.8472,341.2015,60.8782,341.3367,62.7111z M344.1833,62.3144c-0.0786,0.301-0.8411,0.7626-1.1967,0.6464
		c-0.4002-0.1334-0.5729-1.0532-0.5592-1.7388c0.0189-0.9386,0.2906-2.5663,0.3334-3.6213c0.0275-0.759-0.2153-1.8448,0.3077-1.9679
		c0.2292-0.0546,0.8652,0.231,1.0225,0.6156c0.1984,0.4736-0.0172,1.4036-0.0172,1.9678c-0.0033,0.8412,0.0343,2.0466,0.0445,2.987
		C344.1218,61.557,344.2484,62.0733,344.1833,62.3144z M345.4691,61.0885c-0.3829-0.1675-0.2358-2.3492-0.1367-2.7715
		c0.0323-0.1572,0.1488-0.2957,0.2838-0.3248C346.8026,57.7358,346.4811,61.528,345.4691,61.0885z M347.6335,57.7085
		c-0.2957,0.1744-0.8428-0.6805-0.9762-0.8378c-0.3743-0.4412-0.5009-0.5693-0.8804-0.8669
		c-0.7352-0.5745-1.2805-1.1762-1.908-1.6224c-0.4753-0.3386-1.1336-0.6805-1.7525-1.0482
		c-0.5865-0.3503-1.1763-0.8102-1.7081-1.0907c-0.6224-0.3318-1.4156-0.5693-2.0944-0.8771c-0.73-0.33-1.4447-0.7556-2.002-0.9505
		c-0.5764-0.2052-1.173-0.3146-1.8055-0.5592c-0.559-0.212-1.1678-0.3965-1.7576-0.5471c-1.2208-0.3111-2.5031-0.7111-3.7649-0.9078
		c-1.3181-0.2052-2.6433-0.4925-3.9665-0.7575c-0.6396-0.1282-1.2875-0.3283-1.915-0.4377
		c-0.6445-0.111-1.2823-0.0597-1.9149-0.1589c-1.2789-0.2-2.5783-0.2308-3.8401-0.323c-1.8517-0.1317-3.6093-0.1471-5.3754-0.0497
		c-0.5574,0.0308-1.1251,0.101-1.6823,0.1094c-1.1645,0.0154-2.2603,0.1984-3.3683,0.2206
		c-1.0652,0.0205-1.8738-0.0923-2.7321,0.1334c-0.3915,0.1026-0.79,0.1931-1.1933,0.2787c-0.3813,0.082-0.7063,0.2701-1.0942,0.3419
		c-0.6856,0.1264-1.4089,0.1163-2.0894,0.2358c-0.6565,0.1163-1.3027,0.26-1.9474,0.3522
		c-0.6684,0.0958-1.3336,0.1693-1.9473,0.3523c-0.5812,0.1726-1.1354,0.4326-1.749,0.5711
		c-0.6583,0.1504-1.332,0.1948-1.9543,0.4018c-1.7029,0.5623-3.4965,1.183-5.3242,1.6652c-1.2497,0.33-2.4448,0.6583-3.5801,1.1437
		c-2.2021,0.9456-4.4863,1.6995-6.8338,2.587c-0.6899,0.2605-2.2026,0.9238-3.5814,1.5035
		c-0.7512,0.2761-1.5388,0.5891-2.343,0.9178c-0.0022,0.0007-0.0057,0.0021-0.0079,0.0027l0.001,0.0001
		c-0.8188,0.3347-1.6503,0.681-2.4693,1.0113c-3.7739,1.522-7.4648,2.9012-10.8184,3.8176
		c-0.0361,0.0098-0.0719,0.0182-0.1085,0.0257c-9.6745,1.9751-17.3922,3.188-24.4997,3.6056
		c-2.407,0.2819-4.5828,0.3159-6.5716,0.4477c-1.9927,0.0259-3.8055,0.0494-5.5077,0.0715
		c-1.7017-0.0345-3.2932-0.0349-4.8466-0.001c-1.5087-0.0161-2.9821,0.0165-4.4905,0.1179
		c-0.085,0.0057-0.1696,0.0031-0.2539-0.0089c-7.4706-1.0528-16.2349-2.0726-25.4785-4.0782
		c-0.045-0.0098-0.0918-0.0226-0.1356-0.0369c-5.4601-1.7864-8.709-2.3524-11.4872-3.0723
		c-2.2755-0.5952-4.4337-1.5702-6.0967-1.5798c-0.1759-0.001-0.3373-0.0283-0.4994-0.0967
		c-2.3262-0.9821-7.2855-2.152-10.196-3.0814c-0.0271-0.0086-0.0532-0.016-0.0808-0.0228
		c-7.2541-1.7956-13.9194-3.048-20.4685-3.6706c-1.7816-0.2505-3.5873-0.2803-5.3672-0.4003
		c-1.7824-0.0993-3.5491-0.2288-5.303-0.1821c-1.7501-0.0049-3.4779-0.0096-5.1736-0.0143
		c-1.695,0.0765-3.3574,0.1515-4.9796,0.2247c-3.1134,0.2495-6.2047,0.8118-9.4326,1.1605c-1.6138,0.1833-3.2194,0.612-4.8782,0.947
		c-1.6437,0.4082-3.3636,0.6722-5.0383,1.3282c-2.3589,0.9571-7.0899,1.9246-9.1469,3.1236
		c-0.0731,0.0426-6.3104,2.2618-6.391,2.2876c-1.2692,0.4059-1.7988,0.6413-1.8891,0.7706
		c-0.4967,0.1949-0.9916,0.3943-1.4517,0.6178c-1.4123,0.6855-3.1409,1.3403-4.6351,1.843
		c-0.795,0.2668-1.3952,0.5438-2.1611,0.8635c-0.3505,0.1453-1.142,0.6207-1.4994,0.7864c-1.0601,0.4958-1.9559,0.6035-3.1391,1.031
		c-2.2893,0.8327-4.6984,1.6071-7.2048,2.2671c-2.4859,0.6514-4.8762,1.4993-7.3552,2.2125
		c-0.8138,0.2343-1.5319,0.5931-2.322,0.8718c-0.8102,0.2856-1.5984,0.5302-2.4841,0.7079
		c-0.8651,0.1761-1.6669,0.4907-2.544,0.6548c-1.8193,0.3421-3.5887,0.6719-5.4729,0.9198
		c-0.9199,0.1215-1.8157,0.3626-2.7715,0.4344c-0.9899,0.0735-1.9987,0.0751-3.0451,0.1539
		c-1.9628,0.1471-4.011,0.3351-6.2182,0.2462c-2.2602-0.089-4.6796-0.2156-7.0543-0.6447
		c-1.1832-0.2136-2.3168-0.4804-3.4571-0.6308c-3.4861-0.4531-6.603-1.4738-9.7079-2.6296
		c-0.8206-0.3078-1.9611-0.7557-2.5559-1.3404c-0.0923-0.0889-1.2516-1.5405-0.9149-1.797c0.2189-0.1641,1.2499,0.395,1.8516,0.607
		c1.4089,0.4941,2.3355,0.9403,3.5872,1.4824c0.6068,0.2651,1.2309,0.4787,1.7883,0.7437c1.0361,0.4855,2.6621,0.795,3.9562,1.19
		c0.6669,0.2034,1.3643,0.3607,2.0021,0.5745c0.6616,0.2206,1.4156,0.4786,1.9439,0.5658c0.4103,0.0667,0.8566,0.0258,1.2961,0.0822
		c1.3505,0.1779,2.773,0.3881,4.0419,0.4207c1.6565,0.0443,3.2604,0.0084,4.8383-0.0018c1.5936-0.0086,3.1955,0.0051,4.7121-0.1145
		c0.7489-0.0583,1.5593-0.0275,2.2432-0.1677c0.3488-0.07,0.6462-0.1982,0.9608-0.253c1.0498-0.1794,2.1612-0.2206,3.2519-0.3641
		c0.725-0.0958,1.4773-0.1266,2.127-0.2787c0.6086-0.1453,1.1693-0.4377,1.7507-0.6702c1.142-0.4582,2.38-0.8771,3.6042-1.2259
		c0.6616-0.188,1.3917-0.135,2.1132-0.277c1.325-0.2581,2.4586-0.812,3.5854-1.2191c0.6103-0.2222,1.2787-0.2939,1.9456-0.441
		c0.6222-0.1385,1.1882-0.4291,1.7866-0.6087c0.6189-0.183,1.2994-0.2856,1.9388-0.4395c0.6464-0.1537,1.2686-0.3521,1.8859-0.4958
		c0.6479-0.1486,1.2224-0.2992,1.7763-0.6035c1.0174-0.5573,2.257-0.8787,3.3888-1.3745c0.5898-0.2565,1.2189-0.378,1.7712-0.6002
		c1.6583-0.6771,3.498-1.2105,5.0829-2.0244c1.5507-0.7966,3.2776-1.1916,5.0181-1.8345c0.5881-0.2189,1.4551-0.5421,2.0722-0.7096
		c0.6018-0.1641,1.4772-0.6702,2.0345-0.8908c0.233-0.0931,0.4444-0.1846,0.6632-0.2756c0.1212-0.0043,0.2444-0.0123,0.37-0.0276
		c2.8397-0.6513,5.8292-1.9503,8.7834-3.0101c1.4792-0.5026,2.9601-1.0057,4.3984-1.4943c0.7256-0.2417,1.4404-0.4797,2.1392-0.7125
		c0.7117-0.1981,1.425-0.3394,2.1133-0.4892l4.7676-0.9095c1.5839-0.3398,3.2094-0.4075,4.8112-0.6252
		c1.2084-0.3596,2.4547-0.4218,3.5711-0.5066c1.1219-0.0353,2.1196-0.049,2.8572-0.455c5.4913-0.1266,15.7117,0.1303,20.6045,0.3643
		c0.5447,0.3155,2.2322,0.5673,4.1499,0.8066c1.9191,0.2274,4.0439,0.6216,5.4871,0.9296c3.1234,0.6064,3.3717,0.1934,6.4815,0.9198
		c3.2101,1.1825,5.1839,1.4422,8.3689,2.4679c3.8781,0.9316,8.4575,2.1572,13.4255,3.5371
		c4.9614,1.3922,10.3543,2.8245,15.8813,3.9788c5.5195,1.1392,11.1696,2.0851,16.5841,2.6226
		c5.4147,0.5651,10.5985,0.6245,15.1422,0.4273c4.7355-0.0101,12.3162-0.2902,15.1782-1.0883
		c1.4169,0.0633,4.7223-0.3599,7.5612-0.9024c2.0596,0.0311,4.3705-0.6025,5.3083-1.2125c0.1667,0.3018,0.0035,0.7451,2.2599,0.145
		l3.1971-0.7103l3.1667-0.834c2.1157-0.5395,4.2615-1.6042,6.3406-2.2681c2.14-0.9638,6.118-2.5381,8.6555-3.8426
		c0.1877-0.0625,0.3755-0.118,0.5643-0.1812c0.93-0.3112,1.7268-0.8464,2.6945-1.1472c0.9643-0.3027,1.8978-0.6446,2.8381-0.9832
		c0.4582-0.1641,0.9661-0.3008,1.4156-0.4888c0.889-0.3694,1.8193-0.7899,2.7801-1.0328c0.5163-0.1281,1.031-0.1829,1.5114-0.3795
		c0.4514-0.1812,1.0189-0.1931,1.5114-0.3778c0.489-0.1812,0.8582-0.4205,1.3591-0.5403c0.9866-0.2393,1.9954-0.465,2.963-0.8087
		c0.9438-0.3351,2.0859-0.3591,3.105-0.6429c0.4855-0.1317,0.9163-0.3505,1.4003-0.4839c0.5009-0.1385,1.053-0.188,1.5507-0.3215
		c0.5129-0.1349,0.9454-0.3146,1.4943-0.3727c1.59-0.1691,3.1613-0.5095,4.7291-0.8496c0.53-0.1129,1.043-0.212,1.5901-0.2633
		c0.3077-0.0291,0.6052,0.0136,0.8941-0.0463c0.2137-0.0444,0.4053-0.1982,0.6413-0.2717c0.7471-0.2274,1.6414-0.1094,2.5782-0.2018
		c2.2484-0.2222,4.9771,0.0667,7.4066-0.0923c0.554-0.0359,1.089-0.0051,1.6755,0.0324c0.5299,0.0343,1.072-0.0341,1.6208-0.0238
		c1.1796,0.017,2.3936,0.3488,3.6827,0.4377c1.3097,0.0889,2.9647,0.6566,4.5616,1.0361c0.766,0.1829,1.5337,0.3778,2.2516,0.5367
		c0.4241,0.0923,0.8087,0.1026,1.1713,0.2292c0.3076,0.106,0.5709,0.3094,0.8822,0.412c0.3624,0.1248,0.7385,0.147,1.072,0.2599
		c0.3573,0.1196,0.7061,0.3129,1.0753,0.4428c0.3591,0.1281,0.7626,0.2085,1.1215,0.3607c0.4652,0.1966,0.8789,0.6413,1.3714,0.8549
		c0.5709,0.2446,1.0975,0.3351,1.607,0.5711c0.465,0.212,0.9027,0.4719,1.3679,0.7625c0.8514,0.5319,1.6959,0.9678,2.5867,1.638
		c0.7677,0.5779,1.4857,1.2874,2.2961,1.8671c0.3932,0.282,0.7353,0.5284,1.1217,0.9522c0.3829,0.4207,0.9027,0.66,1.1249,0.9489
		C347.2848,56.6279,347.8832,57.5632,347.6335,57.7085z M350.4067,20.9389c-0.0718,0.9148-0.0991,1.7611-0.1982,2.5013
		c-0.313,2.327-1.0978,4.2351-1.5218,6.5004c-0.4188,2.2311-0.9797,4.4402-1.0394,7.0081c-0.0222,0.8806-0.101,1.7816-0.0565,2.6758
		c0.0462,0.8618,0.1932,1.7387,0.1864,2.58c-0.0085,0.889,0.065,1.7166,0.1334,2.5731c0.1401,1.6876,0.1436,3.4623,0.2786,5.4284
		c0.0872,1.2635,0.1728,2.5766,0.1591,3.9991c-0.007,0.9421-0.2258,1.3353-1.0464,0.7061c-1.3422-1.0258-2.8792-2.2567-4.1-3.2895
		c-1.2294-1.0394-2.6433-1.6891-4.0964-2.4244c-0.2599-0.1299-0.4515-0.2512-0.7318-0.3419
		c-0.301-0.0991-0.6155-0.1231-0.9729-0.2906c-0.4701-0.2189-0.9095-0.6719-1.467-0.9181
		c-0.6206-0.2684-1.3386-0.4923-2.0499-0.7334c-0.371-0.1232-0.7693-0.1882-1.1249-0.3113
		c-0.3421-0.1231-0.6224-0.3248-0.9285-0.4223c-0.2992-0.0975-0.6087-0.1111-0.9266-0.1915
		c-0.2651-0.0683-0.5198-0.2358-0.7849-0.306c-0.6017-0.1607-1.207-0.118-1.8071-0.2838c-1.1677-0.3248-2.3269-0.7402-3.4313-0.954
		c-1.1627-0.2239-2.3082-0.135-3.4828-0.3624c-0.624-0.1215-1.1677-0.2446-1.7217-0.2719
		c-0.5026-0.0223-0.9575,0.0854-1.4738,0.0922c-1.0242,0.0189-2.103-0.0051-3.1528-0.0306
		c-1.0498-0.0257-2.0945,0.0991-3.1083,0.0221c-1.0806-0.0872-2.0277,0.0103-3.0671,0.0753
		c-0.5471,0.0308-1.0464-0.024-1.5372,0.0359c-0.4668,0.0599-0.8805,0.1352-1.3369,0.2565c-1.2908,0.342-2.799,0.4086-4.0709,0.7114
		c-0.465,0.111-0.9352,0.1486-1.3952,0.2017c-0.9352,0.1094-1.826,0.342-2.7389,0.5062c-0.8925,0.159-1.7593,0.4016-2.6484,0.5692
		c-0.4293,0.077-0.778,0.2958-1.2003,0.4207c-0.8259,0.2394-1.7696,0.3316-2.7066,0.5146c-0.4359,0.0856-0.7831,0.306-1.2036,0.4222
		c-0.8514,0.236-1.7644,0.3489-2.6143,0.6259c-0.8309,0.2735-1.7216,0.4256-2.5167,0.7385
		c-0.3948,0.1539-0.7453,0.3882-1.1592,0.4806c-1.7354,0.3726-3.2228,1.1625-4.9051,1.6925
		c-0.4137,0.1283-0.7558,0.2992-1.1644,0.4788c-0.7744,0.3454-1.6909,0.4786-2.4877,0.8018
		c-0.7728,0.3129-1.4875,0.8054-2.2875,1.0207c-0.3464,0.0927-0.9315,0.423-1.5637,0.7994
		c-4.3425,1.5894-9.744,4.3909-14.1385,5.5818c-9.7007,1.9818-17.4344,3.1985-24.5555,3.617
		c-2.407,0.2819-4.5828,0.3158-6.5716,0.4476c-1.9928,0.0259-3.8055,0.0494-5.5077,0.0715
		c-1.7017-0.0345-3.2932-0.0349-4.8466-0.001c-1.5517-0.0166-3.0658,0.0184-4.6192,0.1267
		c-7.5161-1.0616-16.3513-2.084-25.6716-4.1107c-5.501-1.8039-8.7651-2.3715-11.5548-3.0944
		c-2.3972-0.627-4.6641-1.6755-6.3591-1.5728c-2.219-1.0069-7.4645-2.2333-10.472-3.1975
		c-7.2703-1.8011-13.9487-3.0572-20.5104-3.681c-1.7817-0.2505-3.5873-0.2803-5.3672-0.4003
		c-1.7825-0.0993-3.5491-0.2288-5.303-0.1821c-1.7501-0.0049-3.4779-0.0096-5.1738-0.0143
		c-1.6949,0.0765-3.3573,0.1515-4.9795,0.2247c-3.1134,0.2495-6.2047,0.8118-9.4326,1.1605
		c-1.6138,0.1833-3.2195,0.612-4.8782,0.947c-1.6437,0.4082-3.3636,0.6722-5.0383,1.3282
		c-2.3998,0.9737-10.8636,2.7613-12.8601,3.9894c-1.1539,0.3641-1.8951,0.6899-2.3408,0.9708
		c-0.5757,0.2289-1.1799,0.4547-1.9214,0.7014c-0.4276,0.1418-1.2037,0.6257-1.6449,0.766
		c-0.4308,0.1349-0.8069,0.323-1.2377,0.4342c-1.6944,0.4359-3.4331,1.0207-5.013,1.6858c-1.19,0.5009-2.3423,1.0174-3.5768,1.4755
		c-1.2242,0.4531-2.5577,0.7864-3.7477,1.3164c-0.4036,0.1761-0.7761,0.3558-1.1473,0.5489
		c-0.7248,0.3796-1.5643,0.795-2.402,0.9899c-0.4514,0.1061-0.9182,0.1147-1.467,0.2189c-0.7114,0.1385-1.3575,0.5607-2.1475,0.6959
		c-0.8668,0.1521-1.4925,0.3316-2.2567,0.5881c-0.7354,0.2428-1.5286,0.3677-2.262,0.5865
		c-1.4619,0.4326-2.6706,1.1096-4.4299,1.2891c-0.8531,0.0854-1.59,0.2941-2.3287,0.5334
		c-0.7318,0.2375-1.5491,0.3419-2.2261,0.6497c-0.6924,0.3128-1.3507,0.6942-2.014,0.8703
		c-0.5881,0.1572-1.3232,0.1094-1.9679,0.2051c-0.6308,0.0923-1.2721,0.2786-1.8106,0.3231
		c-0.4102,0.0343-0.812-0.0751-1.1729-0.0205c-0.2906,0.0427-0.5385,0.2017-0.8531,0.2668c-1.2532,0.2547-2.686,0.3351-4.223,0.3265
		c-0.3745-0.0052-0.754-0.0462-1.1251-0.0154c-0.3265,0.0291-0.6444,0.1625-0.9625,0.1556c-0.6907-0.0121-1.325-0.1779-1.932-0.1746
		c-0.5266,0.0018-1.0156,0.1506-1.5592,0.1675c-1.0634,0.0377-2.3253-0.1213-3.6589-0.1744
		c-1.8293-0.07-3.8622-0.4582-5.6078-0.8855c-0.5949-0.1453-1.1046-0.342-1.6755-0.5284c-1.1883-0.3864-2.4536-0.4976-3.6299-0.9027
		c-0.489-0.1675-0.983-0.5078-1.5165-0.7028c-0.5744-0.2103-1.1182-0.3282-1.6276-0.5727
		c-0.9369-0.4498-1.7713-0.9267-3.1526-1.2772c-0.7318-0.188-2.7494-1.0977-2.9374-1.6431c-0.1162-0.33-0.0101-0.819-0.0444-1.3267
		c-0.0308-0.4291-0.1539-0.8959-0.1555-1.1985c-0.0018-1.7508,0.4667-3.0757,0.6359-4.6572
		c0.0907-0.8293,0.0958-1.6704,0.1814-2.4654c0.2615-2.4278,0.3778-4.8574,0.6548-7.2767c0.2701-2.3679,0.4033-4.8111,0.5436-7.3672
		c0.0428-0.79-0.0872-1.6224-0.0923-2.4449c-0.0035-0.8463-0.0189-1.696-0.0889-2.5405c-0.1436-1.6927-0.1127-4.1462-0.3351-6.1688
		c-0.041-0.3675,0.0035-0.7779-0.0991-1.2277c-0.0719-0.3093-0.212-0.4718-0.3181-1.0685
		c-0.0102-0.0445-0.2702-0.8994,0.0616-1.0566c0.3078-0.1488,1.1865,0.4018,1.6242,0.6411c1.1422,0.624,1.7987,1.0394,3.0229,1.6328
		c1.5387,0.742,3.1801,1.537,5.071,2.0432c0.6462,0.1711,1.2924,0.2873,1.9388,0.4925c0.624,0.1982,1.2618,0.4598,1.826,0.5727
		c0.4991,0.0991,1.0087,0.0907,1.5062,0.1847c0.4531,0.0872,0.8582,0.2838,1.2875,0.3915c1.0154,0.2547,2.0038,0.3027,2.9492,0.4086
		c0.913,0.0991,1.8602,0.2701,2.7287,0.277c1.7389,0.0119,3.6981,0.3591,5.3908,0.2582c0.7968-0.048,1.5439-0.2034,2.3423-0.2155
		c1.2208-0.0187,2.3252-0.188,3.6657-0.1504c0.4461,0.0136,0.9232,0.123,1.3781,0.118c0.6086-0.0068,1.0703-0.3421,1.6414-0.3659
		c0.4274-0.0189,0.8069,0.1213,1.1625,0.1299c0.3146,0.0119,0.5883-0.1008,0.8993-0.1436c0.5881-0.0839,1.0652-0.1693,1.6891-0.3591
		c1.0156-0.3095,2.0791-0.6088,3.2144-0.9318c0.5504-0.1539,1.1832-0.1744,1.7885-0.2908c0.588-0.1128,1.248-0.1094,1.8379-0.188
		c1.1882-0.1625,2.3816-0.3129,3.4588-0.6002c1.6088-0.4291,3.033-1.048,4.5958-1.5557c0.5231-0.1675,1.1044-0.2206,1.6669-0.3523
		c2.173-0.5044,3.7477-1.8157,5.6063-2.5662c1.932-0.7781,3.6178-1.8738,5.5275-2.6535c0.9421-0.3831,1.8071-0.9113,2.6244-1.4619
		c0.814-0.5436,1.8089-0.9164,2.6689-1.3525c0.4359-0.2222,1.031-0.2974,1.4859-0.559c0.2426-0.1367,0.4033-0.3077,0.6154-0.4155
		c0.2292-0.1198,0.436-0.1675,0.7181-0.2582c0.4804-0.1589,0.8823-0.465,1.3268-0.6752c0.9385-0.4395,1.9438-0.6462,2.9099-1.1182
		c0.3304-0.1603,0.6285-0.3427,0.9517-0.4995c2.7908-0.6732,7.2459-2.1292,10.0605-3.1658
		c1.4416-0.5016,2.8851-1.0039,4.2869-1.4917c0.7075-0.2414,1.4044-0.4791,2.0856-0.7115c0.6934-0.201,1.3907-0.34,2.0626-0.4904
		l4.6567-0.9092c1.5463-0.3427,3.1359-0.4083,4.7008-0.6266c1.1798-0.3595,2.3983-0.4218,3.4894-0.5067
		c1.0966-0.0375,2.072-0.0496,2.7921-0.456c5.3689-0.1278,15.3602,0.1298,20.1459,0.3644c0.5312,0.3154,2.1804,0.5673,4.0549,0.8068
		c1.8758,0.2282,3.9521,0.6219,5.3619,0.9301c3.0516,0.6064,3.2983,0.1945,6.3361,0.9204c3.131,1.1822,5.0612,1.4417,8.169,2.4667
		c3.7879,0.9313,8.2594,2.1559,13.11,3.5348c4.844,1.3909,10.1106,2.8229,15.5112,3.9777
		c5.3928,1.1395,10.9161,2.0864,16.2104,2.6246c5.2947,0.5656,10.3653,0.6257,14.8084,0.428
		c4.6306-0.0098,12.0447-0.2914,14.84-1.0908c1.3863,0.0628,4.6178-0.3594,7.3914-0.9037c2.0161,0.0316,3.9784-0.1948,4.8906-0.8041
		c0.1661,0.3015,0.3045,0.3352,2.5078-0.2648l3.1232-0.7111l3.0923-0.8335c2.0665-0.5386,4.1226-1.1113,6.1517-1.7744
		c1.9172-0.5308,3.5676-1.0679,4.9689-1.5942l-0.0008,0.0018c1.0532-0.2395,4.1381-1.4746,5.0716-1.8594
		c0.4958-0.205,1.0497-0.2393,1.5696-0.3932c1.4448-0.4257,2.6466-1.3147,4.1819-1.7695c1.0361-0.3078,1.7833-0.8207,2.8143-1.1558
		c0.4923-0.1608,1.0429-0.2222,1.5557-0.388c0.472-0.1539,1.0497-0.2377,1.5559-0.3899c0.5249-0.1572,1.0174-0.3846,1.5011-0.4427
		c1.2208-0.1453,2.2688-0.1453,3.2503-0.6566c0.4667-0.2428,0.8428-0.4976,1.2941-0.6583c0.4839-0.1744,1.0328-0.1966,1.5953-0.3334
		c1.5062-0.3591,2.9254-1.0345,4.3683-1.4705c1.9661-0.5984,4.3716-0.6752,6.4832-1.1968c0.5198-0.1281,1.0515-0.217,1.5764-0.3282
		c1.0737-0.229,2.2278-0.253,3.3494-0.4822c1.137-0.2343,2.3149-0.1794,3.5887-0.164c1.231,0.0154,2.4465-0.0786,3.7254-0.0463
		c0.9182,0.0223,1.715-0.1436,2.6879-0.1317c0.2992,0.0052,0.5984-0.0513,0.8804-0.0308c1.3489,0.0993,2.7133,0.6874,4.0042,0.7354
		c0.6566,0.0222,1.2156,0.0068,1.85,0.0872c0.6735,0.0872,1.3455,0.1795,2.0414,0.2634c0.3573,0.041,1.0462,0.2581,1.655,0.3727
		c1.4943,0.2872,3.1425,0.665,4.4196,1.3061c1.7884,0.8925,3.7563,1.3456,5.4284,2.2433c0.4445,0.2375,0.8549,0.4753,1.2618,0.6702
		c0.465,0.2206,0.913,0.3232,1.4003,0.5095c0.8737,0.3336,1.6123,0.8959,2.3234,1.3917c0.7336,0.5096,1.5029,1.0173,2.2261,1.5098
		c0.3745,0.2548,0.8276,0.4223,1.1592,0.694c0.3419,0.277,0.5676,0.6274,0.9233,0.8806c0.7675,0.5403,1.5319,0.7693,1.8875,1.5832
		c0.1539,0.3505,0.1436,0.8173,0.2103,1.2532C350.8497,18.6992,350.5025,19.7252,350.4067,20.9389z"/>
</g>
</svg>
