<?xml version="1.0" encoding="utf-8"?>
<!-- Generator: Adobe Illustrator 19.0.0, SVG Export Plug-In . SVG Version: 6.00 Build 0)  -->
<svg version="1.1" id="XMLID_1_" xmlns="http://www.w3.org/2000/svg" xmlns:xlink="http://www.w3.org/1999/xlink" x="0px" y="0px"
	 viewBox="-250 355.8 109.9 82.2" style="enable-background:new -250 355.8 109.9 82.2;" xml:space="preserve">
<style type="text/css">
	.st0{fill:#EC1C24;}
	.st1{fill:#808184;}
	.st2{fill:#FAAF40;}
	.st3{fill:#603813;}
	.st4{fill:#EF504E;}
	.st5{fill:#231F20;}
</style>
<g id="XMLID_479_">
	<path id="XMLID_483_" class="st0" d="M-249.2,425.2l1.3,3.3C-251,427.6-249.2,425.2-249.2,425.2z"/>
	<polygon id="XMLID_475_" class="st1" points="-248.2,424.4 -247.1,428.5 -248.1,428.5 -249.2,424.9 	"/>
	<polygon id="XMLID_474_" class="st1" points="-234,397.1 -232.7,396.3 -230.3,399.5 -229.4,399.5 -229.2,399.9 -230.4,401.3 
		-231.4,400.6 -231.2,400 	"/>
	<polygon id="XMLID_99_" class="st1" points="-212.3,419.1 -211.3,420.6 -209.9,419.5 -209,418.7 -209.8,417.4 -210.8,418 
		-214.6,413.8 -214.7,412.7 -215.6,412.4 -216.3,412.9 -216.3,413.7 -215.5,414.3 -214.9,414.6 -211.5,418.8 	"/>
	<polygon id="XMLID_477_" class="st1" points="-172.4,396.9 -172.6,397.6 -173.1,398.2 -173.4,397.8 -178,396.4 -179.3,395.8 
		-180.5,396.1 -180.7,396.7 -180.4,397.6 -179.5,397.6 -177.7,397.5 -175.9,397.7 -173.8,398.5 -173.3,398.5 -173.8,399.8 
		-172.4,400.3 -170.8,397.6 	"/>
	<polygon id="XMLID_478_" class="st1" points="-185.6,362.9 -183.3,362 -182.6,362.2 -181.4,361.6 -179.2,361.4 -178.2,362.1 
		-178,362.7 -177.9,363.7 -178.5,364.6 -178,365.6 -175.7,368.4 -175,368.5 -174.9,368.8 -175.5,369.5 -176.8,370 -177.3,369.4 
		-178.2,367.4 -179.6,366 -180.5,365.8 -180.6,365 -181.1,364.7 -182.3,364.9 -182.5,363.8 -182.9,363.1 -185.3,363.9 	"/>
	<polygon id="XMLID_476_" class="st2" points="-177.5,356.6 -176.4,359.8 -178.7,360.2 -181.6,361.1 -181.8,361.7 -182.6,362.2 
		-183.1,361.8 -183.2,361.2 -182.9,360.8 -182,360.7 	"/>
	<path id="XMLID_473_" class="st1" d="M-209.7,380.5c6-2.5,9.2-1,9.2-1l-2.2-1.9l1.1-0.6l1.7,2.2l0.7,0.5l0.9,1l0.6,0.7l-1.3,0.9
		l-1.4-1.3c-5-2.4-9.1,0.5-9.1,0.5L-209.7,380.5z"/>
	<path id="XMLID_472_" class="st3" d="M-207.4,376.3c0.4-0.6,0.7-0.9,0.7-0.9l5.6-1.7l3.7-1.9c1.5,0.1,0.1,1.8,0.1,1.8l-2.4,2.1
		l-5.3,2.7L-207.4,376.3z"/>
	<path id="XMLID_471_" class="st3" d="M-239,395.6l1-0.7c0.8,0.1,4.9-1.5,4.9-1.5l4.5-2.5c2-0.2,0,2.2,0,2.2l-3.1,2.4l-3.1,1.9
		l-2.3,0.8L-239,395.6z"/>
	<path id="XMLID_482_" class="st4" d="M-154.1,383.2h-0.8l-1.1,0.2h-0.9l-2.1-0.3l-1.7-0.5l-1.5-1.1l-1.6-0.9l-1.4-0.9l-3.5-3.3
		l-3.4-3.4l-2.9-3.8l-1,0.8l1,2l-5.8,2.2l-5.2,2.3l-10.8,5.9l-0.9-0.9l-1.3,1l0.1,0.7l-4.5,2.6c0,0-0.7,1.1-4.2,4.3
		c0,0-4,5.1-5.8,6.9c0,0-4.6,3.7-8.2,5l-4.1,1.1h-0.8l-2.9-2.8l-1,1.1l0.2,0.3l-0.1,2.1l-1.1,5.7l-1.2,7.4l-0.8,4.1l-1.1,1.4v1.7
		l1.5,0.7l0.7-0.9l0.2-0.8l2.5-1.4l2.8-1.6l1.3-1.2l2.1-0.6l2.7-1.4l1.9-1l-0.9-1l-13,7.3l1.4-7.4l0.8-4.4l0.8-3.4l0.6-3.5l0.3-0.7
		l5.4,5.4l4.2,4.1l0.5-1.6l-3.1-3.4l-2.9-2.9l0.2-0.3l4.8-1.6l2.8-1.3l2.5-1.5l2.1-1.5l3-2.9l1.8-2.3l1.2-1.8l4.3-4l3.9-3l0.8-0.2
		l4,4.1l-4.9,5l-6.6,6.3l-7.5,7.2l-2.9,3l1.4,0.3l8.6-8.3l2.8-2.5l3.2-3.1l2.2-2.4l4.8-4.3l3.1,2.7l2.1,2.5l2.6,2.4l-0.3,0.4
		l-1.9,0.7l-8.6,4.4l-3.3,1.6l-9.1,4.9l-4.6,2.1l0.4,1.2l6.5-3l3.9-2.2l5.1-2.3l4.9-2.7l3.9-1.8l2.4-1.1l1.3-0.2l-0.4-2l-0.1-1.1
		l0.7-0.8l-1.2-1.1l-5.9-5.8l4.7-4.5l10.8-9.2l-1.6,6.9l-2.8,11.4l0.9,0.4l0.9-0.3l1.4-5.8l1.8-6.7l1.2-6.1c1.6,1.4,3.2,3.5,3.2,3.5
		l3.4,3.3l2.6,1.9l2.6,1.2l4.2,0.4l1.2,0.7l1,0.7l1.3-0.6l0.2-1.1L-154.1,383.2z M-185.4,380.5l-6.6,6.2l-3.4-3.4l8.8-5.6l6.1-3.1
		l2.2-0.6L-185.4,380.5z"/>
	<g id="XMLID_98_">
		<path id="XMLID_128_" class="st5" d="M-142.4,376.7c0.6,1,0.9,2.1,1.2,3.1c0.5,1.3,0.7,2.7,0.9,4c0.2,1.6,0.3,3.2,0.1,4.8
			c-0.2,1.1-0.4,2.2-0.9,3.2c-0.2,0.3-0.2,0.6-0.4,0.9c-0.6,1-1.3,1.9-2.1,2.8c-0.5,0.6-2.5,2.1-2.9,2.3c-0.5,0.3-1.1,0.5-1.7,0.8
			c-0.3,0.1-2.5,1-3.1,1.1c-0.3,0.1-0.6,0.2-0.9,0.3c-0.6,0.1-1.2,0.1-1.8,0.2c-0.5,0.1-1.1,0.1-1.6,0.1c-0.7-0.1-1.4-0.2-2.1-0.3
			c0,0,0,0-0.1,0c-1,0-1.8-0.5-2.6-0.9c-0.7-0.3-1.3-0.7-2-1c-0.5-0.3-1-0.6-1.4-1.1c-0.7-0.7-1.5-1.4-2.2-2.1
			c-0.5-0.5-0.9-1.1-1.4-1.6c-0.2-0.3-0.6-0.6-0.7-1c0-0.1-0.1-0.1-0.1-0.2c-0.1-0.1-0.1-0.1-0.2-0.1c-0.1,0-0.1,0.1-0.1,0.2
			c0.1,0.3,0.1,0.6,0.3,0.9c0.1,0.2,0.1,0.3,0,0.4c-0.2,0.1-0.3,0.1-0.5,0c-0.2-0.2-0.3-0.5-0.5-0.8c-0.7-1.1-1-2.4-1.3-3.7
			c-0.3-1.1-0.4-2.2-0.5-3.3c-0.3-1.7-0.3-3.4-0.1-5c0.1-1.1,0.3-2.1,0.7-3.1c0.1-0.2,0.1-0.3-0.1-0.5c-0.7-0.7-1.3-1.5-2-2.2
			c-0.2-0.2-0.3-0.4-0.5-0.6c-0.1,0.3-0.1,0.6-0.2,0.9c-0.2,1.2-0.4,2.4-0.7,3.6c-0.3,1.1-0.6,2.2-0.9,3.3c-0.1,0.4-0.2,0.8-0.3,1.2
			c-0.2,1-0.6,1.9-0.7,2.9c0,0.2-0.1,0.3-0.2,0.5c-0.4,1.3-0.6,2.6-0.9,3.9c-0.1,0.3-0.2,0.6-0.2,0.8c-0.1,0.3-0.1,0.6-0.1,0.9
			c0,0.1,0,0.2,0,0.3c-0.1,0.2-0.2,0.4,0,0.6c0.2,0.2,0.4,0.3,0.7,0.2c0.2,0,0.3-0.1,0.5-0.2c0.1,0,0.2-0.1,0.3,0.1
			c0.1,0.1,0,0.2-0.1,0.2c-0.3,0.5-0.3,0.7,0.1,1.1c0.2,0.2,0.4,0.2,0.7,0.2c0.1,0,0.3-0.1,0.3,0.1c0.1,0.2,0,0.3-0.1,0.4
			c-0.2,0.1-0.2,0.3-0.4,0.4c-0.1,0.1-0.1,0.2,0,0.3c0.3,0.3,0.5,0.7,1,0.7c0,0.1-0.1,0.2-0.1,0.3c0,0.1,0,0.2,0.1,0.2
			c0.4,0.1,0.7,0.2,1.1,0.3c0.1,0,0.2,0,0.2-0.1c0-0.3,0.2-0.3,0.4-0.2c0,0,0,0,0,0c0.1,0,0.2,0,0.2-0.1c0-0.1,0-0.2-0.1-0.2
			c-0.1-0.1-0.2-0.1-0.2-0.2c0.1-0.1,0.2-0.2,0.4-0.1c0.2,0.1,0.5,0.2,0.7,0.4c0.3,0.2,0.5,0.3,0.8,0.3c0,0,0,0,0,0
			c0.2,0,0.2,0.1,0.2,0.3c0,0.3,0.2,0.6,0,0.8c-0.1,0.1-0.1,0-0.2,0c-0.1,0-0.2-0.1-0.2,0c-0.1,0.1,0,0.2,0.1,0.3
			c0.1,0.1,0.2,0.1,0.2,0.3c0,0.1,0,0.2-0.1,0.3c-0.1,0.1-0.2,0-0.2-0.1c-0.1-0.2-0.3-0.1-0.4-0.1c0.3,0.1,0.3,0.4,0.4,0.6
			c0,0.1,0,0.1-0.1,0.1c-0.1,0-0.3-0.1-0.4-0.1c-0.1,0-0.2,0.1-0.1,0.2c0,0.1,0.1,0.1,0.1,0.2c0.1,0.2-0.1,0.4-0.3,0.4
			c-0.2,0-0.4,0-0.6,0c-0.4,0-0.8-0.2-1.1-0.5c-0.1-0.1-0.1-0.2-0.2-0.2c-0.3-0.3-0.3-0.3,0.1-0.5c0.2-0.1,0.2-0.4,0-0.5
			c-0.5-0.2-1-0.4-1.5-0.6c0,0.3,0.1,0.4,0.2,0.6c0.1,0.1,0,0.2-0.1,0.2c-0.1,0-0.3,0-0.4,0c-0.4,0-0.5,0.1-0.6,0.5
			c0,0.2-0.1,0.5,0,0.7c0,0.1,0,0.2,0,0.2c-0.1,0-0.2,0-0.2,0c-0.1-0.1-0.2-0.2-0.3-0.3c-0.2-0.1-0.3-0.1-0.4,0.1
			c-0.2,0.4-0.3,0.7-0.2,1.1c-0.4,0-0.5-0.5-0.9-0.3c-0.3,0.1-0.5,0.3-0.5,0.7c-0.1,0.1-0.2,0-0.2-0.1c-0.1-0.2-0.3-0.2-0.5-0.1
			c-0.2,0.1-0.4,0.1-0.6,0.2c-0.2,0.1-0.3,0.2-0.3,0.3c-0.2,0.5-0.4,0.5-0.7,0.2c0,0-0.1-0.1-0.1-0.1c-0.2,0.3-0.4,0.5-0.7,0.6
			c-0.2,0.1-0.4-0.1-0.6,0c-0.2,0.1-0.1,0.4-0.3,0.5c-0.2,0.1-0.4,0.5-0.7,0.4c-0.4-0.1-0.6,0.2-0.8,0.4c-0.2,0.1-0.3,0.3-0.6,0.2
			c-0.2-0.1-0.4,0.1-0.5,0.2c-0.2,0.3-0.5,0.6-1,0.5c-0.2,0-0.2,0.1-0.3,0.2c-0.2,0.3-0.4,0.5-0.8,0.4c-0.3-0.1-0.4,0.1-0.6,0.4
			c-0.1,0.3-0.4,0.4-0.6,0.4c-0.4,0-0.6,0.1-0.8,0.3c-0.2,0.2-0.4,0.3-0.6,0.3c-0.1,0-0.2,0-0.3,0.1c-0.2,0.2-0.4,0.3-0.7,0.3
			c-0.3,0.1-0.5,0.2-0.6,0.5c-0.1,0.2-0.2,0.3-0.5,0.3c-0.3-0.1-0.5,0.1-0.7,0.3c-0.3,0.2-0.5,0.5-0.9,0.4c-0.2-0.1-0.4,0.2-0.5,0.3
			c-0.1,0.1-0.2,0.2-0.4,0.2c-0.4,0.1-0.8,0.2-1.1,0.5c-0.1,0.1-0.2,0.1-0.3,0.1c-0.3,0-0.6,0.1-0.8,0.3c-0.2,0.2-0.4,0.4-0.8,0.3
			c-0.1,0-0.3,0.1-0.4,0.2c-0.2,0.4-0.6,0.4-0.9,0.5c-0.2,0-0.3,0.1-0.4,0.2c-0.2,0.2-0.5,0.3-0.7,0.3c-0.2,0-0.4,0.1-0.5,0.3
			c-0.1,0.2-0.4,0.4-0.7,0.3c-0.2,0-0.4,0-0.6,0.2c-0.2,0.1-0.4,0.2-0.7,0.3c-0.3,0.1-0.6,0.1-0.7,0.4c-0.1,0.2-0.3,0.1-0.4,0
			c-0.3-0.2-0.4,0-0.6,0.2c-0.2,0.3-0.5,0.4-0.8,0.6c-0.1,0.1-0.3,0.1-0.4,0c-0.3-0.2-0.5-0.1-0.7,0.1c-0.3,0.2-0.5,0.4-0.9,0.4
			c-0.2,0-0.3,0.1-0.5,0.3c-0.3,0.3-0.6,0.5-1.1,0.5c-0.2,0-0.5,0.1-0.6,0.3c-0.2,0.2-0.3,0.3-0.6,0.1c-0.2-0.1-0.3,0-0.4,0.1
			c-0.2,0.2-0.4,0.4-0.8,0.4c-0.3,0-0.5,0.5-0.2,0.8c0.2,0.3,0.5,0.6,0.8,0.7c0.2,0.1,0.3,0.1,0.4-0.1c0-0.1,0-0.3,0.1-0.4
			c0.2,0,0.1,0.2,0.3,0.2c0.2-0.1-0.1-0.3,0.1-0.4c0.2,0.2,0.4,0.5,0.5,0.7c0.1,0.2,0.2,0.3,0.4,0.4c0.2,0.1,0.1,0.5,0.4,0.6
			c0,0,0,0.1,0,0.1c-0.1,0-0.2,0-0.2,0.2c0,0.1,0,0.2,0.1,0.3c-0.1,0.1-0.2,0-0.3,0c-0.3-0.1-0.4,0-0.4,0.3c0,0.1,0,0.3,0.1,0.4
			c-0.2,0.1-0.2,0-0.3-0.1c-0.1-0.1-0.2-0.1-0.3,0c-0.1,0.1-0.1,0.2-0.1,0.3c0,0.2,0,0.3,0,0.5c0,0,0,0,0,0c-0.1,0.1-0.2,0-0.4-0.1
			c-0.3-0.1-0.4-0.1-0.5,0.2c-0.1,0.3-0.3,0.4-0.5,0.2c-0.1-0.1-0.2-0.2-0.2-0.3c-0.3-0.5-0.6-1-1.1-1.3c0.4-0.2,0.6-0.3,0.7-0.7
			c0-0.2,0-0.2,0-0.3c-0.4-0.5-0.7-0.9-1.1-1.4c-0.1-0.1-0.2-0.1-0.3,0c0,0.2-0.1,0.4,0,0.6c0.1,0.1,0.1,0.2,0.1,0.3
			c0,0.2-0.1,0.2-0.3,0.1c-0.2-0.1-0.4-0.3-0.6-0.4c-0.3-0.1-0.4,0-0.5,0.3c0,0.1,0,0.3-0.1,0.4c-0.2,0-0.2-0.1-0.3-0.2
			c-0.3-0.4-0.6-0.4-0.9,0c0,0-0.1,0.1-0.1,0.2c-0.1,0.2-0.2,0.2-0.3,0c-0.1-0.2-0.2-0.1-0.3-0.1c-0.4,0.1-0.7,0.2-0.9,0.5
			c-0.1,0.1-0.1,0.2-0.2,0c-0.1-0.1-0.1-0.1-0.2-0.1c-0.1,0.1-0.1,0.1,0,0.2c0.1,0.4,0.2,0.7,0.3,1.1c0.2,1.1,0.3,2.3,0.3,3.4
			c0,0.9,0,1.8-0.2,2.6c-0.2,1-0.4,1.9-0.9,2.8c-0.4,0.7-0.7,1.5-1.2,2.2c-0.4,0.7-0.9,1.2-1.5,1.8c-0.2,0.2-0.3,0.3-0.4,0.5
			c-0.3,0.3-0.5,0.6-0.8,0.8c-0.8,0.6-1.7,1.2-2.5,1.8c-0.5,0.3-1,0.5-1.6,0.7c-0.4,0.1-0.8,0.3-1.2,0.5c-0.3,0.1-0.6,0.2-0.9,0.3
			c-1.3,0.3-2.3,0.8-4.3,0.7c-2.8-0.1-4.4-1.2-5.1-1.5c-0.6-0.3-1.3-0.5-1.8-0.9c-0.7-0.6-1.4-1-2-1.6c-0.1-0.2-0.3-0.3-0.5-0.4
			c-0.4-0.3-1.3-1.4-1.4-1.6c-0.2-0.3-0.4-0.6-0.6-0.9c-0.2-0.4-0.5-0.8-0.8-1.1c-0.1-0.1-0.1-0.2-0.2-0.3c-0.2-0.3-0.3-0.3-0.5-0.2
			c-0.3,0.1-0.4,0.3-0.2,0.6c0.1,0.2,0.2,0.4,0.4,0.6c0.2,0.2,0.1,0.4,0,0.5c-0.1,0.2-0.3,0.2-0.4,0c0,0-0.1-0.1-0.1-0.1
			c-0.3-0.7-0.8-1.4-1-2.2c-0.1-0.2-0.2-0.3-0.4-0.3c-0.3,0.1-0.7,0.1-1,0c-0.5-0.1-0.9-0.4-1.1-0.9c-0.3-0.7-0.4-1.5-0.1-2.2
			c0.1-0.3,0.3-0.6,0.3-0.9c0-0.2,0.2-0.3,0.4-0.3c0.2,0,0.4,0,0.7-0.1c-0.1-0.6-0.1-1.3-0.1-1.9c-0.1-0.9,0.1-1.8,0.2-2.7
			c0.1-1.3,0.4-2.6,1-3.7c0.4-0.8,0.7-1.7,1.4-2.4c0.1-0.1,0.2-0.3,0.3-0.5c0.4-0.5,0.7-1,1.2-1.4c0.5-0.3,0.9-0.8,1.4-1.2
			c0.4-0.4,0.8-0.8,1.2-1.1c0.6-0.5,1.4-0.9,2.1-1.3c0.1-0.1,0.2-0.1,0.3-0.2c0.8-0.6,1.7-0.9,2.6-1.2c1.1-0.3,2.1-0.5,3.2-0.6
			c0.8-0.1,1.7,0,2.5,0c0.4,0,0.4,0,0.5-0.4c0.1-0.8,0.1-1.6,0.3-2.5c0.1-0.4,0.1-0.8,0.2-1.2c0-0.2,0-0.3-0.1-0.5
			c-0.2-0.2-0.4-0.3-0.6-0.5c-0.2-0.2-0.4-0.4-0.6-0.6c-0.1-0.1-0.2-0.2-0.1-0.3c0.1-0.1,0.1-0.2,0-0.3c-0.4-0.5-0.8-0.9-1.2-1.4
			c-0.4-0.4-0.7-0.7-1.1-1.1c-0.1-0.1-0.2-0.2-0.4-0.1c-0.2,0.2-0.6,0.2-0.6,0.6c0,0.1-0.1,0.2-0.2,0.4c0.2,0,0.3-0.1,0.4-0.1
			c0,0.1-0.1,0.2-0.1,0.3c-0.1,0.1-0.1,0.2,0.1,0.3c0.2,0,0.1,0.2,0.1,0.3c0,0.2,0,0.3,0.2,0.5c0.1,0.1,0.2,0.3,0.1,0.5
			c0,0.1-0.2,0.2-0.3,0.2c-0.2-0.1-0.5,0-0.5-0.3c0-0.2-0.1-0.3-0.3-0.3c-0.3-0.1-0.5-0.3-0.7-0.5c-0.2-0.2-0.5-0.3-0.5-0.6
			c0-0.1-0.1-0.1-0.2-0.1c-0.3,0.3-0.5,0-0.7-0.2c-0.1-0.1-0.2-0.3-0.4-0.5c-0.3-0.3-0.5-0.6-0.8-0.9c-0.2-0.1-0.3-0.4-0.4-0.6
			c-0.4-0.6-0.3-1.1,0.4-1.3c0.2-0.1,0.3-0.2,0.5-0.3c0.1-0.1,0.2-0.1,0.4-0.1c1.3,0,2.4-0.5,3.5-1c0.6-0.3,1.2-0.4,1.7-0.7
			c0.8-0.4,1.6-0.9,2.4-1.3c0.6-0.3,1.1-0.6,1.7-0.9c0.3-0.1,0.5,0,0.7,0.1c0.2,0.1,0.3,0.4,0.2,0.6c0,0.2,0,0.3-0.1,0.5
			c-0.1,0.2-0.2,0.3-0.2,0.5c0,0.1,0,0.2-0.1,0.3c-0.3,0.3-0.6,0.7-0.9,1c-0.8,0.8-1.9,1.4-2.8,2.1c-0.2,0.2-0.4,0.3-0.6,0.4
			c-0.1,0.1-0.2,0.2,0,0.3c0.7,0.7,1.3,1.5,1.9,2.3c0.2,0.2,0.3,0.3,0.6,0.1c0.2-0.1,0.5-0.3,0.7,0c0.3,0.2,0.5,0.5,0.4,0.9
			c-0.1,0.2,0,0.3,0.1,0.5c0.6,0.5,1,1,1.6,1.5c0.3,0.3,0.6,0.6,0.9,0.8c0.1,0.1,0.2,0.1,0.4,0.1c0.4-0.1,0.9-0.2,1.3-0.4
			c0.6-0.2,1.3-0.4,1.9-0.6c1.3-0.5,2.6-1,3.8-1.7c0.9-0.5,1.7-1,2.6-1.5c0.5-0.3,1-0.7,1.4-1c0.7-0.5,1.4-1,2-1.7
			c0,0,0.1-0.1,0.1-0.1c0.8-1.3,2-2.3,2.8-3.5c1.2-1.7,2.7-3.2,4.2-4.7c0.6-0.6,1.2-1.2,1.8-1.8c0.4-0.5,1-0.9,1.6-1.2
			c0.6-0.3,1.3-0.7,1.9-1.1c0.3-0.2,0.7-0.4,1.1-0.5c0-0.2-0.2-0.3-0.3-0.4c-0.4-0.3-0.4-0.3-0.2-0.8c0-0.1,0.1-0.2-0.1-0.2
			c-0.5-0.2-0.8-0.6-1.4-0.8c-0.3-0.1-0.6-0.1-0.9-0.2c-0.1,0.1,0,0.2-0.1,0.3c-0.1,0.3-0.2,0.3-0.5,0.1c-0.2-0.1-0.4-0.3-0.4-0.5
			c-0.1-0.2-0.2-0.2-0.4-0.3c-0.2,0-0.4-0.1-0.6,0c-0.5,0-1.1,0-1.5,0.2c-1,0.4-2,0.6-3,1.1c-0.1,0.1-0.3,0.1-0.3,0.3
			c0,0,0,0.1,0,0.1c-0.5,0.2-0.8,0.5-1.3,0.7c-0.6,0.3-1.3,0.4-1.9,0.8c-0.3,0.2-0.6,0.2-0.9,0.3c-0.1,0-0.1,0-0.2,0
			c-0.5-0.2-0.9-0.9-0.8-1.5c0-0.2,0.1-0.3,0.3-0.3c0.2,0,0.4,0,0.6-0.1c0.2,0,0.4-0.1,0.5-0.3c0.1-0.3,0.4-0.3,0.6-0.3
			c0.3,0,0.4,0,0.5-0.3c0.1-0.3,0.3-0.4,0.7-0.4c0.1,0,0.3,0,0.4,0c0.2,0,0.4-0.1,0.4-0.4c0-0.2,0.2-0.3,0.3-0.1
			c0.2,0.4,0.5,0.3,0.8,0.2c0.8-0.2,1.5-0.6,2.3-0.9c0.5-0.2,1.1-0.3,1.8-0.4c-1-0.6-1.7-1.4-2.5-2.1c-0.2-0.1-0.2-0.2-0.1-0.5
			c0.2-0.6,0.7-0.9,1.2-1.1c0.3-0.1,0.7-0.3,1-0.4c1-0.3,1.9-0.7,2.9-1c0.7-0.3,1.5-0.5,2.2-0.8c0.7-0.3,1.3-0.5,1.9-0.9
			c0.3-0.2,0.6-0.2,0.8-0.4c0.1-0.1,0.2,0,0.4,0c0.5,0.2,0.8,0.9,0.5,1.4c-0.1,0.2-0.3,0.4-0.5,0.6c-0.2,0.2-0.4,0.5-0.6,0.8
			c-0.1,0.2-0.4,0.4-0.6,0.5c-0.3,0.2-0.6,0.4-0.9,0.6c-0.6,0.4-1.1,0.8-1.7,1.1c-0.4,0.2-0.4,0.2-0.1,0.6c0.4,0.5,0.8,1.1,1.4,1.4
			c0.1,0,0.1,0.1,0.2,0.2c0.3,0.4,0.6,0.8,1,1.1c0.2,0.2,0.4,0.3,0.6,0.2c0.2-0.1,0.3,0,0.4,0.2c0.2,0.3,0.3,0.6,0.4,1
			c0,0.2,0.2,0.2,0.4,0.1c0.6-0.3,1.2-0.7,1.9-1c0.6-0.3,1.2-0.7,1.8-1c1-0.5,2-1,2.9-1.6c0.6-0.4,1.3-0.7,1.9-1
			c1-0.5,2.1-1,3.1-1.5c1-0.5,2-0.9,3.1-1.3c0.1,0,0.2,0,0.2-0.1c0.9-0.4,1.8-0.7,2.7-1.1c0.9-0.3,1.8-0.7,2.7-1
			c0.2-0.1,0.4-0.1,0.5-0.1c0.2,0,0.2-0.2,0.1-0.3c-0.3-0.4-0.5-0.9-0.8-1.2c-0.1-0.1-0.1-0.2-0.2-0.2c-0.3,0-0.4-0.2-0.6-0.4
			c-0.1-0.1-0.2-0.2-0.3-0.3c-0.1-0.1-0.1-0.2-0.1-0.3c0.2-0.2,0-0.4-0.1-0.5c-0.4-0.5-0.8-1-1.1-1.5c-0.2-0.2-0.4-0.4-0.6-0.7
			c-0.2-0.2-0.4-0.4-0.7-0.3c-0.3,0.1-0.6-0.2-0.8-0.5c-0.1-0.1-0.1-0.2-0.1-0.4c-0.1-0.1,0-0.4-0.1-0.4c-0.1-0.1-0.3,0-0.4,0
			c-0.3,0-0.7,0.1-1,0c0,0-0.1,0-0.1,0c-0.6,0.3-1.4,0.3-2,0.4c-0.8,0.2-1.5,0.7-2.3,1.1c0,0-0.1,0-0.1,0c-0.1,0-0.2,0.1-0.2,0
			c0-0.1,0-0.2,0-0.3c0.2-0.2,0.4-0.4,0.7-0.5c0.7-0.4,1.3-0.8,2.1-1.1c0.1,0,0.2,0,0.2-0.1c0.1-0.4,0.5-0.5,0.8-0.7
			c0,0,0-0.1,0.1-0.2c-0.6,0.3-1.2,0.1-1.6,0.7c0,0-0.1,0.1-0.1,0.1c-0.5,0-0.8,0.4-1.2,0.5c-0.5,0.2-1.1,0.4-1.7,0.6
			c-0.2,0.1-0.3,0.1-0.5,0.2c-0.4,0.3-0.7,0.2-1-0.2c-0.4-0.4-0.4-0.9-0.3-1.4c0-0.3,0.1-0.4,0.4-0.4c0.3,0,0.7-0.1,0.8-0.4
			c0.1-0.2,0.2-0.2,0.4-0.1c0.2,0.1,0.3,0.1,0.4-0.1c0.1-0.2,0.2-0.2,0.3-0.2c0.3,0.1,0.5-0.1,0.6-0.3c0.1-0.3,0.4-0.4,0.6-0.3
			c0.6,0.1,1-0.1,1.5-0.3c0.3-0.2,0.7-0.3,1.1-0.3c0.1,0,0.3-0.1,0.4-0.2c0.2-0.1,0.1-0.3,0.1-0.4c0-0.3,0.4-0.6,0.7-0.6
			c0.2,0,0.4,0,0.5-0.2c0,0,0.1-0.1,0.2-0.1c0.7-0.5,1.5-1,2.1-1.7c0.2-0.2,0.3-0.5,0.5-0.7c0.5-0.5,0.9-1.1,1.5-1.6
			c0.3-0.2,0.5-0.4,0.9-0.4c0.4,0.1,0.8,0.2,1.1,0.6c0.5,0.6,0.7,1.2,0.9,1.9c0.1,0.5,0.1,1.1-0.4,1.4c-0.1,0.5-0.5,0.4-0.8,0.4
			c-0.5-0.1-1.1,0-1.6,0.1c-1.2,0.3-2.4,0.6-3.6,1c0.2,0.2,0.4,0.1,0.5,0.1c0.5-0.1,1-0.1,1.5,0c1,0.2,1.7,0.9,1.6,2
			c0,0.3,0,0.3,0.3,0.3c1.4,0.3,2.8,0.9,3.9,1.9c0.5,0.4,0.7,1,0.9,1.6c0.2,0.7,0.3,1.4,0.5,2c0.1,0.3,0.2,0.6,0.4,1
			c0.3,0.6,0.3,1.2,0.8,1.7c0,0.5,0.3,0.8,0.5,1.2c0.3,0.6,0.3,0.6,0.8,0.3c0.3-0.1,0.5-0.1,0.8,0.1c0.1,0.1,0.1,0.2,0.2,0.3
			c0.2,0.3,0.4,0.3,0.7,0c0.7-0.8,1.5-1.6,2.4-2.4c0.5-0.4,0.9-0.9,1.4-1.2c0,0,0,0,0.1-0.1c0.7-0.3,1.4-0.9,2.1-1.1
			c1-0.3,2.1-0.7,3.1-1c1.1-0.3,2.3-0.6,3.5-0.6c0.1,0,0.2,0,0.3,0c1.2,0.1,2.4,0.2,3.6,0.5c1,0.3,1.9,0.6,2.8,1
			c0.3,0.1,0.6,0.3,0.9,0.5c0.2,0.1,0.3,0.3,0.4,0.5c-0.2,0-0.4-0.1-0.5-0.1c-1.1-0.6-2.3-0.9-3.4-1.4c-0.9-0.4-1.8-0.4-2.7-0.5
			c-1.3-0.1-2.5-0.1-3.8,0.2c-1.2,0.3-2.4,0.5-3.5,1c-0.5,0.2-1,0.3-1.5,0.6c-1.1,0.5-2,1.2-2.9,2.1c-0.5,0.5-1.1,0.9-1.4,1.5
			c0,0-0.1,0.1-0.1,0.1c-0.6,0.2-0.7,0.8-1,1.2c0,0-0.1,0.1-0.1,0.2c0,0.1,0,0.2,0.1,0.2c0.1,0,0.1,0,0.2,0c0,0,0.1-0.1,0.1-0.1
			c0.8-1.2,1.9-2.2,2.9-3.3c0.3-0.3,0.7-0.6,1.1-0.8c0.3-0.2,0.7-0.4,1-0.6c0.2-0.1,0.5-0.2,0.8-0.3c0.5-0.2,1.1-0.4,1.6-0.6
			c0.5-0.2,1-0.5,1.7-0.5c0.2,0,0.3-0.1,0.5-0.1c0.5-0.2,1.1-0.2,1.7-0.3c0.4,0,0.8-0.2,1.3-0.2c0.3,0,0.6,0,0.9,0
			c0.7,0.1,1.3,0.2,2,0.3c0.4,0.1,0.7,0.2,1.1,0.3c0.9,0.3,1.8,0.6,2.7,1c0.1,0,0.1,0.1,0.2,0.1c1.2,0.6,2.3,1.4,3.3,2.3
			c1.1,1,2,2.2,2.8,3.5C-142.8,376.1-142.6,376.4-142.4,376.7z M-144,379.1c-0.1-0.4-0.3-0.8-0.6-1.2c-0.6,0.5-1.3,0.8-1.9,1.2
			c-0.6,0.4-1.2,0.8-1.8,1.2c-0.6,0.4-1.3,0.6-1.7,1.2c0.1,0,0.1,0,0.2,0c0.6-0.2,1.2-0.4,1.8-0.5c1.3-0.4,2.6-0.7,3.8-1.2
			C-143.9,379.5-143.8,379.5-144,379.1z M-147.4,379.2c1-0.4,1.7-1.2,2.7-1.7c-0.6-1.1-1.3-2.1-2.3-3c-0.4,0.5-0.7,1-1.1,1.5
			c-0.5,0.7-1,1.3-1.5,1.9c-0.6,0.8-1.3,1.6-1.8,2.5c-0.2,0.4-0.6,0.8-0.8,1.3c0.3,0.1,0.5,0,0.7-0.1c0.4-0.3,0.8-0.5,1.1-0.8
			c0.8-0.5,1.6-0.8,2.3-1.4C-147.7,379.4-147.6,379.3-147.4,379.2z M-143.8,380c0-0.2-0.1-0.3-0.3-0.2c-0.3,0.1-0.6,0.3-0.9,0.4
			c-0.9,0.3-1.8,0.5-2.7,0.8c-0.9,0.3-1.9,0.6-2.8,0.8c-0.2,0-0.4,0.1-0.6,0.3c-0.4,0.4-0.8,0.7-1.3,1c-0.2,0.2-0.5,0.3-0.7,0.5
			c-0.1,0.1-0.1,0.1-0.1,0.2c0,0.1,0.1,0.1,0.2,0.1c0.8,0,1.7,0,2.5,0c0.9-0.1,1.8-0.1,2.7-0.2c0.8-0.1,1.7-0.2,2.5-0.3
			c0.3,0,0.5-0.1,0.7-0.1c0.5,0,1,0.1,1.6-0.2c-0.1-0.3-0.3-0.5-0.4-0.8C-143.5,381.6-143.7,380.8-143.8,380z M-147.3,374.7
			c0.1-0.2,0.1-0.3,0-0.5c-0.4-0.5-1-0.9-1.6-1.3c-0.2-0.2-0.4-0.5-0.8-0.5c-0.1,0.8-0.6,1.3-0.8,2c-0.2,0.7-0.6,1.3-0.9,2
			c-0.2,0.7-0.6,1.4-0.9,2c-0.3,0.7-0.6,1.3-0.8,2c-0.2,0.7-0.7,1.3-0.8,2c0.6,0,1-0.1,1.3-0.6c1-1.5,2.2-3,3.3-4.4
			C-148.6,376.5-147.9,375.6-147.3,374.7z M-142.9,383.9c0-0.2-0.1-0.3-0.3-0.3c-0.1,0-0.3,0-0.4,0c-0.1,0.1-0.3,0.1-0.4,0.1
			c-0.8-0.1-1.5,0.2-2.3,0.2c-0.5,0-0.9,0.1-1.4,0.1c-0.7,0.1-1.5,0-2.2,0.2c-0.4,0.1-0.8,0.1-1.2,0.1c-0.6,0-1.3,0-1.9,0
			c-0.1,0-0.3,0-0.3,0.2c0,0.2,0.1,0.2,0.2,0.3c0.3,0.1,0.6,0.2,1,0.3c0.5,0.1,0.9,0.2,1.4,0.4c0.2,0.1,0.4,0.1,0.6,0.1
			c0.9,0.1,1.7,0,2.6,0c1.2,0,2.5,0,3.7,0c0.2,0,0.4,0,0.7,0.1c0.1,0,0.1,0.1,0.1,0.1c0,0.1-0.1,0.1-0.1,0.1
			c-0.2-0.1-0.4-0.1-0.7-0.1c-1.1,0-2.1,0-3.2,0c-0.6,0-1.3,0-1.9,0.1c-0.1,0-0.2,0-0.3,0.1c0,0,0.1,0.1,0.1,0.1
			c1,0.3,1.9,0.6,2.8,1.1c0.2,0.1,0.4,0.1,0.6,0.2c0.7,0.2,1.4,0.3,2,0.7c0.1,0.1,0.3,0.1,0.4,0.2c0.1,0,0.2,0,0.2-0.1
			c0.1-0.5,0.3-1,0.2-1.6c0-0.1-0.1-0.2,0-0.3C-142.8,385.6-142.8,384.8-142.9,383.9z M-149.9,372.4c0.1-0.2,0-0.3-0.2-0.4
			c-0.4-0.2-0.9-0.4-1.4-0.6c-0.7-0.2-1.3-0.5-2.1-0.6c-0.3-0.1-0.5,0-0.4,0.4c0,0.4-0.1,0.9-0.1,1.3c0,0.3-0.1,0.6-0.1,0.9
			c0,0.9-0.1,1.7,0,2.6c0,0.5-0.1,1-0.1,1.4c0,0.8-0.1,1.6-0.2,2.4c-0.1,0.7-0.2,1.5,0.5,2c0.6-1,0.9-2.2,1.5-3.2
			c0.6-1.1,0.9-2.4,1.5-3.5c0.1-0.3,0.2-0.5,0.4-0.8c0.2-0.5,0.3-1,0.7-1.4C-150,372.7-150,372.6-149.9,372.4z M-143.3,389.1
			c0.1-0.2,0-0.4-0.3-0.4c-0.3-0.1-0.5-0.2-0.8-0.3c-0.3-0.1-0.6-0.3-0.9-0.4c-0.5-0.1-1-0.3-1.5-0.5c-0.7-0.3-1.3-0.5-2-0.7
			c-0.5-0.2-1-0.3-1.5-0.6c-0.3-0.2-0.6-0.2-0.9-0.2c-0.4,0-0.8-0.1-1.1-0.2c-0.4-0.1-0.7-0.1-1.1,0c0.5,0.7,1.1,1.4,1.8,1.9
			c0.7,0.5,1.4,1,2.1,1.3c1.6,0.7,3.2,1.4,4.9,1.9c0.2,0.1,0.4,0.1,0.5,0.4c-0.1,0-0.2,0.1-0.3,0c-0.2-0.2-0.5-0.2-0.7-0.3
			c-0.3-0.1-0.7-0.2-1-0.3c-1.1-0.4-2.2-0.9-3.2-1.3c-0.4-0.2-0.8-0.4-1.2-0.6c-0.1-0.1-0.2-0.2-0.4-0.1c1.5,2,3.1,3.8,4.6,5.8
			c0.2,0,0.2-0.1,0.3-0.2c0.5-0.6,1.2-1.1,1.6-1.8c0.2-0.3,0.4-0.6,0.5-1c0,0,0.1,0,0.1-0.1C-143.7,390.6-143.5,389.9-143.3,389.1z
			 M-154.3,371c0-0.2,0-0.3-0.2-0.3c-0.3-0.1-0.7-0.2-1-0.1c-0.9,0.1-1.8,0.1-2.6,0.3c-0.4,0.1-0.4,0.1-0.3,0.5
			c0.1,0.5,0.4,1,0.5,1.5c0.1,0.4,0.1,0.7,0.2,1.1c0.3,0.8,0.6,1.6,0.8,2.5c0.1,0.6,0.3,1.2,0.8,1.8c0.2,0.3,0.5,0.6,0.6,0.9
			c0.2,0.4,0.4,0.7,0.6,1c0,0,0.1,0,0.1,0c0-0.1,0-0.2,0-0.2c0.1-1,0.1-2.1,0.2-3.1c0-0.3,0-0.6,0-0.9c0-0.9,0-1.8,0.1-2.8
			C-154.4,372.4-154.3,371.7-154.3,371z M-152.1,382.3c-0.3,0.1-0.3,0.1-0.5,0.4C-152.4,382.6-152.3,382.5-152.1,382.3z
			 M-146.8,394.7c0.1-0.1,0.1-0.2,0-0.3c-0.8-0.9-1.5-1.9-2.3-2.8c-0.6-0.8-1.3-1.6-1.9-2.4c-0.3-0.4-0.6-0.8-1-1.2
			c-0.6-0.7-1.4-1-2.1-1.5c-0.1,0-0.1,0-0.2,0c-0.1,0.2,0,0.3,0,0.5c0.3,0.8,0.5,1.7,0.8,2.5c0.3,1,0.5,2.1,0.7,3.1
			c0.2,0.8,0.3,1.6,0.5,2.4c0.2,0.6,0.3,1.1,0.5,1.7c0.1,0.3,0.2,0.3,0.4,0.2c0.3-0.1,0.7-0.3,1-0.4c0.5-0.2,1.1-0.4,1.6-0.7
			c0.3-0.2,0.7-0.4,1.1-0.6C-147.3,395.2-147,395-146.8,394.7z M-157.3,376.6c-0.5-1.9-1.2-3.7-1.9-5.6c-0.8,0.3-1.7,0.2-2.4,0.8
			c0.3,0.4,0.6,0.9,1,1.2c0.5,0.4,0.9,0.9,1.3,1.4C-158.6,375.1-158,375.9-157.3,376.6z M-154.3,382.6c0.1-0.3-0.1-0.4-0.1-0.6
			c-0.1,0.2,0,0.3,0,0.4C-154.4,382.5-154.4,382.6-154.3,382.6z M-155,381c-0.2-0.6-0.6-1.1-0.8-1.6c0-0.1-0.1-0.1-0.2-0.1
			c0.2,1.2,0.7,2.3,1,3.5c0.1-0.1,0.1-0.1,0.1-0.1C-154.8,382.1-154.8,381.5-155,381z M-153.7,384.2c0-0.2-0.4-0.6-0.6-0.7
			c-0.5-0.2-1-0.1-1.5,0.1c-0.2,0.1-0.4,0.1-0.6,0.1c-0.4-0.1-0.9-0.1-1.3-0.2c-1-0.1-1.9-0.3-2.8-0.8c-0.5-0.2-0.9-0.5-1.3-0.8
			c-1.5-0.8-2.9-1.7-4.2-2.9c-0.9-0.9-1.8-1.7-2.6-2.6c-0.9-0.9-2-1.8-2.8-2.9c-0.2,0.2-0.4,0.3-0.6,0.4c-0.3,0.2-0.3,0.2,0,0.5
			c0.6,0.7,1.1,1.5,1.7,2.1c0.3,0.3,0.6,0.7,0.9,1.1c0.3,0.4,0.8,0.7,1.1,1.1c0.5,0.6,1.1,1.2,1.7,1.7c0.5,0.4,1,0.8,1.6,1.2
			c0.4,0.3,0.8,0.7,1.3,0.9c0.7,0.3,1.3,0.6,2,0.9c0.7,0.3,1.4,0.4,2.1,0.6c0.5,0.1,0.9,0.1,1.4,0.1c0.8,0.1,1.5,0.3,2.2,0.4
			c0.2,0,0.5,0,0.4,0.5c0,0.1,0.2,0.3,0.4,0.3c0.3,0,0.7,0,1-0.2C-153.8,385-153.6,384.7-153.7,384.2z M-153.5,385.4
			c0.2,0.1,0.4,0.1,0.7,0C-153.3,385.2-153.3,385.2-153.5,385.4z M-156.2,379.8c-0.3-0.9-0.5-1.7-1-2.4c-0.7-0.9-1.4-1.8-2.2-2.7
			c-0.6-0.7-1.4-1.3-2-2c-0.1-0.2-0.3-0.3-0.4-0.5c-0.2-0.2-0.3-0.2-0.5-0.1c-0.4,0.2-0.8,0.4-1.2,0.8c0.3,0.4,0.7,0.8,1,1.3
			c0.7,1,1.4,1.9,2.1,2.9c0.7,0.9,1.5,1.9,2.1,2.8c0.3,0.4,0.5,0.8,0.8,1.1c0.5,0.5,0.9,1.1,1.3,1.7c0.1,0.1,0.2,0.2,0.2,0.2
			c0.2,0.2,0.4,0,0.6,0c0.2-0.1,0.1-0.2,0.1-0.4c-0.1-0.3-0.2-0.7-0.3-1C-155.9,381-156,380.4-156.2,379.8z M-148.6,396.2
			c-0.2,0.1-0.4,0.2-0.6,0.3c0,0,0,0,0,0C-148.9,396.4-148.7,396.3-148.6,396.2C-148.6,396.2-148.6,396.2-148.6,396.2z
			 M-153.3,386.5c-0.2-0.2-0.3-0.4-0.4-0.5c-0.2-0.3-0.3-0.3-0.5,0.1C-153.9,386.2-153.6,386.3-153.3,386.5z M-154.5,386.5
			c0-0.1-0.1-0.2-0.2-0.2c-0.1,0-0.2,0.1-0.2,0.3c0,0,0,0.1,0,0.1c0.1,0.6,0,1.2-0.1,1.8c-0.1,0.7-0.4,1.5-0.4,2.2
			c-0.1,1-0.3,2.1-0.4,3.1c-0.1,0.9-0.2,1.9-0.4,2.8c0,0.2,0,0.4,0,0.6c0,0.1,0.1,0.2,0.2,0.2c0.3,0,0.6,0.1,0.8,0.1
			c1,0,2,0,2.9-0.3c0.4-0.1,0.4-0.1,0.3-0.5c-0.3-0.9-0.6-1.8-0.7-2.8c-0.1-0.9-0.3-1.8-0.5-2.7c-0.3-1.3-0.8-2.6-1.2-3.9
			C-154.4,387.1-154.4,386.8-154.5,386.5z M-156.8,383c0.1,0.1,0.3,0.3,0.5,0.1c-0.3-0.3-0.4-0.7-0.7-1c-0.6-0.6-1.1-1.3-1.6-2
			c-0.7-0.9-1.4-1.8-2.1-2.7c-0.6-0.8-1.2-1.6-1.8-2.4c-0.4-0.5-0.7-1-1.2-1.5c-0.2-0.2-0.3-0.2-0.5,0c-0.2,0.2-0.4,0.4-0.6,0.6
			c-0.4,0.4-0.8,0.8-1.2,1.3c0.2,0.1,0.3,0.2,0.4,0.3c0.2,0.1,0.2,0.3,0.1,0.5c-0.1,0.2-0.3,0.3-0.5,0.2c-0.1,0-0.2-0.2-0.4-0.2
			c-0.2,0.2-0.2,0.4,0,0.6c0.1,0.1,0.2,0.3,0.4,0.4c0.3,0.2,0.6,0.4,0.8,0.6c0.4,0.3,0.7,0.6,1.2,0.8c0.3,0.2,0.7,0.3,1,0.5
			c1,0.6,1.9,1.3,2.9,1.8c0.4,0.2,0.7,0.5,1.1,0.8c0.5,0.3,1,0.7,1.5,1.1C-157.2,382.6-157,382.8-156.8,383z M-155.5,386.6
			c0-0.1,0-0.2-0.1-0.2c-0.1-0.1-0.2,0-0.3,0.1c0,0-0.1,0.1-0.1,0.1c-0.4,0.6-0.7,1.3-1.1,1.9c-0.4,0.9-0.9,1.8-1.3,2.7
			c-0.2,0.4-0.4,0.8-0.5,1.2c-0.3,0.9-0.5,1.9-0.8,2.8c-0.1,0.3-0.2,0.6-0.2,0.9c-0.1,0.2,0,0.3,0.2,0.4c0.3,0.2,0.6,0.3,1,0.4
			c0.5,0.1,0.9,0.2,1.4,0.4c0.1,0,0.2,0.1,0.3,0c0.2-0.1,0.2-0.2,0.2-0.3c0.1-0.7,0.2-1.5,0.3-2.2c0.1-1,0.2-2,0.3-2.9
			c0.1-1.2,0.4-2.3,0.4-3.5C-155.7,387.8-155.6,387.2-155.5,386.6z M-157.3,383.2c0-0.2-0.1-0.2-0.2-0.3c-0.3-0.3-0.7-0.5-1-0.8
			c-0.5-0.4-1.1-0.8-1.7-1.2c-0.6-0.3-1.1-0.7-1.7-1.1c-0.6-0.3-1.1-0.7-1.7-1c-0.5-0.2-0.9-0.4-1.3-0.7c-0.6-0.5-1.3-0.9-2-1.1
			c-0.1,0-0.2,0-0.2,0c-0.1,0.1-0.1,0.2,0,0.3c0,0.1,0.1,0.1,0.1,0.2c0.5,0.5,1,1,1.5,1.5c0.6,0.6,1.3,1,2,1.5
			c0.7,0.5,1.6,0.9,2.3,1.4c0.5,0.3,1,0.7,1.6,0.8c0.4,0.1,0.8,0.2,1.1,0.3C-158.1,383.1-157.7,383.1-157.3,383.2z M-156.3,385.9
			c0,0-0.1-0.1-0.1-0.1c-0.1,0-0.1,0.1-0.1,0.2c0,0.1,0.1,0.1,0.1,0.1C-156.4,386-156.3,385.9-156.3,385.9z M-156.7,385.1
			c0-0.2-0.2-0.1-0.3-0.1c-0.1,0-0.2-0.1-0.2-0.2c-0.2-0.2-0.3-0.2-0.5-0.1c-0.1,0.1-0.2,0.1-0.4,0.1c-0.3-0.1-0.6,0-0.8,0
			c-0.6,0-1.2,0.2-1.8,0.2c-0.7,0-1.5,0-2.2,0.1c-0.9,0.1-1.9-0.1-2.8,0c-0.3,0-0.7,0-1-0.1c-0.5-0.1-0.9-0.1-1.4-0.1
			c-0.2,0-0.3,0-0.3,0.3c0,0.8,0.3,1.6,0.5,2.3c0,0.1,0.1,0.2,0.3,0.2c0.5-0.1,1,0,1.5-0.2c0.2-0.1,0.3-0.1,0.5,0
			c0.7,0,1.3-0.1,2-0.2c0.5-0.1,1-0.2,1.6-0.3c0.7-0.1,1.4-0.2,2.1-0.3c0.4-0.1,0.7-0.1,1.1-0.2c0.1,0,0.2,0,0.2-0.1
			c0.3-0.4,0.8-0.6,1.2-0.8c0.2-0.1,0.5-0.2,0.7-0.3C-156.8,385.3-156.7,385.2-156.7,385.1z M-156.2,386.4c-0.5,0.2-0.6,0.6-0.8,1
			c-0.2,0.4-0.4,0.8-0.4,1.3C-157,387.9-156.6,387.2-156.2,386.4z M-156.9,385.7c-0.5,0.1-0.9,0.5-1.4,0.7c0.3,0.1,0.6,0,0.9,0
			C-156.9,386.2-156.9,386.2-156.9,385.7z M-157.4,387.3c0.2-0.3,0.3-0.5,0.3-0.9c-0.4,0.1-0.7,0.1-1,0.2c-0.5,0.1-1,0.2-1.4,0.6
			c-0.2,0.2-0.5,0.3-0.8,0.5c-1.2,0.6-2.3,1.3-3.4,2c-0.5,0.3-1.1,0.7-1.6,0.9c-0.2,0.1-0.3,0.2-0.5,0.3c0.6,0.6,1.1,1.2,1.4,1.9
			c0.3,0.5,0.7,0.8,1,1.2c0.1-0.1,0.2-0.1,0.2-0.2l0.1,0.1c-0.1,0.1-0.2,0.2,0,0.4c0.4,0.5,1,0.9,1.5,1.2c0.3,0.1,0.3,0.1,0.5-0.2
			c0.2-0.3,0.4-0.6,0.6-1c0.6-1,1.2-2,1.7-3c0.2-0.3,0.3-0.6,0.4-0.9c0.2-0.6,0.4-1.3,0.6-1.9c0.1-0.2,0.2-0.5,0.2-0.8
			c-0.2,0.2-0.3,0.5-0.5,0.7c-0.3,0.3-0.6,0.6-0.9,1l-0.1-0.1c0.1-0.1,0.1-0.1,0.2-0.2C-158.4,388.5-157.9,387.9-157.4,387.3z
			 M-160.8,384.7c0.3,0,0.5,0,0.8-0.2c-3.1-0.8-5.9-2.2-8.1-4.6c-0.2,0.1-0.3,0.3-0.3,0.5c-0.1,0.4-0.2,0.7-0.2,1.1
			c-0.1,0.3-0.1,0.7-0.1,1c0,0.6,0.1,1.2,0.1,1.8c0,0.2,0.1,0.3,0.3,0.3c0.5,0,1,0.1,1.5,0.1c0.3,0,0.6,0.1,0.9,0
			c0.6,0,1.1-0.1,1.7,0C-163.1,384.8-161.9,384.6-160.8,384.7z M-159.6,386.9c-0.9,0.1-1.8,0.3-2.6,0.3c-0.1,0-0.2,0-0.4,0.1
			c-0.8,0.2-1.6,0.4-2.4,0.4c-0.9,0-1.7,0.2-2.5,0.3c-0.2,0-0.3,0.1-0.1,0.3c0.4,0.5,0.6,1.1,0.9,1.7c0.2,0.3,0.4,0.5,0.7,0.7
			c0.1,0.1,0.2,0,0.3,0c0.5-0.2,0.9-0.4,1.3-0.7c0.7-0.5,1.5-0.9,2.3-1.4c0.1-0.1,0.3-0.2,0.4-0.3
			C-161.1,387.8-160.3,387.5-159.6,386.9z M-168.9,374.8c0.1-0.1,0.1-0.2,0-0.3c-0.1-0.1-0.2-0.2-0.3-0.2c-0.1,0.1,0,0.3,0,0.4
			C-169.1,374.7-169,374.8-168.9,374.8z M-168.6,375.5c0,0,0-0.1,0-0.1c0,0-0.1,0-0.2,0c0,0,0,0.1,0,0.1
			C-168.7,375.5-168.7,375.6-168.6,375.5z M-160.1,396.2c0.3-0.9,0.5-1.7,0.7-2.7c-0.4,0.6-0.7,1.2-1.1,1.8c0,0.1-0.1,0.1-0.1,0.2
			c-0.1,0.3-0.1,0.4,0.2,0.6C-160.3,396.2-160.2,396.2-160.1,396.2z M-177.6,357.4c-0.1-0.3-0.2-0.3-0.4-0.1c-0.5,0.4-1,0.9-1.4,1.4
			c-0.1,0.2-0.3,0.3-0.5,0.5c-0.7,0.5-1.2,1-1.9,1.4c0,0-0.1,0.1-0.1,0.1c0,0.1,0.1,0.1,0.1,0.1c0.2,0,0.4-0.1,0.5-0.2
			c0.5-0.2,1-0.4,1.5-0.5c0.9-0.2,1.7-0.4,2.6-0.5c0.1,0,0.3,0,0.4-0.1C-177,358.9-177.4,358.2-177.6,357.4z M-172.8,368.3
			c-0.1-0.8-0.4-1.6-0.9-2.2c-0.5-0.6-1.1-1-1.8-1.4c-0.8-0.4-1.6-0.4-2.4-0.3c-0.3,0.1-0.4,0.1-0.3,0.4c0.1,0.3,0.2,0.6,0.5,0.8
			c0.2,0.1,0.4,0.3,0.5,0.5c0.5,0.6,1,1.1,1.3,1.7c0.2,0.3,0.2,0.3,0.6,0.2c0.3-0.2,0.5-0.1,0.7,0.2c0.1,0.2,0.1,0.4,0,0.6
			c-0.1,0.1-0.2,0.3,0,0.5c0.3,0.3,0.6,0.6,0.8,0.9c0.5,0.7,1.1,1.4,1.7,2.1c0.2,0.2,0.3,0.4,0.6,0.4c0.1,0,0.1,0.1,0.2,0.2
			c0.2,0.3,0.4,0.7,0.7,1c0-0.1-0.1-0.2-0.1-0.3c-0.7-1.1-1.2-2.3-1.6-3.6C-172.6,369.4-172.8,368.9-172.8,368.3z M-172,373.4
			c-0.2,0-0.4,0.2-0.5,0.4C-172.2,373.7-172,373.6-172,373.4z M-170,378.3c0.1-0.2,0-0.3-0.1-0.4c-0.2-0.1-0.2,0.1-0.2,0.2
			c0,0,0,0.1,0,0.1c-0.2,0.6-0.3,1.3-0.5,1.9c0,0.1-0.1,0.2-0.1,0.3c0,0.4,0,0.7-0.1,1.1c0,0.2-0.1,0.3-0.1,0.5c0,0.3,0.2,0.6,0,0.9
			c0,0.1,0,0.2,0,0.2c0.1,0.2,0.1,0.4,0.1,0.6c0,0.2,0,0.4,0.1,0.6c0.1,0.2,0.1,0.3,0,0.5c0,0.1-0.1,0.2,0,0.3
			c0.1,0.2,0.1,0.4,0.1,0.7c0.1,0.4-0.1,0.8,0.1,1.2c0.1,0.3,0.2,0.6,0.2,0.9c0,0.2,0.1,0.4,0.1,0.6c0.1,0.1,0.2,0.3,0.1,0.4
			c-0.1,0.3,0.1,0.5,0.1,0.7c0.1,0.4,0.3,0.8,0.3,1.2c0,0.3,0.1,0.5,0.2,0.7c0.2,0.5,0.5,1,0.8,1.5c0.1,0.1,0.2,0.2,0.4,0.3
			c-0.1-0.4-0.3-0.6-0.4-0.9c-0.5-1-0.9-2-1.1-3.1c-0.2-0.7-0.2-1.4-0.4-2.1c-0.1-0.3-0.1-0.6-0.2-0.9c-0.1-1.3-0.3-2.6-0.2-3.9
			c0.1-1,0.1-2,0.4-2.9C-170.3,379.1-170.2,378.7-170,378.3z M-172.7,373.2c0.3-0.2,0.3-0.2,0.1-0.5c-0.8-0.9-1.5-1.9-2.1-2.9
			c-0.1-0.1-0.2-0.3-0.3-0.4c-0.1,0.1-0.2,0.2-0.2,0.2c-0.3,0.2-0.3,0.3-0.1,0.6c0.2,0.4,0.5,0.8,0.7,1.2c0.1,0.1,0.2,0.3,0.2,0.5
			c0,0.1,0,0.2-0.1,0.2c-0.1,0-0.2,0-0.3,0.1c-0.1,0.1-0.3,0.1-0.5,0.2c-0.4,0.2-0.9,0.1-1.2,0.3c-0.2,0.1-0.4,0.2-0.6,0.3
			c-0.7,0.2-1.3,0.5-2,0.8c-0.8,0.3-1.7,0.6-2.5,1c-0.8,0.3-1.6,0.8-2.4,1c-0.1,0-0.2,0.1-0.4,0.1c-0.7,0.3-1.4,0.7-2.1,1
			c-1.2,0.5-2.2,1.2-3.3,1.7c0,0-0.1,0-0.1,0.1c-0.5,0.5-1.1,0.7-1.7,1c-0.8,0.4-1.5,0.9-2.3,1.4c-0.2,0.1-0.5,0.2-0.7,0.4
			c-0.5,0.3-0.9,0.6-1.4,0.8c-0.3,0.1-0.7,0.5-1-0.1c-0.3,0-0.4-0.4-0.7-0.4c-0.2,0-0.4,0.3-0.5,0.4c-0.2,0.1-0.2,0.3-0.1,0.4
			c0.2,0.3,0,0.5-0.1,0.7c-0.1,0.1-0.3,0.3-0.5,0.3c-0.6,0.3-1.2,0.6-1.8,0.9c-1.1,0.5-2.1,1.2-3,2.1c-0.8,0.8-1.7,1.7-2.5,2.5
			c-0.5,0.5-0.9,1.1-1.4,1.6c-0.9,0.8-1.5,1.9-2.2,2.8c-0.5,0.6-0.9,1.2-1.4,1.7c-0.6,0.6-1.3,1.1-1.8,1.8c-0.1,0.1-0.1,0.1-0.2,0.2
			c-0.8,0.6-1.6,1.1-2.3,1.7c-0.3,0.2-0.5,0.4-0.8,0.6c-0.9,0.6-1.9,1.1-2.8,1.6c-1.4,0.8-2.9,1.4-4.5,1.8c-0.5,0.1-1,0.3-1.6,0.3
			c-0.3,0-0.5-0.1-0.7,0c-0.2,0.1-0.3,0.1-0.4,0c-0.2-0.1-0.5-0.3-0.6-0.5c-0.5-0.5-1.1-1.1-1.6-1.6c-0.2-0.2-0.3-0.5-0.6-0.5
			c-0.2,0-0.3,0.4-0.5,0.5c0,0,0,0-0.1,0.1c-0.1,0.1-0.1,0.2,0,0.3c0.3,0.2,0.1,0.4,0.1,0.7c0,0.6-0.2,1.2-0.3,1.8
			c-0.1,0.9-0.4,1.7-0.5,2.6c0,0.1-0.1,0.2,0,0.3c0.1,0.1-0.1,0.3-0.2,0.5c0,0.2,0,0.4-0.1,0.6c-0.3,0.8-0.5,1.6-0.6,2.4
			c-0.3,1.5-0.5,3.1-0.7,4.6c-0.2,1.8-0.6,3.6-1,5.4c0,0.1,0,0.2-0.1,0.3c0,0.2,0.1,0.3,0.3,0.3c0.2,0.1,0.3-0.1,0.3-0.2
			c0-0.2,0.1-0.4,0.1-0.7c0.1-1,0.5-1.9,0.6-2.9c0.1-0.6,0.3-1.2,0.3-1.8c0.1-0.4,0.2-0.9,0.2-1.3c0.1-0.5,0.2-1,0.3-1.5
			c0.1-0.7,0.2-1.4,0.4-2.1c0.2-0.8,0.5-1.6,0.7-2.5c0.1-0.6,0.3-1.2,0.4-1.8c0.1-1.1,0.3-2.1,0.6-3.1c0-0.2-0.1-0.4,0.2-0.5
			c0.3,0.4,0.6,0.6,0.9,0.9c0.3,0.2,0.6,0.4,0.8,0.7c0.5,0.6,1.1,1.2,1.6,1.7c0.7,0.8,1.6,1.5,2.4,2.2c0.3,0.2,0.5,0.5,0.8,0.7
			c0.2,0.1,0.2,0.4,0.4,0.6c0.6,0.6,1.2,1.2,1.8,1.7c0.3,0.2,0.6,0.2,0.6-0.2c0-0.1,0-0.2,0.1-0.3c0.2-0.2,0.1-0.3,0-0.5
			c-0.5-0.6-1-1.1-1.6-1.7c-0.8-0.8-1.7-1.7-2.5-2.5c-0.4-0.4-0.8-0.7-1.1-1.1c-0.1-0.2-0.2-0.3-0.2-0.5c0-0.2,0.4-0.3,0.2-0.5
			c0,0,0,0,0,0c0.2,0.1,0.3-0.2,0.5,0c0.1,0.1,0.2,0.1,0.3,0.1c0.1-0.1-0.1-0.1-0.1-0.2c0,0,0-0.1,0-0.2c0.2,0.1,0.2,0.3,0.4,0.3
			c0.1,0,0.3,0,0.1-0.2c0,0-0.1-0.1,0-0.2c0.1-0.1,0.1,0,0.2,0.1c0.1,0.2,0.3,0.2,0.4,0.1c-0.1-0.2-0.3-0.2-0.3-0.4
			c0.2,0,0.2,0.1,0.3,0.2c0.1,0.1,0.2,0.2,0.3,0.1c0.1-0.1-0.2-0.2,0-0.3c0,0,0.1,0.1,0.1,0.1c0.1,0.1,0.2,0.2,0.4,0.1
			c0.1-0.1-0.1-0.2-0.1-0.3c0,0,0,0,0-0.1c0.1,0,0.1,0,0.1,0.1c0.1,0,0.2,0.3,0.4,0.2c0.2-0.1-0.1-0.3,0-0.4c0.1-0.1,0.2,0,0.2,0.1
			c0.1,0.1,0.2,0.1,0.3,0.1c0.1,0,0.2,0,0.2-0.1c-0.1-0.1-0.2-0.2-0.3-0.3c0.3-0.2,0.3,0.1,0.4,0.2c0.1,0.1,0.2,0.1,0.3,0
			c0.1-0.1,0-0.1-0.1-0.2c-0.1,0-0.2-0.1-0.1-0.2c0.3-0.1,0.6,0.4,0.9,0.1c0-0.2-0.3-0.2-0.2-0.4c0.2,0,0.3,0.2,0.5,0.3
			c-0.1-0.3,0-0.4,0.3-0.3c0.1,0,0.3,0.1,0.4,0.1c0-0.1,0-0.1,0-0.1c-0.1-0.1-0.1-0.2,0-0.3c0.1-0.1,0.2,0,0.2,0.1
			c0.1,0.2,0.3,0.2,0.5,0.1c0.1-0.1,0.3-0.1,0.4-0.2c0-0.2-0.3-0.2-0.4-0.4c0.1-0.1,0.1-0.1,0.2-0.1c0.1,0,0.2,0.1,0.3,0.2
			c0.2,0.2,0.4,0.1,0.5,0c0.2-0.1,0-0.2-0.1-0.3c0-0.1-0.1-0.2,0-0.3c0.1,0,0.2,0.2,0.3,0.2c0.1,0.1,0.2,0.1,0.3,0
			c0.1-0.1,0.2-0.1,0.1-0.3c0-0.1-0.1-0.1-0.1-0.2c0,0,0-0.1,0.1-0.1c0,0,0.1,0,0.1,0c0.1,0,0.1,0.1,0.1,0.2c0,0.1,0.1,0.2,0.2,0.1
			c0.1,0,0.1-0.1,0.1-0.2c0-0.1-0.1-0.2,0-0.3c0.1-0.1,0.2,0,0.2,0.1c0.1,0.1,0.2,0.1,0.2,0c0.1-0.1,0.1-0.1,0.1-0.2
			c-0.1-0.1-0.1-0.2,0-0.3c0.2,0.1,0.3,0.3,0.5,0.1c0.2-0.1,0.2-0.3,0.2-0.6c0.4,0.3,0.5,0,0.8-0.1c0-0.2-0.3-0.2-0.2-0.4
			c0.1-0.1,0.2,0.1,0.4,0.1c0,0,0,0,0,0c0.1,0.1,0.2,0,0.3-0.1c0.1-0.1,0-0.2,0-0.2c-0.1-0.1-0.1-0.1-0.1-0.2c0.1-0.1,0.2,0,0.2,0
			c0.1,0.2,0.3,0.1,0.4,0c0.1-0.1,0.1-0.1,0.2-0.2c-0.1-0.1-0.1-0.1-0.1-0.2c-0.1-0.1-0.2-0.1-0.1-0.2c0.1-0.1,0.2,0,0.2,0
			c0.2,0.2,0.3,0.1,0.4,0c0.6-0.4,1.2-0.9,1.7-1.5c0.9-0.9,1.6-2,2.4-3c0.4-0.6,0.8-1.2,1.2-1.7c0.8-1,1.7-1.8,2.6-2.7
			c0.3-0.3,0.6-0.7,1-1c0.4-0.3,0.7-0.6,1.1-0.9c0.5-0.5,1.1-0.9,1.6-1.4c0.6-0.5,1.3-0.8,1.9-1.3c0.3-0.2,0.5-0.5,0.9-0.3
			c0.1,0,0.1,0,0.2-0.1c0.1-0.2,0.2-0.1,0.3,0c0.3,0.3,0.5,0.5,0.8,0.8c0.5,0.4,1,0.9,1.4,1.4c0.5,0.5,0.9,1.1,1.5,1.4
			c0.2,0.1,0.3,0.4,0.5,0.6c0.1,0.1,0,0.3,0.1,0.5c0,0.1-0.2,0-0.2,0.1c-0.1,0.1-0.1,0.1-0.2,0.2c-0.1,0.1-0.3,0.3-0.4,0.4
			c-0.8,0.9-1.8,1.7-2.7,2.6c-0.7,0.6-1.3,1.3-2.1,2c-1.3,1.1-2.4,2.3-3.6,3.5c-0.9,0.9-1.8,1.8-2.8,2.7c-0.7,0.6-1.4,1.2-2.1,1.8
			c-0.7,0.7-1.4,1.3-2.1,2c-0.5,0.5-1,0.9-1.5,1.3c-0.4,0.4-0.7,0.8-1.2,1.2c-0.3,0.3-0.6,0.6-0.8,1c0,0.1,0,0.1,0,0.2
			c0.2,0,0.4-0.2,0.6-0.4c0.1-0.2,0.3-0.3,0.6-0.3c0.2,0,0.4-0.1,0.6-0.3c0.2-0.2,0.3-0.5,0.7-0.4c0.1,0,0.1,0,0.2-0.1
			c0.1-0.1,0.3-0.3,0.4-0.4c1.3-1.2,2.4-2.5,3.7-3.6c1.7-1.5,3.4-3.1,5.1-4.6c1-0.9,1.8-1.8,2.7-2.8c0.6-0.7,1.2-1.3,1.9-1.9
			c1.2-1.1,2.5-2,3.6-3.2c0.1-0.1,0.2-0.2,0.3-0.3c0.1-0.1,0.2-0.1,0.3,0c0.4,0.4,0.9,0.8,1.3,1.1c0.3,0.3,0.7,0.4,1,0.7
			c0.6,0.7,1.3,1.3,1.9,2.1c0.2,0.2,0.4,0.4,0.5,0.6c0.2,0.2,0.5,0.3,0.5,0.6c0,0,0.1,0.1,0.2,0.1c0.3,0,0.7,0.1,1-0.1
			c0.4-0.2,0.4-0.4,0.1-0.7c-0.5-0.6-1.1-1.1-1.6-1.7c-0.2-0.3-0.5-0.5-0.7-0.7c-0.5-0.4-0.9-0.8-1.3-1.3c-0.5-0.5-0.9-1-1.5-1.4
			c-0.1-0.1-0.3-0.2-0.4-0.3c-0.2,0-0.2-0.1-0.1-0.2c0.1-0.1,0.2-0.2,0.3-0.3c0.2-0.1,0.4-0.3,0.6-0.5c0.5-0.6,1.1-1,1.6-1.5
			c0.8-0.8,1.6-1.6,2.5-2.3c0.4-0.4,0.9-0.7,1.3-1.1c0.8-0.8,1.7-1.5,2.5-2.3c0.7-0.6,1.4-1.2,2.1-1.7c0.7-0.6,1.4-1.2,2.1-1.8
			c0.8-0.7,1.7-1.5,2.4-2.3c0.3-0.3,0.3-0.3,0.6-0.1c0.1,0,0.1,0.1,0.2,0.2c0,0.2-0.2,0.4-0.2,0.6c0,0.7-0.3,1.3-0.3,2
			c-0.1,0.5-0.2,1-0.4,1.5c-0.1,0.3-0.1,0.8-0.2,1.1c-0.3,0.7-0.3,1.4-0.6,2.1c-0.1,0.3,0.1,0.3,0.2,0.3c0,0.2-0.1,0.2-0.1,0.4
			c0,0.2,0,0.2-0.2,0.2c-0.1,0-0.2,0-0.2,0.2c0,0.1,0.1,0.2,0.1,0.2c0.1,0,0.1,0,0.1,0.1c0,0,0,0.1-0.1,0.1c-0.1,0-0.2-0.1-0.3,0
			c-0.1,0.3,0.1,0.4,0.2,0.6c-0.1,0.2-0.3-0.1-0.4,0.2c-0.1,0.2,0.1,0.2,0.1,0.4c-0.4,0.2-0.4,0.2-0.2,0.6c0,0.1,0,0.2,0,0.2
			c-0.2,0-0.2,0.2-0.3,0.3c-0.1,0.3,0.2,0.3,0.2,0.4c-0.1,0.2-0.4,0-0.4,0.3c0,0.2,0,0.4-0.1,0.6c0,0.1,0,0.2,0,0.2
			c0.3,0.1,0.1,0.2,0,0.3c-0.1,0.1-0.2,0.3-0.1,0.5c0.1,0.2,0.1,0.2-0.1,0.3c-0.2,0.1,0,0.3,0,0.4c0,0.2-0.4,0.1-0.2,0.4
			c0.2,0.2,0.1,0.3-0.1,0.3c0,0-0.1,0.1-0.1,0.1c0,0.1,0.1,0.1,0.1,0.1c0.1,0,0.2,0.1,0.1,0.2c-0.5,0.1-0.5,0.1-0.2,0.5
			c0,0.1-0.2,0.1-0.2,0.1c-0.1,0.1-0.2,0.2,0,0.4c0.2,0.1,0.2,0.2,0,0.3c-0.2,0-0.2,0.1-0.2,0.3c0,0.1,0.1,0.2,0.1,0.2
			c0.1,0,0.3,0.1,0.2,0.2c0,0.1-0.2,0.1-0.3,0.1c0,0,0,0,0,0c-0.1,0-0.2,0-0.2,0.2c0,0.1-0.1,0.3,0.2,0.2c0.1,0,0.1,0.1,0,0.1
			c-0.1,0.1-0.2,0.1-0.3,0.1c-0.1,0-0.1,0-0.1,0.1c0,0.3,0.4,0.7,0.6,0.6c0.3-0.1,0.6-0.2,0.7-0.6c0.1-0.6,0.3-1.1,0.4-1.7
			c0.3-1.1,0.5-2.2,0.8-3.3c0.2-0.7,0.4-1.3,0.6-2c0.2-1,0.4-2.1,0.7-3.1c0.3-0.9,0.5-1.9,0.8-2.9c0.2-0.7,0.3-1.5,0.5-2.2
			c0.2-0.7,0.2-1.5,0.4-2.2c0.1-0.2,0.1-0.4,0.1-0.6c-0.1-0.4,0-0.6,0.3-0.7C-173,373.3-172.8,373.3-172.7,373.2z M-175.2,369
			c0.1-0.1,0.2-0.2,0-0.4c-0.1-0.1-0.2-0.2-0.4-0.1c-0.4,0.4-0.9,0.7-1.4,0.8c-0.1,0-0.2,0.1-0.2,0.2c0.1,0.1,0.1,0.3,0.3,0.2
			c0.3-0.1,0.5-0.1,0.8-0.3C-175.7,369.5-175.5,369.2-175.2,369z M-178,363.2c-0.1-0.2-0.1-0.5-0.2-0.7c-0.1-0.2-0.2-0.3-0.4-0.4
			c-0.4-0.2-0.7-0.3-1.1-0.4c-0.3,0-0.6,0.1-0.9,0c-0.5,0-0.9,0.2-1.3,0.5c-0.2,0.1-0.2,0.3-0.2,0.5c0.1,0.2,0.3,0.1,0.4,0.1
			c0.4-0.1,0.8-0.2,1.2-0.2c0.5,0,0.9,0.2,1.1,0.7c0,0.1,0,0.3,0.1,0.4c0.1,0.2,0.2,0.3,0.4,0.4c0.2,0.1,0.4,0,0.5-0.2
			c0.1-0.2,0.1-0.4,0.4-0.5C-178,363.3-178,363.2-178,363.2z M-176.1,368.5c0.1-0.1,0-0.2,0-0.2c-0.7-0.9-1.5-1.7-2.2-2.6
			c0-0.1-0.1-0.1-0.2,0c-0.1,0-0.1,0.1-0.1,0.2c0,0.1,0.1,0.1,0.1,0.2c0.4,0.5,0.8,1,1.2,1.6c0.2,0.3,0.5,0.6,0.8,0.8
			C-176.3,368.5-176.2,368.5-176.1,368.5z M-177.2,368.5c0.2,0.3,0.2,0.3,0.7,0.1c-0.8-0.7-1.3-1.6-2-2.4c-0.1-0.1-0.1-0.2-0.2-0.3
			c0,0-0.1,0-0.2,0c-0.1,0-0.1,0.1,0,0.2c0,0.1,0.1,0.1,0.1,0.2C-178.2,367.1-177.7,367.8-177.2,368.5z M-178.8,365
			c-0.1-0.3-0.3-0.4-0.6-0.4c-0.3,0.1-0.6,0.2-0.9,0.3c-0.2,0.1-0.3,0.3-0.2,0.6c0.1,0.2,0.3,0.2,0.4,0.1
			C-179.5,365.6-179.2,365.3-178.8,365z M-180,363.4c0,0,0.1-0.1,0-0.1c0-0.1-0.1-0.1-0.2-0.1c-0.1,0-0.1,0.1,0,0.1
			C-180.1,363.4-180,363.4-180,363.4z M-179.9,363.9c0-0.2-0.2-0.2-0.3-0.3c-0.3-0.2-0.7-0.2-1.1-0.3c-0.2,0-0.4-0.1-0.7,0
			c-0.1,0.1-0.3,0.2-0.2,0.3c0.2,0.4,0.2,0.7,0,1.2c0.7,0,1.3-0.4,1.9-0.4C-180.1,364.4-180,364.1-179.9,363.9z M-181.9,361.2
			c0-0.2-0.2-0.3-0.4-0.2c-0.1,0-0.1,0-0.2-0.1c-0.1-0.2-0.2-0.1-0.3,0c-0.4,0.2-0.4,0.5-0.1,0.8c0.1,0.1,0.2,0.2,0.3,0.2
			c0.2,0.1,0.3,0,0.4-0.1C-181.9,361.7-181.8,361.5-181.9,361.2z M-175.6,374.9c-0.3,0.3-0.5,0.5-0.8,0.8c-0.5,0.4-0.9,0.9-1.4,1.3
			c-0.8,0.6-1.4,1.3-2.2,1.9c-0.3,0.2-0.6,0.4-0.9,0.7c-0.5,0.5-1.1,1-1.7,1.5c-0.3,0.3-0.7,0.5-1,0.8c-0.6,0.6-1.2,1.2-1.8,1.7
			c-0.7,0.6-1.4,1.2-2.1,1.9c-0.9,0.9-1.8,1.7-2.7,2.7c0.3,0.3,0.8,0.5,1.1,0.8c0.4,0.3,0.7,0.7,1.1,1c0.1,0,0.1,0.1,0.2,0.2
			c0.2,0.3,0.4,0.6,0.6,0.9c0.7,1,1.5,1.8,2.4,2.6c0.2,0.2,0.6,0.3,0.9,0.3c0.2,0,0.5-0.2,0.6-0.4c0.1-0.2,0.3-0.4,0.6-0.3
			c0.1,0,0.1,0,0.1-0.1c0-0.1,0.1-0.1,0.1-0.1c0.3,0.3,0.5,0,0.7,0c0.5,0,0.7-0.3,0.8-0.7c0,0,0.1,0,0.1,0c0.1,0.1,0.3,0.3,0.4,0.4
			c0.2,0.2,0.6,0.2,0.7-0.1c0.2-0.8,0.6-1.5,0.7-2.3c0.1-0.3,0-0.6,0.1-1c0.1-0.4,0.3-0.9,0.3-1.3c0.1-1.1,0.4-2.1,0.6-3.2
			c0.1-0.3,0.1-0.6,0.2-0.9c0.3-1,0.6-2,0.8-3.1c0.2-1.1,0.5-2.1,0.7-3.2C-175.9,376.7-175.7,375.8-175.6,374.9z M-168.5,391.8
			c0-0.1-0.1-0.2-0.1-0.2c-0.3-0.5-0.6-1-0.8-1.6c0-0.1-0.1-0.2-0.2-0.3c-0.1,0.1-0.1,0.2,0,0.3c0.2,0.6,0.4,1.2,0.7,1.8
			c0,0.1,0.1,0.2,0.2,0.3c0.1,0,0.1,0,0.2,0C-168.5,391.9-168.5,391.9-168.5,391.8z M-183.6,363.2c0.2-0.1,0.5-0.7,0.4-0.9
			c0-0.1-0.1-0.1-0.2-0.1c-0.6,0.1-1.2,0.3-1.7,0.7c-0.2,0.2-0.2,0.3-0.1,0.5c0.1,0.2,0.2,0.2,0.4,0.1
			C-184.3,363.5-183.9,363.4-183.6,363.2z M-171.7,398.7c0.3-0.3,0.2-0.8,0.7-1c-0.4-0.3-0.8-0.3-1.1-0.5c-0.1,0-0.1,0-0.2,0
			c-0.3,0.4-0.4,0.9-0.9,1.1c-0.1,0,0,0.1,0,0.2c0,0.2,0,0.5-0.2,0.7c-0.2,0.2-0.1,0.4,0.2,0.4c0.4,0.1,0.7,0,0.8-0.4
			c-0.4-0.2-0.6-0.5-0.5-0.8c0.1-0.2,0.2-0.3,0.4-0.3C-172,398.2-171.9,398.2-171.7,398.7z M-172,398.6c-0.1-0.2-0.3-0.2-0.4-0.1
			c-0.1,0.1-0.2,0.2-0.1,0.4c0.1,0.1,0.1,0.2,0.3,0.2C-172.1,398.9-171.9,398.7-172,398.6z M-173.8,398.3c0.3,0.1,0.3,0.1,0.4-0.3
			c-0.7-0.1-1.4-0.5-2.2-0.5C-175,397.9-174.4,398.2-173.8,398.3z M-176.2,395.7c0-0.1-0.1-0.3-0.1-0.3c-0.1-0.3-0.3-0.5-0.4-0.7
			c-0.4-0.6-1-0.7-1.6-0.4c-0.2,0.1-0.3,0.2-0.3,0.4c0,0.3,0,0.7,0,1c0,0.3,0.2,0.5,0.4,0.4c0.6-0.1,1.1-0.2,1.7-0.1
			C-176.2,396.1-176.1,395.9-176.2,395.7z M-175.9,397c0-0.3-0.1-0.4-0.3-0.5c-0.2,0-0.3,0.1-0.3,0.3
			C-176.4,396.9-176.2,397-175.9,397z M-176.8,397.4c0.4,0,0.7,0.2,1,0.1c-1.1-0.3-2.1-0.7-3.2-1.1c0.3,0.3,0.1,0.7,0,1
			c0.4,0.1,0.7,0.1,1.1,0C-177.5,397.3-177.1,397.4-176.8,397.4z M-178.1,393.7c0,0,0.1,0,0.1-0.1c-0.7-0.5-1.4-0.6-2.2-0.3
			c0.4,0.2,0.8,0.5,1.2,0.6C-178.6,394-178.4,393.7-178.1,393.7z M-177.5,396.3c0.3,0.3,0.5,0.2,0.8,0
			C-177,396.2-177.3,396.2-177.5,396.3z M-176.3,398.5c0.1-0.3,0-0.6-0.3-0.6c-0.5-0.1-1-0.1-1.6-0.1c0.2,0.3,0.3,0.7,0.2,1
			c0,0.1,0,0.2,0,0.3c0,0.1,0.1,0.2,0.2,0.2C-177.2,399.5-176.5,399.1-176.3,398.5z M-178.9,395c0-0.1,0-0.1-0.1-0.2
			c-0.1,0-0.1,0-0.2,0.1c-0.2,0.3-0.1,0.6,0.2,0.9C-178.7,395.6-178.8,395.3-178.9,395z M-179.3,394.5c0.1-0.2,0-0.3-0.1-0.4
			c-0.4-0.2-0.9-0.3-1.4-0.3c-0.4,0-0.7,0.2-1,0.4c-0.2,0.1-0.1,0.3-0.1,0.5c0,0.2,0.2,0.1,0.3,0.1c0.1,0,0.2,0,0.3,0
			c0.4,0.1,0.7,0.3,0.9,0.6c0,0.3,0.1,0.3,0.3,0.2c0.1,0,0.1,0,0.2,0c0.2,0,0.3-0.1,0.3-0.4C-179.5,395-179.5,394.7-179.3,394.5z
			 M-178.5,397.9c0-0.1-0.1-0.1-0.2-0.1c-0.1,0-0.1,0.1-0.1,0.2c0,0.2,0.1,0.4,0.1,0.6c0,0.1,0.1,0.1,0.1,0.1c0,0.1,0.1,0.2,0.2,0.1
			c0.1,0,0.1-0.1,0.1-0.2C-178.3,398.4-178.4,398.1-178.5,397.9z M-179.3,397c0.2-0.1,0.3-0.2,0.2-0.5c-0.1-0.2-0.4-0.3-0.6-0.2
			c-0.1,0.1-0.3,0.5-0.2,0.6C-179.8,397.1-179.5,397.1-179.3,397z M-179.7,396.1c0,0-0.1,0-0.1,0c-0.2,0-0.3,0-0.5,0.1
			c-0.3,0.1-0.4,0.3-0.2,0.6c0.1,0.2,0.2,0.2,0.3,0C-180,396.5-180,396.2-179.7,396.1z M-180.5,395.9c0.1-0.1-0.1-0.2-0.2-0.3
			c-0.1-0.1-0.2-0.1-0.3-0.2c-0.1-0.1-0.1-0.1-0.2,0c-0.2,0.1-0.3,0.4-0.4,0.6c0,0.1,0,0.2,0.1,0.2c0.2,0.2,0.5,0.1,0.8,0.2
			C-180.8,396.2-180.6,396.1-180.5,395.9z M-179.5,398.2c0-0.2-0.1-0.3-0.4-0.2c-0.1,0-0.1,0.1-0.2,0.1c-0.3,0.4-0.8,0.7-1.3,1
			c-0.2,0.1-0.3,0.3-0.1,0.4c0.1,0.1,0.2,0.1,0.2,0.2c0.6,0.2,1.3,0.2,1.9,0c0.1-0.1,0.2-0.1,0.1-0.3
			C-179.4,399-179.5,398.6-179.5,398.2z M-179.4,400.3c0.5,0,0.9-0.1,1.3-0.3C-178.6,399.7-179,400-179.4,400.3z M-180,397.5
			c0,0,0,0,0.1,0c-0.1-0.2-0.2-0.3-0.4-0.2c0,0-0.1,0.1-0.1,0.1C-180.3,397.5-180.2,397.5-180,397.5z M-180.2,397.9
			c-0.2-0.1-0.3-0.2-0.4-0.4c-0.1-0.2-0.3-0.2-0.4,0c-0.2,0.2-0.4,0.4-0.6,0.6c-0.1,0.1-0.1,0.2-0.2,0.3c0,0.2,0.1,0.3,0.3,0.3
			C-181.1,398.5-180.6,398.4-180.2,397.9z M-181,397c0.2-0.1,0.1-0.2-0.1-0.3c-0.1,0-0.1-0.1-0.2-0.1c-0.5-0.1-0.7-0.5-0.9-1
			c-0.1-0.3-0.2-0.4-0.5-0.2c-0.2,0.1-0.5,0.2-0.6,0.5c-0.2,0.5-0.3,1.1-0.1,1.6c0.1,0.2,0.3,0.4,0.2,0.7c0,0.1,0.1,0.2,0.2,0.2
			c0.2,0.1,0.3,0.1,0.5,0.1c0.2,0.1,0.4,0,0.4-0.2C-181.8,397.9-181.5,397.4-181,397z M-182.7,393.8c-0.1,0.1-0.4,0.1-0.4,0.3
			C-182.8,394.1-182.7,394-182.7,393.8z M-182.7,395.1c0.4-0.1,0.5-0.4,0.4-0.8c-0.6,0.3-1,0.7-0.9,1.1
			C-183,395.3-182.9,395.2-182.7,395.1z M-179.9,401.2c0,0,0,0,0.1-0.1c-0.3-0.2-0.5,0-0.7,0.1c0,0,0,0.1,0,0.1
			C-180.2,401.4-180.1,401.3-179.9,401.2z M-181.1,400.1c-0.2-0.2-0.3-0.3-0.5-0.4c-0.1-0.1-0.1,0-0.2,0.1c-0.2-0.1-0.2-0.2-0.2-0.3
			c0-0.1,0-0.3-0.1-0.3c-0.4,0-0.8-0.3-1.2-0.5c0.2,0.3,0.5,0.6,0.8,0.8c0.2,0.2,0.5,0.4,0.8,0.4
			C-181.6,400.1-181.4,400.1-181.1,400.1z M-183.7,395c-0.2-0.1-0.3-0.2-0.4-0.4c-0.2-0.2-0.3-0.2-0.5,0c-0.2,0.2-0.4,0.4-0.8,0.2
			c-0.1-0.1-0.3,0-0.3,0.1c-0.1,0.1,0,0.2,0.1,0.3c0.4,0.4,0.8,0.9,1.3,1.3c0.1-0.4-0.1-0.6-0.1-0.9c-0.1-0.4-0.1-0.5,0.3-0.4
			C-183.9,395.2-183.8,395.2-183.7,395z M-183.5,395.9c0-0.1-0.1-0.1-0.1,0c-0.1,0-0.1,0.1-0.1,0.2c0,0.1,0.1,0.1,0.1,0
			C-183.6,396.1-183.5,396-183.5,395.9z M-181.1,401.4c-0.1-0.2-0.2-0.4-0.4-0.6c-0.3-0.3-0.5-0.3-0.9-0.2c-0.2,0.1-0.4,0.2-0.7,0.3
			c0.1-0.4,0-0.8-0.1-1.2c-0.1-0.2-0.2-0.4-0.4-0.4c-0.5-0.1-1-0.2-1.6,0.1c-1,0.5-2,1-3,1.4c-0.4,0.2-0.7,0.4-1.1,0.6
			c-1,0.4-1.9,0.8-2.8,1.4c-1.1,0.7-2.2,1.2-3.3,1.8c-1,0.6-2.1,1-3.1,1.4c-1,0.4-1.9,0.9-2.8,1.4c-0.7,0.4-1.4,0.8-2.2,1.1
			c-0.2,0.1-0.4,0.2-0.6,0.3c-0.6,0.4-1.2,0.8-1.8,1.1c-0.7,0.3-1.4,0.6-2.1,0.9c-0.9,0.5-1.9,0.9-2.9,1.4c-0.1,0-0.3,0-0.3,0.2
			c0,0.2,0.2,0.1,0.3,0.1c0.1,0,0.2,0,0.2,0.1c0,0.1,0,0.2-0.1,0.2c-0.1,0-0.1,0-0.2,0.1c-0.3,0.2-0.4,0.3-0.3,0.6
			c0.1,0.3,0.3,0.4,0.6,0.5c0.1,0,0.2-0.1,0.3,0.1c0,0.2,0,0.3-0.2,0.3c-0.1,0.1-0.2,0.1-0.4,0.1c-0.2,0.1-0.3,0.2-0.2,0.6
			c0,0.2,0.2,0.2,0.3,0.2c0.1,0,0.2,0,0.3,0.1c0.2,0.2,0.3,0.1,0.4-0.1c0.2-0.4,0.5-0.4,0.8-0.3c0.4,0.1,0.6,0,0.8-0.3
			c0.2-0.4,0.4-0.5,0.9-0.4c0.2,0.1,0.4,0,0.5-0.2c0.1-0.4,0.4-0.4,0.7-0.3c0.2,0.1,0.4,0,0.5-0.1c0.3-0.3,0.6-0.5,1-0.5
			c0.3,0,0.5-0.1,0.7-0.4c0.4-0.6,0.6-0.6,1.2-0.4c0.3,0.1,0.3,0,0.4-0.2c0.1-0.2,0.2-0.4,0.4-0.5c0.2-0.2,0.4-0.1,0.6,0
			c0.2,0.1,0.3,0,0.4-0.2c0.1-0.3,0.4-0.5,0.7-0.4c0.2,0,0.3,0,0.3-0.1c0.1-0.2,0.3-0.3,0.5-0.3c0.4,0.1,0.6-0.1,0.8-0.4
			c0.3-0.3,0.6-0.6,1-0.2c0.1,0.1,0.2,0,0.2-0.1c0.2-0.4,0.6-0.4,0.9-0.4c0.2,0,0.3,0,0.4-0.2c0.2-0.2,0.4-0.4,0.7-0.3
			c0.4,0.1,0.6-0.1,0.8-0.4c0.1-0.2,0.3-0.4,0.6-0.3c0.3,0.1,0.5,0,0.7-0.2c0.2-0.2,0.4-0.4,0.8-0.3c0.1,0,0.2,0,0.3-0.2
			c0-0.5,0.4-0.6,0.7-0.5c0.4,0.1,0.5-0.1,0.6-0.3c0.1-0.3,0.4-0.4,0.6-0.3c0.3,0.1,0.4,0,0.6-0.2c0.2-0.3,0.4-0.4,0.7-0.4
			c0.3,0.1,0.5-0.1,0.6-0.3c0.1-0.2,0.3-0.3,0.4-0.2c0.5,0.1,0.7-0.1,1-0.4c0.1-0.2,0.3-0.3,0.5-0.2c0.2,0.1,0.4-0.1,0.5-0.2
			c0.2-0.3,0.5-0.4,0.8-0.5c0.2,0,0.4-0.1,0.5-0.3c0.2-0.4,0.5-0.5,0.9-0.5c0.3,0,0.5-0.1,0.6-0.3c0.1-0.2,0.3-0.3,0.5-0.3
			c0.3-0.1,0.7-0.2,0.9-0.4c0.2-0.2,0.4-0.5,0.8-0.4C-181.1,401.8-181.1,401.6-181.1,401.4z M-183.5,398.5c0-0.1,0-0.2-0.1-0.1
			C-183.6,398.4-183.5,398.5-183.5,398.5C-183.5,398.5-183.4,398.5-183.5,398.5z M-184.1,398.2c0.1-0.2,0-0.4-0.1-0.5
			c-0.1-0.2-0.3-0.1-0.4-0.1c-1.3,0.4-2.5,1-3.7,1.7c-0.5,0.3-1.1,0.6-1.7,0.9c-0.5,0.3-1.1,0.5-1.6,0.8c-0.5,0.3-1.2,0.5-1.7,0.8
			c-0.8,0.5-1.6,1-2.5,1.3c-0.3,0.1-0.5,0.2-0.7,0.3c-0.9,0.4-1.7,0.9-2.6,1.3c-0.3,0.2-0.8,0.3-0.9,0.8c0,0.1-0.1,0-0.1,0
			c-0.3-0.1-0.3,0-0.4,0.2c0,0.1,0,0.2-0.1,0.3c-0.1,0-0.1-0.2-0.3-0.2c-0.3,0.1-0.4,0.4-0.4,0.8c-0.3-0.4-0.5-0.4-0.7,0
			c0,0,0,0,0,0c0,0.1-0.1,0.1-0.1,0.1c-0.2,0-0.3,0.1-0.5,0.2c-0.3,0.2-0.5,0.4-0.9,0.4c-0.1,0-0.3,0.1-0.2,0.3
			c0,0.1-0.1,0.3-0.2,0.2c-0.2-0.2-0.3-0.1-0.4,0.1c-0.1,0.1-0.1,0.2-0.3,0.2c-0.3,0-0.4,0.1-0.5,0.4c0,0.1-0.1,0.2-0.2,0.1
			c-0.2-0.2-0.4,0-0.5,0.2c-0.1,0.1-0.2,0.1-0.3,0.2c-0.3,0.1-0.7,0.1-0.7,0.5c0,0.1-0.1,0.1-0.1,0.1c-0.1-0.2-0.2,0-0.3,0
			c-0.2,0.1-0.4,0.3-0.6,0.4c-0.1,0-0.3,0-0.4,0.1c-0.1,0.1,0,0.3-0.2,0.4c-0.3-0.2-0.3-0.2-0.5,0c-0.1,0.1-0.1,0.1-0.1,0.2
			c0,0.1-0.1,0.2-0.2,0.1c-0.3-0.2-0.4,0-0.5,0.2c-0.1,0.1-0.1,0.2-0.2,0.1c-0.2-0.1-0.3,0-0.3,0.2c0,0.1,0,0.2-0.2,0.1
			c-0.2-0.1-0.4,0-0.6,0.2c0.2,0.3-0.1,0.3-0.2,0.5c0.5-0.3,1.1-0.4,1.7-0.7c1.2-0.6,2.4-1.3,3.7-1.7c0.1,0,0.2-0.1,0.3-0.2
			c0.5-0.3,1-0.6,1.6-0.9c0.5-0.2,0.9-0.4,1.4-0.7c1.2-0.7,2.4-1.3,3.7-1.9c0.7-0.3,1.4-0.6,2.1-0.9c0.6-0.3,1.2-0.6,1.9-0.9
			c1.1-0.6,2.1-1.2,3.1-1.7c1.1-0.6,2.3-1.2,3.4-1.7c0.8-0.4,1.6-0.7,2.5-1.1c0.5-0.2,0.9-0.5,1.4-0.7
			C-184.3,398.6-184.3,398.5-184.1,398.2z M-184.8,396.5c0-0.1,0-0.1-0.1-0.2c-0.1-0.1-0.2-0.2-0.3-0.3c-0.3-0.2-0.4-0.2-0.4,0.1
			c0,0.4-0.3,0.5-0.6,0.7c-0.1,0-0.2,0.1-0.2,0c-0.2-0.3-0.4-0.2-0.6-0.1c-0.2,0.1-0.3,0-0.3-0.2c0.1-0.4-0.1-0.7-0.1-1
			c-0.1,0-0.3,0-0.4,0.1c-0.2,0.3-0.5,0.3-0.8,0.3c-0.4,0-0.8,0.2-1.1,0.4c-0.2,0.1-0.3,0.2-0.5,0.2c-0.5,0-0.8,0.2-1.2,0.5
			c-0.2,0.1-0.4,0.3-0.6,0.3c-0.3,0-0.5,0.1-0.7,0.3c-0.3,0.2-0.5,0.5-1,0.4c-0.2,0-0.4,0.1-0.5,0.2c-0.1,0.1-0.3,0.2-0.4,0.3
			c-0.4,0-0.7,0.2-1,0.4c-0.1,0.1-0.2,0.2-0.4,0.2c-0.5,0.1-0.8,0.3-1.2,0.7c-0.1,0.1-0.3,0.2-0.5,0.1c-0.2-0.1-0.3,0-0.4,0.2
			c-0.1,0.3-0.3,0.5-0.7,0.5c-0.3,0-0.6,0.2-0.9,0.4c-0.1,0.1-0.3,0.2-0.5,0.2c-0.4,0-0.7,0.2-1,0.4c-0.2,0.1-0.3,0.2-0.5,0.3
			c-0.3,0-0.5,0.1-0.7,0.4c-0.1,0.2-0.3,0.3-0.6,0.2c-0.2-0.1-0.4,0-0.5,0.2c-0.2,0.3-0.4,0.4-0.7,0.5c-0.3,0.1-0.5,0.2-0.7,0.4
			c-0.2,0.2-0.4,0.3-0.6,0.3c-0.3,0-0.4,0.1-0.6,0.3c-0.2,0.2-0.4,0.4-0.7,0.4c-0.3,0-0.4,0.1-0.6,0.3c-0.1,0.2-0.3,0.3-0.5,0.3
			c-0.3-0.1-0.5,0-0.7,0.3c-0.1,0.1-0.2,0.3-0.3,0.4c-0.2,0.2-0.4,0.4-0.7,0.3c-0.2,0-0.3,0-0.4,0.1c-0.2,0.4-0.6,0.6-0.8,0.9
			c-0.9,0.9-2,1.8-2.9,2.7c0.3,0.3,0.3,0.3,1,0c0.2,0.2,0.1,0.4,0.1,0.5c0,0.3,0.1,0.3,0.4,0.3c0.2-0.1,0.4-0.1,0.5-0.2
			c0.9-0.6,1.9-1,2.8-1.5c0.6-0.3,1.2-0.7,1.8-1c1.3-0.6,2.5-1.2,3.8-1.8c1.7-0.9,3.4-1.9,5.2-2.8c0.4-0.2,0.9-0.4,1.4-0.7
			c0.7-0.4,1.6-0.6,2.3-1.1c0.8-0.6,1.8-0.9,2.7-1.4c0.3-0.2,0.7-0.4,1.1-0.5c0.8-0.3,1.5-0.8,2.2-1.1c0.9-0.5,1.8-1,2.8-1.3
			c0.3-0.1,0.5-0.2,0.8-0.3c0-0.1,0-0.1,0-0.1C-184.7,396.9-185,396.8-184.8,396.5z M-185.8,396.1c0-0.1-0.1-0.3-0.3-0.2
			c-0.1,0.1-0.2,0.2-0.3,0.1c-0.1-0.1-0.2-0.2-0.2-0.4c0-0.1-0.1-0.1-0.1-0.2c-0.3,0.2-0.1,0.5-0.1,0.7c0,0.2,0.1,0.3,0.3,0.2
			c0.1,0,0.2-0.1,0.3,0c0.1,0.2,0.2,0.2,0.3,0.1C-185.8,396.5-185.8,396.3-185.8,396.1z M-186.2,395.8c0.1,0,0.1-0.1,0.1-0.2
			c-0.1-0.1-0.2-0.1-0.3-0.1c-0.1,0-0.1,0.1,0,0.2C-186.3,395.8-186.3,395.8-186.2,395.8z M-197,372.7c0.1-0.3,0-0.3-0.2-0.4
			c-0.3-0.1-0.6,0.1-0.8,0.2c-0.5,0.4-1.1,0.7-1.7,1c-0.3,0.1-0.6,0.3-1,0.4c-0.6,0.2-1.1,0.4-1.6,0.6c-1.3,0.6-2.7,1.1-4.2,1.3
			c-0.1,0-0.3,0-0.4,0.1c-0.2,0.1-0.2,0.5-0.1,0.6c0.6,0.3,1,1,1.6,1.2c0.1,0,0.2,0.1,0.2,0.2c0.1,0.3,0.3,0.2,0.5,0.1
			c0.8-0.5,1.7-0.8,2.5-1.3c0.5-0.2,1-0.5,1.4-0.7c0.3-0.2,0.3-0.3,0-0.5c-0.3-0.2-0.3-0.5-0.3-0.7c0-0.2,0.3-0.3,0.5-0.3
			c0,0,0.1,0,0.1,0c0.5-0.1,0.8,0.2,0.6,0.8c0.2,0,0.4-0.1,0.6-0.2c0.5-0.3,0.9-0.7,1.3-1.1C-197.5,373.5-197.2,373.2-197,372.7z
			 M-187.6,394.9c0.4,0,0.5-0.5,0.3-0.8c-0.3-0.4-0.7-0.7-1-1c-0.5-0.6-1.2-1-1.8-1.6c-0.6-0.6-1.2-1.1-1.8-1.7
			c-0.3-0.3-0.3-0.3-0.5,0c-0.4,0.6-1,1.1-1.6,1.6c-0.8,0.6-1.5,1.3-2.2,2c-0.2,0.2-0.4,0.3-0.6,0.5c-0.9,1-1.7,1.9-2.7,2.8
			c-0.5,0.5-1,1.1-1.6,1.6c-0.5,0.5-1.1,0.9-1.6,1.4c-0.7,0.6-1.3,1.3-2,1.9c-1.2,1-2.3,2-3.3,3.1c-0.1,0.1-0.2,0.1-0.2,0.4
			c0.3,0,0.4-0.3,0.5-0.4c0.2-0.2,0.4-0.3,0.6-0.3c0.3,0.1,0.5,0,0.7-0.3c0.2-0.2,0.4-0.5,0.7-0.4c0.1,0,0.3-0.1,0.4-0.2
			c0.1-0.3,0.4-0.4,0.6-0.4c0.2,0,0.3-0.1,0.4-0.2c0.6-0.5,1.3-0.6,1.9-1.1c0,0,0.1,0,0.1,0c0.5,0.1,0.8-0.2,1.1-0.5
			c0.2-0.1,0.3-0.3,0.5-0.3c0.4,0,0.6-0.1,0.8-0.4c0-0.1,0.1-0.1,0.2-0.1c0.3-0.1,0.6-0.3,0.9-0.4c0.2-0.1,0.4-0.2,0.6-0.2
			c0.3,0.1,0.5-0.1,0.6-0.3c0.1-0.1,0.2-0.3,0.3-0.4c0.1-0.1,0.3-0.2,0.4-0.1c0.4,0.1,0.6,0,0.8-0.3c0.2-0.3,0.5-0.5,0.8-0.4
			c0.4,0.1,0.5-0.1,0.7-0.3c0.1-0.2,0.3-0.4,0.6-0.4c0.4,0,0.7-0.1,1-0.4c0.2-0.2,0.3-0.3,0.6-0.2c0.2,0.1,0.3,0,0.5-0.1
			c0.1-0.1,0.2-0.2,0.3-0.3c0.1-0.1,0.3-0.2,0.5-0.1c0.2,0.1,0.3,0,0.5-0.1c0.3-0.2,0.7-0.3,0.9-0.7c0.2-0.3,0.4-0.3,0.7-0.1
			c0.1,0.1,0.2,0.1,0.3,0c0.2,0,0.4-0.2,0.5-0.3C-188.1,395.1-187.9,394.9-187.6,394.9z M-200,374.8c0-0.1-0.1-0.1-0.2-0.1
			c0,0-0.1,0-0.1,0.1C-200.3,374.9-200.2,374.9-200,374.8C-200.1,374.9-200,374.9-200,374.8z M-193.5,387.9
			c-0.4-0.4-0.7-0.8-1.1-1.1c-0.8-0.8-1.5-1.6-2.3-2.4c-0.2-0.2-0.4-0.3-0.6-0.2c-0.4,0.1-0.7,0.3-1.1,0.6c-0.2,0.2-0.4,0.4-0.6,0.5
			c-0.6,0.4-1.3,0.7-1.7,1.4c-0.1,0.2-0.4,0.2-0.5,0.4c-0.3,0.4-0.7,0.7-1.1,1c-0.1,0.1-0.3,0.2-0.4,0.3c-0.5,0.6-1.1,1.1-1.6,1.6
			c-0.5,0.4-1.7,1.9-1.9,2c-0.3,0.2-0.4,0.6-0.6,0.9c-0.3,0.5-0.6,0.8-1,1.2c-0.4,0.5-0.7,1-1.1,1.5c-0.1,0.2-3.7,3.5-4.2,3.8
			c-0.7,0.5-1.3,0.9-2.1,1.3c-0.8,0.4-1.5,0.9-2.3,1.2c-0.6,0.3-1.3,0.5-2,0.8c-1.3,0.6-2.6,1.1-4.1,1.3c-0.3,0-0.5,0.1-0.8,0.2
			c0.3,0.4,0.7,0.5,1,0.8c0.5,0.6,1.2,1.1,1.6,1.7c0.6,0.8,1.3,1.4,2,2.2c0.1,0.1,0.2,0.1,0.4,0.1c0.2-0.1,0.1-0.2,0.1-0.3
			c-0.1-0.3,0-0.4,0.3-0.3c0.3,0,0.3,0,0.3-0.3c0-0.1,0-0.2-0.1-0.3c0-0.1,0-0.2,0.1-0.2c0.1,0,0.1,0,0.2,0c0.1,0.1,0.2,0.3,0.3,0.3
			c0.1-0.2,0-0.3,0-0.5c0-0.1,0-0.2,0.1-0.2c0.1,0,0.2,0,0.2,0.1c0.2,0.5,0.6,0.9,0.8,1.4c0.3,0.6,0.3,0.6-0.2,0.9c0,0,0,0,0.1,0.1
			c0.2-0.2,0.6-0.2,0.7-0.5c0.1-0.2,0.2-0.1,0.3-0.1c0.5-0.1,1-0.2,1.3-0.6c0.2-0.2,0.4-0.4,0.6-0.4c0.5,0,0.7-0.3,1-0.6
			c0.1-0.1,0.2-0.2,0.3-0.3c1.7-2,3.6-3.7,5.5-5.5c0.9-0.9,1.9-1.7,2.9-2.6c0.9-0.8,1.7-1.6,2.4-2.5c0.2-0.3,0.4-0.6,0.6-0.8
			c0.6-0.5,1.1-1,1.6-1.6c0.8-0.9,1.8-1.6,2.6-2.5c0.1-0.2,0.3-0.3,0.4-0.4c0.5-0.4,1-0.9,1.4-1.5c0.2-0.3,0.5-0.5,0.7-0.8
			C-194.4,388.8-194,388.3-193.5,387.9z M-197.9,381.4c0.1-0.1,0-0.2-0.1-0.3c-0.1-0.1-0.2-0.1-0.3,0c-0.2,0.2-0.4,0.4-0.6,0.6
			c0.2,0.1,0.3,0.1,0.5,0.1C-198.2,381.6-198,381.6-197.9,381.4z M-198.5,380.5c-0.3-0.3-0.5-0.5-0.7-0.8c-0.4-0.5-0.4-0.5-0.9-0.2
			c0,0-0.1,0-0.1,0.1c-0.2,0.1-0.3,0.1-0.5,0c-0.4-0.1-0.7-0.2-1.1-0.3c-0.7-0.1-1.4-0.2-2.2-0.2c-0.8,0-1.6,0.2-2.4,0.4
			c-0.9,0.2-1.7,0.7-2.7,1c0,0-0.1,0-0.1,0.1c-0.1,0-0.1,0.1-0.1,0.2c0,0.1,0.1,0.2,0.2,0.2c0.1,0,0.2-0.1,0.3-0.1
			c0.9-0.6,2-0.7,3.1-1.1c0.3-0.1,0.6,0,0.8-0.1c0.5-0.1,1-0.1,1.5,0c0.5,0.1,1,0.3,1.5,0.4c0.5,0.1,1,0.3,1.5,0.7
			c0.2,0.2,0.6,0.2,0.8,0.5c0.1,0.1,0.1,0,0.2,0C-199.1,381-198.7,380.8-198.5,380.5z M-200.3,379c0.1-0.2-0.1-0.3-0.2-0.4
			c-0.3-0.3-0.6-0.6-0.9-1c-0.3-0.4-0.3-0.4-0.7-0.2c-0.3,0.2-0.4,0.2-0.1,0.5c0.3,0.3,0.5,0.5,0.8,0.8c0.1,0.1,0.3,0.3,0.4,0.4
			C-200.8,379.1-200.4,379.1-200.3,379z M-201.8,378.9c-0.3-0.3-0.7-0.7-1-1.1c-0.1,0.4,0.1,0.7-0.1,0.9
			C-202.6,378.8-202.2,378.9-201.8,378.9z M-203.6,378.7c0.1,0,0.1-0.1,0.2-0.2c-0.2,0-0.2,0-0.3,0.1c-0.1,0-0.2,0.1-0.1,0.2
			C-203.7,378.7-203.6,378.7-203.6,378.7z M-210.8,407c-0.4,0-0.5,0.3-0.7,0.4c-0.1,0.1-0.3,0.3-0.4,0.2c-0.3-0.1-0.4,0-0.6,0.2
			c-0.1,0.1-0.2,0.3-0.3,0.4c-0.1,0.1-0.2,0.2-0.4,0.1c-0.3-0.1-0.4,0-0.5,0.2c-0.2,0.3-0.5,0.6-0.9,0.8c0,0,0,0.1,0,0.1
			c0.1,0,0.3-0.1,0.4-0.1c0.3-0.2,0.3-0.2,0.5,0.1c0,0,0,0.1,0.1,0.2C-212.7,408.7-211.7,408-210.8,407z M-211.9,412.8
			c-0.1-0.2-0.2-0.5-0.4-0.7C-212.4,412.5-212.1,412.7-211.9,412.8z M-209.7,418.9c0.5-0.3,0.5-0.3,0.2-0.8c-0.4-0.6-0.7-0.7-1,0
			C-210.1,418.3-209.7,418.5-209.7,418.9z M-212.8,411.2c0,0-0.1-0.1-0.1-0.1c-0.5-0.5-1.1-0.7-1.8-0.4c-0.2,0.1-0.2,0.2-0.2,0.4
			c0.1,0.4,0.3,0.8,0.1,1.3c-0.1,0.2,0,0.4,0.2,0.5c0.2,0.1,0.3,0,0.4-0.2c0.3-0.4,0.8-0.6,1.3-0.4c0.1,0,0.2,0.1,0.3,0
			c0.1-0.1,0.1-0.2,0-0.3C-212.7,411.7-212.8,411.5-212.8,411.2z M-211.7,414.1c0.1-0.4-0.2-0.9-0.5-1.1c-0.1,0-0.2-0.1-0.3,0
			c-0.5,0.3-1,0.6-1.5,0.6c-0.2,0-0.2,0.1-0.2,0.3c0,0.1,0.1,0.2,0.1,0.3c0.2,0.4,0.6,0.8,0.9,1.1c0.1,0.1,0.2,0.2,0.4,0.1
			C-212.1,415.2-211.8,414.7-211.7,414.1z M-211.3,415.5c0-0.1-0.1-0.2-0.2-0.2c-0.1,0-0.2,0-0.2,0.1c0,0.1-0.1,0.2,0,0.4
			c0.1-0.1,0.2-0.1,0.3-0.1C-211.3,415.7-211.3,415.6-211.3,415.5z M-210,418.9c0.1-0.1,0.1-0.1,0-0.2c-0.2-0.2-0.4-0.3-0.7-0.3
			c-0.3,0-0.4,0.3-0.3,0.5c0.1,0.3,0.3,0.4,0.6,0.4c-0.1-0.1-0.2-0.1-0.2-0.2c-0.1-0.1-0.2-0.2-0.1-0.3c0.1-0.1,0.2-0.2,0.4-0.1
			c0,0,0.1,0.1,0.1,0.2C-210.1,419-210,419-210,418.9z M-212.8,412.7c0,0,0-0.1-0.1-0.1c-0.2-0.2-0.9,0-1,0.2c0,0.1-0.1,0.1,0,0.2
			c0,0.1,0.1,0.1,0.2,0.1c0.3,0,0.5-0.1,0.7-0.2C-212.9,412.9-212.8,412.8-212.8,412.7z M-211.1,418.1c0.1-0.1,0-0.2-0.1-0.3
			c-0.2-0.3-0.5-0.5-0.7-0.8c-0.8-0.7-1.6-1.4-2.1-2.3c-0.3-0.5-0.3-0.5-0.8-0.1c0.5,0.4,0.9,0.9,1.3,1.4c0.6,0.8,1.2,1.6,2,2.3
			c0.1,0,0.1-0.1,0.1-0.2c0-0.1,0.1-0.2,0.1-0.1C-211.3,418.2-211.2,418.2-211.1,418.1z M-214.2,410.2c-0.4-0.1-0.9-0.2-1.3-0.1
			c0.1,0.3,0.2,0.5,0.4,0.4C-214.8,410.4-214.5,410.3-214.2,410.2z M-215.3,409.3c0-0.1-0.2-0.1-0.2,0c-0.2,0.1-0.3,0.1-0.5,0.3
			c0.2,0.1,0.4,0.1,0.6,0C-215.3,409.4-215.2,409.4-215.3,409.3z M-210.6,419.7c0,0,0-0.1,0-0.1c-0.4-0.1-0.6-0.5-0.7-0.8
			c-0.2,0.2-0.5,0.2-0.6,0.5c0,0.1-0.1,0.2,0,0.2c0.3,0.2,0.4,0.6,0.7,0.6C-211,420.2-210.8,419.9-210.6,419.7z M-214.9,412.3
			c0.1-0.4,0-0.8-0.3-1.3c-0.3,0.5-0.3,0.8,0.1,1.3c0,0.1,0.1,0.1,0.1,0.1C-215,412.5-214.9,412.4-214.9,412.3z M-215.7,411
			c0.1-0.2,0-0.4-0.3-0.5c-0.4-0.2-0.9-0.1-1.2,0.1c-0.6,0.3-1,1.4-0.8,1.9c0.1,0.1,0.1,0.2,0.3,0.2c0.2-0.1,0.5,0,0.7,0.1
			c0.4,0.1,0.8,0.1,1.1-0.2c0.1-0.1,0.2-0.2,0.2-0.4C-215.7,411.8-215.8,411.4-215.7,411z M-215.1,413.9c0.4-0.2,0.5-0.5,0.1-0.8
			c-0.1-0.1-0.2-0.3-0.4-0.3c-0.1-0.1-0.3-0.1-0.4,0c-0.2,0.2-0.3,0.3-0.3,0.6c0,0.2,0,0.4,0.1,0.5
			C-215.7,414-215.4,414.1-215.1,413.9z M-214,416.4c0.1-0.1,0.2-0.2,0.1-0.3c-0.3-0.4-0.7-0.8-1.2-1.1c0,0.7-0.3,1.1-0.8,1.4
			c-0.1,0.1-0.2,0.1-0.2,0.2c0,0.1,0.1,0.2,0.2,0.3c0.4,0.1,0.8,0.2,1.2-0.1C-214.5,416.6-214.2,416.5-214,416.4z M-217.9,409.6
			c0.3-0.3,0.3-0.3,0.1-0.7c-0.1-0.1-0.1-0.2-0.2-0.3c-0.1-0.2-0.3-0.2-0.4-0.1c-0.2,0.1-0.1,0.2,0,0.3c0,0,0.1,0.1,0.1,0.2
			c0.1,0.3,0.1,0.6-0.2,0.7c-0.2,0.1-0.3,0.1-0.5-0.3c0,0,0-0.1-0.1-0.1c-0.1,0.1-0.2,0.2-0.3,0.3c0.2,0.2,0.4,0.4,0.6,0.6
			c0.1,0.2,0.2,0.2,0.3,0C-218.3,409.9-218,409.8-217.9,409.6z M-215.5,414.7c0-0.2-0.2-0.2-0.3-0.3c-0.1-0.1-0.2,0-0.3,0.1
			c-0.1,0.1-0.1,0.3-0.1,0.5c0,0.1,0.1,0.1,0,0.2c-0.3,0.2-0.2,0.5-0.1,0.8C-215.7,415.7-215.4,415.3-215.5,414.7z M-216.5,413.3
			c0-0.1,0-0.2-0.1-0.2c-0.2,0-0.4-0.1-0.6,0c0.2,0.2,0.4,0.2,0.6,0.3C-216.6,413.5-216.5,413.4-216.5,413.3z M-216.3,414.5
			c0.2-0.3,0.1-0.4-0.2-0.4c-0.4-0.1-0.8-0.2-1.1-0.6c-0.1-0.1-0.3-0.3-0.4-0.2c-0.3,0.1-0.6,0.3-0.7,0.6c-0.2,0.5,0,1.1,0.1,1.5
			c0.3,0.7,0.8,0.9,1.4,1c0.1,0,0.2,0,0.3-0.1c0.1-0.1,0.2-0.1,0.1-0.3c-0.1-0.2,0-0.5,0-0.7C-216.6,415-216.4,414.7-216.3,414.5z
			 M-228,391.6c0-0.4-0.2-0.5-0.6-0.4c-0.3,0.1-0.5,0.4-0.8,0.5c-0.5,0.2-0.9,0.6-1.4,0.8c-0.6,0.4-1.1,0.6-1.7,0.9
			c-0.5,0.3-1.1,0.3-1.6,0.6c-0.1,0.1-0.2,0.2-0.4,0.2c-1,0.3-2.1,0.7-3.1,0.9c-0.4,0.1-0.8,0.3-1.1,0.6c-0.1,0.1-0.2,0.2,0,0.4
			c0.3,0.3,0.5,0.7,0.9,1c0.2,0.2,0.5,0.4,0.6,0.7c0.2,0.3,0.4,0.3,0.6,0.2c0.5-0.2,0.9-0.4,1.4-0.6c0.2-0.1,0.3-0.1,0.5-0.2
			c0.6-0.3,1.2-0.7,1.7-1.1c0.3-0.2,0.6-0.3,0.8-0.6c0,0,0,0,0,0c0.4-0.2,0.8-0.6,1.2-0.8c0.9-0.5,1.8-1.2,2.5-2
			C-228.2,392.5-227.9,392.1-228,391.6z M-218.2,412.8c-0.1-0.3-0.1-0.7-0.2-1.1c-0.3,0.5-0.6,1-0.7,1.5c0,0.2,0,0.3,0,0.5
			c0,0.1,0,0.1,0.1,0.1c0.1,0,0.1,0,0.1-0.1c0.1-0.3,0.3-0.5,0.6-0.7C-218.2,413-218.1,412.9-218.2,412.8z M-216.1,417.2
			c-0.4-0.5-0.4-0.5-0.9-0.3C-216.7,417-216.4,417.1-216.1,417.2z M-218.8,411.1c-0.2,0-0.3,0.1-0.5,0.2c-0.1,0-0.2,0.1-0.1,0.2
			c0,0.1,0.1,0.2,0.2,0.2c0.1,0,0.2-0.1,0.2-0.2C-218.9,411.4-218.9,411.3-218.8,411.1z M-216.9,417.7c0.1,0,0.1-0.1,0.1-0.1
			c-0.1-0.1-0.2-0.1-0.3-0.1c-0.1,0-0.1,0.1,0,0.2C-217.1,417.8-217,417.7-216.9,417.7z M-219.6,412.5c0-0.1,0.1-0.1,0-0.2
			c-0.2-0.1-0.3-0.3-0.5-0.4c-0.2-0.1-0.3,0.1-0.4,0.2c-0.1,0.1-0.2,0.2-0.1,0.3c0.3,0.4,0.5,0.8,0.7,1.2c0.1-0.3,0.1-0.5-0.1-0.8
			c-0.1-0.2-0.1-0.3,0.1-0.3C-219.7,412.5-219.6,412.6-219.6,412.5z M-217.9,417.3c0-0.1-0.1-0.2-0.2-0.2c-0.1,0-0.3,0.2-0.4,0.1
			c-0.2-0.1,0-0.3,0.1-0.4c0-0.1,0-0.1,0-0.2c-0.2,0-0.4,0.1-0.6,0c0.2,0.4,0.3,0.6,0.4,0.9c0.1,0.2,0.1,0.3,0.2,0.5
			c0,0.1,0.1,0.2,0.2,0.2c0.1,0,0.3-0.1,0.3-0.2C-217.9,417.8-217.8,417.5-217.9,417.3z M-220.8,411.4c0.1-0.1,0.1-0.2,0-0.3
			c-0.6-0.5-1.1-1.1-1.6-1.6c-0.8-0.8-1.5-1.6-2.4-2.3c-0.6-0.5-1.1-1.1-1.6-1.6c-0.3-0.3-0.5-0.7-0.9-1c-0.4-0.2-0.7-0.6-1-1
			c-0.1-0.1-0.2-0.3-0.4-0.3c0,0.1,0,0.1-0.1,0.2c-0.2,0.8-0.3,1.7-0.4,2.5c0,0.2,0,0.3,0.2,0.3c0.1,0,0.3,0.1,0.4,0.1
			c0.8,0.1,1.5,0.3,2.2,0.7c0.2,0.1,0.3,0.2,0.5,0.2c1.1,0.4,2,1,2.7,1.9c0.2,0.3,0.5,0.5,0.8,0.8c0.3,0.3,0.6,0.6,0.9,1
			c0.2,0.3,0.4,0.5,0.7,0.8C-220.9,411.7-220.9,411.5-220.8,411.4z M-219.2,416.4c0.2,0,0.2-0.1,0.3-0.3
			C-219,416.2-219.2,416.1-219.2,416.4C-219.3,416.3-219.2,416.4-219.2,416.4z M-219.9,414.7c-0.3-0.6-0.6-1.2-1-1.8
			c-0.1-0.1-0.1-0.1-0.2-0.2c-0.1-0.1-0.2,0-0.2,0c-0.1,0.1,0,0.1,0,0.2c0.2,0.1,0.2,0.3,0.4,0.5
			C-220.6,413.8-220.3,414.3-219.9,414.7z M-219.7,415.6c0-0.1-0.1-0.3-0.2-0.2c-0.1,0.1,0,0.2,0,0.4c0,0.1,0,0.2,0.1,0.3
			c0.2-0.1,0.4-0.1,0.6-0.2C-219.4,415.6-219.6,415.8-219.7,415.6z M-221.5,412.3C-221.5,412.3-221.5,412.2-221.5,412.3
			c-0.6-0.6-1.2-1.3-1.8-1.9c-0.1-0.1-0.2-0.1-0.2-0.2c-0.4-0.3-0.7-0.6-1-0.9c-0.4-0.5-1-0.8-1.5-1.1c-1-0.6-2.1-0.8-3.3-1.1
			c-0.1,0-0.1,0-0.1,0.1c0,0.1,0,0.1,0.1,0.1c0.2,0.1,0.4,0.1,0.6,0.2c1,0.1,1.9,0.5,2.7,1c0.8,0.5,1.5,1.2,2.3,1.7
			c0.2,0.1,0.4,0.3,0.6,0.5c0.4,0.4,0.7,0.9,1.1,1.3c0.1,0.2,0.3,0.3,0.5,0.3C-221.5,412.4-221.5,412.4-221.5,412.3
			C-221.5,412.3-221.5,412.3-221.5,412.3z M-220.2,416.2c0.2-0.2,0.1-0.5-0.1-0.6c-0.2-0.1-0.3,0-0.3,0.2c0,0.2,0.1,0.4,0.1,0.6
			c0,0,0,0,0,0c0-0.2-0.2-0.3-0.3-0.4c-0.1-0.2-0.2-0.2-0.4-0.1c-0.2,0.1-0.2,0.2-0.2,0.3c0,0.1,0,0.2,0,0.4
			c-0.2-0.1-0.2-0.2-0.3-0.3c-0.1-0.2-0.2-0.1-0.3,0c-0.2,0.2,0,0.4,0,0.7c-0.2,0-0.2-0.1-0.3-0.2c-0.1-0.1-0.2-0.2-0.4-0.1
			c-0.2,0.1-0.2,0.2-0.2,0.4c0,0.1,0.1,0.2,0,0.3c-0.2-0.4-0.2-0.4-0.4-0.3c-0.3,0.1-0.1,0.4-0.1,0.6c-0.2,0-0.3-0.3-0.6-0.2
			c-0.3,0.1-0.2,0.4-0.3,0.5c-0.1-0.1-0.2-0.3-0.4-0.2c-0.1,0.1-0.2,0.2-0.1,0.4c0,0.1,0.1,0.2,0,0.2c-0.2-0.4-0.2-0.4-0.5-0.2
			c-0.4,0.2-0.4,0.2-0.1,0.7c0.2-0.2,0.5-0.2,0.7-0.3c0.7-0.4,1.4-0.7,2.1-1c0.7-0.3,1.3-0.7,1.9-1.1c0,0,0,0,0,0c0,0,0,0,0,0
			c0,0,0,0,0,0C-220.4,416.4-220.3,416.3-220.2,416.2z M-221,417.9c0-0.1,0-0.2-0.1-0.2c-0.2-0.4-0.2-0.4-0.6-0.2
			c-0.3,0.1-0.5,0.3-0.8,0.4c-1,0.3-1.9,1-2.9,1.3c-0.1,0-0.1,0.1-0.2,0.1c-0.8,0.6-1.6,1.2-2.5,1.6c-0.4,0.2-0.8,0.3-1.1,0.6
			c-0.6,0.5-1.3,0.9-2,1.1c0,0-0.1,0-0.1,0.1c-0.1,0.1-0.1,0.1-0.1,0.2c0.1,0.1,0.1,0.1,0.2,0c0.2-0.2,0.4-0.2,0.6-0.2
			c0.3,0,0.6,0,0.7-0.4c0.1-0.2,0.3-0.3,0.5-0.1c0.2,0.2,0.3,0.1,0.4-0.1c0.1-0.3,0.4-0.3,0.6-0.3c0.1,0,0.3,0,0.4-0.1
			c0.1-0.2,0.4-0.3,0.6-0.3c0.3,0,0.5-0.1,0.6-0.3c0.2-0.3,0.5-0.3,0.8-0.3c0.2,0,0.4-0.1,0.5-0.2c0.2-0.3,0.4-0.3,0.7-0.3
			c0.4,0,0.8,0,1-0.4c0.1-0.2,0.2-0.2,0.4-0.2c0.4,0.2,0.6,0,0.9-0.3c0.1-0.2,0.3-0.3,0.5-0.2c0.4,0.1,0.7,0.1,0.7-0.4
			C-221.1,418.8-221,418.1-221,417.9z M-220.2,419.7c0-0.1-0.1-0.2-0.3-0.2c-0.5,0.1-1,0.1-1.3,0.6c-0.1,0.1-0.2,0.2-0.4,0.2
			c-0.4-0.1-0.8,0.1-1.1,0.3c-0.1,0.1-0.2,0.1-0.3,0.1c-0.6,0-1.1,0.2-1.3,0.9c-0.5-0.4-0.7-0.3-1.1,0.1c-0.1,0.1-0.3,0.2-0.4,0.2
			c-0.4-0.2-0.6,0.1-0.9,0.3c-0.1,0.1-0.2,0.3-0.3,0.2c-0.3-0.1-0.4,0-0.6,0.2c-0.2,0.1-0.4,0.4-0.7,0.2c-0.1,0-0.2,0-0.3,0.1
			c-0.2,0.2-0.4,0.3-0.7,0.3c-0.2,0-0.5,0-0.7,0.3c0.6,0.2,1.1,0.3,1.7,0.4c0.1,0,0.1,0,0.2,0c0.9-0.2,1.9-0.3,2.8-0.5
			c1-0.2,2-0.3,3-0.4c1-0.1,1.9-0.4,2.9-0.5c0.1,0,0.2-0.1,0.2-0.2c0-0.4-0.2-0.7-0.2-1C-219.9,420.6-220.2,420.2-220.2,419.7z
			 M-221.9,415.9c-0.2-0.2-0.3-0.4-0.4-0.6c-0.1-0.2-0.3-0.4-0.4-0.7c-0.3-0.5-0.7-0.6-1.1-0.1c0,0.1-0.1,0.1-0.1,0.2
			c-0.1,0.1-0.2,0.2-0.3,0.2c-0.4,0.1-0.7,0.4-0.9,0.7c-0.1,0.1-0.1,0.3-0.3,0.3c-0.5,0-0.7,0.3-1,0.6c-0.1,0.2-0.3,0.4-0.6,0.5
			c-0.2,0-0.4,0.2-0.4,0.4c-0.1,0.3-0.3,0.4-0.6,0.5c-0.4,0.1-0.6,0.5-0.9,0.7c-0.3,0.2-0.7,0.3-0.9,0.6c0,0,0,0,0,0
			c-0.1,0.2-0.3,0.4-0.6,0.4c-0.2,0-0.3,0.1-0.4,0.3c-0.1,0.2-0.1,0.4-0.4,0.5c-0.1,0-0.1,0.2,0,0.3c0.1,0.1,0.1,0,0.2,0
			c0.3-0.2,0.6-0.4,1-0.6c1.1-0.6,2.3-1.2,3.4-1.8c1.2-0.7,2.5-1.3,3.8-2C-222.6,416.3-222.3,416.1-221.9,415.9z M-229.7,400.3
			c0.1-0.1,0.1-0.3,0-0.4c-0.1-0.1-0.3-0.1-0.4,0c-0.2,0.3-0.4,0.4-0.7,0.5c-0.1,0.1-0.2,0.2-0.1,0.4c0.1,0.2,0.3,0.2,0.4,0.1
			C-230.2,400.8-229.9,400.6-229.7,400.3z M-224.1,414.1c0.5,0,0.6-0.3,0.4-0.7c-0.1-0.2-0.2-0.4-0.4-0.6c-0.5-0.4-0.9-0.8-1.3-1.3
			c-0.3-0.4-0.4-0.3-0.7,0.1c0,0.1-0.1,0.1-0.1,0.2c-0.6,0.8-1.1,1.6-1.6,2.5c-0.4,0.6-0.7,1.3-1.2,1.8c-0.2,0.2-0.3,0.4-0.5,0.6
			c-0.2,0.4-0.5,0.8-0.8,1.2c-0.3,0.3-0.4,0.6-0.6,1c-0.1,0.1-0.1,0.3,0,0.5c0.4-0.3,0.9-0.5,1.2-0.9c0.1-0.2,0.3-0.2,0.5-0.3
			c0.3-0.1,0.4-0.2,0.6-0.5c0.1-0.2,0.2-0.4,0.4-0.4c0.4,0,0.6-0.3,0.8-0.6c0.1-0.2,0.3-0.5,0.6-0.5c0.3,0,0.5-0.2,0.6-0.4
			c0.2-0.3,0.4-0.5,0.8-0.6c0.3-0.1,0.5-0.2,0.5-0.5C-224.6,414.3-224.4,414.1-224.1,414.1z M-230.6,399.9c0.3-0.2,0.3-0.2,0.1-0.5
			c-0.7-0.7-1.4-1.4-2-2.3c-0.5-0.7-0.5-0.5-1-0.1c0,0,0,0.1,0,0.1c0.4,0.5,0.9,1,1.3,1.6c0.3,0.3,0.6,0.7,0.9,1
			C-231.1,400.1-230.9,400.1-230.6,399.9z M-219.8,423c0-0.2,0-0.3-0.3-0.3c-0.1,0-0.2,0-0.2,0c-0.7,0.1-1.5,0.2-2.2,0.3
			c-1.5,0.2-3,0.4-4.5,0.7c-0.2,0-0.3,0.1-0.5,0.2c0.2,0.1,0.4,0.2,0.7,0.2c0.6,0.1,1.2,0.3,1.8,0.5c0.7,0.2,1.4,0.5,2.2,0.6
			c0.8,0.1,1.6,0.4,2.3,0.6c0.2,0.1,0.3,0,0.3-0.2c0.2-0.6,0.3-1.2,0.3-1.8C-219.9,423.7-219.8,423.4-219.8,423z M-225.9,411.2
			c-0.2-0.2-0.4-0.3-0.6-0.4c-0.3-0.2-0.6-0.4-1-0.5c-0.3-0.1-0.7-0.2-1-0.3c-0.2-0.1-0.3,0-0.4,0.1c0,0.2-0.1,0.4-0.2,0.5
			c-0.2,0.7-0.3,1.4-0.5,2.2c-0.1,0.6-0.2,1.2-0.4,1.8c-0.2,0.7-0.3,1.5-0.5,2.2c-0.1,0.4-0.1,0.7-0.1,1.1c0.4-0.3,0.7-0.7,1-1.1
			c0.2-0.4,0.5-0.8,0.8-1.1c0.1-0.1,0.2-0.3,0.3-0.4c0.4-0.8,0.9-1.5,1.3-2.2C-226.7,412.3-226.3,411.8-225.9,411.2z M-220.6,427.4
			c-0.1-0.4,0.1-0.7,0.2-1c-0.8-0.2-1.6-0.5-2.4-0.7c-0.8-0.1-1.5-0.3-2.2-0.6c-0.4-0.2-0.9-0.3-1.4-0.4c-0.8-0.1-1.6-0.3-2.4-0.5
			c-0.5-0.1-1,0-1.5,0.1c0,0.2,0.2,0.3,0.3,0.4c0.5,0.4,1,0.8,1.5,1.2c1.3,1,2.6,2.2,3.6,3.5c0.5,0.6,1,1.1,1.4,1.7
			c0.1,0.2,0.2,0.2,0.4,0c0.2-0.2,0.4-0.3,0.6-0.5c0.5-0.5,1-0.9,1.2-1.6c0.2-0.5,0.4-1,0.7-1.5
			C-220.6,427.6-220.6,427.5-220.6,427.4z M-229.1,409.8c0-0.1,0.1-0.2,0-0.3c-0.3-0.3-0.7-0.2-0.9,0.1c-0.1,0.1-0.2,0.3-0.2,0.5
			c-0.1,0.9-0.4,1.7-0.5,2.6c0,0.4-0.1,0.7-0.2,1.1c-0.3,1-0.3,2.1-0.6,3.2c-0.1,0.4-0.1,0.9-0.2,1.3c-0.2,0.6-0.3,1.2-0.4,1.7
			c0,0.1-0.1,0.2,0.1,0.3c0.2-0.3,0.3-0.6,0.6-0.8c0.3-0.3,0.4-0.7,0.5-1.2c0.1-0.6,0.2-1.2,0.4-1.8c0.2-0.7,0.4-1.4,0.5-2.1
			c0.2-1.2,0.5-2.3,0.7-3.5C-229.3,410.5-229.2,410.2-229.1,409.8z M-231.9,407c0.3,0,1-0.1,0.7-0.2c-0.7-0.2-1.4,0-2.1-0.1
			c-0.6,0-1.3,0-1.9,0.2c-0.5,0.1-1,0.3-1.5,0.5c-0.8,0.3-1.6,0.6-2.4,1.1c-0.5,0.3-1,0.6-1.5,0.9c-0.5,0.3-0.8,0.6-1.3,0.9
			c-0.3,0.2-0.6,0.4-0.8,0.7c0,0.1-0.1,0.1-0.2,0.2c-0.1,0.1-0.1,0.1-0.2,0.1c-0.4,0.3-0.8,0.7-1.1,1.1c-0.8,0.9-1.6,1.8-2.2,2.9
			c-0.3,0.5-0.6,1.1-0.9,1.7c-0.1,0.3-0.7,2.8-0.8,3.7c0,0.3,0,2,0,2.4c0,0.4,0.1,0.9,0.1,1.3c0,0.2,0.8,3.3,0.9,3.8
			c0,0.1,0.1,0.3,0.2,0.4c0.1,0.1,0.2,0.2,0.2,0.4c0,0.1,0.1,0.3,0.2,0.3c0.2,0,0.4-0.1,0.5-0.2c0.1-0.1,0-0.2,0-0.3
			c-0.3-0.5-0.5-1.1-0.7-1.6c-0.3-0.8-0.5-1.6-0.7-2.4c-0.2-0.5-0.2-1.1-0.2-1.7c0-0.3,0-0.6-0.1-0.9c-0.1-0.4-0.1-0.7-0.1-1.1
			c0.1-0.4,0.1-0.7,0.2-1.1c0.1-0.9,0.4-1.7,0.8-2.5c0.1-0.2,0.2-0.3,0.2-0.5c0.1-0.4,0.3-0.7,0.5-1.1c0.2-0.3,0.4-0.7,0.6-1
			c0.2-0.3,0.4-0.7,0.7-1c0.7-0.9,1.3-1.8,2.1-2.5c0.1-0.1,0.2-0.2,0.3-0.2c0.8-0.7,1.7-1.3,2.6-1.9c0.2-0.1,0.4-0.1,0.5-0.3
			c0.4-0.4,0.9-0.6,1.4-0.8c0.6-0.2,1.2-0.3,1.8-0.6c0.6-0.3,1.3-0.4,2-0.5C-233.5,406.9-232.7,407-231.9,407z M-225.6,418.9
			c-0.1-0.1-0.1-0.4-0.3-0.4c-0.2,0-0.2,0.2-0.2,0.4c0,0,0,0.1-0.1,0.1c-0.2-0.2-0.4-0.2-0.6,0c-0.2,0.1,0.1,0.3,0,0.4
			c-0.2,0-0.3-0.2-0.5-0.2c-0.3,0.1,0,0.4-0.2,0.5c0,0-0.1,0-0.1-0.1c-0.1-0.1-0.2-0.2-0.3-0.1c-0.2,0.1-0.1,0.2-0.1,0.4
			c0,0,0.1,0.1,0,0.2c-0.2,0-0.2-0.4-0.5-0.2c-0.3,0.1-0.1,0.4-0.1,0.6c-0.3-0.1-0.5-0.4-0.8-0.1c-0.2,0.2,0,0.4,0.1,0.6
			c-0.2,0-0.3-0.1-0.4-0.2c-0.1-0.1-0.2-0.1-0.3,0c-0.1,0.1-0.1,0.2,0,0.3c0,0.1,0.1,0.3,0.2,0.4c0.2-0.1,0.4-0.3,0.7-0.4
			c0.7-0.4,1.4-0.7,2.1-1.1c0.4-0.3,0.9-0.6,1.3-0.9C-225.6,419-225.5,419-225.6,418.9z M-235.6,398.2c0.1,0,0.3,0.1,0.3-0.2
			c-0.4,0.1-0.8,0.2-1.2,0.5c0.3,0.1,0.4,0,0.5-0.1C-235.8,398.3-235.7,398.2-235.6,398.2z M-235.9,398.9c0.1,0,0.3,0.2,0.5-0.1
			C-235.7,398.8-235.8,398.9-235.9,398.9z M-231.4,409.3c0-0.2,0-0.3-0.2-0.4c-0.1-0.1-0.2-0.1-0.4-0.1c-0.7-0.1-1.3-0.1-2,0.1
			c-0.8,0.2-1.6,0.3-2.4,0.6c-0.3,0.1-0.3,0.1-0.2,0.5c0.2,0.5,0.3,1.1,0.5,1.6c0.4,1,0.7,2.1,1,3.2c0.2,0.6,0.3,1.2,0.5,1.8
			c0.1,0.4,0.3,0.9,0.4,1.3c0.1,0.6,0.2,1.2,0.3,1.8c0.1,0.3,0.1,0.6,0.5,0.7c0.1-0.2,0.1-0.4,0.2-0.5c0.2-0.9,0.3-1.7,0.5-2.6
			c0.3-1.2,0.3-2.4,0.5-3.6c0.2-1,0.3-2.1,0.5-3.1C-231.6,410.1-231.5,409.7-231.4,409.3z M-223.8,431.8c0.1-0.1,0.2-0.2,0-0.4
			c-0.1-0.2-0.3-0.5-0.5-0.7c-0.4-0.4-0.8-0.8-1.1-1.3c-0.2-0.2-0.4-0.5-0.6-0.7c-0.5-0.5-1-1-1.5-1.4c-1.1-0.9-2.2-1.9-3.3-2.8
			c-0.1-0.1-0.2-0.1-0.4-0.1c-0.3,0-0.6,0-0.7,0.2c-0.2,0.2,0.1,0.5,0.2,0.7c0.6,0.7,1.1,1.5,1.7,2.3c0.6,0.9,1.4,1.7,2,2.6
			c0.4,0.6,1,1.1,1.3,1.7c0.2,0.4,0.4,0.8,0.7,1.2c0.1,0.2,0.2,0.2,0.4,0.1c0.4-0.4,0.8-0.6,1.2-0.9
			C-224.2,432.1-224,432-223.8,431.8z M-230.1,421.7c0.3-0.1,0.3-0.3,0.1-0.5c-0.1-0.1-0.1-0.1-0.2-0.1c-0.1,0-0.2,0.1-0.1,0.2
			c0,0.1,0.1,0.2,0,0.3c-0.1,0-0.2-0.1-0.2-0.2c-0.1-0.1-0.2-0.1-0.3-0.1c-0.1,0.1-0.1,0.1-0.1,0.2c0,0.1,0,0.3,0.1,0.4
			C-230.6,422-230.3,421.9-230.1,421.7z M-231,421.9c0-0.1-0.1-0.2-0.2-0.3c-0.3,0.2-0.7,0.3-1,0.5c-0.3,0.1-0.3,0.2-0.3,0.5
			c0,0.1,0.1,0.2,0.2,0.1c0.4-0.2,0.7-0.4,1.1-0.6C-231,422.2-231,422.1-231,421.9z M-231.8,420.8c-0.5,0.2-0.5,0.3-0.6,0.8
			C-231.8,421.4-231.7,421.4-231.8,420.8z M-235.8,412.8c-0.4-0.9-0.7-1.9-1.2-2.8c-0.1-0.2-0.2-0.2-0.3-0.2c-0.1,0-0.3,0.1-0.4,0.1
			c-0.4,0.2-0.9,0.4-1.3,0.7c-0.4,0.3-1.2,1-1.2,1.1c-0.3,0.3-0.3,0.6-0.1,0.9c0.1,0.2,0.2,0.3,0.3,0.5c0.4,0.4,0.5,1,0.9,1.4
			c0.5,0.6,0.9,1.2,1.4,1.8c0.6,0.8,1.2,1.6,2.1,2.2c0.2,0.1,0.4,0.3,0.6,0.4c0.3,0.2,0.6,0.5,0.9,0.7c-0.1-0.2-0.1-0.5-0.1-0.7
			c-0.1-0.7-0.2-1.4-0.4-2c-0.1-0.3-0.2-0.6-0.3-0.8c-0.1-0.8-0.4-1.6-0.6-2.4C-235.7,413.4-235.7,413.1-235.8,412.8z M-226.2,433.6
			c0.2-0.1,0.1-0.2,0-0.3c-0.2-0.2-0.3-0.4-0.4-0.6c-0.3-0.6-0.7-1.1-1.2-1.6c-0.1-0.1-0.3-0.3-0.4-0.4c-0.5-0.7-1-1.5-1.6-2.1
			c-0.1-0.1-0.2-0.3-0.3-0.4c-0.5-1-1.3-1.8-2-2.7c0,0,0,0-0.1-0.1c-0.1-0.1-0.1-0.1-0.2-0.1c-0.1,0-0.1,0.1-0.1,0.2
			c0,0.1,0,0.1,0,0.2c0.3,0.6,0.2,1.3,0.4,2c0.1,0.3,0.2,0.6,0.3,0.9c0.2,0.9,0.4,1.8,0.6,2.6c0.3,1.2,0.6,2.3,0.8,3.5
			c0.1,0.4,0.1,0.4,0.5,0.4c0.7-0.2,1.4-0.3,2-0.6C-227.3,434.3-226.8,433.9-226.2,433.6z M-230.5,423.9c-0.1-0.1-0.3-0.1-0.4-0.1
			C-230.8,424-230.8,424-230.5,423.9z M-231.4,424C-231.3,424-231.3,423.9-231.4,424c0-0.2-0.1-0.2-0.2-0.1c0,0-0.1,0.1-0.1,0.1
			C-231.5,424-231.4,424-231.4,424z M-232.8,422c0-0.1,0.1-0.2,0.1-0.4c-0.5,0.1-0.7,0.5-1.1,0.7c-0.1,0-0.2,0.1-0.2,0.2
			c0,0.1,0.1,0.1,0.1,0.1c0.1,0.1,0.1-0.1,0.2-0.1c0.2-0.2,0.4-0.4,0.7-0.3C-232.8,422.2-232.8,422.1-232.8,422z M-232.8,423.2
			c0.2-0.1,0.1-0.2,0.1-0.4c-0.1-0.3-0.4-0.4-0.6-0.3c-0.2,0.1-0.3,0.3-0.2,0.5C-233.5,423.2-233.1,423.3-232.8,423.2z
			 M-233.8,421.3c0-0.3,0-0.6-0.3-0.8c-0.4-0.3-0.8-0.7-1.3-1c0.2,0.5,0.4,1,0.8,1.3c0.2,0.1,0.3,0.4,0.4,0.5
			c0.1,0.1,0.1,0.1,0.2,0.1C-233.8,421.4-233.8,421.3-233.8,421.3z M-233.8,423.9c0.3,0.2,0.3,0.2,0.8-0.2c-0.6,0-0.9-0.2-1-0.7
			C-234.1,423.4-234.1,423.6-233.8,423.9z M-234.6,421.8c-0.1-0.3-0.1-0.7-0.4-0.9c-0.1-0.1-0.1-0.2-0.2-0.3
			c-0.2-0.2-0.3-0.6-0.6-0.9c-0.3-0.3-0.5-0.7-0.8-1c-0.2-0.3-0.4-0.6-0.8-0.8c-0.5-0.3-1-0.7-1.5-1c-0.3-0.2-0.6-0.4-0.9-0.6
			c-1-0.5-2.1-1-3.1-1.3c-0.3-0.1-0.4-0.1-0.5,0.2c-0.3,0.5-0.6,1.1-1,1.6c-0.1,0.2-0.2,0.4-0.3,0.6c-0.1,0.4-0.1,0.9-0.3,1.3
			c-0.1,0.2,0,0.3,0.1,0.4c0.3,0.1,0.7,0.3,1,0.4c0.9,0.2,1.8,0.6,2.6,0.9c0.6,0.2,1.2,0.4,1.8,0.6c0.7,0.2,1.5,0.4,2.2,0.7
			c0.3,0.2,0.7,0.3,1.1,0.3c0.4,0,0.7,0.1,1,0.2c0.1,0,0.2,0.1,0.4,0C-234.8,422-234.6,422-234.6,421.8z M-233.4,425.8
			c0.2-0.3,0.3-0.5,0.1-0.8c-0.2,0-0.4,0-0.5,0.3c0,0.2,0,0.5-0.2,0.7c-0.2,0.2-0.2,0.5-0.2,0.8c0.2,0,0.2-0.1,0.3-0.2
			C-233.7,426.3-233.6,426-233.4,425.8z M-232.5,427.5c-0.1-0.6-0.2-1.2-0.4-1.8c-0.6,0.6-1.1,1.5-1.2,2.2c0,0.1-0.1,0.2-0.1,0.3
			c-0.5,0.8-0.7,1.8-0.9,2.7c-0.2,0.7-0.3,1.5-0.5,2.2c-0.1,0.4-0.2,0.9-0.2,1.3c0,0.4,0,0.5,0.4,0.6c0.6,0.1,1.1,0.3,1.8,0.3
			c0.8,0.1,1.6,0.1,2.4,0.1c0.2,0,0.3-0.1,0.3-0.3c-0.1-0.3-0.2-0.7-0.2-1c-0.1-0.7-0.1-1.4-0.3-2.2c-0.1-0.7-0.3-1.3-0.5-1.9
			C-232.1,429.1-232.4,428.4-232.5,427.5z M-234,425.4c0.1-0.2,0.2-0.4-0.1-0.6c-0.2-0.1-0.2-0.4-0.4-0.4c-0.3,0-0.3-0.2-0.1-0.4
			c0,0,0-0.1,0-0.2c-0.2,0.4-0.6,0.6-0.8,0.9c-0.6,0.8-1.3,1.6-1.9,2.4c-0.5,0.6-1,1.1-1.4,1.7c-0.5,0.6-1,1.3-1.4,2
			c-0.2,0.3-0.5,0.5-0.6,0.8c-0.1,0.3-0.1,0.4,0.1,0.6c0.6,0.6,1.4,1,2.1,1.5c0,0,0,0,0,0c0.1,0.1,0.2,0,0.2-0.1
			c0.3-0.5,0.7-0.9,1.1-1.4c0.5-0.7,1-1.5,1.4-2.3c0.4-0.6,0.9-1.2,1.1-1.9C-234.5,427.2-234.3,426.2-234,425.4z M-235,423
			c0.1-0.1,0.1-0.2,0-0.2c-0.3-0.2-0.6-0.4-1-0.4c-0.5,0-1-0.1-1.5-0.3c-0.6-0.3-1.2-0.5-1.9-0.6c-0.5-0.2-1-0.4-1.6-0.5
			c-0.4-0.1-0.8-0.3-1.2-0.5c-0.9-0.3-1.9-0.5-2.9-0.9c-0.1,0-0.2,0-0.3,0c-0.1,0.1-0.1,0.3-0.1,0.5c0,0.4,0,0.9,0,1.3
			c0,0.5,0,1,0.1,1.5c0,0.3,0.1,0.3,0.3,0.3c0.8,0.1,1.6,0,2.4,0c0.3,0,0.5,0.1,0.8,0c0.8-0.2,1.7-0.2,2.5-0.2
			c0.4,0,0.9,0.1,1.3,0.1c0.9,0,1.9-0.1,2.8,0C-235.2,423.1-235.1,423.1-235,423z M-235,423.9c0.1-0.1,0.1-0.2,0-0.3
			c-0.1-0.1-0.1-0.1-0.2-0.1c-0.2,0-0.3,0.1-0.4,0.2c-0.5,0.5-1.1,0.6-1.6,1c-0.1,0.1-0.2,0.2-0.3,0.2c-0.8,0.2-1.5,0.7-2.1,1.1
			c-0.8,0.5-1.6,1-2.4,1.4c-0.3,0.2-0.6,0.3-0.9,0.5c-0.3,0.2-0.4,0.5-0.2,0.8c0.1,0.2,0.2,0.4,0.2,0.6c0.2,0.4,0.5,0.7,0.7,1.1
			c0.2,0.4,0.6,0.7,0.9,1.1c0.2,0.3,0.3,0.2,0.5,0c0.3-0.4,0.6-0.7,0.8-1.1c0.7-0.9,1.3-1.8,2-2.6c0.4-0.5,0.9-0.9,1.2-1.4
			c0.5-0.7,1-1.5,1.7-2.2C-235.2,424.1-235.1,424-235,423.9z M-238.1,416.9c-0.8-1.3-1.5-2.6-2.5-3.7c-0.1-0.2-0.3-0.3-0.4-0.5
			c-0.1-0.1-0.2-0.2-0.3-0.1c-0.5,0.3-1.4,1.6-1.7,1.7c0.2,0.1,0.3,0.2,0.5,0.2c0.4,0,0.7,0.1,0.9,0.5c0.2,0.3,0.5,0.4,0.7,0.5
			c0.6,0.2,1.2,0.5,1.8,0.9C-238.7,416.4-238.4,416.7-238.1,416.9z M-236,423.5c-0.2-0.1-0.3-0.1-0.5-0.1c-0.6,0-1.1,0.1-1.7,0
			c-1.2-0.1-2.3-0.1-3.5,0.1c-0.5,0.1-0.9,0-1.4,0c-0.6,0.1-1.3,0.1-1.9,0c-0.1,0-0.2-0.1-0.3,0c-0.1,0.1-0.2,0.1-0.1,0.3
			c0.1,0.8,0.4,1.5,0.7,2.2c0.1,0.4,0.3,0.8,0.5,1.2c0,0.1,0.1,0.2,0.1,0.2c0.2,0.3,0.3,0.3,0.6,0.1c0.3-0.2,0.7-0.4,1.1-0.6
			c0.5-0.2,1.1-0.5,1.6-0.8c1.3-0.8,2.7-1.6,4.1-2.3C-236.4,423.9-236.2,423.8-236,423.5z M-235.2,429.6c-0.2,0-0.2,0.2-0.3,0.3
			c-0.2,0.3-0.3,0.5-0.4,0.8c-0.6,1.1-1.3,2.1-2,3.1c-0.1,0.2-0.1,0.3,0.1,0.4c0.3,0.1,0.6,0.2,0.9,0.4c0.3,0.2,0.5,0.1,0.6-0.3
			c0-0.3,0.1-0.6,0.2-0.8C-235.9,432.1-235.6,430.8-235.2,429.6z M-248.4,425c0-0.1-0.1-0.3-0.2-0.2c-0.2,0.1-0.4,0.2-0.3,0.5
			c0,0.1,0,0.3,0.1,0.4c0.3,0.8,0.5,1.6,0.9,2.4c0.1,0.3,0.3,0.3,0.6,0.2c0-0.3-0.1-0.5-0.2-0.7c-0.2-0.5-0.3-0.9-0.5-1.4
			C-248.2,425.8-248.3,425.4-248.4,425z M-249.2,426c0-0.1-0.1-0.2-0.2-0.1c-0.1,0.1-0.1,0.2-0.1,0.3c0,0.1,0.1,0.1,0.2,0.1
			C-249.2,426.2-249.2,426.1-249.2,426z M-248.4,428.3c0.1,0,0.1-0.1,0-0.2c-0.1-0.1-0.1-0.2-0.3-0.2c0,0.1-0.1,0.1-0.1,0.2
			C-248.6,428.2-248.5,428.3-248.4,428.3z M-249.1,427.1c0.1,0,0.1-0.1,0.1-0.2c-0.1-0.2-0.2-0.1-0.3-0.1c-0.1,0.1-0.2,0.1-0.2,0.2
			C-249.4,427.3-249.2,427.2-249.1,427.1z M-248.8,427.5c0-0.1-0.2-0.1-0.3-0.1c-0.1,0-0.2,0.1-0.2,0.2c0.1,0.2,0.2,0.1,0.3,0.1
			C-248.8,427.6-248.7,427.6-248.8,427.5z"/>
		<path id="XMLID_125_" class="st5" d="M-154.4,383.5c0.1,0.2,0.1,0.5-0.1,0.6c-0.6,0.3-0.8,0.3-1-0.1c-0.1-0.3-0.1-0.8,0.1-0.9
			C-155.1,382.9-154.5,383.1-154.4,383.5z M-154.7,383.8c0-0.1,0.2-0.1,0.1-0.2c-0.1-0.2-0.5-0.3-0.6-0.2c-0.1,0.1-0.1,0.2,0,0.3
			C-155.2,383.9-155,384-154.7,383.8z"/>
		<path id="XMLID_124_" class="st5" d="M-159.2,388.6L-159.2,388.6c-0.5,0.7-1,1.3-1.5,2l-0.1-0.1c0.4-0.6,0.8-1.2,1.4-1.6
			C-159.4,388.8-159.3,388.7-159.2,388.6z"/>
		<path id="XMLID_123_" class="st5" d="M-160.8,390.5l0.1,0.1c-0.1,0.2-0.3,0.3-0.4,0.5c-0.1,0.2-0.3,0.3-0.4,0.4
			c-0.5,0.6-0.9,1.3-1.6,1.8c0,0,0,0,0,0l-0.1-0.1c0.2-0.1,0.4-0.3,0.5-0.5c0.5-0.6,0.9-1.2,1.5-1.8
			C-161.1,390.8-160.9,390.6-160.8,390.5z"/>
		<path id="XMLID_120_" class="st5" d="M-177.7,373.4c0.2-0.1,0.3-0.1,0.5,0c-0.1,0.4-0.4,0.5-0.7,0.7c-0.2,0.1-0.3,0.2-0.4,0.4
			c-0.2,0.3-0.5,0.4-0.7,0.6c-0.6,0.5-1.2,1.1-1.8,1.5c-0.6,0.5-1.3,1.1-1.8,1.7c-0.4,0.4-0.8,0.7-1.2,1c-0.4,0.3-0.7,0.6-1.1,0.9
			c-0.3,0.4-0.8,0.6-1.1,1c-0.4,0.4-0.9,0.7-1.1,1.2c-0.7,0.5-1.1,1.3-1.7,1.9c-0.4,0.4-0.9,0.7-1.2,1.2c-0.2,0.3-0.4,0.4-0.7,0.6
			c-0.3,0.2-0.5,0.5-0.8,0.7c-0.3,0.3-0.6,0-0.9,0.1c0-0.2-0.2-0.2-0.2-0.4c0-0.1-0.1-0.2-0.2-0.2c-0.5,0.3,0-0.3-0.1-0.3
			c-0.3-0.1-0.3,0.3-0.5,0.2c0-0.2,0.4-0.3,0.1-0.6c-0.3-0.3-0.3,0.2-0.5,0.2c-0.1-0.1,0-0.2,0.1-0.3c0-0.1,0.1-0.2,0-0.3
			c-0.1-0.1-0.2,0-0.2,0c-0.1,0.1-0.1,0.2-0.3,0.2c0-0.1,0-0.1,0-0.2c0.1-0.1,0.4-0.2,0.1-0.4c-0.2-0.3-0.3-0.3-0.5,0
			c0,0-0.1,0.1-0.1,0.1c-0.1-0.2,0-0.2,0.1-0.3c0-0.1,0.2-0.2,0-0.3c-0.1-0.1-0.2,0-0.3,0.1c-0.1,0.1-0.2,0.3-0.4,0.3
			c0.1-0.3,0.3-0.4,0.4-0.5c-0.2-0.4-0.2-0.4-0.7,0c-0.1-0.2,0-0.3,0.1-0.4c0.1-0.1,0.2-0.1,0.1-0.3c-0.1-0.2-0.2-0.1-0.3,0
			c-0.1,0.1-0.2,0.2-0.3,0.1c0.3-0.3,0.4-0.6,0.6-1c0.1-0.1,0.2-0.2,0.3-0.2c0.2,0,0.3-0.1,0.5-0.2c0-0.1,0-0.2,0-0.3
			c0-0.1-0.1-0.1,0-0.2c0.1-0.2,1-0.1,1.1-0.2c0.1-0.1,0.2-0.2,0.1-0.3c0,0,0-0.1,0-0.1c0-0.1,0-0.2,0.1-0.2c0.1,0,0.1,0.1,0.1,0.1
			c0.1,0.1,0.1,0.2,0.2,0.2c0.1,0,0.1-0.1,0.2-0.2c0.1-0.1-0.2-0.3,0-0.4c0.2-0.1,0.2,0.2,0.4,0.2c0.2,0,0.2-0.1,0.1-0.3
			c0-0.1-0.1-0.1,0-0.2c0-0.1,0.1,0,0.2,0c0.5,0.3,0.6,0.2,0.7-0.3c0,0,0.1,0,0.1,0c0.1,0.1,0.2,0.1,0.3,0c0.1-0.1,0-0.2-0.1-0.3
			c0-0.1,0-0.1,0-0.2c0.1-0.1,0.2,0.1,0.3,0.1c0.1,0.1,0.2,0,0.3,0c0.1-0.1,0.1-0.1,0-0.2c-0.1-0.1-0.1-0.2,0-0.2
			c0.1-0.1,0.2,0,0.2,0.1c0.2,0.1,0.3,0.1,0.2-0.2c0-0.2,0.1-0.3,0.2-0.1c0.1,0.2,0.2,0,0.3,0c0.8-0.4,1.6-0.9,2.3-1.4
			c0.8-0.5,1.6-1,2.4-1.4c0.2-0.1,0.3-0.2,0.5-0.3c1.1-0.6,2.3-1.1,3.4-1.7c0.7-0.3,1.4-0.5,2-0.8
			C-178.6,373.8-178.1,373.6-177.7,373.4z M-180,375.4c0.2-0.2,0.5-0.4,0.8-0.7c-0.5,0-0.9,0.2-1.2,0.4c-1,0.5-2.1,1-3.2,1.5
			c-1,0.5-2,1-2.9,1.5c-0.2,0.1-0.4,0.3-0.7,0.5c-0.9,0.5-1.8,1-2.6,1.5c-0.8,0.4-1.5,1.1-2.3,1.4c-0.2,0.1-0.4,0.1-0.5,0.2
			c-0.4,0.4-0.9,0.7-1.3,0.9c-0.3,0.2-0.6,0.3-0.9,0.6c0.4,0.6,0.9,1.1,1.4,1.6c0.4,0.5,0.9,0.8,1.3,1.3c0.3,0.3,0.5,0.4,0.8,0.1
			c0.6-0.7,1.4-1.2,2-1.9c0.4-0.5,0.9-0.8,1.4-1.3c0.7-0.7,1.4-1.4,2.1-2c0.5-0.5,1-1,1.6-1.4c0.5-0.4,1-0.8,1.5-1.2
			C-182,377.1-181,376.3-180,375.4z"/>
		<path id="XMLID_119_" class="st5" d="M-202.1,375.2c0.2,0,0.4,0.1,0.4,0.4c0,0.1,0,0.1-0.1,0.1c0,0,0,0,0,0c0,0,0,0,0,0
			c0-0.1,0-0.1-0.1-0.2c-0.1-0.2-0.3-0.1-0.4,0c-0.1,0-0.1,0.1-0.1,0.2c0.1,0.1,0.2,0.2,0.4,0.1c0.1,0,0.1-0.1,0.2-0.1c0,0,0,0,0,0
			c0,0,0,0,0,0c0,0.6-0.4,0.7-0.9,0.4c-0.1-0.1-0.3-0.5-0.2-0.6c0.1-0.2,0.1-0.4,0.4-0.3C-202.3,375.3-202.2,375.2-202.1,375.2z"/>
		<path id="XMLID_116_" class="st5" d="M-203.2,376.3c0.1,0.2,0,0.5-0.4,0.7c-0.2,0.1-0.5,0-0.7-0.3c-0.1-0.2,0.1-0.6,0.3-0.7
			C-203.8,375.8-203.4,376-203.2,376.3z M-203.5,376.4c0.1,0,0.1-0.1,0-0.2c-0.1-0.1-0.2-0.2-0.3-0.1c-0.1,0-0.1,0.2,0,0.3
			C-203.7,376.6-203.6,376.5-203.5,376.4z"/>
		<path id="XMLID_113_" class="st5" d="M-204.7,376.9c0.2,0.2,0.1,0.4,0,0.6c-0.1,0.2-0.3,0.3-0.5,0.2c-0.2-0.1-0.4-0.2-0.5-0.4
			c0-0.2,0-0.4,0.3-0.4c0,0,0.1,0,0.2-0.1C-205,376.7-204.8,376.7-204.7,376.9z M-205,377.3c0.1-0.1,0.1-0.1,0.2-0.2
			c-0.1-0.1-0.2-0.1-0.3-0.1c-0.1,0-0.2,0.1-0.1,0.2C-205.2,377.3-205.1,377.4-205,377.3z"/>
		<path id="XMLID_110_" class="st5" d="M-232.7,395.1c0.3,0,0.6,0.2,0.6,0.4c0.1,0.2-0.1,0.4-0.1,0.6c-0.1,0-0.2,0.1-0.4,0.1
			c-0.3,0-0.5-0.2-0.6-0.5C-233.1,395.4-232.9,395.2-232.7,395.1z M-232.4,395.7c0,0,0-0.1,0-0.1c-0.1-0.1-0.2-0.2-0.3-0.1
			c-0.1,0-0.1,0.1,0,0.2C-232.6,395.6-232.5,395.7-232.4,395.7z"/>
		<polygon id="XMLID_109_" class="st5" points="-232.1,396.1 -232.2,396.1 -232.2,396.1 		"/>
		<polygon id="XMLID_108_" class="st5" points="-232.1,396.1 -232.2,396.1 -232.2,396.1 		"/>
		<path id="XMLID_105_" class="st5" d="M-234.3,396c0.2-0.1,0.7,0.2,0.8,0.4c0.1,0.2-0.1,0.6-0.4,0.7c0,0-0.1,0-0.1,0
			c-0.4,0.2-0.7,0.1-0.8-0.1C-234.9,396.7-234.7,396.1-234.3,396z M-233.9,396.4c0-0.1-0.2-0.2-0.3-0.1c-0.1,0.1-0.1,0.2-0.1,0.3
			c0,0.1,0.2,0.1,0.3,0.1C-233.9,396.6-233.9,396.5-233.9,396.4z"/>
		<path id="XMLID_102_" class="st5" d="M-235.3,396.9c0.2,0.1,0.3,0.3,0.2,0.5c0,0.1-0.3,0.4-0.4,0.5c-0.1,0-0.2,0.1-0.4,0.1
			c-0.1,0-0.2-0.1-0.2-0.1c-0.1-0.1,0-0.7,0.1-0.8C-235.8,396.9-235.5,396.8-235.3,396.9z M-235.3,397.2c0-0.1-0.3-0.2-0.5-0.1
			c-0.1,0-0.1,0.1-0.1,0.2c0.1,0.1,0.2,0.2,0.4,0.1C-235.4,397.4-235.3,397.4-235.3,397.2z"/>
		<path id="XMLID_100_" class="st5" d="M-236.3,397.9c0.1,0.1,0,0.5-0.1,0.6c-0.2,0.1-0.5,0-0.7-0.3c-0.1-0.2,0-0.3,0.1-0.4
			C-236.8,397.7-236.3,397.8-236.3,397.9z"/>
	</g>
</g>
</svg>
