<?xml version="1.0" encoding="utf-8"?>
<!-- Generator: Adobe Illustrator 19.0.0, SVG Export Plug-In . SVG Version: 6.00 Build 0)  -->
<svg version="1.1" id="Layer_1" xmlns="http://www.w3.org/2000/svg" xmlns:xlink="http://www.w3.org/1999/xlink" x="0px" y="0px"
	 viewBox="0 0 37.7 114.7" style="enable-background:new 0 0 37.7 114.7;" xml:space="preserve">
<style type="text/css">
	.st0{fill:#F0504E;}
	.st1{fill-rule:evenodd;clip-rule:evenodd;fill:#414042;}
</style>
<g id="XMLID_66_">
	<g id="XMLID_115_">
		<path id="XMLID_121_" class="st0" d="M37,42.3V14.8L15.5,41.3C28.1,37,37,42.3,37,42.3z"/>
		<path id="XMLID_120_" class="st0" d="M32.9,103.9L32.5,87c-4.1,4.9-8.5,0.2-8.5,0.2C30.1,96.6,32.9,103.9,32.9,103.9z"/>
		<path id="XMLID_119_" class="st0" d="M32.5,258l0.3,22.4c-2.9-8.3-9.6-7.4-9.6-7.4C29.9,267.9,32.5,258,32.5,258z"/>
		<path id="XMLID_118_" class="st0" d="M32.6,382.1l0.2-22.4c-2.6,7.3-8.8,7.2-8.8,7.2C30.3,374.7,32.6,382.1,32.6,382.1z"/>
		<path id="XMLID_117_" class="st0" d="M32.5,581.1l0.4,5.4l-0.2,11.9c-5.3-4-8.7-0.9-8.7-0.9C30.1,592.3,32.5,581.1,32.5,581.1z"/>
		<path id="XMLID_116_" class="st0" d="M36.9,642.9v27.2l-21.5-26C31.5,651.6,36.9,642.9,36.9,642.9z"/>
	</g>
	<g id="XMLID_67_">
		<g id="XMLID_96_">
			<g id="XMLID_106_">
				<path id="XMLID_114_" class="st1" d="M30.1,639.1c6.4-3.6,7.6-9.1,7.6-16.1c0-7.1-0.6-14.2-0.1-21.3c0.1-1.5,0-3,0.1-4.5
					c0.2-4.4,0-8.8,0.2-13.2c0.1-1.5,0.1-3.1,0-4.6c-0.1-3.5,0.2-7,0.1-10.4c-0.1-1.5,0-7.9,0-9.4c0-1.9-0.2-8.7-0.3-10.6
					c-0.1-1.9,0-47.9,0-49.9c0-2-0.3-4-0.2-5.9c0.2-2,0.2-3.9,0.2-5.9c0-2,0.1-4.1,0.1-6c0-4-0.1-25.9-0.1-29.9
					c0-1.9,0.2-3.9,0.1-5.8c-0.1-2,0-4-0.1-6c-0.1-2.2-0.1-37.4-0.2-39.6c-0.1-4.7-0.2-9.5,0-14.2c0.1-2.3-0.1-4.2,0-6.5
					c0-0.2,0-0.6,0-0.9c0.1-1.5,0.2-3.7,0.1-4.8c-0.1-1.5,0-3.3,0-4.8c0-1.9,0.1-3.9,0-5.7c-0.1-1.9,0-3.9,0-5.9c0-2-0.3-4-0.2-5.9
					c0.2-2,0.2-3.9,0.2-5.9c0-2,0.1-4.1,0.1-6c0-4-0.1-7.9-0.1-11.9c0-1.9,0.2-3.9,0.1-5.8c0-0.6,0-1.3,0-1.9c0-0.6-0.5-1-1-1
					c-0.6,0-1,0.5-1,1.1c0,3-0.1,6.3,0.1,9.2c0,1.1-0.1,2.1-0.2,3.1c-0.1,1.8,0,3.7,0,5.6c0,1.9-0.1,3.8-0.1,5.7c0,2,0.1,4.1,0,6.1
					c-0.4,7.3,0.4,14.9,0,22c-0.2,3.5,0,7.1,0,10.6c0,1-0.2,2.1-0.1,3.2c0.2,4.4-0.1,9,0.2,12.8c0.2,2.1,0.1,37.1,0,39.2
					c0,2.2,0.1,4.3,0.1,6.3c0,3.1-0.1,6.4,0.1,9.3c0,1.1-0.1,2.1-0.2,3.1c-0.1,1.8,0,3.7,0,5.6c0,1.9-0.1,21.8-0.1,23.7
					c0,2,0.1,4.1,0,6.1c-0.4,7.3,0.4,68.6,0,75.7c-0.1,1.3,0.2,2.5,0.2,3.5c0,2.2-0.2,4.5-0.2,6.8c0,2.3,0.1,4.5,0.1,6.9
					c0,2.2-0.2,4.4-0.3,6.7c-0.2,2.8-0.1,5.6-0.3,8.5c-0.1,1.4,0,2.9,0,4.3c0,2.7,0.1,5.4,0.3,8.1c0.1,1.4,0,2.7,0,4.1
					c0,5.8,0.3,11.5-1.4,15.8c-0.7,1.7-3.4,4.3-4.9,5.2c-1.3,0.7-2.5,1.2-4.4,1.2c-1.7,0-2.9,0.1-4.6-0.5c-2.5-0.8-4.6-3.3-5.1-5.9
					c-0.2-0.9-0.2-2-0.1-3.1c0.2-1.7,0.8-3.7,1.8-4.7c1.2-1.1,5.3-2.9,6.9-1.1c0.3,0.4,0.9,1.9,0.8,2.6c-0.2,1.3-2.4,1.4-2.5,2.9
					c-0.2,2.4,2.8,2.3,4.3,1.5c0.9-0.5,1.5-1.6,1.7-2.4c0.4-1.6-0.2-2.9-0.6-3.9c-0.6-1.2-1.2-1.8-2.2-2.6c-1-0.7-1.8-1-0.7-1.9
					c1.8-1.4,3.1-3.4,4.3-5.2c1.4-2.1,2.7-5.1,2.6-8.3c-0.1-2.2-1-4.3-2.9-5.2c-1.7-0.8-4.2,0.2-5,1.3c-0.6,0.9-1.3,3.2-0.6,4.4
					c0.3,0.5,1.7,1.3,2.7,0.7c0.4-0.3,0.6-1,0.7-1.5c0.1-0.5,0.1-1.4,0.7-1.5c1-0.2,1.7,1.5,1.8,2.4c0.2,1.9-0.3,4.2-0.9,5.6
					c-0.6,1.5-1.9,3.3-3.1,4.4c-2.1,2.2-5,2.8-7.6,4.4c-2.2,1.4-4.2,3.3-4.7,6.5c-0.1,0.5-0.1,1.6-0.1,2.3c-0.1,1.3-0.1,1.9,0.3,3.1
					c0.2,0.5,0.4,1.1,0.5,1.5c0.8,1.6,2.5,3.6,4,4.5c1.3,0.8,2.7,1.5,4.3,1.7C24.8,640.9,27.9,640.3,30.1,639.1z"/>
				<path id="XMLID_107_" class="st1" d="M33,598.8c0.3-1.3,0.2-3.1,0.2-4.2c0-1.8,0.2-4.1,0.2-5.6c0-1.1-0.1-2.3,0-3.4
					c0.1-1.4,0.1-2.8,0.1-4.2c0-1.4-0.1-2.7,0-4.1c0.1-3,0.2-5.5,0-8.9c-0.1-1.2,0-8.3,0-9.5c0-1.2,0.2-7.3,0.2-8.5
					c0-2.3,0-48.8-0.1-50.9c0-3.4,0.2-6.9,0.3-10.4c0-1.7-0.1-3.4-0.1-5.2c-0.1-4.8,0-28.1,0.3-33c0.1-1.7,0-3.4,0-5.1
					c0-1.6,0.2-3.2,0.2-4.8c0-0.8-0.2-1.7-0.2-2.6c0-2.6-0.2-38.1-0.2-40.8c0-1.8-0.2-3.5-0.1-5.3c0-0.9,0.1-1.7,0.1-2.5
					c0-0.8-0.1-1.7-0.2-2.5c-0.1-1.8,0.1-4.1,0.1-6.6c0-0.9-0.1-1.7-0.1-3c0-0.9,0-1.8-0.1-2.7c0.1-2.3,0-4.6,0-6.9
					c0-1.2,0.2-2.4,0.2-3.6c0-2.3,0-4.8-0.1-6.9c0-3.4,0.2-6.9,0.3-10.4c0-1.7-0.1-3.4-0.1-5.2c-0.1-4.8,0-10.1,0.3-15
					c0.1-1.7,0-3.4,0-5.1c0-0.8,0-1.6,0-2.4c0-0.4-0.2-0.8-0.6-0.8c-0.4,0-0.8,0.3-0.8,0.7c0,0.9,0,1.9,0,2.9
					c0,4.7-0.1,9.5-0.2,14.4c0,1.6-0.2,3.2-0.2,4.7c0,1.1,0.3,2.3,0.3,3.4c0,2.1-0.3,4.2-0.2,6.3c0.1,2.3-0.1,4.5-0.1,6.9
					c0,1.1,0.1,2.3,0.1,3.4c0,2.8-0.4,8.8-0.2,11.8c0,0.8,0.1,1.7,0,2.5c0,1.1,0,3.7,0,4c0,0.6,0.1,1.2,0.1,1.9
					c0.1,1.8-0.2,3.9,0,5.7c0,0.7,0.2,1.3,0.2,2c0,3.5-0.1,7.1,0,10.6c0.1,3.4,0.3,39.9,0.2,43.3c0,0.9,0,2,0,2.9
					c0,4.7-0.1,9.5-0.2,14.4c0,1.6-0.2,21.2-0.2,22.7c0,1.1,0.3,2.3,0.3,3.4c0,2.1-0.3,4.2-0.2,6.3c0.1,2.3-0.1,4.5-0.1,6.9
					c0,1.1,0.1,2.3,0.1,3.4c0,2.8-0.4,54.7-0.2,57.8c0.4,5,0.2,14.4-0.6,19.3c-0.4,2.1-0.8,3.8-1.6,5.8c-1.4,3.4-2.9,6.8-5,9.5
					c-0.4,0.5-0.9,0.7-1.3,1.3c-0.3,0.4-1.1,1.3-0.9,1.6c0.3,0.4,1-0.1,1.4-0.4c0.6-0.4,0.9-0.6,1.3-0.7c1.8-0.7,4.4-0.6,5.6,0.3
					C31.5,598.4,32.5,601,33,598.8z M32.3,583.8c0.2,0.4,0.1,2.3-0.3,2.6C30.3,587.3,31.8,582.9,32.3,583.8z M30.1,588.8
					c-0.5-0.8,1.6-2.3,2.1-0.9c0.1,0.4,0.1,0.8-0.1,1C31.7,589.2,30.3,589.1,30.1,588.8z M28.9,591.6c-0.2-0.3,0.2-1.2,0.6-1.5
					c0.8-0.5,2.5-0.3,2.7,0.3c0.5,1.2-0.6,1.2-1.7,1.3C29.8,591.8,29.1,591.9,28.9,591.6z M26.4,595.8c-0.3-0.5,0.6-0.9,0.8-1.1
					c0.2-0.3,0.2-0.8,0.4-1.1c0.5-0.8,0.7-0.7,1.9-0.8c1.3-0.1,2.3-0.3,2.6,0.4c0.1,0.2,0,1-0.3,1.2c-0.2,0.1-0.6,0-0.9,0
					c-1.1,0-3.3,0.1-3.6,0.5c-0.2,0.4,0.2,0.8,0,1C27.1,596.1,26.5,595.9,26.4,595.8z M30.8,596.6c-0.6-0.3-1.4-0.5-2.1-0.7
					c-0.3-0.1-0.4-0.5-0.1-0.5c1-0.3,3-0.1,3.3,0.2c0.2,0.3,0.3,1.2,0,1.4C31.5,597.2,31.1,596.7,30.8,596.6z"/>
			</g>
			<g id="XMLID_97_">
				<path id="XMLID_105_" class="st1" d="M30.1,46.4c6.4,3.5,7.6,9.1,7.6,16.1c0,7.1-0.6,14.2-0.1,21.3c0.1,1.5,0,3,0.1,4.5
					c0.2,4.4,0,8.8,0.2,13.2c0.1,1.5,0.1,3.1,0,4.6c-0.1,3.5,0.2,7,0.1,10.4c-0.1,1.5,0,7,0,8.5c0,1.9-0.2,0.8-0.3,2.7
					c-0.1,1.9,0,27.9,0,29.9c0,2-0.3,20.9-0.2,22.8c0.2,2,0.2,3.9,0.2,5.9c0,2,0.1,8.9,0.1,10.9c0,4-0.1,7.9-0.1,11.9
					c0,1.9,0.2,11.2,0.1,13.1c-0.1,2,0,4-0.1,6c-0.1,2.2-0.1,9.4-0.2,11.6c-0.1,4.7-0.2,9.5,0,14.2c0.1,2.3-0.1,4.2,0,6.5
					c0,0.2,0,0.6,0,0.9c0.1,1.5,0.2,3.7,0.1,4.8c-0.1,1.5,0,3.3,0,4.8c0,1.9,0.1,3.9,0,5.8c-0.1,1.9,0,3.9,0,5.9c0,2-0.3,4-0.2,5.9
					c0.2,2,0.2,3.9,0.2,5.9c0,2,0.1,4.1,0.1,6c0,4-0.1,7.9-0.1,11.9c0,1.9,0.2,3.9,0.1,5.8c0,0.6,0,1.3,0,1.9c0,0.5-0.5,1-1,1
					c-0.6,0-1-0.5-1-1.1c0-3-0.1-6.3,0.1-9.2c0-1.1-0.1-2.1-0.2-3.1c-0.1-1.8,0-3.7,0-5.6c0-1.9-0.1-3.8-0.1-5.7c0-2,0.1-4.1,0-6.1
					c-0.4-7.3,0.4-14.9,0-22c-0.2-3.5,0-7.1,0-10.6c0-1-0.2-2.1-0.1-3.2c0.2-4.4-0.1-9,0.2-12.8c0.2-2.1,0.1-9.1,0-11.2
					c0-2.2,0.1-4.3,0.1-6.3c0-3.1-0.1-13.6,0.1-16.6c0-1.1-0.1-2.1-0.2-3.1c-0.1-1.8,0-3.7,0-5.6c0-1.9-0.1-8.7-0.1-10.6
					c0-2,0.1-1.1,0-3.1c-0.4-7.3,0.4-59.7,0-66.8c-0.1-1.3,0.2-2.5,0.2-3.5c0-2.2-0.2-4.5-0.2-6.8c0-2.3,0.1-4.5,0.1-6.9
					c0-2.2-0.2-4.4-0.3-6.7c-0.2-2.8-0.1-5.6-0.3-8.5c-0.1-1.4,0-2.9,0-4.3c0-2.7,0.1-5.4,0.3-8.1c0.1-1.4,0-2.7,0-4.1
					c0-5.8,0.3-11.5-1.4-15.8c-0.7-1.7-3.4-4.3-4.9-5.2c-1.3-0.7-2.5-1.2-4.4-1.2c-1.7,0-2.9-0.1-4.6,0.5c-2.5,0.8-4.6,3.3-5.1,5.9
					c-0.2,0.9-0.2,2-0.1,3.1c0.2,1.7,0.8,3.7,1.8,4.7c1.2,1.1,5.3,2.9,6.9,1.1c0.3-0.4,0.9-1.9,0.8-2.6c-0.2-1.3-2.4-1.4-2.5-2.9
					c-0.2-2.4,2.8-2.3,4.3-1.5c0.9,0.5,1.5,1.6,1.7,2.4c0.4,1.6-0.2,2.9-0.6,3.9c-0.6,1.2-1.2,1.8-2.2,2.6c-1,0.7-1.8,1-0.7,1.9
					c1.8,1.4,3.1,3.4,4.3,5.2c1.4,2.1,2.7,5.1,2.6,8.3c-0.1,2.3-1,4.3-2.9,5.2c-1.7,0.8-4.2-0.2-5-1.3c-0.6-0.9-1.3-3.2-0.6-4.4
					c0.3-0.5,1.7-1.3,2.7-0.7c0.4,0.3,0.6,1,0.7,1.5c0.1,0.5,0.1,1.4,0.7,1.5c1,0.2,1.7-1.5,1.8-2.4c0.2-1.9-0.3-4.2-0.9-5.6
					c-0.6-1.5-1.9-3.3-3.1-4.4c-2.1-2.2-5-2.8-7.6-4.4c-2.2-1.4-4.2-3.3-4.7-6.5c-0.1-0.5-0.1-1.6-0.1-2.3c-0.1-1.3-0.1-1.9,0.3-3.1
					c0.2-0.5,0.4-1.1,0.5-1.5c0.8-1.5,2.5-3.6,4-4.5c1.3-0.8,2.7-1.5,4.3-1.7C24.8,44.6,27.9,45.1,30.1,46.4z"/>
				<path id="XMLID_98_" class="st1" d="M30.9,87.6c-1.2,0.9-3.8,1.1-5.6,0.3c-0.4-0.2-0.8-0.4-1.3-0.7c-0.4-0.3-1.1-0.8-1.4-0.4
					c-0.3,0.3,0.5,1.2,0.9,1.6c0.5,0.6,1,0.8,1.3,1.3c2.1,2.7,3.6,6,5,9.5c0.8,2,1.3,3.7,1.6,5.8c0.9,4.9,1,9.5,0.6,14.4
					c-0.2,3,0.2,7.1,0.2,9.9c0,1.1,0,2.3-0.1,3.4c-0.1,2.3,0.2,45.4,0.1,47.7c-0.1,2.1,0.2,4.2,0.2,6.3c0,1.1-0.3,7.1-0.3,8.3
					c0,1.5,0.1,3.1,0.2,4.7c0,4.9,0.2,17,0.2,21.7c0,0.9,0,1.9,0,2.9c0.2,3.5,0,11.9-0.2,15.3c-0.1,3.5,0,7.1,0,10.6
					c0,0.7-0.2,1.4-0.2,2c-0.1,1.9,0.1,3.9,0,5.7c0,0.6-0.1,1.3-0.1,1.9c0,0.3,0,2.9,0,4c0,0.8,0,1.7,0,2.5c-0.2,3,0.2,9,0.2,11.8
					c0,1.1,0,2.3-0.1,3.4c-0.1,2.3,0.2,4.6,0.1,6.9c-0.1,2.1,0.2,4.2,0.2,6.3c0,1.1-0.3,2.3-0.3,3.4c0,1.5,0.1,3.1,0.2,4.7
					c0,4.9,0.2,9.7,0.2,14.4c0,0.9,0,2,0,2.9c0,0.4,0.4,0.7,0.8,0.7c0.4,0,0.7-0.1,0.7-0.6c0-0.9,0-1.8,0-2.6c0-1.7,0.1-3.4,0-5.1
					c-0.3-5-0.4-10.3-0.3-15c0.1-1.7,0.1-3.5,0.1-5.2c0-3.5-0.3-7-0.3-10.4c0-2.1,0.1-4.6,0.1-6.9c0-1.2-0.2-2.4-0.2-3.6
					c0-2.3,0.1-4.6,0-6.9c0-0.9,0.1-1.8,0.1-2.7c0-1.3,0.1-2.1,0.1-3c0.1-2.5-0.1-4.7-0.1-6.6c0-0.9,0.2-1.7,0.2-2.5
					c0-0.8,0-1.7-0.1-2.5c-0.1-1.8,0.1-3.5,0.1-5.3c0-2.7,0.2-10.2,0.2-12.8c0-0.9,0.2-1.7,0.2-2.6c0-1.6-0.1-3.2-0.2-4.8
					c0-1.7,0.1-3.4,0-5.1c-0.3-5-0.4-17.5-0.3-22.3c0.1-1.7,0.1-8.3,0.1-10c0-3.5-0.3-23.8-0.3-27.2c0-2.1,0.1-28.6,0.1-30.9
					c0-1.2-0.2,0.6-0.2-0.6c0-1.2-0.1-7.5,0-8.7c0.2-3.3,0.1-5.8,0-8.9c0-1.3,0-2.7,0-4.1c0-1.4,0-2.8-0.1-4.2c-0.1-1.1,0-2.2,0-3.4
					c0-1.4-0.2-3.8-0.2-5.6c0-1.1,0.1-3-0.2-4.2C32.5,84.5,31.5,87.1,30.9,87.6z M32,99.1c0.4,0.2,0.5,2.2,0.3,2.6
					C31.8,102.6,30.3,98.2,32,99.1z M32.1,96.6c0.2,0.2,0.3,0.6,0.1,1c-0.5,1.4-2.6-0.2-2.1-0.9C30.3,96.4,31.7,96.3,32.1,96.6z
					 M30.5,93.8c1.1,0.1,2.1,0.1,1.7,1.3c-0.2,0.6-1.9,0.9-2.7,0.3c-0.4-0.3-0.8-1.2-0.6-1.5C29.1,93.6,29.8,93.7,30.5,93.8z
					 M27.3,89.7c0.1,0.2-0.2,0.6,0,1c0.2,0.4,2.4,0.5,3.6,0.5c0.4,0,0.7-0.1,0.9,0c0.3,0.2,0.4,1,0.3,1.2c-0.2,0.7-1.3,0.5-2.6,0.4
					c-1.2-0.1-1.5,0-1.9-0.8c-0.2-0.3-0.2-0.9-0.4-1.1c-0.2-0.3-1.1-0.7-0.8-1.1C26.5,89.5,27.1,89.4,27.3,89.7z M31.9,88.4
					c0.3,0.2,0.2,1.2,0,1.4c-0.3,0.3-2.3,0.5-3.3,0.2c-0.3-0.1-0.1-0.5,0.1-0.5c0.7-0.2,1.5-0.4,2.1-0.7
					C31.1,88.7,31.5,88.2,31.9,88.4z"/>
			</g>
		</g>
		<g id="XMLID_76_">
			<path id="XMLID_88_" class="st1" d="M35.7,642.1c-0.7,0.5-1.5,1.1-2.2,1.5c-0.6,0.3-1.4,0.5-2.3,0.8c-0.7,0.3-1.6,0.4-2.5,0.6
				c-4.9,0.8-9.7-0.2-12.9-1.9c-0.4-0.2-0.6-0.4-1.1-0.4c-0.6,0-0.9,0.2-1,0.6c-0.1,0.6,1,1.3,1.4,1.7c0.5,0.5,1,1.3,1.4,1.7
				c2.1,2.4,3.9,4.6,5.8,6.8c1,1.1,2,2.2,3,3.3c2,2.2,3.6,4.8,5.7,6.9c0.5,0.5,0.9,1.1,1.5,1.8c0.4,0.4,1.1,1.2,1.7,2.4
				c1,2,1.9,4.8,1.9,7.4c0,1.5-0.5,4-2,5.5c-0.7,0.7-2.4,1.5-3.1,0.8c-0.5-0.4,0-1.1,0.2-1.6c0.2-0.4,0.4-1.2,0.2-1.6
				c-0.5-1.1-2.1-1.2-2.6-0.9c-1.2,0.6-1.9,2.9-1.9,4.1c0,1.3,1.6,3.5,3.5,3.8c2,0.2,4.4-0.7,5.7-2.6c1.8-2.6,1.9-5.7,1.9-8.1
				c0-2.2,0.2-5,0-7.3c-0.2-3.5-0.1-6.6-0.2-10.5c-0.1-4.7,0.1-9.4,0-13.8c0-0.8,0.2-1.9,0-2.2C37.5,640.2,36.3,641.6,35.7,642.1z
				 M36.2,666c0.1,0.2,0.2,1.1-0.2,1.2c-0.4,0.2-1-0.8-1.3-1.1c-0.4-0.5-0.6-0.9-0.9-1.3c-0.3-0.4-0.8-0.7-1.2-1.1
				c-0.4-0.4-0.7-0.8-1.1-1.2c-2.2-2.3-3.9-4.9-6.2-7.4c-1.5-1.6-2.8-3.1-4.2-4.9c-1.1-1.4-2-2.5-3.1-3.7c-0.1-0.1-1.1-0.9-0.8-1.3
				c0.3-0.3,1.1,0.2,1.5,0.3c0.4,0.1,1.2,0.3,1.3,0.5c0.2,0.2,0.3,0.9,0.3,1c0.1,0.3,0.4,0.5,0.7,0.8c0.6,0.7,1.4,1.7,2,2.4
				c0.9,1,1.8,2.2,2.7,3.3c0.5,0.6,1.1,0.9,1.5,1.5c0.4,0.5,0.6,1,1,1.4c0.4,0.4,0.8,0.8,1.1,1.2c0.6,0.7,1,1.5,1.6,2.2
				c0.9,1.1,1.5,2.1,2.6,3.1c0.3,0.3,0.6,0.7,0.9,1C35,664.5,36,665.1,36.2,666z M36,663.5c-0.5,0.2-1-0.9-1.3-1.2
				c-0.4-0.4-0.9-0.7-1.1-1c-0.5-0.6-0.9-1.3-1.4-1.9c-0.9-1.3-2-2.4-3-3.7c-0.5-0.6-0.9-1.3-1.4-1.9c-0.5-0.6-1.1-1-1.5-1.6
				c-1.1-1.4-2.4-2.8-3.6-4.2c-0.2-0.2-0.6-0.7-0.5-0.9c0.2-0.4,1.3-0.1,1.6,0.1c0.6,0.3,1,1.2,1.6,1.9c0.6,0.7,1.3,1.3,1.7,1.8
				c1,1.4,1.9,2.5,3.1,3.8c0.6,0.6,1.2,1.2,1.7,1.8c0.5,0.7,0.9,1.4,1.5,2c1,1.2,2.7,2.4,3,4.1C36.2,663,36.3,663.4,36,663.5z
				 M35,657c0.5,0.6,1,1.2,1.1,1.8c0.2,1.8-1.3-0.1-1.6-0.4c-1-1.1-1.6-2-2.4-2.9c-0.4-0.5-0.8-0.9-1.3-1.3c-1-1.1-1.5-2.2-2.5-3.2
				c-0.6-0.6-1.3-1.4-1.9-2.3c-0.2-0.2-0.6-0.7-0.5-0.9c0.1-0.2,0.8-0.3,1.1-0.2c0.6,0.1,2,2,2.4,2.5c0.6,0.7,1.3,1.9,2.1,2.8
				c0.4,0.5,1,0.9,1.3,1.3C33.6,655,34.2,655.9,35,657z M36.1,655c0.1,0.4,0.2,1.1-0.1,1.2c-0.4,0.2-1.2-1.1-1.3-1.3
				c-0.4-0.5-0.7-1.2-1.1-1.5c-0.3-0.4-0.9-0.8-1.4-1.3c-0.9-1.1-1.4-1.9-2.4-3.1c-0.4-0.5-1.9-2.3-0.1-2c0.4,0.1,1.3,1.2,1.7,1.6
				c0.9,1.1,2.1,2.5,3,3.6C34.9,653,35.9,653.8,36.1,655z M36.3,650.2c0.1,0.4,0.3,1.9-0.3,2c-0.4,0.1-0.8-0.7-0.9-0.8
				c-0.4-0.5-0.6-0.7-0.8-0.9c-0.6-0.6-1.1-1.4-1.5-1.9c-0.3-0.4-1.5-1.3-1.3-1.9c0.1-0.3,1-0.6,1.5-0.5c0.6,0.1,1.2,1,1.7,1.6
				C35.2,648.6,36,649.1,36.3,650.2z M35.9,644.7c0.4,0.2,0.4,1,0.3,2c0,0.6-0.1,1.1-0.8,0.5c-0.2-0.2-1.1-1.3-1.1-1.6
				C34.4,645.4,35.4,644.5,35.9,644.7z"/>
			<path id="XMLID_77_" class="st1" d="M37.8,44.6c0.2-0.3,0-1.4,0-2.2c0-4.4-0.1-9.1,0-13.8c0-3.9-0.1-7,0.2-10.5
				c0.2-2.3,0-5.1,0-7.3c0-2.5-0.1-5.6-1.9-8.1c-1.3-1.8-3.7-2.8-5.7-2.6c-1.9,0.2-3.4,2.5-3.5,3.8c0,1.1,0.6,3.4,1.9,4.1
				C29.3,8.2,30.9,8,31.4,7c0.2-0.5,0-1.2-0.2-1.6C31,4.8,30.5,4.1,31,3.7c0.7-0.7,2.5,0.2,3.1,0.8c1.5,1.5,1.9,3.9,2,5.5
				c0,2.6-0.9,5.4-1.9,7.4c-0.6,1.3-1.3,2-1.7,2.4c-0.6,0.8-1,1.3-1.5,1.8c-2.1,2.2-3.8,4.7-5.7,6.9c-1,1.2-2,2.2-3,3.3
				c-1.9,2.2-3.7,4.4-5.8,6.8c-0.4,0.5-0.9,1.2-1.4,1.7c-0.4,0.5-1.5,1.2-1.4,1.7c0.1,0.4,0.4,0.6,1,0.6c0.6,0,0.7-0.2,1.1-0.4
				c3.2-1.7,8-2.7,12.9-1.9c0.9,0.2,1.7,0.3,2.5,0.6c0.8,0.3,1.6,0.5,2.3,0.8c0.8,0.4,1.6,1,2.2,1.5C36.3,43.8,37.5,45.2,37.8,44.6z
				 M34.4,21.6c-0.3,0.3-0.5,0.7-0.9,1c-1,1-1.7,1.9-2.6,3.1c-0.5,0.7-1,1.5-1.6,2.2c-0.3,0.4-0.8,0.8-1.1,1.2
				c-0.4,0.4-0.6,0.9-1,1.4c-0.5,0.6-1.1,0.9-1.5,1.5c-0.8,1-1.8,2.2-2.7,3.3c-0.7,0.7-1.4,1.7-2,2.4c-0.3,0.3-0.6,0.5-0.7,0.8
				c-0.1,0.2-0.2,0.8-0.3,1c-0.2,0.2-0.9,0.3-1.3,0.5c-0.3,0.1-1.2,0.6-1.5,0.3c-0.3-0.3,0.7-1.2,0.8-1.3c1.1-1.2,2-2.4,3.1-3.7
				c1.5-1.8,2.8-3.3,4.2-4.9c2.3-2.5,4-5.1,6.2-7.4c0.4-0.4,0.7-0.8,1.1-1.2c0.4-0.4,0.9-0.7,1.2-1.1c0.3-0.4,0.5-0.8,0.9-1.3
				c0.2-0.3,0.8-1.2,1.3-1.1c0.4,0.1,0.2,1,0.2,1.2C36,20.3,35,20.9,34.4,21.6z M36.2,22.9c-0.3,1.8-1.9,2.9-3,4.1
				c-0.5,0.6-0.9,1.3-1.5,2c-0.5,0.6-1.1,1.2-1.7,1.8c-1.2,1.3-2.1,2.4-3.1,3.8c-0.4,0.5-1.1,1.1-1.7,1.8c-0.6,0.7-1.1,1.6-1.6,1.9
				c-0.3,0.2-1.4,0.5-1.6,0.1c-0.1-0.2,0.3-0.8,0.5-0.9c1.3-1.4,2.5-2.8,3.6-4.2c0.5-0.6,1.1-1,1.5-1.6c0.5-0.6,0.9-1.3,1.4-1.9
				c1-1.3,2.1-2.4,3-3.7c0.5-0.7,0.9-1.4,1.4-1.9c0.3-0.3,0.8-0.6,1.1-1c0.3-0.3,0.7-1.4,1.3-1.2C36.3,22.1,36.2,22.5,36.2,22.9z
				 M32.8,31.4c-0.4,0.4-0.9,0.7-1.3,1.3c-0.7,0.9-1.5,2.1-2.1,2.8C28.9,36,27.6,37.9,27,38c-0.3,0.1-1,0-1.1-0.2
				c-0.1-0.3,0.3-0.7,0.5-0.9c0.7-0.9,1.4-1.6,1.9-2.3c1-1,1.5-2.1,2.5-3.2c0.4-0.5,0.8-0.8,1.3-1.3c0.8-1,1.4-1.8,2.4-2.9
				c0.3-0.3,1.8-2.2,1.6-0.4c-0.1,0.6-0.6,1.2-1.1,1.8C34.2,29.6,33.6,30.5,32.8,31.4z M34.3,33.3c-0.8,1.1-2.1,2.5-3,3.6
				c-0.4,0.4-1.3,1.5-1.7,1.6c-1.8,0.3-0.2-1.5,0.1-2c0.9-1.2,1.5-2,2.4-3.1c0.5-0.6,1.1-1,1.4-1.3c0.3-0.4,0.7-1,1.1-1.5
				c0.2-0.2,1-1.4,1.3-1.3c0.3,0.1,0.2,0.8,0.1,1.2C35.9,31.7,34.9,32.5,34.3,33.3z M34.5,37.7c-0.5,0.6-1.1,1.5-1.7,1.6
				c-0.5,0.1-1.4-0.2-1.5-0.5c-0.2-0.6,1-1.5,1.3-1.9c0.4-0.5,1-1.3,1.5-1.9c0.2-0.2,0.4-0.5,0.8-0.9c0.1-0.1,0.5-0.9,0.9-0.8
				c0.5,0.1,0.3,1.6,0.3,2C36,36.4,35.2,36.9,34.5,37.7z M34.4,39.9c0-0.3,0.9-1.4,1.1-1.6c0.7-0.6,0.8-0.1,0.8,0.5c0,1,0,1.8-0.3,2
				C35.4,40.9,34.4,40.1,34.4,39.9z"/>
		</g>
		<g id="XMLID_71_">
			<g id="XMLID_73_">
				<path id="XMLID_75_" class="st1" d="M24.9,277.9c1.9,0.9,2.8,2.9,2.9,5.2c0.1,3.1-1.3,6.2-2.6,8.3c-1.2,1.8-2.5,3.8-4.3,5.2
					c-1.1,0.8-0.3,1.1,0.7,1.9c1,0.8,1.7,1.4,2.2,2.6c0.5,1,1,2.3,0.6,3.9c-0.2,0.8-0.7,1.8-1.7,2.4c-1.5,0.9-4.5,0.9-4.3-1.5
					c0.1-1.5,2.2-1.5,2.5-2.9c0.1-0.7-0.4-2.2-0.8-2.6c-1.6-1.7-5.7,0-6.9,1.1c-1,1-1.6,3-1.8,4.7c-0.1,1.1-0.1,2.1,0.1,3.1
					c0.4,2.6,2.5,5.1,5.1,5.9c1.7,0.6,2.9,0.5,4.6,0.5c1.8,0,3.3-0.3,4.7-0.9c2.1-0.9,3.6-2.1,4.8-4.2c0.8-1.3,1.6-3.1,1.5-5.5
					c0-0.9,1.1-0.9,1.2,0.2c0.2,2.7-0.7,5-1.4,6.3c-1.2,2.2-3.2,3.9-5.4,5.2c-2.2,1.2-5.3,1.7-8.6,1.3c-1.6-0.2-3-0.9-4.3-1.7
					c-1.5-0.9-3.2-3-4-4.5c-0.2-0.4-0.4-1-0.5-1.5c-0.4-1.2-0.4-1.8-0.3-3.1c0-0.7,0.1-1.8,0.1-2.3c0.5-3.2,2.4-5.1,4.7-6.5
					c2.6-1.6,5.4-2.2,7.6-4.4c1.1-1.2,2.5-2.9,3.1-4.4c0.6-1.4,1.1-3.7,0.9-5.6c-0.1-0.9-0.8-2.6-1.8-2.4c-0.6,0.1-0.6,0.9-0.7,1.5
					c-0.1,0.5-0.3,1.2-0.7,1.5c-1,0.6-2.4-0.1-2.7-0.7c-0.7-1.2,0-3.5,0.6-4.4C20.7,278.1,23.2,277.1,24.9,277.9z"/>
				<path id="XMLID_74_" class="st1" d="M24.9,361.9c1.9-0.9,2.8-2.9,2.9-5.2c0.1-3.1-1.3-6.2-2.6-8.3c-1.2-1.8-2.5-3.8-4.3-5.2
					c-1.1-0.8-0.3-1.1,0.7-1.9c1-0.8,1.7-1.4,2.2-2.6c0.5-1,1-2.3,0.6-3.9c-0.2-0.8-0.7-1.8-1.7-2.4c-1.5-0.9-4.5-0.9-4.3,1.5
					c0.1,1.5,2.2,1.5,2.5,2.9c0.1,0.7-0.4,2.2-0.8,2.6c-1.6,1.7-5.7,0-6.9-1.1c-1-1-1.6-3-1.8-4.7c-0.1-1.1-0.1-2.1,0.1-3.1
					c0.4-2.6,2.5-5.1,5.1-5.9c1.7-0.6,2.9-0.5,4.6-0.5c1.8,0,3.3,0.3,4.7,0.9c2.1,0.9,3.6,2.1,4.8,4.2c0.8,1.3,1.6,3.1,1.5,5.5
					c0,0.9,1.1,0.9,1.2-0.2c0.2-2.7-0.7-5-1.4-6.3c-1.2-2.2-3.2-3.9-5.4-5.2c-2.2-1.2-5.3-1.7-8.6-1.3c-1.6,0.2-3,0.9-4.3,1.7
					c-1.5,0.9-3.2,3-4,4.5c-0.2,0.4-0.4,1-0.5,1.5c-0.4,1.2-0.4,1.8-0.3,3.1c0,0.7,0.1,1.8,0.1,2.3c0.5,3.2,2.4,5.1,4.7,6.5
					c2.6,1.6,5.4,2.2,7.6,4.4c1.1,1.2,2.5,2.9,3.1,4.4c0.6,1.4,1.1,3.7,0.9,5.6c-0.1,0.9-0.8,2.6-1.8,2.4c-0.6-0.1-0.6-0.9-0.7-1.5
					c-0.1-0.5-0.3-1.2-0.7-1.5c-1-0.6-2.4,0.1-2.7,0.7c-0.7,1.2,0,3.5,0.6,4.4C20.7,361.6,23.2,362.7,24.9,361.9z"/>
			</g>
			<path id="XMLID_72_" class="st1" d="M11.2,321c0.5-0.1,0.9-0.3,1.3-0.5c0.3-0.1,1.8-0.8,0.7-1.2c-3.3-1.1-8.6-3-11.9-1.6
				c-1.1,0.5-1.5,1.7-1.1,2.8c0.5,1.4,1.7,1.8,2.9,1.8C6.3,322.6,8.7,321.8,11.2,321z"/>
		</g>
		<g id="XMLID_68_">
			<path id="XMLID_70_" class="st1" d="M32.2,354.1c-0.5,2.7-0.6,5.5-1.7,8c-1.2,2.7-4.1,3.6-6.7,4.1c-0.1,0-0.4,0.1-0.6,0.1
				c-0.5,0.1-0.6,0.7-0.3,1c0.2,0.1,0.4,0.3,0.5,0.4c0.5,0.5,1.2,1,1.7,1.5c1,1.2,1.9,2.4,2.7,3.7c1,1.6,1.7,3.4,2.4,5.2
				c1.2,2.9,1.9,6,2.1,9.1c0.1,1,1.1,0.5,1-0.5c-0.3-3.5-1-6.9-2.3-10c-0.1-0.4,0.1-0.8,0.6-0.8c0.2,0,0.3,0,0.5,0
				c0.5-0.1,0.5-0.9,0-1c-0.3,0-0.6-0.1-0.9-0.1c-0.6,0-1.1-0.3-1.4-0.8c0-0.1-0.1-0.2-0.1-0.3c-0.2-0.4,0.2-0.7,0.6-0.7
				c0.8,0.1,1.5,0.1,2.2,0c0.6-0.1,0.6-1,0-1.1c-0.6-0.1-1.1,0-1.7,0c-0.4,0-0.8,0-1.2,0c-0.6,0-1.1-0.3-1.4-0.7
				c-0.1-0.1-0.1-0.2-0.2-0.2c-0.2-0.3,0-0.7,0.4-0.6c1.3,0.1,2.5,0.1,3.8,0.1c0.8,0,0.8-1.2,0-1.2c-1.5,0-3.1,0.1-4.6-0.1
				c-0.6,0-1.2-0.3-1.6-0.8c-0.2-0.2-0.3-0.4-0.5-0.5c-0.2-0.2-0.1-0.5,0.1-0.7c0.5-0.3,1.1,0,1.7,0c1.6,0,3.2-0.2,4.8-0.1
				c0.7,0.1,0.8-1.1,0.2-1.2c-0.7-0.2-1.4-0.1-2.2,0c-0.1,0-0.2,0-0.3,0c-0.3,0-0.4-0.3-0.2-0.4c0.4-0.3,0.8-0.6,1.1-1
				c2.6-2.6,2.4-7.3,2.7-10.3C33.4,353.3,32.4,353.3,32.2,354.1z"/>
			<path id="XMLID_69_" class="st1" d="M32.2,285.6c-0.5-2.7-0.6-5.5-1.7-8c-1.2-2.7-4.1-3.6-6.7-4.1c-0.1,0-0.4-0.1-0.6-0.1
				c-0.5-0.1-0.6-0.7-0.3-1c0.2-0.1,0.4-0.3,0.5-0.4c0.5-0.5,1.2-1,1.7-1.5c1-1.2,1.9-2.4,2.7-3.7c1-1.6,1.7-3.4,2.4-5.2
				c1.2-2.9,1.9-6,2.1-9.1c0.1-1,1.1-0.5,1,0.5c-0.3,3.5-1,6.9-2.3,10c-0.1,0.4,0.1,0.8,0.6,0.8c0.2,0,0.3,0,0.5,0.1
				c0.5,0.1,0.5,0.9,0,1c-0.3,0-0.6,0.1-0.9,0.1c-0.6,0-1.1,0.3-1.4,0.8c0,0.1-0.1,0.2-0.1,0.3c-0.2,0.4,0.2,0.7,0.6,0.7
				c0.8-0.1,1.5-0.1,2.2,0c0.6,0.1,0.6,1,0,1.1c-0.6,0.1-1.1,0-1.7,0c-0.4,0-0.8,0-1.2,0c-0.6,0-1.1,0.3-1.4,0.7
				c-0.1,0.1-0.1,0.2-0.2,0.2c-0.2,0.3,0,0.7,0.4,0.6c1.3-0.1,2.5-0.1,3.8-0.1c0.8,0,0.8,1.2,0,1.2c-1.5,0-3.1,0-4.6,0.1
				c-0.6,0-1.2,0.3-1.6,0.8c-0.2,0.2-0.3,0.4-0.5,0.5c-0.2,0.2-0.1,0.5,0.1,0.7c0.5,0.3,1.1,0,1.7,0c1.6,0,3.2,0.2,4.8,0.1
				c0.7-0.1,0.8,1.1,0.2,1.2c-0.7,0.2-1.4,0.1-2.2,0c-0.1,0-0.2,0-0.3,0c-0.3,0-0.4,0.3-0.2,0.4c0.4,0.3,0.8,0.6,1.1,1
				c2.6,2.6,2.4,7.3,2.7,10.3C33.4,286.5,32.4,286.5,32.2,285.6z"/>
		</g>
	</g>
</g>
<path id="XMLID_253_" class="st1" d="M66.2,45.7c3.5,0.2,7.1,0,10.6,0c1,0,2.1,0.2,3.2,0.1c4.4-0.2,9,0.1,12.8-0.2
	c2.1-0.2,9.1-0.1,11.2,0c2.2,0,4.3-0.1,6.3-0.1c3.1,0,13.6,0.1,16.6-0.1c1.1,0,2.1,0.1,3.1,0.2c1.8,0.1,3.7,0,5.6,0
	c1.9,0,8.7,0.1,10.6,0.1c2,0,4.1-0.1,6.1,0c7.3,0.4,36.7-0.4,43.8,0c1.3,0.1,2.5-0.2,3.5-0.2c2.2,0,4.5,0.2,6.8,0.2
	c2.3,0,54.5-0.1,56.9-0.1c2.2,0,4.4,0.2,6.7,0.3c2.8,0.2,5.6,0.1,8.5,0.3c1.4,0.1,2.9,0,4.3,0c2.7,0,5.4-0.1,8.1-0.3
	c1.4-0.1,2.7,0,4.1,0c5.8,0,11.5-0.3,15.8,1.4c1.7,0.7,4.3,3.4,5.2,4.9c0.7,1.3,1.2,2.5,1.2,4.4c0,1.7,0.1,2.9-0.5,4.6
	c-0.8,2.5-3.3,4.6-5.9,5.1c-0.9,0.2-2,0.2-3.1,0.1c-1.7-0.2-3.7-0.8-4.7-1.8c-1.1-1.2-2.9-5.3-1.1-6.9c0.4-0.3,1.9-0.9,2.6-0.8
	c1.3,0.2,1.4,2.4,2.9,2.5c2.4,0.2,2.3-2.8,1.5-4.3c-0.5-0.9-1.6-1.5-2.4-1.7c-1.6-0.4-2.9,0.2-3.9,0.6c-1.2,0.6-1.8,1.2-2.6,2.2
	c-0.7,1-1,1.8-1.9,0.7c-1.4-1.8-3.4-3.1-5.2-4.3c-2.1-1.4-5.1-2.7-8.3-2.6c-2.3,0.1-4.3,1-5.2,2.9c-0.8,1.7,0.2,4.2,1.3,5
	c0.9,0.6,3.2,1.3,4.4,0.6c0.5-0.3,1.3-1.7,0.7-2.7c-0.3-0.4-1-0.6-1.5-0.7c-0.5-0.1-1.4-0.1-1.5-0.7c-0.2-1,1.5-1.7,2.4-1.8
	c1.9-0.2,4.2,0.3,5.6,0.9c1.5,0.6,3.3,1.9,4.4,3.1c2.2,2.1,2.8,5,4.4,7.6c1.4,2.2,3.3,4.2,6.5,4.7c0.5,0.1,1.6,0.1,2.3,0.1
	c1.3,0.1,1.9,0.1,3.1-0.3c0.5-0.2,1.1-0.4,1.5-0.5c1.5-0.8,3.6-2.5,4.5-4c0.8-1.3,1.5-2.7,1.7-4.3c0.5-3.3,0-6.4-1.3-8.6
	c-3.5-6.4-9.1-7.6-16.1-7.6c-7.1,0-14.2,0.6-21.3,0.1c-1.5-0.1-3,0-4.5-0.1c-4.4-0.2-8.8,0-13.2-0.2c-1.5-0.1-53.1-0.1-54.6,0
	c-3.5,0.1-7-0.2-10.4-0.1c-1.5,0.1-3,0-4.5,0c-1.9,0-3.8,0.2-5.7,0.3c-1.9,0.1-20.9,0-22.9,0c-2,0-8.9,0.3-10.8,0.2
	c-2-0.2-3.9-0.2-5.9-0.2c-2,0-8.9-0.1-10.9-0.1c-4,0-7.9,0.1-11.9,0.1c-1.9,0-11.2-0.2-13.1-0.1c-2,0.1-4,0-6,0.1
	c-2.2,0.1-9.4,0.1-11.6,0.2c-4.7,0.1-9.5,0.2-14.2,0c-2.3-0.1-4.2,0.1-6.5,0c-0.2,0-0.6,0-0.9,0c-1.5-0.1-3.7-0.2-4.8-0.1
	c-1.5,0.1-25.3,0-26.8,0c-1.9,0-3.9-0.1-5.8,0"/>
<path id="XMLID_252_" class="st1" d="M66.2,108.6c3.5-0.2,7.1,0,10.6,0c1,0,2.1-0.2,3.2-0.1c4.4,0.2,9-0.1,12.8,0.2
	c2.1,0.2,9.1,0.1,11.2,0c2.2,0,4.3,0.1,6.3,0.1c3.1,0,13.6-0.1,16.6,0.1c1.1,0,2.1-0.1,3.1-0.2c1.8-0.1,3.7,0,5.6,0
	c1.9,0,8.7-0.1,10.6-0.1c2,0,4.1,0.1,6.1,0c7.3-0.4,36.7,0.4,43.8,0c1.3-0.1,2.5,0.2,3.5,0.2c2.2,0,4.5-0.2,6.8-0.2
	c2.3,0,54.5,0.1,56.9,0.1c2.2,0,4.4-0.2,6.7-0.3c2.8-0.2,5.6-0.1,8.5-0.3c1.4-0.1,2.9,0,4.3,0c2.7,0,5.4,0.1,8.1,0.3
	c1.4,0.1,2.7,0,4.1,0c5.8,0,11.5,0.3,15.8-1.4c1.7-0.7,4.3-3.4,5.2-4.9c0.7-1.3,1.2-2.5,1.2-4.4c0-1.7,0.1-2.9-0.5-4.6
	c-0.8-2.5-3.3-4.6-5.9-5.1c-0.9-0.2-2-0.2-3.1-0.1c-1.7,0.2-3.7,0.8-4.7,1.8c-1.1,1.2-2.9,5.3-1.1,6.9c0.4,0.3,1.9,0.9,2.6,0.8
	c1.3-0.2,1.4-2.4,2.9-2.5c2.4-0.2,2.3,2.8,1.5,4.3c-0.5,0.9-1.6,1.5-2.4,1.7c-1.6,0.4-2.9-0.2-3.9-0.6c-1.2-0.6-1.8-1.2-2.6-2.2
	c-0.7-1-1-1.8-1.9-0.7c-1.4,1.8-3.4,3.1-5.2,4.3c-2.1,1.4-5.1,2.7-8.3,2.6c-2.3-0.1-4.3-1-5.2-2.9c-0.8-1.7,0.2-4.2,1.3-5
	c0.9-0.6,3.2-1.3,4.4-0.6c0.5,0.3,1.3,1.7,0.7,2.7c-0.3,0.4-1,0.6-1.5,0.7c-0.5,0.1-1.4,0.1-1.5,0.7c-0.2,1,1.5,1.7,2.4,1.8
	c1.9,0.2,4.2-0.3,5.6-0.9c1.5-0.6,3.3-1.9,4.4-3.1c2.2-2.1,2.8-5,4.4-7.6c1.4-2.2,3.3-4.2,6.5-4.7c0.5-0.1,1.6-0.1,2.3-0.1
	c1.3-0.1,1.9-0.1,3.1,0.3c0.5,0.2,1.1,0.4,1.5,0.5c1.5,0.8,3.6,2.5,4.5,4c0.8,1.3,1.5,2.7,1.7,4.3c0.5,3.3,0,6.4-1.3,8.6
	c-3.5,6.4-9.1,7.6-16.1,7.6c-7.1,0-14.2-0.6-21.3-0.1c-1.5,0.1-3,0-4.5,0.1c-4.4,0.2-8.8,0-13.2,0.2c-1.5,0.1-53.1,0.1-54.6,0
	c-3.5-0.1-7,0.2-10.4,0.1c-1.5-0.1-3,0-4.5,0c-1.9,0-3.8-0.2-5.7-0.3c-1.9-0.1-20.9,0-22.9,0c-2,0-8.9-0.3-10.8-0.2
	c-2,0.2-3.9,0.2-5.9,0.2c-2,0-8.9,0.1-10.9,0.1c-4,0-7.9-0.1-11.9-0.1c-1.9,0-11.2,0.2-13.1,0.1c-2-0.1-4,0-6-0.1
	c-2.2-0.1-9.4-0.1-11.6-0.2c-4.7-0.1-9.5-0.2-14.2,0c-2.3,0.1-4.2-0.1-6.5,0c-0.2,0-0.6,0-0.9,0c-1.5,0.1-3.7,0.2-4.8,0.1
	c-1.5-0.1-25.3,0-26.8,0c-1.9,0-3.9,0.1-5.8,0"/>
<path id="XMLID_82_" class="st1" d="M67.2,287.6c3.5,0.2,7.1,0,10.6,0c1,0,2.1,0.2,3.2,0.1c4.4-0.2,9,0.1,12.8-0.2
	c2.1-0.2,9.1-0.1,11.2,0c2.2,0,4.3-0.1,6.3-0.1c3.1,0,13.6,0.1,16.6-0.1c1.1,0,2.1,0.1,3.1,0.2c1.8,0.1,3.7,0,5.6,0
	c1.9,0,8.7,0.1,10.6,0.1c2,0,4.1-0.1,6.1,0c7.3,0.4,36.7-0.4,43.8,0c1.3,0.1,2.5-0.2,3.5-0.2c2.2,0,4.5,0.2,6.8,0.2
	c2.3,0,54.5-0.1,56.9-0.1c2.2,0,4.4,0.2,6.7,0.3c2.8,0.2,5.6,0.1,8.5,0.3c1.4,0.1,2.9,0,4.3,0c2.7,0,5.4-0.1,8.1-0.3
	c1.4-0.1,2.7,0,4.1,0c5.8,0,11.5-0.3,15.8,1.4c1.7,0.7,4.3,3.4,5.2,4.9c0.7,1.3,1.2,2.5,1.2,4.4c0,1.7,0.1,2.9-0.5,4.6
	c-0.8,2.5-3.3,4.6-5.9,5.1c-0.9,0.2-2,0.2-3.1,0.1c-1.7-0.2-3.7-0.8-4.7-1.8c-1.1-1.2-2.9-5.3-1.1-6.9c0.4-0.3,1.9-0.9,2.6-0.8
	c1.3,0.2,1.4,2.4,2.9,2.5c2.4,0.2,2.3-2.8,1.5-4.3c-0.5-0.9-1.6-1.5-2.4-1.7c-1.6-0.4-2.9,0.2-3.9,0.6c-1.2,0.6-1.8,1.2-2.6,2.2
	c-0.7,1-1,1.8-1.9,0.7c-1.4-1.8-3.4-3.1-5.2-4.3c-2.1-1.4-5.1-2.7-8.3-2.6c-2.3,0.1-4.3,1-5.2,2.9c-0.8,1.7,0.2,4.2,1.3,5
	c0.9,0.6,3.2,1.3,4.4,0.6c0.5-0.3,1.3-1.7,0.7-2.7c-0.3-0.4-1-0.6-1.5-0.7c-0.5-0.1-1.4-0.1-1.5-0.7c-0.2-1,1.5-1.7,2.4-1.8
	c1.9-0.2,4.2,0.3,5.6,0.9c1.5,0.6,3.3,1.9,4.4,3.1c2.2,2.1,2.8,5,4.4,7.6c1.4,2.2,3.3,4.2,6.5,4.7c0.5,0.1,1.6,0.1,2.3,0.1
	c1.3,0.1,1.9,0.1,3.1-0.3c0.5-0.2,1.1-0.4,1.5-0.5c1.5-0.8,3.6-2.5,4.5-4c0.8-1.3,1.5-2.7,1.7-4.3c0.5-3.3,0-6.4-1.3-8.6
	c-3.5-6.4-9.1-7.6-16.1-7.6c-7.1,0-14.2,0.6-21.3,0.1c-1.5-0.1-3,0-4.5-0.1c-4.4-0.2-8.8,0-13.2-0.2c-1.5-0.1-53.1-0.1-54.6,0
	c-3.5,0.1-7-0.2-10.4-0.1c-1.5,0.1-3,0-4.5,0c-1.9,0-3.8,0.2-5.7,0.3c-1.9,0.1-20.9,0-22.9,0c-2,0-8.9,0.3-10.8,0.2
	c-2-0.2-3.9-0.2-5.9-0.2c-2,0-8.9-0.1-10.9-0.1c-4,0-7.9,0.1-11.9,0.1c-1.9,0-11.2-0.2-13.1-0.1c-2,0.1-4,0-6,0.1
	c-2.2,0.1-9.4,0.1-11.6,0.2c-4.7,0.1-9.5,0.2-14.2,0c-2.3-0.1-4.2,0.1-6.5,0c-0.2,0-0.6,0-0.9,0c-1.5-0.1-3.7-0.2-4.8-0.1
	c-1.5,0.1-25.3,0-26.8,0c-1.9,0-3.9-0.1-5.8,0"/>
<path id="XMLID_81_" class="st1" d="M67.2,354.5c3.5-0.2,7.1,0,10.6,0c1,0,2.1-0.2,3.2-0.1c4.4,0.2,9-0.1,12.8,0.2
	c2.1,0.2,9.1,0.1,11.2,0c2.2,0,4.3,0.1,6.3,0.1c3.1,0,13.6-0.1,16.6,0.1c1.1,0,2.1-0.1,3.1-0.2c1.8-0.1,3.7,0,5.6,0
	c1.9,0,8.7-0.1,10.6-0.1c2,0,4.1,0.1,6.1,0c7.3-0.4,36.7,0.4,43.8,0c1.3-0.1,2.5,0.2,3.5,0.2c2.2,0,4.5-0.2,6.8-0.2
	c2.3,0,54.5,0.1,56.9,0.1c2.2,0,4.4-0.2,6.7-0.3c2.8-0.2,5.6-0.1,8.5-0.3c1.4-0.1,2.9,0,4.3,0c2.7,0,5.4,0.1,8.1,0.3
	c1.4,0.1,2.7,0,4.1,0c5.8,0,11.5,0.3,15.8-1.4c1.7-0.7,4.3-3.4,5.2-4.9c0.7-1.3,1.2-2.5,1.2-4.4c0-1.7,0.1-2.9-0.5-4.6
	c-0.8-2.5-3.3-4.6-5.9-5.1c-0.9-0.2-2-0.2-3.1-0.1c-1.7,0.2-3.7,0.8-4.7,1.8c-1.1,1.2-2.9,5.3-1.1,6.9c0.4,0.3,1.9,0.9,2.6,0.8
	c1.3-0.2,1.4-2.4,2.9-2.5c2.4-0.2,2.3,2.8,1.5,4.3c-0.5,0.9-1.6,1.5-2.4,1.7c-1.6,0.4-2.9-0.2-3.9-0.6c-1.2-0.6-1.8-1.2-2.6-2.2
	c-0.7-1-1-1.8-1.9-0.7c-1.4,1.8-3.4,3.1-5.2,4.3c-2.1,1.4-5.1,2.7-8.3,2.6c-2.3-0.1-4.3-1-5.2-2.9c-0.8-1.7,0.2-4.2,1.3-5
	c0.9-0.6,3.2-1.3,4.4-0.6c0.5,0.3,1.3,1.7,0.7,2.7c-0.3,0.4-1,0.6-1.5,0.7c-0.5,0.1-1.4,0.1-1.5,0.7c-0.2,1,1.5,1.7,2.4,1.8
	c1.9,0.2,4.2-0.3,5.6-0.9c1.5-0.6,3.3-1.9,4.4-3.1c2.2-2.1,2.8-5,4.4-7.6c1.4-2.2,3.3-4.2,6.5-4.7c0.5-0.1,1.6-0.1,2.3-0.1
	c1.3-0.1,1.9-0.1,3.1,0.3c0.5,0.2,1.1,0.4,1.5,0.5c1.5,0.8,3.6,2.5,4.5,4c0.8,1.3,1.5,2.7,1.7,4.3c0.5,3.3,0,6.4-1.3,8.6
	c-3.5,6.4-9.1,7.6-16.1,7.6c-7.1,0-14.2-0.6-21.3-0.1c-1.5,0.1-3,0-4.5,0.1c-4.4,0.2-8.8,0-13.2,0.2c-1.5,0.1-53.1,0.1-54.6,0
	c-3.5-0.1-7,0.2-10.4,0.1c-1.5-0.1-3,0-4.5,0c-1.9,0-3.8-0.2-5.7-0.3c-1.9-0.1-20.9,0-22.9,0c-2,0-8.9-0.3-10.8-0.2
	c-2,0.2-3.9,0.2-5.9,0.2c-2,0-8.9,0.1-10.9,0.1c-4,0-7.9-0.1-11.9-0.1c-1.9,0-11.2,0.2-13.1,0.1c-2-0.1-4,0-6-0.1
	c-2.2-0.1-9.4-0.1-11.6-0.2c-4.7-0.1-9.5-0.2-14.2,0c-2.3,0.1-4.2-0.1-6.5,0c-0.2,0-0.6,0-0.9,0c-1.5,0.1-3.7,0.2-4.8,0.1
	c-1.5-0.1-25.3,0-26.8,0c-1.9,0-3.9,0.1-5.8,0"/>
</svg>
