<?xml version="1.0" encoding="utf-8"?>
<!-- Generator: Adobe Illustrator 19.0.0, SVG Export Plug-In . SVG Version: 6.00 Build 0)  -->
<svg version="1.1" id="Layer_1" xmlns="http://www.w3.org/2000/svg" xmlns:xlink="http://www.w3.org/1999/xlink" x="0px" y="0px"
	 viewBox="-286 341.4 37.7 111.6" style="enable-background:new -286 341.4 37.7 111.6;" xml:space="preserve">
<style type="text/css">
	.st0{fill:#F0504E;}
	.st1{fill:#414042;}
</style>
<g id="XMLID_66_">
	<g id="XMLID_115_">
		<path id="XMLID_117_" class="st0" d="M-253.5,348.5l0.4,5.4l-0.2,11.9c-5.3-4-8.7-0.9-8.7-0.9
			C-255.9,359.8-253.5,348.5-253.5,348.5z"/>
		<path id="XMLID_116_" class="st0" d="M-249.1,410.4v27.2l-21.5-26C-254.5,419-249.1,410.4-249.1,410.4z"/>
	</g>
	<g id="XMLID_67_">
		<g id="XMLID_96_">
			<g id="XMLID_106_">
				<path class="st1" d="M-248,336.5c0-0.5,0-1.8,0-3.1c-0.9,0.3-1.7,0.8-2.5,1.2c0,0,0,0.1,0,0.1c-0.1,1.3,0.2,2.5,0.2,3.5
					c0,2.2-0.2,4.5-0.2,6.8s0.1,4.5,0.1,6.9c0,2.2-0.2,4.4-0.3,6.7c-0.2,2.8-0.1,5.6-0.3,8.5c-0.1,1.4,0,2.9,0,4.3
					c0,2.7,0.1,5.4,0.3,8.1c0.1,1.4,0,2.7,0,4.1c0,5.8,0.3,11.5-1.4,15.8c-0.7,1.7-3.4,4.3-4.9,5.2c-1.3,0.7-2.5,1.2-4.4,1.2
					c-1.7,0-2.9,0.1-4.6-0.5c-2.5-0.8-4.6-3.3-5.1-5.9c-0.2-0.9-0.2-2-0.1-3.1c0.2-1.7,0.8-3.7,1.8-4.7c1.2-1.1,5.3-2.9,6.9-1.1
					c0.3,0.4,0.9,1.9,0.8,2.6c-0.2,1.3-2.4,1.4-2.5,2.9c-0.2,2.4,2.8,2.3,4.3,1.5c0.9-0.5,1.5-1.6,1.7-2.4c0.4-1.6-0.2-2.9-0.6-3.9
					c-0.6-1.2-1.2-1.8-2.2-2.6c-1-0.7-1.8-1-0.7-1.9c1.8-1.4,3.1-3.4,4.3-5.2c1.4-2.1,2.7-5.1,2.6-8.3c-0.1-2.2-1-4.3-2.9-5.2
					c-1.7-0.8-4.2,0.2-5,1.3c-0.6,0.9-1.3,3.2-0.6,4.4c0.3,0.5,1.7,1.3,2.7,0.7c0.4-0.3,0.6-1,0.7-1.5c0.1-0.5,0.1-1.4,0.7-1.5
					c1-0.2,1.7,1.5,1.8,2.4c0.2,1.9-0.3,4.2-0.9,5.6c-0.6,1.5-1.9,3.3-3.1,4.4c-2.1,2.2-5,2.8-7.6,4.4c-2.2,1.4-4.2,3.3-4.7,6.5
					c-0.1,0.5-0.1,1.6-0.1,2.3c-0.1,1.3-0.1,1.9,0.3,3.1c0.2,0.5,0.4,1.1,0.5,1.5c0.8,1.6,2.5,3.6,4,4.5c1.3,0.8,2.7,1.5,4.3,1.7
					c3.5,0.5,6.6,0,8.8-1.2c6.4-3.6,7.6-9.1,7.6-16.1c0-7.1-0.6-14.2-0.1-21.3c0.1-1.5,0-3,0.1-4.5c0.2-4.4,0-8.8,0.2-13.2
					c0.1-1.5,0.1-3.1,0-4.6C-248.2,343.4-247.9,339.9-248,336.5z"/>
				<path class="st1" d="M-253.6,338.7c-0.1,3.4-0.4,6.7-0.7,9.1c-0.4,2.1-0.8,3.8-1.6,5.8c-1.4,3.4-2.9,6.8-5,9.5
					c-0.4,0.5-0.9,0.7-1.3,1.3c-0.3,0.4-1.1,1.3-0.9,1.6c0.3,0.4,1-0.1,1.4-0.4c0.6-0.4,0.9-0.6,1.3-0.7c1.8-0.7,4.4-0.6,5.6,0.3
					c0.3,0.7,1.3,3.2,1.8,1.1c0.3-1.3,0.2-3.1,0.2-4.2c0-1.8,0.2-4.1,0.2-5.6c0-1.1-0.1-2.3,0-3.4c0.1-1.4,0.1-2.8,0.1-4.2
					c0-1.4-0.1-2.7,0-4.1c0.1-2.8,0.2-5.2,0-8.3C-252.9,337.2-253.3,337.9-253.6,338.7z M-253.8,355.4c0.1,0.4,0.1,0.8-0.1,1
					c-0.4,0.3-1.8,0.2-2-0.1C-256.4,355.5-254.3,354-253.8,355.4z M-254.1,364.5c-0.4,0.2-0.8-0.3-1.1-0.4c-0.6-0.3-1.4-0.5-2.1-0.7
					c-0.3-0.1-0.4-0.5-0.1-0.5c1-0.3,3-0.1,3.3,0.2C-253.9,363.4-253.8,364.3-254.1,364.5z M-254.2,361.9c-0.2,0.1-0.6,0-0.9,0
					c-1.1,0-3.3,0.1-3.6,0.5c-0.2,0.4,0.2,0.8,0,1c-0.2,0.2-0.8,0-0.9-0.1c-0.3-0.5,0.6-0.9,0.8-1.1c0.2-0.3,0.2-0.8,0.4-1.1
					c0.5-0.8,0.7-0.7,1.9-0.8c1.3-0.1,2.3-0.3,2.6,0.4C-253.8,360.9-253.9,361.7-254.2,361.9z M-255.5,359.2
					c-0.7,0.1-1.4,0.2-1.6-0.1c-0.2-0.3,0.2-1.2,0.6-1.5c0.8-0.5,2.5-0.3,2.7,0.3C-253.3,359.1-254.4,359.1-255.5,359.2z
					 M-254,353.9c-1.7,0.9-0.2-3.5,0.3-2.6C-253.5,351.7-253.6,353.6-254,353.9z"/>
			</g>
		</g>
		<g id="XMLID_76_">
			<path id="XMLID_88_" class="st1" d="M-250.3,409.6c-0.7,0.5-1.5,1.1-2.2,1.5c-0.6,0.3-1.4,0.5-2.3,0.8c-0.7,0.3-1.6,0.4-2.5,0.6
				c-4.9,0.8-9.7-0.2-12.9-1.9c-0.4-0.2-0.6-0.4-1.1-0.4c-0.6,0-0.9,0.2-1,0.6c-0.1,0.6,1,1.3,1.4,1.7c0.5,0.5,1,1.3,1.4,1.7
				c2.1,2.4,3.9,4.6,5.8,6.8c1,1.1,2,2.2,3,3.3c2,2.2,3.6,4.8,5.7,6.9c0.5,0.5,0.9,1.1,1.5,1.8c0.4,0.4,1.1,1.2,1.7,2.4
				c1,2,1.9,4.8,1.9,7.4c0,1.5-0.5,4-2,5.5c-0.7,0.7-2.4,1.5-3.1,0.8c-0.5-0.4,0-1.1,0.2-1.6c0.2-0.4,0.4-1.2,0.2-1.6
				c-0.5-1.1-2.1-1.2-2.6-0.9c-1.2,0.6-1.9,2.9-1.9,4.1c0,1.3,1.6,3.5,3.5,3.8c2,0.2,4.4-0.7,5.7-2.6c1.8-2.6,1.9-5.7,1.9-8.1
				c0-2.2,0.2-5,0-7.3c-0.2-3.5-0.1-6.6-0.2-10.5c-0.1-4.7,0.1-9.4,0-13.8c0-0.8,0.2-1.9,0-2.2
				C-248.5,407.7-249.7,409.1-250.3,409.6z M-249.8,433.5c0.1,0.2,0.2,1.1-0.2,1.2c-0.4,0.2-1-0.8-1.3-1.1c-0.4-0.5-0.6-0.9-0.9-1.3
				s-0.8-0.7-1.2-1.1c-0.4-0.4-0.7-0.8-1.1-1.2c-2.2-2.3-3.9-4.9-6.2-7.4c-1.5-1.6-2.8-3.1-4.2-4.9c-1.1-1.3-2.1-2.5-3.1-3.7
				c-0.1-0.1-1.1-0.9-0.8-1.3c0.3-0.3,1.1,0.2,1.5,0.3c0.4,0.1,1.2,0.3,1.3,0.5c0.2,0.2,0.3,0.9,0.3,1c0.1,0.3,0.4,0.5,0.7,0.8
				c0.6,0.7,1.4,1.7,2,2.4c0.9,1,1.8,2.2,2.7,3.3c0.5,0.6,1.1,0.9,1.5,1.5c0.4,0.5,0.6,1,1,1.4c0.4,0.4,0.8,0.8,1.1,1.2
				c0.6,0.7,1,1.5,1.6,2.2c0.9,1.1,1.5,2.1,2.6,3.1c0.3,0.3,0.6,0.7,0.9,1C-251,432-250,432.6-249.8,433.5z M-250,431
				c-0.5,0.2-1-0.9-1.3-1.2c-0.4-0.4-0.9-0.7-1.1-1c-0.5-0.6-0.9-1.3-1.4-1.9c-0.9-1.3-2-2.4-3-3.7c-0.5-0.6-0.9-1.3-1.4-1.9
				c-0.5-0.6-1.1-1-1.5-1.6c-1.1-1.4-2.4-2.8-3.6-4.2c-0.2-0.2-0.6-0.7-0.5-0.9c0.2-0.4,1.3-0.1,1.6,0.1c0.6,0.3,1,1.2,1.6,1.9
				c0.6,0.7,1.3,1.3,1.7,1.8c1,1.4,1.9,2.5,3.1,3.8c0.6,0.6,1.2,1.2,1.7,1.8c0.5,0.7,0.9,1.4,1.5,2c1,1.2,2.7,2.4,3,4.1
				C-249.8,430.4-249.7,430.9-250,431z M-251,424.4c0.5,0.6,1,1.2,1.1,1.8c0.2,1.8-1.3-0.1-1.6-0.4c-1-1.1-1.6-2-2.4-2.9
				c-0.4-0.5-0.8-0.9-1.3-1.3c-1-1.1-1.5-2.2-2.5-3.2c-0.6-0.6-1.3-1.4-1.9-2.3c-0.2-0.2-0.6-0.7-0.5-0.9c0.1-0.2,0.8-0.3,1.1-0.2
				c0.6,0.1,2,2,2.4,2.5c0.6,0.7,1.3,1.9,2.1,2.8c0.4,0.5,1,0.9,1.3,1.3C-252.4,422.5-251.8,423.4-251,424.4z M-249.9,422.4
				c0.1,0.4,0.2,1.1-0.1,1.2c-0.4,0.2-1.2-1.1-1.3-1.3c-0.4-0.5-0.7-1.2-1.1-1.5c-0.3-0.4-0.9-0.8-1.4-1.3c-0.9-1.1-1.4-1.9-2.4-3.1
				c-0.4-0.5-1.9-2.3-0.1-2c0.4,0.1,1.3,1.2,1.7,1.6c0.9,1.1,2.1,2.5,3,3.6C-251.1,420.5-250.1,421.3-249.9,422.4z M-249.7,417.6
				c0.1,0.4,0.3,1.9-0.3,2c-0.4,0.1-0.8-0.7-0.9-0.8c-0.4-0.5-0.6-0.7-0.8-0.9c-0.6-0.6-1.1-1.4-1.5-1.9c-0.3-0.4-1.5-1.3-1.3-1.9
				c0.1-0.3,1-0.6,1.5-0.5c0.6,0.1,1.2,1,1.7,1.6C-250.8,416.1-250,416.6-249.7,417.6z M-250.1,412.2c0.4,0.2,0.4,1,0.3,2
				c0,0.6-0.1,1.1-0.8,0.5c-0.2-0.2-1.1-1.3-1.1-1.6C-251.6,412.9-250.6,412-250.1,412.2z"/>
		</g>
	</g>
</g>
</svg>
