<?xml version="1.0" encoding="utf-8"?>
<!-- Generator: Adobe Illustrator 19.0.0, SVG Export Plug-In . SVG Version: 6.00 Build 0)  -->
<svg version="1.1" id="Layer_1" xmlns="http://www.w3.org/2000/svg" xmlns:xlink="http://www.w3.org/1999/xlink" x="0px" y="0px"
	 viewBox="-571.7 649.7 37.7 140" style="enable-background:new -571.7 649.7 37.7 140;" xml:space="preserve">
<style type="text/css">
	.st0{fill:#EF504E;}
	.st1{fill-rule:evenodd;clip-rule:evenodd;fill:#404041;}
	.st2{fill:none;stroke:#414142;stroke-miterlimit:10;}
</style>
<g id="XMLID_78_">
	<g id="XMLID_256_">
		<path id="XMLID_694_" class="st0" d="M-534.7,442.7v-27.4l-21.6,26.5C-543.6,437.4-534.7,442.7-534.7,442.7z"/>
		<path id="XMLID_697_" class="st0" d="M-538.9,504.4l-0.4-16.9c-4.1,4.9-8.5,0.2-8.5,0.2C-541.6,497.1-538.9,504.4-538.9,504.4z"/>
		<path id="XMLID_696_" class="st0" d="M-539.2,658.4l0.3,22.4c-2.9-8.3-9.6-7.4-9.6-7.4C-541.9,668.4-539.2,658.4-539.2,658.4z"/>
		<path id="XMLID_695_" class="st0" d="M-539.2,782.5l0.2-22.4c-2.6,7.3-8.8,7.2-8.8,7.2C-541.5,775.2-539.2,782.5-539.2,782.5z"/>
		<path id="XMLID_693_" class="st0" d="M-539.3,981.5l0.4,5.4l-0.2,11.9c-5.3-4-8.7-0.9-8.7-0.9
			C-541.6,992.8-539.3,981.5-539.3,981.5z"/>
		<path id="XMLID_692_" class="st0" d="M-534.9,1043.4v27.2l-21.5-26C-540.3,1052-534.9,1043.4-534.9,1043.4z"/>
	</g>
	<g id="XMLID_1022_">
		<g id="XMLID_1048_">
			<g id="XMLID_1058_">
				<path id="XMLID_1066_" class="st1" d="M-541.7,1039.5c6.4-3.6,7.6-9.1,7.6-16.1c0-7.1-0.6-14.2-0.1-21.3c0.1-1.5,0-3,0.1-4.5
					c0.2-4.4,0-8.8,0.2-13.2c0.1-1.5,0.1-3.1,0-4.6c-0.1-3.5,0.2-7,0.1-10.4c-0.1-1.5,0-7.9,0-9.4c0-1.9-0.2-8.7-0.3-10.6
					c-0.1-1.9,0-47.9,0-49.9c0-2-0.3-4-0.2-5.9c0.2-2,0.2-3.9,0.2-5.9c0-2,0.1-4.1,0.1-6c0-4-0.1-25.9-0.1-29.9
					c0-1.9,0.2-3.9,0.1-5.8c-0.1-2,0-4-0.1-6c-0.1-2.2-0.1-37.4-0.2-39.6c-0.1-4.7-0.2-9.5,0-14.2c0.1-2.3-0.1-4.2,0-6.5
					c0-0.2,0-0.6,0-0.9c0.1-1.5,0.2-3.7,0.1-4.8c-0.1-1.5,0-3.3,0-4.8c0-1.9,0.1-3.9,0-5.7c-0.1-1.9,0-3.9,0-5.9c0-2-0.3-4-0.2-5.9
					c0.2-2,0.2-3.9,0.2-5.9c0-2,0.1-4.1,0.1-6c0-4-0.1-7.9-0.1-11.9c0-1.9,0.2-3.9,0.1-5.8c0-0.6,0-1.3,0-1.9c0-0.6-0.5-1-1-1
					c-0.6,0-1,0.5-1,1.1c0,3-0.1,6.3,0.1,9.2c0,1.1-0.1,2.1-0.2,3.1c-0.1,1.8,0,3.7,0,5.6c0,1.9-0.1,3.8-0.1,5.7c0,2,0.1,4.1,0,6.1
					c-0.4,7.3,0.4,14.9,0,22c-0.2,3.5,0,7.1,0,10.6c0,1-0.2,2.1-0.1,3.2c0.2,4.4-0.1,9,0.2,12.8c0.2,2.1,0.1,37.1,0,39.2
					c0,2.2,0.1,4.3,0.1,6.3c0,3.1-0.1,6.4,0.1,9.3c0,1.1-0.1,2.1-0.2,3.1c-0.1,1.8,0,3.7,0,5.6c0,1.9-0.1,21.8-0.1,23.7
					c0,2,0.1,4.1,0,6.1c-0.4,7.3,0.4,68.6,0,75.7c-0.1,1.3,0.2,2.5,0.2,3.5c0,2.2-0.2,4.5-0.2,6.8c0,2.3,0.1,4.5,0.1,6.9
					c0,2.2-0.2,4.4-0.3,6.7c-0.2,2.8-0.1,5.6-0.3,8.5c-0.1,1.4,0,2.9,0,4.3c0,2.7,0.1,5.4,0.3,8.1c0.1,1.4,0,2.7,0,4.1
					c0,5.8,0.3,11.5-1.4,15.8c-0.7,1.7-3.4,4.3-4.9,5.2c-1.3,0.7-2.5,1.2-4.4,1.2c-1.7,0-2.9,0.1-4.6-0.5c-2.5-0.8-4.6-3.3-5.1-5.9
					c-0.2-0.9-0.2-2-0.1-3.1c0.2-1.7,0.8-3.7,1.8-4.7c1.2-1.1,5.3-2.9,6.9-1.1c0.3,0.4,0.9,1.9,0.8,2.6c-0.2,1.3-2.4,1.4-2.5,2.9
					c-0.2,2.4,2.8,2.3,4.3,1.5c0.9-0.5,1.5-1.6,1.7-2.4c0.4-1.6-0.2-2.9-0.6-3.9c-0.6-1.2-1.2-1.8-2.2-2.6c-1-0.7-1.8-1-0.7-1.9
					c1.8-1.4,3.1-3.4,4.3-5.2c1.4-2.1,2.7-5.1,2.6-8.3c-0.1-2.2-1-4.3-2.9-5.2c-1.7-0.8-4.2,0.2-5,1.3c-0.6,0.9-1.3,3.2-0.6,4.4
					c0.3,0.5,1.7,1.3,2.7,0.7c0.4-0.3,0.6-1,0.7-1.5c0.1-0.5,0.1-1.4,0.7-1.5c1-0.2,1.7,1.5,1.8,2.4c0.2,1.9-0.3,4.2-0.9,5.6
					c-0.6,1.5-1.9,3.3-3.1,4.4c-2.1,2.2-5,2.8-7.6,4.4c-2.2,1.4-4.2,3.3-4.7,6.5c-0.1,0.5-0.1,1.6-0.1,2.3c-0.1,1.3-0.1,1.9,0.3,3.1
					c0.2,0.5,0.4,1.1,0.5,1.5c0.8,1.6,2.5,3.6,4,4.5c1.3,0.8,2.7,1.5,4.3,1.7C-547,1041.3-543.8,1040.8-541.7,1039.5z"/>
				<path id="XMLID_1059_" class="st1" d="M-538.8,999.2c0.3-1.3,0.2-3.1,0.2-4.2c0-1.8,0.2-4.1,0.2-5.6c0-1.1-0.1-2.3,0-3.4
					c0.1-1.4,0.1-2.8,0.1-4.2c0-1.4-0.1-2.7,0-4.1c0.1-3,0.2-5.5,0-8.9c-0.1-1.2,0-8.3,0-9.5c0-1.2,0.2-7.3,0.2-8.5
					c0-2.3,0-48.8-0.1-50.9c0-3.4,0.2-6.9,0.3-10.4c0-1.7-0.1-3.4-0.1-5.2c-0.1-4.8,0-28.1,0.3-33c0.1-1.7,0-3.4,0-5.1
					c0-1.6,0.2-3.2,0.2-4.8c0-0.8-0.2-1.7-0.2-2.6c0-2.6-0.2-38.1-0.2-40.8c0-1.8-0.2-3.5-0.1-5.3c0-0.9,0.1-1.7,0.1-2.5
					c0-0.8-0.1-1.7-0.2-2.5c-0.1-1.8,0.1-4.1,0.1-6.6c0-0.9-0.1-1.7-0.1-3c0-0.9,0-1.8-0.1-2.7c0.1-2.3,0-4.6,0-6.9
					c0-1.2,0.2-2.4,0.2-3.6c0-2.3,0-4.8-0.1-6.9c0-3.4,0.2-6.9,0.3-10.4c0-1.7-0.1-3.4-0.1-5.2c-0.1-4.8,0-10.1,0.3-15
					c0.1-1.7,0-3.4,0-5.1c0-0.8,0-1.6,0-2.4c0-0.4-0.2-0.8-0.6-0.8c-0.4,0-0.8,0.3-0.8,0.7c0,0.9,0,1.9,0,2.9
					c0,4.7-0.1,9.5-0.2,14.4c0,1.6-0.2,3.2-0.2,4.7c0,1.1,0.3,2.3,0.3,3.4c0,2.1-0.3,4.2-0.2,6.3c0.1,2.3-0.1,4.5-0.1,6.9
					c0,1.1,0.1,2.3,0.1,3.4c0,2.8-0.4,8.8-0.2,11.8c0,0.8,0.1,1.7,0,2.5c0,1.1,0,3.7,0,4c0,0.6,0.1,1.2,0.1,1.9
					c0.1,1.8-0.2,3.9,0,5.7c0,0.7,0.2,1.3,0.2,2c0,3.5-0.1,7.1,0,10.6c0.1,3.4,0.3,39.9,0.2,43.3c0,0.9,0,2,0,2.9
					c0,4.7-0.1,9.5-0.2,14.4c0,1.6-0.2,21.2-0.2,22.7c0,1.1,0.3,2.3,0.3,3.4c0,2.1-0.3,4.2-0.2,6.3c0.1,2.3-0.1,4.5-0.1,6.9
					c0,1.1,0.1,2.3,0.1,3.4c0,2.8-0.4,54.7-0.2,57.8c0.4,5,0.2,14.4-0.6,19.3c-0.4,2.1-0.8,3.8-1.6,5.8c-1.4,3.4-2.9,6.8-5,9.5
					c-0.4,0.5-0.9,0.7-1.3,1.3c-0.3,0.4-1.1,1.3-0.9,1.6c0.3,0.4,1-0.1,1.4-0.4c0.6-0.4,0.9-0.6,1.3-0.7c1.8-0.7,4.4-0.6,5.6,0.3
					C-540.2,998.8-539.2,1001.4-538.8,999.2z M-539.5,984.2c0.2,0.4,0.1,2.3-0.3,2.6C-541.5,987.7-540,983.3-539.5,984.2z
					 M-541.6,989.3c-0.5-0.8,1.6-2.3,2.1-0.9c0.1,0.4,0.1,0.8-0.1,1C-540,989.6-541.4,989.5-541.6,989.3z M-542.9,992
					c-0.2-0.3,0.2-1.2,0.6-1.5c0.8-0.5,2.5-0.3,2.7,0.3c0.5,1.2-0.6,1.2-1.7,1.3C-542,992.2-542.7,992.3-542.9,992z M-545.4,996.3
					c-0.3-0.5,0.6-0.9,0.8-1.1c0.2-0.3,0.2-0.8,0.4-1.1c0.5-0.8,0.7-0.7,1.9-0.8c1.3-0.1,2.3-0.3,2.6,0.4c0.1,0.2,0,1-0.3,1.2
					c-0.2,0.1-0.6,0-0.9,0c-1.1,0-3.3,0.1-3.6,0.5c-0.2,0.4,0.2,0.8,0,1C-544.7,996.5-545.3,996.4-545.4,996.3z M-540.9,997.1
					c-0.6-0.3-1.4-0.5-2.1-0.7c-0.3-0.1-0.4-0.5-0.1-0.5c1-0.3,3-0.1,3.3,0.2c0.2,0.3,0.3,1.2,0,1.4
					C-540.2,997.7-540.7,997.2-540.9,997.1z"/>
			</g>
			<g id="XMLID_1049_">
				<path id="XMLID_1057_" class="st1" d="M-541.7,446.8c6.4,3.5,7.6,9.1,7.6,16.1c0,7.1-0.6,14.2-0.1,21.3c0.1,1.5,0,3,0.1,4.5
					c0.2,4.4,0,8.8,0.2,13.2c0.1,1.5,0.1,3.1,0,4.6c-0.1,3.5,0.2,7,0.1,10.4c-0.1,1.5,0,7,0,8.5c0,1.9-0.2,0.8-0.3,2.7
					c-0.1,1.9,0,27.9,0,29.9c0,2-0.3,20.9-0.2,22.8c0.2,2,0.2,3.9,0.2,5.9c0,2,0.1,8.9,0.1,10.9c0,4-0.1,7.9-0.1,11.9
					c0,1.9,0.2,11.2,0.1,13.1c-0.1,2,0,4-0.1,6c-0.1,2.2-0.1,9.4-0.2,11.6c-0.1,4.7-0.2,9.5,0,14.2c0.1,2.3-0.1,4.2,0,6.5
					c0,0.2,0,0.6,0,0.9c0.1,1.5,0.2,3.7,0.1,4.8c-0.1,1.5,0,3.3,0,4.8c0,1.9,0.1,3.9,0,5.8c-0.1,1.9,0,3.9,0,5.9c0,2-0.3,4-0.2,5.9
					c0.2,2,0.2,3.9,0.2,5.9c0,2,0.1,4.1,0.1,6c0,4-0.1,7.9-0.1,11.9c0,1.9,0.2,3.9,0.1,5.8c0,0.6,0,1.3,0,1.9c0,0.5-0.5,1-1,1
					c-0.6,0-1-0.5-1-1.1c0-3-0.1-6.3,0.1-9.2c0-1.1-0.1-2.1-0.2-3.1c-0.1-1.8,0-3.7,0-5.6c0-1.9-0.1-3.8-0.1-5.7c0-2,0.1-4.1,0-6.1
					c-0.4-7.3,0.4-14.9,0-22c-0.2-3.5,0-7.1,0-10.6c0-1-0.2-2.1-0.1-3.2c0.2-4.4-0.1-9,0.2-12.8c0.2-2.1,0.1-9.1,0-11.2
					c0-2.2,0.1-4.3,0.1-6.3c0-3.1-0.1-13.6,0.1-16.6c0-1.1-0.1-2.1-0.2-3.1c-0.1-1.8,0-3.7,0-5.6c0-1.9-0.1-8.7-0.1-10.6
					c0-2,0.1-1.1,0-3.1c-0.4-7.3,0.4-59.7,0-66.8c-0.1-1.3,0.2-2.5,0.2-3.5c0-2.2-0.2-4.5-0.2-6.8c0-2.3,0.1-4.5,0.1-6.9
					c0-2.2-0.2-4.4-0.3-6.7c-0.2-2.8-0.1-5.6-0.3-8.5c-0.1-1.4,0-2.9,0-4.3c0-2.7,0.1-5.4,0.3-8.1c0.1-1.4,0-2.7,0-4.1
					c0-5.8,0.3-11.5-1.4-15.8c-0.7-1.7-3.4-4.3-4.9-5.2c-1.3-0.7-2.5-1.2-4.4-1.2c-1.7,0-2.9-0.1-4.6,0.5c-2.5,0.8-4.6,3.3-5.1,5.9
					c-0.2,0.9-0.2,2-0.1,3.1c0.2,1.7,0.8,3.7,1.8,4.7c1.2,1.1,5.3,2.9,6.9,1.1c0.3-0.4,0.9-1.9,0.8-2.6c-0.2-1.3-2.4-1.4-2.5-2.9
					c-0.2-2.4,2.8-2.3,4.3-1.5c0.9,0.5,1.5,1.6,1.7,2.4c0.4,1.6-0.2,2.9-0.6,3.9c-0.6,1.2-1.2,1.8-2.2,2.6c-1,0.7-1.8,1-0.7,1.9
					c1.8,1.4,3.1,3.4,4.3,5.2c1.4,2.1,2.7,5.1,2.6,8.3c-0.1,2.3-1,4.3-2.9,5.2c-1.7,0.8-4.2-0.2-5-1.3c-0.6-0.9-1.3-3.2-0.6-4.4
					c0.3-0.5,1.7-1.3,2.7-0.7c0.4,0.3,0.6,1,0.7,1.5c0.1,0.5,0.1,1.4,0.7,1.5c1,0.2,1.7-1.5,1.8-2.4c0.2-1.9-0.3-4.2-0.9-5.6
					c-0.6-1.5-1.9-3.3-3.1-4.4c-2.1-2.2-5-2.8-7.6-4.4c-2.2-1.4-4.2-3.3-4.7-6.5c-0.1-0.5-0.1-1.6-0.1-2.3c-0.1-1.3-0.1-1.9,0.3-3.1
					c0.2-0.5,0.4-1.1,0.5-1.5c0.8-1.5,2.5-3.6,4-4.5c1.3-0.8,2.7-1.5,4.3-1.7C-547,445.1-543.8,445.6-541.7,446.8z"/>
				<path id="XMLID_1050_" class="st1" d="M-540.8,488c-1.2,0.9-3.8,1.1-5.6,0.3c-0.4-0.2-0.8-0.4-1.3-0.7c-0.4-0.3-1.1-0.8-1.4-0.4
					c-0.3,0.3,0.5,1.2,0.9,1.6c0.5,0.6,1,0.8,1.3,1.3c2.1,2.7,3.6,6,5,9.5c0.8,2,1.3,3.7,1.6,5.8c0.9,4.9,1,9.5,0.6,14.4
					c-0.2,3,0.2,7.1,0.2,9.9c0,1.1,0,2.3-0.1,3.4c-0.1,2.3,0.2,45.4,0.1,47.7c-0.1,2.1,0.2,4.2,0.2,6.3c0,1.1-0.3,7.1-0.3,8.3
					c0,1.5,0.1,3.1,0.2,4.7c0,4.9,0.2,17,0.2,21.7c0,0.9,0,1.9,0,2.9c0.2,3.5,0,11.9-0.2,15.3c-0.1,3.5,0,7.1,0,10.6
					c0,0.7-0.2,1.4-0.2,2c-0.1,1.9,0.1,3.9,0,5.7c0,0.6-0.1,1.3-0.1,1.9c0,0.3,0,2.9,0,4c0,0.8,0,1.7,0,2.5c-0.2,3,0.2,9,0.2,11.8
					c0,1.1,0,2.3-0.1,3.4c-0.1,2.3,0.2,4.6,0.1,6.9c-0.1,2.1,0.2,4.2,0.2,6.3c0,1.1-0.3,2.3-0.3,3.4c0,1.5,0.1,3.1,0.2,4.7
					c0,4.9,0.2,9.7,0.2,14.4c0,0.9,0,2,0,2.9c0,0.4,0.4,0.7,0.8,0.7c0.4,0,0.7-0.1,0.7-0.6c0-0.9,0-1.8,0-2.6c0-1.7,0.1-3.4,0-5.1
					c-0.3-5-0.4-10.3-0.3-15c0.1-1.7,0.1-3.5,0.1-5.2c0-3.5-0.3-7-0.3-10.4c0-2.1,0.1-4.6,0.1-6.9c0-1.2-0.2-2.4-0.2-3.6
					c0-2.3,0.1-4.6,0-6.9c0-0.9,0.1-1.8,0.1-2.7c0-1.3,0.1-2.1,0.1-3c0.1-2.5-0.1-4.7-0.1-6.6c0-0.9,0.2-1.7,0.2-2.5
					c0-0.8,0-1.7-0.1-2.5c-0.1-1.8,0.1-3.5,0.1-5.3c0-2.7,0.2-10.2,0.2-12.8c0-0.9,0.2-1.7,0.2-2.6c0-1.6-0.1-3.2-0.2-4.8
					c0-1.7,0.1-3.4,0-5.1c-0.3-5-0.4-17.5-0.3-22.3c0.1-1.7,0.1-8.3,0.1-10c0-3.5-0.3-23.8-0.3-27.2c0-2.1,0.1-28.6,0.1-30.9
					c0-1.2-0.2,0.6-0.2-0.6c0-1.2-0.1-7.5,0-8.7c0.2-3.3,0.1-5.8,0-8.9c0-1.3,0-2.7,0-4.1c0-1.4,0-2.8-0.1-4.2c-0.1-1.1,0-2.2,0-3.4
					c0-1.4-0.2-3.8-0.2-5.6c0-1.1,0.1-3-0.2-4.2C-539.2,485-540.2,487.5-540.8,488z M-539.8,499.6c0.4,0.2,0.5,2.2,0.3,2.6
					C-540,503-541.5,498.6-539.8,499.6z M-539.7,497c0.2,0.2,0.3,0.6,0.1,1c-0.5,1.4-2.6-0.2-2.1-0.9
					C-541.4,496.8-540,496.7-539.7,497z M-541.3,494.2c1.1,0.1,2.1,0.1,1.7,1.3c-0.2,0.6-1.9,0.9-2.7,0.3c-0.4-0.3-0.8-1.2-0.6-1.5
					C-542.7,494-542,494.1-541.3,494.2z M-544.5,490.1c0.1,0.2-0.2,0.6,0,1c0.2,0.4,2.4,0.5,3.6,0.5c0.4,0,0.7-0.1,0.9,0
					c0.3,0.2,0.4,1,0.3,1.2c-0.2,0.7-1.3,0.5-2.6,0.4c-1.2-0.1-1.5,0-1.9-0.8c-0.2-0.3-0.2-0.9-0.4-1.1c-0.2-0.3-1.1-0.7-0.8-1.1
					C-545.3,490-544.7,489.8-544.5,490.1z M-539.8,488.9c0.3,0.2,0.2,1.2,0,1.4c-0.3,0.3-2.3,0.5-3.3,0.2c-0.3-0.1-0.1-0.5,0.1-0.5
					c0.7-0.2,1.5-0.4,2.1-0.7C-540.7,489.2-540.2,488.7-539.8,488.9z"/>
			</g>
		</g>
		<g id="XMLID_1031_">
			<path id="XMLID_1040_" class="st1" d="M-536,1042.5c-0.7,0.5-1.5,1.1-2.2,1.5c-0.6,0.3-1.4,0.5-2.3,0.8c-0.7,0.3-1.6,0.4-2.5,0.6
				c-4.9,0.8-9.7-0.2-12.9-1.9c-0.4-0.2-0.6-0.4-1.1-0.4c-0.6,0-0.9,0.2-1,0.6c-0.1,0.6,1,1.3,1.4,1.7c0.5,0.5,1,1.3,1.4,1.7
				c2.1,2.4,3.9,4.6,5.8,6.8c1,1.1,2,2.2,3,3.3c2,2.2,3.6,4.8,5.7,6.9c0.5,0.5,0.9,1.1,1.5,1.8c0.4,0.4,1.1,1.2,1.7,2.4
				c1,2,1.9,4.8,1.9,7.4c0,1.5-0.5,4-2,5.5c-0.7,0.7-2.4,1.5-3.1,0.8c-0.5-0.4,0-1.1,0.2-1.6c0.2-0.4,0.4-1.2,0.2-1.6
				c-0.5-1.1-2.1-1.2-2.6-0.9c-1.2,0.6-1.9,2.9-1.9,4.1c0,1.3,1.6,3.5,3.5,3.8c2,0.2,4.4-0.7,5.7-2.6c1.8-2.6,1.9-5.7,1.9-8.1
				c0-2.2,0.2-5,0-7.3c-0.2-3.5-0.1-6.6-0.2-10.5c-0.1-4.7,0.1-9.4,0-13.8c0-0.8,0.2-1.9,0-2.2
				C-534.3,1040.7-535.4,1042.1-536,1042.5z M-535.6,1066.5c0.1,0.2,0.2,1.1-0.2,1.2c-0.4,0.2-1-0.8-1.3-1.1
				c-0.4-0.5-0.6-0.9-0.9-1.3c-0.3-0.4-0.8-0.7-1.2-1.1c-0.4-0.4-0.7-0.8-1.1-1.2c-2.2-2.3-3.9-4.9-6.2-7.4
				c-1.5-1.6-2.8-3.1-4.2-4.9c-1.1-1.4-2-2.5-3.1-3.7c-0.1-0.1-1.1-0.9-0.8-1.3c0.3-0.3,1.1,0.2,1.5,0.3c0.4,0.1,1.2,0.3,1.3,0.5
				c0.2,0.2,0.3,0.9,0.3,1c0.1,0.3,0.4,0.5,0.7,0.8c0.6,0.7,1.4,1.7,2,2.4c0.9,1,1.8,2.2,2.7,3.3c0.5,0.6,1.1,0.9,1.5,1.5
				c0.4,0.5,0.6,1,1,1.4c0.4,0.4,0.8,0.8,1.1,1.2c0.6,0.7,1,1.5,1.6,2.2c0.9,1.1,1.5,2.1,2.6,3.1c0.3,0.3,0.6,0.7,0.9,1
				C-536.7,1065-535.8,1065.6-535.6,1066.5z M-535.8,1063.9c-0.5,0.2-1-0.9-1.3-1.2c-0.4-0.4-0.9-0.7-1.1-1
				c-0.5-0.6-0.9-1.3-1.4-1.9c-0.9-1.3-2-2.4-3-3.7c-0.5-0.6-0.9-1.3-1.4-1.9c-0.5-0.6-1.1-1-1.5-1.6c-1.1-1.4-2.4-2.8-3.6-4.2
				c-0.2-0.2-0.6-0.7-0.5-0.9c0.2-0.4,1.3-0.1,1.6,0.1c0.6,0.3,1,1.2,1.6,1.9c0.6,0.7,1.3,1.3,1.7,1.8c1,1.4,1.9,2.5,3.1,3.8
				c0.6,0.6,1.2,1.2,1.7,1.8c0.5,0.7,0.9,1.4,1.5,2c1,1.2,2.7,2.4,3,4.1C-535.5,1063.4-535.5,1063.8-535.8,1063.9z M-536.7,1057.4
				c0.5,0.6,1,1.2,1.1,1.8c0.2,1.8-1.3-0.1-1.6-0.4c-1-1.1-1.6-2-2.4-2.9c-0.4-0.5-0.8-0.9-1.3-1.3c-1-1.1-1.5-2.2-2.5-3.2
				c-0.6-0.6-1.3-1.4-1.9-2.3c-0.2-0.2-0.6-0.7-0.5-0.9c0.1-0.2,0.8-0.3,1.1-0.2c0.6,0.1,2,2,2.4,2.5c0.6,0.7,1.3,1.9,2.1,2.8
				c0.4,0.5,1,0.9,1.3,1.3C-538.1,1055.5-537.6,1056.3-536.7,1057.4z M-535.7,1055.4c0.1,0.4,0.2,1.1-0.1,1.2
				c-0.4,0.2-1.2-1.1-1.3-1.3c-0.4-0.5-0.7-1.2-1.1-1.5c-0.3-0.4-0.9-0.8-1.4-1.3c-0.9-1.1-1.4-1.9-2.4-3.1c-0.4-0.5-1.9-2.3-0.1-2
				c0.4,0.1,1.3,1.2,1.7,1.6c0.9,1.1,2.1,2.5,3,3.6C-536.8,1053.4-535.9,1054.2-535.7,1055.4z M-535.5,1050.6c0.1,0.4,0.3,1.9-0.3,2
				c-0.4,0.1-0.8-0.7-0.9-0.8c-0.4-0.5-0.6-0.7-0.8-0.9c-0.6-0.6-1.1-1.4-1.5-1.9c-0.3-0.4-1.5-1.3-1.3-1.9c0.1-0.3,1-0.6,1.5-0.5
				c0.6,0.1,1.2,1,1.7,1.6C-536.5,1049-535.7,1049.5-535.5,1050.6z M-535.9,1045.2c0.4,0.2,0.4,1,0.3,2c0,0.6-0.1,1.1-0.8,0.5
				c-0.2-0.2-1.1-1.3-1.1-1.6C-537.4,1045.8-536.4,1045-535.9,1045.2z"/>
			<path id="XMLID_1032_" class="st1" d="M-533.9,445c0.2-0.3,0-1.4,0-2.2c0-4.4-0.1-9.1,0-13.8c0-3.9-0.1-7,0.2-10.5
				c0.2-2.3,0-5.1,0-7.3c0-2.5-0.1-5.6-1.9-8.1c-1.3-1.8-3.7-2.8-5.7-2.6c-1.9,0.2-3.4,2.5-3.5,3.8c0,1.1,0.6,3.4,1.9,4.1
				c0.6,0.3,2.2,0.2,2.6-0.9c0.2-0.5,0-1.2-0.2-1.6c-0.2-0.5-0.7-1.2-0.2-1.6c0.7-0.7,2.5,0.2,3.1,0.8c1.5,1.5,1.9,3.9,2,5.5
				c0,2.6-0.9,5.4-1.9,7.4c-0.6,1.3-1.3,2-1.7,2.4c-0.6,0.8-1,1.3-1.5,1.8c-2.1,2.2-3.8,4.7-5.7,6.9c-1,1.2-2,2.2-3,3.3
				c-1.9,2.2-3.7,4.4-5.8,6.8c-0.4,0.5-0.9,1.2-1.4,1.7c-0.4,0.5-1.5,1.2-1.4,1.7c0.1,0.4,0.4,0.6,1,0.6c0.6,0,0.7-0.2,1.1-0.4
				c3.2-1.7,8-2.7,12.9-1.9c0.9,0.2,1.7,0.3,2.5,0.6c0.8,0.3,1.6,0.5,2.3,0.8c0.8,0.4,1.6,1,2.2,1.5
				C-535.4,444.3-534.3,445.7-533.9,445z M-537.3,422.1c-0.3,0.3-0.5,0.7-0.9,1c-1,1-1.7,1.9-2.6,3.1c-0.5,0.7-1,1.5-1.6,2.2
				c-0.3,0.4-0.8,0.8-1.1,1.2c-0.4,0.4-0.6,0.9-1,1.4c-0.5,0.6-1.1,0.9-1.5,1.5c-0.8,1-1.8,2.2-2.7,3.3c-0.7,0.7-1.4,1.7-2,2.4
				c-0.3,0.3-0.6,0.5-0.7,0.8c-0.1,0.2-0.2,0.8-0.3,1c-0.2,0.2-0.9,0.3-1.3,0.5c-0.3,0.1-1.2,0.6-1.5,0.3c-0.3-0.3,0.7-1.2,0.8-1.3
				c1.1-1.2,2-2.4,3.1-3.7c1.5-1.8,2.8-3.3,4.2-4.9c2.3-2.5,4-5.1,6.2-7.4c0.4-0.4,0.7-0.8,1.1-1.2c0.4-0.4,0.9-0.7,1.2-1.1
				c0.3-0.4,0.5-0.8,0.9-1.3c0.2-0.3,0.8-1.2,1.3-1.1c0.4,0.1,0.2,1,0.2,1.2C-535.8,420.8-536.7,421.4-537.3,422.1z M-535.6,423.3
				c-0.3,1.8-1.9,2.9-3,4.1c-0.5,0.6-0.9,1.3-1.5,2c-0.5,0.6-1.1,1.2-1.7,1.8c-1.2,1.3-2.1,2.4-3.1,3.8c-0.4,0.5-1.1,1.1-1.7,1.8
				c-0.6,0.7-1.1,1.6-1.6,1.9c-0.3,0.2-1.4,0.5-1.6,0.1c-0.1-0.2,0.3-0.8,0.5-0.9c1.3-1.4,2.5-2.8,3.6-4.2c0.5-0.6,1.1-1,1.5-1.6
				c0.5-0.6,0.9-1.3,1.4-1.9c1-1.3,2.1-2.4,3-3.7c0.5-0.7,0.9-1.4,1.4-1.9c0.3-0.3,0.8-0.6,1.1-1c0.3-0.3,0.7-1.4,1.3-1.2
				C-535.5,422.5-535.5,423-535.6,423.3z M-539,431.8c-0.4,0.4-0.9,0.7-1.3,1.3c-0.7,0.9-1.5,2.1-2.1,2.8c-0.4,0.5-1.8,2.4-2.4,2.5
				c-0.3,0.1-1,0-1.1-0.2c-0.1-0.3,0.3-0.7,0.5-0.9c0.7-0.9,1.4-1.6,1.9-2.3c1-1,1.5-2.1,2.5-3.2c0.4-0.5,0.8-0.8,1.3-1.3
				c0.8-1,1.4-1.8,2.4-2.9c0.3-0.3,1.8-2.2,1.6-0.4c-0.1,0.6-0.6,1.2-1.1,1.8C-537.6,430-538.1,430.9-539,431.8z M-537.5,433.8
				c-0.8,1.1-2.1,2.5-3,3.6c-0.4,0.4-1.3,1.5-1.7,1.6c-1.8,0.3-0.2-1.5,0.1-2c0.9-1.2,1.5-2,2.4-3.1c0.5-0.6,1.1-1,1.4-1.3
				c0.3-0.4,0.7-1,1.1-1.5c0.2-0.2,1-1.4,1.3-1.3c0.3,0.1,0.2,0.8,0.1,1.2C-535.9,432.1-536.8,432.9-537.5,433.8z M-537.2,438.2
				c-0.5,0.6-1.1,1.5-1.7,1.6c-0.5,0.1-1.4-0.2-1.5-0.5c-0.2-0.6,1-1.5,1.3-1.9c0.4-0.5,1-1.3,1.5-1.9c0.2-0.2,0.4-0.5,0.8-0.9
				c0.1-0.1,0.5-0.9,0.9-0.8c0.5,0.1,0.3,1.6,0.3,2C-535.7,436.8-536.5,437.3-537.2,438.2z M-537.4,440.3c0-0.3,0.9-1.4,1.1-1.6
				c0.7-0.6,0.8-0.1,0.8,0.5c0,1,0,1.8-0.3,2C-536.4,441.4-537.4,440.5-537.4,440.3z"/>
		</g>
		<g id="XMLID_1026_">
			<g id="XMLID_1028_">
				<path id="XMLID_1030_" class="st1" d="M-546.8,678.3c1.9,0.9,2.8,2.9,2.9,5.2c0.1,3.1-1.3,6.2-2.6,8.3c-1.2,1.8-2.5,3.8-4.3,5.2
					c-1.1,0.8-0.3,1.1,0.7,1.9c1,0.8,1.7,1.4,2.2,2.6c0.5,1,1,2.3,0.6,3.9c-0.2,0.8-0.7,1.8-1.7,2.4c-1.5,0.9-4.5,0.9-4.3-1.5
					c0.1-1.5,2.2-1.5,2.5-2.9c0.1-0.7-0.4-2.2-0.8-2.6c-1.6-1.7-5.7,0-6.9,1.1c-1,1-1.6,3-1.8,4.7c-0.1,1.1-0.1,2.1,0.1,3.1
					c0.4,2.6,2.5,5.1,5.1,5.9c1.7,0.6,2.9,0.5,4.6,0.5c1.8,0,3.3-0.3,4.7-0.9c2.1-0.9,3.6-2.1,4.8-4.2c0.8-1.3,1.6-3.1,1.5-5.5
					c0-0.9,1.1-0.9,1.2,0.2c0.2,2.7-0.7,5-1.4,6.3c-1.2,2.2-3.2,3.9-5.4,5.2c-2.2,1.2-5.3,1.7-8.6,1.3c-1.6-0.2-3-0.9-4.3-1.7
					c-1.5-0.9-3.2-3-4-4.5c-0.2-0.4-0.4-1-0.5-1.5c-0.4-1.2-0.4-1.8-0.3-3.1c0-0.7,0.1-1.8,0.1-2.3c0.5-3.2,2.4-5.1,4.7-6.5
					c2.6-1.6,5.4-2.2,7.6-4.4c1.1-1.2,2.5-2.9,3.1-4.4c0.6-1.4,1.1-3.7,0.9-5.6c-0.1-0.9-0.8-2.6-1.8-2.4c-0.6,0.1-0.6,0.9-0.7,1.5
					c-0.1,0.5-0.3,1.2-0.7,1.5c-1,0.6-2.4-0.1-2.7-0.7c-0.7-1.2,0-3.5,0.6-4.4C-551.1,678.5-548.5,677.5-546.8,678.3z"/>
				<path id="XMLID_1029_" class="st1" d="M-546.8,762.3c1.9-0.9,2.8-2.9,2.9-5.2c0.1-3.1-1.3-6.2-2.6-8.3c-1.2-1.8-2.5-3.8-4.3-5.2
					c-1.1-0.8-0.3-1.1,0.7-1.9c1-0.8,1.7-1.4,2.2-2.6c0.5-1,1-2.3,0.6-3.9c-0.2-0.8-0.7-1.8-1.7-2.4c-1.5-0.9-4.5-0.9-4.3,1.5
					c0.1,1.5,2.2,1.5,2.5,2.9c0.1,0.7-0.4,2.2-0.8,2.6c-1.6,1.7-5.7,0-6.9-1.1c-1-1-1.6-3-1.8-4.7c-0.1-1.1-0.1-2.1,0.1-3.1
					c0.4-2.6,2.5-5.1,5.1-5.9c1.7-0.6,2.9-0.5,4.6-0.5c1.8,0,3.3,0.3,4.7,0.9c2.1,0.9,3.6,2.1,4.8,4.2c0.8,1.3,1.6,3.1,1.5,5.5
					c0,0.9,1.1,0.9,1.2-0.2c0.2-2.7-0.7-5-1.4-6.3c-1.2-2.2-3.2-3.9-5.4-5.2c-2.2-1.2-5.3-1.7-8.6-1.3c-1.6,0.2-3,0.9-4.3,1.7
					c-1.5,0.9-3.2,3-4,4.5c-0.2,0.4-0.4,1-0.5,1.5c-0.4,1.2-0.4,1.8-0.3,3.1c0,0.7,0.1,1.8,0.1,2.3c0.5,3.2,2.4,5.1,4.7,6.5
					c2.6,1.6,5.4,2.2,7.6,4.4c1.1,1.2,2.5,2.9,3.1,4.4c0.6,1.4,1.1,3.7,0.9,5.6c-0.1,0.9-0.8,2.6-1.8,2.4c-0.6-0.1-0.6-0.9-0.7-1.5
					c-0.1-0.5-0.3-1.2-0.7-1.5c-1-0.6-2.4,0.1-2.7,0.7c-0.7,1.2,0,3.5,0.6,4.4C-551.1,762.1-548.5,763.1-546.8,762.3z"/>
			</g>
			<path id="XMLID_1027_" class="st1" d="M-559.3,721.3c0.4-0.1,0.8-0.3,1.2-0.4c0.2-0.1,1.6-0.7,0.6-1c-2.9-0.9-7.5-2.6-10.4-1.4
				c-1,0.4-1.3,1.4-1,2.5c0.4,1.2,1.5,1.5,2.5,1.6C-563.5,722.7-561.4,722-559.3,721.3z"/>
		</g>
		<g id="XMLID_1023_">
			<path id="XMLID_1025_" class="st1" d="M-539.6,754.6c-0.5,2.7-0.6,5.5-1.7,8c-1.2,2.7-4.1,3.6-6.7,4.1c-0.1,0-0.4,0.1-0.6,0.1
				c-0.5,0.1-0.6,0.7-0.3,1c0.2,0.1,0.4,0.3,0.5,0.4c0.5,0.5,1.2,1,1.7,1.5c1,1.2,1.9,2.4,2.7,3.7c1,1.6,1.7,3.4,2.4,5.2
				c1.2,2.9,1.9,6,2.1,9.1c0.1,1,1.1,0.5,1-0.5c-0.3-3.5-1-6.9-2.3-10c-0.1-0.4,0.1-0.8,0.6-0.8c0.2,0,0.3,0,0.5,0
				c0.5-0.1,0.5-0.9,0-1c-0.3,0-0.6-0.1-0.9-0.1c-0.6,0-1.1-0.3-1.4-0.8c0-0.1-0.1-0.2-0.1-0.3c-0.2-0.4,0.2-0.7,0.6-0.7
				c0.8,0.1,1.5,0.1,2.2,0c0.6-0.1,0.6-1,0-1.1c-0.6-0.1-1.1,0-1.7,0c-0.4,0-0.8,0-1.2,0c-0.6,0-1.1-0.3-1.4-0.7
				c-0.1-0.1-0.1-0.2-0.2-0.2c-0.2-0.3,0-0.7,0.4-0.6c1.3,0.1,2.5,0.1,3.8,0.1c0.8,0,0.8-1.2,0-1.2c-1.5,0-3.1,0.1-4.6-0.1
				c-0.6,0-1.2-0.3-1.6-0.8c-0.2-0.2-0.3-0.4-0.5-0.5c-0.2-0.2-0.1-0.5,0.1-0.7c0.5-0.3,1.1,0,1.7,0c1.6,0,3.2-0.2,4.8-0.1
				c0.7,0.1,0.8-1.1,0.2-1.2c-0.7-0.2-1.4-0.1-2.2,0c-0.1,0-0.2,0-0.3,0c-0.3,0-0.4-0.3-0.2-0.4c0.4-0.3,0.8-0.6,1.1-1
				c2.6-2.6,2.4-7.3,2.7-10.3C-538.3,753.7-539.4,753.7-539.6,754.6z"/>
			<path id="XMLID_1024_" class="st1" d="M-539.6,686c-0.5-2.7-0.6-5.5-1.7-8c-1.2-2.7-4.1-3.6-6.7-4.1c-0.1,0-0.4-0.1-0.6-0.1
				c-0.5-0.1-0.6-0.7-0.3-1c0.2-0.1,0.4-0.3,0.5-0.4c0.5-0.5,1.2-1,1.7-1.5c1-1.2,1.9-2.4,2.7-3.7c1-1.6,1.7-3.4,2.4-5.2
				c1.2-2.9,1.9-6,2.1-9.1c0.1-1,1.1-0.5,1,0.5c-0.3,3.5-1,6.9-2.3,10c-0.1,0.4,0.1,0.8,0.6,0.8c0.2,0,0.3,0,0.5,0.1
				c0.5,0.1,0.5,0.9,0,1c-0.3,0-0.6,0.1-0.9,0.1c-0.6,0-1.1,0.3-1.4,0.8c0,0.1-0.1,0.2-0.1,0.3c-0.2,0.4,0.2,0.7,0.6,0.7
				c0.8-0.1,1.5-0.1,2.2,0c0.6,0.1,0.6,1,0,1.1c-0.6,0.1-1.1,0-1.7,0c-0.4,0-0.8,0-1.2,0c-0.6,0-1.1,0.3-1.4,0.7
				c-0.1,0.1-0.1,0.2-0.2,0.2c-0.2,0.3,0,0.7,0.4,0.6c1.3-0.1,2.5-0.1,3.8-0.1c0.8,0,0.8,1.2,0,1.2c-1.5,0-3.1,0-4.6,0.1
				c-0.6,0-1.2,0.3-1.6,0.8c-0.2,0.2-0.3,0.4-0.5,0.5c-0.2,0.2-0.1,0.5,0.1,0.7c0.5,0.3,1.1,0,1.7,0c1.6,0,3.2,0.2,4.8,0.1
				c0.7-0.1,0.8,1.1,0.2,1.2c-0.7,0.2-1.4,0.1-2.2,0c-0.1,0-0.2,0-0.3,0c-0.3,0-0.4,0.3-0.2,0.4c0.4,0.3,0.8,0.6,1.1,1
				c2.6,2.6,2.4,7.3,2.7,10.3C-538.3,686.9-539.4,686.9-539.6,686z"/>
		</g>
	</g>
</g>
<line class="st2" x1="-538.9" y1="648.2" x2="-538.9" y2="793.6"/>
</svg>
