<?xml version="1.0" encoding="utf-8"?>
<!-- Generator: Adobe Illustrator 19.0.0, SVG Export Plug-In . SVG Version: 6.00 Build 0)  -->
<svg version="1.1" id="Layer_1" xmlns="http://www.w3.org/2000/svg" xmlns:xlink="http://www.w3.org/1999/xlink" x="0px" y="0px"
	 viewBox="-286 329.7 37.7 135.3" style="enable-background:new -286 329.7 37.7 135.3;" xml:space="preserve">
<style type="text/css">
	.st0{fill:none;}
	.st1{fill:#414042;}
</style>
<path class="st0" d="M-252.7,333.5c-0.1,1.2,0,7.5,0,8.7s0.2-0.6,0.2,0.6c0,2.3-0.1,28.8-0.1,30.9c0,3.4,0.3,23.7,0.3,27.2
	c0,1.7,0,8.3-0.1,10c-0.1,4.8,0,17.3,0.3,22.3c0.1,1.7,0,3.4,0,5.1c0.1,1.6,0.2,3.2,0.2,4.8c0,0.9-0.2,1.7-0.2,2.6
	c0,2.6-0.2,10.1-0.2,12.8c0,1.8-0.2,3.5-0.1,5.3c0.1,0.8,0.1,1.7,0.1,2.5c0,0.7-0.2,1.5-0.2,2.3h2c0-3.6-0.1-7.2,0.1-10.3
	c0.2-2.1,0.1-9.1,0-11.2c0-2.2,0.1-4.3,0.1-6.3c0-3.1-0.1-13.6,0.1-16.6c0-1.1-0.1-2.1-0.2-3.1c-0.1-1.8,0-3.7,0-5.6
	c0-1.9-0.1-8.7-0.1-10.6c0-2,0.1-1.1,0-3.1c-0.4-7.3,0.4-59.7,0-66.8c-0.1-1.3,0.2-2.5,0.2-3.5c0-2.2-0.2-4.5-0.2-6.8
	c0-0.3,0-0.5,0-0.7h-2.2c0,0.2,0,0.4,0,0.6C-252.6,327.7-252.5,330.2-252.7,333.5z"/>
<path class="st1" d="M-250.5,324.7c0,2.3,0.2,4.6,0.2,6.8c0,1-0.3,2.2-0.2,3.5c0.4,7.1-0.4,59.5,0,66.8c0.1,2,0,1.1,0,3.1
	c0,1.9,0.1,8.7,0.1,10.6c0,1.9-0.1,3.8,0,5.6c0.1,1,0.2,2,0.2,3.1c-0.2,3-0.1,13.5-0.1,16.6c0,2-0.1,4.1-0.1,6.3
	c0.1,2.1,0.2,9.1,0,11.2c-0.2,3.1-0.1,6.7-0.1,10.3h0.1h1.9c-0.1-4,0-8.1,0.1-12.2c0.1-2.2,0.1-9.4,0.2-11.6c0.1-2,0-4,0.1-6
	c0.1-1.9-0.1-11.2-0.1-13.1c0-4,0.1-7.9,0.1-11.9c0-2-0.1-8.9-0.1-10.9s0-3.9-0.2-5.9c-0.1-1.9,0.2-20.8,0.2-22.8s-0.1-28,0-29.9
	c0.1-1.9,0.3-0.8,0.3-2.7c0-1.5-0.1-7,0-8.5c0.2-3-0.1-6.1-0.1-9.1h-2.4C-250.5,324.2-250.5,324.4-250.5,324.7z"/>
<path class="st1" d="M-252.5,468.6c0-0.8,0.2-1.5,0.2-2.3c0-0.8,0-1.7-0.1-2.5c-0.1-1.8,0.1-3.5,0.1-5.3c0-2.7,0.2-10.2,0.2-12.8
	c0-0.9,0.2-1.7,0.2-2.6c0-1.6-0.1-3.2-0.2-4.8c0-1.7,0.1-3.4,0-5.1c-0.3-5-0.4-17.5-0.3-22.3c0.1-1.7,0.1-8.3,0.1-10
	c0-3.5-0.3-23.8-0.3-27.2c0-2.1,0.1-28.6,0.1-30.9c0-1.2-0.2,0.6-0.2-0.6s-0.1-7.5,0-8.7c0.2-3.3,0.1-5.8,0-8.9c0-0.2,0-0.4,0-0.6
	h-1.5c0.5,4,0.6,7.9,0.2,12c-0.2,3,0.2,7.1,0.2,9.9c0,1.1,0,2.3-0.1,3.4c-0.1,2.3,0.2,45.4,0.1,47.7c-0.1,2.1,0.2,4.2,0.2,6.3
	c0,1.1-0.3,7.1-0.3,8.3c0,1.5,0.1,3.1,0.2,4.7c0,4.9,0.2,17,0.2,21.7c0,0.9,0,1.9,0,2.9c0.2,3.5,0,11.9-0.2,15.3
	c-0.1,3.5,0,7.1,0,10.6c0,0.6-0.1,1.2-0.2,1.8h1.2H-252.5z"/>
</svg>
