<?xml version="1.0" encoding="utf-8"?>
<!-- Generator: Adobe Illustrator 19.0.0, SVG Export Plug-In . SVG Version: 6.00 Build 0)  -->
<svg version="1.1" id="Layer_1" xmlns="http://www.w3.org/2000/svg" xmlns:xlink="http://www.w3.org/1999/xlink" x="0px" y="0px"
	 viewBox="-237 380.4 135.9 33.6" style="enable-background:new -237 380.4 135.9 33.6;" xml:space="preserve">
<style type="text/css">
	.st0{fill:#FFFFFF;}
	.st1{fill:#414042;}
</style>
<g id="XMLID_268_">
	<path id="XMLID_879_" class="st0" d="M-231,381.7l22.4-0.3c-8.3,2.9-7.4,9.6-7.4,9.6C-221,384.3-231,381.7-231,381.7z"/>
	<path id="XMLID_878_" class="st0" d="M-106.8,381.6l-22.4-0.2c7.3,2.6,7.2,8.8,7.2,8.8C-114.2,383.9-106.8,381.6-106.8,381.6z"/>
	<g id="XMLID_273_">
		<g id="XMLID_314_">
			<g id="XMLID_331_">
				<path class="st1" d="M-98.6,380.2c-0.1,0-0.3,0-0.4,0c-0.8,0-1.7,0.1-2.5,0.2c-1.8,0.1-4.1-0.1-6.6-0.1c-0.9,0-1.7,0.1-3,0.1
					c-0.9,0-1.8,0-2.7,0.1c-2.3-0.1-4.6,0-6.9,0c-1.2,0-2.4-0.2-3.6-0.2c-2.3,0-4.8,0-6.9,0.1c-3.4,0-6.9-0.2-10.4-0.3
					c-1.7,0-3.4,0.1-5.2,0.1c-4.8,0.1-10.1,0-15-0.3c-1.7-0.1-3.4,0-5.1,0h-2.4c-0.4,0-0.8,0.2-0.8,0.6s0.3,0.8,0.7,0.8h2.9
					c4.7,0,9.5,0.1,14.4,0.2c1.6,0,3.2,0.2,4.7,0.2c1.1,0,2.3-0.3,3.4-0.3c2.1,0,4.2,0.3,6.3,0.2c2.3-0.1,4.5,0.1,6.9,0.1
					c1.1,0,2.3-0.1,3.4-0.1c2.8,0,8.8,0.4,11.8,0.2c0.8,0,1.7-0.1,2.5,0h4c0.6,0,1.2-0.1,1.9-0.1c1.8-0.1,3.9,0.2,5.7,0
					c0.7,0,1.3-0.2,2-0.2c0.4,0,0.8,0,1.3,0C-98.4,381.1-98.6,380.7-98.6,380.2z"/>
			</g>
			<g id="XMLID_315_">
				<path class="st1" d="M-168.6,380h-2.6c-1.7,0-3.4-0.1-5.1,0c-5,0.3-10.3,0.4-15,0.3c-1.7-0.1-3.5-0.1-5.2-0.1
					c-3.5,0-6.9,0.2-10.3,0.2c-2.1,0-4.6-0.1-6.9-0.1c-1.2,0-2.4,0.2-3.6,0.2c-2.3,0-4.6-0.1-6.9,0c-0.9,0-1.8-0.1-2.7-0.1
					c-1.4,0.1-2.2,0-3.1,0c-2.5-0.1-4.7,0.1-6.6,0c-0.9,0-1.7-0.2-2.5-0.2c-0.3,0-0.7,0-1.1,0c0,0.5,0,0.9-0.1,1.4
					c0.5,0,1.1,0,1.6,0c0.7,0,1.4,0.2,2,0.2c1.9,0.1,3.9-0.1,5.7,0c0.6,0,1.3,0.1,1.9,0.1h6.5c3,0.2,9-0.2,11.8-0.2
					c1.1,0,2.3,0,3.4,0.1c2.3,0.1,4.6-0.2,6.9-0.1c2.1,0.1,4.2-0.2,6.3-0.2c1.1,0,2.3,0.3,3.4,0.3c1.5,0,3.1-0.1,4.7-0.2
					c4.9,0,9.7-0.2,14.4-0.2h2.9c0.5,0,0.8-0.3,0.8-0.7C-168,380.3-168.1,380-168.6,380z"/>
			</g>
		</g>
		<g id="XMLID_277_">
			<g id="XMLID_307_">
				<path id="XMLID_313_" class="st1" d="M-211,389c0.9-1.9,2.9-2.8,5.2-2.9c3.1-0.1,6.2,1.3,8.3,2.6c1.8,1.2,3.8,2.5,5.2,4.3
					c0.8,1.1,1.1,0.3,1.9-0.7c0.8-1,1.4-1.7,2.6-2.2c1-0.5,2.3-1,3.9-0.6c0.8,0.2,1.8,0.7,2.4,1.7c0.9,1.5,0.9,4.5-1.5,4.3
					c-1.5-0.1-1.5-2.2-2.9-2.5c-0.7-0.1-2.2,0.4-2.6,0.8c-1.7,1.6,0,5.7,1.1,6.9c1,1,3,1.6,4.7,1.8c1.1,0.1,2.1,0.1,3.1-0.1
					c2.6-0.4,5.1-2.5,5.9-5.1c0.6-1.7,0.5-2.9,0.5-4.6c0-1.8-0.3-3.3-0.9-4.7c-0.9-2.1-2.1-3.6-4.2-4.8c-1.3-0.8-3.1-1.6-5.5-1.5
					c-0.9,0-0.9-1.1,0.2-1.2c2.7-0.2,5,0.7,6.3,1.4c2.2,1.2,3.9,3.2,5.2,5.4c1.2,2.2,1.7,5.3,1.3,8.6c-0.2,1.6-0.9,3-1.7,4.3
					c-0.9,1.5-3,3.2-4.5,4c-0.4,0.2-1,0.4-1.5,0.5c-1.2,0.4-1.8,0.4-3.1,0.3c-0.7,0-1.8-0.1-2.3-0.1c-3.2-0.5-5.1-2.4-6.5-4.7
					c-1.6-2.6-2.2-5.4-4.4-7.6c-1.2-1.1-2.9-2.5-4.4-3.1c-1.4-0.6-3.7-1.1-5.6-0.9c-0.9,0.1-2.6,0.8-2.4,1.8
					c0.1,0.6,0.9,0.6,1.5,0.7c0.5,0.1,1.2,0.3,1.5,0.7c0.6,1-0.1,2.4-0.7,2.7c-1.2,0.7-3.5,0-4.4-0.6
					C-210.8,393.3-211.9,390.7-211,389z"/>
				<path id="XMLID_312_" class="st1" d="M-127.1,389c-0.9-1.9-2.9-2.8-5.2-2.9c-3.1-0.1-6.2,1.3-8.3,2.6c-1.8,1.2-3.8,2.5-5.2,4.3
					c-0.8,1.1-1.1,0.3-1.9-0.7s-1.4-1.7-2.6-2.2c-1-0.5-2.3-1-3.9-0.6c-0.8,0.2-1.8,0.7-2.4,1.7c-0.9,1.5-0.9,4.5,1.5,4.3
					c1.5-0.1,1.5-2.2,2.9-2.5c0.7-0.1,2.2,0.4,2.6,0.8c1.7,1.6,0,5.7-1.1,6.9c-1,1-3,1.6-4.7,1.8c-1.1,0.1-2.1,0.1-3.1-0.1
					c-2.6-0.4-5.1-2.5-5.9-5.1c-0.6-1.7-0.5-2.9-0.5-4.6c0-1.8,0.3-3.3,0.9-4.7c0.9-2.1,2.1-3.6,4.2-4.8c1.3-0.8,3.1-1.6,5.5-1.5
					c0.9,0,0.9-1.1-0.2-1.2c-2.7-0.2-5,0.7-6.3,1.4c-2.2,1.2-3.9,3.2-5.2,5.4c-1.2,2.2-1.7,5.3-1.3,8.6c0.2,1.6,0.9,3,1.7,4.3
					c0.9,1.5,3,3.2,4.5,4c0.4,0.2,1,0.4,1.5,0.5c1.2,0.4,1.8,0.4,3.1,0.3c0.7,0,1.8-0.1,2.3-0.1c3.2-0.5,5.1-2.4,6.5-4.7
					c1.6-2.6,2.2-5.4,4.4-7.6c1.2-1.1,2.9-2.5,4.4-3.1c1.4-0.6,3.7-1.1,5.6-0.9c0.9,0.1,2.6,0.8,2.4,1.8c-0.1,0.6-0.9,0.6-1.5,0.7
					c-0.5,0.1-1.2,0.3-1.5,0.7c-0.6,1,0.1,2.4,0.7,2.7c1.2,0.7,3.5,0,4.4-0.6C-127.3,393.3-126.2,390.7-127.1,389z"/>
			</g>
			<path id="XMLID_278_" class="st1" d="M-167.9,402.8c-0.1-0.5-0.3-0.9-0.5-1.3c-0.1-0.3-0.8-1.8-1.2-0.7c-1.1,3.3-3,8.6-1.6,11.9
				c0.5,1.1,1.7,1.5,2.8,1.1c1.4-0.5,1.8-1.7,1.8-2.9C-166.3,407.6-167.1,405.3-167.9,402.8z"/>
		</g>
		<g id="XMLID_274_">
			<path id="XMLID_276_" class="st1" d="M-134.8,381.8c2.7,0.5,5.5,0.6,8,1.7c2.7,1.2,3.6,4.1,4.1,6.7c0,0.1,0.1,0.4,0.1,0.6
				c0.1,0.5,0.7,0.6,1,0.3c0.1-0.2,0.3-0.4,0.4-0.5c0.5-0.5,1-1.2,1.5-1.7c1.2-1,2.4-1.9,3.7-2.7c1.6-1,3.4-1.7,5.2-2.4
				c2.9-1.2,6-1.9,9.1-2.1c1-0.1,0.5-1.1-0.5-1c-3.5,0.3-6.9,1-10,2.3c-0.4,0.1-0.8-0.1-0.8-0.6c0-0.2,0-0.3,0-0.5
				c-0.1-0.5-0.9-0.5-1,0c0,0.3-0.1,0.6-0.1,0.9c0,0.6-0.3,1.1-0.8,1.4c-0.1,0-0.2,0.1-0.3,0.1c-0.4,0.2-0.7-0.2-0.7-0.6
				c0.1-0.8,0.1-1.5,0-2.2c-0.1-0.6-1-0.6-1.1,0s0,1.1,0,1.7c0,0.4,0,0.8,0,1.2c0,0.6-0.3,1.1-0.7,1.4c-0.1,0.1-0.2,0.1-0.2,0.2
				c-0.3,0.2-0.7,0-0.6-0.4c0.1-1.3,0.1-2.5,0.1-3.8c0-0.8-1.2-0.8-1.2,0c0,1.5,0.1,3.1-0.1,4.6c0,0.6-0.3,1.2-0.8,1.6
				c-0.2,0.2-0.4,0.3-0.5,0.5c-0.2,0.2-0.5,0.1-0.7-0.1c-0.3-0.5,0-1.1,0-1.7c0-1.6-0.2-3.2-0.1-4.8c0.1-0.7-1.1-0.8-1.2-0.2
				c-0.2,0.7-0.1,1.4,0,2.2c0,0.1,0,0.2,0,0.3c0,0.3-0.3,0.4-0.4,0.2c-0.3-0.4-0.6-0.8-1-1.1c-2.6-2.6-7.3-2.4-10.3-2.7
				C-135.7,380.5-135.7,381.6-134.8,381.8z"/>
			<path id="XMLID_275_" class="st1" d="M-203.3,381.8c-2.7,0.5-5.5,0.6-8,1.7c-2.7,1.2-3.6,4.1-4.1,6.7c0,0.1-0.1,0.4-0.1,0.6
				c-0.1,0.5-0.7,0.6-1,0.3c-0.1-0.2-0.3-0.4-0.4-0.5c-0.5-0.5-1-1.2-1.5-1.7c-1.2-1-2.4-1.9-3.7-2.7c-1.6-1-3.4-1.7-5.2-2.4
				c-2.9-1.2-6-1.9-9.1-2.1c-1-0.1-0.5-1.1,0.5-1c3.5,0.3,6.9,1,10,2.3c0.4,0.1,0.8-0.1,0.8-0.6c0-0.2,0-0.3,0.1-0.5
				c0.1-0.5,0.9-0.5,1,0c0,0.3,0.1,0.6,0.1,0.9c0,0.6,0.3,1.1,0.8,1.4c0.1,0,0.2,0.1,0.3,0.1c0.4,0.2,0.7-0.2,0.7-0.6
				c-0.1-0.8-0.1-1.5,0-2.2c0.1-0.6,1-0.6,1.1,0s0,1.1,0,1.7c0,0.4,0,0.8,0,1.2c0,0.6,0.3,1.1,0.7,1.4c0.1,0.1,0.2,0.1,0.2,0.2
				c0.3,0.2,0.7,0,0.6-0.4c-0.1-1.3-0.1-2.5-0.1-3.8c0-0.8,1.2-0.8,1.2,0c0,1.5,0,3.1,0.1,4.6c0,0.6,0.3,1.2,0.8,1.6
				c0.2,0.2,0.4,0.3,0.5,0.5c0.2,0.2,0.5,0.1,0.7-0.1c0.3-0.5,0-1.1,0-1.7c0-1.6,0.2-3.2,0.1-4.8c-0.1-0.7,1.1-0.8,1.2-0.2
				c0.2,0.7,0.1,1.4,0,2.2c0,0.1,0,0.2,0,0.3c0,0.3,0.3,0.4,0.4,0.2c0.3-0.4,0.6-0.8,1-1.1c2.6-2.6,7.3-2.4,10.3-2.7
				C-202.5,380.5-202.4,381.6-203.3,381.8z"/>
		</g>
	</g>
</g>
</svg>
