<?xml version="1.0" encoding="utf-8"?>
<!-- Generator: Adobe Illustrator 19.0.0, SVG Export Plug-In . SVG Version: 6.00 Build 0)  -->
<svg version="1.1" id="Layer_1" xmlns="http://www.w3.org/2000/svg" xmlns:xlink="http://www.w3.org/1999/xlink" x="0px" y="0px"
	 viewBox="-286 267.2 56 200.1" style="enable-background:new -286 267.2 56 200.1;" xml:space="preserve">
<style type="text/css">
	.st0{fill:#F0504E;}
	.st1{fill:#414042;}
	.st2{fill:#EF504E;}
	.st3{fill-rule:evenodd;clip-rule:evenodd;fill:#404041;}
</style>
<g id="XMLID_66_">
	<g id="XMLID_115_">
		<path id="XMLID_121_" class="st0" d="M-535,720.9v-27.5l-21.5,26.5C-543.9,715.6-535,720.9-535,720.9z"/>
		<path id="XMLID_120_" class="st0" d="M-539.1,782.5l-0.4-16.9c-4.1,4.9-8.5,0.2-8.5,0.2C-541.9,775.2-539.1,782.5-539.1,782.5z"/>
	</g>
	<g id="XMLID_67_">
		<g id="XMLID_96_">
			<g id="XMLID_97_">
				<path class="st1" d="M-543.7,763.7c1.9-0.9,2.8-2.9,2.9-5.2c0.1-3.2-1.2-6.2-2.6-8.3c-1.2-1.8-2.5-3.8-4.3-5.2
					c-1.1-0.9-0.3-1.2,0.7-1.9c1-0.8,1.6-1.4,2.2-2.6c0.4-1,1-2.3,0.6-3.9c-0.2-0.8-0.8-1.9-1.7-2.4c-1.5-0.8-4.5-0.9-4.3,1.5
					c0.1,1.5,2.3,1.6,2.5,2.9c0.1,0.7-0.5,2.2-0.8,2.6c-1.6,1.8-5.7,0-6.9-1.1c-1-1-1.6-3-1.8-4.7c-0.1-1.1-0.1-2.2,0.1-3.1
					c0.5-2.6,2.6-5.1,5.1-5.9c1.7-0.6,2.9-0.5,4.6-0.5c1.9,0,3.1,0.5,4.4,1.2c1.5,0.9,4.2,3.5,4.9,5.2c1.7,4.3,1.4,10,1.4,15.8
					c0,1.4,0.1,2.7,0,4.1c-0.2,2.7-0.3,5.4-0.3,8.1c0,1.4-0.1,2.9,0,4.3c0.2,2.9,0.1,5.7,0.3,8.5c0.1,2.3,0.3,4.5,0.3,6.7
					c0,2.4-0.1,4.6-0.1,6.9s0.2,4.6,0.2,6.8c0,0.6-0.1,1.3-0.2,2.1h2.5c0-0.2,0-0.4,0-0.5c0.1-3.4-0.2-6.9-0.1-10.4
					c0.1-1.5,0.1-3.1,0-4.6c-0.2-4.4,0-8.8-0.2-13.2c-0.1-1.5,0-3-0.1-4.5c-0.5-7.1,0.1-14.2,0.1-21.3c0-7-1.2-12.6-7.6-16.1
					c-2.2-1.3-5.3-1.8-8.8-1.1c-1.6,0.2-3,0.9-4.3,1.7c-1.5,0.9-3.2,3-4,4.5c-0.1,0.4-0.3,1-0.5,1.5c-0.4,1.2-0.4,1.8-0.3,3.1
					c0,0.7,0,1.8,0.1,2.3c0.5,3.2,2.5,5.1,4.7,6.5c2.6,1.6,5.5,2.2,7.6,4.4c1.2,1.1,2.5,2.9,3.1,4.4c0.6,1.4,1.1,3.7,0.9,5.6
					c-0.1,0.9-0.8,2.6-1.8,2.4c-0.6-0.1-0.6-1-0.7-1.5s-0.3-1.2-0.7-1.5c-1-0.6-2.4,0.2-2.7,0.7c-0.7,1.2,0,3.5,0.6,4.4
					C-547.9,763.5-545.4,764.5-543.7,763.7z"/>
				<path class="st1" d="M-540.6,783.6c0.8,4.1,0.9,8,0.8,12h1.1v-0.1c0.2-3.3,0.1-5.8,0-8.9v-4.1c0-1.4,0-2.8-0.1-4.2
					c-0.1-1.1,0-2.2,0-3.4c0-1.4-0.2-3.8-0.2-5.6c0-1.1,0.1-3-0.2-4.2c-0.3-2-1.3,0.6-1.9,1.1c-1.2,0.9-3.8,1.1-5.6,0.3
					c-0.4-0.2-0.8-0.4-1.3-0.7c-0.4-0.3-1.1-0.8-1.4-0.4c-0.3,0.3,0.5,1.2,0.9,1.6c0.5,0.6,1,0.8,1.3,1.3c2.1,2.7,3.6,6,5,9.5
					C-541.4,779.8-540.9,781.5-540.6,783.6z M-539.7,780.3c-0.5,0.9-2-3.5-0.3-2.6C-539.6,777.9-539.5,779.9-539.7,780.3z
					 M-539.8,776.2c-0.5,1.4-2.6-0.2-2.1-0.9c0.2-0.3,1.6-0.4,2-0.1C-539.7,775.4-539.6,775.8-539.8,776.2z M-543.3,768.1
					c0.7-0.2,1.5-0.4,2.1-0.7c0.3-0.1,0.7-0.6,1.1-0.4c0.3,0.2,0.2,1.2,0,1.4c-0.3,0.3-2.3,0.5-3.3,0.2
					C-543.7,768.5-543.5,768.1-543.3,768.1z M-544.4,770.6c-0.2-0.3-0.2-0.9-0.4-1.1c-0.2-0.3-1.1-0.7-0.8-1.1
					c0.1-0.3,0.7-0.4,0.9-0.1c0.1,0.2-0.2,0.6,0,1c0.2,0.4,2.4,0.5,3.6,0.5c0.4,0,0.7-0.1,0.9,0c0.3,0.2,0.4,1,0.3,1.2
					c-0.2,0.7-1.3,0.5-2.6,0.4C-543.7,771.3-544,771.4-544.4,770.6z M-543.1,772.5c0.2-0.3,0.9-0.2,1.6-0.1c1.1,0.1,2.1,0.1,1.7,1.3
					c-0.2,0.6-1.9,0.9-2.7,0.3C-542.9,773.7-543.3,772.8-543.1,772.5z"/>
			</g>
		</g>
		<g id="XMLID_76_">
			<path id="XMLID_77_" class="st1" d="M-534.2,723.2c0.2-0.3,0-1.4,0-2.2c0-4.4-0.1-9.1,0-13.8c0-3.9-0.1-7,0.2-10.5
				c0.2-2.3,0-5.1,0-7.3c0-2.5-0.1-5.6-1.9-8.1c-1.3-1.8-3.7-2.8-5.7-2.6c-1.9,0.2-3.4,2.5-3.5,3.8c0,1.1,0.6,3.4,1.9,4.1
				c0.5,0.2,2.1,0,2.6-1c0.2-0.5,0-1.2-0.2-1.6c-0.2-0.6-0.7-1.3-0.2-1.7c0.7-0.7,2.5,0.2,3.1,0.8c1.5,1.5,1.9,3.9,2,5.5
				c0,2.6-0.9,5.4-1.9,7.4c-0.6,1.3-1.3,2-1.7,2.4c-0.6,0.8-1,1.3-1.5,1.8c-2.1,2.2-3.8,4.7-5.7,6.9c-1,1.2-2,2.2-3,3.3
				c-1.9,2.2-3.7,4.4-5.8,6.8c-0.4,0.5-0.9,1.2-1.4,1.7c-0.4,0.5-1.5,1.2-1.4,1.7c0.1,0.4,0.4,0.6,1,0.6s0.7-0.2,1.1-0.4
				c3.2-1.7,8-2.7,12.9-1.9c0.9,0.2,1.7,0.3,2.5,0.6c0.8,0.3,1.6,0.5,2.3,0.8c0.8,0.4,1.6,1,2.2,1.5
				C-535.7,722.4-534.5,723.8-534.2,723.2z M-537.6,700.2c-0.3,0.3-0.5,0.7-0.9,1c-1,1-1.7,1.9-2.6,3.1c-0.5,0.7-1,1.5-1.6,2.2
				c-0.3,0.4-0.8,0.8-1.1,1.2c-0.4,0.4-0.6,0.9-1,1.4c-0.5,0.6-1.1,0.9-1.5,1.5c-0.8,1-1.8,2.2-2.7,3.3c-0.7,0.7-1.4,1.7-2,2.4
				c-0.3,0.3-0.6,0.5-0.7,0.8c-0.1,0.2-0.2,0.8-0.3,1c-0.2,0.2-0.9,0.3-1.3,0.5c-0.3,0.1-1.2,0.6-1.5,0.3c-0.3-0.3,0.7-1.2,0.8-1.3
				c1.1-1.2,2-2.4,3.1-3.7c1.5-1.8,2.8-3.3,4.2-4.9c2.3-2.5,4-5.1,6.2-7.4c0.4-0.4,0.7-0.8,1.1-1.2c0.4-0.4,0.9-0.7,1.2-1.1
				c0.3-0.4,0.5-0.8,0.9-1.3c0.2-0.3,0.8-1.2,1.3-1.1c0.4,0.1,0.2,1,0.2,1.2C-536,698.9-537,699.5-537.6,700.2z M-535.8,701.5
				c-0.3,1.8-1.9,2.9-3,4.1c-0.5,0.6-0.9,1.3-1.5,2c-0.5,0.6-1.1,1.2-1.7,1.8c-1.2,1.3-2.1,2.4-3.1,3.8c-0.4,0.5-1.1,1.1-1.7,1.8
				c-0.6,0.7-1.1,1.6-1.6,1.9c-0.3,0.2-1.4,0.5-1.6,0.1c-0.1-0.2,0.3-0.8,0.5-0.9c1.3-1.4,2.5-2.8,3.6-4.2c0.5-0.6,1.1-1,1.5-1.6
				c0.5-0.6,0.9-1.3,1.4-1.9c1-1.3,2.1-2.4,3-3.7c0.5-0.7,0.9-1.4,1.4-1.9c0.3-0.3,0.8-0.6,1.1-1c0.3-0.3,0.7-1.4,1.3-1.2
				C-535.7,700.7-535.8,701.1-535.8,701.5z M-539.2,710c-0.4,0.4-0.9,0.7-1.3,1.3c-0.7,0.9-1.5,2.1-2.1,2.8
				c-0.5,0.5-1.8,2.4-2.4,2.5c-0.3,0.1-1,0-1.1-0.2c-0.1-0.3,0.3-0.7,0.5-0.9c0.7-0.9,1.4-1.6,1.9-2.3c1-1,1.5-2.1,2.5-3.2
				c0.4-0.5,0.8-0.8,1.3-1.3c0.8-1,1.4-1.8,2.4-2.9c0.3-0.3,1.8-2.2,1.6-0.4c-0.1,0.6-0.6,1.2-1.1,1.8
				C-537.8,708.2-538.4,709.1-539.2,710z M-537.7,711.9c-0.8,1.1-2.1,2.5-3,3.6c-0.4,0.4-1.3,1.5-1.7,1.6c-1.8,0.3-0.2-1.5,0.1-2
				c0.9-1.2,1.5-2,2.4-3.1c0.5-0.6,1.1-1,1.4-1.3c0.3-0.4,0.7-1,1.1-1.5c0.2-0.2,1-1.4,1.3-1.3c0.3,0.1,0.2,0.8,0.1,1.2
				C-536.1,710.3-537.1,711.1-537.7,711.9z M-537.5,716.3c-0.5,0.6-1.1,1.5-1.7,1.6c-0.5,0.1-1.4-0.2-1.5-0.5
				c-0.2-0.6,1-1.5,1.3-1.9c0.4-0.5,1-1.3,1.5-1.9c0.2-0.2,0.4-0.5,0.8-0.9c0.1-0.1,0.5-0.9,0.9-0.8c0.5,0.1,0.3,1.6,0.3,2
				C-536,715-536.8,715.5-537.5,716.3z M-537.6,718.5c0-0.3,0.9-1.4,1.1-1.6c0.7-0.6,0.8-0.1,0.8,0.5c0,1,0,1.8-0.3,2
				C-536.6,719.5-537.6,718.7-537.6,718.5z"/>
		</g>
	</g>
</g>
<g id="XMLID_78_">
	<g id="XMLID_256_">
		<path id="XMLID_694_" class="st2" d="M-232.2-29.3v-39.2l-30.9,37.9C-245-36.8-232.2-29.3-232.2-29.3z"/>
		<path id="XMLID_697_" class="st2" d="M-238.2,58.9l-0.6-24.2c-5.9,7-12.2,0.2-12.2,0.2C-242.1,48.5-238.2,58.9-238.2,58.9z"/>
		<path id="XMLID_696_" class="st2" d="M-238.7,279.2l0.5,32c-4.1-11.9-13.7-10.6-13.7-10.6C-242.5,293.5-238.7,279.2-238.7,279.2z"
			/>
		<path id="XMLID_695_" class="st2" d="M-238.6,456.7l0.3-32C-242,435.2-251,435-251,435C-241.9,446.2-238.6,456.7-238.6,456.7z"/>
		<path id="XMLID_693_" class="st2" d="M-238.8,741.3l0.6,7.8l-0.3,17c-7.6-5.7-12.5-1.3-12.5-1.3
			C-242.1,757.4-238.8,741.3-238.8,741.3z"/>
		<path id="XMLID_692_" class="st2" d="M-232.5,829.8v39l-30.8-37.2C-240.2,842.1-232.5,829.8-232.5,829.8z"/>
	</g>
	<g id="XMLID_1022_">
		<g id="XMLID_1048_">
			<g id="XMLID_1058_">
				<path id="XMLID_1066_" class="st3" d="M-242.2,824.3c9.1-5.1,10.9-13.1,10.9-23c-0.1-10.2-0.9-20.3-0.2-30.5
					c0.1-2.2,0.1-4.3,0.2-6.4c0.3-6.3,0-12.6,0.3-18.9c0.1-2.2,0.1-4.4,0.1-6.5c-0.2-4.9,0.3-10.1,0.1-14.9
					c-0.1-2.1,0.1-11.2,0.1-13.4c0-2.7-0.2-12.4-0.4-15.1c-0.2-2.7,0.1-68.5,0-71.4c0-2.9-0.5-5.8-0.2-8.5c0.2-2.8,0.3-5.6,0.2-8.5
					c0-2.9,0.2-5.8,0.1-8.6c0-5.7-0.2-37.1-0.1-42.8c0-2.8,0.3-5.6,0.1-8.4c-0.1-2.9,0-5.7-0.1-8.5c-0.2-3.2-0.2-53.6-0.3-56.6
					c-0.2-6.7-0.3-13.5,0-20.3c0.1-3.3-0.1-6,0.1-9.2c0-0.3,0-0.8,0.1-1.3c0.1-2.2,0.2-5.2,0.2-6.8c-0.1-2.2,0-4.7,0-6.8
					c0-2.7,0.2-5.5-0.1-8.2c-0.2-2.7,0.1-5.6,0-8.5c0-2.9-0.5-5.8-0.2-8.5c0.2-2.8,0.3-5.6,0.2-8.5c0-2.9,0.2-5.8,0.1-8.7
					c0-5.7-0.2-11.3-0.1-17c0-2.8,0.3-5.6,0.1-8.4c0-0.9,0-1.8-0.1-2.7c0-0.8-0.7-1.4-1.4-1.4c-0.8,0-1.4,0.7-1.4,1.5
					c0,4.3-0.1,8.9,0.1,13.2c0.1,1.5-0.2,2.9-0.3,4.4c-0.2,2.6,0,5.3,0,8c0,2.7-0.1,5.5-0.1,8.2c0,2.9,0.2,5.8,0.1,8.7
					c-0.5,10.4,0.5,21.3,0,31.4c-0.3,5.1-0.1,10.1,0,15.2c0,1.4-0.2,3.1-0.2,4.5c0.3,6.3-0.1,12.9,0.3,18.3c0.2,3,0.1,53.1,0.1,56.1
					c-0.1,3.1,0.1,6.1,0.2,9c0,4.4-0.1,9.1,0.1,13.4c0.1,1.5-0.2,2.9-0.3,4.4c-0.2,2.6,0,5.3,0,8c0,2.7-0.1,31.2-0.1,33.9
					c0,2.9,0.2,5.8,0.1,8.7c-0.5,10.4,0.5,98.1,0,108.2c-0.1,1.8,0.2,3.6,0.2,5c0,3.1-0.2,6.5-0.2,9.7c0,3.2,0.1,6.5,0.2,9.8
					c0,3.2-0.2,6.4-0.4,9.5c-0.2,4-0.1,8.1-0.4,12.1c-0.1,2,0,4.1,0,6.2c0,3.9,0.2,7.7,0.4,11.6c0.1,1.9,0,3.9,0,5.9
					c0.1,8.4,0.4,16.5-2.1,22.6c-1,2.5-4.8,6.1-7.1,7.4c-1.8,1-3.6,1.7-6.2,1.7c-2.5,0-4.1,0.1-6.6-0.7c-3.6-1.2-6.6-4.8-7.3-8.5
					c-0.2-1.4-0.3-2.8-0.1-4.4c0.2-2.4,1.1-5.4,2.6-6.7c1.7-1.6,7.6-4.1,9.9-1.6c0.5,0.5,1.3,2.7,1.1,3.7c-0.3,1.9-3.4,2-3.5,4.1
					c-0.3,3.4,4,3.3,6.2,2.1c1.3-0.7,2.1-2.3,2.4-3.4c0.5-2.3-0.2-4.2-0.9-5.6c-0.8-1.7-1.8-2.6-3.2-3.7c-1.4-1.1-2.5-1.5-1-2.7
					c2.6-2,4.4-4.8,6.1-7.5c1.9-3,3.9-7.3,3.8-11.8c-0.1-3.2-1.4-6.1-4.1-7.4c-2.5-1.2-6.1,0.3-7.1,1.8c-0.9,1.3-1.9,4.6-0.9,6.3
					c0.4,0.8,2.5,1.9,3.9,1c0.6-0.4,0.9-1.4,1-2.1c0.2-0.8,0.1-1.9,1-2.1c1.4-0.2,2.4,2.1,2.5,3.5c0.3,2.8-0.5,6-1.3,8.1
					c-0.9,2.2-2.7,4.7-4.4,6.3c-3.1,3.2-7.1,4-10.8,6.3c-3.2,2-6,4.7-6.7,9.3c-0.1,0.7-0.1,2.3-0.2,3.3c-0.1,1.8-0.2,2.7,0.4,4.4
					c0.3,0.7,0.5,1.6,0.8,2.1c1.1,2.2,3.6,5.2,5.7,6.5c1.9,1.2,3.9,2.1,6.2,2.4C-249.8,826.8-245.3,826.1-242.2,824.3z"/>
				<path id="XMLID_1059_" class="st3" d="M-238,766.6c0.4-1.8,0.2-4.5,0.2-6.1c0-2.6,0.3-5.9,0.3-8c0-1.6-0.1-3.2,0-4.8
					c0.1-2,0.1-4,0.1-6c0-1.9-0.1-3.9-0.1-5.8c0.2-4.4,0.3-7.9,0-12.7c-0.1-1.7,0-11.9,0-13.6c0-1.7,0.3-10.4,0.3-12.1
					c0.1-3.3-0.1-69.8-0.1-72.8c0-4.8,0.3-9.8,0.4-14.8c0-2.5-0.1-4.9-0.2-7.4c-0.2-6.9,0-40.2,0.4-47.3c0.1-2.4,0-4.9,0-7.2
					c0-2.3,0.2-4.6,0.2-6.9c0-1.2-0.2-2.5-0.2-3.7c0-3.7-0.3-54.5-0.2-58.4c0-2.5-0.3-5-0.2-7.6c0-1.2,0.1-2.4,0.1-3.6
					c0-1.2-0.2-2.4-0.2-3.6c-0.1-2.6,0.2-5.8,0.1-9.4c0-1.3-0.2-2.5-0.2-4.3c0-1.3,0-2.6-0.1-3.9c0.1-3.3,0-6.6,0-9.9
					c0-1.7,0.3-3.5,0.3-5.2c0.1-3.3-0.1-6.9-0.1-9.9c0-4.8,0.3-9.8,0.4-14.8c0-2.5-0.1-4.9-0.2-7.4c-0.2-6.8,0-14.4,0.4-21.5
					c0.1-2.4,0-4.9,0-7.2c0-1.1,0-2.3,0-3.4c0-0.6-0.3-1.2-0.9-1.2c-0.6,0-1.1,0.4-1.1,1c-0.1,1.3-0.1,2.8,0,4.1
					c0.1,6.8-0.2,13.6-0.3,20.7c0,2.3-0.2,4.5-0.2,6.7c0,1.6,0.4,3.3,0.4,4.9c0,3-0.4,6-0.2,9c0.2,3.2-0.2,6.5-0.1,9.8
					c0.1,1.6,0.1,3.3,0.1,4.9c0,4.1-0.6,12.6-0.3,16.9c0,1.2,0.1,2.4,0,3.6c-0.1,1.6,0,5.2-0.1,5.7c0,0.8,0.1,1.8,0.1,2.7
					c0.1,2.6-0.2,5.5-0.1,8.2c0.1,1,0.3,1.9,0.3,2.9c0.1,5-0.1,10.2,0,15.2c0.2,4.9,0.5,57,0.2,62c-0.1,1.3-0.1,2.8,0,4.1
					c0.1,6.8-0.2,13.6-0.3,20.7c0,2.3-0.2,30.3-0.2,32.5c0,1.6,0.4,3.3,0.4,4.9c0,3-0.4,6-0.2,9c0.2,3.2-0.2,6.5-0.1,9.8
					c0.1,1.6,0.1,3.3,0.1,4.9c0,4.1-0.6,78.3-0.3,82.6c0.5,7.1,0.3,20.6-0.9,27.6c-0.5,3-1.2,5.5-2.3,8.4c-2,4.9-4.1,9.7-7.1,13.5
					c-0.5,0.7-1.2,1-1.9,1.8c-0.5,0.5-1.6,1.8-1.2,2.3c0.4,0.5,1.4-0.2,2-0.6c0.8-0.5,1.3-0.8,1.9-1.1c2.6-1,6.2-0.9,8,0.5
					C-240.1,766.1-238.7,769.8-238,766.6z M-239,745.2c0.3,0.5,0.1,3.3-0.5,3.7C-241.9,750.2-239.8,743.9-239,745.2z M-242.1,752.4
					c-0.7-1.1,2.3-3.3,3-1.4c0.2,0.5,0.1,1.2-0.2,1.4C-239.9,753-241.9,752.8-242.1,752.4z M-244,756.4c-0.3-0.4,0.3-1.7,0.9-2.1
					c1.1-0.8,3.5-0.4,3.8,0.5c0.7,1.7-0.8,1.7-2.4,1.8C-242.6,756.6-243.7,756.8-244,756.4z M-247.5,762.4c-0.4-0.7,0.9-1.2,1.1-1.6
					c0.3-0.4,0.3-1.2,0.6-1.6c0.7-1.2,1-1.1,2.8-1.1c1.8-0.1,3.3-0.4,3.7,0.6c0.1,0.3,0,1.5-0.5,1.7c-0.3,0.2-0.8,0-1.3,0
					c-1.6,0-4.8,0.1-5.1,0.7c-0.3,0.6,0.2,1.2,0,1.4C-246.5,762.8-247.4,762.6-247.5,762.4z M-241.1,763.6c-0.8-0.4-2-0.7-3-1
					c-0.4-0.1-0.6-0.6-0.2-0.8c1.4-0.4,4.3-0.2,4.7,0.3c0.3,0.4,0.4,1.8,0,2C-240.1,764.5-240.8,763.7-241.1,763.6z"/>
			</g>
			<g id="XMLID_1049_">
				<path id="XMLID_1057_" class="st3" d="M-242.2-23.4c9.1,5.1,10.9,13.1,10.9,23c-0.1,10.2-0.9,20.3-0.2,30.5
					c0.1,2.2,0.1,4.3,0.2,6.4c0.3,6.3,0,12.6,0.3,18.9c0.1,2.2,0.1,4.4,0.1,6.5c-0.2,4.9,0.3,10.1,0.1,14.9
					c-0.1,2.2,0.1,10,0.1,12.2c0,2.7-0.2,1.2-0.4,3.9c-0.2,2.7,0.1,39.9,0,42.8c0,2.9-0.5,29.9-0.2,32.6c0.2,2.8,0.3,5.6,0.2,8.5
					c0,2.9,0.2,12.7,0.1,15.6c0,5.7-0.2,11.3-0.1,17c0,2.8,0.3,16,0.1,18.8c-0.1,2.9,0,5.7-0.1,8.6c-0.2,3.2-0.2,13.5-0.3,16.5
					c-0.2,6.7-0.3,13.5,0,20.3c0.1,3.3-0.1,6,0.1,9.2c0,0.3,0,0.8,0.1,1.3c0.1,2.2,0.2,5.2,0.2,6.8c-0.1,2.2,0,4.7,0,6.8
					c0,2.7,0.2,5.5-0.1,8.2c-0.2,2.7,0.1,5.6,0,8.5c0,2.9-0.5,5.8-0.2,8.5c0.2,2.8,0.3,5.6,0.2,8.5c0,2.9,0.2,5.8,0.1,8.7
					c0,5.7-0.2,11.3-0.1,17c0,2.8,0.3,5.6,0.1,8.4c0,0.9,0,1.8-0.1,2.7c0,0.8-0.7,1.4-1.4,1.4c-0.8,0-1.4-0.7-1.4-1.5
					c0-4.3-0.1-8.9,0.1-13.2c0.1-1.5-0.2-2.9-0.3-4.4c-0.2-2.6,0-5.3,0-8c0-2.7-0.1-5.5-0.1-8.2c0-2.9,0.2-5.8,0.1-8.7
					c-0.5-10.4,0.5-21.3,0-31.4c-0.3-5.1-0.1-10.1,0-15.2c0-1.4-0.2-3.1-0.2-4.5c0.3-6.3-0.1-12.9,0.3-18.3c0.2-3,0.1-13,0.1-16.1
					c-0.1-3.1,0.1-6.1,0.2-9c0-4.4-0.1-19.5,0.1-23.8c0.1-1.5-0.2-2.9-0.3-4.4c-0.2-2.6,0-5.3,0-8c0-2.7-0.1-12.4-0.1-15.1
					c0-2.9,0.2-1.5,0.1-4.5c-0.5-10.4,0.5-85.4,0-95.6c-0.1-1.8,0.2-3.6,0.2-5c0-3.1-0.2-6.5-0.2-9.7c0-3.2,0.1-6.5,0.2-9.8
					c0-3.2-0.2-6.4-0.4-9.5c-0.2-4-0.1-8.1-0.4-12.1c-0.1-2,0-4.1,0-6.1c0-3.9,0.2-7.7,0.4-11.6c0.1-1.9,0-3.9,0-5.9
					c0.1-8.4,0.4-16.5-2.1-22.6c-1-2.5-4.8-6.1-7.1-7.4c-1.8-1-3.6-1.7-6.2-1.7c-2.5,0-4.1-0.1-6.6,0.7c-3.6,1.2-6.6,4.8-7.3,8.5
					c-0.2,1.4-0.3,2.8-0.1,4.4c0.2,2.4,1.1,5.4,2.6,6.7c1.7,1.6,7.6,4.1,9.9,1.6c0.5-0.5,1.3-2.7,1.1-3.7c-0.3-1.9-3.4-2.1-3.5-4.1
					c-0.3-3.4,4-3.3,6.2-2.1c1.3,0.7,2.1,2.3,2.4,3.4c0.5,2.3-0.2,4.2-0.9,5.6c-0.8,1.7-1.8,2.6-3.2,3.7c-1.4,1.1-2.5,1.5-1,2.7
					c2.6,2,4.4,4.9,6.1,7.5c1.9,3,3.9,7.3,3.8,11.8c-0.1,3.2-1.4,6.1-4.1,7.4c-2.5,1.2-6.1-0.3-7.1-1.8c-0.9-1.4-1.9-4.6-0.9-6.3
					c0.4-0.8,2.5-1.9,3.9-1c0.6,0.4,0.9,1.4,1,2.1c0.2,0.8,0.1,1.9,1,2.1c1.4,0.2,2.4-2.1,2.5-3.5c0.3-2.8-0.5-6-1.3-8.1
					c-0.9-2.2-2.7-4.7-4.4-6.3c-3.1-3.1-7.1-4-10.8-6.3c-3.2-2-6-4.7-6.7-9.3c-0.1-0.7-0.1-2.3-0.2-3.3c-0.1-1.8-0.2-2.7,0.4-4.4
					c0.3-0.7,0.5-1.6,0.8-2.1c1.1-2.2,3.6-5.2,5.7-6.5c1.9-1.2,3.9-2.1,6.2-2.4C-249.8-25.9-245.3-25.2-242.2-23.4z"/>
				<path id="XMLID_1050_" class="st3" d="M-241,35.5c-1.7,1.3-5.4,1.5-8,0.5c-0.6-0.3-1.1-0.5-1.9-1.1c-0.6-0.4-1.6-1.1-2-0.6
					c-0.4,0.5,0.8,1.8,1.2,2.3c0.7,0.8,1.4,1.1,1.9,1.8c3,3.8,5.2,8.6,7.1,13.5c1.2,2.9,1.8,5.3,2.3,8.4c1.2,7,1.4,13.6,0.9,20.6
					c-0.3,4.3,0.3,10.1,0.3,14.2c0,1.6-0.1,3.3-0.1,4.9c-0.1,3.3,0.3,65,0.1,68.2c-0.2,3,0.3,5.9,0.2,9c0,1.6-0.4,10.2-0.4,11.9
					c0,2.2,0.2,4.4,0.2,6.7c0.1,7.1,0.3,24.3,0.3,31.1c0,1.3,0,2.8,0,4.1c0.3,5,0,17-0.2,21.9c-0.2,4.9,0,10.2,0,15.1
					c0,1-0.3,1.9-0.3,2.9c-0.2,2.7,0.2,5.6,0.1,8.2c0,0.9-0.2,1.8-0.1,2.7c0,0.5,0,4.1,0.1,5.7c0.1,1.2,0,2.4,0,3.6
					c-0.3,4.3,0.3,12.8,0.3,16.9c0,1.6-0.1,3.3-0.1,4.9c-0.1,3.3,0.3,6.6,0.1,9.8c-0.2,3,0.3,5.9,0.2,9c0,1.6-0.4,3.3-0.4,4.9
					c0,2.2,0.2,4.4,0.2,6.7c0.1,7.1,0.3,13.9,0.3,20.7c0,1.3,0,2.8,0,4.1c0,0.6,0.5,1,1.1,1c0.6,0,0.9-0.2,0.9-0.8
					c0-1.2,0-2.6,0-3.7c0-2.4,0.1-4.8,0-7.2c-0.4-7.1-0.6-14.7-0.4-21.5c0.1-2.5,0.2-4.9,0.2-7.4c0-5-0.4-10-0.4-14.8
					c0-3,0.1-6.6,0.1-9.9c0-1.7-0.3-3.4-0.3-5.2c0-3.3,0.1-6.6,0-9.9c0-1.3,0.1-2.6,0.1-3.9c0-1.8,0.2-2.9,0.2-4.3
					c0.1-3.6-0.2-6.8-0.1-9.4c0.1-1.2,0.2-2.4,0.2-3.6c0-1.2-0.1-2.4-0.1-3.6c-0.1-2.5,0.2-5.1,0.2-7.6c0-3.8,0.2-14.6,0.2-18.3
					c0-1.2,0.2-2.5,0.2-3.7c0-2.3-0.2-4.5-0.2-6.9c0-2.4,0.1-4.8,0-7.2c-0.4-7.1-0.6-25.1-0.4-31.9c0.1-2.5,0.2-11.9,0.2-14.3
					c0-5-0.4-34.1-0.4-38.9c0-3,0.1-40.9,0.1-44.2c0-1.7-0.3,0.9-0.3-0.9c0-1.7-0.1-10.7,0-12.4c0.3-4.8,0.2-8.3,0-12.7
					c-0.1-1.9,0-3.9,0.1-5.8c0-2,0-4-0.1-6c-0.1-1.6,0-3.2,0-4.8c0-2.1-0.3-5.4-0.3-8c0-1.6,0.2-4.2-0.2-6.1
					C-238.7,31.1-240.1,34.8-241,35.5z M-239.5,52c0.6,0.3,0.8,3.1,0.5,3.7C-239.8,57-241.9,50.7-239.5,52z M-239.4,48.4
					c0.3,0.3,0.4,0.9,0.2,1.4c-0.7,2-3.7-0.3-3-1.3C-241.9,48.1-239.9,47.9-239.4,48.4z M-241.6,44.3c1.5,0.1,3.1,0.1,2.4,1.8
					c-0.3,0.9-2.7,1.3-3.8,0.5c-0.6-0.4-1.1-1.7-0.9-2.1C-243.7,44.1-242.6,44.3-241.6,44.3z M-246.2,38.5c0.2,0.3-0.4,0.8,0,1.4
					c0.3,0.6,3.5,0.7,5.1,0.7c0.5,0,1-0.2,1.3,0c0.5,0.3,0.6,1.4,0.5,1.7c-0.3,1-1.9,0.7-3.7,0.6c-1.8-0.1-2.1,0-2.8-1.2
					c-0.3-0.5-0.3-1.2-0.6-1.6c-0.3-0.4-1.6-0.9-1.1-1.6C-247.4,38.3-246.5,38.1-246.2,38.5z M-239.6,36.7c0.4,0.2,0.3,1.7,0,2
					c-0.4,0.5-3.3,0.7-4.7,0.3c-0.4-0.1-0.2-0.7,0.2-0.8c1-0.3,2.2-0.6,3-1C-240.8,37.2-240.1,36.5-239.6,36.7z"/>
			</g>
		</g>
		<g id="XMLID_1031_">
			<path id="XMLID_1040_" class="st3" d="M-234.1,828.6c-1,0.7-2.1,1.5-3.2,2.1c-0.9,0.5-2,0.7-3.2,1.1c-1.1,0.4-2.2,0.6-3.5,0.9
				c-7,1.2-13.9-0.3-18.4-2.7c-0.6-0.3-0.8-0.6-1.6-0.6c-0.9,0-1.3,0.3-1.4,0.9c-0.1,0.8,1.4,1.8,2,2.5c0.7,0.8,1.4,1.8,2,2.5
				c3,3.4,5.5,6.5,8.3,9.7c1.4,1.6,2.9,3.1,4.3,4.8c2.8,3.2,5.2,6.8,8.2,9.9c0.8,0.8,1.3,1.5,2.2,2.6c0.5,0.6,1.5,1.7,2.4,3.5
				c1.4,2.9,2.7,6.8,2.6,10.6c0,2.2-0.7,5.7-2.8,7.8c-1,1-3.5,2.1-4.5,1.2c-0.7-0.6,0-1.6,0.3-2.3c0.3-0.6,0.6-1.7,0.3-2.3
				c-0.7-1.5-3-1.7-3.8-1.3c-1.8,0.9-2.7,4.2-2.7,5.8c0.1,1.8,2.2,5.1,5,5.4c2.9,0.4,6.3-1.1,8.2-3.7c2.6-3.7,2.7-8.1,2.7-11.6
				c0-3.1,0.3-7.1,0-10.5c-0.3-5-0.2-9.4-0.3-15c-0.1-6.8,0.1-13.4,0.1-19.8c0-1.1,0.2-2.7,0-3.1C-231.7,826-233.3,828-234.1,828.6z
				 M-233.5,862.8c0.1,0.3,0.3,1.5-0.3,1.7c-0.6,0.2-1.5-1.1-1.8-1.5c-0.6-0.8-0.9-1.3-1.3-1.9c-0.5-0.6-1.2-1-1.7-1.5
				c-0.5-0.6-1-1.2-1.5-1.7c-3.1-3.4-5.6-7.1-8.9-10.6c-2.1-2.3-4-4.4-6.1-7c-1.6-2-2.9-3.6-4.4-5.3c-0.1-0.2-1.6-1.3-1.2-1.8
				c0.4-0.4,1.6,0.2,2.1,0.4c0.6,0.2,1.7,0.4,1.9,0.7c0.2,0.2,0.4,1.2,0.5,1.4c0.2,0.4,0.6,0.7,1.1,1.1c0.9,1,2,2.4,2.9,3.4
				c1.3,1.5,2.6,3.2,3.9,4.7c0.7,0.8,1.6,1.3,2.2,2.1c0.5,0.7,0.9,1.4,1.4,2c0.5,0.6,1.2,1.1,1.6,1.7c0.8,1,1.4,2.2,2.2,3.2
				c1.3,1.6,2.2,3,3.7,4.4c0.5,0.5,0.8,0.9,1.3,1.4C-235.1,860.7-233.8,861.6-233.5,862.8z M-233.8,859.2c-0.8,0.3-1.4-1.3-1.8-1.7
				c-0.5-0.5-1.2-1-1.6-1.4c-0.7-0.8-1.3-1.8-2-2.8c-1.3-1.8-2.9-3.4-4.3-5.2c-0.7-0.9-1.3-1.8-2-2.7c-0.7-0.8-1.5-1.5-2.2-2.3
				c-1.6-2-3.4-4-5.2-6c-0.2-0.3-0.9-1-0.7-1.3c0.3-0.6,1.9-0.1,2.3,0.1c0.8,0.4,1.5,1.7,2.3,2.7c0.9,1,1.9,1.9,2.4,2.6
				c1.5,2,2.8,3.6,4.4,5.4c0.8,0.9,1.7,1.7,2.4,2.6c0.8,1,1.3,2,2.1,2.9c1.5,1.7,3.8,3.4,4.2,5.9
				C-233.4,858.4-233.4,859.1-233.8,859.2z M-235.1,849.9c0.7,0.8,1.4,1.7,1.5,2.6c0.3,2.5-1.9-0.2-2.3-0.6
				c-1.4-1.6-2.3-2.8-3.5-4.2c-0.6-0.7-1.2-1.2-1.8-1.9c-1.4-1.6-2.2-3.1-3.6-4.6c-0.8-0.9-1.8-2-2.8-3.2c-0.2-0.3-0.9-1-0.7-1.3
				c0.2-0.3,1.1-0.4,1.5-0.3c0.8,0.2,2.8,2.9,3.4,3.6c0.8,1.1,1.9,2.7,3,4c0.6,0.8,1.4,1.2,1.9,1.8
				C-237.1,847.1-236.4,848.3-235.1,849.9z M-233.6,847c0.1,0.6,0.3,1.5-0.2,1.7c-0.5,0.2-1.7-1.5-1.9-1.8c-0.6-0.8-1.1-1.7-1.5-2.2
				c-0.5-0.5-1.3-1.1-2-1.9c-1.3-1.5-2-2.7-3.4-4.4c-0.5-0.7-2.8-3.3-0.2-2.9c0.5,0.1,1.9,1.7,2.4,2.3c1.3,1.5,3,3.6,4.2,5.2
				C-235.3,844.2-233.9,845.3-233.6,847z M-233.3,840.1c0.1,0.5,0.4,2.7-0.4,2.9c-0.6,0.2-1.2-1-1.3-1.1c-0.5-0.6-0.8-1-1.2-1.3
				c-0.8-0.9-1.6-2-2.2-2.8c-0.4-0.6-2.2-1.8-1.9-2.7c0.1-0.4,1.4-0.8,2.1-0.7c0.9,0.2,1.7,1.5,2.4,2.3
				C-234.9,837.9-233.7,838.6-233.3,840.1z M-233.9,832.4c0.5,0.2,0.5,1.5,0.5,2.9c0,0.9-0.2,1.6-1.1,0.7c-0.3-0.3-1.6-1.8-1.5-2.3
				C-236,833.3-234.6,832.1-233.9,832.4z"/>
			<path id="XMLID_1032_" class="st3" d="M-231.1-26c0.3-0.4,0-2.1,0-3.2c0-6.4-0.1-13-0.1-19.8c0.1-5.6-0.1-10.1,0.3-15
				c0.3-3.3,0-7.4,0-10.5c0-3.5-0.2-7.9-2.7-11.6c-1.8-2.6-5.3-4.1-8.2-3.7c-2.7,0.3-4.9,3.6-5,5.4c0,1.6,0.9,4.9,2.7,5.8
				c0.8,0.4,3.1,0.2,3.8-1.3c0.3-0.7,0-1.7-0.3-2.3c-0.3-0.7-0.9-1.7-0.3-2.3c1-0.9,3.5,0.2,4.5,1.2c2.2,2.2,2.8,5.6,2.8,7.8
				c0.1,3.8-1.3,7.7-2.6,10.6c-0.9,1.8-1.8,2.8-2.4,3.5c-0.9,1.1-1.4,1.8-2.2,2.6c-3,3.1-5.4,6.7-8.2,9.9c-1.5,1.7-2.9,3.2-4.3,4.8
				c-2.8,3.2-5.3,6.4-8.3,9.7c-0.6,0.7-1.3,1.7-2,2.5c-0.6,0.7-2.1,1.7-2,2.5c0.1,0.6,0.5,0.8,1.4,0.9c0.8,0,1-0.2,1.6-0.6
				c4.6-2.4,11.4-3.9,18.4-2.7c1.3,0.2,2.5,0.5,3.5,0.9c1.2,0.4,2.3,0.7,3.2,1.1c1.1,0.6,2.2,1.4,3.2,2.1
				C-233.3-27.1-231.7-25.1-231.1-26z M-236-58.8c-0.4,0.5-0.8,1-1.3,1.4c-1.5,1.4-2.4,2.8-3.7,4.4c-0.8,1-1.4,2.1-2.2,3.1
				c-0.5,0.6-1.1,1.1-1.6,1.7c-0.5,0.6-0.9,1.3-1.4,2c-0.6,0.8-1.6,1.3-2.2,2.1c-1.2,1.5-2.5,3.2-3.9,4.7c-0.9,1-2,2.4-2.9,3.4
				c-0.4,0.5-0.9,0.7-1.1,1.1c-0.1,0.2-0.3,1.2-0.5,1.4c-0.3,0.3-1.3,0.5-1.9,0.7c-0.5,0.2-1.7,0.8-2.1,0.4c-0.5-0.5,1-1.7,1.2-1.8
				c1.5-1.7,2.8-3.4,4.4-5.3c2.1-2.6,4-4.7,6.1-7c3.2-3.5,5.8-7.2,8.9-10.6c0.5-0.6,1-1.1,1.5-1.7c0.5-0.6,1.2-0.9,1.7-1.5
				c0.5-0.6,0.8-1.1,1.3-1.9c0.3-0.4,1.2-1.8,1.8-1.5c0.6,0.2,0.4,1.4,0.3,1.7C-233.8-60.7-235.1-59.8-236-58.8z M-233.5-57
				c-0.4,2.5-2.8,4.2-4.2,5.9c-0.8,0.9-1.3,1.9-2.1,2.9c-0.7,0.9-1.6,1.7-2.4,2.6c-1.7,1.9-2.9,3.4-4.4,5.4
				c-0.5,0.7-1.5,1.6-2.4,2.6c-0.8,1-1.5,2.2-2.3,2.7c-0.4,0.2-1.9,0.7-2.3,0.1c-0.2-0.3,0.5-1.1,0.7-1.3c1.8-2,3.6-4.1,5.2-6
				c0.7-0.8,1.5-1.5,2.2-2.3c0.7-0.9,1.3-1.8,2-2.7c1.5-1.8,3-3.5,4.3-5.3c0.7-0.9,1.3-1.9,2-2.8c0.4-0.4,1.1-0.9,1.6-1.4
				c0.4-0.5,1-2,1.8-1.7C-233.4-58.2-233.4-57.5-233.5-57z M-238.4-44.9c-0.5,0.6-1.3,1.1-1.9,1.8c-1.1,1.3-2.2,2.9-3,4
				c-0.6,0.7-2.5,3.4-3.4,3.6c-0.4,0.1-1.4,0-1.5-0.3c-0.2-0.4,0.4-1,0.7-1.3c1-1.2,2-2.3,2.8-3.2c1.4-1.5,2.2-3,3.6-4.6
				c0.6-0.7,1.2-1.2,1.8-1.9c1.2-1.4,2-2.6,3.5-4.2c0.4-0.4,2.6-3.1,2.3-0.6c-0.1,0.9-0.9,1.8-1.5,2.6
				C-236.4-47.4-237.1-46.2-238.4-44.9z M-236.2-42.1c-1.2,1.5-3,3.6-4.2,5.2c-0.5,0.6-1.9,2.2-2.4,2.3c-2.6,0.5-0.3-2.2,0.2-2.9
				c1.3-1.7,2.1-2.8,3.4-4.4c0.7-0.8,1.5-1.4,2-1.9c0.5-0.5,1-1.4,1.5-2.2c0.2-0.3,1.4-2.1,1.9-1.8c0.4,0.2,0.3,1.1,0.2,1.7
				C-233.9-44.4-235.3-43.3-236.2-42.1z M-235.9-35.8c-0.7,0.8-1.5,2.1-2.4,2.3c-0.7,0.1-2-0.2-2.1-0.7c-0.2-0.9,1.5-2.1,1.9-2.7
				c0.6-0.8,1.4-1.9,2.2-2.8c0.3-0.4,0.6-0.7,1.2-1.3c0.1-0.2,0.7-1.3,1.3-1.1c0.7,0.2,0.5,2.3,0.4,2.9
				C-233.7-37.7-234.9-37-235.9-35.8z M-236.1-32.7c0-0.5,1.3-2,1.5-2.3c0.9-0.9,1.1-0.2,1.1,0.7c0,1.4,0,2.6-0.5,2.9
				C-234.6-31.2-236-32.5-236.1-32.7z"/>
		</g>
		<g id="XMLID_1026_">
			<g id="XMLID_1028_">
				<path id="XMLID_1030_" class="st3" d="M-249.6,307.7c2.6,1.3,4,4.2,4.1,7.4c0.1,4.5-1.8,8.9-3.8,11.8c-1.7,2.6-3.5,5.5-6.1,7.5
					c-1.5,1.2-0.4,1.6,1,2.7c1.4,1.1,2.4,2,3.2,3.7c0.7,1.4,1.4,3.3,0.9,5.6c-0.3,1.1-1.1,2.6-2.4,3.4c-2.2,1.2-6.4,1.3-6.2-2.1
					c0.2-2.1,3.2-2.2,3.5-4.1c0.2-1-0.6-3.2-1.1-3.7c-2.3-2.5-8.2,0-9.9,1.6c-1.4,1.4-2.3,4.3-2.6,6.7c-0.2,1.6-0.1,3.1,0.1,4.4
					c0.6,3.7,3.6,7.3,7.3,8.5c2.5,0.8,4.1,0.7,6.6,0.7c2.6,0,4.8-0.5,6.7-1.3c2.9-1.3,5.1-3,6.9-6c1.2-1.9,2.3-4.5,2.2-7.9
					c0-1.3,1.6-1.3,1.7,0.2c0.3,3.9-1,7.1-2.1,9c-1.7,3.2-4.6,5.6-7.7,7.4c-3.1,1.8-7.6,2.5-12.3,1.8c-2.3-0.3-4.3-1.3-6.2-2.4
					c-2.1-1.3-4.6-4.3-5.7-6.5c-0.3-0.5-0.5-1.4-0.8-2.1c-0.6-1.8-0.6-2.6-0.4-4.4c0.1-1,0.1-2.5,0.2-3.3c0.7-4.6,3.5-7.3,6.7-9.3
					c3.7-2.4,7.7-3.2,10.8-6.3c1.6-1.7,3.5-4.2,4.4-6.3c0.8-2,1.6-5.3,1.3-8.1c-0.2-1.4-1.2-3.7-2.5-3.5c-0.9,0.2-0.9,1.3-1,2.1
					c-0.1,0.7-0.4,1.7-1,2.1c-1.4,0.9-3.4-0.2-3.9-1c-1-1.7,0-5,0.9-6.3C-255.6,308-252,306.5-249.6,307.7z"/>
				<path id="XMLID_1029_" class="st3" d="M-249.6,427.8c2.6-1.3,4-4.2,4.1-7.4c0.1-4.5-1.8-8.9-3.8-11.8c-1.7-2.6-3.5-5.5-6.1-7.5
					c-1.5-1.2-0.4-1.6,1-2.7c1.4-1.1,2.4-2,3.2-3.7c0.7-1.4,1.4-3.3,0.9-5.6c-0.3-1.1-1.1-2.6-2.4-3.4c-2.2-1.2-6.4-1.3-6.2,2.1
					c0.2,2.1,3.2,2.2,3.5,4.1c0.2,1-0.6,3.2-1.1,3.7c-2.3,2.5-8.2,0-9.9-1.6c-1.4-1.4-2.3-4.3-2.6-6.7c-0.2-1.6-0.1-3.1,0.1-4.4
					c0.6-3.7,3.6-7.3,7.3-8.5c2.5-0.8,4.1-0.7,6.6-0.7c2.6,0,4.8,0.5,6.7,1.3c2.9,1.3,5.1,3,6.9,6c1.2,1.9,2.3,4.4,2.2,7.9
					c0,1.3,1.6,1.3,1.7-0.2c0.3-3.9-1-7.1-2.1-9c-1.7-3.2-4.6-5.6-7.7-7.4c-3.1-1.8-7.6-2.5-12.3-1.8c-2.3,0.3-4.3,1.3-6.2,2.4
					c-2.1,1.3-4.6,4.3-5.7,6.5c-0.3,0.5-0.5,1.4-0.8,2.1c-0.6,1.8-0.6,2.6-0.4,4.4c0.1,1,0.1,2.5,0.2,3.3c0.7,4.6,3.5,7.3,6.7,9.3
					c3.7,2.4,7.7,3.2,10.8,6.3c1.6,1.7,3.5,4.2,4.4,6.3c0.8,2.1,1.6,5.3,1.3,8.1c-0.2,1.4-1.2,3.7-2.5,3.5c-0.9-0.2-0.9-1.3-1-2.1
					c-0.1-0.7-0.4-1.7-1-2.1c-1.4-0.9-3.4,0.2-3.9,1c-1,1.7,0,5,0.9,6.3C-255.6,427.5-252,429-249.6,427.8z"/>
			</g>
			<path id="XMLID_1027_" class="st3" d="M-269.2,369.4c0.6-0.2,1.3-0.4,1.9-0.7c0.4-0.2,2.6-1.2,1-1.7c-4.8-1.5-12.3-4.3-17.1-2.2
				c-1.6,0.7-2.2,2.4-1.6,4.1c0.7,2,2.4,2.5,4.2,2.6C-276.1,371.7-272.8,370.5-269.2,369.4z"/>
		</g>
		<g id="XMLID_1023_">
			<path id="XMLID_1025_" class="st3" d="M-239.2,416.8c-0.7,3.8-0.8,7.9-2.5,11.5c-1.8,3.8-5.9,5.1-9.6,5.8c-0.2,0-0.5,0.1-0.9,0.1
				c-0.7,0.1-0.9,1-0.4,1.4c0.3,0.2,0.6,0.4,0.7,0.5c0.7,0.7,1.8,1.4,2.4,2.2c1.4,1.7,2.7,3.4,3.8,5.3c1.4,2.3,2.4,4.9,3.4,7.4
				c1.7,4.2,2.7,8.6,3,13c0.1,1.4,1.6,0.8,1.5-0.7c-0.4-5-1.5-9.8-3.2-14.3c-0.2-0.5,0.2-1.1,0.8-1.1c0.2,0,0.5,0,0.7-0.1
				c0.7-0.1,0.7-1.3,0-1.4c-0.4-0.1-0.9-0.1-1.3-0.1c-0.8,0-1.6-0.5-2-1.2c-0.1-0.1-0.1-0.3-0.2-0.4c-0.3-0.5,0.2-1.1,0.8-1
				c1.1,0.1,2.2,0.2,3.2,0c0.8-0.2,0.8-1.4,0-1.6c-0.8-0.2-1.6-0.1-2.5,0c-0.6,0-1.1,0-1.7,0c-0.8,0-1.6-0.4-2.1-1
				c-0.1-0.1-0.2-0.2-0.2-0.3c-0.3-0.4,0-1,0.5-0.9c1.8,0.1,3.6,0.1,5.4,0.1c1.1,0,1.1-1.7,0-1.7c-2.1-0.1-4.4,0.1-6.5-0.1
				c-0.9-0.1-1.7-0.5-2.2-1.1c-0.2-0.3-0.5-0.5-0.7-0.8c-0.3-0.3-0.1-0.7,0.2-0.9c0.7-0.5,1.6,0,2.4,0c2.3,0,4.6-0.4,6.8-0.1
				c1,0.1,1.2-1.5,0.2-1.7c-1.1-0.2-2-0.1-3.1,0c-0.2,0-0.3,0-0.5,0c-0.4,0-0.6-0.4-0.3-0.6c0.6-0.4,1.1-0.9,1.6-1.4
				c3.8-3.7,3.4-10.4,3.8-14.8C-237.4,415.5-239,415.5-239.2,416.8z"/>
			<path id="XMLID_1024_" class="st3" d="M-239.2,318.7c-0.7-3.8-0.8-7.9-2.5-11.5c-1.8-3.8-5.9-5.1-9.6-5.8c-0.2,0-0.5-0.1-0.9-0.1
				c-0.7-0.1-0.9-1-0.4-1.4c0.3-0.2,0.6-0.4,0.7-0.5c0.7-0.7,1.8-1.4,2.4-2.2c1.4-1.7,2.7-3.4,3.8-5.3c1.4-2.3,2.4-4.9,3.4-7.4
				c1.7-4.2,2.7-8.6,3-13c0.1-1.4,1.6-0.8,1.5,0.7c-0.4,5-1.5,9.9-3.2,14.3c-0.2,0.5,0.2,1.1,0.8,1.1c0.2,0,0.5,0,0.7,0.1
				c0.7,0.1,0.7,1.3,0,1.4c-0.4,0.1-0.9,0.1-1.3,0.1c-0.8,0-1.6,0.5-2,1.2c-0.1,0.1-0.1,0.3-0.2,0.4c-0.3,0.5,0.2,1.1,0.8,1
				c1.1-0.1,2.2-0.2,3.2,0c0.8,0.2,0.8,1.4,0,1.6c-0.8,0.2-1.6,0.1-2.5,0c-0.6,0-1.1,0-1.7,0c-0.8,0-1.6,0.4-2.1,1.1
				c-0.1,0.1-0.2,0.2-0.2,0.3c-0.3,0.4,0,1,0.5,0.9c1.8-0.1,3.6-0.1,5.4-0.1c1.1,0,1.1,1.7,0,1.7c-2.1,0.1-4.4-0.1-6.5,0.1
				c-0.9,0.1-1.7,0.5-2.2,1.1c-0.2,0.3-0.5,0.5-0.7,0.8c-0.3,0.3-0.1,0.7,0.2,0.9c0.7,0.5,1.6,0,2.4,0c2.3,0,4.6,0.4,6.8,0.1
				c1-0.1,1.2,1.5,0.2,1.7c-1.1,0.2-2,0.1-3.1,0c-0.2,0-0.3,0-0.5,0c-0.4,0-0.6,0.4-0.3,0.6c0.6,0.4,1.1,0.9,1.6,1.4
				c3.8,3.7,3.4,10.4,3.8,14.8C-237.4,320-239,320-239.2,318.7z"/>
		</g>
	</g>
</g>
</svg>
