<?xml version="1.0" encoding="utf-8"?>
<!-- Generator: Adobe Illustrator 19.0.0, SVG Export Plug-In . SVG Version: 6.00 Build 0)  -->
<svg version="1.1" id="Layer_1" xmlns="http://www.w3.org/2000/svg" xmlns:xlink="http://www.w3.org/1999/xlink" x="0px" y="0px"
	 viewBox="-286 311.6 37.7 142.4" style="enable-background:new -286 311.6 37.7 142.4;" xml:space="preserve">
<style type="text/css">
	.st0{fill:#F0504E;}
	.st1{fill:#414042;}
	.st2{fill:#EF504E;}
	.st3{fill-rule:evenodd;clip-rule:evenodd;fill:#404041;}
</style>
<g id="XMLID_66_">
	<g id="XMLID_115_">
		<path id="XMLID_121_" class="st0" d="M-535,720.9v-27.5l-21.5,26.5C-543.9,715.6-535,720.9-535,720.9z"/>
		<path id="XMLID_120_" class="st0" d="M-539.1,782.5l-0.4-16.9c-4.1,4.9-8.5,0.2-8.5,0.2C-541.9,775.2-539.1,782.5-539.1,782.5z"/>
	</g>
	<g id="XMLID_67_">
		<g id="XMLID_96_">
			<g id="XMLID_97_">
				<path class="st1" d="M-543.7,763.7c1.9-0.9,2.8-2.9,2.9-5.2c0.1-3.2-1.2-6.2-2.6-8.3c-1.2-1.8-2.5-3.8-4.3-5.2
					c-1.1-0.9-0.3-1.2,0.7-1.9c1-0.8,1.6-1.4,2.2-2.6c0.4-1,1-2.3,0.6-3.9c-0.2-0.8-0.8-1.9-1.7-2.4c-1.5-0.8-4.5-0.9-4.3,1.5
					c0.1,1.5,2.3,1.6,2.5,2.9c0.1,0.7-0.5,2.2-0.8,2.6c-1.6,1.8-5.7,0-6.9-1.1c-1-1-1.6-3-1.8-4.7c-0.1-1.1-0.1-2.2,0.1-3.1
					c0.5-2.6,2.6-5.1,5.1-5.9c1.7-0.6,2.9-0.5,4.6-0.5c1.9,0,3.1,0.5,4.4,1.2c1.5,0.9,4.2,3.5,4.9,5.2c1.7,4.3,1.4,10,1.4,15.8
					c0,1.4,0.1,2.7,0,4.1c-0.2,2.7-0.3,5.4-0.3,8.1c0,1.4-0.1,2.9,0,4.3c0.2,2.9,0.1,5.7,0.3,8.5c0.1,2.3,0.3,4.5,0.3,6.7
					c0,2.4-0.1,4.6-0.1,6.9s0.2,4.6,0.2,6.8c0,0.6-0.1,1.3-0.2,2.1h2.5c0-0.2,0-0.4,0-0.5c0.1-3.4-0.2-6.9-0.1-10.4
					c0.1-1.5,0.1-3.1,0-4.6c-0.2-4.4,0-8.8-0.2-13.2c-0.1-1.5,0-3-0.1-4.5c-0.5-7.1,0.1-14.2,0.1-21.3c0-7-1.2-12.6-7.6-16.1
					c-2.2-1.3-5.3-1.8-8.8-1.1c-1.6,0.2-3,0.9-4.3,1.7c-1.5,0.9-3.2,3-4,4.5c-0.1,0.4-0.3,1-0.5,1.5c-0.4,1.2-0.4,1.8-0.3,3.1
					c0,0.7,0,1.8,0.1,2.3c0.5,3.2,2.5,5.1,4.7,6.5c2.6,1.6,5.5,2.2,7.6,4.4c1.2,1.1,2.5,2.9,3.1,4.4c0.6,1.4,1.1,3.7,0.9,5.6
					c-0.1,0.9-0.8,2.6-1.8,2.4c-0.6-0.1-0.6-1-0.7-1.5s-0.3-1.2-0.7-1.5c-1-0.6-2.4,0.2-2.7,0.7c-0.7,1.2,0,3.5,0.6,4.4
					C-547.9,763.5-545.4,764.5-543.7,763.7z"/>
				<path class="st1" d="M-540.6,783.6c0.8,4.1,0.9,8,0.8,12h1.1v-0.1c0.2-3.3,0.1-5.8,0-8.9v-4.1c0-1.4,0-2.8-0.1-4.2
					c-0.1-1.1,0-2.2,0-3.4c0-1.4-0.2-3.8-0.2-5.6c0-1.1,0.1-3-0.2-4.2c-0.3-2-1.3,0.6-1.9,1.1c-1.2,0.9-3.8,1.1-5.6,0.3
					c-0.4-0.2-0.8-0.4-1.3-0.7c-0.4-0.3-1.1-0.8-1.4-0.4c-0.3,0.3,0.5,1.2,0.9,1.6c0.5,0.6,1,0.8,1.3,1.3c2.1,2.7,3.6,6,5,9.5
					C-541.4,779.8-540.9,781.5-540.6,783.6z M-539.7,780.3c-0.5,0.9-2-3.5-0.3-2.6C-539.6,777.9-539.5,779.9-539.7,780.3z
					 M-539.8,776.2c-0.5,1.4-2.6-0.2-2.1-0.9c0.2-0.3,1.6-0.4,2-0.1C-539.7,775.4-539.6,775.8-539.8,776.2z M-543.3,768.1
					c0.7-0.2,1.5-0.4,2.1-0.7c0.3-0.1,0.7-0.6,1.1-0.4c0.3,0.2,0.2,1.2,0,1.4c-0.3,0.3-2.3,0.5-3.3,0.2
					C-543.7,768.5-543.5,768.1-543.3,768.1z M-544.4,770.6c-0.2-0.3-0.2-0.9-0.4-1.1c-0.2-0.3-1.1-0.7-0.8-1.1
					c0.1-0.3,0.7-0.4,0.9-0.1c0.1,0.2-0.2,0.6,0,1c0.2,0.4,2.4,0.5,3.6,0.5c0.4,0,0.7-0.1,0.9,0c0.3,0.2,0.4,1,0.3,1.2
					c-0.2,0.7-1.3,0.5-2.6,0.4C-543.7,771.3-544,771.4-544.4,770.6z M-543.1,772.5c0.2-0.3,0.9-0.2,1.6-0.1c1.1,0.1,2.1,0.1,1.7,1.3
					c-0.2,0.6-1.9,0.9-2.7,0.3C-542.9,773.7-543.3,772.8-543.1,772.5z"/>
			</g>
		</g>
		<g id="XMLID_76_">
			<path id="XMLID_77_" class="st1" d="M-534.2,723.2c0.2-0.3,0-1.4,0-2.2c0-4.4-0.1-9.1,0-13.8c0-3.9-0.1-7,0.2-10.5
				c0.2-2.3,0-5.1,0-7.3c0-2.5-0.1-5.6-1.9-8.1c-1.3-1.8-3.7-2.8-5.7-2.6c-1.9,0.2-3.4,2.5-3.5,3.8c0,1.1,0.6,3.4,1.9,4.1
				c0.5,0.2,2.1,0,2.6-1c0.2-0.5,0-1.2-0.2-1.6c-0.2-0.6-0.7-1.3-0.2-1.7c0.7-0.7,2.5,0.2,3.1,0.8c1.5,1.5,1.9,3.9,2,5.5
				c0,2.6-0.9,5.4-1.9,7.4c-0.6,1.3-1.3,2-1.7,2.4c-0.6,0.8-1,1.3-1.5,1.8c-2.1,2.2-3.8,4.7-5.7,6.9c-1,1.2-2,2.2-3,3.3
				c-1.9,2.2-3.7,4.4-5.8,6.8c-0.4,0.5-0.9,1.2-1.4,1.7c-0.4,0.5-1.5,1.2-1.4,1.7c0.1,0.4,0.4,0.6,1,0.6s0.7-0.2,1.1-0.4
				c3.2-1.7,8-2.7,12.9-1.9c0.9,0.2,1.7,0.3,2.5,0.6c0.8,0.3,1.6,0.5,2.3,0.8c0.8,0.4,1.6,1,2.2,1.5
				C-535.7,722.4-534.5,723.8-534.2,723.2z M-537.6,700.2c-0.3,0.3-0.5,0.7-0.9,1c-1,1-1.7,1.9-2.6,3.1c-0.5,0.7-1,1.5-1.6,2.2
				c-0.3,0.4-0.8,0.8-1.1,1.2c-0.4,0.4-0.6,0.9-1,1.4c-0.5,0.6-1.1,0.9-1.5,1.5c-0.8,1-1.8,2.2-2.7,3.3c-0.7,0.7-1.4,1.7-2,2.4
				c-0.3,0.3-0.6,0.5-0.7,0.8c-0.1,0.2-0.2,0.8-0.3,1c-0.2,0.2-0.9,0.3-1.3,0.5c-0.3,0.1-1.2,0.6-1.5,0.3c-0.3-0.3,0.7-1.2,0.8-1.3
				c1.1-1.2,2-2.4,3.1-3.7c1.5-1.8,2.8-3.3,4.2-4.9c2.3-2.5,4-5.1,6.2-7.4c0.4-0.4,0.7-0.8,1.1-1.2c0.4-0.4,0.9-0.7,1.2-1.1
				c0.3-0.4,0.5-0.8,0.9-1.3c0.2-0.3,0.8-1.2,1.3-1.1c0.4,0.1,0.2,1,0.2,1.2C-536,698.9-537,699.5-537.6,700.2z M-535.8,701.5
				c-0.3,1.8-1.9,2.9-3,4.1c-0.5,0.6-0.9,1.3-1.5,2c-0.5,0.6-1.1,1.2-1.7,1.8c-1.2,1.3-2.1,2.4-3.1,3.8c-0.4,0.5-1.1,1.1-1.7,1.8
				c-0.6,0.7-1.1,1.6-1.6,1.9c-0.3,0.2-1.4,0.5-1.6,0.1c-0.1-0.2,0.3-0.8,0.5-0.9c1.3-1.4,2.5-2.8,3.6-4.2c0.5-0.6,1.1-1,1.5-1.6
				c0.5-0.6,0.9-1.3,1.4-1.9c1-1.3,2.1-2.4,3-3.7c0.5-0.7,0.9-1.4,1.4-1.9c0.3-0.3,0.8-0.6,1.1-1c0.3-0.3,0.7-1.4,1.3-1.2
				C-535.7,700.7-535.8,701.1-535.8,701.5z M-539.2,710c-0.4,0.4-0.9,0.7-1.3,1.3c-0.7,0.9-1.5,2.1-2.1,2.8
				c-0.5,0.5-1.8,2.4-2.4,2.5c-0.3,0.1-1,0-1.1-0.2c-0.1-0.3,0.3-0.7,0.5-0.9c0.7-0.9,1.4-1.6,1.9-2.3c1-1,1.5-2.1,2.5-3.2
				c0.4-0.5,0.8-0.8,1.3-1.3c0.8-1,1.4-1.8,2.4-2.9c0.3-0.3,1.8-2.2,1.6-0.4c-0.1,0.6-0.6,1.2-1.1,1.8
				C-537.8,708.2-538.4,709.1-539.2,710z M-537.7,711.9c-0.8,1.1-2.1,2.5-3,3.6c-0.4,0.4-1.3,1.5-1.7,1.6c-1.8,0.3-0.2-1.5,0.1-2
				c0.9-1.2,1.5-2,2.4-3.1c0.5-0.6,1.1-1,1.4-1.3c0.3-0.4,0.7-1,1.1-1.5c0.2-0.2,1-1.4,1.3-1.3c0.3,0.1,0.2,0.8,0.1,1.2
				C-536.1,710.3-537.1,711.1-537.7,711.9z M-537.5,716.3c-0.5,0.6-1.1,1.5-1.7,1.6c-0.5,0.1-1.4-0.2-1.5-0.5
				c-0.2-0.6,1-1.5,1.3-1.9c0.4-0.5,1-1.3,1.5-1.9c0.2-0.2,0.4-0.5,0.8-0.9c0.1-0.1,0.5-0.9,0.9-0.8c0.5,0.1,0.3,1.6,0.3,2
				C-536,715-536.8,715.5-537.5,716.3z M-537.6,718.5c0-0.3,0.9-1.4,1.1-1.6c0.7-0.6,0.8-0.1,0.8,0.5c0,1,0,1.8-0.3,2
				C-536.6,719.5-537.6,718.7-537.6,718.5z"/>
		</g>
	</g>
</g>
<g id="XMLID_78_">
	<g id="XMLID_256_">
		<path id="XMLID_694_" class="st2" d="M-248.8,105.1V77.7l-21.6,26.5C-257.7,99.9-248.8,105.1-248.8,105.1z"/>
		<path id="XMLID_697_" class="st2" d="M-253,166.8l-0.4-16.9c-4.1,4.9-8.5,0.2-8.5,0.2C-255.7,159.5-253,166.8-253,166.8z"/>
		<path id="XMLID_696_" class="st2" d="M-253.3,320.8l0.3,22.4c-2.9-8.3-9.6-7.4-9.6-7.4C-256,330.8-253.3,320.8-253.3,320.8z"/>
		<path id="XMLID_695_" class="st2" d="M-253.2,445l0.2-22.4c-2.6,7.3-8.8,7.2-8.8,7.2C-255.6,437.6-253.2,445-253.2,445z"/>
		<path id="XMLID_693_" class="st2" d="M-253.3,643.9l0.4,5.4l-0.2,11.9c-5.3-4-8.7-0.9-8.7-0.9
			C-255.7,655.2-253.3,643.9-253.3,643.9z"/>
		<path id="XMLID_692_" class="st2" d="M-249,705.8v27.2l-21.5-26C-254.3,714.4-249,705.8-249,705.8z"/>
	</g>
	<g id="XMLID_1022_">
		<g id="XMLID_1048_">
			<g id="XMLID_1058_">
				<path id="XMLID_1066_" class="st3" d="M-255.7,702c6.4-3.6,7.6-9.1,7.6-16.1c0-7.1-0.6-14.2-0.1-21.3c0.1-1.5,0-3,0.1-4.5
					c0.2-4.4,0-8.8,0.2-13.2c0.1-1.5,0.1-3.1,0-4.6c-0.1-3.5,0.2-7,0.1-10.4c-0.1-1.5,0-7.9,0-9.4c0-1.9-0.2-8.7-0.3-10.6
					c-0.1-1.9,0-47.9,0-49.9c0-2-0.3-4-0.2-5.9c0.2-2,0.2-3.9,0.2-5.9c0-2,0.1-4.1,0.1-6c0-4-0.1-25.9-0.1-29.9
					c0-1.9,0.2-3.9,0.1-5.8c-0.1-2,0-4-0.1-6c-0.1-2.2-0.1-37.4-0.2-39.6c-0.1-4.7-0.2-9.5,0-14.2c0.1-2.3-0.1-4.2,0-6.5
					c0-0.2,0-0.6,0-0.9c0.1-1.5,0.2-3.7,0.1-4.8c-0.1-1.5,0-3.3,0-4.8c0-1.9,0.1-3.9,0-5.7c-0.1-1.9,0-3.9,0-5.9c0-2-0.3-4-0.2-5.9
					c0.2-2,0.2-3.9,0.2-5.9c0-2,0.1-4.1,0.1-6c0-4-0.1-7.9-0.1-11.9c0-1.9,0.2-3.9,0.1-5.8c0-0.6,0-1.3,0-1.9c0-0.6-0.5-1-1-1
					c-0.6,0-1,0.5-1,1.1c0,3-0.1,6.3,0.1,9.2c0,1.1-0.1,2.1-0.2,3.1c-0.1,1.8,0,3.7,0,5.6c0,1.9-0.1,3.8-0.1,5.7c0,2,0.1,4.1,0,6.1
					c-0.4,7.3,0.4,14.9,0,22c-0.2,3.5,0,7.1,0,10.6c0,1-0.2,2.1-0.1,3.2c0.2,4.4-0.1,9,0.2,12.8c0.2,2.1,0.1,37.1,0,39.2
					c0,2.2,0.1,4.3,0.1,6.3c0,3.1-0.1,6.4,0.1,9.3c0,1.1-0.1,2.1-0.2,3.1c-0.1,1.8,0,3.7,0,5.6c0,1.9-0.1,21.8-0.1,23.7
					c0,2,0.1,4.1,0,6.1c-0.4,7.3,0.4,68.6,0,75.7c-0.1,1.3,0.2,2.5,0.2,3.5c0,2.2-0.2,4.5-0.2,6.8c0,2.3,0.1,4.5,0.1,6.9
					c0,2.2-0.2,4.4-0.3,6.7c-0.2,2.8-0.1,5.6-0.3,8.5c-0.1,1.4,0,2.9,0,4.3c0,2.7,0.1,5.4,0.3,8.1c0.1,1.4,0,2.7,0,4.1
					c0,5.8,0.3,11.5-1.4,15.8c-0.7,1.7-3.4,4.3-4.9,5.2c-1.3,0.7-2.5,1.2-4.4,1.2c-1.7,0-2.9,0.1-4.6-0.5c-2.5-0.8-4.6-3.3-5.1-5.9
					c-0.2-0.9-0.2-2-0.1-3.1c0.2-1.7,0.8-3.7,1.8-4.7c1.2-1.1,5.3-2.9,6.9-1.1c0.3,0.4,0.9,1.9,0.8,2.6c-0.2,1.3-2.4,1.4-2.5,2.9
					c-0.2,2.4,2.8,2.3,4.3,1.5c0.9-0.5,1.5-1.6,1.7-2.4c0.4-1.6-0.2-2.9-0.6-3.9c-0.6-1.2-1.2-1.8-2.2-2.6c-1-0.7-1.8-1-0.7-1.9
					c1.8-1.4,3.1-3.4,4.3-5.2c1.4-2.1,2.7-5.1,2.6-8.3c-0.1-2.2-1-4.3-2.9-5.2c-1.7-0.8-4.2,0.2-5,1.3c-0.6,0.9-1.3,3.2-0.6,4.4
					c0.3,0.5,1.7,1.3,2.7,0.7c0.4-0.3,0.6-1,0.7-1.5c0.1-0.5,0.1-1.4,0.7-1.5c1-0.2,1.7,1.5,1.8,2.4c0.2,1.9-0.3,4.2-0.9,5.6
					c-0.6,1.5-1.9,3.3-3.1,4.4c-2.1,2.2-5,2.8-7.6,4.4c-2.2,1.4-4.2,3.3-4.7,6.5c-0.1,0.5-0.1,1.6-0.1,2.3c-0.1,1.3-0.1,1.9,0.3,3.1
					c0.2,0.5,0.4,1.1,0.5,1.5c0.8,1.6,2.5,3.6,4,4.5c1.3,0.8,2.7,1.5,4.3,1.7C-261.1,703.7-257.9,703.2-255.7,702z"/>
				<path id="XMLID_1059_" class="st3" d="M-252.8,661.7c0.3-1.3,0.2-3.1,0.2-4.2c0-1.8,0.2-4.1,0.2-5.6c0-1.1-0.1-2.3,0-3.4
					c0.1-1.4,0.1-2.8,0.1-4.2c0-1.4-0.1-2.7,0-4.1c0.1-3,0.2-5.5,0-8.9c-0.1-1.2,0-8.3,0-9.5c0-1.2,0.2-7.3,0.2-8.5
					c0-2.3,0-48.8-0.1-50.9c0-3.4,0.2-6.9,0.3-10.4c0-1.7-0.1-3.4-0.1-5.2c-0.1-4.8,0-28.1,0.3-33c0.1-1.7,0-3.4,0-5.1
					c0-1.6,0.2-3.2,0.2-4.8c0-0.8-0.2-1.7-0.2-2.6c0-2.6-0.2-38.1-0.2-40.8c0-1.8-0.2-3.5-0.1-5.3c0-0.9,0.1-1.7,0.1-2.5
					c0-0.8-0.1-1.7-0.2-2.5c-0.1-1.8,0.1-4.1,0.1-6.6c0-0.9-0.1-1.7-0.1-3c0-0.9,0-1.8-0.1-2.7c0.1-2.3,0-4.6,0-6.9
					c0-1.2,0.2-2.4,0.2-3.6c0-2.3,0-4.8-0.1-6.9c0-3.4,0.2-6.9,0.3-10.4c0-1.7-0.1-3.4-0.1-5.2c-0.1-4.8,0-10.1,0.3-15
					c0.1-1.7,0-3.4,0-5.1c0-0.8,0-1.6,0-2.4c0-0.4-0.2-0.8-0.6-0.8c-0.4,0-0.8,0.3-0.8,0.7c0,0.9,0,1.9,0,2.9
					c0,4.7-0.1,9.5-0.2,14.4c0,1.6-0.2,3.2-0.2,4.7c0,1.1,0.3,2.3,0.3,3.4c0,2.1-0.3,4.2-0.2,6.3c0.1,2.3-0.1,4.5-0.1,6.9
					c0,1.1,0.1,2.3,0.1,3.4c0,2.8-0.4,8.8-0.2,11.8c0,0.8,0.1,1.7,0,2.5c0,1.1,0,3.7,0,4c0,0.6,0.1,1.2,0.1,1.9
					c0.1,1.8-0.2,3.9,0,5.7c0,0.7,0.2,1.3,0.2,2c0,3.5-0.1,7.1,0,10.6c0.1,3.4,0.3,39.9,0.2,43.3c0,0.9,0,2,0,2.9
					c0,4.7-0.1,9.5-0.2,14.4c0,1.6-0.2,21.2-0.2,22.7c0,1.1,0.3,2.3,0.3,3.4c0,2.1-0.3,4.2-0.2,6.3c0.1,2.3-0.1,4.5-0.1,6.9
					c0,1.1,0.1,2.3,0.1,3.4c0,2.8-0.4,54.7-0.2,57.8c0.4,5,0.2,14.4-0.6,19.3c-0.4,2.1-0.8,3.8-1.6,5.8c-1.4,3.4-2.9,6.8-5,9.5
					c-0.4,0.5-0.9,0.7-1.3,1.3c-0.3,0.4-1.1,1.3-0.9,1.6c0.3,0.4,1-0.1,1.4-0.4c0.6-0.4,0.9-0.6,1.3-0.7c1.8-0.7,4.4-0.6,5.6,0.3
					C-254.3,661.3-253.3,663.8-252.8,661.7z M-253.5,646.7c0.2,0.4,0.1,2.3-0.3,2.6C-255.5,650.2-254.1,645.8-253.5,646.7z
					 M-255.7,651.7c-0.5-0.8,1.6-2.3,2.1-0.9c0.1,0.4,0.1,0.8-0.1,1C-254.1,652.1-255.5,652-255.7,651.7z M-257,654.5
					c-0.2-0.3,0.2-1.2,0.6-1.5c0.8-0.5,2.5-0.3,2.7,0.3c0.5,1.2-0.6,1.2-1.7,1.3C-256.1,654.7-256.8,654.8-257,654.5z M-259.4,658.7
					c-0.3-0.5,0.6-0.9,0.8-1.1c0.2-0.3,0.2-0.8,0.4-1.1c0.5-0.8,0.7-0.7,1.9-0.8c1.3-0.1,2.3-0.3,2.6,0.4c0.1,0.2,0,1-0.3,1.2
					c-0.2,0.1-0.6,0-0.9,0c-1.1,0-3.3,0.1-3.6,0.5c-0.2,0.4,0.2,0.8,0,1C-258.8,659-259.4,658.8-259.4,658.7z M-255,659.5
					c-0.6-0.3-1.4-0.5-2.1-0.7c-0.3-0.1-0.4-0.5-0.1-0.5c1-0.3,3-0.1,3.3,0.2c0.2,0.3,0.3,1.2,0,1.4
					C-254.3,660.1-254.8,659.6-255,659.5z"/>
			</g>
			<g id="XMLID_1049_">
				<path id="XMLID_1057_" class="st3" d="M-255.7,109.2c6.4,3.5,7.6,9.1,7.6,16.1c0,7.1-0.6,14.2-0.1,21.3c0.1,1.5,0,3,0.1,4.5
					c0.2,4.4,0,8.8,0.2,13.2c0.1,1.5,0.1,3.1,0,4.6c-0.1,3.5,0.2,7,0.1,10.4c-0.1,1.5,0,7,0,8.5c0,1.9-0.2,0.8-0.3,2.7
					c-0.1,1.9,0,27.9,0,29.9c0,2-0.3,20.9-0.2,22.8c0.2,2,0.2,3.9,0.2,5.9c0,2,0.1,8.9,0.1,10.9c0,4-0.1,7.9-0.1,11.9
					c0,1.9,0.2,11.2,0.1,13.1c-0.1,2,0,4-0.1,6c-0.1,2.2-0.1,9.4-0.2,11.6c-0.1,4.7-0.2,9.5,0,14.2c0.1,2.3-0.1,4.2,0,6.5
					c0,0.2,0,0.6,0,0.9c0.1,1.5,0.2,3.7,0.1,4.8c-0.1,1.5,0,3.3,0,4.8c0,1.9,0.1,3.9,0,5.8c-0.1,1.9,0,3.9,0,5.9c0,2-0.3,4-0.2,5.9
					c0.2,2,0.2,3.9,0.2,5.9c0,2,0.1,4.1,0.1,6c0,4-0.1,7.9-0.1,11.9c0,1.9,0.2,3.9,0.1,5.8c0,0.6,0,1.3,0,1.9c0,0.5-0.5,1-1,1
					c-0.6,0-1-0.5-1-1.1c0-3-0.1-6.3,0.1-9.2c0-1.1-0.1-2.1-0.2-3.1c-0.1-1.8,0-3.7,0-5.6c0-1.9-0.1-3.8-0.1-5.7c0-2,0.1-4.1,0-6.1
					c-0.4-7.3,0.4-14.9,0-22c-0.2-3.5,0-7.1,0-10.6c0-1-0.2-2.1-0.1-3.2c0.2-4.4-0.1-9,0.2-12.8c0.2-2.1,0.1-9.1,0-11.2
					c0-2.2,0.1-4.3,0.1-6.3c0-3.1-0.1-13.6,0.1-16.6c0-1.1-0.1-2.1-0.2-3.1c-0.1-1.8,0-3.7,0-5.6c0-1.9-0.1-8.7-0.1-10.6
					c0-2,0.1-1.1,0-3.1c-0.4-7.3,0.4-59.7,0-66.8c-0.1-1.3,0.2-2.5,0.2-3.5c0-2.2-0.2-4.5-0.2-6.8c0-2.3,0.1-4.5,0.1-6.9
					c0-2.2-0.2-4.4-0.3-6.7c-0.2-2.8-0.1-5.6-0.3-8.5c-0.1-1.4,0-2.9,0-4.3c0-2.7,0.1-5.4,0.3-8.1c0.1-1.4,0-2.7,0-4.1
					c0-5.8,0.3-11.5-1.4-15.8c-0.7-1.7-3.4-4.3-4.9-5.2c-1.3-0.7-2.5-1.2-4.4-1.2c-1.7,0-2.9-0.1-4.6,0.5c-2.5,0.8-4.6,3.3-5.1,5.9
					c-0.2,0.9-0.2,2-0.1,3.1c0.2,1.7,0.8,3.7,1.8,4.7c1.2,1.1,5.3,2.9,6.9,1.1c0.3-0.4,0.9-1.9,0.8-2.6c-0.2-1.3-2.4-1.4-2.5-2.9
					c-0.2-2.4,2.8-2.3,4.3-1.5c0.9,0.5,1.5,1.6,1.7,2.4c0.4,1.6-0.2,2.9-0.6,3.9c-0.6,1.2-1.2,1.8-2.2,2.6c-1,0.7-1.8,1-0.7,1.9
					c1.8,1.4,3.1,3.4,4.3,5.2c1.4,2.1,2.7,5.1,2.6,8.3c-0.1,2.3-1,4.3-2.9,5.2c-1.7,0.8-4.2-0.2-5-1.3c-0.6-0.9-1.3-3.2-0.6-4.4
					c0.3-0.5,1.7-1.3,2.7-0.7c0.4,0.3,0.6,1,0.7,1.5c0.1,0.5,0.1,1.4,0.7,1.5c1,0.2,1.7-1.5,1.8-2.4c0.2-1.9-0.3-4.2-0.9-5.6
					c-0.6-1.5-1.9-3.3-3.1-4.4c-2.1-2.2-5-2.8-7.6-4.4c-2.2-1.4-4.2-3.3-4.7-6.5c-0.1-0.5-0.1-1.6-0.1-2.3c-0.1-1.3-0.1-1.9,0.3-3.1
					c0.2-0.5,0.4-1.1,0.5-1.5c0.8-1.5,2.5-3.6,4-4.5c1.3-0.8,2.7-1.5,4.3-1.7C-261.1,107.5-257.9,108-255.7,109.2z"/>
				<path id="XMLID_1050_" class="st3" d="M-254.9,150.5c-1.2,0.9-3.8,1.1-5.6,0.3c-0.4-0.2-0.8-0.4-1.3-0.7
					c-0.4-0.3-1.1-0.8-1.4-0.4c-0.3,0.3,0.5,1.2,0.9,1.6c0.5,0.6,1,0.8,1.3,1.3c2.1,2.7,3.6,6,5,9.5c0.8,2,1.3,3.7,1.6,5.8
					c0.9,4.9,1,9.5,0.6,14.4c-0.2,3,0.2,7.1,0.2,9.9c0,1.1,0,2.3-0.1,3.4c-0.1,2.3,0.2,45.4,0.1,47.7c-0.1,2.1,0.2,4.2,0.2,6.3
					c0,1.1-0.3,7.1-0.3,8.3c0,1.5,0.1,3.1,0.2,4.7c0,4.9,0.2,17,0.2,21.7c0,0.9,0,1.9,0,2.9c0.2,3.5,0,11.9-0.2,15.3
					c-0.1,3.5,0,7.1,0,10.6c0,0.7-0.2,1.4-0.2,2c-0.1,1.9,0.1,3.9,0,5.7c0,0.6-0.1,1.3-0.1,1.9c0,0.3,0,2.9,0,4c0,0.8,0,1.7,0,2.5
					c-0.2,3,0.2,9,0.2,11.8c0,1.1,0,2.3-0.1,3.4c-0.1,2.3,0.2,4.6,0.1,6.9c-0.1,2.1,0.2,4.2,0.2,6.3c0,1.1-0.3,2.3-0.3,3.4
					c0,1.5,0.1,3.1,0.2,4.7c0,4.9,0.2,9.7,0.2,14.4c0,0.9,0,2,0,2.9c0,0.4,0.4,0.7,0.8,0.7c0.4,0,0.7-0.1,0.7-0.6c0-0.9,0-1.8,0-2.6
					c0-1.7,0.1-3.4,0-5.1c-0.3-5-0.4-10.3-0.3-15c0.1-1.7,0.1-3.5,0.1-5.2c0-3.5-0.3-7-0.3-10.4c0-2.1,0.1-4.6,0.1-6.9
					c0-1.2-0.2-2.4-0.2-3.6c0-2.3,0.1-4.6,0-6.9c0-0.9,0.1-1.8,0.1-2.7c0-1.3,0.1-2.1,0.1-3c0.1-2.5-0.1-4.7-0.1-6.6
					c0-0.9,0.2-1.7,0.2-2.5c0-0.8,0-1.7-0.1-2.5c-0.1-1.8,0.1-3.5,0.1-5.3c0-2.7,0.2-10.2,0.2-12.8c0-0.9,0.2-1.7,0.2-2.6
					c0-1.6-0.1-3.2-0.2-4.8c0-1.7,0.1-3.4,0-5.1c-0.3-5-0.4-17.5-0.3-22.3c0.1-1.7,0.1-8.3,0.1-10c0-3.5-0.3-23.8-0.3-27.2
					c0-2.1,0.1-28.6,0.1-30.9c0-1.2-0.2,0.6-0.2-0.6c0-1.2-0.1-7.5,0-8.7c0.2-3.3,0.1-5.8,0-8.9c0-1.3,0-2.7,0-4.1
					c0-1.4,0-2.8-0.1-4.2c-0.1-1.1,0-2.2,0-3.4c0-1.4-0.2-3.8-0.2-5.6c0-1.1,0.1-3-0.2-4.2C-253.3,147.4-254.3,150-254.9,150.5z
					 M-253.8,162c0.4,0.2,0.5,2.2,0.3,2.6C-254.1,165.5-255.5,161.1-253.8,162z M-253.8,159.5c0.2,0.2,0.3,0.6,0.1,1
					c-0.5,1.4-2.6-0.2-2.1-0.9C-255.5,159.3-254.1,159.2-253.8,159.5z M-255.4,156.6c1.1,0.1,2.1,0.1,1.7,1.3
					c-0.2,0.6-1.9,0.9-2.7,0.3c-0.4-0.3-0.8-1.2-0.6-1.5C-256.8,156.5-256.1,156.6-255.4,156.6z M-258.6,152.5c0.1,0.2-0.2,0.6,0,1
					c0.2,0.4,2.4,0.5,3.6,0.5c0.4,0,0.7-0.1,0.9,0c0.3,0.2,0.4,1,0.3,1.2c-0.2,0.7-1.3,0.5-2.6,0.4c-1.2-0.1-1.5,0-1.9-0.8
					c-0.2-0.3-0.2-0.9-0.4-1.1c-0.2-0.3-1.1-0.7-0.8-1.1C-259.4,152.4-258.8,152.3-258.6,152.5z M-253.9,151.3
					c0.3,0.2,0.2,1.2,0,1.4c-0.3,0.3-2.3,0.5-3.3,0.2c-0.3-0.1-0.1-0.5,0.1-0.5c0.7-0.2,1.5-0.4,2.1-0.7
					C-254.8,151.6-254.3,151.1-253.9,151.3z"/>
			</g>
		</g>
		<g id="XMLID_1031_">
			<path id="XMLID_1040_" class="st3" d="M-250.1,705c-0.7,0.5-1.5,1.1-2.2,1.5c-0.6,0.3-1.4,0.5-2.3,0.8c-0.7,0.3-1.6,0.4-2.5,0.6
				c-4.9,0.8-9.7-0.2-12.9-1.9c-0.4-0.2-0.6-0.4-1.1-0.4c-0.6,0-0.9,0.2-1,0.6c-0.1,0.6,1,1.3,1.4,1.7c0.5,0.5,1,1.3,1.4,1.7
				c2.1,2.4,3.9,4.6,5.8,6.8c1,1.1,2,2.2,3,3.3c2,2.2,3.6,4.8,5.7,6.9c0.5,0.5,0.9,1.1,1.5,1.8c0.4,0.4,1.1,1.2,1.7,2.4
				c1,2,1.9,4.8,1.9,7.4c0,1.5-0.5,4-2,5.5c-0.7,0.7-2.4,1.5-3.1,0.8c-0.5-0.4,0-1.1,0.2-1.6c0.2-0.4,0.4-1.2,0.2-1.6
				c-0.5-1.1-2.1-1.2-2.6-0.9c-1.2,0.6-1.9,2.9-1.9,4.1c0,1.3,1.6,3.5,3.5,3.8c2,0.2,4.4-0.7,5.7-2.6c1.8-2.6,1.9-5.7,1.9-8.1
				c0-2.2,0.2-5,0-7.3c-0.2-3.5-0.1-6.6-0.2-10.5c-0.1-4.7,0.1-9.4,0-13.8c0-0.8,0.2-1.9,0-2.2C-248.4,703.1-249.5,704.5-250.1,705z
				 M-249.7,728.9c0.1,0.2,0.2,1.1-0.2,1.2c-0.4,0.2-1-0.8-1.3-1.1c-0.4-0.5-0.6-0.9-0.9-1.3c-0.3-0.4-0.8-0.7-1.2-1.1
				c-0.4-0.4-0.7-0.8-1.1-1.2c-2.2-2.3-3.9-4.9-6.2-7.4c-1.5-1.6-2.8-3.1-4.2-4.9c-1.1-1.4-2-2.5-3.1-3.7c-0.1-0.1-1.1-0.9-0.8-1.3
				c0.3-0.3,1.1,0.2,1.5,0.3c0.4,0.1,1.2,0.3,1.3,0.5c0.2,0.2,0.3,0.9,0.3,1c0.1,0.3,0.4,0.5,0.7,0.8c0.6,0.7,1.4,1.7,2,2.4
				c0.9,1,1.8,2.2,2.7,3.3c0.5,0.6,1.1,0.9,1.5,1.5c0.4,0.5,0.6,1,1,1.4c0.4,0.4,0.8,0.8,1.1,1.2c0.6,0.7,1,1.5,1.6,2.2
				c0.9,1.1,1.5,2.1,2.6,3.1c0.3,0.3,0.6,0.7,0.9,1C-250.8,727.4-249.9,728-249.7,728.9z M-249.9,726.4c-0.5,0.2-1-0.9-1.3-1.2
				c-0.4-0.4-0.9-0.7-1.1-1c-0.5-0.6-0.9-1.3-1.4-1.9c-0.9-1.3-2-2.4-3-3.7c-0.5-0.6-0.9-1.3-1.4-1.9c-0.5-0.6-1.1-1-1.5-1.6
				c-1.1-1.4-2.4-2.8-3.6-4.2c-0.2-0.2-0.6-0.7-0.5-0.9c0.2-0.4,1.3-0.1,1.6,0.1c0.6,0.3,1,1.2,1.6,1.9c0.6,0.7,1.3,1.3,1.7,1.8
				c1,1.4,1.9,2.5,3.1,3.8c0.6,0.6,1.2,1.2,1.7,1.8c0.5,0.7,0.9,1.4,1.5,2c1,1.2,2.7,2.4,3,4.1
				C-249.6,725.8-249.6,726.3-249.9,726.4z M-250.8,719.8c0.5,0.6,1,1.2,1.1,1.8c0.2,1.8-1.3-0.1-1.6-0.4c-1-1.1-1.6-2-2.4-2.9
				c-0.4-0.5-0.8-0.9-1.3-1.3c-1-1.1-1.5-2.2-2.5-3.2c-0.6-0.6-1.3-1.4-1.9-2.3c-0.2-0.2-0.6-0.7-0.5-0.9c0.1-0.2,0.8-0.3,1.1-0.2
				c0.6,0.1,2,2,2.4,2.5c0.6,0.7,1.3,1.9,2.1,2.8c0.4,0.5,1,0.9,1.3,1.3C-252.2,717.9-251.7,718.8-250.8,719.8z M-249.7,717.8
				c0.1,0.4,0.2,1.1-0.1,1.2c-0.4,0.2-1.2-1.1-1.3-1.3c-0.4-0.5-0.7-1.2-1.1-1.5c-0.3-0.4-0.9-0.8-1.4-1.3c-0.9-1.1-1.4-1.9-2.4-3.1
				c-0.4-0.5-1.9-2.3-0.1-2c0.4,0.1,1.3,1.2,1.7,1.6c0.9,1.1,2.1,2.5,3,3.6C-250.9,715.9-249.9,716.7-249.7,717.8z M-249.6,713
				c0.1,0.4,0.3,1.9-0.3,2c-0.4,0.1-0.8-0.7-0.9-0.8c-0.4-0.5-0.6-0.7-0.8-0.9c-0.6-0.6-1.1-1.4-1.5-1.9c-0.3-0.4-1.5-1.3-1.3-1.9
				c0.1-0.3,1-0.6,1.5-0.5c0.6,0.1,1.2,1,1.7,1.6C-250.6,711.5-249.8,712-249.6,713z M-249.9,707.6c0.4,0.2,0.4,1,0.3,2
				c0,0.6-0.1,1.1-0.8,0.5c-0.2-0.2-1.1-1.3-1.1-1.6C-251.4,708.3-250.5,707.4-249.9,707.6z"/>
			<path id="XMLID_1032_" class="st3" d="M-248,107.5c0.2-0.3,0-1.4,0-2.2c0-4.4-0.1-9.1,0-13.8c0-3.9-0.1-7,0.2-10.5
				c0.2-2.3,0-5.1,0-7.3c0-2.5-0.1-5.6-1.9-8.1c-1.3-1.8-3.7-2.8-5.7-2.6c-1.9,0.2-3.4,2.5-3.5,3.8c0,1.1,0.6,3.4,1.9,4.1
				c0.6,0.3,2.2,0.2,2.6-0.9c0.2-0.5,0-1.2-0.2-1.6c-0.2-0.5-0.7-1.2-0.2-1.6c0.7-0.7,2.5,0.2,3.1,0.8c1.5,1.5,1.9,3.9,2,5.5
				c0,2.6-0.9,5.4-1.9,7.4c-0.6,1.3-1.3,2-1.7,2.4c-0.6,0.8-1,1.3-1.5,1.8c-2.1,2.2-3.8,4.7-5.7,6.9c-1,1.2-2,2.2-3,3.3
				c-1.9,2.2-3.7,4.4-5.8,6.8c-0.4,0.5-0.9,1.2-1.4,1.7c-0.4,0.5-1.5,1.2-1.4,1.7c0.1,0.4,0.4,0.6,1,0.6c0.6,0,0.7-0.2,1.1-0.4
				c3.2-1.7,8-2.7,12.9-1.9c0.9,0.2,1.7,0.3,2.5,0.6c0.8,0.3,1.6,0.5,2.3,0.8c0.8,0.4,1.6,1,2.2,1.5
				C-249.5,106.7-248.4,108.1-248,107.5z M-251.4,84.5c-0.3,0.3-0.5,0.7-0.9,1c-1,1-1.7,1.9-2.6,3.1c-0.5,0.7-1,1.5-1.6,2.2
				c-0.3,0.4-0.8,0.8-1.1,1.2c-0.4,0.4-0.6,0.9-1,1.4c-0.5,0.6-1.1,0.9-1.5,1.5c-0.8,1-1.8,2.2-2.7,3.3c-0.7,0.7-1.4,1.7-2,2.4
				c-0.3,0.3-0.6,0.5-0.7,0.8c-0.1,0.2-0.2,0.8-0.3,1c-0.2,0.2-0.9,0.3-1.3,0.5c-0.3,0.1-1.2,0.6-1.5,0.3c-0.3-0.3,0.7-1.2,0.8-1.3
				c1.1-1.2,2-2.4,3.1-3.7c1.5-1.8,2.8-3.3,4.2-4.9c2.3-2.5,4-5.1,6.2-7.4c0.4-0.4,0.7-0.8,1.1-1.2c0.4-0.4,0.9-0.7,1.2-1.1
				c0.3-0.4,0.5-0.8,0.9-1.3c0.2-0.3,0.8-1.2,1.3-1.1c0.4,0.1,0.2,1,0.2,1.2C-249.9,83.2-250.8,83.8-251.4,84.5z M-249.7,85.8
				c-0.3,1.8-1.9,2.9-3,4.1c-0.5,0.6-0.9,1.3-1.5,2c-0.5,0.6-1.1,1.2-1.7,1.8c-1.2,1.3-2.1,2.4-3.1,3.8c-0.4,0.5-1.1,1.1-1.7,1.8
				c-0.6,0.7-1.1,1.6-1.6,1.9c-0.3,0.2-1.4,0.5-1.6,0.1c-0.1-0.2,0.3-0.8,0.5-0.9c1.3-1.4,2.5-2.8,3.6-4.2c0.5-0.6,1.1-1,1.5-1.6
				c0.5-0.6,0.9-1.3,1.4-1.9c1-1.3,2.1-2.4,3-3.7c0.5-0.7,0.9-1.4,1.4-1.9c0.3-0.3,0.8-0.6,1.1-1c0.3-0.3,0.7-1.4,1.3-1.2
				C-249.6,85-249.6,85.4-249.7,85.8z M-253.1,94.3c-0.4,0.4-0.9,0.7-1.3,1.3c-0.7,0.9-1.5,2.1-2.1,2.8c-0.4,0.5-1.8,2.4-2.4,2.5
				c-0.3,0.1-1,0-1.1-0.2c-0.1-0.3,0.3-0.7,0.5-0.9c0.7-0.9,1.4-1.6,1.9-2.3c1-1,1.5-2.1,2.5-3.2c0.4-0.5,0.8-0.8,1.3-1.3
				c0.8-1,1.4-1.8,2.4-2.9c0.3-0.3,1.8-2.2,1.6-0.4c-0.1,0.6-0.6,1.2-1.1,1.8C-251.7,92.5-252.2,93.3-253.1,94.3z M-251.6,96.2
				c-0.8,1.1-2.1,2.5-3,3.6c-0.4,0.4-1.3,1.5-1.7,1.6c-1.8,0.3-0.2-1.5,0.1-2c0.9-1.2,1.5-2,2.4-3.1c0.5-0.6,1.1-1,1.4-1.3
				c0.3-0.4,0.7-1,1.1-1.5c0.2-0.2,1-1.4,1.3-1.3c0.3,0.1,0.2,0.8,0.1,1.2C-249.9,94.6-250.9,95.4-251.6,96.2z M-251.3,100.6
				c-0.5,0.6-1.1,1.5-1.7,1.6c-0.5,0.1-1.4-0.2-1.5-0.5c-0.2-0.6,1-1.5,1.3-1.9c0.4-0.5,1-1.3,1.5-1.9c0.2-0.2,0.4-0.5,0.8-0.9
				c0.1-0.1,0.5-0.9,0.9-0.8c0.5,0.1,0.3,1.6,0.3,2C-249.8,99.3-250.6,99.8-251.3,100.6z M-251.5,102.7c0-0.3,0.9-1.4,1.1-1.6
				c0.7-0.6,0.8-0.1,0.8,0.5c0,1,0,1.8-0.3,2C-250.5,103.8-251.4,102.9-251.5,102.7z"/>
		</g>
		<g id="XMLID_1026_">
			<g id="XMLID_1028_">
				<path id="XMLID_1030_" class="st3" d="M-260.9,340.8c1.9,0.9,2.8,2.9,2.9,5.2c0.1,3.1-1.3,6.2-2.6,8.3c-1.2,1.8-2.5,3.8-4.3,5.2
					c-1.1,0.8-0.3,1.1,0.7,1.9c1,0.8,1.7,1.4,2.2,2.6c0.5,1,1,2.3,0.6,3.9c-0.2,0.8-0.7,1.8-1.7,2.4c-1.5,0.9-4.5,0.9-4.3-1.5
					c0.1-1.5,2.2-1.5,2.5-2.9c0.1-0.7-0.4-2.2-0.8-2.6c-1.6-1.7-5.7,0-6.9,1.1c-1,1-1.6,3-1.8,4.7c-0.1,1.1-0.1,2.1,0.1,3.1
					c0.4,2.6,2.5,5.1,5.1,5.9c1.7,0.6,2.9,0.5,4.6,0.5c1.8,0,3.3-0.3,4.7-0.9c2.1-0.9,3.6-2.1,4.8-4.2c0.8-1.3,1.6-3.1,1.5-5.5
					c0-0.9,1.1-0.9,1.2,0.2c0.2,2.7-0.7,5-1.4,6.3c-1.2,2.2-3.2,3.9-5.4,5.2c-2.2,1.2-5.3,1.7-8.6,1.3c-1.6-0.2-3-0.9-4.3-1.7
					c-1.5-0.9-3.2-3-4-4.5c-0.2-0.4-0.4-1-0.5-1.5c-0.4-1.2-0.4-1.8-0.3-3.1c0-0.7,0.1-1.8,0.1-2.3c0.5-3.2,2.4-5.1,4.7-6.5
					c2.6-1.6,5.4-2.2,7.6-4.4c1.1-1.2,2.5-2.9,3.1-4.4c0.6-1.4,1.1-3.7,0.9-5.6c-0.1-0.9-0.8-2.6-1.8-2.4c-0.6,0.1-0.6,0.9-0.7,1.5
					c-0.1,0.5-0.3,1.2-0.7,1.5c-1,0.6-2.4-0.1-2.7-0.7c-0.7-1.2,0-3.5,0.6-4.4C-265.1,341-262.6,339.9-260.9,340.8z"/>
				<path id="XMLID_1029_" class="st3" d="M-260.9,424.7c1.9-0.9,2.8-2.9,2.9-5.2c0.1-3.1-1.3-6.2-2.6-8.3c-1.2-1.8-2.5-3.8-4.3-5.2
					c-1.1-0.8-0.3-1.1,0.7-1.9c1-0.8,1.7-1.4,2.2-2.6c0.5-1,1-2.3,0.6-3.9c-0.2-0.8-0.7-1.8-1.7-2.4c-1.5-0.9-4.5-0.9-4.3,1.5
					c0.1,1.5,2.2,1.5,2.5,2.9c0.1,0.7-0.4,2.2-0.8,2.6c-1.6,1.7-5.7,0-6.9-1.1c-1-1-1.6-3-1.8-4.7c-0.1-1.1-0.1-2.1,0.1-3.1
					c0.4-2.6,2.5-5.1,5.1-5.9c1.7-0.6,2.9-0.5,4.6-0.5c1.8,0,3.3,0.3,4.7,0.9c2.1,0.9,3.6,2.1,4.8,4.2c0.8,1.3,1.6,3.1,1.5,5.5
					c0,0.9,1.1,0.9,1.2-0.2c0.2-2.7-0.7-5-1.4-6.3c-1.2-2.2-3.2-3.9-5.4-5.2c-2.2-1.2-5.3-1.7-8.6-1.3c-1.6,0.2-3,0.9-4.3,1.7
					c-1.5,0.9-3.2,3-4,4.5c-0.2,0.4-0.4,1-0.5,1.5c-0.4,1.2-0.4,1.8-0.3,3.1c0,0.7,0.1,1.8,0.1,2.3c0.5,3.2,2.4,5.1,4.7,6.5
					c2.6,1.6,5.4,2.2,7.6,4.4c1.1,1.2,2.5,2.9,3.1,4.4c0.6,1.4,1.1,3.7,0.9,5.6c-0.1,0.9-0.8,2.6-1.8,2.4c-0.6-0.1-0.6-0.9-0.7-1.5
					c-0.1-0.5-0.3-1.2-0.7-1.5c-1-0.6-2.4,0.1-2.7,0.7c-0.7,1.2,0,3.5,0.6,4.4C-265.1,424.5-262.6,425.6-260.9,424.7z"/>
			</g>
			<path id="XMLID_1027_" class="st3" d="M-274.7,383.9c0.5-0.1,0.9-0.3,1.3-0.5c0.3-0.1,1.8-0.8,0.7-1.2c-3.3-1.1-8.6-3-11.9-1.6
				c-1.1,0.5-1.5,1.7-1.1,2.8c0.5,1.4,1.7,1.8,2.9,1.8C-279.5,385.5-277.2,384.7-274.7,383.9z"/>
		</g>
		<g id="XMLID_1023_">
			<path id="XMLID_1025_" class="st3" d="M-253.6,417c-0.5,2.7-0.6,5.5-1.7,8c-1.2,2.7-4.1,3.6-6.7,4.1c-0.1,0-0.4,0.1-0.6,0.1
				c-0.5,0.1-0.6,0.7-0.3,1c0.2,0.1,0.4,0.3,0.5,0.4c0.5,0.5,1.2,1,1.7,1.5c1,1.2,1.9,2.4,2.7,3.7c1,1.6,1.7,3.4,2.4,5.2
				c1.2,2.9,1.9,6,2.1,9.1c0.1,1,1.1,0.5,1-0.5c-0.3-3.5-1-6.9-2.3-10c-0.1-0.4,0.1-0.8,0.6-0.8c0.2,0,0.3,0,0.5,0
				c0.5-0.1,0.5-0.9,0-1c-0.3,0-0.6-0.1-0.9-0.1c-0.6,0-1.1-0.3-1.4-0.8c0-0.1-0.1-0.2-0.1-0.3c-0.2-0.4,0.2-0.7,0.6-0.7
				c0.8,0.1,1.5,0.1,2.2,0c0.6-0.1,0.6-1,0-1.1c-0.6-0.1-1.1,0-1.7,0c-0.4,0-0.8,0-1.2,0c-0.6,0-1.1-0.3-1.4-0.7
				c-0.1-0.1-0.1-0.2-0.2-0.2c-0.2-0.3,0-0.7,0.4-0.6c1.3,0.1,2.5,0.1,3.8,0.1c0.8,0,0.8-1.2,0-1.2c-1.5,0-3.1,0.1-4.6-0.1
				c-0.6,0-1.2-0.3-1.6-0.8c-0.2-0.2-0.3-0.4-0.5-0.5c-0.2-0.2-0.1-0.5,0.1-0.7c0.5-0.3,1.1,0,1.7,0c1.6,0,3.2-0.2,4.8-0.1
				c0.7,0.1,0.8-1.1,0.2-1.2c-0.7-0.2-1.4-0.1-2.2,0c-0.1,0-0.2,0-0.3,0c-0.3,0-0.4-0.3-0.2-0.4c0.4-0.3,0.8-0.6,1.1-1
				c2.6-2.6,2.4-7.3,2.7-10.3C-252.4,416.2-253.5,416.1-253.6,417z"/>
			<path id="XMLID_1024_" class="st3" d="M-253.6,348.5c-0.5-2.7-0.6-5.5-1.7-8c-1.2-2.7-4.1-3.6-6.7-4.1c-0.1,0-0.4-0.1-0.6-0.1
				c-0.5-0.1-0.6-0.7-0.3-1c0.2-0.1,0.4-0.3,0.5-0.4c0.5-0.5,1.2-1,1.7-1.5c1-1.2,1.9-2.4,2.7-3.7c1-1.6,1.7-3.4,2.4-5.2
				c1.2-2.9,1.9-6,2.1-9.1c0.1-1,1.1-0.5,1,0.5c-0.3,3.5-1,6.9-2.3,10c-0.1,0.4,0.1,0.8,0.6,0.8c0.2,0,0.3,0,0.5,0.1
				c0.5,0.1,0.5,0.9,0,1c-0.3,0-0.6,0.1-0.9,0.1c-0.6,0-1.1,0.3-1.4,0.8c0,0.1-0.1,0.2-0.1,0.3c-0.2,0.4,0.2,0.7,0.6,0.7
				c0.8-0.1,1.5-0.1,2.2,0c0.6,0.1,0.6,1,0,1.1c-0.6,0.1-1.1,0-1.7,0c-0.4,0-0.8,0-1.2,0c-0.6,0-1.1,0.3-1.4,0.7
				c-0.1,0.1-0.1,0.2-0.2,0.2c-0.2,0.3,0,0.7,0.4,0.6c1.3-0.1,2.5-0.1,3.8-0.1c0.8,0,0.8,1.2,0,1.2c-1.5,0-3.1,0-4.6,0.1
				c-0.6,0-1.2,0.3-1.6,0.8c-0.2,0.2-0.3,0.4-0.5,0.5c-0.2,0.2-0.1,0.5,0.1,0.7c0.5,0.3,1.1,0,1.7,0c1.6,0,3.2,0.2,4.8,0.1
				c0.7-0.1,0.8,1.1,0.2,1.2c-0.7,0.2-1.4,0.1-2.2,0c-0.1,0-0.2,0-0.3,0c-0.3,0-0.4,0.3-0.2,0.4c0.4,0.3,0.8,0.6,1.1,1
				c2.6,2.6,2.4,7.3,2.7,10.3C-252.4,349.4-253.5,349.4-253.6,348.5z"/>
		</g>
	</g>
</g>
</svg>
