<?xml version="1.0" encoding="utf-8"?>
<!-- Generator: Adobe Illustrator 19.0.0, SVG Export Plug-In . SVG Version: 6.00 Build 0)  -->
<svg version="1.1" id="Layer_1" xmlns="http://www.w3.org/2000/svg" xmlns:xlink="http://www.w3.org/1999/xlink" x="0px" y="0px"
	 viewBox="-286 339.3 37.7 114.7" style="enable-background:new -286 339.3 37.7 114.7;" xml:space="preserve">
<style type="text/css">
	.st0{fill:#F0504E;}
	.st1{fill:#414042;}
</style>
<g id="XMLID_66_">
	<g id="XMLID_115_">
		<path id="XMLID_121_" class="st0" d="M-249,381.6v-27.5l-21.5,26.5C-257.9,376.3-249,381.6-249,381.6z"/>
		<path id="XMLID_120_" class="st0" d="M-253.1,443.2l-0.4-16.9c-4.1,4.9-8.5,0.2-8.5,0.2C-255.9,435.9-253.1,443.2-253.1,443.2z"/>
	</g>
	<g id="XMLID_67_">
		<g id="XMLID_96_">
			<g id="XMLID_97_">
				<path class="st1" d="M-257.7,424.4c1.9-0.9,2.8-2.9,2.9-5.2c0.1-3.2-1.2-6.2-2.6-8.3c-1.2-1.8-2.5-3.8-4.3-5.2
					c-1.1-0.9-0.3-1.2,0.7-1.9c1-0.8,1.6-1.4,2.2-2.6c0.4-1,1-2.3,0.6-3.9c-0.2-0.8-0.8-1.9-1.7-2.4c-1.5-0.8-4.5-0.9-4.3,1.5
					c0.1,1.5,2.3,1.6,2.5,2.9c0.1,0.7-0.5,2.2-0.8,2.6c-1.6,1.8-5.7,0-6.9-1.1c-1-1-1.6-3-1.8-4.7c-0.1-1.1-0.1-2.2,0.1-3.1
					c0.5-2.6,2.6-5.1,5.1-5.9c1.7-0.6,2.9-0.5,4.6-0.5c1.9,0,3.1,0.5,4.4,1.2c1.5,0.9,4.2,3.5,4.9,5.2c1.7,4.3,1.4,10,1.4,15.8
					c0,1.4,0.1,2.7,0,4.1c-0.2,2.7-0.3,5.4-0.3,8.1c0,1.4-0.1,2.9,0,4.3c0.2,2.9,0.1,5.7,0.3,8.5c0.1,2.3,0.3,4.5,0.3,6.7
					c0,2.4-0.1,4.6-0.1,6.9c0,2.3,0.2,4.6,0.2,6.8c0,0.6-0.1,1.3-0.2,2.1h2.5c0-0.2,0-0.4,0-0.5c0.1-3.4-0.2-6.9-0.1-10.4
					c0.1-1.5,0.1-3.1,0-4.6c-0.2-4.4,0-8.8-0.2-13.2c-0.1-1.5,0-3-0.1-4.5c-0.5-7.1,0.1-14.2,0.1-21.3c0-7-1.2-12.6-7.6-16.1
					c-2.2-1.3-5.3-1.8-8.8-1.1c-1.6,0.2-3,0.9-4.3,1.7c-1.5,0.9-3.2,3-4,4.5c-0.1,0.4-0.3,1-0.5,1.5c-0.4,1.2-0.4,1.8-0.3,3.1
					c0,0.7,0,1.8,0.1,2.3c0.5,3.2,2.5,5.1,4.7,6.5c2.6,1.6,5.5,2.2,7.6,4.4c1.2,1.1,2.5,2.9,3.1,4.4c0.6,1.4,1.1,3.7,0.9,5.6
					c-0.1,0.9-0.8,2.6-1.8,2.4c-0.6-0.1-0.6-1-0.7-1.5c-0.1-0.5-0.3-1.2-0.7-1.5c-1-0.6-2.4,0.2-2.7,0.7c-0.7,1.2,0,3.5,0.6,4.4
					C-261.9,424.2-259.4,425.2-257.7,424.4z"/>
				<path class="st1" d="M-254.6,444.3c0.8,4.1,0.9,8,0.8,12h1.1c0,0,0-0.1,0-0.1c0.2-3.3,0.1-5.8,0-8.9v-4.1c0-1.4,0-2.8-0.1-4.2
					c-0.1-1.1,0-2.2,0-3.4c0-1.4-0.2-3.8-0.2-5.6c0-1.1,0.1-3-0.2-4.2c-0.3-2-1.3,0.6-1.9,1.1c-1.2,0.9-3.8,1.1-5.6,0.3
					c-0.4-0.2-0.8-0.4-1.3-0.7c-0.4-0.3-1.1-0.8-1.4-0.4c-0.3,0.3,0.5,1.2,0.9,1.6c0.5,0.6,1,0.8,1.3,1.3c2.1,2.7,3.6,6,5,9.5
					C-255.4,440.5-254.9,442.2-254.6,444.3z M-253.7,441c-0.5,0.9-2-3.5-0.3-2.6C-253.6,438.6-253.5,440.6-253.7,441z M-253.8,436.9
					c-0.5,1.4-2.6-0.2-2.1-0.9c0.2-0.3,1.6-0.4,2-0.1C-253.7,436.1-253.6,436.5-253.8,436.9z M-257.3,428.8c0.7-0.2,1.5-0.4,2.1-0.7
					c0.3-0.1,0.7-0.6,1.1-0.4c0.3,0.2,0.2,1.2,0,1.4c-0.3,0.3-2.3,0.5-3.3,0.2C-257.7,429.2-257.5,428.8-257.3,428.8z M-258.4,431.3
					c-0.2-0.3-0.2-0.9-0.4-1.1c-0.2-0.3-1.1-0.7-0.8-1.1c0.1-0.3,0.7-0.4,0.9-0.1c0.1,0.2-0.2,0.6,0,1s2.4,0.5,3.6,0.5
					c0.4,0,0.7-0.1,0.9,0c0.3,0.2,0.4,1,0.3,1.2c-0.2,0.7-1.3,0.5-2.6,0.4C-257.7,432-258,432.1-258.4,431.3z M-257.1,433.2
					c0.2-0.3,0.9-0.2,1.6-0.1c1.1,0.1,2.1,0.1,1.7,1.3c-0.2,0.6-1.9,0.9-2.7,0.3C-256.9,434.4-257.3,433.5-257.1,433.2z"/>
			</g>
		</g>
		<g id="XMLID_76_">
			<path id="XMLID_77_" class="st1" d="M-248.2,383.9c0.2-0.3,0-1.4,0-2.2c0-4.4-0.1-9.1,0-13.8c0-3.9-0.1-7,0.2-10.5
				c0.2-2.3,0-5.1,0-7.3c0-2.5-0.1-5.6-1.9-8.1c-1.3-1.8-3.7-2.8-5.7-2.6c-1.9,0.2-3.4,2.5-3.5,3.8c0,1.1,0.6,3.4,1.9,4.1
				c0.5,0.2,2.1,0,2.6-1c0.2-0.5,0-1.2-0.2-1.6c-0.2-0.6-0.7-1.3-0.2-1.7c0.7-0.7,2.5,0.2,3.1,0.8c1.5,1.5,1.9,3.9,2,5.5
				c0,2.6-0.9,5.4-1.9,7.4c-0.6,1.3-1.3,2-1.7,2.4c-0.6,0.8-1,1.3-1.5,1.8c-2.1,2.2-3.8,4.7-5.7,6.9c-1,1.2-2,2.2-3,3.3
				c-1.9,2.2-3.7,4.4-5.8,6.8c-0.4,0.5-0.9,1.2-1.4,1.7c-0.4,0.5-1.5,1.2-1.4,1.7c0.1,0.4,0.4,0.6,1,0.6c0.6,0,0.7-0.2,1.1-0.4
				c3.2-1.7,8-2.7,12.9-1.9c0.9,0.2,1.7,0.3,2.5,0.6s1.6,0.5,2.3,0.8c0.8,0.4,1.6,1,2.2,1.5C-249.7,383.1-248.5,384.5-248.2,383.9z
				 M-251.6,360.9c-0.3,0.3-0.5,0.7-0.9,1c-1,1-1.7,1.9-2.6,3.1c-0.5,0.7-1,1.5-1.6,2.2c-0.3,0.4-0.8,0.8-1.1,1.2
				c-0.4,0.4-0.6,0.9-1,1.4c-0.5,0.6-1.1,0.9-1.5,1.5c-0.8,1-1.8,2.2-2.7,3.3c-0.7,0.7-1.4,1.7-2,2.4c-0.3,0.3-0.6,0.5-0.7,0.8
				c-0.1,0.2-0.2,0.8-0.3,1c-0.2,0.2-0.9,0.3-1.3,0.5c-0.3,0.1-1.2,0.6-1.5,0.3c-0.3-0.3,0.7-1.2,0.8-1.3c1.1-1.2,2-2.4,3.1-3.7
				c1.5-1.8,2.8-3.3,4.2-4.9c2.3-2.5,4-5.1,6.2-7.4c0.4-0.4,0.7-0.8,1.1-1.2c0.4-0.4,0.9-0.7,1.2-1.1c0.3-0.4,0.5-0.8,0.9-1.3
				c0.2-0.3,0.8-1.2,1.3-1.1c0.4,0.1,0.2,1,0.2,1.2C-250,359.6-251,360.2-251.6,360.9z M-249.8,362.2c-0.3,1.8-1.9,2.9-3,4.1
				c-0.5,0.6-0.9,1.3-1.5,2c-0.5,0.6-1.1,1.2-1.7,1.8c-1.2,1.3-2.1,2.4-3.1,3.8c-0.4,0.5-1.1,1.1-1.7,1.8c-0.6,0.7-1.1,1.6-1.6,1.9
				c-0.3,0.2-1.4,0.5-1.6,0.1c-0.1-0.2,0.3-0.8,0.5-0.9c1.3-1.4,2.5-2.8,3.6-4.2c0.5-0.6,1.1-1,1.5-1.6c0.5-0.6,0.9-1.3,1.4-1.9
				c1-1.3,2.1-2.4,3-3.7c0.5-0.7,0.9-1.4,1.4-1.9c0.3-0.3,0.8-0.6,1.1-1c0.3-0.3,0.7-1.4,1.3-1.2
				C-249.7,361.4-249.8,361.8-249.8,362.2z M-253.2,370.7c-0.4,0.4-0.9,0.7-1.3,1.3c-0.7,0.9-1.5,2.1-2.1,2.8
				c-0.5,0.5-1.8,2.4-2.4,2.5c-0.3,0.1-1,0-1.1-0.2c-0.1-0.3,0.3-0.7,0.5-0.9c0.7-0.9,1.4-1.6,1.9-2.3c1-1,1.5-2.1,2.5-3.2
				c0.4-0.5,0.8-0.8,1.3-1.3c0.8-1,1.4-1.8,2.4-2.9c0.3-0.3,1.8-2.2,1.6-0.4c-0.1,0.6-0.6,1.2-1.1,1.8
				C-251.8,368.9-252.4,369.8-253.2,370.7z M-251.7,372.6c-0.8,1.1-2.1,2.5-3,3.6c-0.4,0.4-1.3,1.5-1.7,1.6c-1.8,0.3-0.2-1.5,0.1-2
				c0.9-1.2,1.5-2,2.4-3.1c0.5-0.6,1.1-1,1.4-1.3c0.3-0.4,0.7-1,1.1-1.5c0.2-0.2,1-1.4,1.3-1.3c0.3,0.1,0.2,0.8,0.1,1.2
				C-250.1,371-251.1,371.8-251.7,372.6z M-251.5,377c-0.5,0.6-1.1,1.5-1.7,1.6c-0.5,0.1-1.4-0.2-1.5-0.5c-0.2-0.6,1-1.5,1.3-1.9
				c0.4-0.5,1-1.3,1.5-1.9c0.2-0.2,0.4-0.5,0.8-0.9c0.1-0.1,0.5-0.9,0.9-0.8c0.5,0.1,0.3,1.6,0.3,2
				C-250,375.7-250.8,376.2-251.5,377z M-251.6,379.2c0-0.3,0.9-1.4,1.1-1.6c0.7-0.6,0.8-0.1,0.8,0.5c0,1,0,1.8-0.3,2
				C-250.6,380.2-251.6,379.4-251.6,379.2z"/>
		</g>
	</g>
</g>
</svg>
