<?xml version="1.0" encoding="utf-8"?>
<!-- Generator: Adobe Illustrator 19.1.0, SVG Export Plug-In . SVG Version: 6.00 Build 0)  -->
<svg version="1.1" id="XMLID_1_" xmlns="http://www.w3.org/2000/svg" xmlns:xlink="http://www.w3.org/1999/xlink" x="0px" y="0px"
	 viewBox="0 0 68.4713 25.9471" enable-background="new 0 0 68.4713 25.9471" xml:space="preserve">
<g id="bridge">
	<g>
		<path d="M25.4657,8.19c0.3157,0.3334,0.6375,0.6613,0.9462,1.001c1.8587,2.0453,3.58,4.2386,5.6021,6.1067
			c3.1274,2.8891,5.4996,1.9184,8.5195,0.1088c2.7564-1.6517,5.2808-3.5572,7.2196-6.1798c0.3166-0.4283,1.0161-0.5735,1.765-0.9692
			c0.0666,0.7677,0.1162,1.3392,0.1728,1.9913c1.7579-1.4295,1.9161,0.6709,2.4737,1.2235c3.3451,3.3149,6.485,6.836,9.7764,10.207
			c0.4283,0.4386,1.3376,0.3965,2.0156,0.6046c1.3436,0.4122,2.9459,0.2838,3.7621,1.8289
			c0.0838,0.1586,0.5046,0.1392,0.7525,0.3493c-6.1886,0.9822-12.0925-1.3807-18.262-1.7601
			c-0.1075,1.1667-0.203,2.2027-0.2991,3.2451c-0.8282-0.144-0.8282-0.144-0.9472-3.6459c-0.541-0.0499-1.0956-0.101-1.7786-0.1639
			c-0.1248,0.757-0.2135,1.5571-0.4066,2.3311c-0.0712,0.2856-0.3883,0.5098-0.5932,0.7621
			c-0.1406-0.3363-0.4264-0.6878-0.3931-1.0058c0.0837-0.7997,0.3116-1.5842,0.5252-2.5774
			c-4.3477-0.8962-8.5556-1.8845-12.8086-2.6062c-4.2527-0.7217-8.5506-1.1769-12.5597-1.7129
			c-1.3109,0.9121,0.055,2.8168-1.9054,3.5491c0.1308-1.4193,0.2303-2.4984,0.3274-3.5519
			c-2.7844-0.7504-2.7844-0.7504-3.6549,3.3213c-1.213-1.3102-0.1747-2.7132-0.4871-4.099
			c-4.9928-1.3335-10.0602-2.6869-15.225-4.0664c-0.0443-0.9048,0.3794-1.4498,1.4049-1.2915
			c1.0866,0.1678,1.9314,0.0834,2.9235-0.6768C5.7237,9.446,7.4274,8.7692,9.0436,8.0249c0.3309-0.1524,0.8638,0.1339,1.3036,0.218
			l-0.0294-0.038C10.1132,8.3802,9.932,8.5989,9.7002,8.7235c-1.5216,0.8181-3.0541,1.6158-4.8765,2.5746
			c3.2749,0.7756,13.1619-5.9724,13.6828-8.995c-0.7972,0.7177-1.5606,1.405-2.3241,2.0923l0.0296,0.0427
			c0.0511-0.5085-0.0878-1.1883,0.188-1.4942C17.3142,1.9302,18.3778,1.0512,19.5143,0c0.1332,1.4887,0.9806,1.5742,2.0503,1.1377
			c1.0509,1.8045,2.0984,3.5453,3.0741,5.3256c0.205,0.3741,0.1454,0.8931,0.2077,1.3454
			c-0.3867-0.4463-0.8509-0.8472-1.1444-1.3482c-0.6665-1.1378-1.249-2.3248-1.8656-3.4918
			c-0.1617,0.0668-0.3234,0.1335-0.4851,0.2003c0.1744,0.535,0.2486,1.1331,0.5394,1.5949
			c2.0914,3.3219,4.1497,6.6701,6.3987,9.8839c0.6135,0.8767,1.8423,1.3227,2.7887,1.9664c0.0993-0.1439,0.1987-0.2879,0.298-0.4318
			c-1.3994-1.4122-2.8969-2.7428-4.1643-4.2649C26.3391,10.8697,25.0503,9.8914,25.4657,8.19z M53.8379,16.8404
			c-0.9422-0.7942-1.8844-1.5885-2.855-2.4067c-0.1929,2.0928-0.3858,4.1859-0.5874,6.3721
			c2.0453,0.1885,3.9466,0.3638,5.8701,0.5411c-0.6617-1.0221-1.2899-1.9923-1.918-2.9625c0.6518,0.45,1.4279,0.7917,1.9323,1.3701
			c1.5365,1.7619,2.4997,2.2818,3.9006,1.8767c-2.9019-3.2384-5.8102-6.4841-8.7186-9.7298c-0.1199,0.081-0.2398,0.162-0.3598,0.243
			c0.2178,0.4859,0.3888,1.0003,0.6628,1.4521C52.4305,14.6934,53.1439,15.761,53.8379,16.8404z M17.9982,5.6532
			c-0.0847-0.0931-0.1694-0.1861-0.2541-0.2792c-3.224,2.3244-6.02,5.2896-9.8226,6.8031c2.6819,0.6951,5.3639,1.3901,7.9969,2.0725
			C16.6392,11.2705,17.3187,8.4618,17.9982,5.6532z M21.6666,6.2657c-0.1114-0.0239-0.2228-0.0477-0.3341-0.0716
			c-0.2666,2.892-0.5331,5.7839-0.821,8.9067c2.309,0.2128,4.644,0.4281,7.0356,0.6485
			C25.5765,12.5713,23.6215,9.4185,21.6666,6.2657z M47.6665,13.0529c-2.1911,1.7133-4.5518,3.5594-7.0421,5.5067
			c1.8464,0.5323,3.6935,1.0648,5.7401,1.6548C46.8389,17.6049,47.272,15.2223,47.6665,13.0529z M48.6249,9.6774
			c-2.894,3.4243-6.417,6.0117-10.6409,7.9459C40.5372,18.1851,48.1668,12.4507,48.6249,9.6774z M16.8259,14.2965
			c1.0766,0.2583,1.831,0.4394,2.5811,0.6194c0.7937-3.0126,0.6095-3.4347-1.6117-3.7029
			C17.4986,12.1567,17.1957,13.1201,16.8259,14.2965z M20.193,7.5677c-0.5675-0.0523-1.4828-0.2786-1.5554-0.1197
			c-0.3892,0.8516-0.5684,1.7991-0.8438,2.7994c0.8794,0.1222,1.4708,0.2045,2.125,0.2954
			C20.0115,9.5365,20.0937,8.6453,20.193,7.5677z M49.2248,19.7986c0.2167-1.2024,0.2818-2.2242-1.2186-2.7328
			c-0.1478,0.9184-0.2903,1.804-0.4566,2.8371C48.3107,19.8554,48.764,19.8272,49.2248,19.7986z M19.1556,3.8746
			c-0.085,0.9227-0.1571,1.7046-0.2292,2.4861c0.4918,0.1219,0.9011,0.2233,1.3359,0.3311
			c0.0847-0.9194,0.1654-1.7949,0.2482-2.6923C20.0171,3.954,19.6487,3.9201,19.1556,3.8746z M50.2108,11.3707
			c-1.8461-0.4013-1.1533,1.1045-1.431,1.7923c-0.0883,0.2187,0.258,0.613,0.4054,0.9269c0.3179-0.2257,0.8351-0.3983,0.9121-0.688
			C50.2573,12.8002,50.1838,12.1364,50.2108,11.3707z M48.1175,14.9264c0.0445,0.6189,0.081,1.1255,0.118,1.6403
			c0.4967,0.0458,0.8958,0.0826,1.2928,0.1192C50.0046,15.3746,49.5158,14.8552,48.1175,14.9264z"/>
		<path fill="#FFFFFF" d="M25.4657,8.19c-0.4153,1.7014,0.8734,2.6797,1.746,3.7275c1.2675,1.5221,2.7649,2.8526,4.1643,4.2649
			c-0.0993,0.1439-0.1987,0.2879-0.298,0.4318c-0.9464-0.6437-2.1752-1.0898-2.7887-1.9664
			c-2.249-3.2138-4.3073-6.562-6.3987-9.8839c-0.2907-0.4618-0.3649-1.0599-0.5394-1.5949
			c0.1617-0.0668,0.3234-0.1335,0.4851-0.2003c0.6166,1.167,1.1991,2.354,1.8656,3.4918c0.2934,0.5009,0.7577,0.9018,1.1444,1.3482
			C25.0528,7.9358,25.2592,8.0629,25.4657,8.19z"/>
		<path d="M12.6489,6.4758c0.9988-1.6069,2.4761-2.4517,3.5632-2.0377l-0.0296-0.0427c-1.1421,0.8355-2.2842,1.6711-3.4263,2.5066
			C12.7204,6.7599,12.6846,6.6179,12.6489,6.4758z"/>
		<path d="M12.6489,6.4758c0.0357,0.1421,0.0715,0.2841,0.1072,0.4262c-0.8128,0.4343-1.6256,0.8687-2.4384,1.303l0.0294,0.038
			C10.6819,7.0905,11.5357,6.6142,12.6489,6.4758z"/>
		<path fill="#FFFFFF" d="M17.9982,5.6532c-0.6795,2.8086-1.3591,5.6172-2.0799,8.5965c-2.633-0.6824-5.3149-1.3775-7.9969-2.0725
			c3.8027-1.5135,6.5986-4.4787,9.8226-6.8031C17.8288,5.4671,17.9135,5.5601,17.9982,5.6532z"/>
		<path fill="#FFFFFF" d="M21.6666,6.2657c1.9549,3.1528,3.9099,6.3056,5.8804,9.4836c-2.3915-0.2204-4.7266-0.4357-7.0356-0.6485
			c0.2878-3.1227,0.5544-6.0147,0.821-8.9067C21.4438,6.218,21.5552,6.2419,21.6666,6.2657z"/>
		<path fill="#FFFFFF" d="M54.3477,18.3844c0.6281,0.9702,1.2563,1.9404,1.918,2.9625c-1.9236-0.1773-3.8248-0.3526-5.8701-0.5411
			c0.2015-2.1862,0.3945-4.2793,0.5874-6.3721c0.9706,0.8182,1.9128,1.6125,2.855,2.4066
			C54.0078,17.355,54.1777,17.8697,54.3477,18.3844z"/>
		<path fill="#FFFFFF" d="M47.6665,13.0529c-0.3944,2.1694-0.8276,4.552-1.302,7.1614c-2.0466-0.59-3.8937-1.1225-5.7401-1.6548
			C43.1146,16.6123,45.4754,14.7663,47.6665,13.0529z"/>
		<path fill="#FFFFFF" d="M54.3477,18.3844c-0.1699-0.5147-0.3399-1.0295-0.5098-1.5441c-0.694-1.0793-1.4074-2.147-2.0728-3.2438
			c-0.2741-0.4518-0.445-0.9662-0.6628-1.4521c0.1199-0.081,0.2398-0.162,0.3598-0.243c2.9084,3.2457,5.8167,6.4913,8.7186,9.7298
			c-1.4009,0.4051-2.3641-0.1149-3.9006-1.8767C55.7755,19.1761,54.9995,18.8344,54.3477,18.3844z"/>
		<path fill="#FFFFFF" d="M10.3178,8.205c0.8128-0.4343,1.6256-0.8687,2.4384-1.303c1.1421-0.8355,2.2842-1.6711,3.4263-2.5066
			c0.7635-0.6873,1.5269-1.3746,2.3241-2.0923c-0.521,3.0225-10.408,9.7706-13.6828,8.995
			c1.8224-0.9588,3.3549-1.7565,4.8765-2.5746C9.932,8.5989,10.1132,8.3802,10.3178,8.205z"/>
		<path fill="#FFFFFF" d="M48.6249,9.6774c-0.4581,2.7733-8.0877,8.5077-10.6409,7.9459
			C42.2079,15.6891,45.7309,13.1017,48.6249,9.6774z"/>
		<path fill="#FFFFFF" d="M16.8259,14.2965c0.3699-1.1764,0.6728-2.1399,0.9694-3.0835c2.2211,0.2681,2.4054,0.6903,1.6117,3.7029
			C18.6569,14.7359,17.9025,14.5549,16.8259,14.2965z"/>
		<path fill="#FFFFFF" d="M20.193,7.5677c-0.0993,1.0776-0.1815,1.9688-0.2742,2.975c-0.6542-0.0909-1.2456-0.1731-2.125-0.2954
			c0.2754-1.0002,0.4546-1.9478,0.8438-2.7994C18.7102,7.2891,19.6255,7.5154,20.193,7.5677z"/>
		<path fill="#FFFFFF" d="M49.2248,19.7986c-0.4609,0.0287-0.9142,0.0569-1.6752,0.1042c0.1663-1.0331,0.3088-1.9187,0.4566-2.8371
			C49.5067,17.5744,49.4416,18.5962,49.2248,19.7986z"/>
		<path fill="#FFFFFF" d="M19.1556,3.8746c0.4931,0.0454,0.8614,0.0794,1.3549,0.1249c-0.0827,0.8974-0.1634,1.7729-0.2482,2.6923
			c-0.4348-0.1078-0.8441-0.2092-1.3359-0.3311C18.9985,5.5792,19.0706,4.7973,19.1556,3.8746z"/>
		<path fill="#FFFFFF" d="M50.2108,11.3707c-0.027,0.7658,0.0465,1.4295-0.1135,2.0312c-0.077,0.2897-0.5942,0.4624-0.9121,0.688
			c-0.1474-0.3139-0.4938-0.7082-0.4054-0.9269C49.0576,12.4751,48.3647,10.9694,50.2108,11.3707z"/>
		<path fill="#FFFFFF" d="M48.1175,14.9264c1.3982-0.0712,1.8871,0.4481,1.4108,1.7595c-0.397-0.0366-0.7961-0.0734-1.2928-0.1192
			C48.1985,16.052,48.1621,15.5453,48.1175,14.9264z"/>
	</g>
</g>
</svg>
