<?xml version="1.0" encoding="utf-8"?>
<!-- Generator: Adobe Illustrator 19.0.0, SVG Export Plug-In . SVG Version: 6.00 Build 0)  -->
<svg version="1.1" id="Layer_1" xmlns="http://www.w3.org/2000/svg" xmlns:xlink="http://www.w3.org/1999/xlink" x="0px" y="0px"
	 viewBox="-275 384.5 59.8 24.5" style="enable-background:new -275 384.5 59.8 24.5;" xml:space="preserve">
<style type="text/css">
	.st0{fill:#777777;}
	.st1{fill:#221F1F;}
	.st2{fill:#EF504E;}
</style>
<g>
	<path class="st0" d="M-273.7,396.5l0,0.3C-273.6,396.6-273.7,396.5-273.7,396.5z"/>
	<path class="st0" d="M-273.6,394.5L-273.6,394.5C-273.7,394.5-273.6,394.6-273.6,394.5z"/>
	<path class="st0" d="M-245.3,384.9c-0.4-0.1-0.8-0.2-0.8-0.1l0.1,0.1C-245.7,384.9-245.5,384.9-245.3,384.9z"/>
	<path class="st0" d="M-266.4,385.6c0.1,0,0.3,0,0.5,0.1L-266.4,385.6z"/>
	<path class="st0" d="M-272.8,406.7c0,0,0.2,0.2,0.2,0.2C-272.9,406.6-272.8,406.7-272.8,406.7z"/>
	<path class="st0" d="M-274.5,395.9c0-0.2,0-0.3-0.1-0.2C-274.5,395.9-274.5,395.9-274.5,395.9z"/>
	<path class="st0" d="M-229.9,385c0.1,0,0.1,0,0.2,0c0.3,0,0.5,0,0.8,0C-229.2,385-229.5,385-229.9,385z"/>
	<polygon class="st0" points="-252,385.6 -251.9,385.6 -252,385.6 	"/>
	<path class="st0" d="M-252.9,385.7c0.4-0.1,0.6-0.1,0.9-0.1l-0.3-0.2L-252.9,385.7z"/>
	<path class="st0" d="M-240.7,384.9c0.1,0,0.1,0,0.2,0C-240.5,385-240.6,385-240.7,384.9z"/>
	<path class="st0" d="M-258.7,408c-0.1,0-0.3,0-0.7,0C-259.1,407.9-258.9,408-258.7,408z"/>
	<path class="st0" d="M-265.8,385.6C-265.9,385.6-265.9,385.6-265.8,385.6C-266,385.6-266,385.6-265.8,385.6z"/>
	<path class="st0" d="M-272.9,406.7L-272.9,406.7C-272.9,406.7-272.9,406.7-272.9,406.7L-272.9,406.7z"/>
	<path class="st0" d="M-236.2,385.5c0,0,0.1,0,0.3,0C-236,385.5-236.1,385.5-236.2,385.5z"/>
	<path class="st0" d="M-245,385.6c0.2,0-0.6,0-0.4-0.1c-0.5,0-0.7,0-0.5,0.1C-245.1,385.7-245.7,385.6-245,385.6z"/>
	<path class="st0" d="M-245.4,385.6c0.1,0,0.2,0,0.2,0C-245.3,385.5-245.4,385.6-245.4,385.6z"/>
	<path class="st0" d="M-273.5,390.5l0.1-0.4l0,0C-273.5,390.2-273.5,390.3-273.5,390.5z"/>
	<polygon class="st0" points="-273.5,397.1 -273.5,397 -273.6,397.2 	"/>
	<path class="st0" d="M-273.5,403c0-0.2,0-0.5,0-0.8C-273.4,402.8-273.6,403.1-273.5,403z"/>
	<path class="st0" d="M-216.5,397c0-0.1,0-0.1,0-0.3L-216.5,397z"/>
	<path class="st0" d="M-216.6,399L-216.6,399C-216.5,399-216.6,398.9-216.6,399z"/>
	<path class="st0" d="M-244.9,408.6c0.4,0.1,0.8,0.2,0.8,0.1l-0.1-0.1C-244.5,408.7-244.7,408.6-244.9,408.6z"/>
	<path class="st0" d="M-223.8,407.9c-0.1,0-0.3,0-0.5-0.1L-223.8,407.9z"/>
	<path class="st0" d="M-217.4,386.8c0,0-0.2-0.2-0.2-0.2C-217.3,386.9-217.4,386.8-217.4,386.8z"/>
	<path class="st0" d="M-215.7,397.6c0,0.2,0,0.3,0.1,0.2C-215.7,397.7-215.7,397.6-215.7,397.6z"/>
	<path class="st0" d="M-260.3,408.5c-0.1,0-0.1,0-0.2,0c-0.3,0-0.5,0-0.8,0C-261,408.5-260.7,408.5-260.3,408.5z"/>
	<polygon class="st0" points="-238.2,407.9 -238.3,407.9 -238.2,407.9 	"/>
	<path class="st0" d="M-237.3,407.8c-0.4,0.1-0.6,0.1-0.9,0.1l0.3,0.2L-237.3,407.8z"/>
	<path class="st0" d="M-215.7,403c0.1-0.2,0.2,0.2,0.2-0.4c0.1-0.3-0.2-1.8-0.1-2.6c0,0.2-0.1,0.4-0.1-0.1c0-0.6,0.2-1.7,0-2.3
		c0-0.1,0-0.1,0-0.1c0-0.5-0.1-1.6-0.2-1.9c0.3-0.5-0.2-3,0.1-3l0-1.5l0,0c0-1-0.1-1.3-0.1-1.6c0-0.2,0-0.1,0.1,0
		c0-0.7,0-1.1-0.1-1.5c-0.1-0.4-0.3-0.7-0.6-1.2l0-0.2c-0.1-0.1-0.4-0.6-1-1c-0.6-0.4-1.4-0.7-2.1-0.6c0,0,0,0,0.2,0
		c-1.6,0.1-3.7-0.2-4.3,0.1l-0.1,0c-0.1,0-0.2,0-0.2,0c-0.4,0-0.9,0-0.6,0l-1.2,0l0,0c-0.7,0-1.4,0-2.2,0c0,0,0.1,0,0.1,0
		c-0.4,0-0.6,0-0.9,0c0.2,0,0.3,0,0.5,0c-0.4,0-0.8,0-1.3,0c-0.4,0-0.8,0-1.5,0l-0.1,0c-0.5,0-1.5-0.1-1.7,0
		c-0.5-0.1-2.4-0.1-3.3-0.1l0,0.1c-0.6,0-1.2,0-2,0l0,0.1c-0.7,0-1.7-0.1-2.7-0.1c0,0,0.2,0,0.3,0c-1.2-0.1-2.5,0.1-3.5,0
		c-0.3,0-0.5,0-0.7,0l0.1,0c0,0-0.1,0-0.1,0c-0.1,0-0.3,0-0.4,0c0.1,0,0.2,0,0.3,0c-0.2,0-0.5,0-0.9,0l-0.1-0.1c0,0,0,0-0.1,0
		c-0.3,0-0.3,0-0.1,0.1c-0.2,0-0.3,0-0.4,0c-0.3-0.1-0.8,0-1.2-0.1c-0.2,0.1-1.6,0-1.8,0.2c0,0-0.1,0,0.1,0c-0.4,0-0.7,0-1,0
		l-0.2-0.1l-0.8,0.1c-0.5-0.1-0.7-0.1-0.2-0.2c-1.1,0.1-0.9,0-1.9,0.2l0-0.1c-0.3,0-0.9,0.1-1.1,0c-0.8-0.1-3.8,0-5.8-0.2
		c0.4,0.2-0.9-0.1-1,0.1c-0.1-0.1-0.4-0.1-0.1-0.1c-1,0.1-1.5-0.1-2.2,0.1c-0.1-0.1,0.2-0.1,0.1-0.1c-0.1,0-0.3,0-0.4,0
		c-0.1,0,0.1,0,0.3-0.1c-1,0-1.1,0.2-1.2,0.3c-0.5-0.1-0.8-0.1-1.2,0c-0.2-0.1-0.5-0.1,0.2-0.1c-0.4,0-2.2-0.1-2.2,0
		c-0.1,0-0.5,0-0.6,0c-0.8,0-0.9,0-1.7,0l0.2,0c-0.3,0.2-0.7,0-1.3,0.2l0,0c-0.8,0.2-0.9,0.3-1,0.4c-0.1,0.1-0.3,0.2-0.9,0.7l0.1,0
		c0,0.1-0.2,0.3-0.5,0.7c-0.3,0.3-0.5,0.8-0.5,1.3c0,0,0.1-0.3,0.1-0.3c-0.1,0.5-0.4,1.3-0.4,1.8c0,0.1,0-0.2,0-0.3
		c-0.1,1.2,0.1,0.2,0.2,1.1c-0.1,0.2-0.2-0.2-0.2,0.4c-0.1,0.3,0.2,1.8,0.1,2.6c0-0.2,0.1-0.4,0.1,0.1c0,0.6-0.2,1.7,0,2.3
		c0,0.1,0,0.1,0,0.1c0,0.5,0.1,1.6,0.2,1.9c-0.3,0.5,0.2,3-0.1,3l0,1.5l0,0c0,1,0.1,1.3,0.1,1.6c0,0.2,0,0.1-0.1,0
		c0,0.7,0,1.1,0.1,1.5c0.1,0.4,0.3,0.7,0.6,1.2l0,0.2c0.1,0.1,0.4,0.6,1,1c0.6,0.4,1.4,0.7,2.1,0.6c0,0,0,0-0.2,0
		c1.6-0.1,3.7,0.2,4.3-0.1l0.1,0c0.1,0,0.2,0,0.2,0c0.4,0,0.9,0,0.6,0l1.2,0l0,0c0.7,0,1.4,0,2.2,0c0,0-0.1,0-0.1,0
		c0.4,0,0.6,0,0.9,0c-0.2,0-0.3,0-0.5,0c0.4,0,0.8,0,1.3,0c0.4,0,0.8,0,1.5,0l0.1,0c0.5,0,1.5,0.1,1.7,0c0.5,0.1,2.4,0.1,3.3,0.1
		l0-0.1c0.6,0,1.2,0,2,0l0-0.1c0.7,0,1.7,0.1,2.7,0.1c0,0-0.2,0-0.3,0c1.2,0.1,2.5-0.1,3.5,0c0.3,0,0.5,0,0.7,0l-0.1,0
		c0,0,0.1,0,0.1,0c0.1,0,0.3,0,0.4,0c-0.1,0-0.2,0-0.3,0c0.2,0,0.5,0,0.9,0l0.1,0.1c0,0,0,0,0.1,0c0.3,0,0.3,0,0.1-0.1
		c0.2,0,0.3,0,0.4,0c0.3,0.1,0.8,0,1.2,0.1c0.2-0.1,1.6,0,1.8-0.2c0,0,0.1,0-0.1,0c0.4,0,0.7,0,1,0l0.2,0.1l0.8-0.1
		c0.5,0.1,0.7,0.1,0.2,0.2c1.1-0.1,0.9,0,1.9-0.2l0,0.1c0.3,0,0.9-0.1,1.1,0c0.8,0.1,3.8,0,5.8,0.2c-0.4-0.2,0.9,0.1,1-0.1
		c0.1,0.1,0.4,0.1,0.1,0.1c1-0.1,1.5,0.1,2.2-0.1c0.1,0.1-0.2,0.1-0.1,0.1c0.1,0,0.3,0,0.4,0c0.1,0-0.1,0-0.3,0.1
		c1,0,1.1-0.2,1.2-0.3c0.5,0.1,0.8,0.1,1.2,0c0.2,0.1,0.5,0.1-0.2,0.1c0.4,0,2.2,0.1,2.2,0c0.1,0,0.5,0,0.6,0c0.8,0,0.9,0,1.7,0
		l-0.2,0c0.3-0.2,0.7,0,1.3-0.2l0,0c0.8-0.2,0.9-0.3,1-0.4c0.1-0.1,0.3-0.2,0.9-0.7l-0.1,0c0-0.1,0.2-0.3,0.5-0.7
		c0.3-0.3,0.5-0.8,0.5-1.3c0,0-0.1,0.3-0.1,0.3c0.1-0.5,0.4-1.3,0.4-1.8c0-0.1,0,0.2,0,0.3C-215.5,402.9-215.7,403.9-215.7,403z
		 M-224.3,385.1c0.2,0-0.2,0.1-0.3,0.1c-0.1,0-0.2,0-0.3,0l0.3,0c0,0,0,0,0,0c-0.1,0-0.2,0-0.3,0c-0.3,0-0.6,0-0.5-0.1
		c0.1,0,0.1,0,0.2,0l0.1,0c0,0,0,0,0,0C-224.8,385.2-224.6,385.2-224.3,385.1z M-236.5,385.4c0.1,0,0.2,0,0.4,0c0,0,0,0,0,0
		L-236.5,385.4z M-235.1,385.4C-235.1,385.4-235,385.4-235.1,385.4c0.1,0,0.1,0,0.2,0c0,0,0,0,0.1,0c0.1,0,0.2,0,0.3,0
		c0.1,0,0.3,0,0.5,0c-0.1,0-0.7,0-1.3,0C-234.9,385.4-234.3,385.5-235.1,385.4z M-236.9,385.2c-0.1,0-0.1,0-0.2,0
		c-0.5,0-0.2,0-0.4,0c0,0,0,0-0.2,0c0,0,0,0,0,0C-237.6,385.1-237.2,385.1-236.9,385.2z M-240.6,385.4
		C-240.5,385.4-240.5,385.4-240.6,385.4C-240.5,385.4-240.5,385.4-240.6,385.4C-240.6,385.4-240.6,385.4-240.6,385.4
		C-240.5,385.4-240.5,385.4-240.6,385.4z M-237.4,385.1c-0.4,0-0.3,0-0.2,0L-237.4,385.1z M-242,385.1l0.8,0c-0.1,0-0.4,0.1-0.6,0.1
		c-0.6,0-1.2,0-1.5,0c0.3-0.1,0.7-0.1,1-0.1L-242,385.1z M-245.5,385.3C-245.5,385.3-245.5,385.3-245.5,385.3
		C-245.5,385.3-245.5,385.3-245.5,385.3C-245.5,385.3-245.5,385.3-245.5,385.3z M-251.5,385.1c0,0,0,0.1,0,0.1c-0.2,0-0.3,0-0.5,0
		L-251.5,385.1z M-264.2,385.5c-0.1,0-0.4,0-0.6,0C-264.6,385.4-264.4,385.4-264.2,385.5z M-265.1,385.1c0.1,0,0,0.1-0.1,0.1
		C-265.1,385.2-265.1,385.2-265.1,385.1c0.2,0.1,0.2,0.1,0.2,0.2c-0.2,0-0.3,0-0.5,0c0,0,0.1,0,0.1,0c-0.1,0-0.2,0-0.3,0
		c0,0-0.1,0-0.1,0c-0.2,0-0.3-0.1-0.4-0.1L-265.1,385.1z M-265.9,408.4c-0.2,0,0.2-0.1,0.3-0.1c0.1,0,0.2,0,0.3,0l-0.3,0
		c0,0,0,0,0,0c0.1,0,0.2,0,0.3,0c0.3,0,0.6,0,0.5,0.1c-0.1,0-0.1,0-0.2,0l-0.1,0c0,0,0,0,0,0C-265.4,408.3-265.6,408.4-265.9,408.4z
		 M-253.7,408.1c-0.1,0-0.2,0-0.4,0c0,0,0,0,0,0L-253.7,408.1z M-255.1,408.1C-255.1,408.1-255.2,408.1-255.1,408.1
		c-0.1,0-0.1,0-0.2,0c0,0,0,0-0.1,0c-0.1,0-0.2,0-0.3,0c-0.1,0-0.3,0-0.5,0c0.1,0,0.7,0,1.3,0C-255.3,408.1-255.9,408.1-255.1,408.1
		z M-253.3,408.4c0.1,0,0.1,0,0.2,0c0.5,0,0.2,0,0.4,0c0,0,0,0,0.2,0c0,0,0,0,0,0C-252.6,408.4-253,408.4-253.3,408.4z
		 M-249.6,408.2C-249.7,408.2-249.7,408.2-249.6,408.2C-249.7,408.2-249.7,408.2-249.6,408.2C-249.6,408.1-249.6,408.1-249.6,408.2
		C-249.7,408.2-249.7,408.2-249.6,408.2z M-252.8,408.4c0.4,0,0.3,0,0.2,0L-252.8,408.4z M-248.2,408.4l-0.8,0
		c0.1,0,0.4-0.1,0.6-0.1c0.6,0,1.2,0,1.5,0c-0.3,0.1-0.7,0.1-1,0.1L-248.2,408.4z M-244.7,408.2
		C-244.7,408.2-244.7,408.2-244.7,408.2C-244.7,408.2-244.7,408.2-244.7,408.2C-244.7,408.2-244.7,408.2-244.7,408.2z M-238.7,408.4
		c0,0,0-0.1,0-0.1c0.2,0,0.3,0,0.5,0L-238.7,408.4z M-226,408c0.1,0,0.4,0,0.6,0C-225.6,408.1-225.8,408.1-226,408z M-225.1,408.4
		c-0.1,0,0-0.1,0.1-0.1C-225.1,408.3-225.1,408.3-225.1,408.4c-0.2-0.1-0.2-0.1-0.2-0.2c0.2,0,0.3,0,0.5,0c0,0-0.1,0-0.1,0
		c0.1,0,0.2,0,0.3,0c0,0,0.1,0,0.1,0c0.2,0,0.3,0.1,0.4,0.1L-225.1,408.4z M-216.8,405.7c-0.3,0.6-0.5,1.1-1.2,1.6
		c-0.4,0.2,0-0.1-0.1-0.1c0,0-0.3,0.3-0.3,0.3c-0.1,0-0.1,0-0.1,0c-0.3,0.2,0,0.2-0.5,0.3c-0.1,0.2-1.3-0.1-2.1,0
		c-0.2,0,0.1-0.1,0-0.1c-1.1,0.1-1,0.1-1.9,0.2l-0.8-0.1c0.6,0.1-0.2,0.2-0.8,0.3c0,0,0,0,0,0c0,0,0,0-0.1,0c0,0,0,0,0,0l-0.1,0
		c0,0-0.1,0-0.1,0c-0.2,0-0.3,0-0.5,0c0,0,0.1-0.1,0.3-0.1c0.1,0,0.2,0.1,0.4,0.1c0.3-0.1,0.5-0.2,0.4-0.2c-0.1,0-0.2,0-0.3,0
		c0.1,0,0.1,0,0.1-0.1c0,0-0.1,0-0.3,0l-0.2-0.1l-0.1,0.1l-1.3-0.1c-0.9,0.1-1.7,0.3-3.1,0.4c-0.1,0-0.1,0-0.2,0
		c0.3-0.1,0-0.2,0.1-0.3c0.4,0.1,1.2-0.1,2,0c-0.4,0-0.3-0.1-0.2-0.1l-1.4,0.1c0-0.1-0.3-0.1-0.7-0.1c0.3,0.2-1.1,0.1-1.6,0.2
		c0-0.1,0.1-0.1,0.8-0.1c-0.8-0.1-1,0.2-1.8,0.1c0.2,0,0.3,0,0.3,0c-0.4,0.1-1.4,0-1.1,0l0.2,0c-1.1,0-3.5,0-3.6,0.2
		c0,0,0.1-0.2,0.2-0.2l-1.2,0.3c-0.3,0-0.6,0-0.9,0c-0.1-0.1-0.1-0.2,0.5-0.3c-0.3,0-0.6,0-1.2,0c0.2,0,0.5,0.2,0.2,0.2
		c-0.7-0.1-0.5-0.1-1.3-0.2c0.3,0,0,0.2-0.5,0.2c0.1,0,0-0.2,0.1-0.2l-1.1,0.2c0.3,0,0-0.2-0.2-0.2c0.1,0-0.9,0-1.2,0l0.5,0
		c-0.9,0-1.1,0.1-1.7,0.2c-0.1,0-0.6,0-0.3,0c-0.2,0-0.3,0-0.4,0c0.1-0.1,0-0.2-0.4-0.2c-0.1,0-0.4,0.1-0.7,0.2c-0.1,0-0.1,0-0.2,0
		l-0.2,0c-0.3,0-0.4,0-0.9,0c0.5-0.1,1-0.2,1.4-0.2c-0.5,0-0.1-0.1-0.8,0c-0.2,0,0.4-0.1,0.6-0.1l-1.6,0c0.1,0.1-1.2,0.1-1.2,0.2
		l1.7-0.1c0,0.1-0.4,0.2-1.1,0.2c-0.4,0-0.8,0-1.1,0c0-0.1,0.3-0.1,0.3-0.2c-0.1,0-1.1,0.1-1.2,0l0.5-0.1c-0.6,0-1,0.1-1.8,0
		c-0.3,0-0.8-0.1-0.8-0.1c0.1,0,0.2,0.1,0.3,0.1c-0.1,0-0.2,0-0.3,0c0.1,0,0.1,0,0.3,0c-0.4,0-0.9,0-1.4,0c0,0,0,0-0.1,0
		c0,0-0.1,0-0.2,0c-0.1,0-0.1,0-0.2,0c0,0,0,0,0,0c0.1,0,0.2,0,0.2,0c-0.1,0-0.2,0-0.3,0c0,0-0.1,0-0.3,0c0,0,0,0,0,0
		c-0.3,0-0.5,0-0.3,0c-0.5,0.1-1.2,0-2,0l0.1,0c-0.1,0-0.4,0-0.6,0l0.4-0.1c-0.4,0-0.9,0-1.3,0c0.2,0-0.2,0.1,0.2,0.1
		c-1.7,0.1-1-0.1-2.8-0.1c0.3,0,0.9,0,0.6,0.1c-0.4,0-0.8,0-1-0.1c-1.2,0,0.2,0.1-0.3,0.1c-0.4-0.1-0.6,0-1.1,0l0-0.1
		c-1.4,0-0.4,0.1-1.6,0.1l0.5-0.1l-0.7,0l0.1-0.1c-0.7,0-0.9,0-1.6,0c0.2,0-0.1,0.1-0.7,0.1c-0.4,0,0.2-0.1-0.6-0.1
		c0.2,0,0.4-0.1,0.8,0c0,0,0.2,0,0.2-0.1c-0.5,0-1.1,0-1.5,0c0.1,0,0.3,0,0.3,0l-1.3,0.1c-0.2,0,0,0,0.1-0.1c-0.3,0-0.4,0-0.8,0
		c0.1-0.1,0.1-0.1,0.6-0.1l-1.2,0c-0.1,0-0.5-0.1-0.4-0.1c-0.6-0.1-1.4-0.3-1.9-1c0,0-0.1-0.1-0.2-0.2c-0.4-0.6-0.5-1.2-0.6-2.2
		l0.1-0.6c0-0.8-0.2,0.8-0.2-0.5c0-0.9,0.1-0.3,0.1-0.7c-0.1-0.5-0.2-1.3-0.1-2.1c0,0.3,0,0.5,0,0.8l0.1-0.6
		c0.1,0.8,0.1,1.3,0.2,0.7c-0.2-0.1,0-2.5-0.2-2.6l0.1-0.4c0,0.1,0,0.1,0,0.3c0.1-0.8-0.2-0.6-0.1-1.7c0-0.4,0.1-0.6,0.1-0.4
		l-0.1-0.8c0-0.2,0.1-0.2,0,0.1l0-1.3l0,0c0-0.2-0.1-0.6-0.1-0.8c0-0.3,0,0.2,0.1,0.1l-0.1-0.7c0.1-0.3,0.1,0.3,0.1,0.8
		c0.3-0.7-0.1-0.6,0.1-2l0,0.7c0.2-0.4,0.1-0.9,0.2-1.7c-0.1,0.2-0.2,1.5-0.3,0.7c0-0.2,0-0.5,0-0.9c0.1,0,0.1-0.4,0.1-0.9l0.1,0
		c0-0.5-0.1-0.5-0.2-0.8c0-0.5,0.2-0.6,0.3-0.7c0.2-0.8-0.3,0.5-0.1-0.4c0.3-0.6,0.5-1.1,1.2-1.6c0.4-0.2,0,0.1,0.1,0.1
		c0,0,0.3-0.3,0.3-0.3c0.1,0,0.1,0,0.1,0c0.3-0.2,0-0.2,0.5-0.3c0.1-0.2,1.3,0.1,2.1,0c0.2,0-0.1,0.1,0,0.1c1.1-0.1,1-0.1,1.9-0.2
		l0.8,0.1c-0.6-0.1,0.2-0.2,0.8-0.3c0,0,0,0,0,0c0,0,0,0,0.1,0c0,0,0,0,0,0l0.1,0c0,0,0.1,0,0.1,0c0.2,0,0.3,0,0.5,0
		c0,0-0.1,0.1-0.3,0.1c-0.1,0-0.2-0.1-0.4-0.1c-0.3,0.1-0.5,0.2-0.4,0.2c0.1,0,0.2,0,0.3,0c-0.1,0-0.1,0-0.1,0.1c0,0,0.1,0,0.3,0
		l0.2,0.1l0.1-0.1l1.3,0.1c0.9-0.1,1.7-0.3,3.1-0.4c0.1,0,0.1,0,0.2,0c-0.3,0.1,0,0.2-0.1,0.3c-0.4-0.1-1.2,0.1-2,0
		c0.4,0,0.3,0.1,0.2,0.1l1.4-0.1c0,0.1,0.3,0.1,0.7,0.1c-0.3-0.2,1.1-0.1,1.6-0.2c0,0.1-0.1,0.1-0.8,0.1c0.8,0.1,1-0.2,1.8-0.1
		c-0.2,0-0.3,0-0.3,0c0.4-0.1,1.4,0,1.1,0l-0.2,0c1.1,0,3.5,0,3.6-0.2c0,0-0.1,0.2-0.2,0.2l1.2-0.3c0.3,0,0.6,0,0.9,0
		c0.1,0.1,0.1,0.2-0.5,0.3c0.3,0,0.6,0,1.2,0c-0.2,0-0.5-0.2-0.2-0.2c0.7,0.1,0.5,0.1,1.3,0.2c-0.3,0,0-0.2,0.5-0.2
		c-0.1,0,0,0.2-0.1,0.2l1.1-0.2c-0.3,0,0,0.2,0.2,0.2c-0.1,0,0.9,0,1.2,0l-0.5,0c0.9,0,1.1-0.1,1.7-0.2c0.1,0,0.6,0,0.3,0
		c0.2,0,0.3,0,0.4,0c-0.1,0.1,0,0.2,0.4,0.2c0.1,0,0.4-0.1,0.7-0.2c0.1,0,0.1,0,0.2,0l0.2,0c0.3,0,0.4,0,0.9,0
		c-0.5,0.1-1,0.2-1.4,0.2c0.5,0,0.1,0.1,0.8,0c0.2,0-0.4,0.1-0.6,0.1l1.6,0c-0.1-0.1,1.2-0.1,1.2-0.2l-1.7,0.1
		c0-0.1,0.4-0.2,1.1-0.2c0.4,0,0.8,0,1.1,0c0,0.1-0.3,0.1-0.3,0.2c0.1,0,1.1-0.1,1.2,0l-0.5,0.1c0.6,0,1-0.1,1.8,0
		c0.3,0,0.8,0.1,0.8,0.1c-0.1,0-0.2-0.1-0.3-0.1c0.1,0,0.2,0,0.3,0c-0.1,0-0.1,0-0.3,0c0.4,0,0.9,0,1.4,0c0,0,0,0,0.1,0
		c0,0,0.1,0,0.2,0c0.1,0,0.1,0,0.2,0c0,0,0,0,0,0c-0.1,0-0.2,0-0.2,0c0.1,0,0.2,0,0.3,0c0,0,0.1,0,0.3,0c0,0,0,0,0,0
		c0.3,0,0.5,0,0.3,0c0.5-0.1,1.2,0,2,0l-0.1,0c0.1,0,0.4,0,0.6,0l-0.4,0.1c0.4,0,0.9,0,1.3,0c-0.2,0,0.2-0.1-0.2-0.1
		c1.6-0.1,1,0.1,2.7,0.1c-0.3,0-0.8,0-0.4-0.1c0.4,0,0.8,0,1,0.1c1.2,0-0.2-0.1,0.3-0.1c0.4,0.1,0.6,0,1.1,0l0,0.1
		c1.4,0,0.4-0.1,1.6-0.1l-0.5,0.1l0.7,0l-0.1,0.1c0.7,0,0.9,0,1.6,0c-0.2,0,0.1-0.1,0.7-0.1c0.4,0-0.2,0.1,0.6,0.1
		c-0.2,0-0.4,0.1-0.8,0c0,0-0.2,0-0.2,0.1c0.5,0,1.1,0,1.5,0c-0.1,0-0.3,0-0.3,0l1.3-0.1c0.2,0,0,0-0.1,0.1c0.3,0,0.4,0,0.8,0
		c-0.1,0.1-0.1,0.1-0.6,0.1l1.2,0c0.1,0,0.5,0.1,0.4,0.1c0.6,0.1,1.4,0.3,1.9,1c0,0,0.1,0.1,0.2,0.2c0.4,0.6,0.5,1.2,0.6,2.2
		l-0.1,0.6c0,0.8,0.2-0.8,0.2,0.5c0,0.9-0.1,0.3-0.1,0.7c0.1,0.5,0.2,1.3,0.1,2.1c0-0.3,0-0.5,0-0.8l-0.1,0.6
		c-0.1-0.8-0.1-1.3-0.2-0.7c0.2,0.1,0,2.5,0.2,2.6l-0.1,0.4c0-0.1,0-0.1,0-0.3c-0.1,0.8,0.2,0.6,0.1,1.7c0,0.4-0.1,0.6-0.1,0.4
		l0.1,0.8c0,0.2-0.1,0.2,0-0.1l0,1.3l0,0c0,0.2,0.1,0.6,0.1,0.8c0,0.3,0-0.2-0.1-0.1l0.1,0.7c-0.1,0.3-0.1-0.3-0.1-0.8
		c-0.3,0.7,0.1,0.6-0.1,2l0-0.7c-0.2,0.4-0.1,0.9-0.2,1.7c0.1-0.2,0.2-1.5,0.3-0.7c0,0.2,0,0.5,0,0.9c-0.1,0-0.1,0.4-0.1,0.9l-0.1,0
		c0,0.5,0.1,0.5,0.2,0.8c0,0.5-0.2,0.6-0.3,0.7C-217,406.1-216.5,404.8-216.8,405.7z M-273.7,391.6c0,0.2,0.1,0.6,0,0.7
		C-273.8,392-273.7,391.9-273.7,391.6z M-216.5,402c0-0.2-0.1-0.6,0-0.7C-216.4,401.5-216.5,401.6-216.5,402z"/>
	<path class="st0" d="M-249.5,408.6c-0.1,0-0.1,0-0.2,0C-249.7,408.6-249.6,408.6-249.5,408.6z"/>
	<path class="st0" d="M-231.5,385.5c0.1,0,0.3,0,0.7,0C-231.1,385.6-231.3,385.5-231.5,385.5z"/>
	<path class="st0" d="M-229.1,385.6c0,0,0.1,0,0.1,0C-229,385.6-229,385.6-229.1,385.6z"/>
	<path class="st0" d="M-224.4,407.9C-224.3,407.9-224.3,407.9-224.4,407.9C-224.2,407.9-224.2,407.9-224.4,407.9z"/>
	<path class="st0" d="M-217.3,386.8L-217.3,386.8C-217.3,386.8-217.3,386.8-217.3,386.8L-217.3,386.8z"/>
	<path class="st0" d="M-254,408c0,0-0.1,0-0.3,0C-254.2,408-254.1,408-254,408z"/>
	<path class="st0" d="M-245.2,407.9c-0.2,0,0.6,0,0.4,0.1c0.5,0,0.7,0,0.5-0.1C-245.1,407.8-244.5,407.9-245.2,407.9z"/>
	<path class="st0" d="M-244.8,407.9c-0.1,0-0.2,0-0.2,0C-244.9,408-244.8,408-244.8,407.9z"/>
	<path class="st0" d="M-216.7,403l-0.1,0.4l0,0C-216.7,403.4-216.7,403.2-216.7,403z"/>
	<polygon class="st0" points="-216.7,396.4 -216.7,396.5 -216.6,396.3 	"/>
	<path class="st0" d="M-216.7,390.5c0,0.2,0,0.5,0,0.8C-216.8,390.8-216.6,390.5-216.7,390.5z"/>
</g>
<g>
	<path class="st1" d="M-254.4,389.8l0.2,0.2h0v0l0.1,0h0c0.1,0,0.1,0.1,0.1,0.2c0,0.1,0,0.2,0,0.3v0.1l-0.1,0.1l-0.3-0.1
		c0,0-0.1,0-0.1,0.1l0.1,0.2l-0.2,0.2v0c0,0.1,0,0.1,0.1,0.2l0,0.1v0c0,0,0,0.1,0.1,0.2l0,0.1l0,0.1v0l0.1,0.2c0,0.1,0,0.1,0,0.2
		v0.1c0.1,0.2,0.2,0.3,0.4,0.4l0.1,0.1c0.1,0,0.1,0,0.1-0.1l0-0.2l0.2-0.2l-0.1-0.2l0.1-0.2c0,0,0-0.1-0.1-0.2l0.2-0.2v0h0l0-0.1
		l0-0.4c0-0.1-0.1-0.2-0.2-0.2c0.1,0,0.2-0.1,0.2-0.3c0-0.1,0-0.1,0.1-0.2l0-0.2l0.1-0.1h0.1c0.4,0.1,0.5,0.2,0.5,0.3v0.1
		c0,0.1,0,0.1,0,0.2l0.1,0.2v0.1l0.1,0l0.1,0l0,0v0c-0.1,0.1-0.1,0.1-0.1,0.2c0,0.1,0,0.1,0.1,0.1l0,0.1l-0.1,0.2v0.1l0.2,0.2v0.1
		l-0.1,0.2l0,0.2l0,0.2v0c0.1,0.1,0.2,0.2,0.2,0.2c-0.1,0.1-0.1,0.2-0.1,0.2v0l0.2,0.2l0,0c0,0,0,0,0,0l0,0v0c0,0,0-0.1-0.1-0.2v0
		c0,0,0.1-0.1,0.2-0.2l-0.1-0.2v0c0.2-0.2,0.2-0.4,0.3-0.6l0,0v0l0.1-0.3l-0.1-0.2c0.1-0.1,0.2-0.2,0.2-0.2
		c-0.1-0.1-0.1-0.1-0.1-0.2v0c0.1-0.1,0.2-0.2,0.2-0.2c0,0-0.1-0.1-0.2-0.1c-0.1-0.2-0.2-0.2-0.2-0.2c-0.1,0-0.1,0-0.1-0.1
		c0.2-0.1,0.3-0.2,0.3-0.3l0.1,0h0c0,0,0.1,0,0.3,0.1l0.1,0c0.1,0,0.2,0,0.2,0l0.1,0h0c0,0,0.1,0.1,0.1,0.2c0.1,0.1,0.1,0.2,0.1,0.2
		v0c0,0.1-0.1,0.1-0.3,0.1l-0.1,0.4l0,0.1v0c0,0-0.1,0.1-0.2,0.3l0.1,0.2l-0.1,0.2l0,0.2c-0.1,0.2-0.1,0.3-0.2,0.5v0l0,0.2l-0.1,0.2
		v0l0,0.2v0.1l-0.1,0.2c0,0.1,0,0.1,0,0.2l-0.1,0.3l0,0.2l-0.1,0.2l0.1,0.2v0l-0.3,0.5v0l0,0.1c0,0.1-0.1,0.2-0.2,0.2
		c-0.3-0.1-0.5-0.2-0.6-0.4c0,0-0.1-0.1-0.2-0.2v0l0.1-0.2v0l-0.2-0.2l0.1-0.2V394c-0.1-0.1-0.2-0.1-0.2-0.2l0-0.2v0l-0.1-0.2v0
		c0.1-0.1,0.1-0.2,0.1-0.2c0,0,0-0.1-0.1-0.2v0c0,0,0.1-0.1,0.2-0.2l0-0.1c-0.1-0.1-0.2-0.2-0.2-0.2v0c0,0,0-0.1,0.1-0.2v-0.1
		c-0.1-0.1-0.1-0.2-0.1-0.2v0l0,0c0,0,0-0.1-0.1-0.1l-0.1,0.1v0.1l0.1,0.1v0c0,0,0,0.1-0.1,0.2l0,0.1c0.1,0.1,0.1,0.1,0.1,0.2
		c0,0,0,0.1-0.1,0.2v0.1c0.1,0,0.1,0.1,0.1,0.1c-0.1,0.1-0.2,0.2-0.2,0.2v0c0,0,0,0.1,0.1,0.2v0c-0.1,0.1-0.2,0.2-0.2,0.4v0.1l0,0.2
		l-0.1,0.2l0.1,0.3c-0.1,0.1-0.1,0.3-0.1,0.4l-0.1,0.1h-0.1c0,0-0.1,0.1-0.1,0.2l-0.1,0c-0.1,0-0.1-0.1-0.1-0.3
		c-0.2-0.2-0.4-0.4-0.4-0.4l0-0.1l0-0.2l-0.1-0.2v0l0-0.2v0l-0.1-0.3l0-0.2l-0.1-0.3l0-0.2l-0.2-0.4l0.1-0.2
		c-0.1-0.1-0.2-0.2-0.2-0.3c0.1-0.1,0.1-0.1,0.1-0.2V392c0,0,0,0,0-0.1c-0.1,0-0.1-0.1-0.1-0.1l0-0.2l-0.1-0.2l0-0.3l-0.1-0.1v-0.2
		c0,0-0.1,0-0.1,0l-0.1,0h0l-0.1-0.1c0.1-0.1,0.1-0.2,0.1-0.2c-0.2-0.1-0.2-0.1-0.2-0.2c0-0.3,0.1-0.4,0.2-0.5h0
		c0.1,0,0.1,0.1,0.1,0.1l0.2,0l0.2,0C-254.5,389.8-254.5,389.8-254.4,389.8z M-254,392.2C-254,392.3-254,392.3-254,392.2L-254,392.2
		l0,0.1h0V392.2L-254,392.2C-254.1,392.3-254.1,392.2-254,392.2z"/>
	<path class="st1" d="M-249.4,389.6c0.1,0,0.3,0.1,0.5,0.1c0,0,0.1,0.1,0.3,0.1c0,0,0.1,0.1,0.3,0.1c0,0,0.1,0.1,0.2,0.1
		c0,0.1,0,0.1,0,0.1l-0.1,0l-0.2,0.3v0.1l-0.1,0.3l0,0.1l0,0.2c0,0.1,0,0.1,0.1,0.1c0,0,0.1,0,0.1-0.1l0.1,0l0.2,0.1
		c0.1,0,0.2-0.1,0.4-0.2l0.1,0h0.1l0.1,0l0.3,0h0.1c0.1,0.1,0.2,0.1,0.3,0.1c0.2,0,0.4,0.2,0.7,0.7c0,0.1,0.1,0.2,0.1,0.3l0.1,0.2
		v0.3l0,0.5l0.1,0.2v0l0,0.1l0,0v0l0,0v0l0,0v0l0,0.4l0,0.1l0,0v0c0,0.1,0.1,0.2,0.4,0.3c0.2,0,0.3,0.1,0.3,0.2v0l-0.1,0.2l0,0.2
		c0,0.1-0.1,0.1-0.1,0.1l-0.2-0.1l-0.2,0l-0.2,0l-0.2,0.1h0l-0.3-0.1l-0.3,0l-0.1,0h0c-0.1,0-0.2-0.1-0.2-0.4c0-0.1,0.1-0.2,0.2-0.2
		h0.1c0.1-0.1,0.2-0.2,0.3-0.3v0l-0.1-0.2l0.1-0.1c0-0.1,0-0.2-0.1-0.3v0c0.1-0.1,0.1-0.2,0.1-0.2l-0.1-0.2c0.1-0.1,0.1-0.2,0.1-0.2
		c-0.1-0.1-0.2-0.2-0.2-0.2l0-0.2v0c0-0.2-0.1-0.3-0.2-0.3c-0.1,0-0.2,0-0.2-0.1c-0.1,0-0.1,0.1-0.2,0.2c-0.1,0-0.2,0.1-0.3,0.1
		c0,0-0.1,0-0.2-0.1l-0.1,0c-0.1,0.1-0.2,0.2-0.3,0.2l-0.3,0.3v0l0,0.2l-0.1,0.2v0c0,0,0,0.1,0.1,0.2c0,0,0,0.1-0.1,0.2l0,0.1
		l0.1,0.1v0.1c0,0.1-0.1,0.2-0.1,0.2c0,0.1,0.1,0.2,0.1,0.4l0.1,0.1c0,0,0.1,0,0.2-0.1h0c0.1,0,0.1,0.1,0.2,0.3c0,0,0,0.1,0.1,0.2
		c0,0.2-0.1,0.3-0.2,0.3h-0.1c-0.1,0.1-0.2,0.1-0.3,0.1h0l-0.3-0.1h-0.3c0,0-0.1,0-0.2,0.1h0c0,0-0.2-0.1-0.3-0.2
		c-0.2,0-0.2-0.1-0.2-0.2v-0.1c0-0.2,0.1-0.3,0.2-0.3l0.1,0.1c0.2-0.1,0.3-0.2,0.3-0.2v0h0l0,0h0v0l0-0.1l0,0l0,0v0l0.1-0.4
		l-0.1-0.4h0l0,0l0-0.3v-0.2c0,0,0-0.1-0.1-0.2c0-0.1,0-0.2,0.1-0.2l0,0l0,0l0-0.2c0,0,0-0.1,0-0.2l-0.1-0.5l0-0.1
		c0,0,0-0.1-0.1-0.2l0-0.2c0-0.2-0.1-0.4-0.1-0.4c0,0-0.1-0.1-0.2-0.2l-0.1,0l-0.1,0.1c-0.1,0-0.2-0.2-0.2-0.5l0,0
		c0-0.2,0.1-0.3,0.3-0.3C-249.6,389.6-249.5,389.6-249.4,389.6z"/>
	<path class="st1" d="M-241.7,391c0.1,0.1,0.2,0.2,0.4,0.2c0.1,0.1,0.3,0.2,0.4,0.3c0,0,0.1,0.2,0.1,0.3l0.2,0.5v0
		c-0.1,0.2-0.1,0.3-0.1,0.4l0,0v0l0,0v0c0,0,0,0.1,0.1,0.3l-0.1,0.3l0,0.2v0l-0.1,0.2c0.1,0.2,0.1,0.4,0.1,0.4l0.3,0.2
		c0.1,0.1,0.2,0.2,0.2,0.3c0,0.1-0.1,0.1-0.3,0.2c-0.1,0.1-0.1,0.1-0.2,0.1l-0.3-0.2c-0.1,0-0.2-0.1-0.4-0.3l0,0h0
		c-0.1,0-0.2,0.1-0.5,0.3c-0.1,0-0.1,0-0.1,0l-0.1,0c-0.1,0-0.2,0-0.2,0l-0.1,0c-0.3,0-0.5,0-0.6,0.1h-0.1l-0.2-0.1l-0.2,0h0
		c-0.1-0.1-0.3-0.2-0.4-0.2c-0.1,0-0.2-0.2-0.3-0.5c-0.1-0.1-0.2-0.2-0.2-0.3v0l0-0.1l0-0.1c0-0.2,0.1-0.3,0.2-0.5l0.2-0.5l0.1,0h0
		c0,0,0.1,0,0.2,0.1c0.1,0,0.2-0.1,0.2-0.1c0,0,0.2,0,0.3-0.1l0.4,0.2h0.1c0,0,0.1-0.1,0.3-0.2l0.1,0l0.2,0.1c0,0,0.1-0.1,0.2-0.2
		h0.1c0,0,0.1,0,0.1,0c0.1-0.1,0.1-0.1,0.1-0.2l0-0.1l0-0.2c0-0.1-0.2-0.2-0.5-0.3c0-0.1-0.1-0.1-0.2-0.2h-0.2l-0.2,0.2h0
		c0,0-0.1-0.1-0.2-0.2h0c-0.3,0-0.4,0.1-0.4,0.3l0,0.2l0,0.1c0,0-0.1,0.2-0.2,0.4l0,0.2v0l0,0h0l-0.2-0.1l-0.2,0
		c-0.2,0-0.3-0.1-0.4-0.3l0-0.1l0-0.2l0-0.2c0-0.1,0.1-0.2,0.3-0.3c0.1-0.1,0.2-0.2,0.3-0.3c0.1-0.1,0.3-0.2,0.5-0.2
		c0.1-0.1,0.2-0.1,0.2-0.1l0.2,0l0.2,0l0.3,0h0.3C-241.9,390.9-241.8,390.9-241.7,391z M-242.2,393.3l-0.4-0.1h-0.1l-0.3,0.2h0
		l-0.2,0h0c-0.1,0.1-0.2,0.2-0.3,0.3l-0.1,0.3c0,0.1,0.1,0.2,0.2,0.3l0.5,0.2h0l0.3-0.1h0.1l0.2,0.1h0c0.2-0.1,0.4-0.2,0.6-0.2
		c0.1-0.1,0.2-0.1,0.2-0.2v0l-0.1-0.2l0.2-0.2v0c0,0-0.1-0.1-0.3-0.2h-0.1C-241.8,393.1-241.9,393.2-242.2,393.3L-242.2,393.3z"/>
	<path class="st1" d="M-237.5,389.7c0.1,0,0.2,0.2,0.3,0.5l0,0.1v0.2l0,0.2v0l0.1,0.2l0,0v0c0,0.1,0,0.1,0.1,0.2h0.1l0.2-0.1
		l0.2,0.1h0.2l0.2,0l0.2,0c0.1,0.1,0.2,0.1,0.2,0.2l0,0.1v0.1l0,0.1c0,0.1-0.1,0.2-0.3,0.2c-0.1,0.1-0.2,0.1-0.2,0.1
		c-0.1,0-0.1,0-0.2-0.1l-0.1,0l-0.1,0l-0.1,0l-0.2,0.1c-0.1,0-0.2,0.1-0.2,0.2v0l0.1,0.2v0l-0.1,0.4l0,0.1v0l0,0.1l0,0.3l0,0.2
		l0,0.2v0.1c0.1,0.1,0.1,0.1,0.2,0.1l0,0.2l0.2,0.2c0,0,0.1,0.1,0.2,0.1c0.2,0,0.3-0.1,0.3-0.2l0-0.1l0.1-0.1l0,0
		c0.1,0,0.1-0.2,0.2-0.3c0.1-0.1,0.3-0.1,0.4-0.1c0.1,0.1,0.2,0.2,0.3,0.4l0,0c-0.1,0.1-0.1,0.3-0.2,0.5c-0.1,0.1-0.2,0.2-0.3,0.4
		c-0.1,0.1-0.3,0.2-0.5,0.3h-0.1l-0.1,0l-0.2,0.2l-0.2-0.1l-0.1,0c-0.1,0-0.2-0.1-0.4-0.2c-0.1,0-0.2-0.1-0.3-0.3
		c-0.1-0.1-0.2-0.1-0.2-0.1v-0.2c0,0,0-0.2-0.1-0.3v0l0-0.2l0-0.2l0.1-0.2l-0.1-0.3l0-0.2l0-0.2l0.1-0.2v-0.1l0-0.2l0-0.1
		c0-0.1-0.1-0.2-0.2-0.3c-0.1,0-0.2,0.1-0.4,0.2l-0.1,0c-0.1,0-0.2-0.1-0.5-0.2c0,0-0.1-0.1-0.1-0.2v-0.1c0-0.1,0.1-0.2,0.4-0.3
		c0,0,0.1-0.1,0.2-0.1l0.1,0h0l0.2,0h0l0.3,0.1l0-0.1l0-0.1l0-0.2l-0.1-0.2l0.1-0.3l0-0.1v0c0-0.1,0.1-0.3,0.4-0.4L-237.5,389.7z"/>
	<path class="st1" d="M-228.5,389.7c0.1,0,0.2,0.2,0.3,0.5l0,0.1v0.2l0,0.2v0l0.1,0.2l0,0v0c0,0.1,0,0.1,0.1,0.2h0.1l0.2-0.1
		l0.2,0.1h0.2l0.2,0l0.2,0c0.1,0.1,0.2,0.1,0.2,0.2l0,0.1v0.1l0,0.1c0,0.1-0.1,0.2-0.3,0.2c-0.1,0.1-0.2,0.1-0.2,0.1
		c-0.1,0-0.1,0-0.2-0.1l-0.1,0l-0.1,0l-0.1,0l-0.2,0.1c-0.1,0-0.2,0.1-0.2,0.2v0l0.1,0.2v0l-0.1,0.4l0,0.1v0l0,0.1l0,0.3l0,0.2
		l0,0.2v0.1c0.1,0.1,0.1,0.1,0.2,0.1l0,0.2l0.2,0.2c0,0,0.1,0.1,0.2,0.1c0.2,0,0.3-0.1,0.3-0.2l0-0.1l0.1-0.1l0,0
		c0.1,0,0.1-0.2,0.2-0.3c0.1-0.1,0.3-0.1,0.4-0.1c0.1,0.1,0.2,0.2,0.3,0.4l0,0c-0.1,0.1-0.1,0.3-0.2,0.5c-0.1,0.1-0.2,0.2-0.3,0.4
		c-0.1,0.1-0.3,0.2-0.5,0.3h-0.1l-0.1,0l-0.2,0.2l-0.2-0.1l-0.1,0c-0.1,0-0.2-0.1-0.4-0.2c-0.1,0-0.2-0.1-0.3-0.3
		c-0.1-0.1-0.2-0.1-0.2-0.1v-0.2c0,0,0-0.2-0.1-0.3v0l0-0.2l0-0.2l0.1-0.2l-0.1-0.3l0-0.2l0-0.2l0.1-0.2v-0.1l0-0.2l0-0.1
		c0-0.1-0.1-0.2-0.2-0.3c-0.1,0-0.2,0.1-0.4,0.2l-0.1,0c-0.1,0-0.2-0.1-0.5-0.2c0,0-0.1-0.1-0.1-0.2v-0.1c0-0.1,0.1-0.2,0.4-0.3
		c0,0,0.1-0.1,0.2-0.1l0.1,0h0l0.2,0h0l0.3,0.1l0-0.1l0-0.1l0-0.2l-0.1-0.2l0.1-0.3l0-0.1v0c0-0.1,0.1-0.3,0.4-0.4L-228.5,389.7z"/>
	<path class="st1" d="M-223.6,390.7c0.1,0.1,0.3,0.1,0.6,0.2l0.1,0v0l0,0c0,0,0.1,0.1,0.3,0.2c0.1,0,0.4,0.2,0.7,0.6l0.3,0.7l0,0.2
		l0,0.4c0,0.1-0.1,0.5-0.3,1c-0.1,0.1-0.2,0.2-0.3,0.4c0,0,0,0.1,0,0.2h0l0,0v0c-0.1,0.1-0.1,0.2-0.2,0.2l-0.1,0
		c0,0-0.1,0.1-0.2,0.2h0l-0.2-0.1c-0.1,0-0.2,0.1-0.5,0.2c0,0-0.2,0-0.4-0.1c-0.1,0-0.4-0.1-0.7-0.3c0,0-0.1-0.1-0.3-0.2
		c-0.1-0.2-0.2-0.4-0.2-0.4c-0.1-0.3-0.2-0.4-0.2-0.5l0-0.1l0-0.2l0-0.3l0-0.3l0-0.1v-0.1l0-0.1c0,0,0.1-0.2,0.2-0.4
		c0.1-0.1,0.1-0.3,0.2-0.4c0.3-0.3,0.5-0.5,0.7-0.5c0.1-0.1,0.3-0.1,0.5-0.2C-223.7,390.8-223.7,390.7-223.6,390.7z M-224.3,392.1
		L-224.3,392.1l0,0.2l-0.2,0.2l-0.1,0.4v0.2c0.1,0.3,0.1,0.5,0.2,0.5l0.1,0.1l0,0.2c0,0.1,0.1,0.2,0.3,0.3c0.1,0,0.2,0.1,0.4,0.2
		l0.1,0c0,0,0.1-0.1,0.2-0.2l0.1,0l0.2,0l0.2-0.2c0.1,0,0.2-0.1,0.3-0.4l0-0.2l0.1-0.4l0-0.1l0-0.2c-0.1-0.1-0.1-0.3-0.2-0.5
		c-0.3-0.3-0.4-0.4-0.5-0.4l0,0h0c-0.1,0-0.2-0.1-0.3-0.2h-0.1c-0.1,0.1-0.2,0.1-0.5,0.3C-224.2,391.9-224.3,392-224.3,392.1z"/>
	<path class="st1" d="M-247.5,399.4l0.2,0.2h0v0l0.1,0h0c0.1,0,0.1,0.1,0.1,0.2c0,0.1,0,0.2,0,0.3v0.1l-0.1,0.1l-0.3-0.1
		c0,0-0.1,0-0.1,0.1l0.1,0.2l-0.2,0.2v0c0,0.1,0,0.1,0.1,0.2l0,0.1v0c0,0,0,0.1,0.1,0.2l0,0.1l0,0.1v0l0.1,0.2c0,0.1,0,0.1,0,0.2
		v0.1c0.1,0.2,0.2,0.3,0.4,0.4l0.1,0.1c0.1,0,0.1,0,0.1-0.1l0-0.2l0.2-0.2l-0.1-0.2l0.1-0.2c0,0,0-0.1-0.1-0.2l0.2-0.2v0h0l0-0.1
		l0-0.4c0-0.1-0.1-0.2-0.2-0.2c0.1,0,0.2-0.1,0.2-0.3c0-0.1,0-0.1,0.1-0.2l0-0.2l0.1-0.1h0.1c0.4,0.1,0.5,0.2,0.5,0.3v0.1
		c0,0.1,0,0.1,0,0.2l0.1,0.2v0.1l0.1,0l0.1,0l0,0v0c-0.1,0.1-0.1,0.1-0.1,0.2c0,0.1,0,0.1,0.1,0.1l0,0.1l-0.1,0.2v0.1l0.2,0.2v0.1
		l-0.1,0.2l0,0.2l0,0.2v0c0.1,0.1,0.2,0.2,0.2,0.2c-0.1,0.1-0.1,0.2-0.1,0.2v0l0.2,0.2l0,0c0,0,0,0,0,0l0,0v0c0,0,0-0.1-0.1-0.2v0
		c0,0,0.1-0.1,0.2-0.2l-0.1-0.2v0c0.2-0.2,0.2-0.4,0.3-0.6l0,0v0l0.1-0.3l-0.1-0.2c0.1-0.1,0.2-0.2,0.2-0.2
		c-0.1-0.1-0.1-0.1-0.1-0.2v0c0.1-0.1,0.2-0.2,0.2-0.2c0,0-0.1-0.1-0.2-0.1c-0.1-0.2-0.2-0.2-0.2-0.2c-0.1,0-0.1,0-0.1-0.1
		c0.2-0.1,0.3-0.2,0.3-0.3l0.1,0h0c0,0,0.1,0,0.3,0.1l0.1,0c0.1,0,0.2,0,0.2,0l0.1,0h0c0,0,0.1,0.1,0.1,0.2c0.1,0.1,0.1,0.2,0.1,0.2
		v0c0,0.1-0.1,0.1-0.3,0.1l-0.1,0.4l0,0.1v0c0,0-0.1,0.1-0.2,0.3l0.1,0.2l-0.1,0.2l0,0.2c-0.1,0.2-0.1,0.3-0.2,0.5v0l0,0.2l-0.1,0.2
		v0l0,0.2v0.1l-0.1,0.2c0,0.1,0,0.1,0,0.2l-0.1,0.3l0,0.2l-0.1,0.2l0.1,0.2v0l-0.3,0.5v0l0,0.1c0,0.1-0.1,0.2-0.2,0.2
		c-0.3-0.1-0.5-0.2-0.6-0.4c0,0-0.1-0.1-0.2-0.2v0l0.1-0.2v0l-0.2-0.2l0.1-0.2v-0.1c-0.1-0.1-0.2-0.1-0.2-0.2l0-0.2v0l-0.1-0.2v0
		c0.1-0.1,0.1-0.2,0.1-0.2c0,0,0-0.1-0.1-0.2v0c0,0,0.1-0.1,0.2-0.2l0-0.1c-0.1-0.1-0.2-0.2-0.2-0.2v0c0,0,0-0.1,0.1-0.2v-0.1
		c-0.1-0.1-0.1-0.2-0.1-0.2v0l0,0c0,0,0-0.1-0.1-0.1l-0.1,0.1v0.1l0.1,0.1v0c0,0,0,0.1-0.1,0.2l0,0.1c0.1,0.1,0.1,0.1,0.1,0.2
		c0,0,0,0.1-0.1,0.2v0.1c0.1,0,0.1,0.1,0.1,0.1c-0.1,0.1-0.2,0.2-0.2,0.2v0c0,0,0,0.1,0.1,0.2v0c-0.1,0.1-0.2,0.2-0.2,0.4v0.1l0,0.2
		l-0.1,0.2l0.1,0.3c-0.1,0.1-0.1,0.3-0.1,0.4l-0.1,0.1h-0.1c0,0-0.1,0.1-0.1,0.2l-0.1,0c-0.1,0-0.1-0.1-0.1-0.3
		c-0.2-0.2-0.4-0.4-0.4-0.4l0-0.1l0-0.2l-0.1-0.2v0l0-0.2v0l-0.1-0.3l0-0.2l-0.1-0.3l0-0.2l-0.2-0.4l0.1-0.2
		c-0.1-0.1-0.2-0.2-0.2-0.3c0.1-0.1,0.1-0.1,0.1-0.2v-0.1c0,0,0,0,0-0.1c-0.1,0-0.1-0.1-0.1-0.1l0-0.2l-0.1-0.2l0-0.3l-0.1-0.1v-0.2
		c0,0-0.1,0-0.1,0l-0.1,0h0l-0.1-0.1c0.1-0.1,0.1-0.2,0.1-0.2c-0.2-0.1-0.2-0.1-0.2-0.2c0-0.3,0.1-0.4,0.2-0.5h0
		c0.1,0,0.1,0.1,0.1,0.1l0.2,0l0.2,0C-247.6,399.4-247.5,399.4-247.5,399.4z M-247.1,401.8C-247,401.9-247,401.9-247.1,401.8
		L-247.1,401.8l0,0.1h0V401.8L-247.1,401.8C-247.1,401.9-247.1,401.8-247.1,401.8z"/>
	<path class="st1" d="M-241,400.4c0.1,0,0.2,0,0.3,0.1h0.1c0.1,0,0.3,0.1,0.6,0.2c0.1,0.1,0.2,0.2,0.4,0.3c0.2,0.2,0.3,0.4,0.3,0.5
		c0,0,0,0.1,0.1,0.3v0.3l0.1,0.2v0.1c-0.1,0.4-0.2,0.5-0.3,0.5c-0.1-0.1-0.2-0.1-0.2-0.1c0,0-0.1,0.1-0.1,0.2c0,0-0.1,0-0.1,0
		c-0.1-0.1-0.1-0.2-0.1-0.2h0c0,0,0,0-0.1,0h-0.1l-0.2,0l-0.2,0.1c-0.1-0.1-0.2-0.1-0.2-0.1c-0.1,0-0.1,0-0.2,0l-0.4-0.1h0l-0.3,0
		c-0.1,0-0.1,0.1-0.2,0.2l0,0.1c0,0.1,0.1,0.1,0.1,0.2v0l0,0.1v0.1c0.2,0.2,0.3,0.3,0.5,0.3c0.1,0.1,0.2,0.1,0.3,0.1h0.1l0.3-0.1
		h0.1c0,0,0.1,0,0.1,0h0c0.1-0.1,0.1-0.1,0.1-0.2c0,0,0.1-0.1,0.2-0.1c0.1,0,0.1-0.1,0.1-0.2c0-0.1,0.1-0.1,0.1-0.1
		c0.1,0.1,0.3,0.2,0.5,0.2c0.1,0.1,0.1,0.1,0.1,0.1v0c-0.1,0.2-0.1,0.3-0.1,0.4c0,0,0,0.1-0.1,0.1l-0.1,0c-0.1,0-0.1,0.1-0.1,0.2
		l-0.1,0.1h-0.2c0,0-0.1,0.1-0.2,0.2l0,0h0l-0.2-0.1c0,0-0.1,0-0.3,0c-0.1,0.1-0.1,0.1-0.2,0.1c-0.1-0.1-0.3-0.1-0.4-0.1
		c-0.3-0.1-0.5-0.1-0.5-0.2c-0.3-0.2-0.5-0.4-0.5-0.4c0-0.1-0.1-0.3-0.3-0.5c0,0-0.1-0.1-0.1-0.2l0-0.1c0-0.1,0-0.2-0.1-0.4
		c0-0.1,0-0.2,0-0.2v0l0-0.2v0l0.1-0.2l0-0.1l0.1-0.3c0-0.1,0.1-0.2,0.2-0.3c0.1-0.2,0.2-0.3,0.4-0.4c0.1,0,0.1-0.1,0.2-0.2
		c0,0,0.2-0.1,0.7-0.2C-241.2,400.5-241.1,400.5-241,400.4z M-241.8,401.6L-241.8,401.6c0,0.1,0,0.1-0.1,0.1v0.1c0,0,0,0.1-0.1,0.1
		l0,0.1c0,0.1,0.1,0.1,0.3,0.1h0c0.1-0.1,0.2-0.2,0.3-0.2c0.1,0.1,0.2,0.2,0.3,0.2l0,0l0.2,0c0,0,0.1-0.1,0.2-0.1l0.1,0h0l0.2,0.1
		h0.2l0.1,0c0.1,0,0.1-0.1,0.1-0.1v-0.1c0-0.2-0.1-0.3-0.3-0.3l-0.2-0.2h0l-0.1,0c0,0-0.1-0.1-0.3-0.2c-0.2,0-0.3,0.1-0.5,0.2
		C-241.5,401.3-241.6,401.4-241.8,401.6C-241.7,401.5-241.7,401.6-241.8,401.6z"/>
	<path class="st1" d="M-235.6,400.6c0.1,0.1,0.2,0.2,0.4,0.2c0.1,0.1,0.3,0.2,0.4,0.3c0,0,0.1,0.2,0.1,0.3l0.2,0.5v0
		c-0.1,0.2-0.1,0.3-0.1,0.4l0,0v0l0,0v0c0,0,0,0.1,0.1,0.3l-0.1,0.3l0,0.2v0l-0.1,0.2c0.1,0.2,0.1,0.4,0.1,0.4l0.3,0.2
		c0.1,0.1,0.2,0.2,0.2,0.3c0,0.1-0.1,0.1-0.3,0.2c-0.1,0.1-0.1,0.1-0.2,0.1l-0.3-0.2c-0.1,0-0.2-0.1-0.4-0.3l0,0h0
		c-0.1,0-0.2,0.1-0.5,0.3c-0.1,0-0.1,0-0.1,0l-0.1,0c-0.1,0-0.2,0-0.2,0l-0.1,0c-0.3,0-0.5,0-0.6,0.1h-0.1l-0.2-0.1l-0.2,0h0
		c-0.1-0.1-0.3-0.2-0.4-0.2c-0.1,0-0.2-0.2-0.3-0.5c-0.1-0.1-0.2-0.2-0.2-0.3v0l0-0.1l0-0.1c0-0.2,0.1-0.3,0.2-0.5l0.2-0.5l0.1,0h0
		c0,0,0.1,0,0.2,0.1c0.1,0,0.2-0.1,0.2-0.1c0,0,0.2,0,0.3-0.1l0.4,0.2h0.1c0,0,0.1-0.1,0.3-0.2l0.1,0l0.2,0.1c0,0,0.1-0.1,0.2-0.2
		h0.1c0,0,0.1,0,0.1,0c0.1-0.1,0.1-0.1,0.1-0.2l0-0.1l0-0.2c0-0.1-0.2-0.2-0.5-0.3c0-0.1-0.1-0.1-0.2-0.2h-0.2l-0.2,0.2h0
		c0,0-0.1-0.1-0.2-0.2h0c-0.3,0-0.4,0.1-0.4,0.3l0,0.2l0,0.1c0,0-0.1,0.2-0.2,0.4l0,0.2v0l0,0h0l-0.2-0.1l-0.2,0
		c-0.2,0-0.3-0.1-0.4-0.3l0-0.1l0-0.2l0-0.2c0-0.1,0.1-0.2,0.3-0.3c0.1-0.1,0.2-0.2,0.3-0.3c0.1-0.1,0.3-0.2,0.5-0.2
		c0.1-0.1,0.2-0.1,0.2-0.1l0.2,0l0.2,0l0.3,0h0.3C-235.8,400.5-235.7,400.5-235.6,400.6z M-236.1,402.9l-0.4-0.1h-0.1l-0.3,0.2h0
		l-0.2,0h0c-0.1,0.1-0.2,0.2-0.3,0.3l-0.1,0.3c0,0.1,0.1,0.2,0.2,0.3l0.5,0.2h0l0.3-0.1h0.1l0.2,0.1h0c0.2-0.1,0.4-0.2,0.6-0.2
		c0.1-0.1,0.2-0.1,0.2-0.2v0l-0.1-0.2l0.2-0.2v0c0,0-0.1-0.1-0.3-0.2h-0.1C-235.7,402.7-235.8,402.8-236.1,402.9L-236.1,402.9z"/>
	<path class="st1" d="M-229.7,400.4c0.1,0.1,0.3,0.1,0.5,0.2l0.3,0.3l0.2,0c0.1,0.1,0.1,0.1,0.1,0.2l0,0.1v0h0l0,0.2v0.1l0,0.4
		c0,0.1-0.1,0.2-0.2,0.4c0,0,0,0.1-0.1,0.1c-0.1-0.1-0.1-0.1-0.2-0.1h0c-0.1,0-0.2,0.1-0.2,0.2h0l-0.2,0h0c-0.1,0-0.2-0.1-0.2-0.3
		c0.1-0.1,0.1-0.1,0.1-0.2l-0.2-0.3v0l0.1-0.1l0.1,0l0-0.1c0-0.1-0.1-0.2-0.4-0.2h0l-0.1,0.1l-0.1,0.1l-0.2-0.1c0,0-0.1,0.1-0.1,0.3
		c-0.2,0.2-0.4,0.4-0.4,0.5v0l0,0.1c0,0.1,0,0.2,0,0.2l0.1,0.2l-0.1,0.2l0,0.2l0,0.2c0,0.1,0.1,0.2,0.2,0.2s0.2,0,0.4,0.1l0.1,0
		l0.1,0c0.1,0,0.2,0.1,0.4,0.2h0l0.2-0.1h0l0.1,0.1c0,0,0,0.1-0.1,0.2v0.1l0,0.1c0,0.1-0.1,0.1-0.3,0.2c-0.1,0.1-0.2,0.1-0.3,0.2
		l-0.3-0.1h0c-0.2,0-0.3,0-0.4,0.1h-0.1l-0.1-0.1h-0.1l-0.2,0.1l-0.2,0l-0.1,0h-0.1c0,0-0.1-0.1-0.2-0.1l-0.1,0l-0.1,0l-0.2,0.1
		c0,0-0.1-0.2-0.2-0.6c0-0.1,0.1-0.2,0.3-0.2c0-0.1,0.1-0.1,0.2-0.1h0.1c0.1,0.1,0.2,0.1,0.3,0.1c0.1-0.1,0.2-0.2,0.2-0.2
		c0-0.3,0-0.4,0-0.4c0-0.2-0.1-0.4-0.2-0.4l0,0v0l0.1-0.2c0-0.1,0-0.1,0-0.2l0.1-0.3l-0.1-0.1l-0.1,0h0l-0.1-0.1c0,0,0-0.1,0.1-0.1
		l0-0.1c0-0.1-0.2-0.2-0.5-0.3l-0.2,0l-0.1,0h-0.1c-0.1-0.1-0.2-0.2-0.2-0.4v-0.1c0-0.1,0.1-0.2,0.2-0.2l0.4-0.1
		c0.1,0,0.3,0.1,0.6,0.1l0,0v0l0.1,0c0.1,0,0.2,0.1,0.4,0.2c0.1,0,0.2,0,0.2,0.1c0,0,0.1-0.1,0.2-0.2L-229.7,400.4z"/>
</g>
<g id="XMLID_888_">
	<path id="XMLID_890_" class="st1" d="M-258.4,397.4c-0.5,0.3-0.5,0.3-1,0.6c0-0.2-0.2-0.3-0.3-0.6c-0.4-1.1-1.3-2.2-2-3.1
		c-1-1.5-1.7-3.2-2.4-4.9c-0.1-0.2-0.5-0.1-0.6,0c-2.1,1.3-3.5,3.5-5.7,4.5c0,0,0,0-0.1,0c0,0,0,0-0.1,0c0,0,0,0,0,0
		c-0.1,0.1-0.1,0.1,0,0.2c2,2.4,3,5.1,4,8c-0.8,0.8-0.5,0.6-1.5,1.1c-0.4,0.2,0.7,0.6,1,0.4c1.8-0.9,1.7-1.8,3.6-2.9
		c2.2-1.2,4-1.5,6.1-2.9C-257,397.6-258.1,397.2-258.4,397.4z M-260.8,398.6c-1.3,0.6-2.5,1.1-3.8,1.7c-0.6,0.3-1.1,0.7-1.5,1.2
		c-0.1-0.3-0.2-0.7-0.3-1c0.9-0.3,1.8-0.7,2.6-1.3c0.9-0.7,1.9-2,2.9-2.4c0.3,0.4,0.6,0.8,0.6,1.1
		C-260.3,398.2-260.5,398.4-260.8,398.6z M-261.2,396.4c-0.7,0.3-1.2,0.9-1.8,1.4c-1.1,1-2.2,1.8-3.6,2.3c-0.8-2.2-1.8-4.2-3.3-6.1
		c2-1,3.3-2.8,5.1-4.1C-263.7,392.2-262.5,394.2-261.2,396.4z"/>
	<path id="XMLID_226_" class="st2" d="M-260.8,398.6c-1.3,0.6-2.5,1.1-3.8,1.7c-0.6,0.3-1.1,0.7-1.5,1.2c-0.1-0.3-0.4-0.9-0.5-1.3
		c0.9-0.3,1.6-0.7,2.4-1.3c0.9-0.7,2.3-1.8,3.3-2.2c0.3,0.4,0.6,0.8,0.6,1.1C-260.3,398.2-260.5,398.4-260.8,398.6z"/>
	<path id="XMLID_886_" class="st1" d="M-261.2,396.4c-0.7,0.3-1.2,0.9-1.8,1.4c-1.1,1-2.2,1.8-3.6,2.3c-0.8-2.2-1.8-4.2-3.3-6.1
		c2-1,3.3-2.8,5.1-4.1C-263.7,392.2-262.5,394.2-261.2,396.4z"/>
</g>
</svg>
