<?xml version="1.0" encoding="utf-8"?>
<!-- Generator: Adobe Illustrator 19.0.0, SVG Export Plug-In . SVG Version: 6.00 Build 0)  -->
<svg version="1.1" id="Layer_1" xmlns="http://www.w3.org/2000/svg" xmlns:xlink="http://www.w3.org/1999/xlink" x="0px" y="0px"
	 viewBox="0 0 59.8 24.5" style="enable-background:new 0 0 59.8 24.5;" xml:space="preserve">
<style type="text/css">
	.st0{fill-rule:evenodd;clip-rule:evenodd;fill:#52B8BF;}
</style>
<g id="XMLID_270_">
	<g id="XMLID_57_">
		<path id="XMLID_58_" class="st0" d="M55.2,23.7H4.4c-2,0-3.6-1.6-3.6-3.6V4.3c0-2,1.6-3.6,3.6-3.6h50.8c2,0,3.6,1.6,3.6,3.6v15.8
			C58.8,22.1,57.2,23.7,55.2,23.7z"/>
		<g id="XMLID_55_">
			<path id="XMLID_187_" d="M55.4,24.3c-0.3,0-0.2,0.1-0.2,0.1C55.7,24.4,55.4,24.3,55.4,24.3z"/>
			<path id="XMLID_186_" d="M58.8,21.9L58.8,21.9c0,0.1,0.2-0.5,0.2-0.5C58.9,21.4,58.8,21.9,58.8,21.9z"/>
			<path id="XMLID_185_" d="M59.2,18.2c-0.2,0.3,0,1.3,0,1.9l0,0.1c0,0,0.1,0.3,0.1,0.3C59.3,19.7,59.1,18.8,59.2,18.2z"/>
			<path id="XMLID_184_" d="M59.6,16.3c-0.1,0.1-0.1-0.4,0,0.4c0,0,0-0.1,0-0.1C59.6,16.6,59.6,16.5,59.6,16.3z"/>
			<path id="XMLID_183_" d="M59.6,16.7C59.6,17.1,59.6,16.5,59.6,16.7L59.6,16.7z"/>
			<path id="XMLID_182_" d="M59.5,15l0.1,0.5c0-0.1,0.1-0.5,0.1-0.4C59.6,14.6,59.6,14.7,59.5,15z"/>
			<path id="XMLID_181_" d="M59.4,14.5l0,0.3C59.4,14.7,59.4,14.7,59.4,14.5z"/>
			<path id="XMLID_180_" d="M59.5,15.3l-0.1-0.5c0,0.1-0.1,0.1,0,0.2C59.4,15,59.4,15.1,59.5,15.3z"/>
			<path id="XMLID_179_" d="M59.4,15.6c0,0.3-0.1,0.6-0.1,0.1C59.3,16.7,59.5,16.6,59.4,15.6z"/>
			<path id="XMLID_178_" d="M59,18.1l-0.1,0.4l0.1,0.3C59,18.6,59.1,18,59,18.1z"/>
			<path id="XMLID_177_" d="M59.6,11.9c0,0-0.1,0.2-0.1,0.2l0,0.4C59.5,12.3,59.6,11.9,59.6,11.9z"/>
			<path id="XMLID_176_" d="M59.5,12.1l-0.1-0.5C59.4,12.1,59.4,12.1,59.5,12.1z"/>
			<polygon id="XMLID_175_" points="59.2,14.4 59.3,15.3 59.2,14.3 			"/>
			<polygon id="XMLID_174_" points="59.6,9.8 59.7,10.1 59.6,9.6 			"/>
			<path id="XMLID_173_" d="M59.6,8.5c0.1,0.2,0.1-0.3,0.2-0.1c0-0.4-0.1-0.7-0.1-1C59.7,7.7,59.7,8,59.6,8.5z"/>
			<path id="XMLID_172_" d="M59.6,6.9c0,0.2,0,0.3,0.1,0.5C59.6,7.2,59.6,7.1,59.6,6.9z"/>
			<path id="XMLID_171_" d="M59.4,10.6c0,0,0.1-0.1,0.1-0.4l-0.1,0.2C59.4,10.5,59.4,10.6,59.4,10.6z"/>
			<path id="XMLID_170_" d="M59.4,10.4L59.4,10.4c0-0.2,0-0.4,0-0.5C59.4,10,59.4,10.2,59.4,10.4z"/>
			<path id="XMLID_169_" d="M59.4,10.7C59.4,10.7,59.4,10.7,59.4,10.7C59.4,10.7,59.4,10.7,59.4,10.7z"/>
			<path id="XMLID_168_" d="M59.3,13c-0.1-0.3-0.1-1-0.2-0.3C59.1,12.9,59.2,12.5,59.3,13z"/>
			<path id="XMLID_167_" d="M59.3,11l0,0.6c0,0,0.1-0.1,0.1,0L59.3,11z"/>
			<polygon id="XMLID_166_" points="59.3,10.7 59.3,11 59.3,10.8 			"/>
			<path id="XMLID_165_" d="M59.5,7.9c0-0.2-0.1-0.5-0.1-0.8c0,0.3,0,0.7,0,1C59.4,8.1,59.5,8.3,59.5,7.9z"/>
			<path id="XMLID_164_" d="M59.4,9.1L59.4,9.1C59.4,9.1,59.4,9.1,59.4,9.1z"/>
			<polygon id="XMLID_163_" points="59.4,4 59.4,4.1 59.4,4.1 			"/>
			<path id="XMLID_162_" d="M59.3,8.1c0,0.2,0,0.4,0,0.5C59.4,8.5,59.4,8.3,59.3,8.1C59.4,8.1,59.3,8.1,59.3,8.1z"/>
			<path id="XMLID_161_" d="M59.5,6.1c0,0.1,0,0.3-0.1,0.4C59.5,6.4,59.5,6.1,59.5,6.1z"/>
			<path id="XMLID_160_" d="M59.5,9L59.5,9C59.5,9,59.5,9,59.5,9z"/>
			<path id="XMLID_159_" d="M59.5,9c0-0.1,0-0.2-0.1-0.3C59.4,8.8,59.4,9,59.5,9C59.4,9.1,59.4,9,59.5,9z"/>
			<path id="XMLID_158_" d="M58.5,3.2c0.1,0,0.4,0.6,0.3,1.2c0.1,0.5,0.4,0.2,0.6-0.3c-0.1,0-0.1,0-0.2-0.6c0,0.2,0,1.4-0.1,0.9
				c-0.1-0.8,0-0.7-0.1-1.1c0,0.2-0.1-0.1-0.3-0.3c-0.2-0.2-0.3-0.4-0.4-0.3c0,0,0.3,0.6,0.3,0.6C58.6,3.2,58.5,3,58.5,3.2z"/>
			<path id="XMLID_157_" d="M59.4,5.2l0,0.2c0-0.3,0.1-0.5,0.1-0.8c0-0.4-0.1-0.5-0.1-0.5C59.4,4.1,59.4,5.3,59.4,5.2L59.4,5.2z"/>
			<path id="XMLID_156_" d="M59.4,6.5c-0.1-0.2-0.2-0.7-0.3-0.4c0,0.7,0.1,0.5,0.1,0.9C59.2,5.9,59.3,7.3,59.4,6.5
				c0,0.2,0,0.4,0,0.6C59.4,6.9,59.4,6.7,59.4,6.5L59.4,6.5L59.4,6.5L59.4,6.5C59.4,6.6,59.4,6.6,59.4,6.5
				C59.4,6.5,59.4,6.5,59.4,6.5C59.4,6.5,59.4,6.5,59.4,6.5C59.4,6.1,59.4,6.4,59.4,6.5C59.4,6.5,59.4,6.5,59.4,6.5L59.4,6.5l0-1.1
				C59.4,5.7,59.4,5.9,59.4,6.5z"/>
			<path id="XMLID_155_" d="M58.8,12.1C58.9,12,58.9,12,58.8,12.1C58.9,12,58.8,11.9,58.8,12.1z"/>
			<path id="XMLID_154_" d="M58.9,11.6c0,0.1,0.1,0.1,0,0.4c0,0.2-0.1,0-0.1,0c0,0.2,0.1,0.6,0.1,0.1l0-0.1c0-0.4,0.2-1,0.2-0.9
				C59.1,11.2,59,11.3,58.9,11.6z"/>
			<path id="XMLID_153_" d="M59.1,9l-0.1-0.9L59,8.6l0.1,0C59,9.1,59.1,8.9,59.1,9z"/>
			<path id="XMLID_152_" d="M59.4,3.9L59.6,4c0,0-0.2-0.6-0.3-0.6C59.3,3.4,59.4,3.9,59.4,3.9z"/>
			<path id="XMLID_151_" d="M59,2.5l0.1,0c0,0-0.2-0.3-0.2-0.3C58.9,2.2,59,2.5,59,2.5z"/>
			<path id="XMLID_150_" d="M1.4,11.9l0,0.3C1.4,12.1,1.4,12,1.4,11.9z"/>
			<path id="XMLID_149_" d="M1.4,10L1.4,10C1.4,10,1.4,10.1,1.4,10z"/>
			<path id="XMLID_148_" d="M29.6,0.1C29.2,0,28.8-0.1,28.8,0l0.1,0.1C29.2,0.1,29.4,0.1,29.6,0.1z"/>
			<path id="XMLID_147_" d="M9.3,0.8l0.1,0c0.1,0,0.2-0.1,0.3-0.1C9.6,0.7,9.5,0.7,9.3,0.8z"/>
			<path id="XMLID_146_" d="M9,1.2L8.5,1.2C8.6,1.2,8.8,1.2,9,1.2z"/>
			<path id="XMLID_145_" d="M2.3,22c0,0,0.3,0.1,0.3,0.1C2.2,21.9,2.3,22,2.3,22z"/>
			<path id="XMLID_144_" d="M46.9,0.2c-0.3,0-0.6-0.1-0.9-0.1C46.4,0.2,46.8,0.2,46.9,0.2z"/>
			<path id="XMLID_143_" d="M0.2,11.2c0,0.2,0,0.2,0.1,0.2C0.3,11.2,0.3,11.1,0.2,11.2z"/>
			<path id="XMLID_142_" d="M45,0.1c0.1,0,0.1,0,0.2,0c0.3,0,0.5,0,0.8,0C45.7,0,45.4,0,45,0.1z"/>
			<path id="XMLID_141_" d="M40.5,23.1L40.5,23.1C40.6,23.1,40.6,23.1,40.5,23.1z"/>
			<path id="XMLID_140_" d="M51.9,24.2c-0.1,0-0.3,0-0.5,0C51.5,24.2,51.7,24.2,51.9,24.2z"/>
			<path id="XMLID_139_" d="M54.4,0.1C54.6,0.1,54.4,0.1,54.4,0.1L54.4,0.1z"/>
			<path id="XMLID_138_" d="M55.7,0.5c-0.1,0-0.1,0-0.1,0C55.6,0.5,55.6,0.5,55.7,0.5z"/>
			<path id="XMLID_137_" d="M42.5,0.8L42.5,0.8C42.5,0.8,42.5,0.8,42.5,0.8z"/>
			<path id="XMLID_136_" d="M54.8,0.1c-0.1,0-0.2,0-0.3,0C54.5,0.1,54.6,0.1,54.8,0.1z"/>
			<path id="XMLID_135_" d="M54.7,0.1c0.1,0,0.2,0,0.2,0C55,0.1,54.9,0,54.7,0.1z"/>
			<path id="XMLID_134_" d="M54,0.1c0.1,0,0.3,0,0.4,0c-0.1,0-0.1,0-0.1,0C54.3,0.1,54.2,0.1,54,0.1z"/>
			<path id="XMLID_133_" d="M19.5,23.4C19.6,23.4,19.6,23.4,19.5,23.4C19.8,23.4,19.7,23.4,19.5,23.4z"/>
			<polygon id="XMLID_132_" points="22.9,1.3 23,1.2 22.9,1.2 			"/>
			<path id="XMLID_131_" d="M22,1.3c0.4-0.1,0.6-0.1,0.9-0.1l-0.3-0.3L22,1.3z"/>
			<path id="XMLID_124_" d="M1.4,16.7L1.5,16c0.2,0.8,0.1,1.3,0.2,0.7c-0.3-0.1,0-2.5-0.4-2.6l0.1-0.4c0,0.1,0,0.1,0,0.3
				c0.2-0.8-0.2-0.6-0.2-1.7c0-0.4,0.1-0.6,0.1-0.4l-0.1-0.8c0-0.2,0.1-0.2,0.1,0.1l0-1.3l0,0C1.3,9.7,1.2,9.3,1.2,9.1
				c0-0.3,0,0.2,0.1,0.1L1.2,8.5c0.1-0.3,0.2,0.3,0.2,0.8c0.3-0.7-0.1-0.6,0.1-2l0,0.7C1.7,7.5,1.6,7,1.7,6.3C1.7,6.5,1.4,7.8,1.4,7
				c0-0.2,0-0.5,0-0.9c0.1,0,0.1-0.4,0.1-0.9l0.2,0c0-0.5-0.1-0.5-0.2-0.8c0-0.5,0.2-0.6,0.3-0.7C1.9,3,1.3,4.2,1.6,3.3
				c0.3-0.6,0.5-1,1.1-1.6c0.4-0.2,0,0.1,0.2,0.1c0,0,0.3-0.3,0.3-0.3c0.1,0,0.1,0,0.1,0c0.3-0.2,0-0.2,0.5-0.4
				c0.1-0.1,0.4-0.1,0.8,0c0.4,0.1,0.9,0.1,1.3,0c0.2,0-0.1,0.1,0,0.2C7,1.2,6.8,1.2,7.7,1l0.8,0.1C7.9,1,8.7,0.9,9.3,0.8
				C9.1,0.7,8.9,0.7,8.8,0.6l1-0.1c0.1,0,0,0.1-0.1,0.1c0.1,0,0.1,0,0.2,0c0.4,0.1,0.2,0.2-0.1,0.2c-0.1,0-0.2-0.1-0.4-0.1
				C9.2,0.9,8.9,1,9,1.1c0.1,0,0.2,0,0.3,0c-0.1,0-0.1,0-0.1,0.1c0,0,0.1,0,0.3-0.1l0.2,0.2l0.1-0.1l1.3,0.1c1-0.2,1.8-0.4,3.3-0.5
				c-0.4,0.1-0.1,0.2-0.1,0.4c-0.4-0.2-1.2,0.1-2,0c0.4,0,0.3,0.1,0.2,0.1l1.4-0.1c0,0.1,0.3,0.1,0.7,0.1C14.5,1,15.8,1.1,16.4,1
				c0,0.1-0.1,0.2-0.8,0.1c0.8,0.2,1-0.3,1.8-0.1c-0.2,0-0.3,0-0.3,0c0.4-0.1,1.4,0,1.1,0.1l-0.2,0c1.1,0,3.5,0,3.6-0.2
				c0,0-0.1,0.3-0.2,0.3l2-0.7c-0.2,0.2,0.5,0.6-0.4,0.7c0.3,0,0.6,0.1,1.2,0C24,1.2,23.7,1,23.9,1c0.7,0.2,0.5,0.1,1.3,0.3
				c-0.3,0,0-0.3,0.5-0.3c-0.1,0,0,0.3-0.1,0.3L26.7,1c-0.3,0.1,0,0.2,0.2,0.3c-0.1-0.1,0.9,0,1.2,0l-0.5-0.1c1.2,0,1.2-0.4,2.4-0.4
				c-0.1,0.1-0.4,0.4,0.3,0.4c0.3-0.1,1.3-0.7,2.3-0.8l0.2,0.1l0.8-0.1c-0.5,0.2-2,0.7-2.8,0.8c0.5,0.1,0.1,0.1,0.8,0.1
				c0.2,0.1-0.4,0.1-0.6,0.1l1.6,0c-0.1-0.2,1.2-0.2,1.2-0.3l-1.7,0.2c-0.1-0.2,1-0.5,2.1-0.4c0.3,0.1-0.2,0.3-0.2,0.4
				c0.1-0.1,1.1-0.1,1.2-0.1l-0.5,0.1c0.6,0.1,1-0.2,1.8-0.1c0.3,0,0.8,0.2,0.8,0.1c-0.4-0.2-0.5-0.8-0.2-0.9c0.1,0,1.4,0.2,1.7,0.3
				c0.4,0.2-0.6,0.4-0.3,0.5c0,0,0.3-0.1,0.4-0.1c0.3,0-0.1,0.1,0.5,0.1c0.1-0.2,1.2,0,0.3-0.1c0.6,0,0.6,0,1.3,0
				c-0.2-0.1,0.6-0.4,1.2-0.4c0,0,0.1,0.1,0.2,0.1c1.2,0,1.8,0.1,3,0.1c0.1,0,0.6,0.1,0.4,0.2c0.2,0,0.3-0.1,0.7-0.1
				c0.7,0.1-0.8,0-0.3,0.2c0-0.1,0.9-0.1,1.4-0.2c-0.2-0.2-1.1,0-1.6,0c0-0.2,0.9-0.4,2-0.5c0.9-0.1,0.4,0.1,0.6,0.1
				c1.7,0,1.5-0.4,2.9-0.2c0.6,0.1,0,0.3,0.2,0.4c-0.8,0.1-1.2-0.1-1.7-0.1l0.6,0.1c-0.2,0-0.7,0.1-1,0c0.5,0.1,3,0,4.3,0.1
				c0.2,0,0.7-0.1,0.5-0.1l-0.4,0c-0.4-0.1,0.8-0.1,0.3-0.2c0.3,0,0.6-0.1,0.9-0.1c0.3,0,0.8,0,1.2,0.1l0.1,0.2
				c0-0.1-0.5-0.2-0.8-0.2c0.4-0.1,1.2,0.5,1.6,0.6c0,0-0.5-0.4-0.5-0.4c0.6,0.2,1.4,0.5,1.8,1.3c-0.1-0.4-0.1-0.1-0.4-0.7
				c0.1,0.3-0.3-0.1-0.7-0.4c-0.4-0.3-0.8-0.4-0.5-0.2c-0.5-0.4-0.9-0.5-1.7-0.7c0,0.1,0.2,0.1-0.4,0.1c0,0-0.1,0-0.1,0c0,0,0,0,0,0
				l0,0c0,0,0,0,0,0c0.1,0,0.3,0,0.3,0.1c-0.3,0.1-1.2,0.1-1.6,0.2c-0.4,0,0.1-0.1,0-0.1L53,0.4c0-0.1-0.9-0.2-0.1-0.3l-0.8,0
				c-0.4-0.1-1.1-0.1-1.4,0c-0.4,0-0.9,0.1-0.6,0L49,0.2l0,0c-1.2,0-2.4,0.2-3.7,0c-0.4,0-0.8,0.1-1.5,0L43.6,0
				c-0.5,0-1.5-0.1-1.7,0c-0.5-0.3-2.4-0.1-3.3-0.1l0,0.1c-0.6,0-1.2,0-2,0.1l0,0.1C36,0.4,35,0.2,33.9,0.2c0.1,0,0.3,0,0.5,0
				c-1.2-0.3-2.6,0.2-3.7,0c-0.3,0-0.5,0-0.7,0c0,0,0,0,0.1,0c0,0-0.1,0-0.1,0c-0.1,0-0.3,0-0.4-0.1c0.1,0,0.2,0,0.3,0.1
				c-0.2,0-0.5,0-0.9,0l-0.1-0.1c0,0,0,0-0.1,0c-0.3,0-0.3,0.1-0.1,0.1c-0.2,0-0.3,0-0.4,0.1c-0.3-0.2-0.8,0.1-1.2-0.1
				c-0.2,0.1-1.6,0.1-1.8,0.3c0,0-0.1,0,0.1,0c-0.4,0-0.7,0-1,0l-0.2-0.2l-0.8,0.2c-0.5-0.1-0.7-0.1-0.2-0.3
				c-1.1,0.2-0.9,0.1-1.9,0.2l0-0.1c-0.3,0-0.9,0.1-1.1,0.1c-0.8-0.2-3.8,0-5.8-0.2c0.4,0.3-0.9-0.1-1,0.1c-0.1-0.1-0.4-0.1-0.1-0.2
				c-1,0.1-1.5-0.1-2.2,0.1c-0.1-0.1,0.2-0.1,0.1-0.1c-0.1,0-0.3,0.1-0.4,0c-0.1,0,0.1-0.1,0.3-0.1c-1,0-1.1,0.2-1.2,0.4
				c-0.5-0.1-0.8-0.1-1.2,0C8.7,0.4,8.4,0.4,9.1,0.4c-0.4,0-2.2-0.1-2.2,0.1c-0.1,0-0.5,0-0.6,0c-0.8,0-0.9,0-1.7,0l0.2,0
				c-0.3,0.2-0.7,0-1.4,0.2l0,0C2.6,0.8,2.5,0.9,2.4,1C2.2,1.1,2.1,1.2,1.5,1.7l0.1,0c0,0.1-0.2,0.3-0.5,0.7
				C0.9,2.7,0.6,3.2,0.6,3.7c0,0,0.1-0.3,0.1-0.3c0,0.2-0.2,0.6-0.3,0.9C0.3,4.6,0.2,5,0.2,5.2c0,0.1,0-0.2-0.1-0.3
				C0,6.1,0.3,5,0.3,5.9C0.3,6.1,0.1,5.7,0.1,6.3C0,6.6,0.4,8.1,0.2,8.9C0.3,8.7,0.4,8.6,0.4,9c0,0.6-0.2,1.7,0,2.3
				c0,0.1,0,0.1-0.1,0.1c0.1,0.5,0.1,1.6,0.2,1.9c-0.4,0.5,0.2,3-0.2,3l0,1.5l0,0c0,1,0.1,1.3,0.2,1.6c0,0.2-0.1,0.1-0.1,0
				c0,0.7,0,1.2,0.1,1.5c0.1,0.4,0.3,0.7,0.7,1.2l0,0.2c0.1,0.1,0.4,0.6,1,1.1c0.6,0.4,1.4,0.8,2.2,0.7c0,0,0,0-0.2,0
				c1.6-0.1,3.7,0.3,4.3-0.1l1-0.1c-1.3,0,0.2-0.2-0.3-0.3c0.5,0,1.3,0.1,0.7,0.2l-0.1,0c-0.2,0.2,1.6,0.1,1.6,0.2
				c2.6,0,5.2,0.1,7.6,0.1l-0.3-0.2l0.9,0c0.2,0,0.3,0.1-0.3,0.1c0.3,0.1,1-0.1,1-0.1c1.2,0.1-0.5,0.2-0.1,0.2l0.5,0l-0.1,0
				c0.4-0.1,0.4-0.2,1.2-0.1c0.5,0,0.2,0.1,0.4,0.1c0,0,0.1,0,0.3,0l1.1,0l-0.4-0.1c0.5-0.1,1,0,0.5-0.2c0.7,0.3,4,0.1,4.5,0.2
				c0.7-0.1,1.3-0.1,2.1-0.1c-0.2,0-0.3-0.2,0.4-0.2c-0.3,0.3,1.3,0.1,1.9,0.4c-0.5-0.2,2,0,1.2-0.3c0.6,0,0,0.1,0.5,0.2
				c1.4-0.1,3.1,0.1,4.8,0c0,0-0.3-0.1,0.1-0.2l0.9,0.2c0.3,0,0.3-0.3,0.9-0.1c-0.1,0-0.2-0.1,0-0.1c3.4,0.2,6.9-0.2,10.3,0.2
				c-0.5-0.1-0.2-0.1,0.2-0.1c-0.2,0,0-0.1,0-0.2l1.4,0.2c0.3-0.2,1.5,0,1.7-0.2l-0.5,0c0.6-0.2-0.8-0.4-0.8-0.7
				c-0.7,0.2-1.8-0.3-2.9,0c-0.2,0,0.2-0.1,0.1-0.1c-0.3,0.1-0.6,0.1-1.3,0.1l0.1,0c-1.8,0-2.5-0.1-4.5-0.1l0.1,0.1
				c-0.4,0-0.5-0.1-0.7-0.1c-0.5,0.2,1.2,0,0.8,0.2c-0.6-0.2-3,0-3.4-0.3c-0.7,0,0.2,0.1-0.5,0.1l-0.2-0.1l-0.2,0.1
				c-0.4,0-0.6-0.1-0.7-0.2c0.1,0,0.3,0,0.4,0c-0.6-0.1-1.6,0-1.8,0l0.6,0c-1.8,0.1-4,0-5.7,0.1l0.1,0.1c-1.3,0.1-1.1-0.1-2.5,0
				l0.1,0c-0.3,0.1-0.7,0.1-1.1,0.1c0.4-0.1-0.7-0.1-0.2-0.2c-1.4,0.1-0.7,0.1-1.7,0.3l-0.2-0.1c-0.3,0.1-0.4,0.1-1.1,0.2
				c0.6-0.1-0.5-0.1,0.2-0.2c-1.5-0.2-2.3,0.2-3-0.1c-0.7,0.3,1.3,0.1,0.9,0.2c0.3,0.1-0.6,0.2-1.1,0.2c-0.5,0-0.8-0.3-2.1-0.3
				c0.1,0,0.1,0,0.3,0c-0.5-0.1-0.9,0.1-1.5,0c-0.3,0.2-0.7,0-0.8,0.2l1.1,0c-0.6,0.1-1.2,0.3-2.3,0.2c0.1,0,0.4-0.1,0.6-0.1
				c-0.3-0.1-0.6,0-0.9,0c0.1-0.2,1.4,0,2-0.2c-0.3-0.1-1.3,0.1-0.9-0.1c-0.5,0.3-1.2,0-2,0.2l0.1-0.1c-0.1,0-0.4,0.1-0.6,0.1
				l0.4-0.2c-0.7,0.1-1.3-0.1-1.9,0c1.3,0,0.3,0.1,0.9,0.2c-1.7,0.2-1-0.3-2.8-0.3c0.3,0,0.9,0.1,0.6,0.1c-0.4,0-0.8-0.1-1-0.1
				c-1.2,0,0.2,0.1-0.3,0.2c-0.4-0.1-0.6,0.1-1.1,0.1l0-0.1c-1.4-0.1-0.4,0.3-1.6,0.2l0.5-0.2l-0.7,0l0.1-0.1
				c-0.7,0.1-0.9,0.1-1.6,0c0.2,0.1-0.1,0.2-0.7,0.2c-0.4-0.1,0.2-0.1-0.6-0.1c0.2-0.1,0.4-0.2,0.8-0.1c0,0,0.2-0.1,0.2-0.1
				c-0.5-0.1-1.1,0-1.5,0c0.1,0,0.3,0,0.3,0l-1.3,0.2c-0.2,0,0-0.1,0.1-0.1c-0.3,0-0.4,0.1-0.8,0.1C5.1,23.1,5,23,5.6,23l-1.2,0.1
				c-0.1,0-0.5-0.2-0.4-0.2c-0.5-0.1-1.3-0.2-1.8-0.9c0,0-0.1-0.1-0.2-0.2c-0.2-0.3-0.3-0.6-0.4-0.9c0-0.2-0.1-0.3-0.1-0.5
				c0-0.2,0-0.4-0.1-0.6l0.2-0.6c0-0.8-0.2,0.8-0.3-0.5c-0.1-0.9,0.1-0.3,0.2-0.7c-0.1-0.5-0.3-1.3-0.1-2.1
				C1.4,16.2,1.4,16.4,1.4,16.7z M1.4,7c0,0.2,0.1,0.6,0,0.7C1.2,7.5,1.3,7.4,1.4,7z M10.7,1c-0.1,0-0.4,0-0.6,0
				C10.3,1,10.5,1,10.7,1z M51.6,0.2L51.6,0.2C51.1,0.1,51.3,0.1,51.6,0.2z M52.4,0.2C52.5,0.2,52.5,0.2,52.4,0.2c0,0-0.2,0-0.4,0
				C52.1,0.2,52.2,0.2,52.4,0.2z M22.3,24.2l-0.2,0C22.5,24.1,22.4,24.2,22.3,24.2z"/>
			<path id="XMLID_123_" d="M9.1,1.2C9,1.1,9,1.1,9.1,1.2C8.9,1.1,8.9,1.1,9.1,1.2z"/>
			<path id="XMLID_122_" d="M2.2,22L2.2,22C2.2,22,2.2,22,2.2,22L2.2,22z"/>
			<path id="XMLID_121_" d="M39,1.2c-0.2,0-0.3,0-0.3-0.1C38.7,1.2,38.8,1.2,39,1.2z"/>
			<path id="XMLID_120_" d="M57.3,0.6c0,0-0.6-0.3-0.6-0.2C57,0.4,57.1,0.5,57.3,0.6C57.2,0.6,57.1,0.5,57.3,0.6z"/>
			<path id="XMLID_119_" d="M58.8,5.3c0,0.1,0,0.2,0,0.3l0.1,0C58.9,5.2,58.8,5,58.8,5.3z"/>
			<path id="XMLID_118_" d="M57.6,1.2c0,0.1,0.3,0.3,0.6,0.6l0-0.1C58.3,1.8,58,1.5,57.6,1.2z"/>
			<path id="XMLID_117_" d="M58.2,1.9c0.1,0.1,0.2,0.2,0.2,0.3C58.5,2.2,58.4,2.1,58.2,1.9z"/>
			<path id="XMLID_116_" d="M53.5,0.1c0.2,0,0.1-0.1,0.2-0.1C54-0.1,52.5,0.2,53.5,0.1z"/>
			<path id="XMLID_115_" d="M57.6,1.7l0-0.2c0,0-0.2-0.1-0.2-0.1C57.4,1.4,57.6,1.7,57.6,1.7z"/>
			<path id="XMLID_114_" d="M54.8,0.7c0,0,0.2,0,0.3,0c0.2,0,0.3,0,0.3,0c0,0,0.1,0,0.2,0C55.2,0.6,54.8,0.6,54.8,0.7z"/>
			<path id="XMLID_113_" d="M55.6,0.7c0.2,0,0.4,0.1,0.5,0.1C56,0.7,55.8,0.7,55.6,0.7z"/>
			<path id="XMLID_112_" d="M56.9,1.2l-0.2-0.1c0,0-0.1,0-0.2-0.1c-0.1,0-0.2-0.1-0.2-0.1C56.4,0.9,56.9,1.2,56.9,1.2z"/>
			<path id="XMLID_111_" d="M48.1,0.6l-0.7,0c-0.1,0,0.1,0.1,0.4,0.1C48,0.7,48.2,0.7,48.1,0.6z"/>
			<path id="XMLID_110_" d="M50.2,1c-0.2,0-0.2-0.1-0.3-0.1l0,0.2L50.2,1z"/>
			<path id="XMLID_109_" d="M48.2,1c-0.1,0-1,0.1-0.1,0.1C48.1,1.1,48.8,1,48.2,1z"/>
			<polygon id="XMLID_108_" points="38,0.8 38.2,0.8 38.1,0.6 			"/>
			<path id="XMLID_107_" d="M29,1.4c0.8,0.1,0.2-0.2,0.9-0.1c0.2-0.1-0.6-0.1-0.4-0.1C29,1.3,28.8,1.3,29,1.4z"/>
			<path id="XMLID_106_" d="M29.5,1.2c0.1,0,0.2,0,0.2,0C29.6,1.2,29.5,1.2,29.5,1.2z"/>
			<polygon id="XMLID_105_" points="53.8,24.3 54.3,24.4 54,24.3 			"/>
			<path id="XMLID_104_" d="M54.8,24.1l0.1,0.2l0.3-0.1C55.1,24.2,54.9,24.2,54.8,24.1z"/>
			<path id="XMLID_103_" d="M1.7,5.6L1.7,5.6C1.6,5.6,1.6,5.8,1.6,6L1.7,5.6z"/>
			<polygon id="XMLID_102_" points="1.6,12.6 1.6,12.5 1.4,12.7 			"/>
			<path id="XMLID_101_" d="M1.7,18.5c0-0.2,0-0.5,0-0.8C1.8,18.2,1.6,18.5,1.7,18.5z"/>
		</g>
	</g>
	<g id="XMLID_7_">
		<path id="XMLID_8_" d="M13,7.9l0.3,0.2l0.2,0c0.1,0,0.2,0.1,0.3,0.3c0,0,0.1,0.1,0.3,0.1c0.2,0.2,0.4,0.4,0.6,0.4
			c0.1,0.1,0.2,0.4,0.3,0.8l0.1,0.3l-0.1,0.3v0.3c-0.1,0.3-0.2,0.5-0.4,0.7l0,0.3c0,0.1-0.1,0.1-0.3,0.2c-0.1,0.2-0.2,0.3-0.2,0.4v0
			c0.1,0.2,0.1,0.3,0.1,0.4c0,0.1,0,0.3,0.1,0.5c0,0.5,0,0.7,0.1,0.7c0.1,0.1,0.2,0.3,0.2,0.4l0.1,0h0.3c0.2,0.2,0.3,0.3,0.5,0.3
			c0.1,0,0.1,0.1,0.2,0.4c-0.1,0.3-0.2,0.5-0.3,0.5h-0.1l-0.1,0h-0.1l0,0h0c-0.1,0-0.3-0.1-0.6-0.1L14.5,15c0,0-0.1,0-0.1-0.1
			c-0.1,0-0.1,0.1-0.2,0.1h0c-0.1,0-0.1-0.2-0.2-0.5c0,0,0,0,0-0.1h-0.2l0,0v0c0.1,0,0.2-0.1,0.2-0.2h0c-0.2-0.1-0.2-0.1-0.2-0.2v0
			c0-0.1,0-0.2,0.1-0.4v-0.1c-0.1-0.1-0.1-0.1-0.1-0.2v-0.1l0-0.2v0l-0.1-0.3c0-0.2,0-0.3-0.1-0.3c-0.1,0-0.2-0.1-0.3-0.2
			c0-0.1-0.1-0.2-0.1-0.2l-0.3,0.1c0,0-0.1-0.1-0.3-0.2l-0.2,0l-0.2,0c-0.1,0-0.2,0.1-0.4,0.3l0,0.1c0.1,0,0.1,0.1,0.1,0.2
			c0,0-0.1,0.1-0.2,0.3c0,0.1,0.1,0.2,0.2,0.3v0c0,0-0.1,0.1-0.2,0.3v0c0,0,0.1,0.1,0.2,0.2l0,0.1c0,0.1,0,0.2-0.1,0.2
			c0.1,0.2,0.2,0.4,0.4,0.4c0.1,0,0.2,0,0.4,0.1c0.1-0.1,0.2-0.1,0.3-0.1c0.1,0,0.2,0.2,0.2,0.7v0c-0.1,0.1-0.2,0.2-0.4,0.2l-0.1,0
			c-0.1,0.1-0.3,0.2-0.3,0.2l-0.3-0.1l0,0h0l0,0h0l-0.5,0.1l-0.1,0l-0.3-0.1l0,0h-0.1l-0.3,0c-0.1,0-0.2,0-0.3,0.1H9.9
			c-0.2-0.1-0.3-0.4-0.3-0.7c0-0.3,0.2-0.4,0.4-0.4l0.1,0c0.1,0,0.2-0.1,0.3-0.2c0.2,0,0.4-0.2,0.4-0.5v-0.1l-0.1-0.7l0.1-0.4
			l-0.2-0.3v0c0.1-0.3,0.1-0.5,0.2-0.7l0-0.5V11l-0.1-0.3c0-0.1,0-0.3,0.1-0.5v0c-0.2-0.3-0.3-0.5-0.3-0.6l0.1-0.2l0,0V9.3
			c0-0.1-0.1-0.2-0.2-0.2C10.2,9,9.9,8.9,9.5,8.9c-0.1,0-0.2-0.2-0.2-0.5c0-0.1,0.1-0.1,0.3-0.1C9.7,8,9.8,7.9,9.9,7.9
			C10,8,10.1,8.1,10.2,8.1c0.3,0,0.5-0.1,0.7-0.2h0.1C11,8,11.1,8.1,11.2,8.1L11.4,8l0.2,0h0.1l0.3-0.1l0.3,0.1l0.2,0l0.3,0.1
			C12.9,8,13,7.9,13,7.9z M12.6,9L12.6,9c-0.2-0.1-0.3-0.2-0.4-0.2l-0.3,0.1l-0.1,0c-0.3,0.1-0.4,0.3-0.4,0.4c0,0,0.1,0.1,0.2,0.3v0
			l-0.1,0.2v0.1l0.2,0.3l-0.2,0.3v0.1l0.2,0.3v0.1L11.5,11c0,0,0,0.1,0.1,0.2l0.1,0c0.2-0.1,0.3-0.1,0.4-0.1c0,0,0.1,0.1,0.2,0.1
			l0.3-0.1h0.1l0.2,0.1c0.1-0.1,0.1-0.1,0.2-0.1c0.1,0,0.1,0,0.2,0.1c0.4-0.1,0.6-0.2,0.7-0.4l0-0.1v-0.2l0.2-0.3c0,0,0-0.1,0.1-0.1
			c0,0-0.1-0.1-0.2-0.3v0c0,0,0-0.1,0.1-0.3c0-0.1-0.1-0.2-0.3-0.3l0-0.1V9L13.8,9L13.6,9h-0.1c-0.2-0.1-0.4-0.1-0.7-0.2h0L12.6,9z"
			/>
		<path id="XMLID_188_" d="M18.9,12.9c0,0,0.1,0,0.2,0.1h0l0.1,0c0.1,0,0.2,0.2,0.3,0.5c0.1,0.2,0.1,0.3,0.2,0.4v0l-0.1,0.2v0
			l0.1,0.2c0,0-0.1,0.1-0.2,0.3c-0.1,0.1-0.2,0.2-0.2,0.3c0,0.1,0,0.2-0.1,0.2h0c0,0-0.1,0-0.2-0.1l-0.1,0l-0.2,0l-0.2,0l-0.3,0.2
			c0,0-0.1-0.1-0.2-0.2l-0.1,0l-0.1,0c-0.1,0-0.1-0.1-0.2-0.3c-0.1-0.1-0.2-0.1-0.2-0.2l0,0c-0.1-0.1-0.1-0.2-0.1-0.3
			c0,0,0.1-0.2,0.2-0.5c0.1-0.2,0.1-0.4,0.3-0.4l0.4-0.2C18.7,13,18.8,13,18.9,12.9z"/>
		<path id="XMLID_190_" d="M24.2,7.9L24.4,8l0.2-0.1h0.1l0.4,0.2l0.4,0.1c0.1-0.1,0.2-0.1,0.2-0.2c0.1-0.1,0.2-0.1,0.2-0.1
			c0.4,0.1,0.5,0.3,0.5,0.5L26.5,9l0,0.3c0.1,0.2,0.1,0.3,0.1,0.4c-0.1,0.4-0.2,0.6-0.3,0.6c-0.1,0-0.2-0.1-0.6-0.4l0-0.1l0-0.2
			c-0.2-0.3-0.3-0.5-0.4-0.5l-0.1,0C25.1,9.1,25,9,25,8.9l-0.1-0.1l-0.1,0h-0.2c-0.2-0.1-0.4-0.2-0.4-0.2l-0.1,0l-0.2,0
			c-0.1,0.1-0.2,0.2-0.3,0.2l-0.2-0.1c-0.1,0-0.2,0.1-0.3,0.3l-0.3,0.1c-0.1,0.1,0,0.1,0,0.2c-0.2,0.1-0.3,0.2-0.3,0.3L22.5,10
			c0.1,0.2,0.2,0.3,0.4,0.3c0,0,0.1,0.1,0.1,0.3c0.2,0,0.4,0.1,0.6,0.2l0.4,0.1c0.1,0,0.1,0,0.2-0.1h0l0.2,0.1h0l0.2,0h0
			c0.1,0,0.2,0.1,0.4,0.2c0.1,0,0.5,0.2,1,0.5c0.3,0.2,0.4,0.3,0.4,0.3c0,0,0.1,0.1,0.1,0.3c0.1,0.1,0.1,0.2,0.1,0.3l0,0.1L27,13
			c-0.1,0.6-0.2,0.9-0.3,1c-0.1,0.5-0.3,0.7-0.5,0.7c-0.2,0.2-0.4,0.3-0.5,0.3c-0.1,0-0.3,0.1-0.4,0.2l-0.6,0.1h-0.1l-0.2,0
			l-0.3,0.1c-0.3-0.1-0.6-0.2-0.8-0.2h-0.2c-0.2-0.1-0.3-0.2-0.3-0.2L22.6,15c0,0-0.1,0-0.1-0.1c-0.1,0-0.2,0-0.2,0.1
			c0,0.1-0.1,0.2-0.2,0.2H22c-0.1-0.1-0.3-0.2-0.5-0.3l-0.1-0.2l0-0.2l-0.1-0.4v0l0.1-0.4l-0.1-0.3l0-0.2L21.3,13l0.2-0.4v0l0-0.1
			c0-0.1,0.1-0.1,0.1-0.1h0.1c0.1,0.1,0.2,0.2,0.3,0.2l0.1,0c0.1,0,0.2,0.1,0.2,0.2l0,0.2v0c0.1,0.4,0.2,0.5,0.4,0.5
			c0.1,0,0.1,0.1,0.2,0.4c0,0.1,0.1,0.1,0.1,0.1v0l0.1,0h0c0.1,0,0.1,0,0.2,0.1l0,0.1c0.1,0.1,0.2,0.2,0.3,0.2l0.2-0.2h0l0.2,0.1h0
			l0.2,0l0.3,0l0.3-0.2l0.3,0.1h0.1c0.1-0.1,0.2-0.2,0.4-0.3c0,0,0.1-0.2,0.1-0.4l0.2-0.3c0-0.1-0.1-0.1-0.1-0.2V13l0.1-0.3
			c-0.1-0.1-0.2-0.3-0.2-0.4l0,0l-0.1,0l-0.2,0c-0.2-0.2-0.4-0.3-0.6-0.3l-0.4-0.2c-0.3,0-0.5,0-0.8-0.1h0l-0.2,0h-0.1
			c-0.2-0.2-0.3-0.3-0.4-0.3h0l-0.1,0c-0.1-0.1-0.2-0.2-0.4-0.4c-0.1,0-0.3-0.2-0.5-0.6l0-0.1c-0.1-0.2-0.1-0.3-0.1-0.4
			c0.1-0.6,0.2-0.9,0.3-0.9c0.1,0,0.3-0.2,0.5-0.5c0.1-0.1,0.4-0.2,0.9-0.4c0.1-0.1,0.1-0.1,0.3-0.1L23.8,8L24.2,7.9z"/>
		<path id="XMLID_192_" d="M30.1,12.9c0,0,0.1,0,0.2,0.1h0l0.1,0c0.1,0,0.2,0.2,0.3,0.5c0.1,0.2,0.1,0.3,0.2,0.4v0l-0.1,0.2v0
			l0.1,0.2c0,0-0.1,0.1-0.2,0.3c-0.1,0.1-0.2,0.2-0.2,0.3c0,0.1,0,0.2-0.1,0.2h0c0,0-0.1,0-0.2-0.1l-0.1,0l-0.2,0l-0.2,0l-0.3,0.2
			c0,0-0.1-0.1-0.2-0.2l-0.1,0l-0.1,0c-0.1,0-0.1-0.1-0.2-0.3c-0.1-0.1-0.2-0.1-0.2-0.2l0,0c-0.1-0.1-0.1-0.2-0.1-0.3
			c0,0,0.1-0.2,0.2-0.5c0.1-0.2,0.1-0.4,0.3-0.4l0.4-0.2C29.8,13,30,13,30.1,12.9z"/>
		<path id="XMLID_194_" d="M34.2,7.9C34.4,8,34.7,8,35,8c0.2,0,0.3,0.2,0.4,0.5c0,0.1-0.1,0.2-0.4,0.3L34.9,9h0c0,0-0.1,0-0.2-0.1
			h-0.1l-0.1,0.1c0,0.1,0.1,0.3,0.1,0.4h0c0.1,0.3,0.2,0.5,0.3,0.5c0.1,0,0.1,0.1,0.1,0.1c-0.1,0.1-0.1,0.2-0.1,0.3v0
			c0,0,0.1,0.2,0.2,0.3l0,0.1l0,0.1c0.1,0.1,0.1,0.2,0.1,0.3v0l0,0.2c0.1,0.3,0.2,0.5,0.3,0.6l0.1,0.1l-0.1,0.3v0
			c0.1,0.2,0.2,0.3,0.2,0.4l0.1,0.1c0.1,0,0.2-0.1,0.3-0.2l0,0v0l0,0l0,0v-0.2c0.1-0.1,0.3-0.4,0.3-0.7v0l0-0.1c0,0,0.1-0.1,0.3-0.3
			v0c-0.1-0.1-0.1-0.2-0.1-0.2c0,0,0.1-0.2,0.3-0.3c0.1-0.2,0.2-0.4,0.2-0.5l0-0.1L37,9.6l-0.1-0.2V9.3c0.1-0.1,0.1-0.1,0.1-0.2
			c0-0.1-0.2-0.2-0.6-0.4c-0.1,0-0.1-0.1-0.1-0.2c0-0.3,0.1-0.4,0.4-0.5l0.3,0l0.6,0.1l0,0h0l0.1,0L38,8l0.5,0.1
			c0.2,0.1,0.3,0.3,0.3,0.4c0,0.1-0.2,0.2-0.5,0.3c0,0,0,0-0.1,0C38.2,9,38.1,9,38,9.1c0,0,0,0.1,0,0.1L38,9.3
			c-0.2,0-0.2,0.2-0.2,0.4L37.6,10l0.1,0.2l-0.3,0.4l0,0.1c0,0.1,0,0.2,0,0.3c0,0.1-0.1,0.2-0.2,0.5l0,0v0l0,0.1l0,0.1v0l-0.1,0.4
			l0,0.3c0,0-0.1,0.1-0.2,0.2l-0.1,0.1l0,0.2l0,0v0l0,0v0c-0.1,0-0.2,0.3-0.2,0.8c0,0.1-0.1,0.2-0.2,0.4c0,0.2-0.1,0.3-0.2,0.5
			l0,0.1c0,0.2-0.3,0.4-0.8,0.5c-0.1,0-0.2-0.1-0.3-0.4c-0.1-0.1-0.1-0.3-0.1-0.4l-0.1-0.2l0-0.3c-0.2-0.1-0.2-0.4-0.2-0.7
			c-0.1-0.1-0.1-0.3-0.2-0.7c0,0-0.1-0.1-0.1-0.3l0-0.3c-0.2-0.2-0.3-0.3-0.3-0.4l0-0.2C34.1,11.1,34,11,34,10.9v-0.1l0,0l-0.2-0.4
			c0-0.1-0.1-0.2-0.2-0.3V10l0.1-0.1V9.8l-0.2-0.3V9.4l0.1-0.2c-0.1-0.3-0.3-0.4-0.5-0.4c-0.3-0.2-0.5-0.3-0.6-0.4l0-0.1
			c0-0.1,0.1-0.3,0.4-0.4c0,0,0.1-0.1,0.2-0.1C33.3,7.9,33.5,8,33.9,8l0,0C33.9,8,34,7.9,34.2,7.9z"/>
		<path id="XMLID_197_" d="M41.9,12.9c0,0,0.1,0,0.2,0.1h0l0.1,0c0.1,0,0.2,0.2,0.3,0.5c0.1,0.2,0.1,0.3,0.2,0.4v0l-0.1,0.2v0
			l0.1,0.2c0,0-0.1,0.1-0.2,0.3c-0.1,0.1-0.2,0.2-0.2,0.3c0,0.1,0,0.2-0.1,0.2h0c0,0-0.1,0-0.2-0.1l-0.1,0l-0.2,0l-0.2,0l-0.3,0.2
			c0,0-0.1-0.1-0.2-0.2l-0.1,0l-0.1,0c-0.1,0-0.1-0.1-0.2-0.3c-0.1-0.1-0.2-0.1-0.2-0.2l0,0c-0.1-0.1-0.1-0.2-0.1-0.3
			c0,0,0.1-0.2,0.2-0.5c0.1-0.2,0.1-0.4,0.3-0.4l0.4-0.2C41.7,13,41.8,13,41.9,12.9z"/>
		<path id="XMLID_199_" d="M47.5,7.9l0.3,0.2l0.1,0l0.4,0L48.4,8h0.1c0.1,0.1,0.2,0.2,0.3,0.2l0.3,0c0.3,0.2,0.5,0.4,0.6,0.6
			l0.1,0.2c0.3,0.3,0.4,0.5,0.4,0.6l0,0.2v0.1l0.2,0.3v0.1l-0.1,0.4l0,0.2c-0.1,0.2-0.2,0.4-0.2,0.6l-0.4,0.4l-0.6,0.3
			c-0.1,0-0.3,0.1-0.6,0.3h-0.1c0,0-0.1,0-0.3-0.1l-0.1,0H48c-0.1,0-0.2,0.1-0.4,0.3h0c-0.2-0.1-0.3-0.2-0.4-0.2H47
			c-0.1,0-0.3,0.1-0.4,0.3l0,0.3l-0.1,0.2l0.1,0.3v0.1l-0.1,0.3c0,0.3,0.2,0.4,0.4,0.4c0.1,0,0.2,0.1,0.4,0.2l0.3,0
			c0.2,0.1,0.4,0.1,0.4,0.2l0,0.1l0.1,0.3c0,0.1-0.1,0.1-0.1,0.1h-0.1c-0.1,0-0.2,0.1-0.3,0.3l-0.1,0l-0.3-0.2l-0.2,0l-0.3,0
			l-0.3,0.2h-0.1l-0.2-0.1h-0.1l-0.2,0h-0.1c-0.2-0.1-0.3-0.1-0.4-0.1h0l-0.1,0c-0.1-0.1-0.1-0.1-0.2-0.1c-0.1,0.1-0.2,0.1-0.3,0.1
			h-0.1c0,0-0.2-0.1-0.4-0.3c-0.1-0.1-0.2-0.1-0.2-0.2c0.1-0.1,0.2-0.2,0.3-0.2c0.1-0.2,0.3-0.3,0.4-0.3l0.4,0.2
			c0.3,0,0.5-0.1,0.5-0.4l0-0.1l0.1-0.4l-0.1-0.3l0.1-0.3c-0.1-0.2-0.1-0.3-0.1-0.3l0.1-0.3c0,0,0-0.1-0.1-0.2V12l0.1-0.3l-0.1-0.3
			l0-0.2v-0.1l-0.1-0.2l0.1-0.3l-0.1-0.3l0.1-0.3l-0.1-0.3v0c0.1-0.1,0.1-0.2,0.1-0.3c-0.1-0.3-0.4-0.4-0.7-0.4l-0.1,0L44.8,9h0
			c-0.3-0.1-0.4-0.2-0.4-0.3l0-0.1l0.1-0.2V8.3C44.6,8.1,44.8,8,45,8l0.3-0.2h0.1L45.6,8l0.2,0l0.2,0h0.1l0.2-0.2h0.1l0.2,0.2l0.1,0
			H47l0,0l0,0h0l0.1,0C47.3,7.9,47.4,7.9,47.5,7.9z M47.3,8.9L47,9.1h-0.2l0,0l-0.1,0v0.1c0,0.1,0,0.3-0.1,0.4l0.1,0.3v0.1l-0.1,0.3
			v0l0.1,0.3v0c-0.1,0.1-0.1,0.2-0.1,0.3l0.1,0.3c0,0.1,0,0.1,0,0.2l0.1,0.1c0,0,0.1-0.1,0.2-0.1c0.1,0.1,0.2,0.2,0.3,0.2l0.2-0.1
			h0.1l0.3,0.1l0.2-0.1h0.1c0,0,0.1,0,0.1,0.1l0.1,0c0,0,0.1,0,0.3-0.1c0.2,0,0.4-0.1,0.4-0.2c0.3-0.3,0.5-0.5,0.5-0.7
			c0-0.1,0-0.2,0.1-0.4c-0.1-0.1-0.2-0.3-0.2-0.6l0,0h0l-0.1-0.1l-0.2,0.1c0,0-0.1-0.1-0.1-0.2h0c0-0.1-0.2-0.3-0.5-0.6h-0.1
			c-0.2,0.2-0.3,0.2-0.4,0.2h0c0,0-0.2-0.1-0.4-0.2L47.3,8.9z"/>
	</g>
	<g id="XMLID_56_">
		<path id="XMLID_340_" d="M4.2,0.1C4.5,0.1,4.4,0,4.4,0C3.9,0.1,4.2,0.2,4.2,0.1z"/>
		<path id="XMLID_339_" d="M0.9,2.6L0.9,2.6c0-0.1-0.2,0.5-0.2,0.5C0.7,3.1,0.9,2.6,0.9,2.6z"/>
		<path id="XMLID_338_" d="M0.4,6.2c0.2-0.3,0-1.3,0-1.9l0-0.1c0,0-0.1-0.3-0.1-0.3C0.4,4.7,0.5,5.7,0.4,6.2z"/>
		<path id="XMLID_337_" d="M0,8.1c0.1-0.1,0.1,0.4,0-0.4c0,0,0,0.1,0,0.1C0.1,7.8,0.1,7.9,0,8.1z"/>
		<path id="XMLID_336_" d="M0.1,7.8C0,7.4,0,8,0.1,7.8L0.1,7.8z"/>
		<path id="XMLID_335_" d="M0.1,9.5L0,9C0,9.1,0,9.5,0,9.4C0,9.9,0,9.8,0.1,9.5z"/>
		<path id="XMLID_334_" d="M0.2,9.9l0-0.3C0.2,9.7,0.2,9.8,0.2,9.9z"/>
		<path id="XMLID_333_" d="M0.1,9.2l0.1,0.5c0-0.1,0.1-0.1,0-0.2C0.2,9.5,0.2,9.4,0.1,9.2z"/>
		<path id="XMLID_332_" d="M0.2,8.8c0-0.3,0.1-0.6,0.1-0.1C0.3,7.8,0.1,7.9,0.2,8.8z"/>
		<path id="XMLID_331_" d="M0.6,6.4L0.7,6L0.6,5.7C0.6,5.9,0.6,6.4,0.6,6.4z"/>
		<path id="XMLID_330_" d="M0,12.5c0,0,0.1-0.2,0.1-0.2l0-0.4C0.1,12.2,0.1,12.5,0,12.5z"/>
		<path id="XMLID_329_" d="M0.1,12.3l0.1,0.5C0.2,12.4,0.2,12.3,0.1,12.3z"/>
		<polygon id="XMLID_327_" points="0.4,10 0.3,9.1 0.4,10.2 		"/>
		<polygon id="XMLID_326_" points="0,14.6 -0.1,14.3 0,14.9 		"/>
		<path id="XMLID_325_" d="M0,16c-0.1-0.2-0.1,0.3-0.2,0.1c0,0.4,0.1,0.7,0.1,1C-0.1,16.8,0,16.4,0,16z"/>
		<path id="XMLID_324_" d="M0.1,17.5c0-0.2,0-0.3-0.1-0.5C0,17.2,0,17.4,0.1,17.5z"/>
		<path id="XMLID_323_" d="M0.2,13.8c0,0-0.1,0.1-0.1,0.4L0.2,14C0.2,14,0.2,13.9,0.2,13.8z"/>
		<path id="XMLID_322_" d="M0.2,14L0.2,14c0,0.2,0,0.4,0,0.5C0.2,14.4,0.2,14.3,0.2,14z"/>
		<path id="XMLID_321_" d="M0.2,13.8C0.2,13.8,0.2,13.8,0.2,13.8C0.2,13.8,0.2,13.8,0.2,13.8z"/>
		<path id="XMLID_320_" d="M0.3,11.5c0.1,0.3,0.1,1,0.2,0.3C0.5,11.6,0.4,11.9,0.3,11.5z"/>
		<path id="XMLID_319_" d="M0.3,13.5l0-0.6c0,0-0.1,0.1-0.1,0L0.3,13.5z"/>
		<polygon id="XMLID_318_" points="0.4,13.8 0.3,13.5 0.3,13.7 		"/>
		<path id="XMLID_317_" d="M0.2,16.6c0,0.2,0.1,0.5,0.1,0.8c0-0.3,0-0.7,0-1C0.2,16.3,0.2,16.2,0.2,16.6z"/>
		<path id="XMLID_316_" d="M0.2,15.3L0.2,15.3C0.2,15.3,0.2,15.3,0.2,15.3z"/>
		<polygon id="XMLID_315_" points="0.2,20.5 0.2,20.4 0.2,20.4 		"/>
		<path id="XMLID_314_" d="M0.3,16.3c0-0.2,0-0.4,0-0.5C0.2,16,0.2,16.2,0.3,16.3C0.3,16.4,0.3,16.4,0.3,16.3z"/>
		<path id="XMLID_313_" d="M0.1,18.4c0-0.1,0-0.3,0.1-0.4C0.1,18.1,0.1,18.3,0.1,18.4z"/>
		<path id="XMLID_312_" d="M0.2,15.5L0.2,15.5C0.1,15.5,0.1,15.5,0.2,15.5z"/>
		<path id="XMLID_311_" d="M0.2,15.5c0,0.1,0,0.2,0.1,0.3C0.2,15.6,0.2,15.5,0.2,15.5C0.2,15.4,0.2,15.4,0.2,15.5z"/>
		<path id="XMLID_310_" d="M1.1,21.3c-0.1,0-0.4-0.6-0.3-1.2c-0.1-0.5-0.4-0.2-0.6,0.3c0.1,0,0.1,0,0.2,0.6c0-0.2,0-1.4,0.1-0.9
			c0.1,0.8,0,0.7,0.1,1.1c0-0.2,0.1,0.1,0.3,0.3c0.2,0.2,0.3,0.4,0.4,0.3c0,0-0.3-0.6-0.3-0.6C1,21.3,1.1,21.5,1.1,21.3z"/>
		<path id="XMLID_309_" d="M0.2,19.3l0-0.2c0,0.3-0.1,0.5-0.1,0.8c0,0.4,0.1,0.5,0.1,0.5C0.2,20.3,0.2,19.2,0.2,19.3L0.2,19.3z"/>
		<path id="XMLID_308_" d="M0.2,18c0.1,0.2,0.2,0.7,0.3,0.4c0-0.7-0.1-0.5-0.1-0.9C0.4,18.6,0.3,17.2,0.2,18c0-0.2,0-0.4,0-0.6
			C0.2,17.6,0.2,17.8,0.2,18L0.2,18L0.2,18L0.2,18C0.2,17.9,0.2,17.9,0.2,18C0.2,17.9,0.2,17.9,0.2,18C0.2,18,0.2,18,0.2,18
			C0.2,18.3,0.2,18,0.2,18C0.2,17.9,0.2,17.9,0.2,18L0.2,18l0,1.1C0.2,18.8,0.2,18.5,0.2,18z"/>
		<path id="XMLID_307_" d="M0.8,12.4C0.8,12.4,0.8,12.4,0.8,12.4C0.8,12.5,0.8,12.5,0.8,12.4z"/>
		<path id="XMLID_306_" d="M0.7,12.9c0-0.1-0.1-0.1,0-0.4c0-0.2,0.1,0,0.1,0c0-0.2-0.1-0.6-0.1-0.1l0,0.1c0,0.4-0.2,1-0.2,0.9
			C0.5,13.3,0.6,13.2,0.7,12.9z"/>
		<path id="XMLID_305_" d="M0.5,15.5l0.1,0.9l0.1-0.5l-0.1,0C0.6,15.4,0.5,15.5,0.5,15.5z"/>
		<path id="XMLID_304_" d="M0.2,20.6l-0.1-0.1c0,0,0.2,0.6,0.3,0.6C0.3,21.1,0.2,20.6,0.2,20.6z"/>
		<path id="XMLID_303_" d="M0.6,22l-0.1,0c0,0,0.2,0.3,0.2,0.3C0.7,22.3,0.6,22,0.6,22z"/>
		<path id="XMLID_302_" d="M58.2,12.5l0-0.3C58.2,12.4,58.2,12.5,58.2,12.5z"/>
		<path id="XMLID_301_" d="M58.2,14.5L58.2,14.5C58.2,14.4,58.2,14.4,58.2,14.5z"/>
		<path id="XMLID_300_" d="M30,24.3c0.4,0.1,0.8,0.2,0.8,0.1l-0.1-0.1C30.4,24.4,30.2,24.4,30,24.3z"/>
		<path id="XMLID_299_" d="M50.3,23.7l-0.1,0c-0.1,0-0.2,0.1-0.3,0.1C50,23.7,50.2,23.7,50.3,23.7z"/>
		<path id="XMLID_298_" d="M50.6,23.2l0.5,0.1C51,23.3,50.8,23.3,50.6,23.2z"/>
		<path id="XMLID_297_" d="M57.4,2.4c0,0-0.3-0.1-0.3-0.1C57.4,2.6,57.3,2.4,57.4,2.4z"/>
		<path id="XMLID_296_" d="M12.7,24.3c0.3,0,0.6,0.1,0.9,0.1C13.2,24.3,12.8,24.2,12.7,24.3z"/>
		<path id="XMLID_295_" d="M59.4,13.3c0-0.2,0-0.2-0.1-0.2C59.3,13.2,59.3,13.3,59.4,13.3z"/>
		<path id="XMLID_294_" d="M14.6,24.4c-0.1,0-0.1,0-0.2,0c-0.3,0-0.5,0-0.8,0C13.9,24.4,14.2,24.5,14.6,24.4z"/>
		<path id="XMLID_195_" d="M19.1,1.4L19.1,1.4C19,1.4,19.1,1.4,19.1,1.4z"/>
		<path id="XMLID_100_" d="M7.7,0.3c0.1,0,0.3,0,0.5,0C8.1,0.3,8,0.3,7.7,0.3z"/>
		<path id="XMLID_99_" d="M5.2,24.4C5,24.4,5.2,24.4,5.2,24.4L5.2,24.4z"/>
		<path id="XMLID_98_" d="M4,23.9c0.1,0,0.1,0,0.1,0C4,23.9,4,23.9,4,23.9z"/>
		<path id="XMLID_97_" d="M17.1,23.7L17.1,23.7C17.1,23.7,17.1,23.7,17.1,23.7z"/>
		<path id="XMLID_96_" d="M4.8,24.3c0.1,0,0.2,0,0.3,0C5.1,24.4,5,24.4,4.8,24.3z"/>
		<path id="XMLID_95_" d="M4.9,24.4c-0.1,0-0.2,0-0.2,0C4.6,24.4,4.7,24.4,4.9,24.4z"/>
		<path id="XMLID_94_" d="M5.6,24.4c-0.1,0-0.3,0-0.4,0c0.1,0,0.1,0,0.1,0C5.3,24.4,5.4,24.4,5.6,24.4z"/>
		<path id="XMLID_93_" d="M40.1,1.1C40.1,1.1,40,1.1,40.1,1.1C39.8,1.1,39.9,1.1,40.1,1.1z"/>
		<polygon id="XMLID_92_" points="36.7,23.2 36.6,23.2 36.7,23.2 		"/>
		<path id="XMLID_91_" d="M37.6,23.1c-0.4,0.1-0.6,0.1-0.9,0.1l0.3,0.3L37.6,23.1z"/>
		<path id="XMLID_84_" d="M58.2,7.8l-0.1,0.6c-0.2-0.8-0.1-1.3-0.2-0.7c0.3,0.1,0,2.5,0.4,2.6l-0.1,0.4c0-0.1,0-0.1,0-0.3
			c-0.2,0.8,0.2,0.6,0.2,1.7c0,0.4-0.1,0.6-0.1,0.4l0.1,0.8c0,0.2-0.1,0.2-0.1-0.1l0,1.3l0,0c0.1,0.2,0.1,0.6,0.2,0.8
			c0,0.3,0-0.2-0.1-0.1l0.1,0.7c-0.1,0.3-0.2-0.3-0.2-0.8c-0.3,0.7,0.1,0.6-0.1,2l0-0.7c-0.2,0.4-0.1,0.9-0.2,1.7
			c0.1-0.2,0.3-1.5,0.4-0.7c0,0.2,0,0.5,0,0.9c-0.1,0-0.1,0.4-0.1,0.9l-0.2,0c0,0.5,0.1,0.5,0.2,0.8c0,0.5-0.2,0.6-0.3,0.7
			c-0.2,0.7,0.3-0.5,0.1,0.4c-0.3,0.6-0.5,1-1.1,1.6c-0.4,0.2,0-0.1-0.2-0.1c0,0-0.3,0.3-0.3,0.3c-0.1,0-0.1,0-0.1,0
			c-0.3,0.2,0,0.2-0.5,0.4c-0.1,0.1-0.4,0.1-0.8,0c-0.4-0.1-0.9-0.1-1.3,0c-0.2,0,0.1-0.1,0-0.2c-1.1,0.1-1,0.1-1.9,0.3l-0.8-0.1
			c0.6,0.1-0.2,0.3-0.8,0.4c0.2,0.1,0.4,0.1,0.5,0.1l-1,0.1c-0.1,0,0-0.1,0.1-0.1c-0.1,0-0.1,0-0.2,0c-0.4-0.1-0.2-0.2,0.1-0.2
			c0.1,0,0.2,0.1,0.4,0.1c0.3-0.1,0.5-0.2,0.4-0.3c-0.1,0-0.2,0-0.3,0c0.1,0,0.1,0,0.1-0.1c0,0-0.1,0-0.3,0.1l-0.2-0.2l-0.1,0.1
			l-1.3-0.1c-1,0.2-1.8,0.4-3.3,0.5c0.4-0.1,0.1-0.2,0.1-0.4c0.4,0.2,1.2-0.1,2,0c-0.4,0-0.3-0.1-0.2-0.1l-1.4,0.1
			c0-0.1-0.3-0.1-0.7-0.1c0.3,0.3-1.1,0.2-1.6,0.2c0-0.1,0.1-0.2,0.8-0.1c-0.8-0.2-1,0.3-1.8,0.1c0.2,0,0.3,0,0.3,0
			c-0.4,0.1-1.4,0-1.1-0.1l0.2,0c-1.1,0-3.5,0-3.6,0.2c0,0,0.1-0.3,0.2-0.3l-2,0.7c0.2-0.2-0.5-0.6,0.4-0.7c-0.3,0-0.6-0.1-1.2,0
			c0.2,0,0.5,0.3,0.2,0.3c-0.7-0.2-0.5-0.1-1.3-0.3c0.3,0,0,0.3-0.5,0.3c0.1,0,0-0.3,0.1-0.3l-1.1,0.3c0.3-0.1,0-0.2-0.2-0.3
			c0.1,0.1-0.9,0-1.2,0l0.5,0.1c-1.2,0-1.2,0.4-2.4,0.4c0.1-0.1,0.4-0.4-0.3-0.4C29,23.4,28,24,26.9,24.1L26.7,24l-0.8,0.1
			c0.5-0.2,2-0.7,2.8-0.8c-0.5-0.1-0.1-0.1-0.8-0.1c-0.2-0.1,0.4-0.1,0.6-0.1l-1.6,0c0.1,0.2-1.2,0.2-1.2,0.3l1.7-0.2
			c0.1,0.2-1,0.5-2.1,0.4c-0.3-0.1,0.2-0.3,0.2-0.4c-0.1,0.1-1.1,0.1-1.2,0.1l0.5-0.1c-0.6-0.1-1,0.2-1.8,0.1
			c-0.3,0-0.8-0.2-0.8-0.1c0.4,0.2,0.5,0.8,0.2,0.9c-0.1,0-1.4-0.2-1.7-0.3c-0.4-0.2,0.6-0.4,0.3-0.5c0,0-0.3,0.1-0.4,0.1
			c-0.3,0,0.1-0.1-0.5-0.1c-0.1,0.2-1.2,0-0.3,0.1c-0.6,0-0.6,0-1.3,0c0.2,0.1-0.6,0.4-1.2,0.4c0,0-0.1-0.1-0.2-0.1
			c-1.2,0-1.8-0.1-3-0.1c-0.1,0-0.6-0.1-0.4-0.2c-0.2,0-0.3,0.1-0.7,0.1c-0.7-0.1,0.8,0,0.3-0.2c0,0.1-0.9,0.1-1.4,0.2
			c0.2,0.2,1.1,0,1.6,0c0,0.2-0.9,0.4-2,0.5c-0.9,0.1-0.4-0.1-0.6-0.1c-1.7,0-1.5,0.4-2.9,0.2c-0.6-0.1,0-0.3-0.2-0.4
			c0.8-0.1,1.2,0.1,1.7,0.1L9,23.8c0.2,0,0.7-0.1,1,0c-0.5-0.1-3,0-4.3-0.1c-0.2,0-0.7,0.1-0.5,0.1l0.4,0c0.4,0.1-0.8,0.1-0.3,0.2
			c-0.3,0-0.6,0.1-0.9,0.1c-0.3,0-0.8,0-1.2-0.1l-0.1-0.2c0,0.1,0.5,0.2,0.8,0.2c-0.4,0.1-1.2-0.5-1.6-0.6c0,0,0.5,0.4,0.5,0.4
			c-0.6-0.2-1.4-0.5-1.8-1.3c0.1,0.4,0.1,0.1,0.4,0.7c-0.1-0.3,0.3,0.1,0.7,0.4c0.4,0.3,0.8,0.4,0.5,0.2c0.5,0.4,0.9,0.5,1.7,0.7
			c0-0.1-0.2-0.1,0.4-0.1c0,0,0.1,0,0.1,0c0,0,0,0,0,0l0,0c0,0,0,0,0,0c-0.1,0-0.3,0-0.3-0.1c0.3-0.1,1.2-0.1,1.6-0.2
			c0.4,0-0.1,0.1,0,0.1l0.5-0.1c0,0.1,0.9,0.2,0.1,0.3l0.8,0c0.4,0.1,1.1,0.1,1.4,0c0.4,0,0.9-0.1,0.6,0l1.2-0.1l0,0
			c1.2,0,2.4-0.2,3.7,0c0.4,0,0.8-0.1,1.5,0l0.1,0.1c0.5,0,1.5,0.1,1.7,0c0.5,0.3,2.4,0.1,3.3,0.1l0-0.1c0.6,0,1.2,0,2-0.1l0-0.1
			c0.7-0.1,1.7,0.1,2.7,0.1c-0.1,0-0.3,0-0.5,0c1.2,0.3,2.6-0.2,3.7,0c0.3,0,0.5,0,0.7,0c0,0,0,0-0.1,0c0,0,0.1,0,0.1,0
			c0.1,0,0.3,0,0.4,0.1c-0.1,0-0.2,0-0.3-0.1c0.2,0,0.5,0,0.9,0l0.1,0.1c0,0,0,0,0.1,0c0.3,0,0.3-0.1,0.1-0.1c0.2,0,0.3,0,0.4-0.1
			c0.3,0.2,0.8-0.1,1.2,0.1c0.2-0.1,1.6-0.1,1.8-0.3c0,0,0.1,0-0.1,0c0.4,0,0.7,0,1,0l0.2,0.2l0.8-0.2c0.5,0.1,0.7,0.1,0.2,0.3
			c1.1-0.2,0.9-0.1,1.9-0.2l0,0.1c0.3,0,0.9-0.1,1.1-0.1c0.8,0.2,3.8,0,5.8,0.2c-0.4-0.3,0.9,0.1,1-0.1c0.1,0.1,0.4,0.1,0.1,0.2
			c1-0.1,1.5,0.1,2.2-0.1c0.1,0.1-0.2,0.1-0.1,0.1c0.1,0,0.3-0.1,0.4,0c0.1,0-0.1,0.1-0.3,0.1c1,0,1.1-0.2,1.2-0.4
			c0.5,0.1,0.8,0.1,1.2,0c0.2,0.1,0.5,0.1-0.2,0.2c0.4,0,2.2,0.1,2.2-0.1c0.1,0,0.5,0,0.6,0c0.8,0,0.9,0,1.7,0l-0.2,0
			c0.3-0.2,0.7,0,1.4-0.2l0,0c0.8-0.2,0.9-0.3,1.1-0.4c0.1-0.1,0.3-0.2,0.9-0.7l-0.1,0c0-0.1,0.2-0.3,0.5-0.7
			c0.3-0.3,0.5-0.8,0.6-1.3c0,0-0.1,0.3-0.1,0.3c0-0.2,0.2-0.6,0.3-0.9c0.1-0.3,0.2-0.6,0.2-0.9c0-0.1,0,0.2,0.1,0.3
			c0.2-1.2-0.2-0.2-0.2-1.1c0.1-0.2,0.2,0.2,0.2-0.4c0.1-0.3-0.3-1.8-0.1-2.6c-0.1,0.2-0.1,0.4-0.2-0.1c0-0.6,0.2-1.7,0-2.3
			c0-0.1,0-0.1,0.1-0.1c-0.1-0.5-0.1-1.6-0.2-1.9c0.4-0.5-0.2-3,0.2-3l0-1.5l0,0c0-1-0.1-1.3-0.2-1.6c0-0.2,0.1-0.1,0.1,0
			c0-0.7,0-1.2-0.1-1.5c-0.1-0.4-0.3-0.7-0.7-1.2l0-0.2c-0.1-0.1-0.4-0.6-1-1.1c-0.6-0.4-1.4-0.8-2.2-0.7c0,0,0,0,0.2,0
			c-1.6,0.1-3.7-0.3-4.3,0.1l-1,0.1c1.3,0-0.2,0.2,0.3,0.3c-0.5,0-1.3-0.1-0.7-0.2l0.1,0c0.2-0.2-1.6-0.1-1.6-0.2
			c-2.6,0-5.2-0.1-7.6-0.1l0.3,0.2l-0.9,0c-0.2,0-0.3-0.1,0.3-0.1c-0.3-0.1-1,0.1-1,0.1c-1.2-0.1,0.5-0.2,0.1-0.2l-0.5,0l0.1,0
			c-0.4,0.1-0.4,0.2-1.2,0.1c-0.5,0-0.2-0.1-0.4-0.1c0,0-0.1,0-0.3,0l-1.1,0l0.4,0.1c-0.5,0.1-1,0-0.5,0.2c-0.7-0.3-4-0.1-4.5-0.2
			c-0.7,0.1-1.3,0.1-2.1,0.1c0.2,0,0.3,0.2-0.4,0.2c0.3-0.3-1.3-0.1-1.9-0.4c0.5,0.2-2,0-1.2,0.3c-0.6,0,0-0.1-0.5-0.2
			c-1.4,0.1-3.1-0.1-4.8,0c0,0,0.3,0.1-0.1,0.2l-0.9-0.2c-0.3,0-0.3,0.3-0.9,0.1c0.1,0,0.2,0.1,0,0.1c-3.4-0.2-6.9,0.2-10.3-0.2
			c0.5,0.1,0.2,0.1-0.2,0.1c0.2,0,0,0.1,0,0.2L6.8,0.3c-0.3,0.2-1.5,0-1.7,0.2l0.5,0C5,0.6,6.4,0.8,6.3,1.1c0.7-0.2,1.8,0.3,2.9,0
			c0.2,0-0.2,0.1-0.1,0.1c0.3-0.1,0.6-0.1,1.3-0.1l-0.1,0c1.8,0,2.5,0.1,4.5,0.1l-0.1-0.1c0.4,0,0.5,0.1,0.7,0.1
			c0.5-0.2-1.2,0-0.8-0.2c0.6,0.2,3,0,3.4,0.3c0.7,0-0.2-0.1,0.5-0.1l0.2,0.1l0.2-0.1c0.4,0,0.6,0.1,0.7,0.2c-0.1,0-0.3,0-0.4,0
			c0.6,0.1,1.6,0,1.8,0l-0.6,0c1.8-0.1,4,0,5.7-0.1l-0.1-0.1c1.3-0.1,1.1,0.1,2.5,0l-0.1,0c0.3-0.1,0.7-0.1,1.1-0.1
			c-0.4,0.1,0.7,0.1,0.2,0.2C31,1.2,30.3,1.2,31.3,1l0.2,0.1C31.8,1,31.8,1,32.6,0.9C32,1,33,1.1,32.4,1.2c1.5,0.2,2.3-0.2,3,0.1
			C36,1,34,1.1,34.4,1.1C34.1,1,35,0.9,35.4,0.9c0.5,0,0.8,0.3,2.1,0.3c-0.1,0-0.1,0-0.3,0c0.5,0.1,0.9-0.1,1.5,0
			c0.3-0.2,0.7,0,0.8-0.2l-1.1,0C39,1.1,39.6,0.8,40.7,1c-0.1,0-0.4,0.1-0.6,0.1c0.3,0.1,0.6,0,0.9,0c-0.1,0.2-1.4,0-2,0.2
			c0.3,0.1,1.3-0.1,0.9,0.1c0.5-0.3,1.2,0,2-0.2l-0.1,0.1c0.1,0,0.4-0.1,0.6-0.1l-0.4,0.2c0.7-0.1,1.3,0.1,1.9,0
			c-1.3,0-0.3-0.1-0.9-0.2c1.7-0.2,1,0.3,2.8,0.3c-0.3,0-0.9-0.1-0.6-0.1c0.4,0,0.8,0.1,1,0.1c1.2,0-0.2-0.1,0.3-0.2
			c0.4,0.1,0.6-0.1,1.1-0.1l0,0.1c1.4,0.1,0.4-0.3,1.6-0.2L49,1.3l0.7,0l-0.1,0.1c0.7-0.1,0.9-0.1,1.6,0c-0.2-0.1,0.1-0.2,0.7-0.2
			c0.4,0.1-0.2,0.1,0.6,0.1c-0.2,0.1-0.4,0.2-0.8,0.1c0,0-0.2,0.1-0.2,0.1c0.5,0.1,1.1,0,1.5,0c-0.1,0-0.3,0-0.3,0l1.3-0.2
			c0.2,0,0,0.1-0.1,0.1c0.3,0,0.4-0.1,0.8-0.1c-0.1,0.1-0.1,0.2-0.6,0.2l1.2-0.1c0.1,0,0.5,0.2,0.4,0.2c0.5,0.1,1.3,0.2,1.8,0.9
			c0,0,0.1,0.1,0.2,0.2c0.2,0.3,0.3,0.6,0.4,0.9c0,0.2,0.1,0.3,0.1,0.5c0,0.2,0,0.4,0.1,0.6L58,5.2c0,0.8,0.2-0.8,0.3,0.5
			c0.1,0.9-0.1,0.3-0.2,0.7c0.1,0.5,0.3,1.3,0.1,2.1C58.2,8.3,58.2,8,58.2,7.8z M58.3,17.4c0-0.2-0.1-0.6,0-0.7
			C58.4,16.9,58.3,17.1,58.3,17.4z M48.9,23.5c0.1,0,0.4,0,0.6,0C49.3,23.5,49.1,23.5,48.9,23.5z M8,24.3L8,24.3
			C8.5,24.3,8.3,24.3,8,24.3z M7.2,24.2C7.1,24.3,7.1,24.3,7.2,24.2c0,0,0.2,0,0.4,0C7.5,24.2,7.4,24.2,7.2,24.2z M37.3,0.3l0.2,0
			C37.1,0.3,37.2,0.3,37.3,0.3z"/>
		<path id="XMLID_83_" d="M50.5,23.3C50.6,23.3,50.6,23.3,50.5,23.3C50.7,23.3,50.7,23.3,50.5,23.3z"/>
		<path id="XMLID_82_" d="M57.4,2.5L57.4,2.5C57.4,2.4,57.4,2.4,57.4,2.5L57.4,2.5z"/>
		<path id="XMLID_81_" d="M20.6,23.2c0.2,0,0.3,0,0.3,0.1C20.9,23.3,20.9,23.2,20.6,23.2z"/>
		<path id="XMLID_80_" d="M2.3,23.9c0,0,0.6,0.3,0.6,0.2C2.6,24,2.5,24,2.3,23.9C2.4,23.9,2.5,24,2.3,23.9z"/>
		<path id="XMLID_79_" d="M0.8,19.1c0-0.1,0-0.2,0-0.3l-0.1,0C0.7,19.2,0.8,19.5,0.8,19.1z"/>
		<path id="XMLID_78_" d="M2,23.2c0-0.1-0.3-0.3-0.6-0.6l0,0.1C1.3,22.7,1.6,23,2,23.2z"/>
		<path id="XMLID_77_" d="M1.4,22.6c-0.1-0.1-0.2-0.2-0.2-0.3C1.1,22.2,1.2,22.4,1.4,22.6z"/>
		<path id="XMLID_76_" d="M6.1,24.3c-0.2,0-0.1,0.1-0.2,0.1C5.6,24.5,7.1,24.2,6.1,24.3z"/>
		<path id="XMLID_75_" d="M2,22.8L2,23C2,23,2.3,23,2.3,23C2.2,23,2,22.8,2,22.8z"/>
		<path id="XMLID_74_" d="M4.8,23.8c0,0-0.2,0-0.3,0c-0.2,0-0.3,0-0.3,0c0,0-0.1,0-0.2,0C4.4,23.8,4.8,23.8,4.8,23.8z"/>
		<path id="XMLID_73_" d="M4,23.8c-0.2,0-0.4-0.1-0.5-0.1C3.6,23.8,3.9,23.8,4,23.8z"/>
		<path id="XMLID_72_" d="M2.7,23.2l0.2,0.1c0,0,0.1,0,0.2,0.1c0.1,0,0.2,0.1,0.2,0.1C3.2,23.5,2.7,23.2,2.7,23.2z"/>
		<path id="XMLID_71_" d="M11.5,23.8l0.7,0c0.1,0-0.1-0.1-0.4-0.1C11.6,23.8,11.4,23.8,11.5,23.8z"/>
		<path id="XMLID_70_" d="M9.4,23.5c0.2,0,0.2,0.1,0.3,0.1l0-0.2L9.4,23.5z"/>
		<path id="XMLID_69_" d="M11.4,23.5c0.1,0,1-0.1,0.1-0.1C11.5,23.4,10.8,23.4,11.4,23.5z"/>
		<polygon id="XMLID_68_" points="21.6,23.7 21.5,23.7 21.5,23.9 		"/>
		<path id="XMLID_67_" d="M30.6,23c-0.8-0.1-0.2,0.2-0.9,0.1c-0.2,0.1,0.6,0.1,0.4,0.1C30.6,23.2,30.8,23.2,30.6,23z"/>
		<path id="XMLID_66_" d="M30.1,23.2c-0.1,0-0.2,0-0.2,0C30,23.3,30.1,23.2,30.1,23.2z"/>
		<polygon id="XMLID_65_" points="5.8,0.1 5.3,0.1 5.6,0.2 		"/>
		<path id="XMLID_64_" d="M4.8,0.3L4.7,0.2L4.4,0.3C4.5,0.3,4.8,0.3,4.8,0.3z"/>
		<path id="XMLID_63_" d="M57.9,18.9L57.9,18.9c0.1,0,0.1-0.2,0.1-0.4L57.9,18.9z"/>
		<polygon id="XMLID_62_" points="58.1,11.9 58.1,12 58.2,11.8 		"/>
		<path id="XMLID_61_" d="M57.9,6c0,0.2,0,0.5,0,0.8C57.9,6.2,58.1,5.9,57.9,6z"/>
	</g>
</g>
</svg>
