<?xml version="1.0" encoding="utf-8"?>
<!-- Generator: Adobe Illustrator 19.0.0, SVG Export Plug-In . SVG Version: 6.00 Build 0)  -->
<svg version="1.1" id="Layer_1" xmlns="http://www.w3.org/2000/svg" xmlns:xlink="http://www.w3.org/1999/xlink" x="0px" y="0px"
	 viewBox="-275 384.5 59.8 24.5" style="enable-background:new -275 384.5 59.8 24.5;" xml:space="preserve">
<style type="text/css">
	.st0{fill:#3C8587;}
	.st1{fill:#303333;}
</style>
<g id="XMLID_270_">
	<g id="XMLID_57_">
		<path id="XMLID_58_" class="st0" d="M-219.8,408.2h-50.8c-2,0-3.6-1.6-3.6-3.6v-15.8c0-2,1.6-3.6,3.6-3.6h50.8
			c2,0,3.6,1.6,3.6,3.6v15.8C-216.2,406.6-217.8,408.2-219.8,408.2z"/>
		<g id="XMLID_55_">
			<path id="XMLID_187_" class="st1" d="M-219.6,408.8c-0.3,0-0.2,0.1-0.2,0.1C-219.3,408.9-219.6,408.8-219.6,408.8z"/>
			<path id="XMLID_186_" class="st1" d="M-216.2,406.4L-216.2,406.4c0,0.1,0.2-0.5,0.2-0.5C-216.1,405.9-216.2,406.4-216.2,406.4z"
				/>
			<path id="XMLID_185_" class="st1" d="M-215.8,402.7c-0.2,0.3,0,1.3,0,1.9v0.1l0.1,0.3C-215.7,404.2-215.9,403.3-215.8,402.7z"/>
			<path id="XMLID_184_" class="st1" d="M-215.4,400.8c-0.1,0.1-0.1-0.4,0,0.4v-0.1C-215.4,401.1-215.4,401-215.4,400.8z"/>
			<path id="XMLID_183_" class="st1" d="M-215.4,401.2C-215.4,401.6-215.4,401-215.4,401.2L-215.4,401.2z"/>
			<path id="XMLID_182_" class="st1" d="M-215.5,399.5l0.1,0.5c0-0.1,0.1-0.5,0.1-0.4C-215.4,399.1-215.4,399.2-215.5,399.5z"/>
			<path id="XMLID_181_" class="st1" d="M-215.6,399v0.3C-215.6,399.2-215.6,399.2-215.6,399z"/>
			<path id="XMLID_180_" class="st1" d="M-215.5,399.8l-0.1-0.5c0,0.1-0.1,0.1,0,0.2C-215.6,399.5-215.6,399.6-215.5,399.8z"/>
			<path id="XMLID_179_" class="st1" d="M-215.6,400.1c0,0.3-0.1,0.6-0.1,0.1C-215.7,401.2-215.5,401.1-215.6,400.1z"/>
			<path id="XMLID_178_" class="st1" d="M-216,402.6l-0.1,0.4l0.1,0.3C-216,403.1-215.9,402.5-216,402.6z"/>
			<path id="XMLID_177_" class="st1" d="M-215.4,396.4l-0.1,0.2v0.4C-215.5,396.8-215.4,396.4-215.4,396.4z"/>
			<path id="XMLID_176_" class="st1" d="M-215.5,396.6l-0.1-0.5C-215.6,396.6-215.6,396.6-215.5,396.6z"/>
			<polygon id="XMLID_175_" class="st1" points="-215.8,398.9 -215.7,399.8 -215.8,398.8 			"/>
			<polygon id="XMLID_174_" class="st1" points="-215.4,394.3 -215.3,394.6 -215.4,394.1 			"/>
			<path id="XMLID_173_" class="st1" d="M-215.4,393c0.1,0.2,0.1-0.3,0.2-0.1c0-0.4-0.1-0.7-0.1-1
				C-215.3,392.2-215.3,392.5-215.4,393z"/>
			<path id="XMLID_172_" class="st1" d="M-215.4,391.4c0,0.2,0,0.3,0.1,0.5C-215.4,391.7-215.4,391.6-215.4,391.4z"/>
			<path id="XMLID_171_" class="st1" d="M-215.6,395.1c0,0,0.1-0.1,0.1-0.4l-0.1,0.2C-215.6,395-215.6,395.1-215.6,395.1z"/>
			<path id="XMLID_170_" class="st1" d="M-215.6,394.9L-215.6,394.9c0-0.2,0-0.4,0-0.5C-215.6,394.5-215.6,394.7-215.6,394.9z"/>
			<path id="XMLID_169_" class="st1" d="M-215.6,395.2L-215.6,395.2L-215.6,395.2z"/>
			<path id="XMLID_168_" class="st1" d="M-215.7,397.5c-0.1-0.3-0.1-1-0.2-0.3C-215.9,397.4-215.8,397-215.7,397.5z"/>
			<path id="XMLID_167_" class="st1" d="M-215.7,395.5v0.6c0,0,0.1-0.1,0.1,0L-215.7,395.5z"/>
			<polygon id="XMLID_166_" class="st1" points="-215.7,395.2 -215.7,395.5 -215.7,395.3 			"/>
			<path id="XMLID_165_" class="st1" d="M-215.5,392.4c0-0.2-0.1-0.5-0.1-0.8c0,0.3,0,0.7,0,1C-215.6,392.6-215.5,392.8-215.5,392.4
				z"/>
			<path id="XMLID_164_" class="st1" d="M-215.6,393.6L-215.6,393.6L-215.6,393.6z"/>
			<polygon id="XMLID_163_" class="st1" points="-215.6,388.5 -215.6,388.6 -215.6,388.6 			"/>
			<path id="XMLID_162_" class="st1" d="M-215.7,392.6c0,0.2,0,0.4,0,0.5C-215.6,393-215.6,392.8-215.7,392.6
				C-215.6,392.6-215.7,392.6-215.7,392.6z"/>
			<path id="XMLID_161_" class="st1" d="M-215.5,390.6c0,0.1,0,0.3-0.1,0.4C-215.5,390.9-215.5,390.6-215.5,390.6z"/>
			<path id="XMLID_160_" class="st1" d="M-215.5,393.5L-215.5,393.5L-215.5,393.5z"/>
			<path id="XMLID_159_" class="st1" d="M-215.5,393.5c0-0.1,0-0.2-0.1-0.3C-215.6,393.3-215.6,393.5-215.5,393.5
				C-215.6,393.6-215.6,393.5-215.5,393.5z"/>
			<path id="XMLID_158_" class="st1" d="M-216.5,387.7c0.1,0,0.4,0.6,0.3,1.2c0.1,0.5,0.4,0.2,0.6-0.3c-0.1,0-0.1,0-0.2-0.6
				c0,0.2,0,1.4-0.1,0.9c-0.1-0.8,0-0.7-0.1-1.1c0,0.2-0.1-0.1-0.3-0.3s-0.3-0.4-0.4-0.3l0.3,0.6
				C-216.4,387.7-216.5,387.5-216.5,387.7z"/>
			<path id="XMLID_157_" class="st1" d="M-215.6,389.7v0.2c0-0.3,0.1-0.5,0.1-0.8c0-0.4-0.1-0.5-0.1-0.5S-215.6,389.8-215.6,389.7
				L-215.6,389.7z"/>
			<path id="XMLID_156_" class="st1" d="M-215.6,391c-0.1-0.2-0.2-0.7-0.3-0.4c0,0.7,0.1,0.5,0.1,0.9
				C-215.8,390.4-215.7,391.8-215.6,391c0,0.2,0,0.4,0,0.6C-215.6,391.4-215.6,391.2-215.6,391L-215.6,391L-215.6,391L-215.6,391
				C-215.6,391.1-215.6,391.1-215.6,391L-215.6,391L-215.6,391C-215.6,390.6-215.6,390.9-215.6,391L-215.6,391L-215.6,391v-1.1
				C-215.6,390.2-215.6,390.4-215.6,391z"/>
			<path id="XMLID_155_" class="st1" d="M-216.2,396.6C-216.1,396.5-216.1,396.5-216.2,396.6C-216.1,396.5-216.2,396.4-216.2,396.6z
				"/>
			<path id="XMLID_154_" class="st1" d="M-216.1,396.1c0,0.1,0.1,0.1,0,0.4c0,0.2-0.1,0-0.1,0c0,0.2,0.1,0.6,0.1,0.1v-0.1
				c0-0.4,0.2-1,0.2-0.9S-216,395.8-216.1,396.1z"/>
			<path id="XMLID_153_" class="st1" d="M-215.9,393.5l-0.1-0.9v0.5h0.1C-216,393.6-215.9,393.4-215.9,393.5z"/>
			<path id="XMLID_152_" class="st1" d="M-215.6,388.4l0.2,0.1c0,0-0.2-0.6-0.3-0.6L-215.6,388.4z"/>
			<path id="XMLID_151_" class="st1" d="M-216,387h0.1l-0.2-0.3C-216.1,386.7-216,387-216,387z"/>
			<path id="XMLID_150_" class="st1" d="M-273.6,396.4v0.3C-273.6,396.6-273.6,396.5-273.6,396.4z"/>
			<path id="XMLID_149_" class="st1" d="M-273.6,394.5L-273.6,394.5C-273.6,394.5-273.6,394.6-273.6,394.5z"/>
			<path id="XMLID_148_" class="st1" d="M-245.4,384.6c-0.4-0.1-0.8-0.2-0.8-0.1l0.1,0.1C-245.8,384.6-245.6,384.6-245.4,384.6z"/>
			<path id="XMLID_147_" class="st1" d="M-265.7,385.3h0.1c0.1,0,0.2-0.1,0.3-0.1C-265.4,385.2-265.5,385.2-265.7,385.3z"/>
			<path id="XMLID_146_" class="st1" d="M-266,385.7h-0.5C-266.4,385.7-266.2,385.7-266,385.7z"/>
			<path id="XMLID_145_" class="st1" d="M-272.7,406.5l0.3,0.1C-272.8,406.4-272.7,406.5-272.7,406.5z"/>
			<path id="XMLID_144_" class="st1" d="M-228.1,384.7c-0.3,0-0.6-0.1-0.9-0.1C-228.6,384.7-228.2,384.7-228.1,384.7z"/>
			<path id="XMLID_143_" class="st1" d="M-274.8,395.7c0,0.2,0,0.2,0.1,0.2C-274.7,395.7-274.7,395.6-274.8,395.7z"/>
			<path id="XMLID_142_" class="st1" d="M-230,384.6c0.1,0,0.1,0,0.2,0c0.3,0,0.5,0,0.8,0C-229.3,384.5-229.6,384.5-230,384.6z"/>
			<path id="XMLID_141_" class="st1" d="M-234.5,407.6L-234.5,407.6C-234.4,407.6-234.4,407.6-234.5,407.6z"/>
			<path id="XMLID_140_" class="st1" d="M-223.1,408.7c-0.1,0-0.3,0-0.5,0C-223.5,408.7-223.3,408.7-223.1,408.7z"/>
			<path id="XMLID_139_" class="st1" d="M-220.6,384.6C-220.4,384.6-220.6,384.6-220.6,384.6L-220.6,384.6z"/>
			<path id="XMLID_138_" class="st1" d="M-219.3,385C-219.4,385-219.4,385-219.3,385C-219.4,385-219.4,385-219.3,385z"/>
			<path id="XMLID_137_" class="st1" d="M-232.5,385.3L-232.5,385.3L-232.5,385.3z"/>
			<path id="XMLID_136_" class="st1" d="M-220.2,384.6c-0.1,0-0.2,0-0.3,0C-220.5,384.6-220.4,384.6-220.2,384.6z"/>
			<path id="XMLID_135_" class="st1" d="M-220.3,384.6c0.1,0,0.2,0,0.2,0C-220,384.6-220.1,384.5-220.3,384.6z"/>
			<path id="XMLID_134_" class="st1" d="M-221,384.6c0.1,0,0.3,0,0.4,0c-0.1,0-0.1,0-0.1,0S-220.8,384.6-221,384.6z"/>
			<path id="XMLID_133_" class="st1" d="M-255.5,407.9C-255.4,407.9-255.4,407.9-255.5,407.9C-255.2,407.9-255.3,407.9-255.5,407.9z
				"/>
			<polygon id="XMLID_132_" class="st1" points="-252.1,385.8 -252,385.7 -252.1,385.7 			"/>
			<path id="XMLID_131_" class="st1" d="M-253,385.8c0.4-0.1,0.6-0.1,0.9-0.1l-0.3-0.3L-253,385.8z"/>
			<path id="XMLID_124_" class="st1" d="M-273.6,401.2l0.1-0.7c0.2,0.8,0.1,1.3,0.2,0.7c-0.3-0.1,0-2.5-0.4-2.6l0.1-0.4
				c0,0.1,0,0.1,0,0.3c0.2-0.8-0.2-0.6-0.2-1.7c0-0.4,0.1-0.6,0.1-0.4l-0.1-0.8c0-0.2,0.1-0.2,0.1,0.1v-1.3l0,0
				c0-0.2-0.1-0.6-0.1-0.8c0-0.3,0,0.2,0.1,0.1l-0.1-0.7c0.1-0.3,0.2,0.3,0.2,0.8c0.3-0.7-0.1-0.6,0.1-2v0.7c0.2-0.5,0.1-1,0.2-1.7
				c0,0.2-0.3,1.5-0.3,0.7c0-0.2,0-0.5,0-0.9c0.1,0,0.1-0.4,0.1-0.9h0.2c0-0.5-0.1-0.5-0.2-0.8c0-0.5,0.2-0.6,0.3-0.7
				c0.1-0.7-0.5,0.5-0.2-0.4c0.3-0.6,0.5-1,1.1-1.6c0.4-0.2,0,0.1,0.2,0.1l0.3-0.3c0.1,0,0.1,0,0.1,0c0.3-0.2,0-0.2,0.5-0.4
				c0.1-0.1,0.4-0.1,0.8,0s0.9,0.1,1.3,0c0.2,0-0.1,0.1,0,0.2c1.1-0.1,0.9-0.1,1.8-0.3l0.8,0.1c-0.6-0.1,0.2-0.2,0.8-0.3
				c-0.2-0.1-0.4-0.1-0.5-0.2l1-0.1c0.1,0,0,0.1-0.1,0.1c0.1,0,0.1,0,0.2,0c0.4,0.1,0.2,0.2-0.1,0.2c-0.1,0-0.2-0.1-0.4-0.1
				c-0.2,0.2-0.5,0.3-0.4,0.4c0.1,0,0.2,0,0.3,0c-0.1,0-0.1,0-0.1,0.1c0,0,0.1,0,0.3-0.1l0.2,0.2l0.1-0.1l1.3,0.1
				c1-0.2,1.8-0.4,3.3-0.5c-0.4,0.1-0.1,0.2-0.1,0.4c-0.4-0.2-1.2,0.1-2,0c0.4,0,0.3,0.1,0.2,0.1l1.4-0.1c0,0.1,0.3,0.1,0.7,0.1
				c-0.1-0.3,1.2-0.2,1.8-0.3c0,0.1-0.1,0.2-0.8,0.1c0.8,0.2,1-0.3,1.8-0.1c-0.2,0-0.3,0-0.3,0c0.4-0.1,1.4,0,1.1,0.1h-0.2
				c1.1,0,3.5,0,3.6-0.2c0,0-0.1,0.3-0.2,0.3l2-0.7c-0.2,0.2,0.5,0.6-0.4,0.7c0.3,0,0.6,0.1,1.2,0c-0.2,0-0.5-0.2-0.3-0.2
				c0.7,0.2,0.5,0.1,1.3,0.3c-0.3,0,0-0.3,0.5-0.3c-0.1,0,0,0.3-0.1,0.3l1.1-0.3c-0.3,0.1,0,0.2,0.2,0.3c-0.1-0.1,0.9,0,1.2,0
				l-0.5-0.1c1.2,0,1.2-0.4,2.4-0.4c-0.1,0.1-0.4,0.4,0.3,0.4c0.3-0.1,1.3-0.7,2.3-0.8l0.2,0.1l0.8-0.1c-0.5,0.2-2,0.7-2.8,0.8
				c0.5,0.1,0.1,0.1,0.8,0.1c0.2,0.1-0.4,0.1-0.6,0.1h1.6c-0.1-0.2,1.2-0.2,1.2-0.3l-1.7,0.2c-0.1-0.2,1-0.5,2.1-0.4
				c0.3,0.1-0.2,0.3-0.2,0.4c0.1-0.1,1.1-0.1,1.2-0.1l-0.5,0.1c0.6,0.1,1-0.2,1.8-0.1c0.3,0,0.8,0.2,0.8,0.1
				c-0.4-0.2-0.5-0.8-0.2-0.9c0.1,0,1.4,0.2,1.7,0.3c0.4,0.2-0.6,0.4-0.3,0.5c0,0,0.3-0.1,0.4-0.1c0.3,0-0.1,0.1,0.5,0.1
				c0.1-0.2,1.2,0,0.3-0.1c0.6,0,0.6,0,1.3,0c-0.2-0.1,0.6-0.4,1.2-0.4c0,0,0.1,0.1,0.2,0.1c1.2,0,1.8,0.1,3,0.1
				c0.1,0,0.6,0.1,0.4,0.2c0.2,0,0.3-0.1,0.7-0.1c0.7,0.1-0.8,0-0.3,0.2c0-0.1,0.9-0.1,1.4-0.2c-0.2-0.2-1.1,0-1.6,0
				c0-0.2,0.9-0.4,2-0.5c0.9-0.1,0.4,0.1,0.6,0.1c1.7,0,1.5-0.4,2.9-0.2c0.6,0.1,0,0.3,0.2,0.4c-0.8,0.1-1.2-0.1-1.7-0.1l0.6,0.1
				c-0.2,0-0.7,0.1-1,0c0.5,0.1,3,0,4.3,0.1c0.2,0,0.7-0.1,0.5-0.1h-0.4c-0.4-0.1,0.8-0.1,0.3-0.2c0.3,0,0.6-0.1,0.9-0.1
				c0.3,0,0.8,0,1.2,0.1l0.1,0.2c0-0.1-0.5-0.2-0.8-0.2c0.4-0.1,1.2,0.5,1.6,0.6l-0.5-0.4c0.6,0.2,1.4,0.5,1.8,1.3
				c-0.1-0.4-0.1-0.1-0.4-0.7c0.1,0.3-0.3-0.1-0.7-0.4s-0.8-0.4-0.5-0.2c-0.5-0.4-0.9-0.5-1.7-0.7c0,0.1,0.2,0.1-0.4,0.1h-0.1l0,0
				l0,0l0,0c0.1,0,0.3,0,0.3,0.1c-0.3,0.1-1.2,0.1-1.6,0.2c-0.4,0,0.1-0.1,0-0.1h-0.5c0-0.1-0.9-0.2-0.1-0.3h-0.8
				c-0.4-0.1-1.1-0.1-1.4,0c-0.4,0-0.9,0.1-0.6,0l-1.1,0.1l0,0c-1.2,0-2.4,0.2-3.7,0c-0.4,0-0.8,0.1-1.5,0l-0.2-0.2
				c-0.5,0-1.5-0.1-1.7,0c-0.5-0.3-2.4-0.1-3.3-0.1v0.1c-0.6,0-1.2,0-2,0.1v0.1c-0.6,0.2-1.6,0-2.7,0c0.1,0,0.3,0,0.5,0
				c-1.2-0.3-2.6,0.2-3.7,0c-0.3,0-0.5,0-0.7,0c0,0,0,0,0.1,0h-0.1c-0.1,0-0.3,0-0.4-0.1c0.1,0,0.2,0,0.3,0.1c-0.2,0-0.5,0-0.9,0
				l-0.1-0.1c0,0,0,0-0.1,0c-0.3,0-0.3,0.1-0.1,0.1c-0.2,0-0.3,0-0.4,0.1c-0.3-0.2-0.8,0.1-1.2-0.1c-0.2,0.1-1.6,0.1-1.8,0.3
				c0,0-0.1,0,0.1,0c-0.4,0-0.7,0-1,0l-0.2-0.2l-0.8,0.2c-0.5-0.1-0.7-0.1-0.2-0.3c-1.1,0.2-0.9,0.1-1.9,0.2v-0.1
				c-0.3,0-0.9,0.1-1.1,0.1c-0.8-0.2-3.8,0-5.8-0.2c0.4,0.3-0.9-0.1-1,0.1c-0.1-0.1-0.4-0.1-0.1-0.2c-1,0.1-1.5-0.1-2.2,0.1
				c-0.1-0.1,0.2-0.1,0.1-0.1c-0.1,0-0.3,0.1-0.4,0c-0.1,0,0.1-0.1,0.3-0.1c-1,0-1.1,0.2-1.2,0.4c-0.5-0.1-0.8-0.1-1.2,0
				c0,0-0.3,0,0.4,0c-0.4,0-2.2-0.1-2.2,0.1c-0.1,0-0.5,0-0.6,0c-0.8,0-0.9,0-1.7,0h0.2c-0.3,0.2-0.7,0-1.4,0.2l0,0
				c-0.8,0.1-0.9,0.2-1,0.3c-0.2,0.1-0.3,0.2-0.9,0.7h0.1c0,0.1-0.2,0.3-0.5,0.7c-0.2,0.3-0.5,0.8-0.5,1.3l0.1-0.3
				c0,0.2-0.2,0.6-0.3,0.9c-0.1,0.3-0.2,0.7-0.2,0.9c0,0.1,0-0.2-0.1-0.3c-0.1,1.2,0.2,0.1,0.2,1c0,0.2-0.2-0.2-0.2,0.4
				c-0.1,0.3,0.3,1.8,0.1,2.6c0.1-0.2,0.2-0.3,0.2,0.1c0,0.6-0.2,1.7,0,2.3c0,0.1,0,0.1-0.1,0.1c0.1,0.5,0.1,1.6,0.2,1.9
				c-0.4,0.5,0.2,3-0.2,3v1.5l0,0c0,1,0.1,1.3,0.2,1.6c0,0.2-0.1,0.1-0.1,0c0,0.7,0,1.2,0.1,1.5c0.1,0.4,0.3,0.7,0.7,1.2v0.2
				c0.1,0.1,0.4,0.6,1,1.1c0.6,0.4,1.4,0.8,2.2,0.7c0,0,0,0-0.2,0c1.6-0.1,3.7,0.3,4.3-0.1l1-0.1c-1.3,0,0.2-0.2-0.3-0.3
				c0.5,0,1.3,0.1,0.7,0.2h-0.1c-0.2,0.2,1.6,0.1,1.6,0.2c2.6,0,5.2,0.1,7.6,0.1l-0.3-0.2h0.9c0.2,0,0.3,0.1-0.3,0.1
				c0.3,0.1,1-0.1,1-0.1c1.2,0.1-0.5,0.2-0.1,0.2h0.5h-0.1c0.4-0.1,0.4-0.2,1.2-0.1c0.5,0,0.2,0.1,0.4,0.1c0,0,0.1,0,0.3,0h1.1
				l-0.4-0.1c0.5-0.1,1,0,0.5-0.2c0.7,0.3,4,0.1,4.5,0.2c0.7-0.1,1.3-0.1,2.1-0.1c-0.2,0-0.3-0.2,0.4-0.2c-0.3,0.3,1.3,0.1,1.9,0.4
				c-0.5-0.2,2,0,1.2-0.3c0.6,0,0,0.1,0.5,0.2c1.4-0.1,3.1,0.1,4.8,0c0,0-0.3-0.1,0.1-0.2l0.9,0.2c0.3,0,0.3-0.3,0.9-0.1
				c-0.1,0-0.2-0.1,0-0.1c3.4,0.2,6.9-0.2,10.3,0.2c-0.5-0.1-0.2-0.1,0.2-0.1c-0.2,0,0-0.1,0-0.2l1.4,0.2c0.3-0.2,1.5,0,1.7-0.2
				h-0.5c0.6-0.2-0.8-0.4-0.8-0.7c-0.7,0.2-1.8-0.3-2.9,0c-0.2,0,0.2-0.1,0.1-0.1c-0.3,0.1-0.6,0.1-1.3,0.1h0.1
				c-1.8,0-2.5-0.1-4.5-0.1l0.1,0.1c-0.4,0-0.5-0.1-0.7-0.1c-0.5,0.2,1.2,0,0.8,0.2c-0.6-0.2-3,0-3.4-0.3c-0.7,0,0.2,0.1-0.5,0.1
				l-0.2-0.1l-0.2,0.1c-0.4,0-0.6-0.1-0.7-0.2c0.1,0,0.3,0,0.4,0c-0.6-0.1-1.6,0-1.8,0h0.6c-1.8,0.1-4,0-5.7,0.1l0.1,0.1
				c-1.3,0.1-1.1-0.1-2.5,0h0.1c-0.3,0.1-0.7,0.1-1.1,0.1c0.4-0.1-0.7-0.1-0.2-0.2c-1.4,0.1-0.7,0.1-1.7,0.3l-0.2-0.1
				c-0.3,0.1-0.4,0.1-1.1,0.2c0.6-0.1-0.5-0.1,0.2-0.2c-1.5-0.2-2.3,0.2-3-0.1c-0.7,0.3,1.3,0.1,0.9,0.2c0.3,0.1-0.6,0.2-1.1,0.2
				s-0.8-0.3-2.1-0.3c0.1,0,0.1,0,0.3,0c-0.5-0.1-0.9,0.1-1.5,0c-0.3,0.2-0.7,0-0.8,0.2h1.1c-0.6,0.1-1.2,0.3-2.3,0.2
				c0.1,0,0.4-0.1,0.6-0.1c-0.3-0.1-0.6,0-0.9,0c0.1-0.2,1.4,0,2-0.2c-0.3-0.1-1.3,0.1-0.9-0.1c-0.5,0.3-1.2,0-2,0.2l0.1-0.1
				c-0.1,0-0.4,0.1-0.6,0.1l0.4-0.2c-0.7,0.1-1.3-0.1-1.9,0c1.3,0,0.3,0.1,0.9,0.2c-1.7,0.2-1-0.3-2.8-0.3c0.3,0,0.9,0.1,0.6,0.1
				c-0.4,0-0.8-0.1-1-0.1c-1.2,0,0.2,0.1-0.3,0.2c-0.4-0.1-0.6,0.1-1.1,0.1v-0.1c-1.4-0.1-0.4,0.3-1.6,0.2l0.5-0.2h-0.7l0.1-0.1
				c-0.7,0.1-0.9,0.1-1.6,0c0.2,0.1-0.1,0.2-0.7,0.2c-0.4-0.1,0.2-0.1-0.6-0.1c0.2-0.1,0.4-0.2,0.8-0.1l0.2-0.1
				c-0.5-0.1-1.1,0-1.5,0c0.1,0,0.3,0,0.3,0l-1.3,0.2c-0.2,0,0-0.1,0.1-0.1c-0.3,0-0.4,0.1-0.8,0.1c0.2,0,0.1-0.1,0.7-0.1l-1.2,0.1
				c-0.1,0-0.5-0.2-0.4-0.2c-0.5-0.1-1.3-0.2-1.8-0.9c0,0-0.1-0.1-0.2-0.2c-0.2-0.3-0.3-0.6-0.4-0.9c0-0.2-0.1-0.3-0.1-0.5
				c0-0.2,0-0.4-0.1-0.6l0.2-0.6c0-0.8-0.2,0.8-0.3-0.5c-0.1-0.9,0.1-0.3,0.2-0.7c-0.1-0.5-0.3-1.3-0.1-2.1
				C-273.6,400.7-273.6,400.9-273.6,401.2z M-273.6,391.5c0,0.2,0.1,0.6,0,0.7C-273.8,392-273.7,391.9-273.6,391.5z M-264.3,385.5
				c-0.1,0-0.4,0-0.6,0C-264.7,385.5-264.5,385.5-264.3,385.5z M-223.4,384.7L-223.4,384.7C-223.9,384.6-223.7,384.6-223.4,384.7z
				 M-222.6,384.7C-222.5,384.7-222.5,384.7-222.6,384.7c0,0-0.2,0-0.4,0C-222.9,384.7-222.8,384.7-222.6,384.7z M-252.7,408.7h-0.2
				C-252.5,408.6-252.6,408.7-252.7,408.7z"/>
			<path id="XMLID_123_" class="st1" d="M-265.9,385.7C-266,385.6-266,385.6-265.9,385.7C-266.1,385.6-266.1,385.6-265.9,385.7z"/>
			<path id="XMLID_122_" class="st1" d="M-272.8,406.5L-272.8,406.5L-272.8,406.5L-272.8,406.5z"/>
			<path id="XMLID_121_" class="st1" d="M-236,385.7c-0.2,0-0.3,0-0.3-0.1C-236.3,385.7-236.2,385.7-236,385.7z"/>
			<path id="XMLID_120_" class="st1" d="M-217.7,385.1c0,0-0.6-0.3-0.6-0.2C-218,384.9-217.9,385-217.7,385.1
				C-217.8,385.1-217.9,385-217.7,385.1z"/>
			<path id="XMLID_119_" class="st1" d="M-216.2,389.8c0,0.1,0,0.2,0,0.3h0.1C-216.1,389.7-216.2,389.5-216.2,389.8z"/>
			<path id="XMLID_118_" class="st1" d="M-217.4,385.7c0,0.1,0.3,0.3,0.6,0.6v-0.1C-216.7,386.3-217,386-217.4,385.7z"/>
			<path id="XMLID_117_" class="st1" d="M-216.8,386.4c0.1,0.1,0.2,0.2,0.2,0.3C-216.5,386.7-216.6,386.6-216.8,386.4z"/>
			<path id="XMLID_116_" class="st1" d="M-221.5,384.6c0.2,0,0.1-0.1,0.2-0.1C-221,384.4-222.5,384.7-221.5,384.6z"/>
			<path id="XMLID_115_" class="st1" d="M-217.4,386.2V386l-0.2-0.1C-217.6,385.9-217.4,386.2-217.4,386.2z"/>
			<path id="XMLID_114_" class="st1" d="M-220.2,385.2c0,0,0.2,0,0.3,0c0.2,0,0.3,0,0.3,0s0.1,0,0.2,0
				C-219.8,385.1-220.2,385.1-220.2,385.2z"/>
			<path id="XMLID_113_" class="st1" d="M-219.4,385.2c0.2,0,0.4,0.1,0.5,0.1C-219,385.2-219.2,385.2-219.4,385.2z"/>
			<path id="XMLID_112_" class="st1" d="M-218.1,385.7l-0.2-0.1c0,0-0.1,0-0.2-0.1c-0.1,0-0.2-0.1-0.2-0.1
				C-218.6,385.4-218.1,385.7-218.1,385.7z"/>
			<path id="XMLID_111_" class="st1" d="M-226.9,385.1h-0.7c-0.1,0,0.1,0.1,0.4,0.1C-227,385.2-226.8,385.2-226.9,385.1z"/>
			<path id="XMLID_110_" class="st1" d="M-224.8,385.5c-0.2,0-0.2-0.1-0.3-0.1v0.2L-224.8,385.5z"/>
			<path id="XMLID_109_" class="st1" d="M-226.8,385.5c-0.1,0-1,0.1-0.1,0.1C-226.9,385.6-226.2,385.5-226.8,385.5z"/>
			<polygon id="XMLID_108_" class="st1" points="-237,385.3 -236.8,385.3 -236.9,385.1 			"/>
			<path id="XMLID_107_" class="st1" d="M-246,385.9c0.8,0.1,0.2-0.2,0.9-0.1c0.2-0.1-0.6-0.1-0.4-0.1
				C-246,385.8-246.2,385.8-246,385.9z"/>
			<path id="XMLID_106_" class="st1" d="M-245.5,385.7c0.1,0,0.2,0,0.2,0C-245.4,385.7-245.5,385.7-245.5,385.7z"/>
			<polygon id="XMLID_105_" class="st1" points="-221.2,408.8 -220.7,408.9 -221,408.8 			"/>
			<path id="XMLID_104_" class="st1" d="M-220.2,408.6l0.1,0.2l0.3-0.1C-219.9,408.7-220.1,408.7-220.2,408.6z"/>
			<path id="XMLID_103_" class="st1" d="M-273.3,390.1L-273.3,390.1c-0.1,0-0.1,0.2-0.1,0.4L-273.3,390.1z"/>
			<polygon id="XMLID_102_" class="st1" points="-273.4,397.1 -273.4,397 -273.6,397.2 			"/>
			<path id="XMLID_101_" class="st1" d="M-273.3,403c0-0.2,0-0.5,0-0.8C-273.2,402.7-273.4,403-273.3,403z"/>
		</g>
	</g>
	<g id="XMLID_7_">
		<path id="XMLID_8_" class="st1" d="M-262,392.4l0.3,0.2h0.2c0.1,0,0.2,0.1,0.3,0.3c0,0,0.1,0.1,0.3,0.1c0.2,0.2,0.4,0.4,0.6,0.4
			c0.1,0.1,0.2,0.4,0.3,0.8l0.1,0.3l-0.1,0.3v0.3c-0.1,0.3-0.2,0.5-0.4,0.7v0.3c0,0.1-0.1,0.1-0.3,0.2c-0.1,0.2-0.2,0.3-0.2,0.4l0,0
			c0.1,0.2,0.1,0.3,0.1,0.4s0,0.3,0.1,0.5c0,0.5,0,0.7,0.1,0.7c0.1,0.1,0.2,0.3,0.2,0.4h0.1h0.3c0.2,0.2,0.3,0.3,0.5,0.3
			c0.1,0,0.1,0.1,0.2,0.4c-0.1,0.3-0.2,0.5-0.3,0.5h-0.1h-0.1h-0.1l0,0l0,0c-0.1,0-0.3-0.1-0.6-0.1v-0.3c0,0-0.1,0-0.1-0.1
			c-0.1,0-0.1,0.1-0.2,0.1l0,0c-0.1,0-0.1-0.2-0.2-0.5c0,0,0,0,0-0.1h-0.2l0,0l0,0c0.1,0,0.2-0.1,0.2-0.2l0,0
			c-0.2-0.1-0.2-0.1-0.2-0.2l0,0c0-0.1,0-0.2,0.1-0.4V398c-0.1-0.1-0.1-0.1-0.1-0.2v-0.1v-0.2l0,0l-0.1-0.3c0-0.2,0-0.3-0.1-0.3
			s-0.2-0.1-0.3-0.2c0-0.1-0.1-0.2-0.1-0.2l-0.3,0.1c0,0-0.1-0.1-0.3-0.2h-0.2h-0.2c-0.1,0-0.2,0.1-0.4,0.3v0.1
			c0.1,0,0.1,0.1,0.1,0.2c0,0-0.1,0.1-0.2,0.3c0,0.1,0.1,0.2,0.2,0.3l0,0c0,0-0.1,0.1-0.2,0.3l0,0c0,0,0.1,0.1,0.2,0.2v0.1
			c0,0.1,0,0.2-0.1,0.2c0.1,0.2,0.2,0.4,0.4,0.4c0.1,0,0.2,0,0.4,0.1c0.1-0.1,0.2-0.1,0.3-0.1s0.2,0.2,0.2,0.7l0,0
			c-0.1,0.1-0.2,0.2-0.4,0.2h-0.1c-0.1,0.1-0.3,0.2-0.3,0.2l-0.3-0.1l0,0l0,0l0,0l0,0l-0.5,0.1h-0.1l-0.3-0.1l0,0h-0.1h-0.3
			c-0.1,0-0.2,0-0.3,0.1h-0.5c-0.2-0.1-0.3-0.4-0.3-0.7c0-0.3,0.2-0.4,0.4-0.4h0.1c0.1,0,0.2-0.1,0.3-0.2c0.2,0,0.4-0.2,0.4-0.5V398
			l-0.1-0.7l0.1-0.4l-0.2-0.3l0,0c0.1-0.3,0.1-0.5,0.2-0.7v-0.5v0.1l-0.1-0.3c0-0.1,0-0.3,0.1-0.5l0,0c-0.2-0.3-0.3-0.5-0.3-0.6
			l0.1-0.2l0,0v-0.1c0-0.1-0.1-0.2-0.2-0.2c-0.2-0.1-0.5-0.2-0.9-0.2c-0.1,0-0.2-0.2-0.2-0.5c0-0.1,0.1-0.1,0.3-0.1
			c0.1-0.3,0.2-0.4,0.3-0.4c0.1,0.1,0.2,0.2,0.3,0.2c0.3,0,0.5-0.1,0.7-0.2h0.1c0,0.1,0.1,0.2,0.2,0.2l0.2-0.1h0.2h0.1l0.3-0.1
			l0.3,0.1h0.2l0.3,0.1C-262.1,392.5-262,392.4-262,392.4z M-262.4,393.5L-262.4,393.5c-0.2-0.1-0.3-0.2-0.4-0.2l-0.3,0.1h-0.1
			c-0.3,0.1-0.4,0.3-0.4,0.4c0,0,0.1,0.1,0.2,0.3l0,0l-0.1,0.2v0.1l0.2,0.3l-0.2,0.3v0.1l0.2,0.3v0.1h-0.2c0,0,0,0.1,0.1,0.2h0.1
			c0.2-0.1,0.3-0.1,0.4-0.1c0,0,0.1,0.1,0.2,0.1l0.3-0.1h0.1l0.2,0.1c0.1-0.1,0.1-0.1,0.2-0.1s0.1,0,0.2,0.1
			c0.4-0.1,0.6-0.2,0.7-0.4v-0.1V395l0.2-0.3c0,0,0-0.1,0.1-0.1c0,0-0.1-0.1-0.2-0.3l0,0c0,0,0-0.1,0.1-0.3c0-0.1-0.1-0.2-0.3-0.3
			v-0.1v-0.1h-0.1h-0.2h-0.1c-0.2-0.1-0.4-0.1-0.7-0.2l0,0L-262.4,393.5z"/>
		<path id="XMLID_188_" class="st1" d="M-256.1,397.4c0,0,0.1,0,0.2,0.1l0,0h0.1c0.1,0,0.2,0.2,0.3,0.5c0.1,0.2,0.1,0.3,0.2,0.4l0,0
			l-0.1,0.2l0,0l0.1,0.2c0,0-0.1,0.1-0.2,0.3c-0.1,0.1-0.2,0.2-0.2,0.3s0,0.2-0.1,0.2l0,0c0,0-0.1,0-0.2-0.1h-0.1h-0.2h-0.2
			l-0.3,0.2c0,0-0.1-0.1-0.2-0.2h-0.1h-0.1c-0.1,0-0.1-0.1-0.2-0.3c-0.1-0.1-0.2-0.1-0.2-0.2l0,0c-0.1-0.1-0.1-0.2-0.1-0.3
			c0,0,0.1-0.2,0.2-0.5c0.1-0.2,0.1-0.4,0.3-0.4l0.4-0.2C-256.3,397.5-256.2,397.5-256.1,397.4z"/>
		<path id="XMLID_190_" class="st1" d="M-250.8,392.4l0.2,0.1l0.2-0.1h0.1l0.4,0.2l0.4,0.1c0.1-0.1,0.2-0.1,0.2-0.2
			c0.1-0.1,0.2-0.1,0.2-0.1c0.4,0.1,0.5,0.3,0.5,0.5l0.1,0.6v0.3c0.1,0.2,0.1,0.3,0.1,0.4c-0.1,0.4-0.2,0.6-0.3,0.6
			c-0.1,0-0.2-0.1-0.6-0.4v-0.1v-0.2c-0.2-0.3-0.3-0.5-0.4-0.5h-0.1c-0.1,0-0.2-0.1-0.2-0.2l-0.1-0.1h-0.1h-0.2
			c-0.2-0.1-0.4-0.2-0.4-0.2h-0.1h-0.2c-0.1,0.1-0.2,0.2-0.3,0.2l-0.2-0.1c-0.1,0-0.2,0.1-0.3,0.3l-0.3,0.1c-0.1,0.1,0,0.1,0,0.2
			c-0.2,0.1-0.3,0.2-0.3,0.3v0.4c0.1,0.2,0.2,0.3,0.4,0.3c0,0,0.1,0.1,0.1,0.3c0.2,0,0.4,0.1,0.6,0.2l0.4,0.1c0.1,0,0.1,0,0.2-0.1
			l0,0l0.2,0.1l0,0h0.2l0,0c0.1,0,0.2,0.1,0.4,0.2c0.1,0,0.5,0.2,1,0.5c0.3,0.2,0.4,0.3,0.4,0.3s0.1,0.1,0.1,0.3
			c0.1,0.1,0.1,0.2,0.1,0.3v0.1l0.4,0.4c-0.1,0.6-0.2,0.9-0.3,1c-0.1,0.5-0.3,0.7-0.5,0.7c-0.2,0.2-0.4,0.3-0.5,0.3
			c-0.1,0-0.3,0.1-0.4,0.2l-0.6,0.1h-0.1h-0.2l-0.3,0.1c-0.3-0.1-0.6-0.2-0.8-0.2h-0.2c-0.2-0.1-0.3-0.2-0.3-0.2h-0.2
			c0,0-0.1,0-0.1-0.1c-0.1,0-0.2,0-0.2,0.1s-0.1,0.2-0.2,0.2h-0.1c-0.1-0.1-0.3-0.2-0.5-0.3l-0.1-0.2V399l-0.1-0.4l0,0l0.1-0.4
			l-0.1-0.3v-0.2v-0.2l0.2-0.4l0,0V397c0-0.1,0.1-0.1,0.1-0.1h0.1c0.1,0.1,0.2,0.2,0.3,0.2h0.1c0.1,0,0.2,0.1,0.2,0.2v0.2l0,0
			c0.1,0.4,0.2,0.5,0.4,0.5c0.1,0,0.1,0.1,0.2,0.4c0,0.1,0.1,0.1,0.1,0.1l0,0h0.1l0,0c0.1,0,0.1,0,0.2,0.1v0.1
			c0.1,0.1,0.2,0.2,0.3,0.2l0.2-0.2l0,0l0.2,0.1l0,0h0.2h0.3l0.3-0.2l0.3,0.1h0.1c0.1-0.1,0.2-0.2,0.4-0.3c0,0,0.1-0.2,0.1-0.4
			l0.2-0.3c0-0.1-0.1-0.1-0.1-0.2l0,0l0.1-0.3c-0.1-0.1-0.2-0.3-0.2-0.4l0,0h-0.1h-0.2c-0.2-0.2-0.4-0.3-0.6-0.3l-0.4-0.2
			c-0.3,0-0.5,0-0.8-0.1l0,0h-0.2h-0.1c-0.2-0.2-0.3-0.3-0.4-0.3l0,0h-0.1c-0.1-0.1-0.2-0.2-0.4-0.4c-0.1,0-0.3-0.2-0.5-0.6v-0.1
			c-0.1-0.2-0.1-0.3-0.1-0.4c0.1-0.6,0.2-0.9,0.3-0.9c0.1,0,0.3-0.2,0.5-0.5c0.1-0.1,0.4-0.2,0.9-0.4c0.1-0.1,0.1-0.1,0.3-0.1l0,0
			L-250.8,392.4z"/>
		<path id="XMLID_192_" class="st1" d="M-244.9,397.4c0,0,0.1,0,0.2,0.1l0,0h0.1c0.1,0,0.2,0.2,0.3,0.5c0.1,0.2,0.1,0.3,0.2,0.4l0,0
			l-0.1,0.2l0,0l0.1,0.2c0,0-0.1,0.1-0.2,0.3c-0.1,0.1-0.2,0.2-0.2,0.3s0,0.2-0.1,0.2l0,0c0,0-0.1,0-0.2-0.1h-0.1h-0.2h-0.2
			l-0.3,0.2c0,0-0.1-0.1-0.2-0.2h-0.1h-0.1c-0.1,0-0.1-0.1-0.2-0.3c-0.1-0.1-0.2-0.1-0.2-0.2l0,0c-0.1-0.1-0.1-0.2-0.1-0.3
			c0,0,0.1-0.2,0.2-0.5c0.1-0.2,0.1-0.4,0.3-0.4l0.4-0.2C-245.2,397.5-245,397.5-244.9,397.4z"/>
		<path id="XMLID_194_" class="st1" d="M-240.8,392.4c0.2,0.1,0.5,0.1,0.8,0.1c0.2,0,0.3,0.2,0.4,0.5c0,0.1-0.1,0.2-0.4,0.3
			l-0.1,0.2l0,0c0,0-0.1,0-0.2-0.1h-0.1l-0.1,0.1c0,0.1,0.1,0.3,0.1,0.4l0,0c0.1,0.3,0.2,0.5,0.3,0.5c0.1,0,0.1,0.1,0.1,0.1
			c-0.1,0.1-0.1,0.2-0.1,0.3l0,0c0,0,0.1,0.2,0.2,0.3v0.1v0.1c0.1,0.1,0.1,0.2,0.1,0.3l0,0v0.2c0.1,0.3,0.2,0.5,0.3,0.6l0.1,0.1
			l-0.1,0.3l0,0c0.1,0.2,0.2,0.3,0.2,0.4l0.1,0.1c0.1,0,0.2-0.1,0.3-0.2l0,0l0,0l0,0l0,0v-0.2c0.1-0.1,0.3-0.4,0.3-0.7l0,0v-0.1
			c0,0,0.1-0.1,0.3-0.3l0,0c-0.1-0.1-0.1-0.2-0.1-0.2s0.1-0.2,0.3-0.3c0.1-0.2,0.2-0.4,0.2-0.5v-0.1l-0.1-0.6l-0.1-0.2v-0.1
			c0.1-0.1,0.1-0.1,0.1-0.2s-0.2-0.2-0.6-0.4c-0.1,0-0.1-0.1-0.1-0.2c0-0.3,0.1-0.4,0.4-0.5h0.3l0.6,0.1l0,0l0,0h0.1l0.3-0.1
			l0.5,0.1c0.2,0.1,0.3,0.3,0.3,0.4s-0.2,0.2-0.5,0.3c0,0,0,0-0.1,0c0,0.2-0.1,0.2-0.2,0.3v0.1v0.1c-0.2,0-0.2,0.2-0.2,0.4l-0.2,0.3
			l0.1,0.2l-0.3,0.4v0.1c0,0.1,0,0.2,0,0.3s-0.1,0.2-0.2,0.5l0,0l0,0v0.1v0.1l0,0l-0.1,0.4v0.3c0,0-0.1,0.1-0.2,0.2l-0.1,0.1v0.2
			l0,0l0,0l0,0l0,0c-0.1,0-0.2,0.3-0.2,0.8c0,0.1-0.1,0.2-0.2,0.4c0,0.2-0.1,0.3-0.2,0.5v0.1c0,0.2-0.3,0.4-0.8,0.5
			c-0.1,0-0.2-0.1-0.3-0.4c-0.1-0.1-0.1-0.3-0.1-0.4l-0.1-0.2v-0.3c-0.2-0.1-0.2-0.4-0.2-0.7c-0.1-0.1-0.1-0.3-0.2-0.7
			c0,0-0.1-0.1-0.1-0.3v-0.3c-0.2-0.2-0.3-0.3-0.3-0.4v-0.2c0-0.2-0.1-0.3-0.1-0.4v-0.1l0,0l-0.2-0.4c0-0.1-0.1-0.2-0.2-0.3v-0.1
			l0.1-0.1v-0.1l-0.2-0.3v-0.1l0.1-0.2c-0.1-0.3-0.3-0.4-0.5-0.4c-0.3-0.2-0.5-0.3-0.6-0.4v-0.1c0-0.1,0.1-0.3,0.4-0.4
			c0,0,0.1-0.1,0.2-0.1c0.2,0.1,0.4,0.2,0.8,0.2l0,0C-241.1,392.5-241,392.4-240.8,392.4z"/>
		<path id="XMLID_197_" class="st1" d="M-233.1,397.4c0,0,0.1,0,0.2,0.1l0,0h0.1c0.1,0,0.2,0.2,0.3,0.5c0.1,0.2,0.1,0.3,0.2,0.4l0,0
			l-0.1,0.2l0,0l0.1,0.2c0,0-0.1,0.1-0.2,0.3c-0.1,0.1-0.2,0.2-0.2,0.3s0,0.2-0.1,0.2l0,0c0,0-0.1,0-0.2-0.1h-0.1h-0.2h-0.2
			l-0.3,0.2c0,0-0.1-0.1-0.2-0.2h-0.1h-0.1c-0.1,0-0.1-0.1-0.2-0.3c-0.1-0.1-0.2-0.1-0.2-0.2l0,0c-0.1-0.1-0.1-0.2-0.1-0.3
			c0,0,0.1-0.2,0.2-0.5c0.1-0.2,0.1-0.4,0.3-0.4l0.4-0.2C-233.3,397.5-233.2,397.5-233.1,397.4z"/>
		<path id="XMLID_199_" class="st1" d="M-227.5,392.4l0.3,0.2h0.1h0.4l0.1-0.1h0.1c0.1,0.1,0.2,0.2,0.3,0.2h0.3
			c0.3,0.2,0.5,0.4,0.6,0.6l0.1,0.2c0.3,0.3,0.4,0.5,0.4,0.6v0.2v0.1l0.2,0.3v0.1l-0.1,0.4v0.2c-0.1,0.2-0.2,0.4-0.2,0.6l-0.4,0.4
			l-0.6,0.3c-0.1,0-0.3,0.1-0.6,0.3h-0.1c0,0-0.1,0-0.3-0.1h-0.1l0,0c-0.1,0-0.2,0.1-0.4,0.3l0,0c-0.2-0.1-0.3-0.2-0.4-0.2h-0.2
			c-0.1,0-0.3,0.1-0.4,0.3v0.3l-0.1,0.2l0.1,0.3v0.1l-0.1,0.3c0,0.3,0.2,0.4,0.4,0.4c0.1,0,0.2,0.1,0.4,0.2h0.3
			c0.2,0.1,0.4,0.1,0.4,0.2v0.1l0.1,0.3c0,0.1-0.1,0.1-0.1,0.1h-0.1c-0.1,0-0.2,0.1-0.3,0.3h-0.1l-0.3-0.2h-0.2h-0.3l-0.3,0.2h-0.1
			l-0.2-0.1h-0.1h-0.2h-0.1c-0.2-0.1-0.3-0.1-0.4-0.1l0,0h-0.1c-0.1-0.1-0.1-0.1-0.2-0.1c-0.1,0.1-0.2,0.1-0.3,0.1h-0.1
			c0,0-0.2-0.1-0.4-0.3c-0.1-0.1-0.2-0.1-0.2-0.2c0.1-0.1,0.2-0.2,0.3-0.2c0.1-0.2,0.3-0.3,0.4-0.3l0.4,0.2c0.3,0,0.5-0.1,0.5-0.4
			v-0.1l0.1-0.4l-0.1-0.3l0.1-0.3c-0.1-0.2-0.1-0.3-0.1-0.3l0.1-0.3c0,0,0-0.1-0.1-0.2v-0.3l0.1-0.3l-0.1-0.3v-0.2v-0.1l-0.1-0.2
			l0.1-0.3l-0.1-0.3l0.1-0.3l-0.1-0.3l0,0c0.1-0.1,0.1-0.2,0.1-0.3c-0.1-0.3-0.4-0.4-0.7-0.4h-0.1h0l0,0c-0.3-0.1-0.4-0.2-0.4-0.3
			v-0.1l0.1-0.2v-0.1c0.1-0.2,0.3-0.3,0.5-0.3l0.3-0.2h0.1l0.2,0.2h0.2h0.2h0.1l0.2-0.2h0.1l0.2,0.2h0.1h0.3l0,0l0,0l0,0h0.1
			C-227.7,392.4-227.6,392.4-227.5,392.4z M-227.7,393.4l-0.3,0.2h-0.2l0,0h-0.1v0.1c0,0.1,0,0.3-0.1,0.4l0.1,0.3v0.1l-0.1,0.3l0,0
			l0.1,0.3l0,0c-0.1,0.1-0.1,0.2-0.1,0.3l0.1,0.3c0,0.1,0,0.1,0,0.2l0.1,0.1c0,0,0.1-0.1,0.2-0.1c0.1,0.1,0.2,0.2,0.3,0.2l0.2-0.1
			h0.1l0.3,0.1l0.2-0.1h0.1c0,0,0.1,0,0.1,0.1h0.1c0,0,0.1,0,0.3-0.1c0.2,0,0.4-0.1,0.4-0.2c0.3-0.3,0.5-0.5,0.5-0.7
			c0-0.1,0-0.2,0.1-0.4c-0.1-0.1-0.2-0.3-0.2-0.6l0,0l0,0l-0.1-0.1l-0.2,0.1c0,0-0.1-0.1-0.1-0.2l0,0c0-0.1-0.2-0.3-0.5-0.6h-0.1
			c-0.2,0.2-0.3,0.2-0.4,0.2l0,0c0,0-0.2-0.1-0.4-0.2L-227.7,393.4z"/>
	</g>
	<g id="XMLID_56_">
		<path id="XMLID_340_" class="st1" d="M-270.8,384.6c0.3,0,0.2-0.1,0.2-0.1C-271.1,384.6-270.8,384.7-270.8,384.6z"/>
		<path id="XMLID_339_" class="st1" d="M-274.1,387.1L-274.1,387.1c0-0.1-0.2,0.5-0.2,0.5L-274.1,387.1z"/>
		<path id="XMLID_338_" class="st1" d="M-274.6,390.7c0.2-0.3,0-1.3,0-1.9v-0.1l-0.1-0.3C-274.6,389.2-274.5,390.2-274.6,390.7z"/>
		<path id="XMLID_337_" class="st1" d="M-275,392.6c0.1-0.1,0.1,0.4,0-0.4v0.1C-274.9,392.3-274.9,392.4-275,392.6z"/>
		<path id="XMLID_336_" class="st1" d="M-274.9,392.3C-275,391.9-275,392.5-274.9,392.3L-274.9,392.3z"/>
		<path id="XMLID_335_" class="st1" d="M-274.9,394l-0.1-0.5c0,0.1,0,0.5,0,0.4C-275,394.4-275,394.3-274.9,394z"/>
		<path id="XMLID_334_" class="st1" d="M-274.8,394.4v-0.3C-274.8,394.2-274.8,394.3-274.8,394.4z"/>
		<path id="XMLID_333_" class="st1" d="M-274.9,393.7l0.1,0.5c0-0.1,0.1-0.1,0-0.2C-274.8,394-274.8,393.9-274.9,393.7z"/>
		<path id="XMLID_332_" class="st1" d="M-274.8,393.3C-274.8,393-274.7,392.7-274.8,393.3C-274.7,392.3-274.9,392.4-274.8,393.3z"/>
		<path id="XMLID_331_" class="st1" d="M-274.4,390.9l0.1-0.4l-0.1-0.3C-274.4,390.4-274.4,390.9-274.4,390.9z"/>
		<path id="XMLID_330_" class="st1" d="M-275,397l0.1-0.2v-0.4C-274.9,396.7-274.9,397-275,397z"/>
		<path id="XMLID_329_" class="st1" d="M-274.9,396.8l0.1,0.5C-274.8,396.9-274.8,396.8-274.9,396.8z"/>
		<polygon id="XMLID_327_" class="st1" points="-274.6,394.5 -274.7,393.6 -274.6,394.7 		"/>
		<polygon id="XMLID_326_" class="st1" points="-275,399.1 -275.1,398.8 -275,399.4 		"/>
		<path id="XMLID_325_" class="st1" d="M-275,400.5c-0.1-0.2-0.1,0.3-0.2,0.1c0,0.4,0.1,0.7,0.1,1C-275.1,401.3-275,400.9-275,400.5
			z"/>
		<path id="XMLID_324_" class="st1" d="M-274.9,402c0-0.2,0-0.3-0.1-0.5C-275,401.7-275,401.9-274.9,402z"/>
		<path id="XMLID_323_" class="st1" d="M-274.8,398.3c0,0-0.1,0.1-0.1,0.4l0.1-0.2C-274.8,398.5-274.8,398.4-274.8,398.3z"/>
		<path id="XMLID_322_" class="st1" d="M-274.8,398.5L-274.8,398.5c0,0.2,0,0.4,0,0.5C-274.8,398.9-274.8,398.8-274.8,398.5z"/>
		<path id="XMLID_321_" class="st1" d="M-274.8,398.3L-274.8,398.3L-274.8,398.3z"/>
		<path id="XMLID_320_" class="st1" d="M-274.7,396c0.1,0.3,0.1,1,0.2,0.3C-274.5,396.1-274.6,396.4-274.7,396z"/>
		<path id="XMLID_319_" class="st1" d="M-274.7,398v-0.6c0,0-0.1,0.1-0.1,0L-274.7,398z"/>
		<polygon id="XMLID_318_" class="st1" points="-274.6,398.3 -274.7,398 -274.7,398.2 		"/>
		<path id="XMLID_317_" class="st1" d="M-274.8,401.1c0,0.2,0.1,0.5,0.1,0.8c0-0.3,0-0.7,0-1C-274.8,400.8-274.8,400.7-274.8,401.1z
			"/>
		<path id="XMLID_316_" class="st1" d="M-274.8,399.8L-274.8,399.8L-274.8,399.8z"/>
		<polygon id="XMLID_315_" class="st1" points="-274.8,405 -274.8,404.9 -274.8,404.9 		"/>
		<path id="XMLID_314_" class="st1" d="M-274.7,400.8c0-0.2,0-0.4,0-0.5C-274.8,400.5-274.8,400.7-274.7,400.8
			C-274.7,400.9-274.7,400.9-274.7,400.8z"/>
		<path id="XMLID_313_" class="st1" d="M-274.9,402.9c0-0.1,0-0.3,0.1-0.4C-274.9,402.6-274.9,402.8-274.9,402.9z"/>
		<path id="XMLID_312_" class="st1" d="M-274.8,400L-274.8,400C-274.9,400-274.9,400-274.8,400z"/>
		<path id="XMLID_311_" class="st1" d="M-274.8,400c0,0.1,0,0.2,0.1,0.3C-274.8,400.1-274.8,400-274.8,400
			C-274.8,399.9-274.8,399.9-274.8,400z"/>
		<path id="XMLID_310_" class="st1" d="M-273.9,405.8c-0.1,0-0.4-0.6-0.3-1.2c-0.1-0.5-0.4-0.2-0.6,0.3c0.1,0,0.1,0,0.2,0.6
			c0-0.2,0-1.4,0.1-0.9c0.1,0.8,0,0.7,0.1,1.1c0-0.2,0.1,0.1,0.3,0.3c0.2,0.2,0.3,0.4,0.4,0.3l-0.3-0.6
			C-274,405.8-273.9,406-273.9,405.8z"/>
		<path id="XMLID_309_" class="st1" d="M-274.8,403.8v-0.2c0,0.3-0.1,0.5-0.1,0.8c0,0.4,0.1,0.5,0.1,0.5
			C-274.8,404.8-274.8,403.7-274.8,403.8L-274.8,403.8z"/>
		<path id="XMLID_308_" class="st1" d="M-274.8,402.5c0.1,0.2,0.2,0.7,0.3,0.4c0-0.7-0.1-0.5-0.1-0.9
			C-274.6,403.1-274.7,401.7-274.8,402.5c0-0.2,0-0.4,0-0.6C-274.8,402.1-274.8,402.3-274.8,402.5L-274.8,402.5L-274.8,402.5
			L-274.8,402.5C-274.8,402.4-274.8,402.4-274.8,402.5C-274.8,402.4-274.8,402.4-274.8,402.5L-274.8,402.5
			C-274.8,402.8-274.8,402.5-274.8,402.5C-274.8,402.4-274.8,402.4-274.8,402.5L-274.8,402.5v1.1
			C-274.8,403.3-274.8,403-274.8,402.5z"/>
		<path id="XMLID_307_" class="st1" d="M-274.2,396.9L-274.2,396.9C-274.2,397-274.2,397-274.2,396.9z"/>
		<path id="XMLID_306_" class="st1" d="M-274.3,397.4c0-0.1-0.1-0.1,0-0.4c0-0.2,0.1,0,0.1,0c0-0.2-0.1-0.6-0.1-0.1v0.1
			c0,0.4-0.2,1-0.2,0.9S-274.4,397.7-274.3,397.4z"/>
		<path id="XMLID_305_" class="st1" d="M-274.5,400l0.1,0.9l0.1-0.5h-0.1C-274.4,399.9-274.5,400-274.5,400z"/>
		<path id="XMLID_304_" class="st1" d="M-274.8,405.1l-0.1-0.1c0,0,0.2,0.6,0.3,0.6C-274.7,405.6-274.8,405.1-274.8,405.1z"/>
		<path id="XMLID_303_" class="st1" d="M-274.4,406.5h-0.1l0.2,0.3L-274.4,406.5z"/>
		<path id="XMLID_302_" class="st1" d="M-216.8,397v-0.3C-216.8,396.9-216.8,397-216.8,397z"/>
		<path id="XMLID_301_" class="st1" d="M-216.8,399L-216.8,399C-216.8,398.9-216.8,398.9-216.8,399z"/>
		<path id="XMLID_300_" class="st1" d="M-245,408.8c0.4,0.1,0.8,0.2,0.8,0.1l-0.1-0.1C-244.6,408.9-244.8,408.9-245,408.8z"/>
		<path id="XMLID_299_" class="st1" d="M-224.7,408.2h-0.1c-0.1,0-0.2,0.1-0.3,0.1C-225,408.2-224.8,408.2-224.7,408.2z"/>
		<path id="XMLID_298_" class="st1" d="M-224.4,407.7l0.5,0.1C-224,407.8-224.2,407.8-224.4,407.7z"/>
		<path id="XMLID_297_" class="st1" d="M-217.6,386.9l-0.3-0.1C-217.6,387.1-217.7,386.9-217.6,386.9z"/>
		<path id="XMLID_296_" class="st1" d="M-262.3,408.8c0.3,0,0.6,0.1,0.9,0.1C-261.8,408.8-262.2,408.7-262.3,408.8z"/>
		<path id="XMLID_295_" class="st1" d="M-215.6,397.8c0-0.2,0-0.2-0.1-0.2C-215.7,397.7-215.7,397.8-215.6,397.8z"/>
		<path id="XMLID_294_" class="st1" d="M-260.4,408.9c-0.1,0-0.1,0-0.2,0c-0.3,0-0.5,0-0.8,0C-261.1,408.9-260.8,409-260.4,408.9z"
			/>
		<path id="XMLID_195_" class="st1" d="M-255.9,385.9L-255.9,385.9C-256,385.9-255.9,385.9-255.9,385.9z"/>
		<path id="XMLID_100_" class="st1" d="M-267.3,384.8c0.1,0,0.3,0,0.5,0C-266.9,384.8-267,384.8-267.3,384.8z"/>
		<path id="XMLID_99_" class="st1" d="M-269.8,408.9C-270,408.9-269.8,408.9-269.8,408.9L-269.8,408.9z"/>
		<path id="XMLID_98_" class="st1" d="M-271,408.4c0.1,0,0.1,0,0.1,0C-271,408.4-271,408.4-271,408.4z"/>
		<path id="XMLID_97_" class="st1" d="M-257.9,408.2L-257.9,408.2L-257.9,408.2z"/>
		<path id="XMLID_96_" class="st1" d="M-270.2,408.8c0.1,0,0.2,0,0.3,0C-269.9,408.9-270,408.9-270.2,408.8z"/>
		<path id="XMLID_95_" class="st1" d="M-270.1,408.9c-0.1,0-0.2,0-0.2,0C-270.4,408.9-270.3,408.9-270.1,408.9z"/>
		<path id="XMLID_94_" class="st1" d="M-269.4,408.9c-0.1,0-0.3,0-0.4,0c0.1,0,0.1,0,0.1,0S-269.6,408.9-269.4,408.9z"/>
		<path id="XMLID_93_" class="st1" d="M-234.9,385.6C-234.9,385.6-235,385.6-234.9,385.6C-235.2,385.6-235.1,385.6-234.9,385.6z"/>
		<path id="XMLID_92_" class="st1" d="M-238.3,407.7L-238.3,407.7L-238.3,407.7z"/>
		<path id="XMLID_91_" class="st1" d="M-237.4,407.6c-0.4,0.1-0.6,0.1-0.9,0.1l0.3,0.3L-237.4,407.6z"/>
		<path id="XMLID_84_" class="st1" d="M-216.8,392.3l-0.1,0.6c-0.2-0.8-0.1-1.3-0.2-0.7c0.3,0.1,0,2.5,0.4,2.6l-0.1,0.4
			c0-0.1,0-0.1,0-0.3c-0.2,0.8,0.2,0.6,0.2,1.7c0,0.4-0.1,0.6-0.1,0.4l0.1,0.8c0,0.2-0.1,0.2-0.1-0.1v1.3l0,0
			c0.1,0.2,0.1,0.6,0.2,0.8c0,0.3,0-0.2-0.1-0.1l0.1,0.7c-0.1,0.3-0.2-0.3-0.2-0.8c-0.3,0.7,0.1,0.6-0.1,2v-0.7
			c-0.2,0.4-0.1,0.9-0.2,1.7c0.1-0.2,0.3-1.5,0.4-0.7c0,0.2,0,0.5,0,0.9c-0.1,0-0.1,0.4-0.1,0.9h-0.2c0,0.5,0.1,0.5,0.2,0.8
			c0,0.5-0.2,0.6-0.3,0.7c-0.2,0.7,0.3-0.5,0.1,0.4c-0.3,0.6-0.5,1-1.1,1.6c-0.4,0.2,0-0.1-0.2-0.1l-0.3,0.3c-0.1,0-0.1,0-0.1,0
			c-0.3,0.2,0,0.2-0.5,0.4c-0.1,0.1-0.4,0.1-0.8,0c-0.4-0.1-0.9-0.1-1.3,0c-0.2,0,0.1-0.1,0-0.2c-1.1,0.1-1,0.1-1.9,0.3l-0.8-0.1
			c0.6,0.1-0.2,0.3-0.8,0.4c0.2,0.1,0.4,0.1,0.5,0.1l-1,0.1c-0.1,0,0-0.1,0.1-0.1c-0.1,0-0.1,0-0.2,0c-0.4-0.1-0.2-0.2,0.1-0.2
			c0.1,0,0.2,0.1,0.4,0.1c0.3-0.1,0.5-0.2,0.4-0.3c-0.1,0-0.2,0-0.3,0c0.1,0,0.1,0,0.1-0.1c0,0-0.1,0-0.3,0.1l-0.2-0.2l-0.1,0.1
			l-1.3-0.1c-1,0.2-1.8,0.4-3.3,0.5c0.4-0.1,0.1-0.2,0.1-0.4c0.4,0.2,1.2-0.1,2,0c-0.4,0-0.3-0.1-0.2-0.1l-1.4,0.1
			c0-0.1-0.3-0.1-0.7-0.1c0.3,0.3-1.1,0.2-1.6,0.2c0-0.1,0.1-0.2,0.8-0.1c-0.8-0.2-1,0.3-1.8,0.1c0.2,0,0.3,0,0.3,0
			c-0.4,0.1-1.4,0-1.1-0.1h0.2c-1.1,0-3.5,0-3.6,0.2c0,0,0.1-0.3,0.2-0.3l-2,0.7c0.2-0.2-0.5-0.6,0.4-0.7c-0.3,0-0.6-0.1-1.2,0
			c0.2,0,0.5,0.3,0.2,0.3c-0.7-0.2-0.5-0.1-1.3-0.3c0.3,0,0,0.3-0.5,0.3c0.1,0,0-0.3,0.1-0.3l-1.1,0.3c0.3-0.1,0-0.2-0.2-0.3
			c0.1,0.1-0.9,0-1.2,0l0.5,0.1c-1.2,0-1.2,0.4-2.4,0.4c0.1-0.1,0.4-0.4-0.3-0.4c-0.4,0.1-1.4,0.7-2.5,0.8l-0.2-0.1l-0.8,0.1
			c0.5-0.2,2-0.7,2.8-0.8c-0.5-0.1-0.1-0.1-0.8-0.1c-0.2-0.1,0.4-0.1,0.6-0.1h-1.6c0.1,0.2-1.2,0.2-1.2,0.3l1.7-0.2
			c0.1,0.2-1,0.5-2.1,0.4c-0.3-0.1,0.2-0.3,0.2-0.4c-0.1,0.1-1.1,0.1-1.2,0.1l0.5-0.1c-0.6-0.1-1,0.2-1.8,0.1
			c-0.3,0-0.8-0.2-0.8-0.1c0.4,0.2,0.5,0.8,0.2,0.9c-0.1,0-1.4-0.2-1.7-0.3c-0.4-0.2,0.6-0.4,0.3-0.5c0,0-0.3,0.1-0.4,0.1
			c-0.3,0,0.1-0.1-0.5-0.1c-0.1,0.2-1.2,0-0.3,0.1c-0.6,0-0.6,0-1.3,0c0.2,0.1-0.6,0.4-1.2,0.4c0,0-0.1-0.1-0.2-0.1
			c-1.2,0-1.8-0.1-3-0.1c-0.1,0-0.6-0.1-0.4-0.2c-0.2,0-0.3,0.1-0.7,0.1c-0.7-0.1,0.8,0,0.3-0.2c0,0.1-0.9,0.1-1.4,0.2
			c0.2,0.2,1.1,0,1.6,0c0,0.2-0.9,0.4-2,0.5c-0.9,0.1-0.4-0.1-0.6-0.1c-1.7,0-1.5,0.4-2.9,0.2c-0.6-0.1,0-0.3-0.2-0.4
			c0.8-0.1,1.2,0.1,1.7,0.1h-0.5c0.2,0,0.7-0.1,1,0c-0.5-0.1-3,0-4.3-0.1c-0.2,0-0.7,0.1-0.5,0.1h0.4c0.4,0.1-0.8,0.1-0.3,0.2
			c-0.3,0-0.6,0.1-0.9,0.1c-0.3,0-0.8,0-1.2-0.1l-0.1-0.2c0,0.1,0.5,0.2,0.8,0.2c-0.4,0.1-1.2-0.5-1.6-0.6l0.5,0.4
			c-0.6-0.2-1.4-0.5-1.8-1.3c0.1,0.4,0.1,0.1,0.4,0.7c-0.1-0.3,0.3,0.1,0.7,0.4c0.4,0.3,0.8,0.4,0.5,0.2c0.5,0.4,0.9,0.5,1.7,0.7
			c0-0.1-0.2-0.1,0.4-0.1h0.1l0,0l0,0l0,0c-0.1,0-0.3,0-0.3-0.1c0.3-0.1,1.2-0.1,1.6-0.2c0.4,0-0.1,0.1,0,0.1l0.5-0.1
			c0,0.1,0.9,0.2,0.1,0.3h0.8c0.4,0.1,1.1,0.1,1.4,0c0.4,0,0.9-0.1,0.6,0l1.2-0.1l0,0c1.2,0,2.4-0.2,3.7,0c0.4,0,0.8-0.1,1.5,0
			l0.1,0.1c0.5,0,1.5,0.1,1.7,0c0.5,0.3,2.4,0.1,3.3,0.1v-0.1c0.6,0,1.2,0,2-0.1v-0.1c0.7-0.1,1.7,0.1,2.7,0.1c-0.1,0-0.3,0-0.5,0
			c1.2,0.3,2.6-0.2,3.7,0c0.3,0,0.5,0,0.7,0c0,0,0,0-0.1,0h0.1c0.1,0,0.3,0,0.4,0.1c-0.1,0-0.2,0-0.3-0.1c0.2,0,0.5,0,0.9,0l0.1,0.1
			c0,0,0,0,0.1,0c0.3,0,0.3-0.1,0.1-0.1c0.2,0,0.3,0,0.4-0.1c0.3,0.2,0.8-0.1,1.2,0.1c0.2-0.1,1.6-0.1,1.8-0.3c0,0,0.1,0-0.1,0
			c0.4,0,0.7,0,1,0l0.2,0.2l0.8-0.2c0.5,0.1,0.7,0.1,0.2,0.3c1.1-0.2,0.9-0.1,1.9-0.2v0.1c0.3,0,0.9-0.1,1.1-0.1
			c0.8,0.2,3.8,0,5.8,0.2c-0.4-0.3,0.9,0.1,1-0.1c0.1,0.1,0.4,0.1,0.1,0.2c1-0.1,1.5,0.1,2.2-0.1c0.1,0.1-0.2,0.1-0.1,0.1
			c0.1,0,0.3-0.1,0.4,0c0.1,0-0.1,0.1-0.3,0.1c1,0,1.1-0.2,1.2-0.4c0.5,0.1,0.8,0.1,1.2,0c0.2,0.1,0.5,0.1-0.2,0.2
			c0.4,0,2.2,0.1,2.2-0.1c0.1,0,0.5,0,0.6,0c0.8,0,0.9,0,1.7,0h-0.2c0.3-0.2,0.7,0,1.4-0.2l0,0c0.8-0.2,0.9-0.3,1.1-0.4
			c0.1-0.1,0.3-0.2,0.9-0.7h-0.1c0-0.1,0.2-0.3,0.5-0.7c0.3-0.3,0.5-0.8,0.6-1.3l-0.1,0.3c0-0.2,0.2-0.6,0.3-0.9
			c0.1-0.3,0.2-0.6,0.2-0.9c0-0.1,0,0.2,0.1,0.3c0.2-1.2-0.2-0.2-0.2-1.1c0.1-0.2,0.2,0.2,0.2-0.4c0.1-0.3-0.3-1.8-0.1-2.6
			c-0.1,0.2-0.1,0.4-0.2-0.1c0-0.6,0.2-1.7,0-2.3c0-0.1,0-0.1,0.1-0.1c-0.1-0.5-0.1-1.6-0.2-1.9c0.4-0.5-0.2-3,0.2-3v-1.5l0,0
			c0-1-0.1-1.3-0.2-1.6c0-0.2,0.1-0.1,0.1,0c0-0.7,0-1.2-0.1-1.5c-0.1-0.4-0.3-0.7-0.7-1.2v-0.2c-0.1-0.1-0.4-0.6-1-1.1
			c-0.6-0.4-1.4-0.8-2.2-0.7c0,0,0,0,0.2,0c-1.6,0.1-3.7-0.3-4.3,0.1l-1,0.1c1.3,0-0.2,0.2,0.3,0.3c-0.5,0-1.3-0.1-0.7-0.2h0.1
			c0.2-0.2-1.6-0.1-1.6-0.2c-2.6,0-5.2-0.1-7.6-0.1l0.3,0.2h-0.9c-0.2,0-0.3-0.1,0.3-0.1c-0.3-0.1-1,0.1-1,0.1
			c-1.2-0.1,0.5-0.2,0.1-0.2h-0.5h0.1c-0.4,0.1-0.4,0.2-1.2,0.1c-0.5,0-0.2-0.1-0.4-0.1c0,0-0.1,0-0.3,0h-1.1l0.4,0.1
			c-0.5,0.1-1,0-0.5,0.2c-0.7-0.3-4-0.1-4.5-0.2c-0.7,0.1-1.3,0.1-2.1,0.1c0.2,0,0.3,0.2-0.4,0.2c0.3-0.3-1.3-0.1-1.9-0.4
			c0.5,0.2-2,0-1.2,0.3c-0.6,0,0-0.1-0.5-0.2c-1.4,0.1-3.1-0.1-4.8,0c0,0,0.3,0.1-0.1,0.2l-0.9-0.2c-0.3,0-0.3,0.3-0.9,0.1
			c0.1,0,0.2,0.1,0,0.1c-3.4-0.2-6.9,0.2-10.3-0.2c0.5,0.1,0.2,0.1-0.2,0.1c0.2,0,0,0.1,0,0.2l-1.7-0.5c-0.3,0.2-1.5,0-1.7,0.2h0.5
			c-0.6,0.1,0.8,0.3,0.7,0.6c0.7-0.2,1.8,0.3,2.9,0c0.2,0-0.2,0.1-0.1,0.1c0.3-0.1,0.6-0.1,1.3-0.1h-0.1c1.8,0,2.5,0.1,4.5,0.1
			l-0.1-0.1c0.4,0,0.5,0.1,0.7,0.1c0.5-0.2-1.2,0-0.8-0.2c0.6,0.2,3,0,3.4,0.3c0.7,0-0.2-0.1,0.5-0.1l0.2,0.1l0.2-0.1
			c0.4,0,0.6,0.1,0.7,0.2c-0.1,0-0.3,0-0.4,0c0.6,0.1,1.6,0,1.8,0h-0.6c1.8-0.1,4,0,5.7-0.1l-0.1-0.1c1.3-0.1,1.1,0.1,2.5,0h-0.1
			c0.3-0.1,0.7-0.1,1.1-0.1c-0.4,0.1,0.7,0.1,0.2,0.2c1.3-0.1,0.6-0.1,1.6-0.3l0.2,0.1c0.3-0.1,0.3-0.1,1.1-0.2
			c-0.6,0.1,0.4,0.2-0.2,0.3c1.5,0.2,2.3-0.2,3,0.1c0.6-0.3-1.4-0.2-1-0.2c-0.3-0.1,0.6-0.2,1-0.2c0.5,0,0.8,0.3,2.1,0.3
			c-0.1,0-0.1,0-0.3,0c0.5,0.1,0.9-0.1,1.5,0c0.3-0.2,0.7,0,0.8-0.2h-1.1c0.6,0.1,1.2-0.2,2.3,0c-0.1,0-0.4,0.1-0.6,0.1
			c0.3,0.1,0.6,0,0.9,0c-0.1,0.2-1.4,0-2,0.2c0.3,0.1,1.3-0.1,0.9,0.1c0.5-0.3,1.2,0,2-0.2l-0.1,0.1c0.1,0,0.4-0.1,0.6-0.1l-0.4,0.2
			c0.7-0.1,1.3,0.1,1.9,0c-1.3,0-0.3-0.1-0.9-0.2c1.7-0.2,1,0.3,2.8,0.3c-0.3,0-0.9-0.1-0.6-0.1c0.4,0,0.8,0.1,1,0.1
			c1.2,0-0.2-0.1,0.3-0.2c0.4,0.1,0.6-0.1,1.1-0.1v0.1c1.4,0.1,0.4-0.3,1.6-0.2l-0.2,0.2h0.7l-0.1,0.1c0.7-0.1,0.9-0.1,1.6,0
			c-0.2-0.1,0.1-0.2,0.7-0.2c0.4,0.1-0.2,0.1,0.6,0.1c-0.2,0.1-0.4,0.2-0.8,0.1l-0.2,0.1c0.5,0.1,1.1,0,1.5,0c-0.1,0-0.3,0-0.3,0
			l1.3-0.2c0.2,0,0,0.1-0.1,0.1c0.3,0,0.4-0.1,0.8-0.1c-0.1,0.1-0.1,0.2-0.6,0.2l1.2-0.1c0.1,0,0.5,0.2,0.4,0.2
			c0.5,0.1,1.3,0.2,1.8,0.9c0,0,0.1,0.1,0.2,0.2c0.2,0.3,0.3,0.6,0.4,0.9c0,0.2,0.1,0.3,0.1,0.5c0,0.2,0,0.4,0.1,0.6l-0.3,0.5
			c0,0.8,0.2-0.8,0.3,0.5c0.1,0.9-0.1,0.3-0.2,0.7c0.1,0.5,0.3,1.3,0.1,2.1C-216.8,392.8-216.8,392.5-216.8,392.3z M-216.7,401.9
			c0-0.2-0.1-0.6,0-0.7C-216.6,401.4-216.7,401.6-216.7,401.9z M-226.1,408c0.1,0,0.4,0,0.6,0C-225.7,408-225.9,408-226.1,408z
			 M-267,408.8L-267,408.8C-266.5,408.8-266.7,408.8-267,408.8z M-267.8,408.7C-267.9,408.8-267.9,408.8-267.8,408.7
			c0,0,0.2,0,0.4,0C-267.5,408.7-267.6,408.7-267.8,408.7z M-237.7,384.8h0.2C-237.9,384.8-237.8,384.8-237.7,384.8z"/>
		<path id="XMLID_83_" class="st1" d="M-224.5,407.8C-224.4,407.8-224.4,407.8-224.5,407.8C-224.3,407.8-224.3,407.8-224.5,407.8z"
			/>
		<path id="XMLID_82_" class="st1" d="M-217.6,387L-217.6,387C-217.6,386.9-217.6,386.9-217.6,387L-217.6,387z"/>
		<path id="XMLID_81_" class="st1" d="M-254.4,407.7c0.2,0,0.3,0,0.3,0.1C-254.1,407.8-254.1,407.7-254.4,407.7z"/>
		<path id="XMLID_80_" class="st1" d="M-272.7,408.4c0,0,0.6,0.3,0.6,0.2C-272.4,408.5-272.5,408.5-272.7,408.4
			C-272.6,408.4-272.5,408.5-272.7,408.4z"/>
		<path id="XMLID_79_" class="st1" d="M-274.2,403.6c0-0.1,0-0.2,0-0.3h-0.1C-274.3,403.7-274.2,404-274.2,403.6z"/>
		<path id="XMLID_78_" class="st1" d="M-273,407.7c0-0.1-0.3-0.3-0.6-0.6v0.1C-273.7,407.2-273.4,407.5-273,407.7z"/>
		<path id="XMLID_77_" class="st1" d="M-273.6,407.1c-0.1-0.1-0.2-0.2-0.2-0.3C-273.9,406.7-273.8,406.9-273.6,407.1z"/>
		<path id="XMLID_76_" class="st1" d="M-268.9,408.8c-0.2,0-0.1,0.1-0.2,0.1C-269.4,409-267.9,408.7-268.9,408.8z"/>
		<path id="XMLID_75_" class="st1" d="M-273,407.3v0.2h0.3C-272.8,407.5-273,407.3-273,407.3z"/>
		<path id="XMLID_74_" class="st1" d="M-270.2,408.3c0,0-0.2,0-0.3,0c-0.2,0-0.3,0-0.3,0s-0.1,0-0.2,0
			C-270.6,408.3-270.2,408.3-270.2,408.3z"/>
		<path id="XMLID_73_" class="st1" d="M-271,408.3c-0.2,0-0.4-0.1-0.5-0.1C-271.4,408.3-271.1,408.3-271,408.3z"/>
		<path id="XMLID_72_" class="st1" d="M-272.3,407.7l0.2,0.1c0,0,0.1,0,0.2,0.1c0.1,0,0.2,0.1,0.2,0.1
			C-271.8,408-272.3,407.7-272.3,407.7z"/>
		<path id="XMLID_71_" class="st1" d="M-263.5,408.3h0.7c0.1,0-0.1-0.1-0.4-0.1C-263.4,408.3-263.6,408.3-263.5,408.3z"/>
		<path id="XMLID_70_" class="st1" d="M-265.6,408c0.2,0,0.2,0.1,0.3,0.1v-0.2L-265.6,408z"/>
		<path id="XMLID_69_" class="st1" d="M-263.6,408c0.1,0,1-0.1,0.1-0.1C-263.5,407.9-264.2,407.9-263.6,408z"/>
		<polygon id="XMLID_68_" class="st1" points="-253.4,408.2 -253.5,408.2 -253.5,408.4 		"/>
		<path id="XMLID_67_" class="st1" d="M-244.4,407.5c-0.8-0.1-0.2,0.2-0.9,0.1c-0.2,0.1,0.6,0.1,0.4,0.1
			C-244.4,407.7-244.2,407.7-244.4,407.5z"/>
		<path id="XMLID_66_" class="st1" d="M-244.9,407.7c-0.1,0-0.2,0-0.2,0C-245,407.8-244.9,407.7-244.9,407.7z"/>
		<polygon id="XMLID_65_" class="st1" points="-269.2,384.6 -269.7,384.6 -269.4,384.7 		"/>
		<path id="XMLID_64_" class="st1" d="M-270.2,384.8L-270.2,384.8h-0.4C-270.5,384.8-270.2,384.8-270.2,384.8z"/>
		<path id="XMLID_63_" class="st1" d="M-217.1,403.4L-217.1,403.4c0.1,0,0.1-0.2,0.1-0.4L-217.1,403.4z"/>
		<polygon id="XMLID_62_" class="st1" points="-216.9,396.4 -216.9,396.5 -216.8,396.3 		"/>
		<path id="XMLID_61_" class="st1" d="M-217.1,390.5c0,0.2,0,0.5,0,0.8C-217.1,390.7-216.9,390.4-217.1,390.5z"/>
	</g>
</g>
</svg>
