<?xml version="1.0" encoding="utf-8"?>
<!-- Generator: Adobe Illustrator 19.1.0, SVG Export Plug-In . SVG Version: 6.00 Build 0)  -->
<svg version="1.1" id="XMLID_2_" xmlns="http://www.w3.org/2000/svg" xmlns:xlink="http://www.w3.org/1999/xlink" x="0px" y="0px"
	 viewBox="0 0 184.6304 223.9111" enable-background="new 0 0 184.6304 223.9111" xml:space="preserve">
<g id="california">
	<g>
		<path d="M129.3178,223.9111c-0.9318-0.8578-1.4796-1.7889-2.1967-1.9457c-2.5999-0.5683-3.51-2.374-3.2971-4.4077
			c0.5555-5.3061-2.1486-8.6832-5.802-11.8405c-2.7013-2.3345-5.1758-4.9335-7.7233-7.4431
			c-0.9526-0.9384-1.5887-1.8421-3.2521-0.7135c-1.8669,1.2667-4.7427-0.4524-5.3914-2.7935
			c-0.2603-0.9393-0.5755-1.9111-1.1032-2.7115c-0.3351-0.5082-1.1491-1.0795-1.6769-1.0171
			c-2.4744,0.2923-4.3586-1.277-6.5451-1.8466c-0.7206-0.1877-1.4225-0.4852-2.1533-0.5886
			c-2.6372-0.3731-3.9244-2.4214-5.5324-4.1766c-2.2271-2.431-4.5328-4.9629-8.2021-4.9864c-1.3993-0.009-2.9105,0.1886-4.181,0.734
			c-3.0891,1.3261-5.4882,0.0534-8.0173-1.4915c-3.1529-1.926-4.2737-4.3141-3.3213-8.0615
			c0.5025-1.9773-0.1457-4.2635-0.3803-6.3987c-0.0508-0.4622-0.4572-1.043-0.8673-1.2822
			c-2.4142-1.4087-4.315-3.1137-4.4543-6.1785c-0.0214-0.4704-0.4727-0.9953-0.8529-1.3629
			c-1.9033-1.8402-3.9606-3.5358-5.7268-5.4959c-0.7412-0.8226-0.8531-2.192-1.3349-3.2756
			c-0.3416-0.7682-0.6473-1.7297-1.2743-2.1622c-2.4812-1.7113-3.954-4.1736-5.4231-6.6725
			c-0.498-0.8471-0.9693-1.7323-1.6005-2.4745c-1.6704-1.9642-1.971-4.2565-1.646-6.6597c0.2562-1.8945,1.0394-2.4655,2.753-2.3632
			c1.0471-2.6027,0.121-4.5237-2.0726-6.0093c-0.1737-0.1177-0.3291-0.4017-0.4805-0.3929
			c-4.6178,0.2684-5.7652-3.1842-6.862-6.5326c-0.5605-1.7111-0.8241-3.5408-1.0312-5.3389
			c-0.1337-1.1609,0.0812-2.3616,0.1342-3.5447c0.0195-0.4344,0.1124-0.8906,0.0161-1.3003c-0.2705-1.151-0.622-2.283-0.9121-3.3178
			c-1.476-0.7647-3.3434-1.3915-4.7717-2.5567c-1.8747-1.5294-2.9366-3.6267-2.895-6.2477
			c0.0184-1.1552-0.6517-2.3187-0.9948-3.4827c-0.7366-2.4988-3.0297-3.7595-4.5503-5.6277
			c-2.6-3.1945-4.7282-6.6364-6.4353-10.3584c-0.1869-0.4076-0.1691-0.918-0.2058-1.3839
			c-0.1472-1.8694,0.0322-3.8345-0.4994-5.5849c-0.5771-1.9003-0.7826-3.7128-0.5515-5.638
			c0.1383-1.1525,0.3286-2.3153,0.296-3.4678c-0.0517-1.8318-0.577-3.4205-2.0156-4.8163
			c-1.3657-1.3251-2.5234-2.9745-3.3934-4.6753c-1.3455-2.6301-2.6293-5.3334-2.8708-8.3723
			c-0.1701-2.1412,0.8092-3.8379,1.9529-5.5142c0.675-0.9893,1.2666-2.0447,1.8044-3.1163
			c0.7181-1.4306,1.4549-2.8683,1.9804-4.3738c0.4036-1.1563,1.0245-2.6585,0.6106-3.59c-0.8466-1.9055-0.1192-3.4213,0.6045-4.8743
			c0.9424-1.8917-0.0247-3.5958-0.1917-5.3274C6.6023,9.0034,5.6436,7.2424,5.1787,5.4048
			C5.0008,4.7016,5.1872,3.8808,5.3164,3.1325C5.4431,2.399,5.753,1.6985,5.9031,0.9673C6.1919-0.44,7.3013,0.0926,8.0512,0.1275
			c5.4721,0.2542,10.9435,0.5425,16.4093,0.9064c7.6657,0.5103,15.324,1.1335,22.9901,1.6366
			c6.3007,0.4135,12.608,0.7271,18.9129,1.0761c4.0327,0.2232,8.066,0.4364,12.0998,0.641c1.4217,0.0721,1.579,1.2253,1.5496,2.143
			c-0.1594,4.9757-0.5011,9.9454-0.6664,14.921c-0.1253,3.7739,0.0033,7.5564-0.1291,11.3299
			c-0.2756,7.8532-0.6906,15.7016-0.9683,23.5548c-0.1856,5.2486-0.2065,10.5029-0.3624,15.7528
			c-0.037,1.2482,0.3081,2.1423,1.2386,3.0356c7.2925,7.0009,14.4959,14.0946,21.7899,21.094
			c5.1637,4.9551,10.4542,9.7777,15.6363,14.7139c5.8398,5.5628,11.5925,11.217,17.4371,16.7746
			c4.9619,4.7183,10.0358,9.3187,14.9956,14.0391c5.1359,4.888,10.1839,9.8682,15.2899,14.7877
			c3.2098,3.0925,6.5327,6.0727,9.6403,9.2634c0.9748,1.0009,1.3492,2.5638,2.1171,3.7955
			c0.7523,1.2067,1.6625,2.3143,2.4887,3.4759c0.2689,0.3781,0.703,0.7901,0.7012,1.185c-0.0121,2.6719,1.3533,4.4981,3.3994,5.993
			c1.8221,1.3313,2.5363,3.1348,1.594,4.2922c-0.9329,1.1459-1.9714,2.3049-3.2007,3.0839
			c-1.3403,0.8493-1.7978,1.7797-1.8072,3.3403c-0.0107,1.7942-0.4431,3.5877-0.7176,5.3776
			c-0.1657,1.0806-0.3133,2.171-0.5881,3.226c-0.3419,1.3124-0.1704,2.8023-1.8852,3.5897
			c-0.6391,0.2935-0.8513,1.7246-1.054,2.6802c-0.116,0.5471,0.4513,1.3102,0.2416,1.7543c-0.999,2.115,0.606,3.0916,1.7358,4.2274
			c1.5704,1.5788,1.4831,3.4219,1.1322,5.3773c-0.3541,1.9731-1.9998,2.0079-3.3949,2.1488
			c-6.3168,0.6382-12.6498,1.1165-18.9665,1.7559c-5.7007,0.5771-11.3853,1.3118-17.082,1.932
			C135.3929,223.3847,132.1477,223.6468,129.3178,223.9111z M27.7634,97.8897c1.9459-1.3949,2.2805-3.0217,2.1622-4.8781
			c-0.0323-0.5068,0.1195-1.2418,0.4673-1.5153c1.006-0.791,3.0245-0.3697,3.8619,0.6553c1.2034,1.4731,1.2842,2.918,0.2915,4.1297
			c-0.2934,0.3581-0.7091,0.8945-0.6219,1.2345c0.2784,1.0849,0.6851,2.1577,1.1948,3.1573c0.6492,1.273,1.5329,2.4287,2.154,3.713
			c0.4863,1.0057,0.7059,2.1345-0.3237,3.0402c-1.0029,0.8822-1.8872,0.2128-2.6664-0.3395
			c-0.9491-0.6727-1.7854-1.5046-2.9266-2.4884c-0.0454,1.0232-0.2071,1.7917-0.0872,2.5133
			c0.3331,2.0053,0.6044,4.0509,1.2442,5.9656c0.5071,1.5175,1.4131,2.9446,2.3618,4.2524c0.4286,0.5909,1.3611,1.0366,2.117,1.1307
			c2.8401,0.3537,5.2765,2.6638,5.178,5.5131c-0.0475,1.373,0.4488,3.3209-1.6432,3.8888c-1.4385,0.3905-1.85,1.4309-1.5688,2.6025
			c0.3363,1.401,0.9479,2.7616,1.6135,4.0503c0.5989,1.1597,1.5093,2.1555,2.1448,3.3c1.1852,2.1347,2.5979,3.9678,4.6595,5.4124
			c0.935,0.6552,1.2968,2.1665,1.8417,3.3255c0.3195,0.6797,0.2899,1.616,0.7591,2.1162c1.7347,1.8495,3.5201,3.6763,5.4711,5.2881
			c1.0881,0.8989,1.5414,1.9241,1.805,3.1933c0.3609,1.7374,1.0659,3.2271,2.8848,3.9432c1.3416,0.5282,2.0233,1.6635,2.321,3.0143
			c0.1229,0.5576,0.0908,1.1538,0.0939,1.7327c0.0115,2.1383,0.1421,4.2881-0.0372,6.4111
			c-0.1156,1.3696-0.2778,2.6122,0.9396,3.5417c1.0934,0.8348,2.2176,1.63,3.3418,2.4233c1.429,1.0084,2.837,0.9534,4.5236,0.3933
			c2.9288-0.9727,6.1226-1.7266,8.9521-0.0357c2.2722,1.3579,4.3285,3.2066,6.1455,5.1508
			c1.1906,1.2739,2.2347,2.4384,3.9855,2.9183c1.8326,0.5024,3.5959,1.2534,5.4026,1.8562
			c0.7988,0.2665,1.6288,0.6089,2.4471,0.6158c2.3342,0.0197,3.757,0.9213,4.5491,3.0846c0.3413,0.9323,0.7686,1.8356,1.0667,2.7806
			c0.4193,1.3293,1.5275,1.057,2.2393,0.7346c2.1685-0.9822,3.8355-0.7073,5.3999,1.0651c0.9482,1.0742,1.9866,2.0716,3.0179,3.0689
			c2.5823,2.4973,5.169,4.9905,7.7825,7.455c1.6881,1.5918,3.0108,3.3681,3.1668,5.7772c0.0842,1.3015-0.0219,2.6253,0.1731,3.9063
			c0.1422,0.9341,0.4205,2.0142,1.0268,2.6698c0.8022,0.8675,1.9838,1.3842,3.3292,2.2658
			c1.0751-0.0609,2.6803-0.0908,4.2722-0.2522c7.1398-0.7241,14.2757-1.4854,21.4131-2.2337
			c6.1299-0.6427,12.259-1.2939,18.3905-1.9215c0.992-0.1016,1.9325-0.0258,2.3456-1.3232c0.4169-1.3092-0.0202-2.2663-0.803-3.1789
			c-0.6132-0.715-1.3001-1.3662-1.9385-2.0603c-0.6746-0.7335-1.2384-1.4055-0.604-2.5681c0.3284-0.6018,0.2288-1.5269,0.1038-2.269
			c-0.3446-2.0458,0.1952-3.2712,1.9204-4.3549c0.3934-0.2471,0.6627-0.8144,0.8157-1.2901
			c0.1813-0.5636,0.1708-1.1882,0.2505-1.7854c0.3771-2.8248,0.8718-5.6404,1.0872-8.4773
			c0.1096-1.4434,0.5561-2.5274,1.6417-3.4152c1.0777-0.8814,2.1462-1.7746,3.2016-2.6825
			c0.9305-0.8005,0.7433-1.6267-0.2256-2.1221c-2.2273-1.1387-2.8946-3.5195-4.3619-5.256
			c-0.1816-0.2149-0.2958-0.6899-0.1834-0.9164c0.6259-1.2615-0.1428-2.0532-0.9775-2.6559
			c-1.0511-0.7589-1.522-1.6823-1.8985-2.9193c-0.3959-1.3007-1.1828-2.6335-2.1587-3.5822
			c-6.2913-6.1167-12.6821-12.131-19.0385-18.1808c-8.3768-7.9728-16.753-15.9462-25.1273-23.9216
			c-6.121-5.8294-12.2243-11.6776-18.3624-17.4889c-4.791-4.536-9.6765-8.9732-14.4229-13.5549
			c-4.896-4.7262-9.6285-9.622-14.5351-14.3369c-1.317-1.2655-2.2325-3.1101-4.3361-3.4835
			c-0.2433-0.0432-0.5144-0.8148-0.5044-1.2425c0.0383-1.6519,0.2173-3.3,0.2861-4.9519
			c0.2371-5.6873,0.4787-11.3747,0.6648-17.0639c0.2445-7.4757,0.4436-14.9529,0.651-22.4297
			c0.0939-3.3837,0.1999-6.7678,0.23-10.1523c0.0396-4.4487,0.0097-8.898,0.0097-13.3706
			C54.3687,5.015,30.9117,3.5469,7.5634,2.0857C7.22,2.8951,6.979,3.5576,6.6646,4.1831c-0.5505,1.0951-0.614,2.0446,0.4115,2.9606
			C7.5403,7.5584,7.9783,8.1939,8.081,8.7892c0.4905,2.843,0.8812,5.6244-0.0123,8.5683c-0.71,2.3392-0.4669,4.9512-0.9181,7.3919
			c-0.2599,1.4059-1.0177,2.731-1.6256,4.0585c-0.7187,1.5692-1.5259,3.0976-2.2784,4.6516
			c-0.4751,0.9811-1.2899,1.9666-1.3167,2.9672c-0.1325,4.9503,1.8211,9.0927,5.1492,12.7299
			c1.1717,1.2805,2.3116,2.8948,2.6761,4.5325c0.4591,2.0631,0.0658,4.3075,0.1254,6.4713
			c0.0311,1.1286,0.0858,2.3005,0.4098,3.3678c0.6397,2.1073,1.4626,4.1461,0.494,6.3779c-0.1241,0.286,0.0018,0.7604,0.1572,1.0759
			c2.0017,4.0617,4.2737,7.9464,7.4933,11.1948c2.3644,2.3856,4.1498,5.0496,4.5648,8.5167
			c0.1589,1.3276,0.4559,2.8005,1.1931,3.8557C25.0992,95.8467,26.5317,96.7768,27.7634,97.8897z M30.2802,98.771
			c0.6877,0.3355,1.57,0.7659,2.6124,1.2744c-0.0724-0.3631-0.0546-0.6536-0.1818-0.8504c-0.8842-1.3686-0.8591-2.5449,0.267-3.8744
			c0.9218-1.0884,0.15-1.9532-0.6942-2.5155C31.5989,94.8442,30.9485,96.7809,30.2802,98.771z M35.7304,105.47
			c-0.7389-1.1869-1.4777-2.3738-2.3319-3.7459C32.8828,103.968,34.0526,104.9145,35.7304,105.47z"/>
		<path fill="#FFFFFF" d="M27.7634,97.8897c-1.2316-1.1129-2.6641-2.043-3.5706-3.3405c-0.7372-1.0552-1.0342-2.5281-1.1931-3.8557
			c-0.415-3.4671-2.2004-6.1311-4.5648-8.5167c-3.2195-3.2483-5.4916-7.1331-7.4933-11.1948
			c-0.1555-0.3155-0.2814-0.7899-0.1572-1.0759c0.9686-2.2318,0.1457-4.2706-0.494-6.3779
			c-0.324-1.0673-0.3787-2.2392-0.4098-3.3678c-0.0596-2.1638,0.3337-4.4082-0.1254-6.4713
			c-0.3645-1.6377-1.5044-3.2519-2.6761-4.5325c-3.3281-3.6373-5.2817-7.7797-5.1492-12.7299
			c0.0268-1.0006,0.8416-1.9861,1.3167-2.9672c0.7526-1.554,1.5598-3.0824,2.2784-4.6516c0.6079-1.3274,1.3657-2.6525,1.6256-4.0585
			c0.4512-2.4407,0.2081-5.0527,0.9181-7.3919c0.8935-2.9438,0.5028-5.7253,0.0123-8.5683
			C7.9783,8.1939,7.5403,7.5584,7.0761,7.1437c-1.0254-0.916-0.9619-1.8655-0.4115-2.9606C6.979,3.5576,7.22,2.8951,7.5634,2.0857
			C30.9117,3.5469,54.3687,5.015,77.8106,6.482c0,4.4726,0.0299,8.9219-0.0097,13.3706c-0.0301,3.3845-0.1362,6.7686-0.23,10.1523
			c-0.2074,7.4768-0.4065,14.954-0.651,22.4297c-0.1861,5.6891-0.4277,11.3765-0.6648,17.0639
			c-0.0689,1.6519-0.2478,3.3-0.2861,4.9519c-0.0099,0.4277,0.2612,1.1993,0.5044,1.2425c2.1036,0.3734,3.0191,2.2179,4.3361,3.4835
			c4.9066,4.7149,9.6391,9.6107,14.5351,14.3369c4.7464,4.5818,9.6319,9.019,14.4229,13.5549
			c6.1381,5.8113,12.2414,11.6595,18.3624,17.4889c8.3743,7.9754,16.7505,15.9488,25.1273,23.9216
			c6.3564,6.0498,12.7472,12.0641,19.0385,18.1808c0.9758,0.9487,1.7628,2.2815,2.1587,3.5822
			c0.3766,1.2371,0.8474,2.1604,1.8985,2.9193c0.8348,0.6027,1.6034,1.3945,0.9775,2.6559
			c-0.1124,0.2266,0.0018,0.7015,0.1834,0.9164c1.4673,1.7365,2.1347,4.1173,4.3619,5.256
			c0.9689,0.4954,1.1562,1.3216,0.2256,2.1221c-1.0554,0.908-2.1239,1.8011-3.2016,2.6825
			c-1.0856,0.8878-1.5321,1.9718-1.6417,3.4152c-0.2154,2.8369-0.7101,5.6526-1.0872,8.4773
			c-0.0797,0.5972-0.0692,1.2217-0.2505,1.7854c-0.153,0.4757-0.4222,1.043-0.8157,1.2901
			c-1.7253,1.0837-2.2651,2.3091-1.9204,4.3549c0.125,0.7421,0.2246,1.6672-0.1038,2.269c-0.6344,1.1626-0.0706,1.8346,0.604,2.5681
			c0.6383,0.6941,1.3252,1.3453,1.9385,2.0603c0.7828,0.9126,1.2199,1.8697,0.803,3.1789
			c-0.4131,1.2973-1.3535,1.2216-2.3456,1.3232c-6.1315,0.6276-12.2605,1.2788-18.3905,1.9215
			c-7.1373,0.7484-14.2733,1.5096-21.4131,2.2337c-1.5918,0.1615-3.1971,0.1914-4.2722,0.2522
			c-1.3454-0.8816-2.527-1.3983-3.3292-2.2658c-0.6063-0.6557-0.8845-1.7357-1.0268-2.6698
			c-0.195-1.281-0.0889-2.6048-0.1731-3.9063c-0.156-2.4091-1.4786-4.1854-3.1668-5.7772c-2.6136-2.4644-5.2002-4.9576-7.7825-7.455
			c-1.0313-0.9973-2.0698-1.9947-3.0179-3.0689c-1.5644-1.7724-3.2314-2.0473-5.3999-1.0651
			c-0.7118,0.3224-1.82,0.5947-2.2393-0.7346c-0.2981-0.945-0.7254-1.8483-1.0667-2.7806c-0.792-2.1633-2.2149-3.0649-4.5491-3.0846
			c-0.8183-0.0069-1.6483-0.3493-2.4471-0.6158c-1.8068-0.6028-3.57-1.3539-5.4026-1.8562
			c-1.7509-0.4799-2.7949-1.6444-3.9855-2.9183c-1.817-1.9441-3.8733-3.7929-6.1455-5.1508
			c-2.8296-1.691-6.0233-0.937-8.9521,0.0357c-1.6866,0.5601-3.0946,0.6151-4.5236-0.3933
			c-1.1242-0.7934-2.2485-1.5885-3.3418-2.4233c-1.2174-0.9295-1.0552-2.1721-0.9396-3.5417
			c0.1793-2.123,0.0488-4.2728,0.0372-6.4111c-0.0031-0.5788,0.029-1.175-0.0939-1.7327c-0.2977-1.3508-0.9794-2.486-2.321-3.0143
			c-1.8189-0.7161-2.5239-2.2058-2.8848-3.9432c-0.2637-1.2692-0.717-2.2944-1.805-3.1933
			c-1.951-1.6118-3.7364-3.4387-5.4711-5.2881c-0.4692-0.5003-0.4396-1.4365-0.7591-2.1162
			c-0.5449-1.1591-0.9067-2.6703-1.8417-3.3255c-2.0616-1.4447-3.4743-3.2778-4.6595-5.4124
			c-0.6354-1.1445-1.5459-2.1403-2.1448-3.3c-0.6655-1.2887-1.2772-2.6493-1.6135-4.0503c-0.2812-1.1716,0.1303-2.212,1.5688-2.6025
			c2.092-0.5679,1.5957-2.5158,1.6432-3.8888c0.0985-2.8493-2.3379-5.1594-5.178-5.5131c-0.7559-0.0941-1.6883-0.5398-2.117-1.1307
			c-0.9487-1.3078-1.8547-2.7348-2.3618-4.2524c-0.6398-1.9147-0.9111-3.9603-1.2442-5.9656
			c-0.1199-0.7216,0.0418-1.4901,0.0872-2.5133c1.1412,0.9838,1.9774,1.8157,2.9266,2.4884
			c0.7792,0.5523,1.6635,1.2217,2.6664,0.3395c1.0295-0.9057,0.81-2.0345,0.3237-3.0402c-0.6211-1.2844-1.5048-2.44-2.154-3.713
			c-0.5097-0.9996-0.9164-2.0724-1.1948-3.1573c-0.0873-0.34,0.3285-0.8764,0.6219-1.2345
			c0.9927-1.2117,0.9119-2.6565-0.2915-4.1297c-0.8374-1.025-2.8558-1.4464-3.8619-0.6553
			c-0.3478,0.2735-0.4996,1.0085-0.4673,1.5153C30.0439,94.868,29.7092,96.4948,27.7634,97.8897z"/>
		<path fill="#FFFFFF" d="M30.2802,98.771c0.6683-1.9901,1.3187-3.9268,2.0035-5.966c0.8441,0.5623,1.616,1.4272,0.6942,2.5155
			c-1.126,1.3295-1.1512,2.5058-0.267,3.8744c0.1272,0.1968,0.1094,0.4873,0.1818,0.8504
			C31.8502,99.5369,30.9679,99.1065,30.2802,98.771z"/>
		<path fill="#FFFFFF" d="M35.7304,105.47c-1.6778-0.5555-2.8476-1.502-2.3319-3.7459
			C34.2526,103.0962,34.9915,104.2831,35.7304,105.47z"/>
	</g>
</g>
</svg>
