<?xml version="1.0" encoding="utf-8"?>
<!-- Generator: Adobe Illustrator 19.0.0, SVG Export Plug-In . SVG Version: 6.00 Build 0)  -->
<svg version="1.1" id="XMLID_1_" xmlns="http://www.w3.org/2000/svg" xmlns:xlink="http://www.w3.org/1999/xlink" x="0px" y="0px"
	 viewBox="-217 260.1 175.1 273.9" style="enable-background:new -217 260.1 175.1 273.9;" xml:space="preserve">
<style type="text/css">
	.st0{fill:#52B8BE;}
</style>
<g id="XMLID_229_">
	<g id="XMLID_303_">
		<path id="XMLID_335_" class="st0" d="M-44.4,470.4c-2.5-1.9-5.1-3.8-7.9-5.2c-3.5-1.7-6.9-1.3-9.7,2.1c-0.2,0.3-0.6,0.6-1,0.6
			c-0.9,0-1.8-0.1-2.8-0.2c0.3-0.7,0.5-1.5,0.8-2.1c0.2-0.4,0.8-0.6,1.1-1c2.6-3,3.9-6.4,0.5-9.2c-1.2-1-2.2-2.2-3.4-3.5
			c0.5-0.3,0.6-0.4,0.8-0.5c1.6-0.6,1.7-1.3,0.4-2.5c-1.4-1.4-2.8-2.8-3.9-4.3c-0.9-1.2-1.6-2.7-1.3-3.9c1-0.6,1.6-1,2.3-1.4
			c-0.4-0.6-0.7-1.2-1.1-1.7c-0.2-0.2-0.4-0.4-0.6-0.6c-1.8-2.3-3.8-4.6-5.4-7c-2-3.1-4.7-4.7-7.9-4.3c-0.2-0.7-0.5-1.4-0.7-2.1
			c-0.6-1.8-1-3.6-1.7-5.3c-0.8-1.8-1.3-3.5-1.3-5.4c-0.1-1.4-0.9-2.8-1.2-4.2c-0.4-1.5-0.9-3-0.9-4.5c-0.1-2.9-1.4-5.1-3.3-7
			c-1-1-2.2-1.8-2.9-3c-1.2-1.8-2.5-2.9-4.8-2.9c-0.9,0-2-0.5-2.5-1.1c-1.7-1.9-1.7-1.9-3.9-0.8c-1.8,0.9-3.7,1.6-6.2,1.2
			c2.3-1.1,3.7-2.9,6.3-2.5c1,0.2,2.3-0.7,3.2-1.4c1.5-1.1,1.1-2.7-0.6-3.4c-0.7-0.3-1.3-0.7-1.6-1c-0.3-2.3,1.2-3.1,2.5-4.1
			c1.1-0.9,2.1-2.3,2.5-3.6c0.5-2.2,1.8-3.8,2.9-5.7c1.5-2.5,2.8-5.3,3.4-8.1c0.4-1.8,1-3.5,1.8-5c1.6-3,1.1-6.3-1.8-8
			c-1.4-0.8-2.8-1.6-4.9-1.4c-3.3,0.3-6.8-0.3-10.2-0.5c-2.5-0.1-5-0.6-7.4,1.3c-1.7,1.4-3.8,2.5-6.1,2.5c1-1.5,2.1-2.9,3-4.5
			c1.2-2.1,1.2-2.2-0.6-3.6c0.3-3.1,2.8-4.5,4.8-6.2c1.3-1,3-1.6,4.5-2.5c2.2-1.4,3.7-5.3,2.9-7.4c-0.3-0.8-0.8-1.4-1.2-2.1
			c0.9-1.4,0.8-2.3-0.3-2.7c-1.5-0.5-3.1-0.5-4.2,0.6c-1.2,1.2-2.8,1.1-4,0.9c-3.3-0.4-6.2-0.1-8.8,2.3c-1.6-2.1-2.9-0.7-4.1,0.4
			c-1.7-2.2-4.1-3.4-5.5-2.3c-2.3,1.8-3.2,4.3-1.9,7.2c-4,1.5-4,1.5-4.1,5.7c-0.1,1.9,0,3.7,0,6.2c-1.8-1.7-3.1-1.9-3.4,0.2
			c-0.8,0.3-1.7,0.3-1.8,0.7c-0.3,0.8-0.4,1.7-0.3,2.6c0.2,1.5,0.7,3,1.1,4.3c-0.7,0.6-1.3,1.4-2,1.4c-1.6,0.1-1.7,1.2-1.6,2.2
			c0.1,1.3,0.6,2.5,0.9,4.1c-0.6-0.1-1.3-0.1-1.6-0.4c-0.3-0.3-0.3-1-0.2-1.5c0.6-2.4,0.1-4.5-1.6-6.3c-0.3-0.4-0.7-0.7-1-1.1
			c-1.2-1.5-1.9-1.5-3,0.2c-0.2,0.4-0.4,0.8-0.6,1.2c-1.7-0.5-2.8,0.6-3.3,1.7c-0.4,0.8,0.1,2.2,0.6,3.2c0.6,1.1,1.8,1.8,2.4,2.9
			c0.9,1.5,1.7,3.2,2.5,4.8c-1.3,0.5-2.5,2.1-2.3,3.1c0.3,1,0.9,1.7,2,1.3c1.9-0.7,1.4-2.3,1.2-3.6c1.6-0.4,3.1-0.7,4.3-1
			c0.4,1.1,0.8,2.3,1.3,3.5c-2.1,0.6-2.4,1.3-1.2,4.4c-2.5-1-4.5-0.5-5.6,2c-0.3,0.7,0.2,1.6,0.3,2.8c-2.3,1.4,0.1,3.2,0.2,4.4
			c-0.9,1.2-1.8,2-2.2,3c-0.6,1.6,0.7,3.1,2.2,2.7c2.3-0.7,4.6-1.4,6.9-2.3c0.7-0.3,1.2-0.9,1.9-1.3c-0.3,0.6-0.6,1.3-0.9,1.9
			c-0.3,0.9-1,2-0.8,2.8c0.6,2.1-0.8,2.6-2.2,3c-1.5,0.5-2.4,1.1-2.3,2.9c0,1.5-0.2,2.8-2.4,2.6c-1.9-0.1-3,1.2-2.9,2.6
			c0.1,1.6,1.6,3.4,3,3.4c1.5,0.1,4-1.7,4.2-3.5c0.4-2.8,2.1-4.3,5.2-5.2c-0.6,0.9-1.2,1.4-1.5,2.1c-0.3,0.8-0.7,1.7-0.6,2.6
			c0.1,0.5,1,0.8,1.4,1.1c-0.6,2-1.3,4-1.7,6.1c-0.2,1.1-0.2,2.3,0,3.4c0.2,0.7,1,1.8,1.6,1.8c0.8,0,1.7-0.7,2.3-1.3
			c0.6-0.7,0.8-1.7,1.1-2.5c1.3,1.5,2.1,1.5,3.4,0c2.4-2.9,2.1-4.7-1.2-6.2c-0.1,0-0.1-0.2-0.2-0.3c0.2-0.5,0.5-1.1,0.7-1.5
			c0.9,0.6,1.8,1,2.6,1.7c0.8,0.7,1.3,1.9,2.2,2.4c1.9,1,1.7,2.4,1.1,3.9c-0.4,1-0.9,1.9-1.3,2.8c-0.6,1.3-1.1,2.6-1.7,3.9
			c-0.3,0.8-0.8,1.5-1.2,2.3c-0.5,1.2-1.4,2.3-1.5,3.5c-0.1,1.7,0.4,3.4,0.7,5.1c0.3,1.6,1.2,2.4,2.8,2.7c1.6,0.3,2.1-0.8,2.7-1.9
			c1.2,0.6,2.4,1.6,3.7,1.8c1.5,0.3,2.7-0.7,3-2.5c2,0.9,4.1,1,5.6-0.4c1.9-1.8,3.9-2.8,6.5-2.8c0.4,0,1,0.1,1.1,0.3
			c0.2,0.4,0.3,1.1,0,1.4c-0.6,0.7-1.3,1.3-2.1,1.8c-3.2,2.2-3.8,4.1-1.4,7.5c1.5,2.2,2.4,4.7,3.4,7.1c0.4,0.9,1.5,1.8,2.4,2.1
			c0.6,0.2,1.6-0.7,2.4-1.2c0.3-0.2,0.4-0.6,0.6-0.9c0.2,0,0.4,0.1,0.6,0.1c-0.1,0.4,0,1.1-0.2,1.3c-1.6,0.9-2.4,2.2-2.2,4.1
			c0,0.2-0.1,0.5-0.2,0.6c-1.4,1.3-0.7,2.3,0.6,3.3c-1.6,1.5-1.8,3.3-1.2,5.3c0.1,0.3-0.1,0.9-0.2,0.9c-1.2,0.2-1.1,1.2-1.4,2
			c-0.3,0.6-0.6,1.4-1.4,0.6c-1.3-1.2-2.6-1-4.1-0.3c-2,1-3.9,2.5-6.4,1.2c-0.6-1.7-1.3-2.1-3.1-1.9c-0.5,0.1-1.2-0.4-1.6-0.8
			c-0.7-0.6-1.2-1.5-2.2-0.9c-2.1,1.1-2.5,4-0.7,5.7c0.8,0.8,1.6,1.7,2.5,2.6c-1.2,1-2.2,1.9-3.1,2.8c-1.1,1.2-2.2,2.3-3,3.7
			c-1,1.7-0.3,2.8,1.7,3.1c1.9,0.2,2.8-1.2,3.8-2.3c1.5-1.6,3.3-1.4,4.1,0.7c1.5,4.2-0.1,8-2.5,11c-2,2.5-5.4,3.9-8.4,5.4
			c-1.5,0.8-3.6,0.7-5.2,1.4c-1,0.4-2,1.5-2.2,2.5c-0.2,0.6,0.9,1.7,1.6,2.8c-0.3,1-0.1,2.1,1,2.6c2.4,1.1,4.8,1.4,7.3,0.1
			c1.6-0.8,3.3-1.3,5-2c0.1,0.2,0.2,0.3,0.4,0.5c-0.1,0.4-0.3,0.9-0.4,1.3c-0.6,1.5,0.3,2.7,1.2,3.6c0.5,0.5,1.9,0.7,2.7,0.3
			c1.5-0.6,2.6-0.3,3.6,0.7c3,2.7,6.8,2.8,10,0.4c0.7-0.5,1.6-0.7,2.4-1.1c0.2,0.2,0.3,0.4,0.5,0.6c-2.8,0.9-2.1,3.4-2.6,5
			c-2,0.2-3.9,0.5-5.7,0.7c-1,0.1-2.1,0-3.1-0.1c-1.3-0.2-2.5-0.7-3.8-0.9c-1.8-0.2-3.3,0.9-3.4,2.7c-0.1,1.2-0.9,1-1.7,1
			c-2.7-0.1-3.6,0.8-4.1,3.5c-0.2,1.2-0.9,2.5-1.6,3.6c-0.6,1-1.5,1.7-2.3,2.6c-2.4,2.5-4.9,5-7.4,7.5c-0.2,0.2-0.7,0.3-1,0.5
			c-2.3,1.1-3.4,2.5-3.1,4.4c0.1,0.4,0.7,1.2,1,1.1c1.6-0.3,2.5,0.7,3.6,1.4c1,0.6,2.2,0.8,3.4,1c0.4,0,1.2-0.7,1.2-0.9
			c-0.4-2.7,0.7-4.1,3.4-4.5c1.7-0.3,3.3-1,4.9-1.5c1-0.3,1.9-0.6,2.9-0.8c0.4-0.1,0.9,0,1.4,0.2c1.8,0.7,3.5,1.5,5.3,2.3
			c1.6,0.7,2.7,0.2,3.3-1.3c0.6-1.6,1.1-3.3,1.3-5.1c0.2-1.5,0.8-2.4,2.4-2.6c1.4-0.1,2.7-0.3,4.1-0.7c2-0.6,3.5-0.3,4.8,1.5
			c0.5,0.7,1.3,1.3,2.1,1.7c0.9,0.5,2.1,0.7,2.6-0.5c0.5-1.5,1.4-1.3,2.5-1.1c2.5,0.4,3.3,0,4.6-2.3c1.9,1.1,3.9,2.2,5.8,3.2
			c1.6,0.9,2.8,0.8,4.1-0.6c1-1,2.1-2.2,0.1-4c2.1,0.2,3.6,0.5,5,0.4c1.9-0.2,3.9-0.4,5.6-1.2c2-0.9,3.4-0.2,4.9,0.7
			c3.4,2.1,6.4,1.7,9.3-1c0.6-0.6,1.8-1.1,2.4-0.9c1.5,0.4,2.3-0.2,2.8-1.3c0.9-1.8,2.3-2.7,3.9-3.6c3.1-1.7,3.6-6.1,1.2-8.5
			c-0.3-0.3-1-0.4-1.5-0.3c-1.2,0.3-2.5,0.7-3.6,1.2c-1.3,0.6-2.2,0.5-2.6-0.6c1-1.2,2-2.2,2.8-3.3c0.9-1.3,0.9-2.7-0.5-4.1
			c2.2,0.5,3.8,0,4.8-1.5c0.3-0.5,0.1-1.4,0.1-1.7c1.4-1.5,2.9-2.6,3.9-4c1.4-2.1,2.4-4.4,3.5-6.7
			C-41.3,476.9-42.2,472.1-44.4,470.4z M-144.9,376.7c0.8,2.4,0.5,3.4-1,3.9C-145.7,379.4-145.3,378.2-144.9,376.7z"/>
		<path id="XMLID_324_" class="st0" d="M-143.4,431.1c0.4-1.4,0.8-2.8,0.8-4.2c0-2.4-1.6-3.7-4.5-4.4c-0.6-1.7-0.7-3.4-1.6-4.6
			c-1-1.4-1.3-2.5-0.6-4.1c0.7-1.8,0-3.7-1.7-4.4c-1.5-0.6-3.3-1-4.9-1.1c-3-0.3-6-0.3-8.5,2.2c-0.3-2.8-1.2-4.3-2.8-4.3
			c-2.7,0-5.7-0.4-7.4,2.6c-2.7-1.8-3.6-1.8-5.9,0.2c-0.3,0.3-0.7,0.5-1.1,0.8c-1.8,1.4-4.7,1.9-4.4,5c0.3,3-1.3,4.1-4,4.5
			c-0.6,0.1-1.4,0.7-1.6,1.3c-0.6,2,2.4,6.2,5.1,5.2c1-0.4,2.2-0.4,3.3-0.7c0.1,0.2,0.2,0.3,0.3,0.5c-0.6,0.5-1.2,1-1.8,1.5
			c-0.9,0.9-2.2,1.7-2.4,2.8c-0.4,2.1-1.6,2.8-3.4,3.2c0,0,0,0,0,0c-0.4-0.2-0.8-0.7-1.1-0.6c-1.7,0.2-3.5,0.5-5.3,0.7
			c0-0.1-0.2-0.4-0.3-0.7c-1.2-2.5-1.2-2.5-4-2.3c-1.8,0.2-3.6,0.5-5.4,0.7c-2.3,0.4-3.5,1.4-3.7,3.1c-0.2,1.8-0.6,3.5-0.7,5.3
			c0,0.5,0.7,1.4,1.3,1.6c1.4,0.6,3,0.9,4.5,1.4c0.4,0.1,0.8,0.4,1.1,0.6c-0.3,0.3-0.6,0.7-1,0.8c-1.5,0.4-2.5,1.3-2.5,2.9
			c0,1.3-0.6,1.6-1.6,1.3c-1.2-0.3-1.9,0.2-1.8,1.4c0.1,0.9,0.3,1.9,0.8,2.6c1.5,1.7,2.5,4.5,5.6,3.7c1.5,3.4,4.3,4.1,7.1,1.8
			c0.6-0.5,1.1-0.9,1.7-1.2c0.3-0.1,1,0,1.2,0.3c0.3,0.4,0.5,1.1,0.4,1.6c-0.1,0.5-0.7,0.8-0.9,1.2c-2.7-1-3.1-0.7-4.3,1.7
			c-0.8,1.6-2,3.1-3.1,4.5c-0.8,1-1.9,1.9-2.8,2.8c-2,2.2-2,2.9-0.2,5.1c0.2,0.3,0.5,0.5,0.8,0.7c-1.4,1-2.8,1.7-2.6,3.7
			c0.1,1.3-0.5,1.9-2,1.7c-2.2-0.2-4.5-0.6-6.3,1.1c-0.5,0.5-1.2,1.3-1.1,1.8c0.1,0.5,1,1.1,1.7,1.3c1.6,0.4,3.3,0.5,5.1,0.8
			c-1.4,0.9-2.6,1.6-3.8,2.5c-0.5,0.4-1.2,1.2-1.1,1.8c0.1,0.5,0.9,1.2,1.5,1.4c1.2,0.4,2.4,0.6,3.9,0.9c-0.2,0.8-0.5,1.5-0.7,2.3
			c-0.3,0.9,0.1,1.4,1,1.5c1.1,0.2,2.2,0.4,2.9,0.5c0.4,1,0.4,1.9,0.9,2.1c1,0.5,2.2,0.6,3.3,0.9c2.2,0.5,4-0.8,5.9-1.3
			c3.1-0.8,6.1-2,9.1-3.1c0.6-0.2,1.4-0.9,1.6-1.5c0.6-1.7,1.3-2.7,3.5-2.9c2-0.1,3.9-1.4,5.7-2.2c0.7-0.3,1.5-0.8,1.7-1.4
			c0.6-1.9,1.6-1.8,3.2-1.4c2.3,0.6,4.6,0.6,6.5-1.4c0.8-0.9,1.9-1.6,3.5-0.5c1.7,1.1,3.9,0.4,4.4-1.1c0.8-2.4,1.7-4.7,2.2-7.2
			c0.4-1.8,0.2-3.7,0.6-5.4c0.6-2.5,1.6-4.9,2.5-7.4c0.9-2.4,0.5-4.2-1.3-5.9c-1.1-1.1-1.9-2.2-1.1-4.1c0.6-1.3,0.7-2.9,0.5-4.4
			c-0.3-2.1-1.1-4.1-1.7-6.3c0.5-0.1,1-0.4,1.6-0.4c1.9,0.1,2.8-1.1,3.6-2.6c0.3-0.6,0.9-1.1,1.5-1.3
			C-146,435.8-144.2,433.9-143.4,431.1z"/>
		<path id="XMLID_323_" class="st0" d="M-89.5,275.1c0.2,1,0.1,2.2,0.7,2.9c0.4,0.6,1.5,1,2.4,1.2c2.6,0.3,3.2,1,2.9,3.6
			c-0.1,1.2-0.4,2.4-0.3,3.6c0.1,0.8,0.9,2,1.4,2c0.8,0.1,1.9-0.5,2.4-1.2c0.8-1,1.1-2.2,0.3-3.6c-0.5-0.9-1-2.2,0.7-2.4
			c1.3-0.2,1.5-1.2,1.2-1.9c-0.9-1.9,0.4-2.7,1.4-3.8c0.5-0.5,1-0.9,1.5-1.4c0.7-0.8,0.7-1.6-0.3-2.1c-0.8-0.4-1.7-0.4-2.6-0.7
			c-0.1-0.7-0.1-1.4,1-2.1c0.9-0.5,2-1.5,1.2-3c-0.1-0.3,0.2-1,0.5-1.3c1.8-1.6,1.6-3.7-0.7-4.5c-0.4-0.2-0.8-0.3-1.4-0.5
			c-0.3,0.8-0.7,1.4-0.9,2.1c-0.4,1.4-1.1,2.3-2.7,2.3c-0.4,0-1.1,0.3-1.1,0.5c-0.2,1.7-1.5,1.2-2.5,1.6c-1.1,0.3-2.3,1.2-2.7,2.2
			c-0.4,0.9,0.3,2.1,1.7,2.3c0.2,0,0.5,0.5,0.6,0.8c0.2,0.9,0.2,1.7,0.3,3c-1-0.2-1.8-0.4-2.5-0.4
			C-87.9,274.7-88.7,274.9-89.5,275.1z"/>
		<path id="XMLID_322_" class="st0" d="M-113.4,318.1c1.7,0.8,3,0.5,3.6-1c0.3-0.7,0.4-1.5,0.6-2.2c0.2,0.1,0.4,0.1,0.5,0.2
			c-0.2,0.7-0.6,1.3-0.6,2c0,0.9,0.1,2,0.5,2.7c0.2,0.3,1.5,0.4,2,0.1c1.1-0.7,2.1-1.7,1.9-3.2c0-0.5,0-1.4,0.4-1.6
			c1.3-1,1.3-2.2,1-3.5c1.5,0.2,1.8-0.1,1.4-1.5c-0.3-1.2-0.3-1.9,1.2-2.3c2.2-0.5,3-2.8,1.9-4.8c-0.4-0.8-0.9-0.8-1.5-0.1
			c-0.9,0.9-2,1.7-3.3,2.8c-0.3-2.5-1.1-3.8-2-3.9c-0.9,0-2.6,1.2-2.4,2.1c0.1,0.6,0.8,1.2,1.5,2.2c-0.1,0.7-1.7,1.6-2.8,0.8
			c-1.5-1.2-2.4-0.1-3.5,0.6c-1.2,0.9-1.7,2.2-1.1,3.5c0.6,1.5,0.4,2.7-0.4,4.1C-115.1,316.4-114.8,317.5-113.4,318.1z"/>
		<path id="XMLID_321_" class="st0" d="M-165.5,338.5c-0.3,0.4-0.7,0.6-0.7,0.9c-0.3,1.3-0.6,2.6-0.7,4c-0.2,1.9,0.3,2.4,2,2.9
			c1.2,0.3,2.2-0.6,2.7-2.1c0.1-0.4,0.3-0.7,0.4-1c2.5,0.6,2.8,0.3,2.4-2.7c1.5,0.9,2.4,0.7,3.2-0.7c0.4-0.8,0.3-1.9,0.5-2.8
			c0.1-0.8,0.2-1.5,0.5-2.2c0.5-1,1.1-2,1.6-3c0.3-0.6,0.6-1.3,1-1.8c1-1,0.9-1.9-0.2-2.7c-0.5-0.4-1-0.8-1.6-1.3
			c-3.1,1.4-7.1,1.9-7.8,6.5c-1.8-0.2-3.9-1.4-4.8,1.4C-167.7,335.7-167.3,337.3-165.5,338.5z"/>
		<path id="XMLID_320_" class="st0" d="M-171.9,360.6c0,0.3-0.3,0.7-0.6,1c-2.3,2.6-1.5,5.7-1.7,8.6c0.2,0.1,0.5,0.2,0.7,0.3
			c0.5-0.6,1.1-1.1,1.4-1.8c1-2,1.7-3.9,3.7-5.3c0.7-0.5,1.1-1.7,1.3-2.7c0.6-3.1,0.6-6.3,1.6-9.2c0.8-2.3,0.1-3.6-1.3-5.1
			c-0.4-0.4-0.7-1-1.1-1c-2.6-0.2-4.6,2.4-3.6,4.9C-170,353.8-172.2,357.1-171.9,360.6z"/>
		<path id="XMLID_319_" class="st0" d="M-130.3,437.2c1.2-1.2,2.4-2.6,3.4-4.1c0.4-0.6,0.6-2.1,0.2-2.4c-1-0.9-2.4-1.4-3.7-1.9
			c-0.1,0-0.7,1.1-1,1.8c-0.1,0.2-0.3,0.4-0.4,0.7c-0.9,1.5-1.8,3-2.5,4.6c-0.8,1.7-0.2,2.4,1.8,2.8
			C-131.9,438.1-130.9,437.8-130.3,437.2z"/>
		<path id="XMLID_318_" class="st0" d="M-163.2,375.4c-1.3,0.4-1.4,1-0.4,2.2c1.6-0.9,3.1-1.9,4.7-2.9c0-0.2-0.1-0.4-0.1-0.6
			c-0.5,0-1,0-1.4,0.1C-161.3,374.7-162.2,375.2-163.2,375.4z"/>
		<path id="XMLID_317_" class="st0" d="M-158.4,530.8c-0.5,1-1,1.9-1.6,2.8c1.2,0.9,2,0.1,2.6-0.8
			C-156.7,531.7-157.4,531.2-158.4,530.8z"/>
		<path id="XMLID_311_" class="st0" d="M-127.1,309.4c0.4,0.2,1.1-0.1,1.6-0.2c0.1,0,0.1-0.7,0-0.8c-0.6-0.3-1.2-0.6-1.8-0.8
			c-0.1,0.1-0.3,0.3-0.4,0.4C-127.4,308.5-127.4,309.2-127.1,309.4z"/>
		<path id="XMLID_310_" class="st0" d="M-145.3,309.2c0-0.2,0-0.3,0-0.5c-1,0-1.9,0-3.2,0C-147.2,310.3-146.3,309.7-145.3,309.2z"/>
		<path id="XMLID_309_" class="st0" d="M-87.2,297.9c1,0.3,1.5-0.2,1.5-1.8c-0.8,0.2-1.5,0.4-2.1,0.6
			C-87.7,297.2-87.5,297.8-87.2,297.9z"/>
		<path id="XMLID_308_" class="st0" d="M-185.1,343c0-0.2-0.1-0.5-0.1-0.7c-0.8,0.1-1.7,0.3-2.7,0.5
			C-186.7,344.5-185.9,343.7-185.1,343z"/>
		<path id="XMLID_306_" class="st0" d="M-157,372.5c-0.3-0.2-0.5-0.5-0.8-0.7c-0.5,0.5-0.9,0.9-1.3,1.4c0,0.1,0.5,0.6,0.8,0.9
			C-157.9,373.5-157.5,373-157,372.5z"/>
		<path id="XMLID_305_" class="st0" d="M-174.8,331.8c0.7,0.2,1.5,0.3,2.3,0.4c0.1-0.4,0.1-0.7,0.2-1.1c-0.8,0-1.7,0-2.5,0
			C-174.8,331.4-174.9,331.8-174.8,331.8z"/>
		<path id="XMLID_304_" class="st0" d="M-159.7,362.8c-0.3,0.6-0.4,1.2-0.6,1.9c0.3,0.1,0.6,0.2,0.8,0.3c0.2-0.6,0.5-1.3,0.7-1.9
			C-159.1,363-159.7,362.8-159.7,362.8z"/>
	</g>
	<g id="_x38_O9bnJ.tif_2_">
		<g id="XMLID_230_">
			<path id="XMLID_295_" d="M-146,380.6c-0.6,0.5-1.2,1.1-2,1.4c-2.3,0.8-4.6,1.6-6.9,2.3c-1.5,0.4-2.9-1.1-2.2-2.7
				c0.4-1,1.3-1.8,2.2-3c-0.2-1.2-2.5-3-0.2-4.4c-0.2-1.2-0.6-2.1-0.3-2.8c1-2.5,3-3,5.6-2c-1.1-3.1-0.9-3.8,1.2-4.4
				c-0.4-1.2-0.8-2.4-1.3-3.5c-1.2,0.3-2.7,0.6-4.3,1c0.1,1.2,0.7,2.9-1.2,3.6c-1,0.4-1.7-0.3-2-1.3c-0.3-1.1,0.9-2.7,2.3-3.1
				c-0.8-1.6-1.5-3.3-2.5-4.8c-0.7-1.1-1.8-1.8-2.4-2.9c-0.5-0.9-1-2.3-0.6-3.2c0.5-1.2,1.6-2.2,3.3-1.7c0.2-0.4,0.4-0.8,0.6-1.2
				c1.1-1.6,1.8-1.7,3-0.2c0.3,0.4,0.6,0.8,1,1.1c1.7,1.8,2.3,3.9,1.6,6.3c-0.1,0.5-0.1,1.2,0.2,1.5c0.3,0.3,1,0.3,1.6,0.4
				c-0.4-1.5-0.8-2.8-0.9-4.1c-0.1-1-0.1-2.1,1.6-2.2c0.6,0,1.2-0.9,2-1.4c-0.3-1.3-0.8-2.8-1.1-4.3c-0.1-0.8,0-1.8,0.3-2.6
				c0.1-0.3,1-0.4,1.8-0.7c0.3-2.1,1.7-1.9,3.4-0.2c0-2.4,0-4.3,0-6.2c0.1-4.2,0.1-4.2,4.1-5.7c-1.3-2.9-0.4-5.4,1.9-7.2
				c1.4-1.1,3.8,0,5.5,2.3c1.2-1.1,2.5-2.5,4.1-0.4c2.6-2.4,5.5-2.7,8.8-2.3c1.2,0.2,2.8,0.2,4-0.9c1.1-1.1,2.7-1.1,4.2-0.6
				c1.1,0.4,1.2,1.3,0.3,2.7c0.4,0.7,0.9,1.4,1.2,2.1c0.8,2.1-0.8,6-2.9,7.4c-1.4,0.9-3.1,1.5-4.5,2.5c-2.1,1.6-4.5,3.1-4.8,6.2
				c1.7,1.4,1.8,1.4,0.6,3.6c-0.9,1.5-2,2.9-3,4.5c2.3,0,4.5-1.1,6.1-2.5c2.4-1.9,4.8-1.5,7.4-1.3c3.4,0.2,6.8,0.8,10.2,0.5
				c2-0.2,3.4,0.6,4.9,1.4c2.9,1.7,3.4,5,1.8,8c-0.8,1.5-1.5,3.2-1.8,5c-0.6,2.8-2,5.6-3.4,8.1c-1.1,1.9-2.4,3.5-2.9,5.7
				c-0.3,1.3-1.4,2.7-2.5,3.6c-1.3,1.1-2.8,1.8-2.5,4.1c0.4,0.2,1,0.7,1.6,1c1.7,0.6,2.1,2.3,0.6,3.4c-0.9,0.7-2.3,1.6-3.2,1.4
				c-2.6-0.4-4,1.4-6.3,2.5c2.5,0.5,4.4-0.3,6.2-1.2c2.2-1.1,2.2-1.1,3.9,0.8c0.6,0.6,1.7,1.1,2.5,1.1c2.3,0,3.6,1.1,4.8,2.9
				c0.7,1.1,1.9,2,2.9,3c1.9,2,3.2,4.1,3.3,7c0,1.5,0.5,3,0.9,4.5c0.4,1.4,1.2,2.8,1.2,4.2c0.1,1.9,0.6,3.7,1.3,5.4
				c0.7,1.7,1.2,3.5,1.7,5.3c0.2,0.7,0.5,1.4,0.7,2.1c3.2-0.5,5.9,1.2,7.9,4.3c1.6,2.5,3.6,4.7,5.4,7c0.2,0.2,0.4,0.4,0.6,0.6
				c0.4,0.6,0.8,1.2,1.1,1.7c-0.7,0.4-1.3,0.8-2.3,1.4c-0.3,1.3,0.4,2.7,1.3,3.9c1.1,1.6,2.5,2.9,3.9,4.3c1.2,1.2,1.2,1.9-0.4,2.5
				c-0.2,0.1-0.4,0.2-0.8,0.5c1.2,1.2,2.2,2.4,3.4,3.5c3.4,2.9,2,6.3-0.5,9.2c-0.3,0.4-0.9,0.6-1.1,1c-0.4,0.7-0.6,1.4-0.8,2.1
				c0.9,0.1,1.8,0.2,2.8,0.2c0.3,0,0.7-0.3,1-0.6c2.8-3.4,6.2-3.8,9.7-2.1c2.8,1.4,5.4,3.3,7.9,5.2c2.3,1.7,3.2,6.4,1.9,9
				c-1.1,2.3-2.1,4.6-3.5,6.7c-1,1.5-2.4,2.6-3.9,4c0,0.2,0.3,1.2-0.1,1.7c-1,1.5-2.6,2-4.8,1.5c1.4,1.4,1.4,2.8,0.5,4.1
				c-0.8,1.1-1.8,2.1-2.8,3.3c0.4,1.1,1.3,1.1,2.6,0.6c1.2-0.5,2.4-0.9,3.6-1.2c0.5-0.1,1.2,0,1.5,0.3c2.5,2.3,2,6.8-1.2,8.5
				c-1.7,0.9-3.1,1.9-3.9,3.6c-0.5,1.1-1.3,1.7-2.8,1.3c-0.7-0.2-1.8,0.3-2.4,0.9c-2.9,2.7-5.9,3.1-9.3,1c-1.5-0.9-2.9-1.6-4.9-0.7
				c-1.7,0.8-3.7,1-5.6,1.2c-1.5,0.1-3-0.2-5-0.4c2,1.8,0.9,3-0.1,4c-1.3,1.4-2.5,1.5-4.1,0.6c-1.9-1.1-3.9-2.2-5.8-3.2
				c-1.2,2.3-2.1,2.7-4.6,2.3c-1.1-0.2-2-0.3-2.5,1.1c-0.4,1.2-1.7,0.9-2.6,0.5c-0.8-0.4-1.6-1-2.1-1.7c-1.3-1.7-2.8-2-4.8-1.5
				c-1.3,0.4-2.7,0.6-4.1,0.7c-1.6,0.2-2.2,1.1-2.4,2.6c-0.3,1.7-0.7,3.4-1.3,5.1c-0.6,1.5-1.7,2.1-3.3,1.3
				c-1.7-0.8-3.5-1.5-5.3-2.3c-0.4-0.2-0.9-0.3-1.4-0.2c-1,0.2-1.9,0.5-2.9,0.8c-1.6,0.5-3.2,1.2-4.9,1.5c-2.7,0.4-3.8,1.8-3.4,4.5
				c0,0.3-0.8,1-1.2,0.9c-1.2-0.2-2.4-0.4-3.4-1c-1.1-0.7-2-1.7-3.6-1.4c-0.3,0.1-1-0.7-1-1.1c-0.3-1.8,0.8-3.2,3.1-4.4
				c0.3-0.2,0.7-0.2,1-0.5c2.5-2.5,4.9-5,7.4-7.5c0.8-0.8,1.7-1.6,2.3-2.6c0.7-1.1,1.3-2.3,1.6-3.6c0.5-2.7,1.4-3.6,4.1-3.5
				c0.8,0,1.6,0.2,1.7-1c0.2-1.7,1.6-2.9,3.4-2.7c1.3,0.1,2.5,0.7,3.8,0.9c1,0.2,2.1,0.2,3.1,0.1c1.8-0.1,3.6-0.4,5.7-0.7
				c0.5-1.6-0.2-4.1,2.6-5c-0.2-0.2-0.3-0.4-0.5-0.6c-0.8,0.3-1.7,0.6-2.4,1.1c-3.2,2.4-7,2.3-10-0.4c-1-0.9-2.1-1.3-3.6-0.7
				c-0.7,0.3-2.2,0.2-2.7-0.3c-0.9-0.9-1.8-2.1-1.2-3.6c0.2-0.4,0.3-0.9,0.4-1.3c-0.1-0.2-0.2-0.3-0.4-0.5c-1.7,0.6-3.4,1.1-5,2
				c-2.5,1.3-4.9,1-7.3-0.1c-1.1-0.5-1.2-1.5-1-2.6c-0.7-1.1-1.8-2.1-1.6-2.8c0.3-1,1.3-2.1,2.2-2.5c1.6-0.7,3.6-0.6,5.2-1.4
				c3-1.5,6.4-2.9,8.4-5.4c2.4-2.9,4-6.8,2.5-11c-0.7-2.1-2.6-2.3-4.1-0.7c-1,1.1-1.9,2.6-3.8,2.3c-2-0.2-2.7-1.4-1.7-3.1
				c0.8-1.3,1.9-2.5,3-3.7c0.9-1,2-1.8,3.1-2.8c-0.9-0.9-1.7-1.8-2.5-2.6c-1.7-1.6-1.4-4.6,0.7-5.7c1.1-0.6,1.6,0.3,2.2,0.9
				c0.4,0.4,1.1,0.9,1.7,0.8c1.8-0.2,2.5,0.2,3.1,1.9c2.5,1.3,4.5-0.2,6.4-1.2c1.5-0.7,2.7-1,4.1,0.3c0.8,0.8,1.2,0,1.4-0.6
				c0.3-0.8,0.2-1.8,1.4-2c0.1,0,0.3-0.6,0.2-0.9c-0.6-2-0.4-3.8,1.2-5.3c-1.3-1-2-2-0.6-3.3c0.1-0.1,0.2-0.4,0.2-0.6
				c-0.2-1.9,0.6-3.2,2.2-4.1c0.2-0.1,0.2-0.8,0.2-1.3c-0.2,0-0.4-0.1-0.6-0.1c-0.2,0.3-0.3,0.7-0.6,0.9c-0.8,0.5-1.7,1.3-2.4,1.2
				c-1-0.3-2.1-1.2-2.4-2.1c-1-2.5-1.8-4.9-3.4-7.1c-2.4-3.5-1.8-5.4,1.4-7.5c0.8-0.5,1.5-1.1,2.1-1.8c0.2-0.3,0.2-1,0-1.4
				c-0.1-0.2-0.7-0.3-1.1-0.3c-2.6,0-4.6,1-6.5,2.8c-1.5,1.4-3.6,1.2-5.6,0.4c-0.3,1.9-1.5,2.8-3,2.5c-1.3-0.2-2.4-1.1-3.7-1.8
				c-0.6,1.1-1.1,2.2-2.7,1.9c-1.6-0.3-2.6-1.1-2.8-2.7c-0.3-1.7-0.8-3.4-0.7-5.1c0.1-1.2,0.9-2.4,1.5-3.5c0.4-0.8,0.8-1.5,1.2-2.3
				c0.6-1.3,1.1-2.6,1.7-3.9c0.4-1,0.9-1.9,1.3-2.8c0.6-1.5,0.8-2.9-1.1-3.9c-0.9-0.5-1.4-1.6-2.2-2.4c-0.8-0.7-1.7-1.1-2.6-1.7
				c-0.2,0.4-0.5,1-0.7,1.5c0.1,0.1,0.1,0.3,0.2,0.3c3.3,1.4,3.7,3.3,1.2,6.2c-1.3,1.5-2.1,1.5-3.4,0c-0.4,0.9-0.5,1.9-1.1,2.5
				c-0.6,0.6-1.5,1.3-2.3,1.3c-0.6,0-1.4-1.1-1.6-1.8c-0.3-1.1-0.3-2.3,0-3.4c0.4-2.1,1.1-4.1,1.7-6.1c-0.4-0.3-1.3-0.6-1.4-1.1
				c-0.1-0.8,0.2-1.7,0.6-2.6c0.3-0.6,0.8-1.2,1.5-2.1c-3.1,0.8-4.7,2.3-5.2,5.2c-0.3,1.7-2.8,3.6-4.2,3.5c-1.4-0.1-2.9-1.8-3-3.4
				c-0.1-1.5,1-2.8,2.9-2.6c2.2,0.2,2.4-1.1,2.4-2.6c-0.1-1.8,0.8-2.4,2.3-2.9c1.4-0.4,2.7-0.9,2.2-3c-0.2-0.8,0.5-1.9,0.8-2.8
				C-146.7,381.9-146.4,381.3-146,380.6c1.5-0.5,1.9-1.5,1.1-4C-145.4,378.2-145.7,379.4-146,380.6z M-143.9,398.4
				c2.1-1.4,3.3-2.8,1.6-5.3c-0.7-1-0.2-2.2,0.7-2.5c0.6-0.2,1.8,0.3,2.2,0.8c0.7,1,1,2.3,1.5,3.6c1.3-0.3,1.1-0.2,1.7,1
				c0.6,1.2,1.4,2.4,2.4,3.2c2.3,1.8,2.8,3,1.7,5.8c-0.7,1.8-1.5,3.6-2.2,5.3c-0.6,1.4-0.8,3.2-1.8,4c-2,1.7-1.6,3.6-1.3,5.6
				c0.2,1.1,0.6,2.2,0.9,3.3c0.2,0,0.4,0,0.5,0c0.3-0.4,0.7-0.7,0.9-1.2c0.7-1.6,1.4-1.9,2.9-0.8c0.4,0.3,0.7,0.7,1.1,1
				c1.6,1.1,2.5,0.7,2.8-1.2c0-0.2,0.1-0.4,0.3-0.8c0.9,0.2,1.8,0.4,2.7,0.4c1.1,0,2.6,0.2,3.2-0.4c2.1-2,4.3-3.2,7.3-3.2
				c1,0,1.9-0.3,2.6,0.7c0.8,1.2,1.5,2.5,0.5,3.8c-0.7,0.9-1.7,1.8-2.6,2.5c-2.5,1.8-2.9,3.1-1,5.5c1.6,2,2.6,4.2,3.2,6.6
				c0.1,0.4,0.6,0.7,0.8,1.1c0.4-0.3,0.9-0.5,1-0.9c0.4-1.2,1.3-1.5,2.2-1.1c1,0.5,2,1.1,2.5,2c0.3,0.5-0.2,2.1-0.7,2.4
				c-2,1.2-2.3,3-2.4,4.7c0.7,0.4,1.7,0.7,1.8,1.1c0.1,0.6-0.4,1.5-0.9,1.9c-1.8,1.6-1.5,3.5-1.2,5.5c0.1,0.6,0.2,1.3-0.1,1.7
				c-0.7,0.8-1.6,1.5-2.4,2.3c-1,1.1-2.2,1.1-3.3,0.3c-1-0.7-1.7-0.6-2.7,0c-1.2,0.7-2.6,1.3-3.9,1.6c-3.3,0.8-4.3,0.3-5.2-2.3
				c-1.6,0.8-3,0.2-4.4-1c-0.1,0.7,0,1.3,0.4,1.6c3.8,4.3,3.8,4.7-0.8,8.3c-1,0.8-1.7,1.8-2.5,2.8c0.2,0.1,0.3,0.3,0.5,0.4
				c0.6-0.6,1.4-1.2,1.9-1.9c1.3-1.7,2.7-2.1,4.6-1.2c2.6,1.3,2.9,3.8,3,6.2c0.1,3.4-1.4,6.4-3.1,9.3c-0.5,0.8-1.5,1.4-2.3,2
				c-1.2,0.8-2.4,1.6-3.6,2.2c-2,1-4,2-6.1,2.8c-1.1,0.5-2.4,0.6-3.6,0.9c0,0.1,0,0.3-0.1,0.4c1.8,0.7,2.2,2,1.4,3.6
				c2.3,1,4.2,1,6.4-0.5c1.4-1,3.6-1,5.4-1c1.8,0.1,2.3,1.5,1.8,3.5c-0.1,0.5,0,1.1,0.1,1.7c0,0.1,0.7,0.3,0.9,0.1
				c2.3-1.5,4-0.1,5.7,1.2c2.1,1.7,5.2,1.7,7.3,0c0.8-0.6,1.8-1.4,2.7-1.3c1.7,0.1,2.7-0.8,3.8-1.6c1.3-1,2.4-2.3,3.7-3.3
				c0.4-0.3,1.1-0.3,1.6-0.5c0.1,0.6,0.3,1.2,0.2,1.8c-0.1,0.4-0.5,0.8-0.8,1.2c-1.1,1.5-2.2,3-3.4,4.5c-0.4,0.6-0.9,1.3-1.6,1.5
				c-2,0.7-2.5,2.2-2.7,4.1c-0.2,1.8-0.9,2.3-2.7,2.1c-0.8-0.1-1.6-0.1-2.4,0c-2.5,0-5,1-7.4-0.5c-1.2-0.7-3.1-0.1-3.4,0.7
				c-1,2.7-1,2.7-4.1,2.8c-0.9,0-1.7,0.2-1.7,1.2c0,3.1-2,5.2-3.8,7.2c-3.2,3.5-6.7,6.5-10.1,9.8c1.3,0.8,1.2,3.6,3.9,3.4
				c-0.5-3.2,0.4-4.4,3.5-5c0.3-0.1,0.6-0.2,0.9-0.3c2.1-0.6,3.9-2.4,6.4-1.5c0.2,0.1,0.6-0.2,0.8-0.4c1.1-1,2.1-0.9,3.3-0.3
				c1.6,0.8,3.3,1.5,5,2.1c0.8,0.3,1.6,0.1,1.8-1.1c0.2-1.5,0.7-3,0.9-4.5c0.4-2.5,0.9-2.9,3.3-3.2c1.5-0.2,3-0.7,4.4-1.1
				c2-0.6,4.6,0.2,6,1.8c0.5,0.6,1.2,1.1,1.6,1.5c0.9-0.8,1.4-1.7,2-1.7c1.4-0.1,2.8,0.2,4.3,0.4c0,0,0.2-0.2,0.2-0.4
				c-0.4-2,0.9-2.1,2.2-1.9c1.5,0.2,3,0.8,4.8,1.3c0.2-0.5,0.7-1.3,1.1-2.1c0.5-1.1,1.2-2.1,2.3-1.5c2.1,1,4.1,1.2,6.2,0.3
				c0.2-0.1,0.5,0.1,0.8,0.2c2.1,0.7,4.2,0.3,6.1-0.6c1.3-0.6,2.3-0.7,3.4-0.1c0.9,0.4,1.8,0.9,2.6,1.5c1.9,1.3,5,1.1,6.5-0.9
				c1-1.2,2.4-2.1,3.9-1.7c1.3,0.4,1.9-0.3,2.1-1.1c0.5-1.8,1.9-2.3,3.2-3.1c1-0.6,1.9-1.5,2.3-2.5c0.3-0.7-0.2-1.8-0.6-2.5
				c-0.2-0.3-1.3-0.2-1.9,0c-1,0.3-1.9,0.8-2.9,1.1c-0.6,0.1-1.4,0.2-1.9-0.1c-1.4-0.8-2.8-1.6-4.1-2.6c-0.8-0.6-1.6-1.6-0.6-2.3
				c0.8-0.6,2.1-0.5,3.2-0.6c0.7-0.1,1.7,0.2,1.9-0.1c0.6-0.7,0.8-1.7,1-2.6c0-0.1-0.4-0.4-0.7-0.6c-0.4-0.3-0.8-0.5-1.2-0.8
				c0.4-0.5,0.7-1,1.1-1.5c0.2-0.2,0.7-0.2,0.7-0.4c0.3-1.7,1.1-1.5,2.3-0.7c0.3,0.2,0.9-0.1,1.4-0.2c-0.2-0.4-0.3-0.8-0.5-1.2
				c-0.2-0.5-0.7-1.3-0.5-1.6c0.3-0.5,1.1-0.9,1.7-0.9c1.3,0.1,2.3-0.2,2.9-1.4c1.1-2.1,2.2-4.3,3.3-6.4c1.6-3.2,1.2-6.2-1.5-8.3
				c-2-1.6-4.3-3-6.6-4.1c-3.3-1.5-4.9-1-7.4,1.5c-0.7,0.7-1.8,1.3-2.8,1.6c-2.5,0.6-4.7-0.7-4.4-2.7c0.2-1.4,1-3.1,2.1-4
				c2.4-2,2.9-4.7,0.8-6.9c-1.2-1.3-2.5-2.3-3.6-3.7c-1.1-1.5-2.4-2.5-4.2-3.1c-1.1-0.3-2.2-0.7-3.3-1.2c-0.4-0.2-0.6-0.9-0.8-1.4
				c0.5-0.2,1-0.6,1.5-0.7c0.5-0.1,1,0.1,1.4,0.3c1.7,0.6,3.4,1.2,5.5,1.9c-2.8-3.4-5.9-6.3-3.6-10.4c-1.9-2.6-3.6-5-5.3-7.5
				c-1.4-2.1-3-3.7-5.9-2.9c-0.3,0.1-1-0.1-1.1-0.4c-0.7-1.3-1.2-2.7-1.7-4.1c-0.5-1.2-0.8-2.5-1.2-3.7c-0.6-1.7-1.3-3.4-1.8-5.1
				c-0.5-1.7-0.5-3.6-1.1-5.3c-0.6-1.7-1-3.3-1-5.1c0-2.2-0.7-4.3-2.7-5.8c-1.2-0.9-2.3-2-3.1-3.2c-0.9-1.2-1.8-2.3-3.5-2.1
				c-1.5,0.1-2.7-0.5-3.6-1.5c-0.8-0.9-1.3-0.6-2.3-0.3c-1.8,0.7-3.7,1.5-5.5,1.5c-2.7,0-5.3-0.7-8-1.3c-0.5-0.1-0.9-1.1-1.3-1.6
				c0.5-0.2,1-0.7,1.4-0.6c3.1,0.4,5.8-0.2,8.3-2c0.9-0.7,2.2-1,3.4-1.2c1.1-0.3,2.3-0.2,3.5-0.3c0-0.2,0.1-0.4,0.1-0.6
				c-0.9-0.3-1.8-0.5-2.6-0.9c-0.5-0.3-0.9-0.9-1.2-1.4c-0.1-0.3,0.1-0.8,0.2-1.4c-1.1,0.5-1.9,0.8-2.8,1.2c-1.3,0.6-2.6,0.3-3-0.9
				c-0.5-1.4,1.1-1.5,2-1.8c2-0.8,4.2-1,6.1-2.4c1.8-1.3,3.1-2.6,3.5-5c0.2-1.2,0.9-2.4,1.8-3.3c2.6-2.6,3.5-6,4.3-9.3
				c0.6-2.2-0.1-4.8,2.6-6.1c0.3-0.1,0.4-1,0.3-1.5c-0.4-1.6-3.1-4.2-5.2-4c-4.1,0.5-8.1,0.2-12.1-0.7c-1.3-0.3-2.9,0.1-4.2,0.6
				c-2.3,0.9-4.5,2.1-6.8,3.2c-1.3,0.6-2.7,1.2-4,1.9c-0.8,0.4-1.3,2-2.4,0.8c-1.1-1.3,0.6-1.7,1.1-2.4c0.5-0.7,1.1-1.4,1.6-2.1
				c-0.1-0.1-0.3-0.3-0.4-0.4c-0.5,0.3-0.9,0.6-1.4,0.8c-0.4,0.2-1,0.2-1.4,0.3c0-0.6-0.2-1.4,0.1-1.6c1.5-1.5,3.2-2.7,5.6-2.3
				c0.4-0.7,0.7-1.4,0.9-1.9c-1.4-0.3-2.6-0.6-3.8-1c-0.6-0.2-1-0.8-1.5-1.2c0.5-0.3,1.1-0.7,1.6-0.9c1.7-0.6,4-0.2,3.7-3.1
				c0-0.1,0.1-0.4,0.2-0.4c2-1.6,3.8-3.5,6-4.7c2.4-1.3,4.7-2.4,5.4-5.3c0.2-0.6,0.2-1.4-0.1-2c-0.5-1.2-1.2-2.3-1.8-3.5
				c0,0-0.5,0.1-0.7,0.4c-1,1.3-2.4,1.4-3.9,1.3c-1.6-0.1-3.3-0.2-4.8,0.2c-1.9,0.5-3.7,1.4-5.7,2.2c-1.4-1.1-1.4-1.1-2.3-0.5
				c-1.8,1.2-2.4,1.1-3.7-0.6c-1.1-1.4-2.9-1.3-3.5,0.3c-0.4,1.1-0.4,2.5-0.3,3.7c0.1,1.3-0.3,2.3-1.4,2.4c-2,0.2-2.3,1.4-2.4,2.9
				c-0.1,1.5-0.6,3.1-0.3,4.6c0.6,2.8-0.2,4-3,3.7c-0.8,1,1.2,3.2-1.5,3.3c0,1.9,2.3,4.2-0.7,5.3c-0.1,0.8,0.1,1.7-0.2,2
				c-0.4,0.3-1.3,0.1-2.2,0.1c0.5,1.1,1.1,2.3,1.6,3.5c1-0.8,2.2-0.9,1.8,0.4c-0.5,1.8,0.2,4.4-2.3,4.8c0.4,1.3,0.9,2.4,1,3.6
				c0,0.3-0.9,1.1-1.4,1.1c-1.1,0-1.1-0.1-0.8,0.9c0.8,2.5,0.5,3.1-2.1,3.4c3.8,2.1,3.9,2.7,1.1,4.4c0.7,2.9-0.3,4.3-3.3,4.9
				c-0.9,0.2-2.3-0.1-2.5,1.5c2-0.6,4-1.2,5.9-1.7c1.4-0.4,2-1.1,1.8-2.8c-0.1-0.8,1.1-2.1,2-2.6c0.4-0.3,2.1,0.5,2.4,1.1
				c0.7,1.8,0.8,3.7-0.6,5.3c-0.7,0.9-1.4,1.8-2.1,2.8c3.3,1.1,3.7,5.3,1.3,9.7c1.6,0.4,1.9,1,1.4,2.4
				C-143.3,397.2-143.6,397.8-143.9,398.4c-1.3,2.4-1.9,4.9-1.6,7.7c0.6-0.6,1-1.4,1.1-2.2C-144.2,402.1-144.1,400.3-143.9,398.4z
				 M-150.6,359.3c-0.1-0.1-0.1-0.3-0.2-0.4c-2.4-1.5-2.7-2-2.1-4.6c0.4-2-0.2-3.2-2.6-4.6c0.1,0.7,0.3,1.3,0.2,1.9
				c0,0.5-0.3,0.9-0.4,1.4c-0.4-0.2-1-0.3-1.2-0.6c-0.5-0.7-1-1.4-1.8-0.6c-0.2,0.2,0,1.3,0.4,1.8c1.1,1.7,2.7,3.2,3.4,5
				C-153.8,361.5-152.2,360.9-150.6,359.3z M-151.8,395.9c-0.2-0.1-0.3-0.2-0.5-0.4c-0.8,0.1-1.5,0.1-2.3,0.2c-0.4,0.1-1,0.3-1,0.6
				c-0.1,0.5,0,1.1,0.3,1.5c0.1,0.2,0.9,0.3,1.2,0.1C-153.3,397.4-152.5,396.6-151.8,395.9z M-150.6,375.8c-1.5-1.2-2.4-0.6-3.1,0.1
				c-0.2,0.2,0.1,0.7,0.1,1C-152.6,376.6-151.8,376.3-150.6,375.8z M-140.8,403c0.2,0.1,0.4,0.1,0.6,0.2c0.2-0.8,0.6-1.6,0.6-2.4
				c0-0.2-0.7-0.5-1.3-0.9C-140.8,401.2-140.8,402.1-140.8,403z M-146.2,389.2c-0.1-0.1-0.2-0.3-0.3-0.4c-1.3,0.7-2.6,1.5-3.9,2.2
				c0.1,0.2,0.2,0.3,0.3,0.5C-148.8,390.7-147.5,390-146.2,389.2z"/>
			<path id="XMLID_293_" d="M-190.6,433c1.8-0.3,3-1.1,3.4-3.2c0.2-1,1.6-1.9,2.4-2.8c0.5-0.5,1.2-1,1.8-1.5
				c-0.1-0.2-0.2-0.3-0.3-0.5c-1.1,0.2-2.3,0.2-3.3,0.7c-2.7,1.1-5.7-3.2-5.1-5.2c0.2-0.6,1-1.2,1.6-1.3c2.7-0.4,4.2-1.5,4-4.5
				c-0.3-3.1,2.6-3.6,4.4-5c0.3-0.3,0.7-0.5,1.1-0.8c2.3-1.9,3.2-2,5.9-0.2c1.7-3,4.7-2.6,7.4-2.6c1.6,0,2.5,1.4,2.8,4.3
				c2.5-2.5,5.5-2.5,8.5-2.2c1.7,0.2,3.4,0.5,4.9,1.1c1.8,0.7,2.5,2.6,1.7,4.4c-0.6,1.6-0.4,2.7,0.6,4.1c0.9,1.2,1.1,2.9,1.6,4.6
				c2.8,0.7,4.4,2,4.5,4.4c0,1.4-0.4,2.8-0.8,4.2c-0.8,2.9-2.6,4.8-5.4,5.6c-0.6,0.2-1.2,0.7-1.5,1.3c-0.8,1.5-1.7,2.6-3.6,2.6
				c-0.5,0-1,0.3-1.6,0.4c0.6,2.2,1.4,4.2,1.7,6.3c0.2,1.4,0.1,3.1-0.5,4.4c-0.8,1.9,0,3,1.1,4.1c1.8,1.7,2.2,3.6,1.3,5.9
				c-0.9,2.4-1.8,4.9-2.5,7.4c-0.4,1.7-0.2,3.7-0.6,5.4c-0.6,2.4-1.4,4.8-2.2,7.2c-0.5,1.5-2.7,2.2-4.4,1.1
				c-1.6-1.1-2.6-0.3-3.5,0.5c-1.9,2-4.2,2-6.5,1.4c-1.6-0.4-2.7-0.4-3.2,1.4c-0.2,0.6-1,1.1-1.7,1.4c-1.9,0.9-3.8,2.1-5.7,2.2
				c-2.2,0.2-2.9,1.2-3.5,2.9c-0.2,0.6-0.9,1.2-1.6,1.5c-3,1.1-6,2.2-9.1,3.1c-1.9,0.5-3.7,1.8-5.9,1.3c-1.1-0.3-2.3-0.4-3.3-0.9
				c-0.4-0.2-0.5-1.2-0.9-2.1c-0.7-0.1-1.8-0.4-2.9-0.5c-0.9-0.1-1.3-0.6-1-1.5c0.3-0.8,0.5-1.6,0.7-2.3c-1.5-0.3-2.7-0.5-3.9-0.9
				c-0.6-0.2-1.4-0.9-1.5-1.4c-0.1-0.5,0.6-1.3,1.1-1.8c1.2-0.9,2.5-1.6,3.8-2.5c-1.8-0.3-3.5-0.4-5.1-0.8c-0.7-0.2-1.6-0.7-1.7-1.3
				c-0.1-0.5,0.6-1.3,1.1-1.8c1.9-1.7,4.2-1.3,6.3-1.1c1.5,0.1,2.1-0.4,2-1.7c-0.2-2,1.3-2.7,2.6-3.7c-0.3-0.2-0.6-0.4-0.8-0.7
				c-1.9-2.2-1.9-2.9,0.2-5.1c0.9-1,2-1.8,2.8-2.8c1.1-1.4,2.3-2.9,3.1-4.5c1.3-2.5,1.6-2.7,4.3-1.7c0.3-0.3,0.8-0.7,0.9-1.2
				c0.1-0.5-0.1-1.1-0.4-1.6c-0.2-0.3-0.9-0.4-1.2-0.3c-0.6,0.3-1.2,0.8-1.7,1.2c-2.8,2.3-5.6,1.6-7.1-1.8c-3.1,0.8-4.1-2-5.6-3.7
				c-0.5-0.6-0.7-1.7-0.8-2.6c-0.1-1.2,0.6-1.6,1.8-1.4c1.1,0.2,1.7,0,1.6-1.3c0-1.5,0.9-2.5,2.5-2.9c0.4-0.1,0.7-0.5,1-0.8
				c-0.4-0.2-0.7-0.5-1.1-0.6c-1.5-0.5-3-0.8-4.5-1.4c-0.6-0.2-1.3-1.1-1.3-1.6c0.1-1.8,0.5-3.5,0.7-5.3c0.2-1.6,1.4-2.7,3.7-3.1
				c1.8-0.3,3.6-0.6,5.4-0.7c2.8-0.3,2.8-0.2,4,2.3c0.1,0.3,0.3,0.6,0.3,0.7c1.8-0.3,3.6-0.6,5.3-0.7
				C-191.4,432.4-191,432.8-190.6,433c-0.4,0.3-0.7,0.9-1.1,1c-1.6,0.3-3.2,0.2-4.7,1.2c-1.3,0.9-1.9,0.4-2.2-1.1
				c-0.4-2.1-0.8-2.5-2.8-2.3c-1.9,0.1-3.8,0.3-5.6,0.8c-0.8,0.2-1.5,1.3-2.1,2.1c-0.3,0.4-0.2,1-0.4,1.4c-1,2.2-1,2.8,0.9,4
				c0.8,0.5,2,0.7,3,0.6c1.5-0.1,2.5,0.4,2.8,1.9c0.4,1.5-0.3,2.5-1.9,3c-1,0.3-1.5,0.7-1.5,1.8c0.1,1.6-0.7,2.5-2.4,2.4
				c-0.4,0-0.8,0.1-1.4,0.2c0.6,0.9,1.1,1.6,1.5,2.4c0.7,1.2,1.6,1.9,3.1,1.6c0.9-0.2,1.8,0,2.1,1.4c0.4,2.1,2.3,2.4,3.8,1
				c2.5-2.4,4.1-2.5,5.9-0.3c0.9,1.1,1.1,2,0.2,3.3c-0.8,1.3-1.7,1.8-3.2,1.3c-0.4-0.2-0.9-0.1-1.6-0.2c-0.8,4.5-4.3,7-7.5,10.1
				c2-0.1,3.6-1,4.9,1c-1.2,0.4-2.1,0.6-3.1,0.9c1.2,0.7,2,0.7,3.4,0c2-1,4-2,6.1-2.9c0.5-0.2,1.8,0,1.8,0.2c0.2,0.8,0.7,2-0.7,2.4
				c-2.9,0.9-5.8,2-8.7,2.7c-2.7,0.6-4.1,1.7-4.5,4.5c-0.3,1.8-0.9,2.2-2.6,1.9c-1.3-0.2-2.5-0.4-3.8-0.3c-0.8,0.1-1.6,0.7-2.5,1
				c0.1,0.2,0.1,0.4,0.2,0.6c0.7,0,1.5,0.1,2.2,0.1c1.6,0,3.2-0.1,4.8-0.1c1.2,0.1,1.8,1,1,1.6c-1.2,1-2.6,1.8-3.9,2.7
				c-0.9,0.6-1.9,1.1-2.9,1.6c3.2,1.5,6.3,0.5,9.4,0.1c0.1,0.8,0,1.6,0.3,1.9c1,0.9,0.2,1.2-0.4,1.6c-1,0.5-1.9,1-2.9,1.5
				c0.1,0.2,0.1,0.4,0.2,0.6c1.4-0.3,2.9-0.6,4.3-1.1c0.9-0.3,1.7-0.5,2.3,0.6c-1.3,0.9-2.5,1.8-3.8,2.7c0,0.1,0.1,0.3,0.1,0.4
				c1.2,0,2.6,0.3,3.7-0.1c4-1.3,7.9-2.8,11.9-4.3c0.3-0.1,0.7-0.6,0.8-0.9c0.8-2.3,1.7-4.1,4.9-3.5c1.1,0.2,2.6-1,3.8-1.6
				c1.1-0.5,2.2-1.1,2.7-2.4c0.5-1.2,1.3-1.9,2.7-1.2c0.7,0.3,1.5,0.1,2.2,0.3c1.9,0.5,3.4,0,4.7-1.4c1.2-1.3,3.1-1.4,4.7-0.7
				c0.8,0.4,1.7,0.4,2.2,0.5c0.9-2.6,1.7-4.9,2.4-7.1c0.2-0.7,0.3-1.4,0.4-2.1c0.1-1-0.1-2,0.2-3c0.6-2.2,1.2-4.3,2-6.4
				c0.9-2.6,2-4.9-1-7.1c-1.3-0.9-1.8-2.9-0.7-4.7c0.4-0.6,0.4-1.5,0.5-2.2c0.3-2.4-0.6-4.5-1.6-6.7c-1-2.4-0.3-3.6,2.3-3.5
				c1.5,0.1,2-0.7,2.6-1.7c0.4-0.7,1.1-1.5,1.8-1.7c2.6-0.9,4.5-2.4,5.2-5c0.4-1.4,0.5-2.9,0.3-4.3c-0.2-1.5-1.8-1.1-2.9-1.4
				c-1.2-0.3-1.9-1-1.9-2.5c0.1-1.1-0.2-2.5-0.8-3.4c-1.3-1.7-1.6-3.3-0.8-5.3c0.6-1.6,0-2.6-1.7-2.8c-2.1-0.2-4.3-0.4-6.4-0.3
				c-1,0-2,0.6-2.9,1c-1.5,0.7-2.9,1.6-4.4,2.2c-0.5,0.2-1.3-0.2-1.9-0.4c0.4-0.7,0.7-1.4,1.1-2c0.4-0.7,0.9-1.3,0.9-2
				c0-0.3-0.9-0.9-1.5-1c-1-0.1-2.1,0.1-3.1,0.2c-1.3,0.1-2.1,1.2-1.7,2.4c0.8,2.5,0,3.4-2.7,5.2c-1.5-1.2-0.3-2.6,0-3.7
				c0.3-1.2,0.1-1.8-0.9-2.3c-1-0.6-1.8-0.6-2.7,0.3c-1,1-2.1,2-3.3,2.5c-1.6,0.6-1.8,1.8-2,3.1c-0.1,0.4-0.1,0.9-0.1,1.3
				c-0.2,2.2-0.9,2.9-3,3.3c-0.9,0.2-1.7,0.6-2.6,0.9c1.1,3,1.9,3.4,4.7,2.6c0.2,0,0.3-0.1,0.5-0.1c1.2-0.2,2.3-0.4,3.1,0.9
				c0.8,1.4,0.1,2.8-0.9,3.2c-2.2,1.1-3.1,3-4,5c-0.1,0.3-0.3,0.7-0.6,0.8c-0.9,0.3-1.8,0.5-2.7,0.6
				C-190,434.2-190.3,433.4-190.6,433z"/>
			<path id="XMLID_289_" d="M-84.5,275.1c-0.1-1.2-0.2-2.1-0.3-3c-0.1-0.3-0.3-0.8-0.6-0.8c-1.4-0.2-2.1-1.5-1.7-2.3
				c0.4-1,1.6-1.8,2.7-2.2c1-0.3,2.3,0.1,2.5-1.6c0-0.2,0.7-0.5,1.1-0.5c1.6,0,2.3-0.9,2.7-2.3c0.2-0.7,0.6-1.4,0.9-2.1
				c0.6,0.2,1,0.3,1.4,0.5c2.3,0.9,2.5,2.9,0.7,4.5c-0.3,0.3-0.7,1-0.5,1.3c0.8,1.5-0.4,2.5-1.2,3c-1.1,0.7-1.2,1.4-1,2.1
				c1,0.2,1.9,0.3,2.6,0.7c0.9,0.5,1,1.3,0.3,2.1c-0.5,0.5-1,0.9-1.5,1.4c-1,1-2.3,1.9-1.4,3.8c0.3,0.7,0.2,1.7-1.2,1.9
				c-1.7,0.2-1.2,1.5-0.7,2.4c0.8,1.3,0.5,2.6-0.3,3.6c-0.5,0.7-1.6,1.3-2.4,1.2c-0.6-0.1-1.3-1.3-1.4-2c-0.2-1.2,0.2-2.4,0.3-3.6
				c0.3-2.6-0.3-3.3-2.9-3.6c-0.8-0.1-1.9-0.5-2.4-1.2c-0.5-0.8-0.5-1.9-0.7-2.9c0.8-0.1,1.6-0.4,2.5-0.4
				C-86.3,274.7-85.6,274.9-84.5,275.1z M-77.7,274.7c-0.5-0.5-1-0.8-1.1-1.2c-0.3-1.4-0.7-2.9-0.6-4.3c0-0.4,1.4-0.7,2.1-1.2
				c0.2-0.2,0.5-0.8,0.3-1c-0.8-1.4,0.2-2.3,0.8-3.4c0.2-0.4,0.4-0.7,0.5-1.1c0-0.1-0.4-0.4-0.5-0.3c-0.3,0.3-0.6,0.6-0.8,0.9
				c-0.7,1.5-1.3,2.8-3.3,2.9c-1.4,0.1-2,2.1-1.3,3.5c0.3,0.5,0.2,1.2,0.3,1.8c-0.6-0.1-1.2-0.2-2.1-0.3c0,1.2,0,2.5,0,3.8
				c0,1.3-0.6,1.9-1.9,1.7c-0.9-0.1-1.9-0.4-3.4-0.7c0.7,0.8,1,1.7,1.5,1.7c2.4,0.2,4.2,1,5.1,3.3c0.8-0.3,1.3-0.6,1.9-0.9
				c0.9-0.4,1.3-0.7,0.2-1.4c-1.2-0.8-0.8-1.7,0.1-2.4C-79.1,275.6-78.4,275.2-77.7,274.7z M-81.9,282.7c-0.3,1.6-0.5,2.9-0.7,4.3
				C-80.7,286.4-80.6,284.8-81.9,282.7z"/>
			<path id="XMLID_286_" d="M-103.6,305.6c1.3-1.1,2.3-1.8,3.3-2.8c0.7-0.7,1.1-0.6,1.5,0.1c1.1,2,0.2,4.3-1.9,4.8
				c-1.5,0.3-1.5,1.1-1.2,2.3c0.4,1.4,0.1,1.7-1.4,1.5c0.3,1.4,0.3,2.6-1,3.5c-0.3,0.3-0.4,1.1-0.4,1.6c0.1,1.6-0.8,2.5-1.9,3.2
				c-0.5,0.3-1.9,0.3-2-0.1c-0.4-0.8-0.5-1.8-0.5-2.7c0-0.7,0.4-1.3,0.6-2c-0.2-0.1-0.4-0.1-0.5-0.2c-0.2,0.7-0.3,1.5-0.6,2.2
				c-0.6,1.5-1.9,1.8-3.6,1c-1.4-0.7-1.8-1.8-1-3.2c0.8-1.3,1.1-2.6,0.4-4.1c-0.6-1.4-0.2-2.7,1.1-3.5c1-0.7,1.9-1.8,3.5-0.6
				c1.1,0.8,2.8-0.1,2.8-0.8c-0.7-1-1.3-1.5-1.5-2.2c-0.2-0.8,1.5-2.1,2.4-2.1C-104.6,301.8-103.8,303.2-103.6,305.6z M-105.4,312.6
				c-0.5-1.2-1.1-2.4-1.6-3.6c-1.5,1.4-2.3-0.7-4-0.9c-0.3,0.7-1.2,1.7-1,2.4c0.6,2,0.3,3.9-0.6,5.6c1.2,0.9,1.4-0.1,1.4-0.7
				c0-1.3,0.6-2.1,1.7-2.3c0.9-0.1,1.8,0.5,2.7,0.8C-106.5,313.6-105.9,313.1-105.4,312.6z"/>
			<path id="XMLID_283_" d="M-159.5,340.5c0.4,3,0.1,3.3-2.4,2.7c-0.1,0.3-0.3,0.7-0.4,1c-0.5,1.6-1.5,2.5-2.7,2.1
				c-1.7-0.5-2.2-1-2-2.9c0.2-1.3,0.4-2.7,0.7-4c0.1-0.3,0.4-0.6,0.7-0.9c-1.7-1.2-2.2-2.8-1.6-4.8c0.9-2.8,3-1.6,4.8-1.4
				c0.7-4.7,4.8-5.1,7.8-6.5c0.6,0.5,1.1,0.9,1.6,1.3c1.1,0.8,1.2,1.7,0.2,2.7c-0.5,0.5-0.7,1.2-1,1.8c-0.6,1-1.2,2-1.6,3
				c-0.3,0.7-0.4,1.5-0.5,2.2c-0.2,0.9-0.1,2-0.5,2.8C-157,341.3-157.9,341.4-159.5,340.5z M-161.8,341.2c0.2-1.1,0.2-2.4,0.6-2.6
				c1-0.3,2.2-0.1,3.6-0.1c0-0.3-0.1-1.1,0-1.8c0.2-1.1,0.4-2.1,0.8-3.1c0.6-1.5,1.3-2.8,1.9-4.3c0.1-0.2-0.5-1-0.8-1
				c-1.7,0-4.7,2.9-4.6,4.6c0,1.4-0.8,1.5-1.8,1.5c-0.5,0-1.1-0.2-1.6-0.2c-0.5,0-1.5,0.1-1.5,0.2c-0.1,0.7-0.2,1.8,0.2,2.2
				c1.1,1.1,1.1,2.2,0.7,3.6c-0.4,1.4-0.5,2.9-0.7,4.3c0.2,0,0.4,0.1,0.6,0.1c0.3-0.5,0.8-1,0.7-1.5
				C-163.8,341.4-162.8,341.1-161.8,341.2z"/>
			<path id="XMLID_280_" d="M-174.1,370.2c0.2-2.9-0.6-6,1.7-8.6c0.3-0.3,0.6-0.7,0.6-1c-0.4-3.5,1.8-6.8,0.4-10.3
				c-1-2.5,0.9-5.1,3.6-4.9c0.4,0,0.8,0.7,1.1,1c1.4,1.5,2.1,2.8,1.3,5.1c-1,2.9-1,6.1-1.6,9.2c-0.2,1-0.6,2.2-1.3,2.7
				c-1.9,1.4-2.7,3.3-3.7,5.3c-0.3,0.7-0.9,1.2-1.4,1.8C-173.7,370.4-173.9,370.3-174.1,370.2z M-171.4,363.1
				c2.1-0.6,2.7-1.9,2.8-3.9c0-1.6,0.8-3.2,0.8-4.9c0.1-2.4,1.8-4.9-0.6-7.1c-0.8,0.6-2.4,0.7-1.7,2.3c0.8,2,1.2,3.9,0.4,6
				C-170.6,357.9-169.1,360.9-171.4,363.1z"/>
			<path id="XMLID_243_" d="M-132.6,438.6c-2-0.3-2.6-1.1-1.8-2.8c0.7-1.6,1.7-3,2.5-4.6c0.1-0.2,0.3-0.4,0.4-0.7
				c0.4-0.6,0.9-1.8,1-1.8c1.3,0.5,2.7,1.1,3.7,1.9c0.4,0.3,0.2,1.8-0.2,2.4c-1,1.5-2.1,2.8-3.4,4.1
				C-130.9,437.8-131.9,438.1-132.6,438.6z M-130,430.5c-1.2,2.1-2.3,4-3.3,5.9c3.2-0.1,3.1-3.5,5.8-4.6
				C-128.7,431.2-129.3,430.9-130,430.5z"/>
			<path id="XMLID_242_" d="M-158.8,374.8c-1.6,1-3.2,1.9-4.7,2.9c-1.1-1.2-0.9-1.9,0.4-2.2c1-0.3,1.9-0.8,2.8-1.1
				c0.4-0.1,0.9-0.1,1.4-0.1C-158.9,374.4-158.9,374.6-158.8,374.8z"/>
			<path id="XMLID_241_" d="M-159.9,533.6c0.5-1,1-1.9,1.6-2.8c1,0.4,1.7,0.9,1,2.1C-157.9,533.7-158.7,534.5-159.9,533.6z"/>
			<path id="XMLID_240_" d="M-127.2,307.6c0.6,0.3,1.3,0.5,1.8,0.8c0.1,0.1,0.1,0.8,0,0.8c-0.5,0.1-1.2,0.4-1.6,0.2
				c-0.3-0.2-0.4-0.9-0.6-1.4C-127.5,307.8-127.4,307.7-127.2,307.6z"/>
			<path id="XMLID_239_" d="M-145.3,309.2c-1,0.5-1.9,1.2-3.2-0.5c1.3,0,2.2,0,3.2,0C-145.3,308.9-145.3,309-145.3,309.2z"/>
			<path id="XMLID_238_" d="M-85.8,296.2c0.1,1.6-0.5,2.1-1.5,1.8c-0.3-0.1-0.4-0.7-0.6-1.1C-87.2,296.6-86.6,296.4-85.8,296.2z"/>
			<path id="XMLID_237_" d="M-185.1,343c-0.8,0.8-1.5,1.5-2.8-0.3c1.1-0.2,1.9-0.3,2.7-0.5C-185.2,342.5-185.1,342.7-185.1,343z"/>
			<path id="XMLID_236_" d="M-157,372.5c-0.5,0.5-0.9,1-1.4,1.5c-0.3-0.3-0.8-0.8-0.8-0.9c0.4-0.5,0.9-0.9,1.3-1.4
				C-157.5,372-157.3,372.2-157,372.5z"/>
			<path id="XMLID_235_" d="M-172.5,332.2c-0.8-0.1-1.5-0.2-2.3-0.4c-0.1,0,0-0.5,0-0.7c0.8,0,1.7,0,2.5,0
				C-172.4,331.5-172.5,331.8-172.5,332.2z"/>
			<path id="XMLID_234_" d="M-160.3,364.7c0.2-0.6,0.4-1.3,0.6-1.9c0-0.1,0.6,0.1,0.9,0.2c-0.2,0.6-0.5,1.3-0.7,1.9
				C-159.7,364.9-160,364.8-160.3,364.7z"/>
			<path id="XMLID_233_" d="M-138,381.6c-1.2,1.4-2.2,2.6-3.2,3.8c-0.2,0-0.3,0-0.5,0c0.1-0.6-0.1-1.4,0.2-1.9
				C-140.9,382.2-139.9,381.3-138,381.6z"/>
			<path id="XMLID_232_" d="M-137.6,371.1c-0.8,0.8-1.5,1.6-2.3,2.5c-1-1.8-0.3-2.7,1.9-2.9C-137.9,370.8-137.8,371-137.6,371.1z"/>
			<path id="XMLID_231_" d="M-136.2,388c1.2,0.6,1.7,2.5,1.1,3.1c-0.2,0.1-1-0.1-1-0.3C-136.2,389.9-136.2,389-136.2,388z"/>
		</g>
	</g>
</g>
</svg>
