<?xml version="1.0" encoding="utf-8"?>
<!-- Generator: Adobe Illustrator 19.1.0, SVG Export Plug-In . SVG Version: 6.00 Build 0)  -->
<svg version="1.1" id="XMLID_1_" xmlns="http://www.w3.org/2000/svg" xmlns:xlink="http://www.w3.org/1999/xlink" x="0px" y="0px"
	 viewBox="0 0 175.0553 273.8568" enable-background="new 0 0 175.0553 273.8568" xml:space="preserve">
<g id="great-britain">
	<g>
		<path d="M71.0016,120.4991c-0.6491,0.4846-1.2313,1.1483-1.9598,1.4207c-2.2689,0.8485-4.5764,1.6066-6.902,2.2863
			c-1.5268,0.4462-2.8561-1.0871-2.2112-2.652c0.4083-0.9908,1.2873-1.7875,2.2281-3.0322
			c-0.172-1.1954-2.4833-3.0003-0.2286-4.3989c-0.1647-1.1637-0.6161-2.1307-0.3393-2.7935
			c1.0269-2.4588,3.0238-2.9908,5.5609-1.966c-1.1376-3.0531-0.8556-3.8023,1.23-4.3652c-0.4188-1.1675-0.8449-2.3555-1.2525-3.4918
			c-1.2247,0.2838-2.7276,0.6322-4.3079,0.9984c0.134,1.2181,0.6513,2.8701-1.2495,3.5664c-1.035,0.3792-1.706-0.3227-1.9728-1.2916
			c-0.2939-1.0673,0.9271-2.6684,2.2522-3.1211c-0.8051-1.5925-1.5139-3.2561-2.4585-4.7729
			c-0.654-1.0502-1.827-1.793-2.4084-2.8678c-0.5026-0.9292-0.9651-2.3351-0.6049-3.1658c0.4996-1.1521,1.641-2.2496,3.3267-1.7245
			c0.2178-0.4226,0.3879-0.8277,0.6211-1.1924c1.0504-1.6426,1.8215-1.6742,2.9934-0.1641
			c0.3046,0.3924,0.6499,0.7556,0.9974,1.1118c1.7355,1.779,2.254,3.8544,1.6477,6.2657c-0.1158,0.4606-0.0825,1.1828,0.2001,1.4604
			c0.3222,0.3164,1.0007,0.2701,1.5863,0.3946c-0.3769-1.5474-0.815-2.7898-0.9468-4.0639
			c-0.1046-1.0115-0.0607-2.0971,1.5669-2.1701c0.6278-0.0282,1.219-0.8725,1.9568-1.4461
			c-0.3302-1.2861-0.8062-2.7501-1.0525-4.2518c-0.1371-0.836-0.0447-1.7926,0.2523-2.5785
			c0.1298-0.3435,1.031-0.3955,1.8337-0.6642c0.3452-2.0833,1.6605-1.9472,3.4269-0.2196c0-2.4185-0.0441-4.2925,0.009-6.1637
			c0.1187-4.1832,0.1384-4.1826,4.0922-5.6646c-1.3229-2.8762-0.3946-5.3742,1.9204-7.1719
			c1.4398-1.1181,3.7998,0.0306,5.5441,2.2802c1.2389-1.1198,2.4986-2.5002,4.1398-0.4091
			c2.5683-2.3898,5.5251-2.6739,8.8004-2.2597c1.2417,0.157,2.7665,0.246,4.0009-0.9246c1.1444-1.0851,2.7262-1.0803,4.2178-0.553
			c1.0956,0.3873,1.1796,1.2979,0.26,2.6872c0.4015,0.6954,0.9255,1.3686,1.2048,2.1315c0.7608,2.0777-0.7629,5.9791-2.9407,7.3886
			c-1.429,0.9248-3.1376,1.4596-4.4559,2.5038c-2.0657,1.6362-4.4993,3.0854-4.8167,6.1722
			c1.7293,1.4108,1.7902,1.4461,0.553,3.5835c-0.8828,1.5252-1.9571,2.9397-2.9811,4.4556
			c2.3361,0.0279,4.4657-1.1196,6.1353-2.4792c2.3631-1.9243,4.8293-1.4577,7.3626-1.3439
			c3.393,0.1525,6.8167,0.7622,10.1602,0.4524c2.0363-0.1887,3.4433,0.5881,4.8604,1.4227
			c2.9321,1.7269,3.4388,5.0092,1.8231,8.0369c-0.8225,1.5414-1.4557,3.179-1.843,5.0111
			c-0.5989,2.8325-1.9651,5.5863-3.4376,8.1229c-1.0784,1.8577-2.4051,3.4695-2.9219,5.6867
			c-0.3111,1.3347-1.3584,2.708-2.4541,3.5956c-1.319,1.0685-2.8101,1.8081-2.5082,4.1258
			c0.3593,0.2169,0.9505,0.7016,1.6281,0.9574c1.6842,0.6359,2.0858,2.2547,0.6205,3.3595
			c-0.9343,0.7045-2.2519,1.5679-3.2399,1.4048c-2.6129-0.4314-4.0262,1.3979-6.2962,2.5024
			c2.5129,0.4524,4.4044-0.2989,6.1799-1.1678c2.2393-1.0957,2.2484-1.1025,3.9418,0.7609c0.5716,0.629,1.6777,1.0991,2.5294,1.0837
			c2.2997-0.0417,3.6346,1.0616,4.7861,2.9083c0.716,1.1483,1.9108,1.9957,2.8783,2.9902c1.9033,1.9565,3.2054,4.1394,3.2619,7.0177
			c0.0293,1.4915,0.5224,2.9865,0.9024,4.4549c0.3684,1.4234,1.169,2.8031,1.2231,4.2231c0.0741,1.9464,0.5698,3.6579,1.3375,5.4102
			c0.7461,1.7029,1.1745,3.5446,1.7484,5.3234c0.2321,0.7195,0.4802,1.4339,0.7093,2.1157c3.1756-0.466,5.8735,1.2037,7.8907,4.2631
			c1.6216,2.4592,3.583,4.6946,5.4013,7.0234c0.1698,0.2175,0.4306,0.3669,0.5871,0.5912c0.3972,0.5694,0.7591,1.1633,1.1351,1.7474
			c-0.6667,0.3997-1.3335,0.7993-2.3002,1.3788c-0.2987,1.259,0.4097,2.6986,1.2888,3.9121
			c1.1297,1.5594,2.5154,2.9485,3.891,4.3099c1.2344,1.2217,1.1705,1.9021-0.4198,2.4858
			c-0.2028,0.0744-0.3837,0.2085-0.8414,0.4635c1.1715,1.2163,2.1777,2.4444,3.3658,3.4598
			c3.3686,2.8788,2.0208,6.2828-0.5397,9.242c-0.324,0.3745-0.8685,0.5948-1.0988,1.0054c-0.366,0.6524-0.5534,1.405-0.8164,2.1153
			c0.9231,0.0734,1.8474,0.2071,2.7686,0.1882c0.331-0.0068,0.7398-0.3124,0.9685-0.5976c2.766-3.4493,6.1718-3.8467,9.6926-2.1084
			c2.7944,1.3797,5.3791,3.2557,7.8712,5.155c2.2591,1.7216,3.1601,6.4468,1.9451,8.9569
			c-1.0934,2.2589-2.1096,4.5833-3.4749,6.6729c-0.9556,1.4625-2.4416,2.5785-3.8676,4.0291c0,0.2495,0.2807,1.1625-0.0527,1.6797
			c-0.9963,1.5456-2.6166,2.0124-4.8022,1.5057c1.3542,1.412,1.3831,2.8287,0.4578,4.1426
			c-0.7976,1.1326-1.7999,2.1209-2.8207,3.2987c0.4166,1.0626,1.3445,1.1293,2.6124,0.5791c1.1545-0.501,2.381-0.8669,3.608-1.1549
			c0.4641-0.109,1.1834-0.0084,1.5057,0.295c2.4864,2.3398,1.9521,6.7697-1.1507,8.4509c-1.6746,0.9073-3.0738,1.8668-3.9408,3.6184
			c-0.5332,1.0774-1.3329,1.7477-2.84,1.3019c-0.6826-0.202-1.845,0.3295-2.4471,0.8939c-2.9139,2.7315-5.8897,3.1013-9.3254,1.0091
			c-1.5048-0.9163-2.894-1.6352-4.8686-0.6865c-1.6778,0.8061-3.7034,1.0219-5.6025,1.1901c-1.4558,0.129-2.9543-0.2233-5.02-0.4163
			c1.9866,1.8407,0.9119,2.9516-0.0745,3.9952c-1.2893,1.364-2.5184,1.4908-4.1325,0.5844
			c-1.9252-1.0811-3.8549-2.1544-5.7875-3.2337c-1.2315,2.3134-2.0817,2.7174-4.5572,2.3164
			c-1.0885-0.1763-1.9842-0.3465-2.5081,1.1071c-0.4288,1.19-1.6693,0.9135-2.5599,0.4594c-0.78-0.3977-1.5732-0.9588-2.0875-1.6507
			c-1.2835-1.7268-2.8297-2.0364-4.8061-1.4508c-1.3126,0.3889-2.6949,0.5924-4.061,0.7385
			c-1.6235,0.1736-2.1678,1.0746-2.4029,2.5969c-0.2653,1.7179-0.7496,3.4254-1.3466,5.0616
			c-0.5526,1.5145-1.6927,2.0705-3.3003,1.3384c-1.7383-0.7916-3.4986-1.5374-5.269-2.2544
			c-0.4144-0.1678-0.933-0.2627-1.3605-0.1765c-0.9797,0.1974-1.938,0.5106-2.8956,0.8069
			c-1.6325,0.505-3.2251,1.2311-4.8936,1.5067c-2.697,0.4454-3.8489,1.7745-3.4429,4.5194
			c0.0398,0.2691-0.8224,0.9914-1.1902,0.9418c-1.1652-0.1572-2.4382-0.3531-3.4004-0.9604
			c-1.1422-0.7209-2.0463-1.6806-3.5978-1.392c-0.2766,0.0515-0.9556-0.6713-1.0181-1.0994
			c-0.2668-1.827,0.8051-3.2354,3.1232-4.3682c0.3323-0.1624,0.7415-0.2463,0.9881-0.4933
			c2.4711-2.4754,4.9226-4.9706,7.3636-7.4759c0.7995-0.8206,1.6901-1.6002,2.2896-2.5551c0.6849-1.091,1.3383-2.3109,1.5686-3.5556
			c0.5015-2.711,1.3688-3.5695,4.1156-3.4776c0.7705,0.0258,1.5679,0.2051,1.6752-1.0214c0.1511-1.7275,1.5564-2.8574,3.4058-2.6545
			c1.2774,0.1401,2.5094,0.658,3.7848,0.8655c1.0295,0.1675,2.1014,0.2284,3.1403,0.1495c1.8202-0.1381,3.6295-0.4196,5.6744-0.6692
			c0.5446-1.6005-0.1528-4.1068,2.6213-5.0331c-0.1667-0.189-0.3334-0.378-0.5001-0.567c-0.8173,0.3484-1.7442,0.5511-2.4331,1.07
			c-3.2014,2.4115-6.9913,2.2888-9.9766-0.3681c-1.0345-0.9207-2.1362-1.2807-3.6112-0.6546
			c-0.7475,0.3173-2.1695,0.1784-2.6861-0.3459c-0.8813-0.8944-1.8227-2.0909-1.1855-3.635
			c0.1746-0.4231,0.2914-0.8699,0.4348-1.3059c-0.1172-0.1689-0.2344-0.3377-0.3516-0.5066
			c-1.683,0.6391-3.4413,1.1322-5.0318,1.9511c-2.5047,1.2895-4.922,0.9653-7.3086-0.0886
			c-1.0612-0.4686-1.2318-1.5491-0.9508-2.5919c-0.6895-1.1403-1.765-2.1463-1.5806-2.7928
			c0.2858-1.0019,1.2755-2.1154,2.247-2.5388c1.6222-0.7071,3.633-0.5845,5.1804-1.3883c2.9669-1.5412,6.4026-2.9396,8.3916-5.4068
			c2.3612-2.9289,3.9892-6.8054,2.4887-10.9776c-0.7428-2.0653-2.5565-2.3101-4.0607-0.6752
			c-1.0169,1.1053-1.8502,2.5528-3.7746,2.3378c-1.9506-0.218-2.7309-1.3785-1.6892-3.0643
			c0.8306-1.3442,1.9498-2.5278,3.0434-3.686c0.907-0.9606,1.9633-1.7801,3.1327-2.8216c-0.9009-0.9452-1.6574-1.8116-2.4901-2.5973
			c-1.7227-1.6256-1.3621-4.5631,0.746-5.6597c1.0735-0.5584,1.5725,0.2901,2.2337,0.8937c0.4417,0.4033,1.1242,0.8516,1.65,0.7983
			c1.8417-0.1869,2.5486,0.1722,3.1353,1.8762c2.5145,1.2961,4.4535-0.209,6.45-1.2255c1.4568-0.7417,2.7492-0.9951,4.0637,0.2537
			c0.8038,0.7635,1.1943,0.0061,1.4478-0.6017c0.3211-0.7699,0.1825-1.8046,1.3822-1.9958
			c0.1089-0.0174,0.2583-0.6191,0.1736-0.8794c-0.6495-1.9958-0.4206-3.8026,1.1556-5.3375
			c-1.2652-1.0217-1.9523-2.0352-0.5917-3.3498c0.1395-0.1347,0.2145-0.4211,0.1933-0.6239
			c-0.1969-1.8824,0.5888-3.1832,2.2123-4.1129c0.242-0.1386,0.1637-0.8364,0.2336-1.2755c-0.1885-0.033-0.3771-0.066-0.5656-0.0989
			c-0.1975,0.3156-0.3227,0.7467-0.6066,0.9244c-0.7684,0.4809-1.747,1.3415-2.3799,1.1561
			c-0.956-0.2802-2.0894-1.1639-2.4407-2.0663c-0.961-2.4689-1.8364-4.9056-3.3608-7.1486
			c-2.3539-3.4635-1.7848-5.366,1.4012-7.5233c0.7652-0.5182,1.5188-1.108,2.1058-1.8089c0.2453-0.2928,0.1605-1.0078-0.0086-1.4389
			c-0.0815-0.2078-0.7054-0.2789-1.0847-0.2816c-2.5501-0.0186-4.5621,0.9901-6.4502,2.7698
			c-1.4772,1.3924-3.5673,1.2435-5.571,0.3551c-0.2819,1.8673-1.4786,2.8006-3.0169,2.5492c-1.2733-0.208-2.427-1.1481-3.662-1.7783
			c-0.5574,1.0949-1.0854,2.1809-2.6946,1.8956c-1.6038-0.2843-2.5628-1.1345-2.8261-2.7233
			c-0.2794-1.6863-0.7652-3.3967-0.6671-5.0676c0.0705-1.2,0.9337-2.3609,1.4786-3.5228c0.3592-0.7661,0.8177-1.4863,1.1666-2.2565
			c0.584-1.289,1.1044-2.6067,1.6736-3.9026c0.4177-0.951,0.9305-1.8642,1.2938-2.8343c0.5758-1.5376,0.7763-2.9084-1.1174-3.898
			c-0.9012-0.4709-1.4044-1.6495-2.2172-2.3595c-0.754-0.6587-1.6801-1.1203-2.5624-1.6894
			c-0.2041,0.4393-0.4561,0.9814-0.7012,1.5088c0.0604,0.1132,0.0858,0.2514,0.1575,0.2823
			c3.283,1.4123,3.6509,3.2683,1.2136,6.1566c-1.2691,1.504-2.1244,1.5057-3.4027-0.035c-0.362,0.8701-0.5471,1.8638-1.1166,2.5279
			c-0.5569,0.6495-1.5186,1.3299-2.2781,1.303c-0.5631-0.02-1.3762-1.0773-1.5599-1.8036
			c-0.2705-1.0695-0.2758-2.2977-0.0437-3.3833c0.4442-2.0783,1.135-4.104,1.701-6.073c-0.3704-0.2727-1.3177-0.6234-1.3811-1.0935
			c-0.11-0.8157,0.2273-1.7469,0.5651-2.5506c0.2729-0.6493,0.8226-1.1822,1.4702-2.0689
			c-3.0806,0.8387-4.7296,2.3266-5.1731,5.1633c-0.2723,1.7415-2.7535,3.5513-4.2262,3.479
			c-1.4317-0.0702-2.949-1.7962-3.0271-3.4433c-0.0707-1.4921,1.0321-2.796,2.9102-2.6496c2.2426,0.1749,2.447-1.1429,2.3982-2.6179
			c-0.0582-1.7611,0.8409-2.4265,2.3307-2.9046c1.3503-0.4333,2.7452-0.8835,2.1859-2.9925
			c-0.2115-0.7977,0.4602-1.8519,0.7953-2.765c0.2577-0.7022,0.6185-1.3667,0.9368-2.045c1.5635-0.4795,1.923-1.4902,1.1043-3.9187
			C71.6454,118.097,71.3235,119.298,71.0016,120.4991z M73.0876,138.2961c2.0633-1.4191,3.3215-2.7585,1.6018-5.2644
			c-0.6769-0.9864-0.2079-2.1553,0.7293-2.5384c0.5612-0.2294,1.8236,0.2691,2.2161,0.8292
			c0.7229,1.0316,1.0368,2.3497,1.5288,3.5673c1.2949-0.308,1.1208-0.2224,1.7094,0.9744c0.5844,1.1884,1.3828,2.4244,2.4147,3.2088
			c2.3479,1.7846,2.8387,2.9972,1.7007,5.7875c-0.7277,1.7845-1.4934,3.5535-2.2352,5.3323
			c-0.569,1.3644-0.7621,3.1727-1.767,4.0077c-2.0238,1.6817-1.6106,3.6084-1.3265,5.6058c0.1581,1.1113,0.5941,2.183,0.9049,3.2725
			c0.1799-0.0127,0.3599-0.0253,0.5398-0.038c0.2911-0.3823,0.6701-0.726,0.8576-1.1537c0.7134-1.6278,1.4443-1.8654,2.8952-0.8238
			c0.4037,0.2898,0.7173,0.7061,1.1233,0.9918c1.587,1.1169,2.4728,0.7238,2.7599-1.1881c0.0316-0.2106,0.125-0.4119,0.2531-0.819
			c0.9346,0.1505,1.8412,0.4106,2.7485,0.4134c1.0978,0.0034,2.5801,0.198,3.2239-0.4063c2.1097-1.9801,4.3476-3.2256,7.3134-3.1526
			c0.9967,0.0246,1.9268-0.285,2.6375,0.7484c0.8344,1.2135,1.4561,2.4838,0.4587,3.7945c-0.7216,0.9483-1.6617,1.779-2.6376,2.4756
			c-2.5189,1.7981-2.8833,3.1052-1.0189,5.4983c1.5659,2.01,2.6316,4.1875,3.2274,6.6446c0.1012,0.4172,0.5562,0.7486,0.8478,1.1197
			c0.3616-0.3071,0.9199-0.5485,1.0481-0.9333c0.3948-1.1845,1.2702-1.4875,2.1934-1.051c0.9653,0.4564,2.0408,1.1321,2.5146,2.0104
			c0.2961,0.549-0.1755,2.0962-0.7453,2.4227c-2.0072,1.1502-2.2703,2.9636-2.4359,4.7448c0.6791,0.391,1.7277,0.6854,1.7746,1.0947
			c0.069,0.6015-0.4285,1.4592-0.9462,1.902c-1.8261,1.5621-1.521,3.4695-1.1672,5.4568c0.099,0.5561,0.2029,1.3265-0.0848,1.693
			c-0.6648,0.8468-1.6169,1.4604-2.3626,2.2532c-1.0281,1.093-2.1647,1.1017-3.2687,0.3198
			c-0.9745-0.6902-1.74-0.5924-2.7394-0.0362c-1.2348,0.6871-2.5604,1.3223-3.9258,1.6415
			c-3.3243,0.7773-4.3217,0.3037-5.2016-2.2889c-1.6283,0.8074-3.0038,0.1893-4.3895-1.0215
			c-0.052,0.6777,0.0328,1.2583,0.3589,1.6235c3.8131,4.2708,3.7538,4.7158-0.781,8.3318
			c-0.9689,0.7725-1.7007,1.8424-2.5417,2.7753c0.1561,0.1423,0.3121,0.2846,0.4681,0.4268
			c0.6497-0.6445,1.3947-1.2189,1.9299-1.9475c1.2828-1.7462,2.6913-2.1292,4.6346-1.1613c2.6142,1.302,2.8829,3.8116,2.9848,6.2223
			c0.1445,3.4198-1.4354,6.4051-3.0702,9.2755c-0.4821,0.8465-1.4698,1.4487-2.3149,2.0342
			c-1.1604,0.804-2.3657,1.5646-3.6239,2.2012c-2.0043,1.0141-4.0376,1.9864-6.1191,2.8265
			c-1.1194,0.4518-2.3646,0.5917-3.553,0.8723c-0.0225,0.1395-0.0451,0.279-0.0676,0.4185
			c1.7796,0.7351,2.1566,1.9962,1.4428,3.5936c2.2945,0.9983,4.199,0.9965,6.3922-0.5206c1.3807-0.9551,3.5814-1.044,5.3913-0.9691
			c1.7815,0.0738,2.2571,1.4578,1.762,3.5012c-0.128,0.5282,0.0127,1.1464,0.1486,1.6938c0.0287,0.1156,0.6711,0.2515,0.8716,0.1252
			c2.3077-1.4531,4.0113-0.1311,5.6548,1.2357c2.0867,1.7354,5.1844,1.7167,7.2911,0.0165
			c0.7845-0.6331,1.8408-1.3639,2.7413-1.3245c1.6507,0.0723,2.7343-0.7599,3.8255-1.6404c1.2865-1.0381,2.41-2.2774,3.6881-3.3273
			c0.3929-0.3227,1.0612-0.3102,1.6034-0.4511c0.0941,0.6069,0.3231,1.2336,0.2382,1.8143
			c-0.0641,0.4384-0.5191,0.826-0.8185,1.2224c-1.1311,1.4973-2.2471,3.0069-3.417,4.4735
			c-0.4459,0.5591-0.9376,1.2645-1.5537,1.4717c-2.0339,0.6842-2.5322,2.2109-2.713,4.0878
			c-0.1726,1.7914-0.9146,2.2899-2.7337,2.1321c-0.8054-0.0699-1.6199-0.0531-2.43-0.0471c-2.4751,0.0184-4.9625,1.0175-7.41-0.4797
			c-1.1737-0.718-3.0598-0.0938-3.3811,0.7499c-1.032,2.7099-1.0422,2.7472-4.051,2.7638c-0.9052,0.005-1.6577,0.2362-1.651,1.1793
			c0.0217,3.0777-1.9571,5.2107-3.7511,7.1788c-3.1593,3.4659-6.7419,6.5458-10.1355,9.7762
			c1.2947,0.7688,1.2498,3.5804,3.8763,3.4066c-0.4901-3.153,0.388-4.3766,3.4897-5.0048c0.3063-0.0621,0.5866-0.2439,0.8906-0.3278
			c2.1196-0.5853,3.9442-2.3818,6.4241-1.5491c0.2138,0.0718,0.6111-0.1862,0.8323-0.3897
			c1.0546-0.9702,2.0688-0.9444,3.3297-0.2649c1.5759,0.8492,3.2618,1.5208,4.954,2.1165c0.8339,0.2935,1.6114,0.1057,1.7886-1.0963
			c0.2228-1.5118,0.6947-2.9861,0.9368-4.4962c0.3944-2.4595,0.902-2.8975,3.3273-3.222c1.5058-0.2015,2.9894-0.6508,4.4484-1.1011
			c2.0206-0.6235,4.5666,0.1502,5.9694,1.8298c0.5362,0.6419,1.2374,1.1461,1.604,1.4781c0.8963-0.8197,1.4124-1.6965,1.9861-1.7359
			c1.3884-0.0955,2.8036,0.1994,4.3448,0.3503c0.0086-0.0144,0.2474-0.2284,0.2138-0.3834
			c-0.4244-1.9582,0.9314-2.094,2.1728-1.9049c1.5278,0.2328,3.005,0.7974,4.826,1.3091c0.2444-0.4676,0.7206-1.2588,1.0818-2.0994
			c0.4574-1.0643,1.1808-2.117,2.3291-1.5434c2.0899,1.0441,4.0594,1.2341,6.1803,0.2943c0.1913-0.0848,0.5195,0.1225,0.7786,0.2107
			c2.1217,0.7217,4.2135,0.2677,6.0721-0.6423c1.2617-0.6178,2.2738-0.6879,3.4217-0.1093
			c0.8877,0.4474,1.7754,0.9122,2.6003,1.4633c1.8798,1.2559,4.9601,1.1364,6.5395-0.858c0.9877-1.2473,2.4226-2.0596,3.8803-1.6602
			c1.3371,0.3663,1.906-0.2634,2.1204-1.0793c0.47-1.7886,1.8653-2.3338,3.2318-3.1411c0.958-0.5659,1.8977-1.5032,2.3301-2.4986
			c0.2871-0.6609-0.1656-1.8274-0.6306-2.5452c-0.2014-0.3109-1.3024-0.1967-1.9334-0.0355
			c-1.0052,0.2567-1.9373,0.8015-2.9432,1.0532c-0.5851,0.1464-1.358,0.1546-1.8651-0.1154
			c-1.4202-0.7563-2.7771-1.6453-4.0979-2.5693c-0.8106-0.5671-1.6098-1.568-0.5979-2.3002
			c0.7955-0.5757,2.1088-0.4612,3.1992-0.5946c0.6579-0.0805,1.6658,0.2127,1.9255-0.1214
			c0.5564-0.7157,0.7597-1.7206,1.0226-2.6316c0.0345-0.1196-0.4164-0.4035-0.667-0.5757c-0.4032-0.2769-0.8268-0.524-1.2418-0.7837
			c0.3715-0.4896,0.7187-1.0008,1.1258-1.4587c0.1738-0.1955,0.6519-0.2445,0.6866-0.4203
			c0.3436-1.7429,1.1461-1.5317,2.3077-0.7011c0.2861,0.2045,0.9381-0.1026,1.4219-0.1745
			c-0.1561-0.4016-0.3164-0.8015-0.4671-1.2051c-0.2048-0.5483-0.723-1.3163-0.5308-1.6007
			c0.3237-0.4789,1.1205-0.9356,1.6825-0.8958c1.3061,0.0925,2.3247-0.1968,2.9457-1.3596c1.1386-2.132,2.2313-4.2888,3.3201-6.4469
			c1.6123-3.1957,1.2276-6.1532-1.4875-8.3074c-2.0154-1.5991-4.2706-2.9837-6.6004-4.0773
			c-3.2612-1.5309-4.8688-0.9994-7.4449,1.474c-0.7479,0.7181-1.78,1.3141-2.7815,1.56c-2.4817,0.6095-4.6541-0.6612-4.3589-2.6636
			c0.2114-1.4337,1.0237-3.092,2.1076-4.0196c2.3539-2.0146,2.855-4.672,0.761-6.9369c-1.1615-1.2563-2.5436-2.3311-3.573-3.6809
			c-1.1262-1.4767-2.4091-2.5476-4.1962-3.0634c-1.1123-0.3211-2.2318-0.6831-3.258-1.2043
			c-0.4045-0.2055-0.564-0.8935-0.8351-1.3618c0.5126-0.244,1.0061-0.6107,1.5436-0.6943c0.4544-0.0706,0.973,0.148,1.4402,0.3062
			c1.6832,0.57,3.3566,1.1686,5.4595,1.9056c-2.806-3.3553-5.8923-6.2972-3.602-10.3863c-1.8566-2.6105-3.614-5.0415-5.3274-7.5032
			c-1.4402-2.0692-3.0217-3.7386-5.9033-2.8694c-0.3232,0.0975-1.0013-0.1233-1.1304-0.3856
			c-0.6528-1.3265-1.2144-2.702-1.7377-4.0868c-0.4608-1.2197-0.8173-2.4784-1.2408-3.7127
			c-0.5845-1.7038-1.2899-3.3736-1.7559-5.1083c-0.4637-1.7266-0.4614-3.6054-1.0939-5.2522
			c-0.6499-1.6923-0.9554-3.2978-0.966-5.1164c-0.0128-2.2035-0.7087-4.2683-2.6692-5.7508
			c-1.1885-0.8988-2.2626-2.0329-3.1338-3.2441c-0.8984-1.249-1.8196-2.2603-3.4523-2.1144
			c-1.5089,0.1348-2.7321-0.4684-3.6166-1.5231c-0.7794-0.9294-1.3381-0.6398-2.2502-0.3008
			c-1.7899,0.6654-3.6764,1.5213-5.5141,1.5011c-2.6644-0.0292-5.3374-0.6901-7.9669-1.264
			c-0.5194-0.1134-0.8586-1.0525-1.2808-1.6107c0.4838-0.2225,1.0039-0.6924,1.4456-0.6276
			c3.0546,0.4482,5.7645-0.158,8.2842-2.0232c0.9237-0.6838,2.1949-0.9788,3.3551-1.2391c1.1185-0.2509,2.2984-0.2283,3.4513-0.3258
			c0.0308-0.2101,0.0616-0.4202,0.0924-0.6303c-0.8773-0.2842-1.8118-0.4621-2.6113-0.8913
			c-0.5035-0.2704-0.8982-0.8723-1.1594-1.4134c-0.1397-0.2893,0.1071-0.7652,0.2157-1.3536
			c-1.0601,0.4599-1.9205,0.8019-2.7531,1.2017c-1.2658,0.6078-2.5548,0.2778-2.9557-0.8512c-0.512-1.442,1.135-1.479,1.9921-1.7963
			c2.048-0.7584,4.197-1.046,6.1022-2.414c1.8492-1.3279,3.1429-2.6267,3.4648-4.9914c0.1586-1.1649,0.9184-2.4357,1.7771-3.2825
			c2.626-2.5899,3.4679-5.9786,4.3446-9.301c0.5776-2.1889-0.0637-4.7709,2.5779-6.1145c0.2832-0.1441,0.3804-1.0307,0.2696-1.504
			c-0.3706-1.5834-3.0625-4.2346-5.1625-3.9876c-4.0752,0.4791-8.0984,0.1645-12.1255-0.7298
			c-1.2922-0.287-2.8787,0.098-4.1684,0.5957c-2.3202,0.8953-4.5142,2.116-6.7683,3.1851
			c-1.3341,0.6328-2.6971,1.2061-4.0187,1.8631c-0.7834,0.3895-1.3407,1.993-2.3984,0.7829
			c-1.0948-1.2525,0.5884-1.688,1.1184-2.4411c0.509-0.7234,1.0766-1.4056,1.6184-2.1059
			c-0.1434-0.1259-0.2869-0.2517-0.4303-0.3776c-0.469,0.2836-0.9122,0.6329-1.4149,0.831
			c-0.4444,0.1751-0.9552,0.1817-1.4367,0.2627c0.0219-0.5583-0.186-1.3518,0.1042-1.6354
			c1.5135-1.4787,3.2088-2.6911,5.6081-2.2536c0.3545-0.7187,0.7084-1.4365,0.9301-1.886
			c-1.3773-0.3454-2.6465-0.5788-3.8484-1.0029c-0.5537-0.1954-0.9757-0.7639-1.4575-1.1632
			c0.5455-0.3007,1.0616-0.6872,1.642-0.8859c1.6512-0.5652,4.0138-0.2212,3.7385-3.1055
			c-0.0138-0.1449,0.0652-0.3571,0.1753-0.4468c1.9653-1.6004,3.7666-3.5162,5.9639-4.6873
			c2.4063-1.2824,4.6666-2.4472,5.4122-5.2712c0.1682-0.637,0.1812-1.435-0.0542-2.033c-0.4658-1.1836-1.1548-2.2794-1.8212-3.5434
			c-0.0317,0.0154-0.4695,0.0917-0.6771,0.3518c-1.034,1.2958-2.3978,1.3579-3.8969,1.2969
			c-1.5924-0.0648-3.2571-0.1888-4.7738,0.1853c-1.927,0.4752-3.7369,1.4255-5.7455,2.2303
			c-1.3988-1.067-1.3988-1.0671-2.2557-0.5019c-1.7925,1.1822-2.3688,1.0969-3.7392-0.5531
			c-1.1468-1.3809-2.8867-1.3136-3.4844,0.3166c-0.4129,1.1261-0.4471,2.4751-0.3229,3.691
			c0.1295,1.2674-0.2999,2.3365-1.3614,2.4364c-1.9732,0.1857-2.2857,1.3554-2.3988,2.8942
			c-0.1124,1.5294-0.6298,3.1417-0.3056,4.5665c0.6364,2.797-0.2132,4.0164-3.0236,3.6501
			c-0.8309,1.0019,1.2311,3.2258-1.5054,3.3157c-0.0217,1.9153,2.2611,4.1727-0.7401,5.2807
			c-0.0675,0.7918,0.1104,1.7414-0.2377,2.0102c-0.4221,0.3261-1.2882,0.0774-2.222,0.0774
			c0.5177,1.1354,1.0516,2.3063,1.6019,3.5131c0.9578-0.781,2.1706-0.8769,1.8416,0.3877c-0.4565,1.7543,0.2397,4.3632-2.2991,4.798
			c0.3816,1.2633,0.8622,2.4053,0.9999,3.5874c0.0405,0.3477-0.8858,1.1435-1.3759,1.1493
			c-1.0857,0.0128-1.137-0.0872-0.8124,0.9101c0.8087,2.4845,0.4573,3.0566-2.1073,3.4314
			c3.7856,2.1415,3.9318,2.7062,1.1438,4.4183c0.6737,2.9415-0.3065,4.3129-3.2699,4.8735
			c-0.901,0.1705-2.2818-0.0757-2.4618,1.4904c2.0404-0.5948,3.9827-1.1505,5.9182-1.7287c1.367-0.4084,2.0267-1.0518,1.8485-2.7631
			c-0.0876-0.8409,1.089-2.1002,2.0057-2.6364c0.4498-0.2631,2.1123,0.4986,2.3554,1.1312
			c0.6755,1.7574,0.8049,3.6584-0.6085,5.3065c-0.7474,0.8715-1.3809,1.8408-2.1074,2.822
			c3.2611,1.1377,3.7485,5.3357,1.3482,9.6568c1.6102,0.4258,1.9135,0.96,1.3534,2.4453c-0.2485,0.659-0.5401,1.3017-0.812,1.9523
			c-1.3715,2.3663-1.9021,4.9179-1.646,7.6743c0.5824-0.6497,0.9861-1.3807,1.0909-2.1522
			C72.8131,142.0064,72.9218,140.1474,73.0876,138.2961z M66.4133,99.1194c-0.0643-0.1233-0.0989-0.3141-0.2097-0.3838
			c-2.4149-1.5179-2.6561-2.0394-2.1087-4.632c0.424-2.0084-0.2171-3.2297-2.5922-4.6279c0.1014,0.7373,0.2598,1.3111,0.2335,1.8763
			c-0.0218,0.4675-0.2616,0.9248-0.4047,1.3867c-0.4145-0.2024-0.9724-0.2999-1.2134-0.6293
			c-0.4961-0.6783-1.0045-1.3638-1.7582-0.5968c-0.2421,0.2464,0.0403,1.2641,0.3545,1.7549
			c1.0857,1.6956,2.6905,3.1677,3.3618,4.9952C63.2075,101.3429,64.7804,100.7579,66.4133,99.1194z M65.24,135.7435
			c-0.1566-0.1238-0.3131-0.2476-0.4697-0.3714c-0.7583,0.0696-1.5275,0.0846-2.2706,0.2313
			c-0.3862,0.0762-0.9759,0.3324-1.0325,0.6005c-0.1007,0.4765,0.0129,1.1024,0.277,1.5103
			c0.1448,0.2236,0.9262,0.3241,1.1686,0.1429C63.7484,137.2327,64.4731,136.4599,65.24,135.7435z M66.4494,115.6758
			c-1.531-1.1992-2.3571-0.6319-3.0736,0.1047c-0.1506,0.1548,0.0547,0.6558,0.0959,0.9973
			C64.3501,116.4528,65.2285,116.1277,66.4494,115.6758z M76.1889,142.8894c0.2088,0.065,0.4177,0.13,0.6265,0.195
			c0.2295-0.8028,0.5521-1.597,0.6277-2.4141c0.0208-0.2244-0.6971-0.5171-1.2543-0.9015
			C76.1889,141.0478,76.1889,141.9686,76.1889,142.8894z M70.7763,129.0864c-0.1032-0.1362-0.2065-0.2724-0.3097-0.4086
			c-1.2994,0.7252-2.5988,1.4503-3.8983,2.1755c0.102,0.1577,0.204,0.3154,0.306,0.473
			C68.175,130.5797,69.4756,129.8331,70.7763,129.0864z"/>
		<path d="M26.4264,172.8764c1.8016-0.3445,2.975-1.1237,3.4117-3.1786c0.2226-1.0476,1.5518-1.8787,2.4266-2.7623
			c0.5404-0.5458,1.1671-1.0063,1.7551-1.505c-0.0842-0.1573-0.1684-0.3146-0.2526-0.4719c-1.1117,0.2076-2.29,0.2472-3.3223,0.6556
			c-2.6882,1.0637-5.726-3.1615-5.0807-5.1714c0.1821-0.5672,1.0212-1.2218,1.6297-1.3024
			c2.7078-0.3586,4.2449-1.4873,3.9625-4.5075c-0.2903-3.1042,2.6067-3.5846,4.3931-4.9591
			c0.3478-0.2676,0.723-0.5011,1.0586-0.7825c2.3144-1.9405,3.2251-1.9857,5.8809-0.1754c1.6922-2.9733,4.6657-2.5827,7.4095-2.6136
			c1.5883-0.0179,2.4691,1.445,2.7882,4.2517c2.465-2.4748,5.4868-2.4851,8.4992-2.2032c1.6688,0.1562,3.3788,0.5127,4.9285,1.1329
			c1.7554,0.7026,2.4647,2.623,1.7414,4.3761c-0.6439,1.5604-0.3944,2.6728,0.6098,4.0649
			c0.8687,1.2042,1.0535,2.9017,1.6119,4.5977c2.8486,0.7388,4.4142,2.0376,4.4604,4.3954c0.0273,1.3958-0.4105,2.8227-0.775,4.1996
			c-0.758,2.8639-2.5501,4.7523-5.4313,5.6423c-0.595,0.1838-1.224,0.7469-1.5234,1.304c-0.7982,1.4851-1.6965,2.6492-3.599,2.5893
			c-0.5179-0.0164-1.0452,0.2666-1.5649,0.4112c0.6051,2.162,1.3762,4.1841,1.6845,6.2744
			c0.2086,1.4145,0.0888,3.0622-0.4624,4.3599c-0.7872,1.8532,0.0233,2.9712,1.1388,4.0758
			c1.7621,1.7449,2.1638,3.5714,1.2933,5.9482c-0.8934,2.4391-1.8473,4.8731-2.4852,7.3829
			c-0.4425,1.7412-0.2024,3.6521-0.6128,5.4063c-0.5678,2.427-1.4084,4.7963-2.2326,7.1552
			c-0.5328,1.5248-2.7207,2.2403-4.4029,1.1001c-1.5511-1.0514-2.6327-0.3491-3.4642,0.5155
			c-1.9339,2.0108-4.2143,1.9897-6.5485,1.4076c-1.6071-0.4008-2.6525-0.4266-3.2168,1.4404
			c-0.1801,0.5958-1.0099,1.1257-1.6622,1.4236c-1.8779,0.8574-3.7798,2.0782-5.7418,2.2245
			c-2.1891,0.1632-2.8983,1.1667-3.5241,2.8945c-0.2239,0.6183-0.9496,1.2495-1.5905,1.4891
			c-2.9866,1.1163-5.9858,2.2362-9.0565,3.0769c-1.9369,0.5302-3.7338,1.8347-5.9038,1.347
			c-1.1128-0.2501-2.2893-0.3871-3.2929-0.873c-0.432-0.2092-0.4982-1.1739-0.8585-2.1376
			c-0.6813-0.1266-1.8026-0.3543-2.9311-0.5386c-0.9073-0.1482-1.2715-0.5881-0.965-1.5043
			c0.2592-0.7746,0.4898-1.5587,0.7255-2.3145c-1.4842-0.3148-2.75-0.4606-3.917-0.8809c-0.616-0.2218-1.4187-0.8801-1.4814-1.4177
			c-0.064-0.5485,0.5555-1.3448,1.0881-1.7602c1.1601-0.9048,2.4553-1.6366,3.8068-2.5112c-1.8289-0.2738-3.4976-0.426-5.1103-0.812
			c-0.6688-0.1601-1.598-0.7406-1.7106-1.2766c-0.1052-0.5007,0.6164-1.3027,1.1445-1.7858
			c1.8508-1.6931,4.1668-1.3292,6.3495-1.1249c1.4714,0.1377,2.1228-0.4135,2.0131-1.7256c-0.1665-1.991,1.2618-2.709,2.6475-3.6768
			c-0.2819-0.2461-0.5834-0.4475-0.8069-0.7143c-1.8697-2.2315-1.86-2.9114,0.1729-5.1477
			c0.8878-0.9766,1.9539-1.8023,2.7685-2.8316c1.123-1.419,2.2519-2.8794,3.0765-4.4778c1.282-2.4851,1.6223-2.7415,4.3494-1.7488
			c0.2928-0.3418,0.8373-0.7096,0.9461-1.1786c0.1121-0.4834-0.0781-1.1495-0.3709-1.5735
			c-0.1847-0.2675-0.8886-0.4377-1.204-0.2986c-0.6376,0.2811-1.1892,0.778-1.7412,1.2289
			c-2.7909,2.2797-5.6478,1.5785-7.1109-1.8444c-3.1452,0.8007-4.0888-1.9597-5.6184-3.6932
			c-0.5471-0.6201-0.7306-1.6787-0.8135-2.5622c-0.1142-1.2175,0.604-1.6462,1.7978-1.3824
			c1.0562,0.2334,1.6517-0.0104,1.6429-1.3331c-0.0103-1.5427,0.9309-2.476,2.4528-2.8712
			c0.3875-0.1006,0.6853-0.5464,1.0243-0.8337c-0.381-0.2057-0.7415-0.4744-1.1466-0.6059
			c-1.4898-0.4838-3.0392-0.8174-4.4716-1.429c-0.5775-0.2466-1.3028-1.0782-1.2837-1.6197
			c0.0623-1.7605,0.4719-3.5058,0.6823-5.2647c0.1967-1.645,1.4063-2.7054,3.7173-3.0701c1.7959-0.2834,3.5937-0.5843,5.4024-0.7492
			c2.8388-0.2589,2.8437-0.2135,4.0383,2.2597c0.1419,0.2939,0.2705,0.5942,0.3037,0.6674c1.8471-0.2666,3.5702-0.5616,5.3057-0.728
			c0.358-0.0343,0.7619,0.4106,1.1444,0.6354c-0.3492,0.3295-0.655,0.8677-1.0547,0.95c-1.571,0.3234-3.177,0.2264-4.6563,1.2102
			c-1.285,0.8546-1.8691,0.4135-2.1608-1.1391c-0.389-2.0706-0.7505-2.4722-2.7706-2.3406
			c-1.8691,0.1218-3.7743,0.3048-5.5597,0.8205c-0.8277,0.239-1.4684,1.2853-2.0751,2.0588
			c-0.2827,0.3605-0.2207,0.9704-0.4214,1.4198c-0.9992,2.2373-0.9874,2.7519,0.9372,3.97
			c0.8048,0.5094,1.9778,0.6654,2.9623,0.6098c1.5216-0.086,2.4706,0.4486,2.8417,1.874c0.3781,1.4524-0.278,2.5186-1.8999,2.9507
			c-1.0271,0.2736-1.5238,0.688-1.4624,1.8181c0.087,1.6011-0.6765,2.4892-2.3804,2.417c-0.4055-0.0172-0.8167,0.0999-1.3999,0.1788
			c0.5906,0.9134,1.0905,1.6335,1.5351,2.3862c0.708,1.1988,1.5656,1.8922,3.1197,1.6307c0.92-0.1548,1.8244-0.0366,2.1152,1.4016
			c0.4173,2.0643,2.2646,2.4395,3.7931,0.9673c2.5432-2.4493,4.1093-2.5173,5.9482-0.2773
			c0.8627,1.0509,1.0597,2.0146,0.2219,3.2831c-0.8326,1.2605-1.6808,1.8283-3.1588,1.2546
			c-0.4313-0.1674-0.9455-0.1212-1.5816-0.1902c-0.7936,4.4505-4.3124,6.9594-7.4957,10.112
			c1.9765-0.0959,3.6141-1.0307,4.9248,0.9928c-1.1772,0.3555-2.1063,0.6361-3.0506,0.9212c1.2011,0.6865,2.0475,0.698,3.43,0.0385
			c2.0362-0.9713,4.0419-2.0144,6.1211-2.8817c0.5127-0.2138,1.7657,0.0296,1.8088,0.2404c0.1673,0.8192,0.6875,1.9533-0.6676,2.381
			c-2.8996,0.9151-5.7697,1.9688-8.7245,2.6512c-2.7134,0.6266-4.0618,1.7245-4.5171,4.4845
			c-0.2999,1.8178-0.8503,2.1918-2.5885,1.9405c-1.255-0.1815-2.5419-0.399-3.7884-0.2929
			c-0.8411,0.0717-1.6367,0.6789-2.4526,1.0465c0.0641,0.2044,0.1281,0.4088,0.1922,0.6132
			c0.7411,0.0453,1.4823,0.1295,2.2233,0.1279c1.5921-0.0035,3.1895-0.1433,4.7745-0.0509c1.2097,0.0705,1.7531,1.0107,1.042,1.5707
			c-1.2437,0.9797-2.5925,1.8333-3.9388,2.673c-0.9377,0.5848-1.945,1.0581-2.9212,1.5813
			c3.2347,1.4667,6.3032,0.5371,9.3936,0.0952c0.1071,0.8146-0.0291,1.6159,0.2981,1.9225c0.9701,0.909,0.2404,1.219-0.3988,1.5791
			c-0.9502,0.5353-1.9295,1.0191-2.8964,1.5248c0.0592,0.2037,0.1184,0.4074,0.1776,0.6112
			c1.4345-0.3398,2.9037-0.5784,4.2913-1.0547c0.9352-0.321,1.6602-0.5208,2.3226,0.5838
			c-1.2612,0.9211-2.5064,1.8304-3.7515,2.7397c0.0475,0.1479,0.095,0.2959,0.1425,0.4438c1.2339,0,2.5678,0.3077,3.6836-0.0553
			c4.0039-1.3028,7.9392-2.8186,11.8829-4.3004c0.341-0.1282,0.6741-0.5534,0.8068-0.9155
			c0.8333-2.2744,1.6846-4.1498,4.8718-3.4617c1.1192,0.2417,2.5691-0.9671,3.8458-1.5613c1.1232-0.5228,2.1738-1.075,2.6827-2.3956
			c0.4502-1.1684,1.2737-1.8916,2.7444-1.2345c0.6567,0.2934,1.5015,0.131,2.2275,0.3105c1.8768,0.4642,3.3915,0.0447,4.7201-1.4269
			c1.1691-1.2949,3.1195-1.4309,4.6838-0.7264c0.7906,0.356,1.7119,0.4217,2.2159,0.5369c0.8925-2.6147,1.6856-4.8685,2.4225-7.1406
			c0.2158-0.6653,0.3252-1.3776,0.3877-2.0769c0.0882-0.9868-0.0849-2.0263,0.1592-2.9638
			c0.5659-2.1739,1.2486-4.3238,2.0067-6.4395c0.9216-2.5719,2.023-4.9265-0.9952-7.1406
			c-1.2866-0.9439-1.7736-2.8885-0.6658-4.7076c0.3759-0.6172,0.3811-1.4861,0.4658-2.2498
			c0.267-2.4089-0.6168-4.5359-1.5537-6.6952c-1.0494-2.4184-0.264-3.6379,2.3089-3.5177c1.4835,0.0693,2.0089-0.6592,2.6294-1.7244
			c0.4046-0.6945,1.0534-1.4889,1.7621-1.7205c2.6042-0.8512,4.5038-2.4029,5.2266-5.039c0.3778-1.3777,0.5175-2.9293,0.3018-4.3311
			c-0.2242-1.4568-1.7726-1.1396-2.869-1.4127c-1.2221-0.3044-1.9337-0.9917-1.8515-2.5081
			c0.0618-1.1394-0.1505-2.5383-0.7928-3.4192c-1.2637-1.7331-1.5979-3.3476-0.7925-5.339
			c0.6314-1.5613-0.0379-2.6029-1.7307-2.7601c-2.1184-0.1968-4.2557-0.3528-6.3768-0.2835
			c-0.9745,0.0319-1.9598,0.5779-2.8874,1.0055c-1.4957,0.6895-2.9104,1.5694-4.4388,2.1648
			c-0.5151,0.2007-1.2719-0.2191-1.9182-0.3553c0.3625-0.68,0.7301-1.3574,1.086-2.0409c0.3515-0.6751,0.8776-1.3382,0.9461-2.0436
			c0.0281-0.2899-0.9189-0.9177-1.4611-0.9673c-1.0291-0.0942-2.0874,0.1049-3.1313,0.2057
			c-1.2699,0.1225-2.1089,1.1731-1.7175,2.3995c0.8122,2.545,0.0066,3.3787-2.6871,5.2051c-1.4875-1.2029-0.3302-2.5538-0.05-3.7292
			c0.2767-1.1609,0.0607-1.7672-0.9118-2.3173c-0.9884-0.5591-1.7514-0.6208-2.6544,0.2941
			c-0.9582,0.9709-2.0522,1.9773-3.2858,2.4644c-1.5796,0.6237-1.7644,1.794-1.9579,3.1065
			c-0.0647,0.4386-0.0632,0.8869-0.0946,1.3306c-0.153,2.1612-0.916,2.9332-2.9581,3.2943
			c-0.8913,0.1576-1.731,0.6068-2.5936,0.9234c1.1422,2.987,1.8993,3.3731,4.7485,2.591c0.1595-0.0438,0.3283-0.054,0.493-0.0784
			c1.1719-0.1735,2.3383-0.377,3.0686,0.9425c0.7627,1.3781,0.0704,2.7704-0.8679,3.2244
			c-2.2473,1.0873-3.0573,3.0398-3.9577,5.0447c-0.1346,0.2998-0.3231,0.7169-0.5758,0.7964
			c-0.8675,0.2731-1.7708,0.5158-2.6692,0.5518C26.9568,174.0519,26.6844,173.2862,26.4264,172.8764z"/>
		<path d="M132.4787,14.9162c-0.1239-1.2407-0.1665-2.1258-0.3227-2.9905c-0.0573-0.3169-0.3468-0.797-0.594-0.8403
			c-1.395-0.2445-2.0699-1.471-1.6929-2.349c0.4129-0.9615,1.6429-1.8406,2.7014-2.1801c1.0398-0.3336,2.3148,0.1272,2.5316-1.5616
			c0.0297-0.2316,0.7245-0.5367,1.1109-0.536c1.6013,0.0029,2.3212-0.8705,2.6821-2.309c0.1809-0.7208,0.5789-1.3872,0.9098-2.1496
			c0.5606,0.1929,0.9679,0.3201,1.3657,0.472c2.2594,0.8624,2.5495,2.8688,0.7082,4.5162
			c-0.3184,0.2848-0.6706,0.9883-0.5334,1.2508c0.8056,1.5416-0.3567,2.5088-1.2243,3.0126
			c-1.146,0.6655-1.1772,1.3815-1.0419,2.1143c0.9639,0.2279,1.8672,0.2915,2.6234,0.6583
			c0.9482,0.4599,0.9656,1.2881,0.2621,2.0514c-0.4508,0.4891-0.9999,0.8867-1.4589,1.3691
			c-0.991,1.0413-2.288,1.8939-1.4031,3.7632c0.3362,0.7101,0.1545,1.7022-1.1796,1.9015c-1.657,0.2475-1.1953,1.5432-0.6913,2.3989
			c0.7848,1.3326,0.5283,2.5634-0.2764,3.5638c-0.5324,0.6619-1.6252,1.2946-2.3873,1.2111
			c-0.5667-0.0621-1.3211-1.2502-1.4272-2.0151c-0.1617-1.1666,0.1537-2.4019,0.2858-3.606
			c0.2887-2.6302-0.3058-3.2737-2.9281-3.6143c-0.847-0.11-1.9336-0.5197-2.362-1.1596c-0.5219-0.7795-0.4648-1.9466-0.6581-2.946
			c0.8222-0.1492,1.642-0.3988,2.4672-0.4176C130.6897,14.5075,131.4393,14.7432,132.4787,14.9162z M139.2821,14.5771
			c-0.5064-0.5374-1.0175-0.8301-1.1069-1.2196c-0.3252-1.4171-0.6854-2.8729-0.6343-4.2999
			c0.0144-0.4027,1.4246-0.7025,2.1196-1.1628c0.2394-0.1586,0.4518-0.7708,0.3332-0.99c-0.7709-1.425,0.1974-2.3444,0.8493-3.3775
			c0.2217-0.3513,0.3903-0.7432,0.5205-1.1372c0.0193-0.0583-0.4344-0.3561-0.4578-0.3325
			c-0.2866,0.288-0.6064,0.5803-0.7784,0.9384c-0.7004,1.4583-1.2784,2.8325-3.3478,2.9405
			c-1.4331,0.0748-1.9668,2.0732-1.2559,3.4855c0.2629,0.5223,0.2393,1.1887,0.3464,1.7894
			c-0.6102-0.0991-1.2203-0.1983-2.0994-0.3411c0,1.1783-0.0114,2.4884,0.0032,3.7981c0.0143,1.2812-0.6043,1.8665-1.8656,1.6768
			c-0.9413-0.1416-1.8696-0.3689-3.3787-0.6746c0.6715,0.8221,1.036,1.6929,1.4698,1.7289c2.3723,0.1966,4.2344,1.046,5.0521,3.265
			c0.753-0.3425,1.3356-0.6228,1.9304-0.8744c0.8593-0.3635,1.2545-0.7172,0.2304-1.4412
			c-1.1523-0.8146-0.7957-1.6803,0.1356-2.4172C137.9456,15.4585,138.5971,15.0529,139.2821,14.5771z M135.0808,22.5452
			c-0.2717,1.573-0.4938,2.8589-0.74,4.2841C136.3024,26.2858,136.3617,24.6596,135.0808,22.5452z"/>
		<path d="M113.4322,45.4889c1.2663-1.0525,2.34-1.8375,3.2778-2.7605c0.6774-0.6667,1.1316-0.6347,1.5462,0.1488
			c1.0581,1.9997,0.2249,4.2817-1.9292,4.7658c-1.5235,0.3424-1.5256,1.1132-1.2136,2.2677
			c0.3849,1.4243,0.1101,1.712-1.4257,1.5118c0.3007,1.3531,0.3154,2.5722-0.9912,3.5287
			c-0.3481,0.2548-0.4255,1.0891-0.3774,1.6354c0.1391,1.5811-0.8314,2.533-1.9342,3.2374
			c-0.5022,0.3208-1.8517,0.2621-2.0456-0.0719c-0.4472-0.7709-0.5465-1.815-0.5487-2.7489
			c-0.0016-0.674,0.3801-1.349,0.5909-2.0235c-0.1819-0.0556-0.3638-0.1112-0.5457-0.1668
			c-0.2048,0.7343-0.3387,1.498-0.6292,2.1967c-0.6172,1.4841-1.8992,1.8129-3.5748,0.9913
			c-1.384-0.6786-1.7787-1.7751-0.9589-3.1511c0.79-1.3259,1.0691-2.5632,0.424-4.0689c-0.5816-1.3576-0.1657-2.6559,1.0746-3.5225
			c1.0234-0.715,1.9297-1.807,3.4681-0.6442c1.0947,0.8274,2.7598-0.1113,2.833-0.7803c-0.7026-0.9812-1.3398-1.516-1.4831-2.1606
			c-0.1821-0.8189,1.493-2.1065,2.4375-2.0603C112.3719,41.6591,113.1706,43.0162,113.4322,45.4889z M111.6459,52.4497
			c-0.5183-1.1551-1.0807-2.4082-1.6371-3.6482c-1.4754,1.4196-2.2694-0.6815-3.9719-0.8738
			c-0.3256,0.7057-1.2105,1.6948-1.0169,2.3786c0.5752,2.0316,0.293,3.8503-0.6235,5.6477
			c1.1734,0.8725,1.4386-0.1067,1.4182-0.7078c-0.0441-1.296,0.6444-2.1493,1.6809-2.2647c0.8842-0.0984,1.8477,0.5146,2.7295,0.798
			C110.5253,53.4985,111.1132,52.9482,111.6459,52.4497z"/>
		<path d="M57.5343,80.3764c0.4235,2.996,0.1368,3.3117-2.387,2.6857c-0.1385,0.3221-0.3198,0.6511-0.4244,1.0029
			c-0.4633,1.5581-1.4975,2.4541-2.6716,2.1177c-1.6749-0.48-2.2303-1.0191-2.0085-2.8755c0.1598-1.3374,0.421-2.6659,0.7109-3.9821
			c0.0702-0.3186,0.4319-0.5731,0.7292-0.9438c-1.7367-1.2374-2.1848-2.8239-1.5729-4.7584
			c0.887-2.8036,2.9899-1.5767,4.8179-1.3831c0.7138-4.6703,4.7676-5.0942,7.8465-6.5311c0.6441,0.5191,1.1286,0.9421,1.646,1.3201
			c1.1294,0.8253,1.1516,1.6854,0.1986,2.7317c-0.4566,0.5013-0.7056,1.1928-1.0429,1.8013
			c-0.5564,1.0037-1.1796,1.9788-1.6367,3.0261c-0.3017,0.6912-0.3809,1.4842-0.525,2.2383
			c-0.1796,0.9399-0.1274,1.9809-0.5258,2.8098C59.9736,81.1235,59.0576,81.282,57.5343,80.3764z M55.1958,81.0094
			c0.2304-1.0734,0.2154-2.4496,0.6153-2.5831c1.0065-0.3359,2.2002-0.1112,3.5723-0.1112c0-0.335-0.0929-1.0831,0.0219-1.7979
			c0.1694-1.0548,0.3817-2.1266,0.7657-3.1175c0.566-1.4605,1.3441-2.8388,1.9105-4.2992c0.0805-0.2074-0.5201-0.9788-0.8073-0.9798
			c-1.7168-0.0064-4.656,2.899-4.6126,4.6153c0.036,1.4238-0.7626,1.5433-1.7988,1.4759c-0.5491-0.0357-1.0922-0.2076-1.6394-0.2147
			c-0.5154-0.0067-1.4684,0.0844-1.4782,0.1976c-0.0646,0.7438-0.2097,1.7742,0.2018,2.2086
			c1.0827,1.1428,1.0964,2.2308,0.7004,3.6341c-0.3905,1.3838-0.4611,2.8578-0.6721,4.2922
			c0.1983,0.0477,0.3966,0.0954,0.5949,0.1431c0.2605-0.515,0.7567-1.0385,0.7382-1.5433
			C53.2488,81.3009,54.1783,80.9436,55.1958,81.0094z"/>
		<path d="M42.8586,110.0701c0.1776-2.9347-0.5901-6.0176,1.6747-8.6257c0.2514-0.2896,0.6299-0.6724,0.5973-0.9739
			C44.7554,97,46.95,93.6613,45.5733,90.1275c-0.972-2.4951,0.9382-5.1006,3.5842-4.9416c0.3952,0.0237,0.7658,0.6616,1.1253,1.0369
			c1.3942,1.4554,2.0608,2.7978,1.2657,5.1041c-1.0008,2.9032-1.02,6.1347-1.6045,9.1974c-0.1849,0.9689-0.5809,2.196-1.3032,2.7061
			c-1.9236,1.3584-2.7065,3.3447-3.6586,5.3002c-0.3275,0.6727-0.9186,1.2171-1.3893,1.8202
			C43.3482,110.2572,43.1034,110.1637,42.8586,110.0701z M45.6248,102.9311c2.0633-0.5889,2.723-1.9328,2.7686-3.903
			c0.0376-1.6235,0.7563-3.2301,0.8031-4.8548c0.0678-2.3561,1.7536-4.8856-0.6015-7.1157
			c-0.7807,0.6127-2.3688,0.7331-1.7255,2.2855c0.8185,1.9755,1.156,3.9101,0.4274,5.9541
			C46.4182,97.7624,47.9164,100.7176,45.6248,102.9311z"/>
		<path d="M84.3627,178.4271c-2.0133-0.3387-2.5758-1.0618-1.817-2.7597c0.7053-1.578,1.6649-3.0426,2.5176-4.5543
			c0.1297-0.23,0.2957-0.4393,0.4287-0.6677c0.357-0.6134,0.9346-1.7988,1.0224-1.7633c1.2964,0.5247,2.6615,1.0543,3.7024,1.9432
			c0.3739,0.3193,0.2082,1.7787-0.1976,2.4006c-0.9541,1.4622-2.1307,2.8026-3.3599,4.052
			C86.0579,177.6892,85.1382,177.9873,84.3627,178.4271z M86.9519,170.3113c-1.1682,2.0689-2.2539,3.9916-3.3396,5.9144
			c3.2284-0.0529,3.1325-3.4857,5.7571-4.5706C88.332,171.0784,87.7093,170.7323,86.9519,170.3113z"/>
		<path d="M58.1881,114.6631c-1.5822,0.9588-3.1643,1.9175-4.7274,2.8648c-1.0581-1.2435-0.8822-1.8652,0.3871-2.2291
			c0.964-0.2764,1.8606-0.7806,2.8137-1.1054c0.4269-0.1455,0.919-0.0999,1.3815-0.1411
			C58.0913,114.2559,58.1397,114.4595,58.1881,114.6631z"/>
		<path d="M57.0604,273.4736c0.5375-0.9712,1.0356-1.8713,1.5671-2.8318c0.9507,0.3934,1.705,0.9348,0.9936,2.0553
			C59.0606,273.5801,58.3015,274.3434,57.0604,273.4736z"/>
		<path d="M89.7674,47.4122c0.6222,0.2689,1.2657,0.5008,1.8484,0.838c0.1151,0.0666,0.0575,0.7638-0.0249,0.7862
			c-0.5438,0.1479-1.2109,0.3993-1.6483,0.2004c-0.3351-0.1524-0.3917-0.9168-0.5723-1.409
			C89.5027,47.6892,89.6351,47.5507,89.7674,47.4122z"/>
		<path d="M71.6792,49.0257c-0.9609,0.5325-1.9237,1.1541-3.1722-0.4724c1.2799,0,2.2352,0,3.1905,0
			C71.6914,48.7108,71.6853,48.8683,71.6792,49.0257z"/>
		<path d="M131.2307,36.0415c0.0602,1.5912-0.4535,2.0981-1.4735,1.7603c-0.3049-0.101-0.4319-0.7394-0.6404-1.1316
			C129.7755,36.4744,130.4341,36.2785,131.2307,36.0415z"/>
		<path d="M31.8812,82.84c-0.7691,0.7663-1.5414,1.4956-2.7963-0.2746c1.0515-0.1777,1.8815-0.318,2.7114-0.4582
			C31.8246,82.3515,31.8529,82.5958,31.8812,82.84z"/>
		<path d="M59.9907,112.329c-0.4504,0.5059-0.9008,1.0117-1.3512,1.5175c-0.2765-0.2945-0.8263-0.8002-0.7871-0.851
			c0.3899-0.5049,0.8771-0.9347,1.3368-1.3857C59.4564,111.8496,59.7235,112.0893,59.9907,112.329z"/>
		<path d="M44.4602,72.0523c-0.76-0.1129-1.5235-0.2094-2.2734-0.3696c-0.0602-0.0129-0.0265-0.4647-0.0365-0.7126
			c0.8256,0,1.6513,0,2.4769,0C44.5716,71.3309,44.5159,71.6916,44.4602,72.0523z"/>
		<path d="M56.6856,104.5637c0.1937-0.6277,0.3637-1.2656,0.6216-1.8658c0.0233-0.0542,0.6126,0.1346,0.9391,0.2106
			c-0.2369,0.6416-0.4738,1.2831-0.7107,1.9247C57.2523,104.7434,56.9689,104.6536,56.6856,104.5637z"/>
		<path fill="#FFFFFF" d="M73.1182,138.3237c0.272-0.6501,0.5637-1.2928,0.8122-1.9518c0.5601-1.4853,0.2568-2.0195-1.3534-2.4453
			c2.4003-4.3212,1.9129-8.5192-1.3482-9.6568c0.7265-0.9813,1.3599-1.9505,2.1074-2.822c1.4134-1.648,1.284-3.5491,0.6085-5.3065
			c-0.2431-0.6326-1.9056-1.3943-2.3554-1.1312c-0.9167,0.5362-2.0933,1.7955-2.0057,2.6364
			c0.1782,1.7113-0.4816,2.3548-1.8485,2.7631c-1.9355,0.5782-3.8778,1.1339-5.9182,1.7287c0.18-1.5661,1.5608-1.3199,2.4618-1.4904
			c2.9634-0.5606,3.9435-1.932,3.2699-4.8735c2.7881-1.7121,2.6419-2.2768-1.1438-4.4183c2.5646-0.3748,2.916-0.947,2.1073-3.4314
			c-0.3246-0.9973-0.2733-0.8973,0.8124-0.9101c0.4901-0.0058,1.4164-0.8015,1.3759-1.1493
			c-0.1378-1.182-0.6183-2.3241-0.9999-3.5874c2.5388-0.4348,1.8426-3.0436,2.2991-4.798c0.329-1.2646-0.8837-1.1688-1.8416-0.3877
			c-0.5502-1.2068-1.0841-2.3776-1.6019-3.5131c0.9338,0,1.7999,0.2487,2.222-0.0774c0.348-0.2688,0.1702-1.2184,0.2377-2.0102
			c3.0012-1.108,0.7184-3.3654,0.7401-5.2807c2.7366-0.0898,0.6746-2.3138,1.5054-3.3157c2.8104,0.3662,3.66-0.8532,3.0236-3.6501
			c-0.3242-1.4248,0.1932-3.0371,0.3056-4.5665c0.1131-1.5389,0.4255-2.7085,2.3988-2.8942
			c1.0615-0.0999,1.4908-1.169,1.3614-2.4364c-0.1242-1.2159-0.09-2.5649,0.3229-3.691c0.5978-1.6302,2.3376-1.6975,3.4844-0.3166
			c1.3704,1.6501,1.9466,1.7353,3.7392,0.5531c0.8569-0.5652,0.8569-0.5652,2.2557,0.5019
			c2.0087-0.8049,3.8185-1.7551,5.7455-2.2303c1.5167-0.374,3.1814-0.2501,4.7738-0.1853c1.4992,0.061,2.8629-0.0011,3.8969-1.2969
			c0.2075-0.2601,0.6454-0.3364,0.6771-0.3518c0.6663,1.2641,1.3553,2.3598,1.8212,3.5434c0.2354,0.598,0.2224,1.396,0.0542,2.033
			c-0.7456,2.8241-3.0059,3.9888-5.4122,5.2712c-2.1973,1.1711-3.9985,3.0869-5.9639,4.6873
			c-0.1101,0.0897-0.1891,0.3019-0.1753,0.4468c0.2753,2.8843-2.0873,2.5403-3.7385,3.1055
			c-0.5804,0.1987-1.0965,0.5851-1.642,0.8859c0.4817,0.3993,0.9038,0.9678,1.4575,1.1632c1.2019,0.4241,2.471,0.6575,3.8484,1.0029
			c-0.2217,0.4495-0.5757,1.1672-0.9301,1.886c-2.3992-0.4375-4.0946,0.7749-5.6081,2.2536
			c-0.2903,0.2836-0.0823,1.0771-0.1042,1.6354c0.4815-0.081,0.9923-0.0876,1.4367-0.2627c0.5027-0.1981,0.9458-0.5475,1.4149-0.831
			c0.1434,0.1259,0.2869,0.2517,0.4303,0.3776c-0.5418,0.7003-1.1094,1.3825-1.6184,2.1059
			c-0.5299,0.7532-2.2131,1.1887-1.1184,2.4411c1.0577,1.2101,1.6149-0.3934,2.3984-0.7829
			c1.3216-0.6571,2.6846-1.2304,4.0187-1.8631c2.2541-1.0691,4.4481-2.2898,6.7683-3.1851
			c1.2897-0.4977,2.8762-0.8827,4.1684-0.5957c4.0271,0.8942,8.0503,1.2089,12.1255,0.7298c2.1-0.2469,4.7919,2.4043,5.1625,3.9876
			c0.1108,0.4733,0.0137,1.3599-0.2696,1.504c-2.6416,1.3436-2.0004,3.9257-2.5779,6.1145
			c-0.8766,3.3224-1.7185,6.7111-4.3446,9.301c-0.8587,0.8468-1.6185,2.1176-1.7771,3.2825
			c-0.3219,2.3647-1.6156,3.6636-3.4648,4.9914c-1.9053,1.3681-4.0542,1.6556-6.1022,2.414
			c-0.8571,0.3174-2.5042,0.3544-1.9921,1.7963c0.4009,1.129,1.6899,1.459,2.9557,0.8512c0.8326-0.3998,1.6929-0.7417,2.7531-1.2017
			c-0.1087,0.5884-0.3554,1.0643-0.2157,1.3536c0.2612,0.5412,0.6558,1.143,1.1594,1.4134
			c0.7995,0.4293,1.7339,0.6071,2.6113,0.8913c-0.0308,0.2101-0.0616,0.4202-0.0924,0.6303
			c-1.1529,0.0975-2.3328,0.0749-3.4513,0.3258c-1.1603,0.2603-2.4315,0.5553-3.3551,1.2391
			c-2.5196,1.8652-5.2295,2.4713-8.2842,2.0232c-0.4417-0.0648-0.9618,0.4051-1.4456,0.6276
			c0.4223,0.5583,0.7614,1.4974,1.2808,1.6107c2.6295,0.5739,5.3025,1.2348,7.9669,1.264c1.8378,0.0202,3.7242-0.8358,5.5141-1.5011
			c0.912-0.339,1.4708-0.6286,2.2502,0.3008c0.8845,1.0547,2.1077,1.6579,3.6166,1.5231c1.6328-0.1459,2.5539,0.8654,3.4523,2.1144
			c0.8712,1.2112,1.9453,2.3453,3.1338,3.2441c1.9605,1.4825,2.6564,3.5473,2.6692,5.7508c0.0106,1.8187,0.316,3.4241,0.966,5.1164
			c0.6324,1.6468,0.6301,3.5256,1.0939,5.2522c0.4659,1.7348,1.1713,3.4046,1.7559,5.1083c0.4235,1.2343,0.7799,2.493,1.2408,3.7127
			c0.5233,1.3849,1.0849,2.7603,1.7377,4.0868c0.1291,0.2624,0.8073,0.4831,1.1304,0.3856
			c2.8816-0.8692,4.4631,0.8002,5.9033,2.8694c1.7134,2.4617,3.4708,4.8927,5.3274,7.5032
			c-2.2903,4.0891,0.796,7.0309,3.602,10.3863c-2.1029-0.737-3.7763-1.3356-5.4595-1.9056
			c-0.4673-0.1582-0.9858-0.3768-1.4402-0.3062c-0.5375,0.0835-1.031,0.4503-1.5436,0.6943
			c0.2711,0.4683,0.4305,1.1564,0.8351,1.3618c1.0262,0.5211,2.1456,0.8832,3.258,1.2043c1.7871,0.5158,3.07,1.5867,4.1962,3.0634
			c1.0294,1.3498,2.4115,2.4246,3.573,3.6809c2.094,2.2648,1.5929,4.9223-0.761,6.9369c-1.0838,0.9276-1.8962,2.5859-2.1076,4.0196
			c-0.2953,2.0025,1.8772,3.2731,4.3589,2.6636c1.0015-0.2459,2.0335-0.8419,2.7815-1.56c2.5761-2.4734,4.1837-3.0049,7.4449-1.474
			c2.3298,1.0937,4.585,2.4783,6.6004,4.0773c2.7151,2.1543,3.0998,5.1117,1.4875,8.3074c-1.0888,2.1581-2.1815,4.315-3.3201,6.4469
			c-0.621,1.1628-1.6396,1.4522-2.9457,1.3596c-0.562-0.0398-1.3589,0.4169-1.6825,0.8958
			c-0.1923,0.2844,0.326,1.0524,0.5308,1.6007c0.1507,0.4036,0.3111,0.8035,0.4671,1.2051
			c-0.4838,0.0719-1.1358,0.3791-1.4219,0.1745c-1.1616-0.8306-1.9641-1.0417-2.3077,0.7011
			c-0.0347,0.1758-0.5128,0.2248-0.6866,0.4203c-0.4071,0.458-0.7543,0.9691-1.1258,1.4587
			c0.415,0.2597,0.8386,0.5068,1.2418,0.7837c0.2506,0.1721,0.7015,0.4561,0.667,0.5757c-0.2628,0.911-0.4662,1.916-1.0226,2.6316
			c-0.2598,0.3341-1.2677,0.0409-1.9255,0.1214c-1.0905,0.1334-2.4037,0.0189-3.1992,0.5946
			c-1.0119,0.7322-0.2128,1.7332,0.5979,2.3002c1.3208,0.924,2.6777,1.8131,4.0979,2.5693c0.5071,0.27,1.2799,0.2618,1.8651,0.1154
			c1.0059-0.2517,1.9379-0.7966,2.9432-1.0532c0.6311-0.1611,1.732-0.2754,1.9334,0.0355c0.4649,0.7177,0.9177,1.8842,0.6306,2.5452
			c-0.4324,0.9954-1.3721,1.9327-2.3301,2.4986c-1.3665,0.8072-2.7617,1.3525-3.2318,3.1411
			c-0.2144,0.8158-0.7833,1.4456-2.1204,1.0793c-1.4577-0.3994-2.8926,0.4129-3.8803,1.6602
			c-1.5794,1.9944-4.6597,2.1139-6.5395,0.858c-0.8249-0.5511-1.7126-1.0159-2.6003-1.4633
			c-1.1479-0.5786-2.16-0.5085-3.4217,0.1093c-1.8586,0.9101-3.9504,1.3641-6.0721,0.6423
			c-0.259-0.0882-0.5873-0.2955-0.7786-0.2107c-2.1208,0.9398-4.0904,0.7498-6.1803-0.2943
			c-1.1482-0.5736-1.8717,0.4791-2.3291,1.5434c-0.3613,0.8406-0.8374,1.6319-1.0818,2.0994
			c-1.821-0.5117-3.2983-1.0763-4.826-1.3091c-1.2413-0.1891-2.5972-0.0533-2.1728,1.9049c0.0336,0.155-0.2051,0.369-0.2138,0.3834
			c-1.5411-0.1509-2.9564-0.4458-4.3448-0.3503c-0.5737,0.0395-1.0898,0.9162-1.9861,1.7359
			c-0.3666-0.332-1.0678-0.8361-1.604-1.4781c-1.4029-1.6796-3.9488-2.4533-5.9694-1.8298
			c-1.459,0.4502-2.9426,0.8996-4.4484,1.1011c-2.4253,0.3245-2.9329,0.7625-3.3273,3.222
			c-0.2422,1.5101-0.714,2.9843-0.9368,4.4962c-0.1772,1.202-0.9547,1.3898-1.7886,1.0963
			c-1.6922-0.5956-3.3781-1.2672-4.954-2.1165c-1.2609-0.6795-2.2751-0.7053-3.3297,0.2649
			c-0.2212,0.2035-0.6185,0.4615-0.8323,0.3897c-2.4799-0.8328-4.3046,0.9638-6.4241,1.5491
			c-0.304,0.0839-0.5842,0.2657-0.8906,0.3278c-3.1017,0.6281-3.9798,1.8517-3.4897,5.0048
			c-2.6265,0.1737-2.5816-2.6378-3.8763-3.4066c3.3937-3.2304,6.9762-6.3104,10.1355-9.7762
			c1.794-1.9681,3.7728-4.1011,3.7511-7.1788c-0.0066-0.9431,0.7458-1.1742,1.651-1.1793c3.0088-0.0166,3.019-0.0539,4.051-2.7638
			c0.3213-0.8437,2.2073-1.4679,3.3811-0.7499c2.4474,1.4971,4.9349,0.498,7.41,0.4797c0.8102-0.006,1.6246-0.0228,2.43,0.0471
			c1.8191,0.1578,2.5612-0.3406,2.7337-2.1321c0.1808-1.8769,0.6791-3.4036,2.713-4.0878c0.616-0.2072,1.1077-0.9126,1.5537-1.4717
			c1.1698-1.4666,2.2859-2.9762,3.417-4.4735c0.2994-0.3964,0.7544-0.784,0.8185-1.2224c0.0849-0.5807-0.1441-1.2074-0.2382-1.8143
			c-0.5422,0.141-1.2105,0.1284-1.6034,0.4511c-1.2781,1.0499-2.4016,2.2892-3.6881,3.3273
			c-1.0912,0.8805-2.1748,1.7127-3.8255,1.6404c-0.9006-0.0394-1.9568,0.6914-2.7413,1.3245
			c-2.1067,1.7002-5.2044,1.7188-7.2911-0.0165c-1.6435-1.3668-3.3471-2.6888-5.6548-1.2357
			c-0.2005,0.1262-0.8429-0.0097-0.8716-0.1252c-0.1359-0.5474-0.2766-1.1655-0.1486-1.6938
			c0.4951-2.0434,0.0195-3.4274-1.762-3.5012c-1.8099-0.0749-4.0106,0.014-5.3913,0.9691
			c-2.1932,1.5171-4.0977,1.5189-6.3922,0.5206c0.7138-1.5974,0.3368-2.8585-1.4428-3.5936
			c0.0225-0.1395,0.0451-0.279,0.0676-0.4185c1.1884-0.2806,2.4337-0.4205,3.553-0.8723c2.0815-0.8401,4.1148-1.8124,6.1191-2.8265
			c1.2582-0.6366,2.4634-1.3972,3.6239-2.2012c0.8451-0.5855,1.8328-1.1877,2.3149-2.0342
			c1.6348-2.8704,3.2147-5.8557,3.0702-9.2755c-0.1019-2.4107-0.3705-4.9203-2.9848-6.2223
			c-1.9432-0.9678-3.3517-0.5848-4.6346,1.1613c-0.5352,0.7286-1.2803,1.303-1.9299,1.9475
			c-0.1561-0.1423-0.3121-0.2846-0.4681-0.4268c0.841-0.9329,1.5728-2.0027,2.5417-2.7753c4.5348-3.616,4.5941-4.061,0.781-8.3318
			c-0.3261-0.3652-0.4108-0.9459-0.3589-1.6235c1.3856,1.2108,2.7612,1.8289,4.3895,1.0215
			c0.8799,2.5926,1.8773,3.0662,5.2016,2.2889c1.3655-0.3193,2.691-0.9545,3.9258-1.6415c0.9994-0.5561,1.765-0.6539,2.7394,0.0362
			c1.104,0.782,2.2406,0.7732,3.2687-0.3198c0.7457-0.7928,1.6978-1.4064,2.3626-2.2532c0.2877-0.3664,0.1838-1.1369,0.0848-1.693
			c-0.3538-1.9873-0.6589-3.8946,1.1672-5.4568c0.5177-0.4428,1.0151-1.3006,0.9462-1.902
			c-0.0469-0.4093-1.0955-0.7038-1.7746-1.0947c0.1655-1.7812,0.4287-3.5946,2.4359-4.7448
			c0.5699-0.3266,1.0414-1.8737,0.7453-2.4227c-0.4738-0.8784-1.5493-1.554-2.5146-2.0104
			c-0.9232-0.4366-1.7985-0.1335-2.1934,1.051c-0.1283,0.3848-0.6865,0.6263-1.0481,0.9333
			c-0.2916-0.3711-0.7466-0.7025-0.8478-1.1197c-0.5958-2.4571-1.6614-4.6346-3.2274-6.6446
			c-1.8644-2.3931-1.5-3.7001,1.0189-5.4983c0.9758-0.6966,1.916-1.5273,2.6376-2.4756c0.9974-1.3107,0.3757-2.581-0.4587-3.7945
			c-0.7106-1.0334-1.6408-0.7239-2.6375-0.7484c-2.9658-0.073-5.2036,1.1725-7.3134,3.1526
			c-0.6438,0.6042-2.1261,0.4097-3.2239,0.4063c-0.9073-0.0028-1.8139-0.2629-2.7485-0.4134
			c-0.1281,0.407-0.2215,0.6084-0.2531,0.819c-0.2871,1.9118-1.1729,2.305-2.7599,1.1881c-0.406-0.2857-0.7196-0.702-1.1233-0.9918
			c-1.4509-1.0416-2.1818-0.804-2.8952,0.8238c-0.1875,0.4277-0.5665,0.7714-0.8576,1.1537
			c-0.1799,0.0127-0.3599,0.0253-0.5398,0.038c-0.3108-1.0895-0.7468-2.1612-0.9049-3.2725
			c-0.2841-1.9974-0.6973-3.9241,1.3265-5.6058c1.005-0.835,1.1981-2.6433,1.767-4.0077c0.7418-1.7788,1.5074-3.5478,2.2352-5.3323
			c1.1379-2.7903,0.6472-4.0029-1.7007-5.7875c-1.032-0.7844-1.8304-2.0204-2.4147-3.2088
			c-0.5885-1.1968-0.4145-1.2823-1.7094-0.9744c-0.492-1.2176-0.8059-2.5357-1.5288-3.5673
			c-0.3925-0.5601-1.655-1.0586-2.2161-0.8292c-0.9371,0.3831-1.4062,1.5521-0.7293,2.5384
			c1.7197,2.5059,0.4615,3.8453-1.6018,5.2644L73.1182,138.3237z M79.0044,121.4832c-1.9488-0.2927-2.9303,0.5613-3.5539,1.8233
			c-0.2654,0.5372-0.1423,1.2663-0.1957,1.9083c0.1668,0.0148,0.3336,0.0297,0.5004,0.0446
			C76.779,124.0695,77.8028,122.8797,79.0044,121.4832z M79.3611,110.9791c-0.1545-0.1376-0.309-0.2751-0.4636-0.4127
			c-2.1339,0.1738-2.8333,1.0517-1.8744,2.871C77.8557,112.5619,78.6084,111.7705,79.3611,110.9791z M80.8334,127.8532
			c0,1.0341-0.0521,1.9235,0.0499,2.7949c0.0175,0.1497,0.8768,0.4309,1.0289,0.295
			C82.5586,130.3657,82.0027,128.4913,80.8334,127.8532z"/>
		<path fill="#FFFFFF" d="M66.4133,99.1194c-1.6329,1.6385-3.2058,2.2235-4.3371-0.8566c-0.6712-1.8275-2.2761-3.2997-3.3618-4.9952
			c-0.3143-0.4908-0.5966-1.5085-0.3545-1.7549c0.7537-0.767,1.2621-0.0815,1.7582,0.5968
			c0.2409,0.3294,0.7989,0.4268,1.2134,0.6293c0.1432-0.4618,0.383-0.9192,0.4047-1.3867c0.0263-0.5652-0.132-1.139-0.2335-1.8763
			c2.3751,1.3982,3.0162,2.6195,2.5922,4.6279c-0.5474,2.5926-0.3061,3.1141,2.1087,4.632
			C66.3144,98.8053,66.349,98.9961,66.4133,99.1194z"/>
		<path fill="#FFFFFF" d="M73.0876,138.2961c-0.1657,1.8513-0.2745,3.7104-0.5243,5.5503
			c-0.1048,0.7715-0.5084,1.5024-1.0909,2.1522c-0.2561-2.7564,0.2745-5.308,1.6459-7.6746
			C73.1182,138.3237,73.0876,138.2961,73.0876,138.2961z"/>
		<path fill="#FFFFFF" d="M65.24,135.7435c-0.7669,0.7163-1.4916,1.4892-2.3272,2.1136c-0.2424,0.1812-1.0238,0.0807-1.1686-0.1429
			c-0.2641-0.4079-0.3777-1.0338-0.277-1.5103c0.0566-0.2681,0.6464-0.5243,1.0325-0.6005
			c0.7431-0.1467,1.5123-0.1617,2.2706-0.2313C64.9268,135.4959,65.0834,135.6197,65.24,135.7435z"/>
		<path fill="#FFFFFF" d="M66.4494,115.6758c-1.2209,0.4519-2.0993,0.777-2.9777,1.1021c-0.0413-0.3415-0.2465-0.8425-0.0959-0.9973
			C64.0923,115.0439,64.9184,114.4766,66.4494,115.6758z"/>
		<path fill="#FFFFFF" d="M76.1889,142.8894c0-0.9208,0-1.8416,0-3.1205c0.5572,0.3843,1.2751,0.6771,1.2543,0.9015
			c-0.0757,0.8171-0.3982,1.6113-0.6277,2.4141C76.6066,143.0194,76.3977,142.9544,76.1889,142.8894z"/>
		<path fill="#FFFFFF" d="M71.0016,120.4991c0.3219-1.2011,0.6438-2.4021,1.0605-3.9568c0.8187,2.4285,0.4592,3.4392-1.1043,3.9187
			C70.9545,120.4581,71.0016,120.4991,71.0016,120.4991z"/>
		<path fill="#FFFFFF" d="M70.7763,129.0864c-1.3007,0.7466-2.6013,1.4933-3.902,2.2399c-0.102-0.1577-0.204-0.3154-0.306-0.473
			c1.2994-0.7252,2.5988-1.4503,3.8983-2.1755C70.5698,128.814,70.6731,128.9502,70.7763,129.0864z"/>
		<path fill="#FFFFFF" d="M26.4264,172.8764c0.2581,0.4098,0.5305,1.1755,0.7717,1.1658c0.8984-0.0361,1.8017-0.2788,2.6692-0.5518
			c0.2527-0.0796,0.4411-0.4966,0.5758-0.7964c0.9004-2.0049,1.7104-3.9573,3.9577-5.0447c0.9383-0.454,1.6307-1.8463,0.8679-3.2244
			c-0.7303-1.3195-1.8967-1.116-3.0686-0.9425c-0.1647,0.0244-0.3335,0.0346-0.493,0.0784c-2.8493,0.7821-3.6063,0.396-4.7485-2.591
			c0.8626-0.3166,1.7023-0.7658,2.5936-0.9234c2.042-0.3611,2.8051-1.1331,2.9581-3.2943c0.0314-0.4437,0.0299-0.892,0.0946-1.3306
			c0.1935-1.3125,0.3784-2.4828,1.9579-3.1065c1.2336-0.4871,2.3276-1.4935,3.2858-2.4644c0.903-0.9149,1.666-0.8532,2.6544-0.2941
			c0.9725,0.5501,1.1885,1.1563,0.9118,2.3173c-0.2802,1.1754-1.4375,2.5264,0.05,3.7292c2.6937-1.8263,3.4993-2.6601,2.6871-5.2051
			c-0.3914-1.2264,0.4476-2.277,1.7175-2.3995c1.0439-0.1007,2.1022-0.2998,3.1313-0.2057
			c0.5423,0.0496,1.4893,0.6775,1.4611,0.9673c-0.0685,0.7054-0.5946,1.3685-0.9461,2.0436
			c-0.3559,0.6835-0.7235,1.3609-1.086,2.0409c0.6463,0.1362,1.4031,0.5559,1.9182,0.3553
			c1.5284-0.5954,2.9431-1.4753,4.4388-2.1648c0.9275-0.4276,1.9129-0.9736,2.8874-1.0055
			c2.1212-0.0694,4.2585,0.0867,6.3768,0.2835c1.6928,0.1573,2.3621,1.1989,1.7307,2.7601
			c-0.8053,1.9914-0.4712,3.6059,0.7925,5.339c0.6423,0.8809,0.8546,2.2799,0.7928,3.4192
			c-0.0823,1.5164,0.6294,2.2038,1.8515,2.5081c1.0964,0.2731,2.6448-0.0441,2.869,1.4127c0.2157,1.4018,0.076,2.9534-0.3018,4.3311
			c-0.7228,2.6361-2.6224,4.1878-5.2266,5.039c-0.7087,0.2316-1.3576,1.026-1.7621,1.7205
			c-0.6205,1.0651-1.1459,1.7936-2.6294,1.7244c-2.5729-0.1202-3.3582,1.0993-2.3089,3.5177
			c0.9369,2.1592,1.8207,4.2863,1.5537,6.6952c-0.0847,0.7638-0.0899,1.6327-0.4658,2.2498
			c-1.1078,1.819-0.6208,3.7637,0.6658,4.7076c3.0182,2.2142,1.9168,4.5687,0.9952,7.1406
			c-0.7581,2.1157-1.4408,4.2656-2.0067,6.4395c-0.244,0.9375-0.071,1.977-0.1592,2.9638
			c-0.0625,0.6993-0.1719,1.4117-0.3877,2.0769c-0.7369,2.272-1.53,4.5258-2.4225,7.1406c-0.504-0.1151-1.4253-0.1808-2.2159-0.5369
			c-1.5643-0.7045-3.5147-0.5686-4.6838,0.7264c-1.3287,1.4716-2.8433,1.8911-4.7201,1.4269
			c-0.726-0.1796-1.5709-0.0171-2.2275-0.3105c-1.4707-0.6572-2.2942,0.0661-2.7444,1.2345
			c-0.5089,1.3207-1.5595,1.8728-2.6827,2.3956c-1.2767,0.5941-2.7266,1.8029-3.8458,1.5613
			c-3.1871-0.6881-4.0385,1.1873-4.8718,3.4617c-0.1326,0.362-0.4657,0.7873-0.8068,0.9155
			c-3.9438,1.4817-7.879,2.9976-11.8829,4.3004c-1.1157,0.363-2.4497,0.0553-3.6836,0.0553
			c-0.0475-0.1479-0.095-0.2959-0.1425-0.4438c1.2451-0.9093,2.4903-1.8186,3.7515-2.7397
			c-0.6624-1.1046-1.3874-0.9048-2.3226-0.5838c-1.3876,0.4763-2.8569,0.7149-4.2913,1.0547
			c-0.0592-0.2037-0.1184-0.4075-0.1776-0.6112c0.9669-0.5057,1.9462-0.9895,2.8964-1.5248c0.6392-0.36,1.3689-0.67,0.3988-1.5791
			c-0.3273-0.3067-0.1911-1.108-0.2981-1.9225c-3.0904,0.4419-6.159,1.3715-9.3936-0.0952
			c0.9762-0.5231,1.9835-0.9964,2.9212-1.5813c1.3464-0.8397,2.6951-1.6932,3.9388-2.673c0.711-0.5601,0.1676-1.5003-1.042-1.5707
			c-1.585-0.0923-3.1823,0.0474-4.7745,0.0509c-0.741,0.0016-1.4822-0.0826-2.2233-0.1279
			c-0.0641-0.2044-0.1281-0.4088-0.1922-0.6132c0.8159-0.3677,1.6115-0.9749,2.4526-1.0465
			c1.2465-0.1062,2.5334,0.1114,3.7884,0.2929c1.7382,0.2513,2.2886-0.1226,2.5885-1.9405c0.4553-2.76,1.8037-3.8579,4.5171-4.4845
			c2.9548-0.6824,5.8249-1.7361,8.7245-2.6512c1.3551-0.4277,0.8349-1.5618,0.6676-2.381c-0.043-0.2108-1.2961-0.4542-1.8088-0.2404
			c-2.0793,0.8673-4.085,1.9104-6.1211,2.8817c-1.3825,0.6595-2.2289,0.6479-3.43-0.0385c0.9443-0.2851,1.8734-0.5657,3.0506-0.9212
			c-1.3107-2.0235-2.9483-1.0887-4.9248-0.9928c3.1834-3.1527,6.7021-5.6616,7.4957-10.112
			c0.6362,0.069,1.1504,0.0228,1.5816,0.1902c1.478,0.5737,2.3263,0.0059,3.1588-1.2546c0.8378-1.2685,0.6408-2.2323-0.2219-3.2831
			c-1.839-2.24-3.4051-2.172-5.9482,0.2773c-1.5285,1.4721-3.3758,1.097-3.7931-0.9673c-0.2908-1.4382-1.1952-1.5564-2.1152-1.4016
			c-1.5541,0.2615-2.4117-0.4319-3.1197-1.6307c-0.4445-0.7528-0.9444-1.4728-1.5351-2.3862
			c0.5832-0.0789,0.9944-0.196,1.3999-0.1788c1.7039,0.0722,2.4674-0.8159,2.3804-2.417c-0.0614-1.1301,0.4352-1.5444,1.4624-1.8181
			c1.6219-0.4321,2.278-1.4983,1.8999-2.9507c-0.3711-1.4254-1.3201-1.96-2.8417-1.874c-0.9845,0.0557-2.1575-0.1004-2.9623-0.6098
			c-1.9246-1.2181-1.9364-1.7327-0.9372-3.97c0.2007-0.4493,0.1387-1.0593,0.4214-1.4198c0.6067-0.7735,1.2475-1.8197,2.0751-2.0588
			c1.7854-0.5157,3.6906-0.6987,5.5597-0.8205c2.0201-0.1316,2.3816,0.27,2.7706,2.3406c0.2917,1.5526,0.8758,1.9937,2.1608,1.1391
			c1.4792-0.9837,3.0853-0.8867,4.6563-1.2102c0.3997-0.0823,0.7055-0.6205,1.0547-0.95
			C26.4228,172.8797,26.4263,172.8764,26.4264,172.8764z"/>
		<path fill="#FFFFFF" d="M139.2821,14.5771c-0.685,0.4758-1.3365,0.8814-1.9345,1.3545c-0.9313,0.7368-1.2879,1.6026-0.1356,2.4172
			c1.0241,0.724,0.6289,1.0777-0.2304,1.4412c-0.5948,0.2516-1.1774,0.5319-1.9304,0.8744c-0.8177-2.219-2.6798-3.0684-5.0521-3.265
			c-0.4337-0.0359-0.7983-0.9068-1.4698-1.7289c1.5091,0.3056,2.4375,0.533,3.3787,0.6746
			c1.2614,0.1897,1.8799-0.3956,1.8656-1.6768c-0.0146-1.3098-0.0032-2.6198-0.0032-3.7981
			c0.8791,0.1428,1.4893,0.242,2.0994,0.3411c-0.1071-0.6007-0.0835-1.2671-0.3464-1.7894
			c-0.7109-1.4123-0.1772-3.4107,1.2559-3.4855c2.0695-0.108,2.6474-1.4822,3.3478-2.9405c0.172-0.3581,0.4918-0.6504,0.7784-0.9384
			c0.0234-0.0235,0.4771,0.2743,0.4578,0.3325c-0.1302,0.394-0.2988,0.786-0.5205,1.1372
			c-0.6519,1.0331-1.6202,1.9525-0.8493,3.3775c0.1186,0.2193-0.0938,0.8314-0.3332,0.99
			c-0.6949,0.4604-2.1051,0.7601-2.1196,1.1628c-0.0511,1.427,0.309,2.8828,0.6343,4.2999
			C138.2646,13.747,138.7758,14.0397,139.2821,14.5771z"/>
		<path fill="#FFFFFF" d="M135.0808,22.5452c1.281,2.1144,1.2216,3.7406-0.74,4.2841
			C134.587,25.4041,134.8091,24.1182,135.0808,22.5452z"/>
		<path fill="#FFFFFF" d="M111.6459,52.4497c-0.5327,0.4986-1.1206,1.0488-1.4208,1.3299c-0.8819-0.2834-1.8453-0.8964-2.7295-0.798
			c-1.0366,0.1154-1.725,0.9687-1.6809,2.2647c0.0205,0.6011-0.2447,1.5803-1.4182,0.7078c0.9165-1.7974,1.1987-3.616,0.6235-5.6477
			c-0.1936-0.6838,0.6913-1.6728,1.0169-2.3786c1.7024,0.1923,2.4965,2.2934,3.9719,0.8738
			C110.5652,50.0414,111.1275,51.2946,111.6459,52.4497z"/>
		<path fill="#FFFFFF" d="M55.1958,81.0094c-1.0175-0.0657-1.947,0.2916-1.8874,1.9201c0.0185,0.5047-0.4777,1.0283-0.7382,1.5433
			c-0.1983-0.0477-0.3966-0.0954-0.5949-0.1431c0.211-1.4344,0.2816-2.9084,0.6721-4.2922c0.396-1.4034,0.3824-2.4914-0.7004-3.6341
			c-0.4115-0.4344-0.2664-1.4648-0.2018-2.2086c0.0098-0.1132,0.9629-0.2043,1.4782-0.1976
			c0.5472,0.0071,1.0903,0.179,1.6394,0.2147c1.0362,0.0674,1.8348-0.0521,1.7988-1.4759
			c-0.0434-1.7163,2.8958-4.6216,4.6126-4.6153c0.2872,0.0011,0.8878,0.7724,0.8073,0.9798
			c-0.5665,1.4604-1.3445,2.8387-1.9105,4.2992c-0.384,0.9909-0.5963,2.0627-0.7657,3.1175
			c-0.1148,0.7148-0.0219,1.4629-0.0219,1.7979c-1.372,0-2.5657-0.2248-3.5723,0.1112
			C55.4112,78.5597,55.4262,79.9359,55.1958,81.0094z"/>
		<path fill="#FFFFFF" d="M45.6248,102.9311c2.2916-2.2135,0.7934-5.1687,1.6721-7.6339c0.7285-2.044,0.3911-3.9786-0.4274-5.9541
			c-0.6432-1.5524,0.9448-1.6728,1.7255-2.2855c2.3551,2.2301,0.6692,4.7596,0.6015,7.1157
			c-0.0467,1.6247-0.7655,3.2313-0.8031,4.8548C48.3478,100.9983,47.6881,102.3422,45.6248,102.9311z"/>
		<path fill="#FFFFFF" d="M86.9519,170.3113c0.7574,0.421,1.3801,0.7672,2.4175,1.3438c-2.6246,1.0849-2.5287,4.5177-5.7571,4.5706
			C84.698,174.3029,85.7837,172.3802,86.9519,170.3113z"/>
		<path d="M79.0044,121.4832c-1.2016,1.3964-2.2254,2.5863-3.2492,3.7761c-0.1668-0.0149-0.3336-0.0297-0.5004-0.0446
			c0.0534-0.6419-0.0698-1.3711,0.1957-1.9083C76.0741,122.0445,77.0556,121.1905,79.0044,121.4832z"/>
		<path d="M79.3611,110.9791c-0.7527,0.7914-1.5054,1.5828-2.338,2.4583c-0.9589-1.8193-0.2595-2.6972,1.8744-2.871
			C79.0521,110.704,79.2066,110.8415,79.3611,110.9791z"/>
		<path d="M80.8334,127.8532c1.1693,0.6381,1.7252,2.5125,1.0788,3.0899c-0.1521,0.1359-1.0114-0.1453-1.0289-0.295
			C80.7814,129.7767,80.8334,128.8873,80.8334,127.8532z"/>
	</g>
</g>
</svg>
