<?xml version="1.0" encoding="utf-8"?>
<!-- Generator: Adobe Illustrator 19.1.0, SVG Export Plug-In . SVG Version: 6.00 Build 0)  -->
<svg version="1.1" id="XMLID_2_" xmlns="http://www.w3.org/2000/svg" xmlns:xlink="http://www.w3.org/1999/xlink" x="0px" y="0px"
	 viewBox="0 0 472.4731 181.3426" enable-background="new 0 0 472.4731 181.3426" xml:space="preserve">
<g id="path">
	<g>
		<path fill="#808285" d="M310.782,163.2292c-0.8403,0.0235-1.7204,0.2185-2.5127,0.0348c-1.6644-0.386-3.2899-0.9496-4.9118-1.4983
			c-0.228-0.0771-0.5263-0.531-0.4733-0.7218c0.0863-0.31,0.4415-0.7785,0.6736-0.773c0.8648,0.0204,1.7752,0.0696,2.5778,0.3593
			c1.6199,0.5847,3.1804,1.334,4.7654,2.0154C310.8613,162.8401,310.8217,163.0347,310.782,163.2292z"/>
		<path fill="#808285" d="M317.3575,163.8594c2.9813,0.3401,5.9113-1.6233,9.2722-0.062c-0.5044,0.315-0.7066,0.5351-0.9375,0.5711
			c-2.3908,0.3725-4.7805,0.7736-7.1858,1.0123c-0.4307,0.0427-0.9314-0.6197-1.3998-0.9566
			C317.1903,164.236,317.2739,164.0477,317.3575,163.8594z"/>
		<path fill="#808285" d="M252.6656,61.1799c-0.989,0.6716-1.998,1.3159-2.9603,2.0237c-0.6996,0.5146-1.3074,1.1557-2.0157,1.6561
			c-0.3527,0.2491-0.8392,0.3087-1.2652,0.454c-0.0566-0.5008-0.3344-1.3111-0.1349-1.4537
			c1.7117-1.2238,3.4967-2.3483,5.2997-3.4364c0.2057-0.1241,0.6567,0.1581,0.994,0.252
			C252.6106,60.8437,252.6381,61.0118,252.6656,61.1799z"/>
		<path fill="#808285" d="M114.0662,60.2815c-0.0508-0.4826-0.2902-1.0484-0.1204-1.4338c0.8131-1.8459,1.9305-3.4837,3.8303-4.3857
			c0.2915-0.1384,0.7027-0.0246,1.0585-0.0274c-0.0442,0.3938,0.056,0.9087-0.1562,1.1617
			c-1.344,1.6025-2.7572,3.1471-4.1475,4.7107C114.376,60.2985,114.2211,60.29,114.0662,60.2815z"/>
		<path fill="#808285" d="M285.2086,131.5112c0.9511,2.6771,1.9022,5.3543,2.8533,8.0314c-0.1487,0.1256-0.2974,0.2513-0.4461,0.377
			c-0.484-0.5193-1.1433-0.9599-1.4187-1.5729c-0.7887-1.7552-1.4678-3.5648-2.0789-5.3902
			c-0.1301-0.3887,0.2106-0.9351,0.3344-1.4088C284.7046,131.5355,284.9566,131.5234,285.2086,131.5112z"/>
		<path fill="#808285" d="M208.4335,114.7554c0.5429-0.6541,0.9275-1.1175,1.3121-1.5809c0.3674,0.5112,0.8532,0.9755,1.0778,1.5433
			c0.4779,1.2081,0.849,2.4617,1.2016,3.7142c0.1175,0.4173,0.0449,0.888,0.0592,1.3343c-0.4245-0.2258-1.0216-0.3436-1.2428-0.6968
			C210.0112,117.7438,209.3036,116.3413,208.4335,114.7554z"/>
		<path fill="#808285" d="M246.1746,66.2678c-1.1126,0.5281-1.8962,0.8486-2.6286,1.2602
			c-0.9975,0.5606-1.9363,1.2272-2.9428,1.7696c-0.3181,0.1714-0.7722,0.0904-1.1641,0.1249
			c-0.0238-0.3387-0.1906-0.7629-0.0477-1.002c0.827-1.3843,4.3896-3.1514,5.6723-2.9007
			C245.2991,65.5657,245.4973,65.8016,246.1746,66.2678z"/>
		<path fill="#808285" d="M101.1627,82.1791c-0.0633-0.395-0.3202-0.9171-0.1581-1.1643c0.9951-1.517,2.0373-3.011,3.188-4.4105
			c0.2038-0.2479,0.9914-0.0157,1.5095-0.0052c0.0602,0.1668,0.1204,0.3336,0.1806,0.5004
			c-1.3822,1.7452-2.7645,3.4904-4.1467,5.2356C101.5449,82.2831,101.3538,82.2311,101.1627,82.1791z"/>
		<path fill="#808285" d="M122.9473,48.5335c1.075-1.0803,2.0834-2.2285,3.2483-3.1863c0.374-0.3075,1.1614-0.1121,1.7596-0.1467
			c-0.2003,0.4925-0.3182,1.044-0.6193,1.4643c-0.5088,0.7104-1.231,1.2772-1.6881,2.0133
			C124.805,50.0356,124.0373,49.9677,122.9473,48.5335z"/>
		<path fill="#808285" d="M161.6761,22.0908c-0.836-0.9188-0.7248-1.6118,0.2255-2.081c1.2173-0.6011,2.4531-1.1751,3.7197-1.6595
			c0.3357-0.1284,0.8135,0.115,1.2261,0.1876c-0.2371,0.4521-0.3583,1.1061-0.7319,1.3204
			C164.7042,20.668,163.2108,21.3349,161.6761,22.0908z"/>
		<path fill="#808285" d="M211.5219,101.9337c-0.2211,0.7928-0.5343,1.5734-0.6411,2.3813
			c-0.1517,1.1478-0.113,2.3199-0.2395,3.4725c-0.0385,0.3501-0.3539,0.6698-0.5424,1.0034
			c-0.2926-0.2561-0.8022-0.4841-0.8398-0.7733c-0.1549-1.1945-0.4239-2.4688-0.1553-3.5957
			c0.2444-1.0256,1.1296-1.8985,1.7324-2.8387C211.0647,101.7,211.2934,101.8168,211.5219,101.9337z"/>
		<path fill="#808285" d="M448.3004,143.9775c1.489,0.8799,2.7447,1.5835,3.9454,2.371c0.1906,0.125,0.1334,0.6277,0.1907,0.9558
			c-0.3388,0.0553-0.6992,0.213-1.0125,0.147c-1.0501-0.221-2.0784-0.544-3.1252-0.7839c-0.6212-0.1423-1.7138,0.3771-1.5532-0.8285
			C446.8213,145.2728,447.5835,144.798,448.3004,143.9775z"/>
		<path fill="#808285" d="M470.0541,165.615c-1.0757-1.1962-1.3976-5.5022-0.611-6.9185
			C471.2144,159.1917,471.5748,162.8225,470.0541,165.615z"/>
		<path fill="#808285" d="M283.6082,128.2912c-0.5484-0.5771-1.1359-0.9039-1.1683-1.2787c-0.1621-1.878-0.2318-3.7693-0.202-5.6539
			c0.0059-0.3743,0.5884-0.7394,0.9051-1.1088c0.2413,0.4154,0.6891,0.8309,0.6889,1.2462
			C283.831,123.5402,283.7112,125.5844,283.6082,128.2912z"/>
		<path fill="#808285" d="M77.8225,97.7117c1.5207-0.6383,2.8386-1.2641,4.2108-1.7301c0.5144-0.1747,1.1549,0.022,1.7379,0.0494
			c-0.3254,0.4816-0.544,1.1602-0.9973,1.4059c-1.1293,0.6123-2.3305,1.1663-3.5696,1.4785
			C78.1913,99.1706,77.749,98.4703,77.8225,97.7117z"/>
		<path fill="#808285" d="M470.1835,173.7462c0.0537-2.2113,0.1012-4.1668,0.1486-6.1223c0.1945-0.0976,0.389-0.1953,0.5835-0.2929
			c0.5102,0.5674,1.269,1.0564,1.4779,1.7188C472.801,170.3416,471.581,172.9882,470.1835,173.7462z"/>
		<path fill="#808285" d="M107.3006,70.1208c0.0883-0.7262-0.0289-1.5708,0.3074-2.1538c0.7041-1.2205,1.6217-2.324,2.519-3.4204
			c0.1367-0.167,0.6818-0.1397,0.9486-0.0134c0.1954,0.0925,0.4189,0.6057,0.3322,0.7414c-1.101,1.7257-2.2558,3.4169-3.397,5.117
			C107.7742,70.3014,107.5374,70.2111,107.3006,70.1208z"/>
		<path fill="#808285" d="M49.3453,86.4284c-0.3909,0.037-0.8629,0.2326-1.0681,0.0769c-1.4393-1.0922-2.8517-2.2254-4.1969-3.4302
			c-0.2167-0.1941-0.1876-0.8802-0.016-1.2026c0.0922-0.1733,0.8913-0.2313,1.0936-0.0429
			c1.3881,1.2924,2.7044,2.6621,4.0359,4.0147C49.259,85.9105,49.251,86.0489,49.3453,86.4284z"/>
		<path fill="#808285" d="M372.2811,151.2692c-2.708,1.0011-5.0641,0.7433-7.5046,0.2361
			C366.0838,149.7273,369.6299,149.5158,372.2811,151.2692z"/>
		<path fill="#808285" d="M342.1953,159.3661c-0.1244-1.9992,2.0699-3.0649,6.1142-3.0858
			C348.1264,157.444,348.1264,157.444,342.1953,159.3661z"/>
		<path fill="#808285" d="M381.8165,152.8057c-2.0338-0.4789-4.0675-0.9577-6.1013-1.4366
			c-0.0494-0.1678-0.0988-0.3356-0.1482-0.5034c0.5331-0.3568,1.1014-1.0589,1.5932-1.0089c1.865,0.1897,3.644,0.7388,4.8278,2.342
			C381.9308,152.4011,381.8737,152.6034,381.8165,152.8057z"/>
		<path fill="#808285" d="M289.6827,143.7189c1.2973,2.118,2.5946,4.2359,3.8919,6.3539c-2.7011-0.6476-4.9659-4.1659-4.3877-6.102
			C289.3522,143.8869,289.5174,143.8029,289.6827,143.7189z"/>
		<path fill="#808285" d="M414.3732,161.1437c-1.6625,2.5231-4.4457,1.2259-6.5569,2.0996
			c-0.5755-1.3007-0.2861-1.9409,1.1449-1.9556C410.6558,161.2704,412.3499,161.2002,414.3732,161.1437z"/>
		<path fill="#808285" d="M240.5746,150.6187c-1.7613-0.347-3.5503-0.5989-5.2679-1.097c-0.5403-0.1567-0.8892-0.9739-1.3257-1.4888
			c0.5584-0.1084,1.1888-0.438,1.6617-0.284c1.4526,0.4731,2.8569,1.1048,4.2527,1.7354c0.3731,0.1685,0.6486,0.5533,0.9689,0.8387
			C240.7677,150.4216,240.6712,150.5202,240.5746,150.6187z"/>
		<path fill="#808285" d="M157.8626,24.6327c-0.5158,0.2544-0.8067,0.4016-1.1006,0.5424c-1.4847,0.711-2.9631,1.436-4.4646,2.1097
			c-0.1825,0.0819-0.6303-0.0454-0.7091-0.2007c-0.1317-0.2592-0.1741-0.6665-0.0613-0.9284
			c0.3864-0.8972,4.1664-2.5833,5.1072-2.3009C156.9052,23.9362,157.1329,24.1621,157.8626,24.6327z"/>
		<path fill="#808285" d="M270.3943,24.8896c1.5818,1.0403,1.9655,4.8496,0.726,7.2089
			C270.225,31.482,269.6655,25.9254,270.3943,24.8896z"/>
		<path fill="#808285" d="M309.5604,117.3373c2.8546,0.0051,5.3291,0.3547,7.4416,1.9556
			c-0.0455,0.2078-0.0909,0.4156-0.1364,0.6234c-2.359-0.461-4.7209-0.9091-7.0691-1.4198
			C309.6748,118.47,309.6694,117.9089,309.5604,117.3373z"/>
		<path fill="#808285" d="M248.7121,2.9847c-0.7233-0.1196-1.2864-0.2308-1.8545-0.3025c-1.0106-0.1277-2.0476-0.1377-3.0272-0.3826
			c-0.5311-0.1328-0.9665-0.6485-1.445-0.9914c0.4384-0.2899,0.9537-0.8991,1.3022-0.8152
			c1.6303,0.3922,3.2198,0.9609,4.8059,1.5181C248.62,2.0554,248.6091,2.4911,248.7121,2.9847z"/>
		<path fill="#808285" d="M33.9635,75.0726c2.6974,0.1172,3.6747,2.3337,5.4093,3.6445c-1.0281,0.9634-1.9993,0.6957-2.5824-0.0366
			C35.8702,77.5249,33.841,77.166,33.9635,75.0726z"/>
		<path fill="#808285" d="M301.2227,158.5986c-2.2045,0.0836-3.5182-1.6427-5.1972-2.5533
			c-0.0261-0.0141,0.2739-1.0753,0.5835-1.1831C297.7773,154.4556,301.1194,157.1508,301.2227,158.5986z"/>
		<path fill="#808285" d="M132.1639,41.4416c0.2798-0.6236,0.3994-1.443,0.8726-1.8304c1.0012-0.8197,2.168-1.4486,3.3118-2.0735
			c0.2517-0.1375,0.7211,0.0027,1.0278,0.1474c0.1197,0.0565,0.184,0.625,0.0758,0.7107c-1.5249,1.2082-3.084,2.3734-4.6348,3.549
			C132.5994,41.7771,132.3816,41.6093,132.1639,41.4416z"/>
		<path fill="#808285" d="M99.626,87.357c-1.1662,1.3476-2.2867,2.6712-3.4619,3.9442c-0.0916,0.0992-0.7692-0.0913-0.8225-0.259
			c-0.1192-0.3748-0.1753-0.9324,0.0249-1.217c0.7548-1.0726,1.5957-2.0895,2.4674-3.0712c0.2065-0.2326,0.6728-0.3631,0.992-0.3228
			C99.0459,86.459,99.2185,86.8621,99.626,87.357z"/>
		<path fill="#808285" d="M336.3384,160.7c-0.8251,1.3162-4.5562,2.5537-5.6159,1.8951c-0.2187-0.1359-0.4563-0.6433-0.3683-0.7923
			c0.2231-0.3775,0.6053-0.8903,0.9608-0.921C332.9315,160.7419,334.5606,160.7496,336.3384,160.7z"/>
		<path fill="#808285" d="M65.6467,96.5313c1.9366,0.5785,3.8732,1.157,5.8098,1.7355c-0.0445,0.2195-0.089,0.439-0.1334,0.6585
			c-1.5978,0.6514-3.2286,0.4631-4.7664-0.2715c-0.5542-0.2647-0.8881-0.9907-1.3226-1.5061
			C65.3716,96.9422,65.5092,96.7367,65.6467,96.5313z"/>
		<path fill="#808285" d="M59.7834,94.224c-0.5529-0.0428-1.2106,0.0908-1.6381-0.1631c-1.0816-0.6424-2.1189-1.3946-3.0441-2.2442
			c-0.286-0.2626-0.1538-0.9806-0.2131-1.4901c0.4536,0.0257,1.0432-0.1226,1.3372,0.1073c1.297,1.0142,2.5089,2.1374,3.7516,3.2211
			C59.9125,93.8447,59.848,94.0343,59.7834,94.224z"/>
		<path fill="#808285" d="M250.1578,156.5443c-2.4562-1.0033-4.9453-0.6707-6.6234-2.7217
			C244.9772,152.7201,248.8013,154.1226,250.1578,156.5443z"/>
		<path fill="#808285" d="M282.6938,158.0168c-0.4586,0.2429-1.014,0.7873-1.3588,0.6764c-1.4785-0.4752-3.11,1.4355-4.397-0.3101
			c-0.1071-0.1453,0.4119-1.0977,0.6745-1.1138c1.6163-0.0993,3.2425-0.0373,4.8654-0.029
			C282.5499,157.4992,282.6219,157.758,282.6938,158.0168z"/>
		<path fill="#808285" d="M213.8419,93.7468c-0.3977,1.7786-0.6992,3.3443-1.1376,4.8708c-0.0717,0.2496-0.7468,0.3258-1.143,0.4822
			c-0.0607-1.1145-0.2815-2.2499-0.1393-3.3378C211.5797,94.5553,212.3183,93.7011,213.8419,93.7468z"/>
		<path fill="#808285" d="M361.2925,152.0518c-0.5058,0.58-0.6888,0.9892-0.9774,1.0872c-1.4553,0.4938-2.9303,0.9371-4.4187,1.319
			c-0.2615,0.0671-0.8138-0.1784-0.8848-0.3939c-0.0917-0.2785,0.0692-0.8829,0.2874-0.9824
			C357.047,152.2847,358.8447,151.6363,361.2925,152.0518z"/>
		<path fill="#808285" d="M235.0761,0c0.9856,0.2302,1.9221,0.3793,2.8003,0.6923c0.3003,0.1071,0.4541,0.6252,0.6748,0.9555
			c-0.3187,0.1813-0.6304,0.5029-0.9574,0.5194c-1.3018,0.0657-2.6113,0.086-3.9113,0.0104c-0.3647-0.0212-0.707-0.428-1.0595-0.658
			c0.2014-0.2878,0.3409-0.6949,0.6172-0.8386C233.8237,0.3776,234.4789,0.212,235.0761,0z"/>
		<path fill="#808285" d="M442.0475,146.774c-2.0965,0.3316-3.9728,0.6283-6.415,1.0145c0.4955-0.8157,0.6855-1.5247,1.1383-1.798
			C438.0306,145.2304,441.0583,145.5882,442.0475,146.774z"/>
		<path fill="#808285" d="M256.4855,58.9025c-0.1525-0.4439-0.5526-1.1-0.4058-1.2628c1.0361-1.1488,2.1687-2.2139,3.3211-3.2494
			c0.1185-0.1065,0.6241,0.0905,0.8441,0.2739c0.1238,0.1032,0.1385,0.5623,0.0183,0.6978
			c-0.9853,1.1111-2.0094,2.1882-3.0364,3.2616C257.1251,58.7298,256.9254,58.7424,256.4855,58.9025z"/>
		<path fill="#808285" d="M223.0205,138.365c-0.5928-0.667-0.8552-1.0328-1.1856-1.3206c-0.94-0.8186-1.9225-1.5886-2.8565-2.4137
			c-0.3271-0.2889-0.5615-0.6827-0.8382-1.0287c0.4138-0.119,0.8539-0.3949,1.2372-0.331
			C221.5679,133.6363,223.2638,135.7591,223.0205,138.365z"/>
		<path fill="#808285" d="M292.9625,153.4353c-0.5815,1.739-3.4783,3.6956-4.6743,3.4903c-0.3287-0.0564-0.6907-0.3438-0.877-0.6297
			c-0.097-0.1488,0.0833-0.6971,0.2617-0.7724C289.295,154.8395,290.9444,154.2201,292.9625,153.4353z"/>
		<path fill="#808285" d="M20.1931,72.5043c-0.3757,0.2402-0.7066,0.6041-0.8838,0.5404c-1.2246-0.4399-2.1172,0.15-3.072,0.7646
			c-0.3034,0.1953-0.8286,0.0462-1.2523,0.0547c0.0752-0.4362,0.0067-0.9876,0.2491-1.2898
			C16.6944,70.7534,18.4447,70.6907,20.1931,72.5043z"/>
		<path fill="#808285" d="M466.5517,156.9727c-0.9351-1.1233-1.9579-2.1894-2.7503-3.4057
			c-0.2299-0.3529,0.2003-1.1359,0.3279-1.7217c0.4684,0.2683,1.1359,0.4221,1.3679,0.8261
			c0.7096,1.2355,1.2517,2.5672,1.859,3.8615C467.088,156.6796,466.8199,156.8261,466.5517,156.9727z"/>
		<path fill="#808285" d="M27.0555,70.7328c0.7291,0.4963,1.6747,1.1091,2.5727,1.785c0.1328,0.0999,0.1123,0.6992,0.0408,0.7247
			c-0.3383,0.1203-0.7297,0.1989-1.0824,0.1498c-0.8559-0.1192-1.7186-0.2582-2.5433-0.5063
			c-0.4946-0.1488-0.9229-0.5177-1.381-0.7877c0.3434-0.3262,0.6553-0.6984,1.0413-0.9623
			C25.9595,70.9611,26.3215,70.9412,27.0555,70.7328z"/>
		<path fill="#808285" d="M214.7626,128.3127c-1.7313-0.9181-2.9072-2.2771-3.451-4.125c-0.0632-0.2147,0.1689-0.6548,0.3844-0.775
			c0.2256-0.1259,0.7548-0.1139,0.8786,0.0473C213.6661,124.8818,214.8298,126.2885,214.7626,128.3127z"/>
		<path fill="#808285" d="M299.9534,120.954c0.4426,0.8762,0.8851,1.7523,1.2821,2.5382c0.4051,0.0902,0.8945,0.1992,1.3839,0.3082
			c-0.3581,0.9756-0.7162,1.9513-1.0743,2.927c-0.2094-0.0197-0.4187-0.0393-0.6281-0.059
			c-0.6061-1.7947-1.2121-3.5894-1.8182-5.3841C299.3836,121.1741,299.6685,121.064,299.9534,120.954z"/>
		<path fill="#808285" d="M256.8983,157.1448c2.1517-0.2868,4.0255,0.1754,5.8267,1.776
			C259.8938,159.8309,257.3339,158.967,256.8983,157.1448z"/>
		<path fill="#808285" d="M229.0719,1.4147c-1.8523,0.395-3.6951,0.8563-5.5656,1.1248c-0.3421,0.0491-0.7969-0.6866-1.1997-1.0601
			c0.0777-0.1612,0.1554-0.3225,0.2331-0.4837c2.1573-0.1662,4.3146-0.3324,6.4719-0.4986
			C229.0318,0.803,229.0518,1.1088,229.0719,1.4147z"/>
		<path fill="#808285" d="M218.7645,85.9245c-0.7298,0.9702-1.4388,2.0111-2.2647,2.949c-0.239,0.2714-0.8139,0.2471-1.2348,0.3584
			c-0.0723-0.4191-0.339-0.9434-0.18-1.2374c0.458-0.8469,1.0314-1.6501,1.6656-2.378
			C217.4344,84.8315,218.1593,84.8256,218.7645,85.9245z"/>
		<path fill="#808285" d="M172.6994,14.9465c1.8608-0.4675,3.7216-0.935,5.5824-1.4026c0.0771,0.1622,0.1543,0.3245,0.2314,0.4867
			c-0.9471,1.2497-2.3436,1.9619-3.8624,2.228c-0.6387,0.1119-1.411-0.5395-2.1226-0.8439
			C172.5852,15.2587,172.6423,15.1026,172.6994,14.9465z"/>
		<path fill="#808285" d="M398.3887,158.1781c1.7256,1.1265,3.0443,1.9873,4.363,2.8481c-0.2299,0.2937-0.5799,0.8758-0.6715,0.8377
			c-1.3336-0.5556-2.659-1.1483-3.9081-1.8681C398.0066,159.9005,398.2721,159.0572,398.3887,158.1781z"/>
		<path fill="#808285" d="M187.1675,9.8368c-0.5962,2.3313-3.2533,3.2353-4.6665,2.0357c-0.5894-0.5003-0.6303-0.631-0.0109-0.8248
			C183.955,10.5894,185.4626,10.2679,187.1675,9.8368z"/>
		<path fill="#808285" d="M91.3134,93.2648c0.2993,1.6719-0.0356,1.9967-3.656,3.6679
			C86.7823,95.3492,87.8509,94.2513,91.3134,93.2648z"/>
		<path fill="#808285" d="M146.251,31.1758c-0.2503,0.5004-0.3776,1.2721-0.7735,1.4516c-1.3367,0.6063-2.4014,2.295-4.3047,1.2815
			c0.7301-2.4383,3.1794-1.9395,4.6481-3.0305C145.9643,30.9776,146.1077,31.0767,146.251,31.1758z"/>
		<path fill="#808285" d="M261.6953,8.3633c0.6919,0.0761,1.6009-0.0969,2.0316,0.2786c0.9767,0.8516,1.7331,1.9617,2.5331,3.0019
			c0.0875,0.1138-0.0703,0.5029-0.2172,0.6782c-0.0907,0.1083-0.4564,0.1476-0.562,0.0575
			c-1.374-1.1714-2.7236-2.3715-4.0793-3.5645C261.4995,8.6645,261.5974,8.5139,261.6953,8.3633z"/>
		<path fill="#808285" d="M252.73,3.8236c0.2812-0.2617,0.6235-0.8484,1.0782-0.955c1.6068-0.3765,2.9161,0.7373,3.8206,3.4764
			C255.9504,5.4812,254.6147,4.7937,252.73,3.8236z"/>
		<path fill="#808285" d="M229.9454,75.8595c0.2-1.2632,2.5238-3.6174,3.5408-3.6222c0.3301-0.0016,0.7214,0.2576,0.9674,0.5113
			c0.1221,0.1258,0.0804,0.6539-0.061,0.7536c-1.2051,0.8502-2.4431,1.6549-3.693,2.4386
			C230.559,76.0289,230.2836,75.9023,229.9454,75.8595z"/>
		<path fill="#808285" d="M4.334,84.3719c-0.7452,1.935-1.4428,3.7464-2.1777,5.6546c-1.1101-0.5908-1.0998-1.5323-0.6245-2.336
			C2.2414,86.4906,1.6009,84.0921,4.334,84.3719z"/>
		<path fill="#808285" d="M308.3405,118.7143c-0.1022,0.3098-0.1082,0.7318-0.3123,0.8788c-1.027,0.7393-2.0869,1.439-3.1794,2.0771
			c-0.277,0.1618-0.7157,0.047-1.08,0.0593c0.0249-0.4072-0.0812-0.8873,0.0976-1.2088
			C304.5911,119.2183,306.5996,118.4225,308.3405,118.7143z"/>
		<path fill="#808285" d="M192.1351,7.2147c1.6721-0.4971,2.8357-0.8859,4.0243-1.1702c0.3564-0.0852,0.7827,0.1213,1.1769,0.1942
			c-0.1734,0.422-0.2377,1.0846-0.5403,1.2221c-1.0137,0.4603-2.0956,0.8594-3.1885,1.008
			C193.2331,8.5196,192.7491,7.7631,192.1351,7.2147z"/>
		<path fill="#808285" d="M430.1711,150.284c-0.4483,0.507-0.8249,1.1144-1.3616,1.4977c-0.802,0.5727-1.6945,1.0371-2.5972,1.4385
			c-0.2572,0.1144-0.7584-0.0632-0.9998-0.2751c-0.1263-0.1109-0.0376-0.7699,0.1344-0.8693
			c1.4336-0.8287,2.9093-1.5847,4.3722-2.3626C429.8698,149.9033,430.0205,150.0936,430.1711,150.284z"/>
		<path fill="#808285" d="M214.1589,2.4639c0.9176,0.1664,1.5519,0.1857,2.0986,0.4144c0.3604,0.1508,0.5946,0.6031,0.8853,0.9203
			c-0.3279,0.2356-0.6378,0.6377-0.987,0.6752c-1.0172,0.1094-2.0513,0.1067-3.0759,0.0689
			c-0.2399-0.0089-0.4683-0.3301-0.702-0.5075c0.1477-0.1797,0.2716-0.3882,0.4475-0.5336
			C213.305,3.1053,213.8068,2.7355,214.1589,2.4639z"/>
		<path fill="#808285" d="M268.5781,42.0101c-1.0207-1.4213-0.6602-2.9484,1.089-5.026
			C270.9366,37.8601,270.4875,40.0859,268.5781,42.0101z"/>
		<path fill="#808285" d="M266.6816,46.3779c0.0063,2.3028-1.1643,3.7364-2.4028,5.1998
			C263.1638,50.4088,264.4826,47.4448,266.6816,46.3779z"/>
		<path fill="#808285" d="M289.5829,114.7053c-1.5499,1.3279-2.7782,2.3801-4.082,3.4971c-0.467-1.6063,0.5374-3.3819,2.2486-4.0115
			C288.1975,114.0262,288.8766,114.4897,289.5829,114.7053z"/>
		<path fill="#808285" d="M270.1887,157.4828c0.7551,0.3059,2.1712,0.6554,2.1543,0.9103
			c-0.0874,1.3224-1.3211,0.8605-2.1583,1.0135c-0.4851,0.0886-0.981,0.28-1.4523,0.2316
			c-0.3841-0.0394-0.7386-0.3662-1.1063-0.5656c0.2718-0.4044,0.4582-0.9789,0.8374-1.1694
			c0.4557-0.2289,1.0756-0.131,1.6245-0.1746C270.1216,157.6467,270.1551,157.5647,270.1887,157.4828z"/>
		<path fill="#808285" d="M270.1145,19.9507c-0.8322-1.6166-1.5598-2.9487-2.1865-4.3268c-0.106-0.2332,0.146-0.7435,0.3817-0.9716
			c0.1254-0.1213,0.6326,0.0002,0.8609,0.1622C270.3795,15.6722,270.9093,18.0715,270.1145,19.9507z"/>
		<path fill="#808285" d="M226.1779,142.3809c1.5384-0.3839,3.3111,0.8733,4.6032,3.1464
			C228.9159,145.8525,227.0889,144.6361,226.1779,142.3809z"/>
		<path fill="#808285" d="M394.2673,157.0831c-2.4043,0.3359-4.642-1.2423-4.4922-2.9166
			C391.8829,154.0595,392.8847,155.5486,394.2673,157.0831z"/>
		<path fill="#808285" d="M317.6319,138.0753c-0.0922,2.0657-1.8136,2.7988-2.934,4.0718
			C313.7825,140.5517,315.5707,138.0979,317.6319,138.0753z"/>
		<path fill="#808285" d="M226.6293,78.8881c-0.9203,0.8407-1.7344,1.6633-2.6417,2.3655c-0.2774,0.2147-0.8284,0.178-1.2173,0.0914
			c-0.1373-0.0306-0.2745-0.5729-0.2246-0.8475C222.802,79.0867,225.1279,78.0716,226.6293,78.8881z"/>
		<path fill="#808285" d="M7.3966,79.5554c-1.3665-0.6113-0.5765-1.6167-0.0348-2.0737c0.7664-0.6466,1.8487-0.9186,2.796-1.3507
			c0.0247,0.4082,0.233,1.0114,0.0424,1.1909C9.3762,78.0976,8.4354,78.7495,7.3966,79.5554z"/>
		<path fill="#808285" d="M0.4822,93.3562c1.0372,1.226,1.2636,4.6007,0.467,5.6438C-0.0521,97.7262-0.347,94.6836,0.4822,93.3562z"
			/>
		<path fill="#808285" d="M419.7502,156.2439c0.3195,2.8286-2.5014,2.1383-3.2639,3.5534
			C416.2231,157.984,416.8874,157.2874,419.7502,156.2439z"/>
		<path fill="#808285" d="M466.7222,181.3426c0.5291-1.7904,1.0027-3.3929,1.569-5.3093
			C469.7179,178.2572,468.8001,180.9991,466.7222,181.3426z"/>
		<path fill="#808285" d="M202.285,6.469c0.2978-1.5805,2.3352-3.1309,3.3097-2.8492c0.3163,0.0914,0.6595,0.4257,0.7788,0.7315
			c0.0676,0.1733-0.2343,0.6538-0.4725,0.7554C204.8078,5.5732,203.6784,5.9548,202.285,6.469z"/>
		<path fill="#808285" d="M321.2399,129.5069c0.8371,1.8946,0.0836,4.7095-1.3332,5.3185
			C319.3823,133.2676,319.3914,133.2303,321.2399,129.5069z"/>
		<path fill="#808285" d="M306.0061,147.9319c1.1729-0.8384,2.218-1.5855,3.3569-2.3996c0.9717,1.9467-0.6063,2.3392-1.4922,3.0496
			C306.8833,149.3735,306.4233,148.5507,306.0061,147.9319z"/>
		<path fill="#808285" d="M459.2633,149.0377c-1.409,1.182-2.8285,0.4523-3.6302-1.6852
			C457.4473,146.5499,458.1089,148.1428,459.2633,149.0377z"/>
		<path fill="#808285" d="M299.0258,152.9731c-0.5752-0.5822-0.8733-0.8839-1.1714-1.1855
			c0.9461-0.4778,1.8778-0.9899,2.8526-1.3993c0.1601-0.0672,0.5097,0.3171,0.7718,0.4928
			C300.7094,151.5372,299.9401,152.1934,299.0258,152.9731z"/>
		<path fill="#808285" d="M320.6828,125.9696c-0.3811-1.5778-0.7053-2.9203-1.0977-4.545
			C321.7959,122.7886,322.2777,124.6304,320.6828,125.9696z"/>
		<path fill="#808285" d="M297.4854,115.8654c2.7496,0.6727,1.8145,2.599,2.3251,3.8578c-0.1667,0.0761-0.3333,0.1521-0.5,0.2282
			C298.757,118.7122,298.2035,117.473,297.4854,115.8654z"/>
		<path fill="#808285" d="M295.5197,113.5839c-0.622,0.2488-1.229,0.6069-1.8731,0.6955c-0.2784,0.0383-0.6334-0.4799-0.9536-0.7453
			c0.49-0.411,0.9261-0.9757,1.4907-1.1734c0.3214-0.1125,0.8528,0.3746,1.2896,0.5917
			C295.4887,113.1629,295.5042,113.3734,295.5197,113.5839z"/>
	</g>
</g>
</svg>
