<?xml version="1.0" encoding="utf-8"?>
<!-- Generator: Adobe Illustrator 19.0.0, SVG Export Plug-In . SVG Version: 6.00 Build 0)  -->
<svg version="1.1" id="XMLID_2_" xmlns="http://www.w3.org/2000/svg" xmlns:xlink="http://www.w3.org/1999/xlink" x="0px" y="0px"
	 viewBox="-69 306.7 472.5 181.3" style="enable-background:new -69 306.7 472.5 181.3;" xml:space="preserve">
<style type="text/css">
	.st0{fill:#231F20;}
</style>
<g id="path">
	<g>
		<path class="st0" d="M241.8,469.9c-0.8,0-1.7,0.2-2.5,0c-1.7-0.4-3.3-0.9-4.9-1.5c-0.2-0.1-0.5-0.5-0.5-0.7
			c0.1-0.3,0.4-0.8,0.7-0.8c0.9,0,1.8,0.1,2.6,0.4c1.6,0.6,3.2,1.3,4.8,2C241.9,469.5,241.8,469.7,241.8,469.9z"/>
		<path class="st0" d="M248.4,470.5c3,0.3,5.9-1.6,9.3-0.1c-0.5,0.3-0.7,0.5-0.9,0.6c-2.4,0.4-4.8,0.8-7.2,1c-0.4,0-0.9-0.6-1.4-1
			C248.2,470.9,248.3,470.7,248.4,470.5z"/>
		<path class="st0" d="M183.7,367.8c-1,0.7-2,1.3-3,2c-0.7,0.5-1.3,1.2-2,1.7c-0.4,0.2-0.8,0.3-1.3,0.5c-0.1-0.5-0.3-1.3-0.1-1.5
			c1.7-1.2,3.5-2.3,5.3-3.4c0.2-0.1,0.7,0.2,1,0.3C183.6,367.5,183.6,367.7,183.7,367.8z"/>
		<path class="st0" d="M45.1,366.9c-0.1-0.5-0.3-1-0.1-1.4c0.8-1.8,1.9-3.5,3.8-4.4c0.3-0.1,0.7,0,1.1,0c0,0.4,0.1,0.9-0.2,1.2
			c-1.3,1.6-2.8,3.1-4.1,4.7C45.4,367,45.2,366.9,45.1,366.9z"/>
		<path class="st0" d="M216.2,438.2c1,2.7,1.9,5.4,2.9,8c-0.1,0.1-0.3,0.3-0.4,0.4c-0.5-0.5-1.1-1-1.4-1.6c-0.8-1.8-1.5-3.6-2.1-5.4
			c-0.1-0.4,0.2-0.9,0.3-1.4C215.7,438.2,216,438.2,216.2,438.2z"/>
		<path class="st0" d="M139.4,421.4c0.5-0.7,0.9-1.1,1.3-1.6c0.4,0.5,0.9,1,1.1,1.5c0.5,1.2,0.8,2.5,1.2,3.7c0.1,0.4,0,0.9,0.1,1.3
			c-0.4-0.2-1-0.3-1.2-0.7C141,424.4,140.3,423,139.4,421.4z"/>
		<path class="st0" d="M177.2,372.9c-1.1,0.5-1.9,0.8-2.6,1.3c-1,0.6-1.9,1.2-2.9,1.8c-0.3,0.2-0.8,0.1-1.2,0.1c0-0.3-0.2-0.8,0-1
			c0.8-1.4,4.4-3.2,5.7-2.9C176.3,372.2,176.5,372.5,177.2,372.9z"/>
		<path class="st0" d="M32.2,388.8c-0.1-0.4-0.3-0.9-0.2-1.2c1-1.5,2-3,3.2-4.4c0.2-0.2,1,0,1.5,0c0.1,0.2,0.1,0.3,0.2,0.5
			c-1.4,1.7-2.8,3.5-4.1,5.2C32.5,388.9,32.4,388.9,32.2,388.8z"/>
		<path class="st0" d="M53.9,355.2c1.1-1.1,2.1-2.2,3.2-3.2c0.4-0.3,1.2-0.1,1.8-0.1c-0.2,0.5-0.3,1-0.6,1.5c-0.5,0.7-1.2,1.3-1.7,2
			C55.8,356.7,55,356.6,53.9,355.2z"/>
		<path class="st0" d="M92.7,328.7c-0.8-0.9-0.7-1.6,0.2-2.1c1.2-0.6,2.5-1.2,3.7-1.7c0.3-0.1,0.8,0.1,1.2,0.2
			c-0.2,0.5-0.4,1.1-0.7,1.3C95.7,327.3,94.2,328,92.7,328.7z"/>
		<path class="st0" d="M142.5,408.6c-0.2,0.8-0.5,1.6-0.6,2.4c-0.2,1.1-0.1,2.3-0.2,3.5c0,0.4-0.4,0.7-0.5,1
			c-0.3-0.3-0.8-0.5-0.8-0.8c-0.2-1.2-0.4-2.5-0.2-3.6c0.2-1,1.1-1.9,1.7-2.8C142.1,408.4,142.3,408.5,142.5,408.6z"/>
		<path class="st0" d="M379.3,450.6c1.5,0.9,2.7,1.6,3.9,2.4c0.2,0.1,0.1,0.6,0.2,1c-0.3,0.1-0.7,0.2-1,0.1
			c-1.1-0.2-2.1-0.5-3.1-0.8c-0.6-0.1-1.7,0.4-1.6-0.8C377.8,451.9,378.6,451.5,379.3,450.6z"/>
		<path class="st0" d="M401.1,472.3c-1.1-1.2-1.4-5.5-0.6-6.9C402.2,465.8,402.6,469.5,401.1,472.3z"/>
		<path class="st0" d="M214.6,434.9c-0.5-0.6-1.1-0.9-1.2-1.3c-0.2-1.9-0.2-3.8-0.2-5.7c0-0.4,0.6-0.7,0.9-1.1
			c0.2,0.4,0.7,0.8,0.7,1.2C214.8,430.2,214.7,432.2,214.6,434.9z"/>
		<path class="st0" d="M8.8,404.4c1.5-0.6,2.8-1.3,4.2-1.7c0.5-0.2,1.2,0,1.7,0c-0.3,0.5-0.5,1.2-1,1.4c-1.1,0.6-2.3,1.2-3.6,1.5
			C9.2,405.8,8.7,405.1,8.8,404.4z"/>
		<path class="st0" d="M401.2,480.4c0.1-2.2,0.1-4.2,0.1-6.1c0.2-0.1,0.4-0.2,0.6-0.3c0.5,0.6,1.3,1.1,1.5,1.7
			C403.8,477,402.6,479.6,401.2,480.4z"/>
		<path class="st0" d="M38.3,376.8c0.1-0.7,0-1.6,0.3-2.2c0.7-1.2,1.6-2.3,2.5-3.4c0.1-0.2,0.7-0.1,0.9,0c0.2,0.1,0.4,0.6,0.3,0.7
			c-1.1,1.7-2.3,3.4-3.4,5.1C38.8,377,38.5,376.9,38.3,376.8z"/>
		<path class="st0" d="M-19.7,393.1c-0.4,0-0.9,0.2-1.1,0.1c-1.4-1.1-2.9-2.2-4.2-3.4c-0.2-0.2-0.2-0.9,0-1.2c0.1-0.2,0.9-0.2,1.1,0
			c1.4,1.3,2.7,2.7,4,4C-19.7,392.6-19.7,392.7-19.7,393.1z"/>
		<path class="st0" d="M303.3,457.9c-2.7,1-5.1,0.7-7.5,0.2C297.1,456.4,300.6,456.2,303.3,457.9z"/>
		<path class="st0" d="M273.2,466c-0.1-2,2.1-3.1,6.1-3.1C279.1,464.1,279.1,464.1,273.2,466z"/>
		<path class="st0" d="M312.8,459.5c-2-0.5-4.1-1-6.1-1.4c0-0.2-0.1-0.3-0.1-0.5c0.5-0.4,1.1-1.1,1.6-1c1.9,0.2,3.6,0.7,4.8,2.3
			C312.9,459.1,312.9,459.3,312.8,459.5z"/>
		<path class="st0" d="M220.7,450.4c1.3,2.1,2.6,4.2,3.9,6.4c-2.7-0.6-5-4.2-4.4-6.1C220.4,450.5,220.5,450.5,220.7,450.4z"/>
		<path class="st0" d="M345.4,467.8c-1.7,2.5-4.4,1.2-6.6,2.1c-0.6-1.3-0.3-1.9,1.1-2C341.7,467.9,343.3,467.9,345.4,467.8z"/>
		<path class="st0" d="M171.6,457.3c-1.8-0.3-3.6-0.6-5.3-1.1c-0.5-0.2-0.9-1-1.3-1.5c0.6-0.1,1.2-0.4,1.7-0.3
			c1.5,0.5,2.9,1.1,4.3,1.7c0.4,0.2,0.6,0.6,1,0.8C171.8,457.1,171.7,457.2,171.6,457.3z"/>
		<path class="st0" d="M88.9,331.3c-0.5,0.3-0.8,0.4-1.1,0.5c-1.5,0.7-3,1.4-4.5,2.1c-0.2,0.1-0.6,0-0.7-0.2
			c-0.1-0.3-0.2-0.7-0.1-0.9c0.4-0.9,4.2-2.6,5.1-2.3C87.9,330.6,88.1,330.8,88.9,331.3z"/>
		<path class="st0" d="M201.4,331.5c1.6,1,2,4.8,0.7,7.2C201.2,338.1,200.7,332.6,201.4,331.5z"/>
		<path class="st0" d="M240.6,424c2.9,0,5.3,0.4,7.4,2c0,0.2-0.1,0.4-0.1,0.6c-2.4-0.5-4.7-0.9-7.1-1.4
			C240.7,425.1,240.7,424.6,240.6,424z"/>
		<path class="st0" d="M179.7,309.6c-0.7-0.1-1.3-0.2-1.9-0.3c-1-0.1-2-0.1-3-0.4c-0.5-0.1-1-0.6-1.4-1c0.4-0.3,1-0.9,1.3-0.8
			c1.6,0.4,3.2,1,4.8,1.5C179.6,308.7,179.6,309.1,179.7,309.6z"/>
		<path class="st0" d="M-35,381.7c2.7,0.1,3.7,2.3,5.4,3.6c-1,1-2,0.7-2.6,0C-33.1,384.2-35.2,383.8-35,381.7z"/>
		<path class="st0" d="M232.2,465.3c-2.2,0.1-3.5-1.6-5.2-2.6c0,0,0.3-1.1,0.6-1.2C228.8,461.1,232.1,463.8,232.2,465.3z"/>
		<path class="st0" d="M63.2,348.1c0.3-0.6,0.4-1.4,0.9-1.8c1-0.8,2.2-1.4,3.3-2.1c0.3-0.1,0.7,0,1,0.1c0.1,0.1,0.2,0.6,0.1,0.7
			c-1.5,1.2-3.1,2.4-4.6,3.5C63.6,348.4,63.4,348.3,63.2,348.1z"/>
		<path class="st0" d="M30.6,394c-1.2,1.3-2.3,2.7-3.5,3.9c-0.1,0.1-0.8-0.1-0.8-0.3c-0.1-0.4-0.2-0.9,0-1.2
			c0.8-1.1,1.6-2.1,2.5-3.1c0.2-0.2,0.7-0.4,1-0.3C30,393.1,30.2,393.5,30.6,394z"/>
		<path class="st0" d="M267.3,467.4c-0.8,1.3-4.6,2.6-5.6,1.9c-0.2-0.1-0.5-0.6-0.4-0.8c0.2-0.4,0.6-0.9,1-0.9
			C263.9,467.4,265.6,467.4,267.3,467.4z"/>
		<path class="st0" d="M-3.4,403.2c1.9,0.6,3.9,1.2,5.8,1.7c0,0.2-0.1,0.4-0.1,0.7c-1.6,0.7-3.2,0.5-4.8-0.3c-0.6-0.3-0.9-1-1.3-1.5
			C-3.6,403.6-3.5,403.4-3.4,403.2z"/>
		<path class="st0" d="M-9.2,400.9c-0.6,0-1.2,0.1-1.6-0.2c-1.1-0.6-2.1-1.4-3-2.2c-0.3-0.3-0.2-1-0.2-1.5c0.5,0,1-0.1,1.3,0.1
			c1.3,1,2.5,2.1,3.8,3.2C-9.1,400.5-9.2,400.7-9.2,400.9z"/>
		<path class="st0" d="M181.2,463.2c-2.5-1-4.9-0.7-6.6-2.7C176,459.4,179.8,460.8,181.2,463.2z"/>
		<path class="st0" d="M213.7,464.7c-0.5,0.2-1,0.8-1.4,0.7c-1.5-0.5-3.1,1.4-4.4-0.3c-0.1-0.1,0.4-1.1,0.7-1.1c1.6-0.1,3.2,0,4.9,0
			C213.5,464.2,213.6,464.4,213.7,464.7z"/>
		<path class="st0" d="M144.8,400.4c-0.4,1.8-0.7,3.3-1.1,4.9c-0.1,0.2-0.7,0.3-1.1,0.5c-0.1-1.1-0.3-2.2-0.1-3.3
			C142.6,401.2,143.3,400.4,144.8,400.4z"/>
		<path class="st0" d="M292.3,458.7c-0.5,0.6-0.7,1-1,1.1c-1.5,0.5-2.9,0.9-4.4,1.3c-0.3,0.1-0.8-0.2-0.9-0.4
			c-0.1-0.3,0.1-0.9,0.3-1C288,458.9,289.8,458.3,292.3,458.7z"/>
		<path class="st0" d="M166.1,306.7c1,0.2,1.9,0.4,2.8,0.7c0.3,0.1,0.5,0.6,0.7,1c-0.3,0.2-0.6,0.5-1,0.5c-1.3,0.1-2.6,0.1-3.9,0
			c-0.4,0-0.7-0.4-1.1-0.7c0.2-0.3,0.3-0.7,0.6-0.8C164.8,307,165.5,306.9,166.1,306.7z"/>
		<path class="st0" d="M373,453.4c-2.1,0.3-4,0.6-6.4,1c0.5-0.8,0.7-1.5,1.1-1.8C369,451.9,372.1,452.2,373,453.4z"/>
		<path class="st0" d="M187.5,365.6c-0.2-0.4-0.6-1.1-0.4-1.3c1-1.1,2.2-2.2,3.3-3.2c0.1-0.1,0.6,0.1,0.8,0.3c0.1,0.1,0.1,0.6,0,0.7
			c-1,1.1-2,2.2-3,3.3C188.1,365.4,187.9,365.4,187.5,365.6z"/>
		<path class="st0" d="M154,445c-0.6-0.7-0.9-1-1.2-1.3c-0.9-0.8-1.9-1.6-2.9-2.4c-0.3-0.3-0.6-0.7-0.8-1c0.4-0.1,0.9-0.4,1.2-0.3
			C152.6,440.3,154.3,442.4,154,445z"/>
		<path class="st0" d="M224,460.1c-0.6,1.7-3.5,3.7-4.7,3.5c-0.3-0.1-0.7-0.3-0.9-0.6c-0.1-0.1,0.1-0.7,0.3-0.8
			C220.3,461.5,221.9,460.9,224,460.1z"/>
		<path class="st0" d="M-48.8,379.2c-0.4,0.2-0.7,0.6-0.9,0.5c-1.2-0.4-2.1,0.1-3.1,0.8c-0.3,0.2-0.8,0-1.3,0.1c0.1-0.4,0-1,0.2-1.3
			C-52.3,377.4-50.6,377.3-48.8,379.2z"/>
		<path class="st0" d="M397.6,463.6c-0.9-1.1-2-2.2-2.8-3.4c-0.2-0.4,0.2-1.1,0.3-1.7c0.5,0.3,1.1,0.4,1.4,0.8
			c0.7,1.2,1.3,2.6,1.9,3.9C398.1,463.3,397.8,463.5,397.6,463.6z"/>
		<path class="st0" d="M-41.9,377.4c0.7,0.5,1.7,1.1,2.6,1.8c0.1,0.1,0.1,0.7,0,0.7c-0.3,0.1-0.7,0.2-1.1,0.1
			c-0.9-0.1-1.7-0.3-2.5-0.5c-0.5-0.1-0.9-0.5-1.4-0.8c0.3-0.3,0.7-0.7,1-1C-43,377.6-42.7,377.6-41.9,377.4z"/>
		<path class="st0" d="M145.8,435c-1.7-0.9-2.9-2.3-3.5-4.1c-0.1-0.2,0.2-0.7,0.4-0.8c0.2-0.1,0.8-0.1,0.9,0
			C144.7,431.5,145.8,432.9,145.8,435z"/>
		<path class="st0" d="M231,427.6c0.4,0.9,0.9,1.8,1.3,2.5c0.4,0.1,0.9,0.2,1.4,0.3c-0.4,1-0.7,2-1.1,2.9c-0.2,0-0.4,0-0.6-0.1
			c-0.6-1.8-1.2-3.6-1.8-5.4C230.4,427.8,230.7,427.7,231,427.6z"/>
		<path class="st0" d="M187.9,463.8c2.2-0.3,4,0.2,5.8,1.8C190.9,466.5,188.3,465.6,187.9,463.8z"/>
		<path class="st0" d="M160.1,308.1c-1.9,0.4-3.7,0.9-5.6,1.1c-0.3,0-0.8-0.7-1.2-1.1c0.1-0.2,0.2-0.3,0.2-0.5
			c2.2-0.2,4.3-0.3,6.5-0.5C160,307.5,160.1,307.8,160.1,308.1z"/>
		<path class="st0" d="M149.8,392.6c-0.7,1-1.4,2-2.3,2.9c-0.2,0.3-0.8,0.2-1.2,0.4c-0.1-0.4-0.3-0.9-0.2-1.2c0.5-0.8,1-1.7,1.7-2.4
			C148.4,391.5,149.2,391.5,149.8,392.6z"/>
		<path class="st0" d="M103.7,321.6c1.9-0.5,3.7-0.9,5.6-1.4c0.1,0.2,0.2,0.3,0.2,0.5c-0.9,1.2-2.3,2-3.9,2.2
			c-0.6,0.1-1.4-0.5-2.1-0.8C103.6,321.9,103.6,321.8,103.7,321.6z"/>
		<path class="st0" d="M329.4,464.8c1.7,1.1,3,2,4.4,2.8c-0.2,0.3-0.6,0.9-0.7,0.8c-1.3-0.6-2.7-1.1-3.9-1.9
			C329,466.6,329.3,465.7,329.4,464.8z"/>
		<path class="st0" d="M118.2,316.5c-0.6,2.3-3.3,3.2-4.7,2c-0.6-0.5-0.6-0.6,0-0.8C115,317.2,116.5,316.9,118.2,316.5z"/>
		<path class="st0" d="M22.3,399.9c0.3,1.7,0,2-3.7,3.7C17.8,402,18.9,400.9,22.3,399.9z"/>
		<path class="st0" d="M77.3,337.8c-0.3,0.5-0.4,1.3-0.8,1.5c-1.3,0.6-2.4,2.3-4.3,1.3c0.7-2.4,3.2-1.9,4.6-3
			C77,337.6,77.1,337.7,77.3,337.8z"/>
		<path class="st0" d="M192.7,315c0.7,0.1,1.6-0.1,2,0.3c1,0.9,1.7,2,2.5,3c0.1,0.1-0.1,0.5-0.2,0.7c-0.1,0.1-0.5,0.1-0.6,0.1
			c-1.4-1.2-2.7-2.4-4.1-3.6C192.5,315.3,192.6,315.2,192.7,315z"/>
		<path class="st0" d="M183.7,310.5c0.3-0.3,0.6-0.8,1.1-1c1.6-0.4,2.9,0.7,3.8,3.5C187,312.1,185.6,311.5,183.7,310.5z"/>
		<path class="st0" d="M160.9,382.5c0.2-1.3,2.5-3.6,3.5-3.6c0.3,0,0.7,0.3,1,0.5c0.1,0.1,0.1,0.7-0.1,0.8c-1.2,0.9-2.4,1.7-3.7,2.4
			C161.6,382.7,161.3,382.6,160.9,382.5z"/>
		<path class="st0" d="M-64.7,391c-0.7,1.9-1.4,3.7-2.2,5.7c-1.1-0.6-1.1-1.5-0.6-2.3C-66.8,393.1-67.4,390.7-64.7,391z"/>
		<path class="st0" d="M239.3,425.4c-0.1,0.3-0.1,0.7-0.3,0.9c-1,0.7-2.1,1.4-3.2,2.1c-0.3,0.2-0.7,0-1.1,0.1c0-0.4-0.1-0.9,0.1-1.2
			C235.6,425.9,237.6,425.1,239.3,425.4z"/>
		<path class="st0" d="M123.1,313.9c1.7-0.5,2.8-0.9,4-1.2c0.4-0.1,0.8,0.1,1.2,0.2c-0.2,0.4-0.2,1.1-0.5,1.2c-1,0.5-2.1,0.9-3.2,1
			C124.2,315.2,123.7,314.4,123.1,313.9z"/>
		<path class="st0" d="M361.2,456.9c-0.4,0.5-0.8,1.1-1.4,1.5c-0.8,0.6-1.7,1-2.6,1.4c-0.3,0.1-0.8-0.1-1-0.3
			c-0.1-0.1,0-0.8,0.1-0.9c1.4-0.8,2.9-1.6,4.4-2.4C360.9,456.6,361,456.8,361.2,456.9z"/>
		<path class="st0" d="M145.2,309.1c0.9,0.2,1.6,0.2,2.1,0.4c0.4,0.2,0.6,0.6,0.9,0.9c-0.3,0.2-0.6,0.6-1,0.7
			c-1,0.1-2.1,0.1-3.1,0.1c-0.2,0-0.5-0.3-0.7-0.5c0.1-0.2,0.3-0.4,0.4-0.5C144.3,309.8,144.8,309.4,145.2,309.1z"/>
		<path class="st0" d="M199.6,348.7c-1-1.4-0.7-2.9,1.1-5C201.9,344.5,201.5,346.7,199.6,348.7z"/>
		<path class="st0" d="M197.7,353c0,2.3-1.2,3.7-2.4,5.2C194.2,357.1,195.5,354.1,197.7,353z"/>
		<path class="st0" d="M220.6,421.4c-1.5,1.3-2.8,2.4-4.1,3.5c-0.5-1.6,0.5-3.4,2.2-4C219.2,420.7,219.9,421.1,220.6,421.4z"/>
		<path class="st0" d="M201.2,464.1c0.8,0.3,2.2,0.7,2.2,0.9c-0.1,1.3-1.3,0.9-2.2,1c-0.5,0.1-1,0.3-1.5,0.2c-0.4,0-0.7-0.4-1.1-0.6
			c0.3-0.4,0.5-1,0.8-1.2c0.5-0.2,1.1-0.1,1.6-0.2C201.1,464.3,201.2,464.2,201.2,464.1z"/>
		<path class="st0" d="M201.1,326.6c-0.8-1.6-1.6-2.9-2.2-4.3c-0.1-0.2,0.1-0.7,0.4-1c0.1-0.1,0.6,0,0.9,0.2
			C201.4,322.3,201.9,324.7,201.1,326.6z"/>
		<path class="st0" d="M157.2,449c1.5-0.4,3.3,0.9,4.6,3.1C159.9,452.5,158.1,451.3,157.2,449z"/>
		<path class="st0" d="M325.3,463.7c-2.4,0.3-4.6-1.2-4.5-2.9C322.9,460.7,323.9,462.2,325.3,463.7z"/>
		<path class="st0" d="M248.6,444.7c-0.1,2.1-1.8,2.8-2.9,4.1C244.8,447.2,246.6,444.8,248.6,444.7z"/>
		<path class="st0" d="M157.6,385.5c-0.9,0.8-1.7,1.7-2.6,2.4c-0.3,0.2-0.8,0.2-1.2,0.1c-0.1,0-0.3-0.6-0.2-0.8
			C153.8,385.7,156.1,384.7,157.6,385.5z"/>
		<path class="st0" d="M-61.6,386.2c-1.4-0.6-0.6-1.6,0-2.1c0.8-0.6,1.8-0.9,2.8-1.4c0,0.4,0.2,1,0,1.2
			C-59.6,384.8-60.6,385.4-61.6,386.2z"/>
		<path class="st0" d="M-68.5,400c1,1.2,1.3,4.6,0.5,5.6C-69.1,404.4-69.3,401.3-68.5,400z"/>
		<path class="st0" d="M350.8,462.9c0.3,2.8-2.5,2.1-3.3,3.6C347.2,464.6,347.9,463.9,350.8,462.9z"/>
		<path class="st0" d="M397.7,488c0.5-1.8,1-3.4,1.6-5.3C400.7,484.9,399.8,487.7,397.7,488z"/>
		<path class="st0" d="M133.3,313.1c0.3-1.6,2.3-3.1,3.3-2.8c0.3,0.1,0.7,0.4,0.8,0.7c0.1,0.2-0.2,0.7-0.5,0.8
			C135.8,312.2,134.7,312.6,133.3,313.1z"/>
		<path class="st0" d="M252.2,436.2c0.8,1.9,0.1,4.7-1.3,5.3C250.4,439.9,250.4,439.9,252.2,436.2z"/>
		<path class="st0" d="M237,454.6c1.2-0.8,2.2-1.6,3.4-2.4c1,1.9-0.6,2.3-1.5,3C237.9,456,237.4,455.2,237,454.6z"/>
		<path class="st0" d="M390.3,455.7c-1.4,1.2-2.8,0.5-3.6-1.7C388.4,453.2,389.1,454.8,390.3,455.7z"/>
		<path class="st0" d="M230,459.6c-0.6-0.6-0.9-0.9-1.2-1.2c0.9-0.5,1.9-1,2.9-1.4c0.2-0.1,0.5,0.3,0.8,0.5
			C231.7,458.2,230.9,458.9,230,459.6z"/>
		<path class="st0" d="M251.7,432.6c-0.4-1.6-0.7-2.9-1.1-4.5C252.8,429.4,253.3,431.3,251.7,432.6z"/>
		<path class="st0" d="M228.5,422.5c2.7,0.7,1.8,2.6,2.3,3.9c-0.2,0.1-0.3,0.2-0.5,0.2C229.8,425.4,229.2,424.1,228.5,422.5z"/>
		<path class="st0" d="M226.5,420.2c-0.6,0.2-1.2,0.6-1.9,0.7c-0.3,0-0.6-0.5-1-0.7c0.5-0.4,0.9-1,1.5-1.2c0.3-0.1,0.9,0.4,1.3,0.6
			C226.5,419.8,226.5,420,226.5,420.2z"/>
	</g>
</g>
</svg>
