<?xml version="1.0" encoding="utf-8"?>
<!-- Generator: Adobe Illustrator 19.1.0, SVG Export Plug-In . SVG Version: 6.00 Build 0)  -->
<svg version="1.1" id="XMLID_1_" xmlns="http://www.w3.org/2000/svg" xmlns:xlink="http://www.w3.org/1999/xlink" x="0px" y="0px"
	 viewBox="0 0 22.7573 24.8956" enable-background="new 0 0 22.7573 24.8956" xml:space="preserve">
<g id="potatoes">
	<g>
		<path d="M22.7573,17.3059c-0.4935,0.9584-0.8567,2.0189-1.5098,2.8522c-1.1042,1.409-2.2979,2.7824-3.6441,3.952
			c-0.623,0.5412-1.7393,0.8803-2.5518,0.7619c-1.7163-0.2502-2.2633-1.9773-1.4576-3.4739
			c0.6672-1.2394,1.0293-2.6399,1.6525-3.9071c0.5969-1.2138,1.1066-2.6573,2.0948-3.4535
			c2.1551-1.7363,4.7498-0.4213,5.1286,2.3899c0.0335,0.2484,0.0288,0.502,0.0418,0.7531
			C22.5936,17.2224,22.6754,17.2641,22.7573,17.3059z M20.6971,17.8055c0.0412,0.1415,0.0823,0.283,0.1235,0.4245
			c0.8764-0.9895,0.3875-1.9601-0.1352-2.8768c-0.5486-0.9621-1.1159-0.8704-1.757,0.0121
			c-0.3794,0.5223-1.0414,0.8394-1.5764,1.2487c-0.0971-0.1007-0.1942-0.2013-0.2913-0.302
			c-0.6292,1.6964-0.5758,1.6914-0.3655,3.92c0.0388,0.4112-0.5095,0.9168-0.8595,1.3149c-0.3556,0.4045-0.9843,0.6656-1.1413,1.113
			c-0.101,0.2879,0.4335,0.7987,0.7841,1.3757c1.3682-1.3684,2.52-2.5204,3.393-3.3935c-0.3155-0.9975-0.5276-1.6683-0.7398-2.3391
			C18.9869,18.1373,19.842,17.9714,20.6971,17.8055z"/>
		<path d="M9.9772,7.7842c0.6908-1.6864,1.3367-3.2829,2.0032-4.8709c0.1128-0.2688,0.3594-0.4822,0.4677-0.7519
			c0.8345-2.0783,2.3968-2.6693,4.605-1.7231c1.4073,0.603,2.1271,2.5294,1.2713,4.1169c-1.0819,2.0069-1.5546,4.0618-1.4546,6.3245
			c0.0582,1.317-1.0825,2.5233-2.5022,2.8244c-1.378,0.2923-2.332-0.2505-2.8121-1.6045
			C11.0644,10.7148,10.5473,9.3393,9.9772,7.7842z M14.4117,12.0398c1.8452-0.5477,0.8521-2.0874,1.1545-3.1126
			c-0.4161-0.3381-0.7682-0.6243-1.1203-0.9105c0.3131-0.2172,0.6378-0.4197,0.9348-0.6571
			c0.1713-0.137,0.3446-0.3081,0.4358-0.5021c0.3403-0.7228,0.7692-1.4352,0.9338-2.2012C16.9347,3.799,16.8728,2.8878,16.8763,2
			c0.0001-0.0171-0.516-0.0465-0.7916-0.0521c-0.4351-0.0088-0.8704-0.0024-1.3057-0.0024
			c-0.2453,0.0133-0.516,0.4218-0.8632,0.7492c-2.1819,2.0576-2.9668,5.1515-1.7502,7.8174c0.3701,0.811,0.648,2.3603,2.2849,1.505
			L14.4117,12.0398z"/>
		<path d="M5.5183,22.5738c-1.9649,0.1326-3.2802-1.059-4.5548-2.0015c-1.5319-1.1328-1.1825-4.1149,0.6604-4.7676
			c1.3354-0.4729,2.9706-0.2138,4.4578-0.0982c0.8067,0.0627,1.5729,0.6911,2.3764,0.7382
			c1.2182,0.0714,2.2344,0.3788,2.4871,1.6281c0.2796,1.3826-0.1659,2.6434-1.5685,3.2281
			C8.1303,21.8205,6.8075,22.1567,5.5183,22.5738z M4.9035,21.0717c1.0061-0.4111,2.8193,0.7405,3.1619-1.4628
			c0.5497-0.0624,1.0342-0.1174,1.6235-0.1842c-0.6812-0.6188-1.0849-0.9855-1.5306-1.3904c-0.4574,0-1.0451,0-1.7472,0
			c0.2303,0.5053,0.4154,0.9113,0.7253,1.5909c-1.2029-0.1375-1.9188-0.1935-1.6752-1.5606
			c0.0807-0.4525-0.4123-1.0985-0.8014-1.5039c-0.1863-0.1941-0.7422-0.0334-1.0839-0.0334
			c0.0311,0.4949,0.0579,0.9214,0.1073,1.7081c-0.7464-0.4686-1.2331-0.7742-1.7169-1.0778
			c-1.0801,1.6849-0.8107,2.365,1.045,3.0613c0.4749-0.3199,0.8258-0.5563,1.1766-0.7926
			C4.4007,19.9156,4.6136,20.405,4.9035,21.0717z"/>
		<path fill="#FFFFFF" d="M20.6971,17.8055c-0.8551,0.1659-1.7102,0.3318-2.5653,0.4977c0.2122,0.6708,0.4243,1.3416,0.7398,2.3391
			c-0.873,0.8732-2.0248,2.0252-3.393,3.3935c-0.3506-0.577-0.8851-1.0879-0.7841-1.3757c0.157-0.4474,0.7857-0.7086,1.1413-1.113
			c0.35-0.3981,0.8983-0.9037,0.8595-1.3149c-0.2102-2.2286-0.2636-2.2235,0.3655-3.92c0.0971,0.1007,0.1942,0.2013,0.2913,0.302
			c0.5349-0.4094,1.197-0.7264,1.5764-1.2487c0.6411-0.8825,1.2083-0.9742,1.757-0.0121c0.5227,0.9167,1.0116,1.8873,0.1352,2.8768
			C20.7795,18.0886,20.7383,17.9471,20.6971,17.8055z"/>
		<path fill="#FFFFFF" d="M14.4506,12.0171c-1.6369,0.8553-1.9148-0.694-2.2849-1.505c-1.2166-2.6659-0.4317-5.7598,1.7502-7.8174
			c0.3472-0.3274,0.6179-0.7358,0.8632-0.7492c0.4352,0,0.8706-0.0065,1.3057,0.0024C16.3603,1.9535,16.8764,1.9829,16.8763,2
			c-0.0035,0.8879,0.0584,1.799-0.1259,2.6563c-0.1647,0.766-0.5936,1.4783-0.9338,2.2012
			c-0.0913,0.1939-0.2645,0.3651-0.4358,0.5021c-0.2969,0.2374-0.6217,0.44-0.9348,0.6571
			c0.3521,0.2862,0.7043,0.5724,1.1203,0.9105c-0.3024,1.0252,0.6907,2.5649-1.1512,3.1106
			c0.2159-0.4827,0.4731-0.9521,0.6001-1.4545c0.023-0.0908-0.6496-0.5102-0.7258-0.4469c-0.3347,0.2783-0.7877,0.688-0.7721,1.0307
			C13.5308,11.464,14.1173,11.7348,14.4506,12.0171z M15.566,4.4725c-0.6805-0.4535-1.1395-0.9766-1.4182-0.8937
			c-0.4067,0.1209-0.8311,0.6354-0.9541,1.0659c-0.0611,0.2138,0.6058,0.9195,0.8157,0.8693
			C14.489,5.3992,14.8901,4.956,15.566,4.4725z M12.9406,6.495c-0.3119,0.0457-0.6238,0.0914-0.9357,0.1371
			c0.1173,0.66,0.2346,1.3201,0.3518,1.9801c0.2885-0.0446,0.577-0.0891,0.8656-0.1337C13.1284,7.8174,13.0345,7.1562,12.9406,6.495
			z"/>
		<path fill="#FFFFFF" d="M4.9035,21.0717c-0.2899-0.6667-0.5028-1.1561-0.7156-1.6455c-0.3508,0.2363-0.7017,0.4727-1.1766,0.7926
			c-1.8557-0.6963-2.1251-1.3764-1.045-3.0613c0.4838,0.3037,0.9705,0.6093,1.7169,1.0778
			c-0.0494-0.7867-0.0762-1.2132-0.1073-1.7081c0.3416,0,0.8976-0.1607,1.0839,0.0334c0.3891,0.4054,0.8821,1.0514,0.8014,1.5039
			c-0.2437,1.3671,0.4723,1.4231,1.6752,1.5606c-0.3098-0.6797-0.4949-1.0856-0.7253-1.5909c0.7021,0,1.2898,0,1.7472,0
			c0.4457,0.4049,0.8494,0.7716,1.5306,1.3904c-0.5894,0.0669-1.0738,0.1219-1.6235,0.1842
			C7.7228,21.8121,5.9096,20.6605,4.9035,21.0717z"/>
		<path d="M15.566,4.4725c-0.6759,0.4835-1.0769,0.9267-1.5566,1.0415c-0.21,0.0502-0.8768-0.6554-0.8157-0.8693
			c0.123-0.4306,0.5473-0.945,0.9541-1.0659C14.4265,3.4959,14.8854,4.0189,15.566,4.4725z"/>
		<path d="M14.4506,12.0171c-0.3333-0.2823-0.9198-0.553-0.9334-0.8499c-0.0156-0.3427,0.4374-0.7525,0.7721-1.0307
			c0.0762-0.0634,0.7488,0.3561,0.7258,0.4469c-0.127,0.5023-0.3842,0.9718-0.6001,1.4545
			C14.4117,12.0398,14.4506,12.0171,14.4506,12.0171z"/>
		<path d="M12.9406,6.495c0.0939,0.6612,0.1878,1.3224,0.2817,1.9836c-0.2885,0.0446-0.577,0.0891-0.8656,0.1337
			c-0.1173-0.66-0.2346-1.3201-0.3518-1.9801C12.3168,6.5864,12.6287,6.5407,12.9406,6.495z"/>
	</g>
</g>
</svg>
