<?xml version="1.0" encoding="utf-8"?>
<!-- Generator: Adobe Illustrator 19.0.0, SVG Export Plug-In . SVG Version: 6.00 Build 0)  -->
<svg version="1.1" id="XMLID_1_" xmlns="http://www.w3.org/2000/svg" xmlns:xlink="http://www.w3.org/1999/xlink" x="0px" y="0px"
	 viewBox="-294 384.1 22.8 24.9" style="enable-background:new -294 384.1 22.8 24.9;" xml:space="preserve">
<style type="text/css">
	.st0{fill:#AD9231;}
</style>
<g id="RTgCO1.tif_1_">
	<g id="XMLID_755_">
		<path id="XMLID_832_" d="M-271.2,401.4c-0.5,1-0.9,2-1.5,2.9c-1.1,1.4-2.3,2.8-3.6,4c-0.6,0.5-1.7,0.9-2.6,0.8
			c-1.7-0.3-2.3-2-1.5-3.5c0.7-1.2,1-2.6,1.7-3.9c0.6-1.2,1.1-2.7,2.1-3.5c2.2-1.7,4.7-0.4,5.1,2.4c0,0.2,0,0.5,0,0.8
			C-271.4,401.3-271.3,401.4-271.2,401.4z M-273.3,401.9c0,0.1,0.1,0.3,0.1,0.4c0.9-1,0.4-2-0.1-2.9c-0.5-1-1.1-0.9-1.8,0
			c-0.4,0.5-1,0.8-1.6,1.2c-0.1-0.1-0.2-0.2-0.3-0.3c-0.6,1.7-0.6,1.7-0.4,3.9c0,0.4-0.5,0.9-0.9,1.3c-0.4,0.4-1,0.7-1.1,1.1
			c-0.1,0.3,0.4,0.8,0.8,1.4c1.4-1.4,2.5-2.5,3.4-3.4c-0.3-1-0.5-1.7-0.7-2.3C-275,402.2-274.2,402.1-273.3,401.9z"/>
		<path id="XMLID_829_" d="M-284,391.9c0.7-1.7,1.3-3.3,2-4.9c0.1-0.3,0.4-0.5,0.5-0.8c0.8-2.1,2.4-2.7,4.6-1.7
			c1.4,0.6,2.1,2.5,1.3,4.1c-1.1,2-1.6,4.1-1.5,6.3c0.1,1.3-1.1,2.5-2.5,2.8c-1.4,0.3-2.3-0.3-2.8-1.6
			C-282.9,394.8-283.5,393.4-284,391.9z M-279.6,396.1c1.8-0.5,0.9-2.1,1.2-3.1c-0.4-0.3-0.8-0.6-1.1-0.9c0.3-0.2,0.6-0.4,0.9-0.7
			c0.2-0.1,0.3-0.3,0.4-0.5c0.3-0.7,0.8-1.4,0.9-2.2c0.2-0.9,0.1-1.8,0.1-2.7c0,0-0.5,0-0.8-0.1c-0.4,0-0.9,0-1.3,0
			c-0.2,0-0.5,0.4-0.9,0.7c-2.2,2.1-3,5.2-1.8,7.8C-281.5,395.4-281.2,397-279.6,396.1L-279.6,396.1z"/>
		<path id="XMLID_794_" d="M-288.5,406.7c-2,0.1-3.3-1.1-4.6-2c-1.5-1.1-1.2-4.1,0.7-4.8c1.3-0.5,3-0.2,4.5-0.1
			c0.8,0.1,1.6,0.7,2.4,0.7c1.2,0.1,2.2,0.4,2.5,1.6c0.3,1.4-0.2,2.6-1.6,3.2C-285.9,405.9-287.2,406.3-288.5,406.7z M-289.1,405.2
			c1-0.4,2.8,0.7,3.2-1.5c0.5-0.1,1-0.1,1.6-0.2c-0.7-0.6-1.1-1-1.5-1.4c-0.5,0-1,0-1.7,0c0.2,0.5,0.4,0.9,0.7,1.6
			c-1.2-0.1-1.9-0.2-1.7-1.6c0.1-0.5-0.4-1.1-0.8-1.5c-0.2-0.2-0.7,0-1.1,0c0,0.5,0.1,0.9,0.1,1.7c-0.7-0.5-1.2-0.8-1.7-1.1
			c-1.1,1.7-0.8,2.4,1,3.1c0.5-0.3,0.8-0.6,1.2-0.8C-289.6,404-289.4,404.5-289.1,405.2z"/>
		<path id="XMLID_793_" class="st0" d="M-273.3,401.9c-0.9,0.2-1.7,0.3-2.6,0.5c0.2,0.7,0.4,1.3,0.7,2.3c-0.9,0.9-2,2-3.4,3.4
			c-0.4-0.6-0.9-1.1-0.8-1.4c0.2-0.4,0.8-0.7,1.1-1.1c0.4-0.4,0.9-0.9,0.9-1.3c-0.2-2.2-0.3-2.2,0.4-3.9c0.1,0.1,0.2,0.2,0.3,0.3
			c0.5-0.4,1.2-0.7,1.6-1.2c0.6-0.9,1.2-1,1.8,0c0.5,0.9,1,1.9,0.1,2.9C-273.2,402.2-273.3,402.1-273.3,401.9z"/>
		<path id="XMLID_789_" class="st0" d="M-279.5,396.1c-1.6,0.9-1.9-0.7-2.3-1.5c-1.2-2.7-0.4-5.8,1.8-7.8c0.3-0.3,0.6-0.7,0.9-0.7
			c0.4,0,0.9,0,1.3,0c0.3,0,0.8,0,0.8,0.1c0,0.9,0.1,1.8-0.1,2.7c-0.2,0.8-0.6,1.5-0.9,2.2c-0.1,0.2-0.3,0.4-0.4,0.5
			c-0.3,0.2-0.6,0.4-0.9,0.7c0.4,0.3,0.7,0.6,1.1,0.9C-278.7,394.1-277.7,395.6-279.5,396.1c0.2-0.5,0.4-0.9,0.6-1.4
			c0-0.1-0.6-0.5-0.7-0.4c-0.3,0.3-0.8,0.7-0.8,1C-280.5,395.6-279.9,395.8-279.5,396.1z M-278.4,388.6c-0.7-0.5-1.1-1-1.4-0.9
			c-0.4,0.1-0.8,0.6-1,1.1c-0.1,0.2,0.6,0.9,0.8,0.9C-279.5,389.5-279.1,389.1-278.4,388.6z M-281.1,390.6c-0.3,0-0.6,0.1-0.9,0.1
			c0.1,0.7,0.2,1.3,0.4,2c0.3,0,0.6-0.1,0.9-0.1C-280.9,391.9-281,391.3-281.1,390.6z"/>
		<path id="XMLID_788_" class="st0" d="M-289.1,405.2c-0.3-0.7-0.5-1.2-0.7-1.6c-0.4,0.2-0.7,0.5-1.2,0.8c-1.9-0.7-2.1-1.4-1-3.1
			c0.5,0.3,1,0.6,1.7,1.1c0-0.8-0.1-1.2-0.1-1.7c0.3,0,0.9-0.2,1.1,0c0.4,0.4,0.9,1.1,0.8,1.5c-0.2,1.4,0.5,1.4,1.7,1.6
			c-0.3-0.7-0.5-1.1-0.7-1.6c0.7,0,1.3,0,1.7,0c0.4,0.4,0.8,0.8,1.5,1.4c-0.6,0.1-1.1,0.1-1.6,0.2
			C-286.3,405.9-288.1,404.8-289.1,405.2z"/>
		<path id="XMLID_787_" d="M-278.4,388.6c-0.7,0.5-1.1,0.9-1.6,1c-0.2,0.1-0.9-0.7-0.8-0.9c0.1-0.4,0.5-0.9,1-1.1
			C-279.6,387.6-279.1,388.1-278.4,388.6z"/>
		<path id="XMLID_786_" d="M-279.5,396.1c-0.3-0.3-0.9-0.6-0.9-0.8c0-0.3,0.4-0.8,0.8-1c0.1-0.1,0.7,0.4,0.7,0.4
			C-279.1,395.2-279.4,395.7-279.5,396.1C-279.6,396.1-279.5,396.1-279.5,396.1z"/>
		<path id="XMLID_785_" d="M-281.1,390.6c0.1,0.7,0.2,1.3,0.3,2c-0.3,0-0.6,0.1-0.9,0.1c-0.1-0.7-0.2-1.3-0.4-2
			C-281.7,390.7-281.4,390.6-281.1,390.6z"/>
	</g>
</g>
</svg>
