<?xml version="1.0" encoding="utf-8"?>
<!-- Generator: Adobe Illustrator 19.1.0, SVG Export Plug-In . SVG Version: 6.00 Build 0)  -->
<svg version="1.1" id="XMLID_2_" xmlns="http://www.w3.org/2000/svg" xmlns:xlink="http://www.w3.org/1999/xlink" x="0px" y="0px"
	 viewBox="0 0 36.5609 77.6441" enable-background="new 0 0 36.5609 77.6441" xml:space="preserve">
<g id="sheep">
	<g>
		<path d="M8.4355,67.8899c0.9319-0.4894,2.0122-1.5499,2.7659-1.354c1.7921,0.4659,3.0291-1.0528,4.8164-0.7597
			c1.8019,0.2956,2.3256,1.6878,3.4385,2.557c0.1357,0.1059,0.2229,0.2739,0.3274,0.4066c1.4245-0.4174,3.5403,1.29,3.4277,2.8155
			c-0.039,0.528-0.2158,1.2732-0.5877,1.5046c-0.9432,0.5869-2.1246,0.4424-2.8222-0.3338c-0.9256-1.03-1.7814-0.6005-2.5211-0.099
			c-0.7517,0.5096-0.5172,1.973,0.2599,2.8026c0.078,0.0832,0.0781,0.2393,0.1133,0.3578c-1.1535,0.5469-1.5078,0.123-1.6643-2.2946
			c-0.7018,0.1469-1.3642,0.3551-2.0386,0.4072c-0.6827,0.0527-1.3773-0.0492-1.9304-0.0766
			c-0.3173,1.2131-0.6141,2.419-0.9722,3.6064c-0.0361,0.1197-0.4428,0.1276-0.7832,0.2143c0.1542-0.714,0.296-1.2969,0.404-1.886
			c0.1998-1.0905,0.2999-2.0984-1.1879-2.434c-0.2951-0.0666-0.4092-0.7496-0.6991-1.0628
			c-0.7102-0.7672-1.475-1.4839-2.2165-2.2222c-0.4144-0.4125-0.8262-0.8277-1.2391-1.2416
			c0.6011-0.5228,1.1448-1.1572,1.8328-1.5109c0.2594-0.1333,0.8528,0.3833,1.2887,0.6024
			c-0.3072-0.0487-0.6825-0.2313-0.8959-0.1156c-0.4547,0.2465-0.8254,0.648-1.2306,0.9859
			c0.1777,0.213,0.4667,0.6327,0.5155,0.6063c0.4122-0.2219,0.8016-0.5015,1.1536-0.8138
			C8.1831,68.3811,8.29,68.1137,8.4355,67.8899z M17.075,68.006c-0.0892-0.6135-0.1487-1.022-0.2081-1.4305
			c-0.511,0.0767-1.0248,0.1386-1.5315,0.2372c-0.2005,0.039-0.3793,0.1781-0.578,0.2393
			c-0.5365,0.1652-1.2068,0.1633-1.5943,0.4955c-1.2223,1.048-1.7587,1.1017-3.0985-0.1607
			C9.508,68.3161,8.983,69.1926,8.356,70.2393c0.1307,0.0889,0.4856,0.2486,0.7217,0.5139
			c0.2294,0.2577,0.3034,0.6473,0.5056,0.9371c0.3487,0.5,0.6571,1.1431,1.1501,1.387c0.3285,0.1626,0.9482-0.2634,1.5637-0.4679
			c0.8991,0.9354,1.2001,0.906,2.2958-0.4584c0.2404,0.1595,0.4647,0.3842,0.7341,0.4741c1.3369,0.4465,1.4647-1.7931,2.8635-1.3249
			c0.0882,0.0295,0.4151-0.3501,0.4677-0.5773c0.142-0.6122,0.3105-1.2589,0.2372-1.8638
			c-0.0381-0.3149-0.5241-0.6561-0.8832-0.8261C17.7275,67.8984,17.328,68.006,17.075,68.006z M20.4971,69.8997
			c-1.4155,0.9883-1.3244,1.5689,0.1672,2.385c0.5069-0.4726,1.0002-0.9324,1.4934-1.3922
			C21.2267,71.2611,20.6582,71.0328,20.4971,69.8997z"/>
		<path d="M32.9434,63.173c-0.477-0.7746-0.954-1.5493-1.4465-2.3491c-1.486,0.1669-3.0424,0.3417-4.5621,0.5124
			c-0.6827,0.7933,0.3502,2.2227-1.1362,2.9472c0-1.0304-0.0528-1.7764,0.0142-2.5115c0.0737-0.8083-0.0992-1.0467-0.988-1.4058
			c-1.333-0.5386-3.0883,0.1426-4.0388-1.3384c-0.3796-0.5914-1.0225-1.4549-0.8337-1.873
			c0.3352-0.7421,1.1188-1.4842,1.8869-1.7811c1.1656-0.4505,2.5046-0.3523,3.6724-0.9899c0.916-0.5001,1.9119-0.8658,2.8955-1.228
			c2.1592-0.7951,4.4098-0.3885,5.4295,1.0175c0.6611-0.1192,1.2869-0.3971,1.8191-0.273c0.3877,0.0904,0.9101,0.7143,0.9052,1.0943
			c-0.0061,0.4702-0.395,1.1914-0.7966,1.3482c-0.8748,0.3415-1.3175,0.7724-1.3912,1.7406
			c-0.0338,0.4434-0.3879,1.0321-0.77,1.2476c-1.1975,0.6755-1.372,1.1973-0.638,2.4568c0.2165,0.3715,0.3246,0.8063,0.4823,1.2121
			C33.2794,63.0576,33.1114,63.1153,32.9434,63.173z M33.8045,55.8519c-0.0909,0.0035-0.1818,0.0071-0.2728,0.0106
			c-0.2099-0.4337-0.339-0.9403-0.649-1.2836c-0.4386-0.4858-1.0107-0.851-1.5512-1.2883
			c-0.2846,0.5028-0.4453,0.7865-0.6136,1.0838c-1.1273-0.8707-1.1049-0.855-1.9833,0.3989
			c-0.1258,0.1795-0.6066,0.2056-0.8936,0.15c-0.2895-0.056-0.5421-0.3021-0.9472-0.5475c-0.0939,0.6585-0.1572,1.1021-0.239,1.6754
			c-0.4488-0.3413-0.7703-0.5857-1.0833-0.8237c-0.7422,0.5605-1.3927,1.0576-0.5336,1.9636
			c0.0938,0.099,0.0384,0.4201-0.0446,0.5913c-0.2851,0.5885-0.6132,1.1562-1.0587,1.9788c0.8315,0,1.4202,0,2.0999,0
			c0.823,1.2221,1.809,1.2567,2.4574,0.1663c0.8603,0.0584,1.6138,0.1918,2.3547,0.1413c1.2333-0.084,0.6158-1.2756,0.8524-1.7444
			c0.6223,0.0867,1.1307,0.2799,1.562,0.1702c0.2461-0.0626,0.4652-0.6037,0.5207-0.957
			C33.868,56.9881,33.8045,56.415,33.8045,55.8519z M21.9576,56.3435c-0.1818-0.0241-0.3636-0.0482-0.5454-0.0723
			c-0.1791,0.591-0.6071,1.2548-0.462,1.751c0.1259,0.4304,0.9036,0.9265,1.3883,0.9215c0.4565-0.0047,0.9065-0.6261,1.3594-0.9762
			c-0.0461-0.1133-0.0922-0.2267-0.1382-0.34C22.2503,58.1504,22.1932,57.1375,21.9576,56.3435z"/>
		<path d="M12.8988,1.5741c0.3088,0.0442,0.626,0.0573,0.9249,0.1382c1.0521,0.2847,1.9995,0.9467,3.2231,0.6112
			c0.2748-0.0753,0.7712,0.6574,1.1655,1.0181c-0.3518,0.3272-0.6521,0.7854-1.0682,0.9486
			c-0.5279,0.2072-1.1498,0.175-1.684,0.2402c0,0.7031,0.2201,1.5681-0.063,2.2115c-0.2731,0.6206-1.0657,1.0126-1.6606,1.5315
			c0.0784,0.6418,0.1854,1.5178,0.2923,2.3937c-0.1153,0.1038-0.2305,0.2076-0.3458,0.3113
			c-1.4105-1.7463-3.1036-2.8178-5.5041-2.3378c-0.2241,0.4905-0.5453,1.2498-0.9206,1.9815
			c-0.1161,0.2263-0.3792,0.3772-0.575,0.5626c-0.1135-0.224-0.2885-0.4376-0.3287-0.6741C6.2451,9.8656,6.1925,9.211,6.1075,8.4753
			C5.8536,8.2805,5.4703,8.0531,5.1714,7.7441c-0.766-0.792-1.61-1.1651-2.7699-1.0776C1.0557,6.7681,0.1012,5.9376,0.0092,4.8739
			C-0.102,3.5887,0.8086,2.4248,2.0957,2.2072c1.5404-0.2604,2.3381-0.1217,3.5359,0.5239
			c0.1073,0.9255,0.3327,1.7066,0.2371,2.4462C5.8026,5.6891,5.2935,6.1435,4.9047,6.7433c0.3661,0.208,0.7831,0.4449,1.3424,0.7626
			c0-0.5817,0-1.0257,0-1.4758C7.3772,6.311,7.9714,8.1826,9.6567,7.2282c1.1792,1.1776,2.2906,1.1041,2.8711-0.4242
			c0.7975,0.7995,1.737,0.8556,2.138-0.173c0.1894-0.4857-0.4651-1.3003-0.9121-1.9292c0.138-0.5716,1.759-0.3454,1.1019-1.5619
			c-0.2065-0.3823-1.12-0.3827-2.0082-0.6466c0.0059-0.088,0.0351-0.5204,0.064-0.9532L12.8988,1.5741z M4.7197,4.4071
			C4.231,4.6443,3.3934,5.1366,3.3403,5.063c-0.4414-0.6119-0.738-1.3282-1.2147-2.2871C1.5522,3.4563,0.978,4.1375,0.3915,4.8336
			C2.7636,6.5435,4.6914,6.111,4.7197,4.4071z"/>
		<path d="M12.8988,1.5741l0.0126-0.0339c-0.5748-0.0074-1.1929-0.1495-1.7123,0.0167c-0.4676,0.1497-0.8269,0.6375-1.384,1.101
			C9.6972,1.7095,9.6179,1.0719,9.4846,0c0.4616,0.5373,0.688,0.8009,0.9732,1.1328C11.3452,0.3985,12.207,0.5132,12.8988,1.5741z"
			/>
		<path d="M9.0127,1.0498c-0.0093,0.118,0.0271,0.2756-0.0353,0.3475C8.541,1.9003,8.0843,2.3856,7.634,2.8765
			C7.5212,2.7488,7.2961,2.5259,7.3119,2.5073c0.4761-0.5614,0.976-1.1027,1.4722-1.6472C8.8603,0.9233,8.9365,0.9865,9.0127,1.0498
			z"/>
		<path fill="#FFFFFF" d="M17.075,68.006c0.253,0,0.6525-0.1077,0.9372,0.0271c0.3591,0.17,0.8451,0.5112,0.8832,0.8261
			c0.0733,0.605-0.0952,1.2516-0.2372,1.8638c-0.0527,0.2271-0.3796,0.6068-0.4677,0.5773
			c-1.3988-0.4683-1.5266,1.7713-2.8635,1.3249c-0.2693-0.09-0.4937-0.3147-0.7341-0.4741
			c-1.0957,1.3644-1.3967,1.3937-2.2958,0.4584c-0.6155,0.2045-1.2352,0.6304-1.5637,0.4679
			c-0.4931-0.244-0.8014-0.8871-1.1501-1.387c-0.2022-0.2899-0.2762-0.6794-0.5056-0.9371
			c-0.2362-0.2654-0.5911-0.4251-0.7217-0.5139c0.6269-1.0466,1.152-1.9232,1.7086-2.8523
			c1.3398,1.2624,1.8762,1.2087,3.0985,0.1607c0.3875-0.3322,1.0578-0.3303,1.5943-0.4955c0.1987-0.0612,0.3775-0.2003,0.578-0.2393
			c0.5067-0.0986,1.0205-0.1606,1.5315-0.2372C16.9263,66.9841,16.9858,67.3926,17.075,68.006z"/>
		<path fill="#FFFFFF" d="M20.4971,69.8997c0.1612,1.1331,0.7296,1.3614,1.6607,0.9927c-0.4932,0.4598-0.9865,0.9196-1.4934,1.3922
			C19.1726,71.4686,19.0816,70.888,20.4971,69.8997z"/>
		<path fill="#FFFFFF" d="M8.4355,67.8899c-0.1455,0.2238-0.2524,0.4912-0.4449,0.6621c-0.3519,0.3122-0.7414,0.5919-1.1536,0.8138
			c-0.0489,0.0263-0.3379-0.3934-0.5155-0.6063c0.4051-0.338,0.7759-0.7394,1.2306-0.9859
			c0.2134-0.1157,0.5887,0.0669,0.8959,0.1156C8.4533,67.8903,8.4355,67.8899,8.4355,67.8899z"/>
		<path fill="#FFFFFF" d="M33.8045,55.8519c0,0.5631,0.0635,1.1361-0.0228,1.6857c-0.0555,0.3532-0.2746,0.8943-0.5207,0.957
			c-0.4313,0.1097-0.9397-0.0835-1.562-0.1702c-0.2366,0.4688,0.3809,1.6604-0.8524,1.7444
			c-0.7409,0.0505-1.4943-0.0829-2.3547-0.1413c-0.6483,1.0904-1.6344,1.0558-2.4574-0.1663c-0.6797,0-1.2684,0-2.0999,0
			c0.4455-0.8226,0.7736-1.3903,1.0587-1.9788c0.083-0.1712,0.1384-0.4924,0.0446-0.5913
			c-0.8591-0.9061-0.2087-1.4032,0.5336-1.9636c0.313,0.238,0.6344,0.4824,1.0833,0.8237c0.0818-0.5732,0.1451-1.0169,0.239-1.6754
			c0.4051,0.2454,0.6577,0.4915,0.9472,0.5475c0.287,0.0556,0.7679,0.0295,0.8936-0.15c0.8784-1.2539,0.856-1.2696,1.9833-0.3989
			c0.1683-0.2972,0.3289-0.581,0.6136-1.0838c0.5405,0.4373,1.1126,0.8025,1.5512,1.2883c0.31,0.3433,0.4392,0.8499,0.649,1.2836
			C33.6227,55.859,33.7136,55.8555,33.8045,55.8519z"/>
		<path fill="#FFFFFF" d="M21.9576,56.3435c0.2355,0.794,0.2927,1.8069,1.602,1.284c0.0461,0.1133,0.0922,0.2267,0.1382,0.34
			c-0.4529,0.3501-0.9029,0.9715-1.3594,0.9762c-0.4847,0.005-1.2624-0.491-1.3883-0.9215c-0.1451-0.4962,0.2829-1.16,0.462-1.751
			C21.594,56.2953,21.7758,56.3194,21.9576,56.3435z"/>
		<path fill="#FFFFFF" d="M4.7197,4.4071C4.6914,6.111,2.7636,6.5435,0.3915,4.8336c0.5866-0.696,1.1607-1.3772,1.7342-2.0577
			C2.6023,3.7348,2.8989,4.4511,3.3403,5.063C3.3934,5.1366,4.231,4.6443,4.7197,4.4071z"/>
	</g>
</g>
</svg>
