<?xml version="1.0" encoding="utf-8"?>
<!-- Generator: Adobe Illustrator 19.0.0, SVG Export Plug-In . SVG Version: 6.00 Build 0)  -->
<svg version="1.1" id="XMLID_2_" xmlns="http://www.w3.org/2000/svg" xmlns:xlink="http://www.w3.org/1999/xlink" x="0px" y="0px"
	 viewBox="-287 358.4 36.6 77.6" style="enable-background:new -287 358.4 36.6 77.6;" xml:space="preserve">
<style type="text/css">
	.st0{fill:#FFFFFF;}
</style>
<g id="XMLID_850_">
	<path id="XMLID_872_" class="st0" d="M-281.5,361.2c-0.7,0.7-1,3.8-1,3.8l2.2,1.4h3.1l2.8,0.3c1.5-0.5,2.5-1.9,2.5-1.9
		c-0.1-1.4,0-1.9,0-1.9l0.2-1.5l-2-1.1l-0.8-0.7l-2.1,0.2l-0.5-0.7c-1.4-0.6-1.8,1.3-1.8,1.3C-279.7,361.9-280,359.7-281.5,361.2z"
		/>
	<g id="tQDzwM.tif_1_">
		<g id="XMLID_851_">
			<path id="XMLID_867_" d="M-278.6,426.2c0.9-0.5,2-1.5,2.8-1.4c1.8,0.5,3-1.1,4.8-0.8c1.8,0.3,2.3,1.7,3.4,2.6
				c0.1,0.1,0.2,0.3,0.3,0.4c1.4-0.4,3.5,1.3,3.4,2.8c0,0.5-0.2,1.3-0.6,1.5c-0.9,0.6-2.1,0.4-2.8-0.3c-0.9-1-1.8-0.6-2.5-0.1
				c-0.8,0.5-0.5,2,0.3,2.8c0.1,0.1,0.1,0.2,0.1,0.4c-1.2,0.5-1.5,0.1-1.7-2.3c-0.7,0.1-1.4,0.4-2,0.4c-0.7,0.1-1.4,0-1.9-0.1
				c-0.3,1.2-0.6,2.4-1,3.6c0,0.1-0.4,0.1-0.8,0.2c0.2-0.7,0.3-1.3,0.4-1.9c0.2-1.1,0.3-2.1-1.2-2.4c-0.3-0.1-0.4-0.7-0.7-1.1
				c-0.7-0.8-1.5-1.5-2.2-2.2c-0.4-0.4-0.8-0.8-1.2-1.2c0.6-0.5,1.1-1.2,1.8-1.5C-279.6,425.5-279,426-278.6,426.2
				c-0.3,0-0.7-0.2-0.9-0.1c-0.5,0.2-0.8,0.6-1.2,1c0.2,0.2,0.5,0.6,0.5,0.6c0.4-0.2,0.8-0.5,1.2-0.8
				C-278.8,426.7-278.7,426.5-278.6,426.2z M-269.9,426.4c-0.1-0.6-0.1-1-0.2-1.4c-0.5,0.1-1,0.1-1.5,0.2c-0.2,0-0.4,0.2-0.6,0.2
				c-0.5,0.2-1.2,0.2-1.6,0.5c-1.2,1-1.8,1.1-3.1-0.2c-0.6,0.9-1.1,1.8-1.7,2.9c0.1,0.1,0.5,0.2,0.7,0.5c0.2,0.3,0.3,0.6,0.5,0.9
				c0.3,0.5,0.7,1.1,1.2,1.4c0.3,0.2,0.9-0.3,1.6-0.5c0.9,0.9,1.2,0.9,2.3-0.5c0.2,0.2,0.5,0.4,0.7,0.5c1.3,0.4,1.5-1.8,2.9-1.3
				c0.1,0,0.4-0.4,0.5-0.6c0.1-0.6,0.3-1.3,0.2-1.9c0-0.3-0.5-0.7-0.9-0.8C-269.3,426.3-269.7,426.4-269.9,426.4z M-266.5,428.3
				c-1.4,1-1.3,1.6,0.2,2.4c0.5-0.5,1-0.9,1.5-1.4C-265.8,429.6-266.3,429.4-266.5,428.3z"/>
			<path id="XMLID_863_" d="M-254.1,421.5c-0.5-0.8-1-1.5-1.4-2.3c-1.5,0.2-3,0.3-4.6,0.5c-0.7,0.8,0.4,2.2-1.1,2.9
				c0-1-0.1-1.8,0-2.5c0.1-0.8-0.1-1-1-1.4c-1.3-0.5-3.1,0.1-4-1.3c-0.4-0.6-1-1.5-0.8-1.9c0.3-0.7,1.1-1.5,1.9-1.8
				c1.2-0.5,2.5-0.4,3.7-1c0.9-0.5,1.9-0.9,2.9-1.2c2.2-0.8,4.4-0.4,5.4,1c0.7-0.1,1.3-0.4,1.8-0.3c0.4,0.1,0.9,0.7,0.9,1.1
				c0,0.5-0.4,1.2-0.8,1.3c-0.9,0.3-1.3,0.8-1.4,1.7c0,0.4-0.4,1-0.8,1.2c-1.2,0.7-1.4,1.2-0.6,2.5c0.2,0.4,0.3,0.8,0.5,1.2
				C-253.7,421.4-253.9,421.5-254.1,421.5z M-253.2,414.2c-0.1,0-0.2,0-0.3,0c-0.2-0.4-0.3-0.9-0.6-1.3c-0.4-0.5-1-0.9-1.6-1.3
				c-0.3,0.5-0.4,0.8-0.6,1.1c-1.1-0.9-1.1-0.9-2,0.4c-0.1,0.2-0.6,0.2-0.9,0.2c-0.3-0.1-0.5-0.3-0.9-0.5c-0.1,0.7-0.2,1.1-0.2,1.7
				c-0.4-0.3-0.8-0.6-1.1-0.8c-0.7,0.6-1.4,1.1-0.5,2c0.1,0.1,0,0.4,0,0.6c-0.3,0.6-0.6,1.2-1.1,2c0.8,0,1.4,0,2.1,0
				c0.8,1.2,1.8,1.3,2.5,0.2c0.9,0.1,1.6,0.2,2.4,0.1c1.2-0.1,0.6-1.3,0.9-1.7c0.6,0.1,1.1,0.3,1.6,0.2c0.2-0.1,0.5-0.6,0.5-1
				C-253.1,415.3-253.2,414.8-253.2,414.2z M-265,414.7c-0.2,0-0.4,0-0.5-0.1c-0.2,0.6-0.6,1.3-0.5,1.8c0.1,0.4,0.9,0.9,1.4,0.9
				c0.5,0,0.9-0.6,1.4-1c0-0.1-0.1-0.2-0.1-0.3C-264.7,416.5-264.8,415.5-265,414.7z"/>
			<path id="XMLID_860_" d="M-274.1,359.9c0.3,0,0.6,0.1,0.9,0.1c1.1,0.3,2,0.9,3.2,0.6c0.3-0.1,0.8,0.7,1.2,1
				c-0.4,0.3-0.7,0.8-1.1,0.9c-0.5,0.2-1.1,0.2-1.7,0.2c0,0.7,0.2,1.6-0.1,2.2c-0.3,0.6-1.1,1-1.7,1.5c0.1,0.6,0.2,1.5,0.3,2.4
				c-0.1,0.1-0.2,0.2-0.3,0.3c-1.4-1.7-3.1-2.8-5.5-2.3c-0.2,0.5-0.5,1.2-0.9,2c-0.1,0.2-0.4,0.4-0.6,0.6c-0.1-0.2-0.3-0.4-0.3-0.7
				c-0.1-0.6-0.2-1.3-0.2-2c-0.3-0.2-0.6-0.4-0.9-0.7c-0.8-0.8-1.6-1.2-2.8-1.1c-1.3,0.1-2.3-0.7-2.4-1.8c-0.1-1.3,0.8-2.4,2.1-2.7
				c1.5-0.3,2.3-0.1,3.5,0.5c0.1,0.9,0.3,1.7,0.2,2.4c-0.1,0.5-0.6,1-1,1.6c0.4,0.2,0.8,0.4,1.3,0.8c0-0.6,0-1,0-1.5
				c1.1,0.3,1.7,2.2,3.4,1.2c1.2,1.2,2.3,1.1,2.9-0.4c0.8,0.8,1.7,0.9,2.1-0.2c0.2-0.5-0.5-1.3-0.9-1.9c0.1-0.6,1.8-0.3,1.1-1.6
				c-0.2-0.4-1.1-0.4-2-0.6C-274.1,360.8-274.1,360.3-274.1,359.9L-274.1,359.9z M-282.3,362.8c-0.5,0.2-1.3,0.7-1.4,0.7
				c-0.4-0.6-0.7-1.3-1.2-2.3c-0.6,0.7-1.1,1.4-1.7,2.1C-284.2,364.9-282.3,364.5-282.3,362.8z"/>
			<path id="XMLID_859_" d="M-274.1,359.9L-274.1,359.9c-0.6,0-1.2-0.2-1.7,0c-0.5,0.1-0.8,0.6-1.4,1.1c-0.1-0.9-0.2-1.6-0.3-2.7
				c0.5,0.5,0.7,0.8,1,1.1C-275.7,358.8-274.8,358.9-274.1,359.9z"/>
			<path id="XMLID_858_" d="M-278,359.4c0,0.1,0,0.3,0,0.3c-0.4,0.5-0.9,1-1.3,1.5c-0.1-0.1-0.3-0.4-0.3-0.4c0.5-0.6,1-1.1,1.5-1.6
				C-278.1,359.3-278.1,359.3-278,359.4z"/>
			<path id="XMLID_857_" class="st0" d="M-269.9,426.4c0.3,0,0.7-0.1,0.9,0c0.4,0.2,0.8,0.5,0.9,0.8c0.1,0.6-0.1,1.3-0.2,1.9
				c-0.1,0.2-0.4,0.6-0.5,0.6c-1.4-0.5-1.5,1.8-2.9,1.3c-0.3-0.1-0.5-0.3-0.7-0.5c-1.1,1.4-1.4,1.4-2.3,0.5
				c-0.6,0.2-1.2,0.6-1.6,0.5c-0.5-0.2-0.8-0.9-1.2-1.4c-0.2-0.3-0.3-0.7-0.5-0.9c-0.2-0.3-0.6-0.4-0.7-0.5c0.6-1,1.2-1.9,1.7-2.9
				c1.3,1.3,1.9,1.2,3.1,0.2c0.4-0.3,1.1-0.3,1.6-0.5c0.2-0.1,0.4-0.2,0.6-0.2c0.5-0.1,1-0.2,1.5-0.2
				C-270.1,425.3-270,425.7-269.9,426.4z"/>
			<path id="XMLID_856_" class="st0" d="M-266.5,428.3c0.2,1.1,0.7,1.4,1.7,1c-0.5,0.5-1,0.9-1.5,1.4
				C-267.8,429.8-267.9,429.2-266.5,428.3z"/>
			<path id="XMLID_855_" class="st0" d="M-278.6,426.2c-0.1,0.2-0.3,0.5-0.4,0.7c-0.4,0.3-0.7,0.6-1.2,0.8c0,0-0.3-0.4-0.5-0.6
				c0.4-0.3,0.8-0.7,1.2-1C-279.2,426-278.9,426.2-278.6,426.2C-278.5,426.2-278.6,426.2-278.6,426.2z"/>
			<path id="XMLID_854_" class="st0" d="M-253.2,414.2c0,0.6,0.1,1.1,0,1.7c-0.1,0.4-0.3,0.9-0.5,1c-0.4,0.1-0.9-0.1-1.6-0.2
				c-0.2,0.5,0.4,1.7-0.9,1.7c-0.7,0.1-1.5-0.1-2.4-0.1c-0.6,1.1-1.6,1.1-2.5-0.2c-0.7,0-1.3,0-2.1,0c0.4-0.8,0.8-1.4,1.1-2
				c0.1-0.2,0.1-0.5,0-0.6c-0.9-0.9-0.2-1.4,0.5-2c0.3,0.2,0.6,0.5,1.1,0.8c0.1-0.6,0.1-1,0.2-1.7c0.4,0.2,0.7,0.5,0.9,0.5
				c0.3,0.1,0.8,0,0.9-0.2c0.9-1.3,0.9-1.3,2-0.4c0.2-0.3,0.3-0.6,0.6-1.1c0.5,0.4,1.1,0.8,1.6,1.3c0.3,0.3,0.4,0.8,0.6,1.3
				C-253.4,414.2-253.3,414.2-253.2,414.2z"/>
			<path id="XMLID_853_" class="st0" d="M-265,414.7c0.2,0.8,0.3,1.8,1.6,1.3c0,0.1,0.1,0.2,0.1,0.3c-0.5,0.4-0.9,1-1.4,1
				c-0.5,0-1.3-0.5-1.4-0.9c-0.1-0.5,0.3-1.2,0.5-1.8C-265.4,414.7-265.2,414.7-265,414.7z"/>
			<path id="XMLID_852_" class="st0" d="M-282.3,362.8c0,1.7-2,2.1-4.3,0.4c0.6-0.7,1.2-1.4,1.7-2.1c0.5,1,0.8,1.7,1.2,2.3
				C-283.6,363.5-282.8,363-282.3,362.8z"/>
		</g>
	</g>
</g>
</svg>
