<?xml version="1.0" encoding="utf-8"?>
<!-- Generator: Adobe Illustrator 19.0.0, SVG Export Plug-In . SVG Version: 6.00 Build 0)  -->
<svg version="1.1" id="XMLID_2_" xmlns="http://www.w3.org/2000/svg" xmlns:xlink="http://www.w3.org/1999/xlink" x="0px" y="0px"
	 viewBox="-279 371.5 52.1 50.5" style="enable-background:new -279 371.5 52.1 50.5;" xml:space="preserve">
<style type="text/css">
	.st0{fill:#FFDD15;}
</style>
<g id="_x32_1gjRl.tif_3_">
	<g id="XMLID_87_">
		<path id="XMLID_915_" d="M-262.6,390.2c1.2-2.3,3.3-3.9,6.3-4.5c4.1-0.7,7.5,0.6,10.5,3.3c5,4.6,3.9,10.5,1.4,15.1
			c-1,1.8-2.8,3.2-4.8,4.1c-4.9,2.2-11,0.3-14.6-3.8C-267.4,400.3-266.7,394.7-262.6,390.2z M-247.4,389.7c-0.7-0.5-1.9-1.2-3.1-1.9
			c-1.9-1.1-7.2-0.7-8.7,1c-1.4,1.5-2.8,3.2-4,4.9c-1.8,2.7-1.6,6.5,0.1,9.1c2.2,3.2,5.4,4.4,9,5.1c2.2,0.4,4-0.6,5.7-1.6
			c1.8-1.2,2.9-3,3.7-5.2C-243.2,397.1-243.9,392.8-247.4,389.7z"/>
		<path id="XMLID_914_" d="M-233.2,380.6c0.2,1.8-4.4,6.4-6.9,6.9c0.3-0.6,0.3-1.1,0.6-1.4C-237.4,384.2-235.4,382.5-233.2,380.6z"
			/>
		<path id="XMLID_913_" d="M-243.9,420.4c-2.9-2.1-4.3-5-5.9-8.4c0.7,0.1,1.4,0.1,1.6,0.3c1.6,2.4,3,5,4.5,7.4
			C-243.7,419.8-243.7,419.9-243.9,420.4z"/>
		<path id="XMLID_912_" d="M-226.9,396.8c-1.1,0.1-2.3,0.4-3.3,0.2c-1.9-0.4-3.7-1-5.5-1.6c-0.3-0.1-0.5-0.6-0.7-1
			c0.4-0.1,0.9-0.4,1.2-0.3c2,0.6,3.9,1.4,5.8,1.9c0.8,0.2,1.6,0,2.4,0C-226.9,396.3-226.9,396.6-226.9,396.8z"/>
		<path id="XMLID_901_" d="M-231.9,409.1c-1.3,0.8-2.4,0.3-3.3-0.4c-1.4-1.1-2.7-2.3-3.9-3.5c-0.3-0.3-0.3-1-0.4-1.5
			c0.5,0.2,1.1,0.2,1.5,0.5c1.4,1.3,2.7,2.7,4.1,3.9C-233.4,408.6-232.8,408.7-231.9,409.1z"/>
		<path id="XMLID_900_" d="M-265.8,407.5c-1.4,1.7-2.5,3-3.6,4.3c-0.6,0.8-1.2,1.7-1.8,2.5c-0.2,0.2-0.8,0.2-1.1,0.1
			c-0.2-0.1-0.3-0.8-0.1-0.9c1.7-1.9,3.5-3.7,5.3-5.5C-266.9,407.8-266.6,407.8-265.8,407.5z"/>
		<path id="XMLID_899_" d="M-279,403c3.1-0.9,5.9-1.8,8.6-2.6c0,0.1,0.1,0.3,0.1,0.4C-271.6,402.3-277.4,404-279,403z"/>
		<path id="XMLID_898_" d="M-244.9,383.6c-0.1-3.7,0-7.3,1.7-10.6c0.2,0,0.4,0.1,0.5,0.1C-243.4,376.6-244.1,380.1-244.9,383.6z"/>
		<path id="XMLID_897_" d="M-257.5,414.6c-0.6,2.4-1.2,4.8-1.8,7.4c-0.3-0.3-0.8-0.6-0.8-0.9C-260.1,418.6-259.7,416.2-257.5,414.6z
			"/>
		<path id="XMLID_896_" d="M-252.5,382c-1.2-2.2-0.9-7.8,0.8-10.6C-252,375.1-252.3,378.7-252.5,382z"/>
		<path id="XMLID_895_" d="M-260.5,383.2c-1.7-1.4-3.4-2.8-5.1-4.3c-0.4-0.3-0.6-0.8-0.8-1.2c-0.1-0.2,0.1-0.5,0.3-0.7
			c0.1-0.1,0.5-0.1,0.6,0.1c1.8,1.9,3.6,3.9,5.3,5.8C-260.3,383-260.4,383.1-260.5,383.2z"/>
		<path id="XMLID_894_" d="M-277.9,390.8c0.9-1,6.1,0.5,9,2.4C-271.9,392.4-274.9,391.6-277.9,390.8z"/>
		<path id="XMLID_893_" d="M-265.6,416.7c1-2,1.8-3.6,2.6-5.2C-262.4,413-264,416.2-265.6,416.7z"/>
		<path id="XMLID_892_" d="M-244.1,407.5c1.2,1.3,2.4,2.6,3.6,3.9C-242.1,411.9-244.5,409.3-244.1,407.5z"/>
		<path id="XMLID_891_" d="M-239,390.2c2.1-0.6,3.9-1.1,5.9-1.7C-235.2,390.2-238,391.1-239,390.2z"/>
		<path id="XMLID_890_" d="M-259.5,376.5c0.9,1.5,1.7,2.7,2.4,3.8C-258.9,380.3-259.7,379.3-259.5,376.5z"/>
		<path id="XMLID_889_" d="M-269.3,383.4c1.5,0.7,2.9,1.4,4.4,2.1C-266.8,385.9-268.2,385.3-269.3,383.4z"/>
		<path id="XMLID_888_" d="M-253.1,417c0.4,1.4,0.9,2.7,1.3,4.1c-0.2,0.1-0.5,0.1-0.7,0.2c-0.4-1.4-0.8-2.8-1.2-4.2
			C-253.4,417.1-253.2,417.1-253.1,417z"/>
		<path id="XMLID_887_" d="M-272.2,404.9c-1,1.1-2,2.2-3,3.3c-0.1-0.1-0.2-0.2-0.3-0.3c1-1.1,2-2.2,3-3.3
			C-272.4,404.7-272.3,404.8-272.2,404.9z"/>
		<path id="XMLID_249_" class="st0" d="M-247.4,389.7c3.4,3.1,4.2,7.4,2.7,11.3c-0.8,2.1-1.9,4-3.7,5.2c-1.6,1-3.5,2-5.7,1.6
			c-3.6-0.7-6.9-1.8-9-5.1c-1.7-2.5-1.9-6.4-0.1-9.1c1.2-1.7,2.6-3.4,4-4.9c1.5-1.6,6.8-2.1,8.7-1
			C-249.3,388.5-248.1,389.3-247.4,389.7z M-253.6,401.6c0.5,1.3,1.5,0.8,2.3,0.5c1.7-0.5,1.8-1.9,1.6-3.3c-0.1-1.1-0.4-2.2-2-2.6
			C-250.2,398.6-249.9,400.5-253.6,401.6z M-256.2,395.1c2.1-0.5,0.9-2.3,1.5-3.3c0.7-0.1,1.4-0.3,2.1-0.4c0-1.6-0.8-1.7-3.4-0.5
			c0,0.6,0.1,1.3,0,1.9C-256.1,393.5-256.2,394.2-256.2,395.1z M-258,397.7c0-0.2,0.1-0.4,0.1-0.6c-0.6-0.1-1.3-0.4-1.9-0.3
			c-1.1,0.3-2.1,0.8-1.9,2.4c0.2,1.2,0.3,1.5,1.5,1.8C-260.7,398.7-260.5,398.4-258,397.7z"/>
		<path id="XMLID_248_" d="M-253.6,401.6c3.7-1.1,3.4-2.9,2-5.4c1.6,0.4,1.9,1.5,2,2.6c0.2,1.4,0,2.8-1.6,3.3
			C-252.1,402.3-253.1,402.9-253.6,401.6z"/>
		<path id="XMLID_247_" d="M-256.2,395.1c0.1-0.9,0.1-1.6,0.2-2.2c0-0.7,0-1.3,0-1.9c2.6-1.2,3.4-1.1,3.4,0.5
			c-0.7,0.1-1.4,0.3-2.1,0.4C-255.3,392.8-254.1,394.6-256.2,395.1z"/>
		<path id="XMLID_246_" d="M-258,397.7c-2.6,0.8-2.8,1-2.2,3.3c-1.2-0.3-1.3-0.5-1.5-1.8c-0.2-1.6,0.8-2,1.9-2.4
			c0.5-0.2,1.2,0.2,1.9,0.3C-257.9,397.3-257.9,397.5-258,397.7z"/>
	</g>
</g>
</svg>
