<?xml version="1.0" encoding="utf-8"?>
<!-- Generator: Adobe Illustrator 19.1.0, SVG Export Plug-In . SVG Version: 6.00 Build 0)  -->
<svg version="1.1" id="XMLID_2_" xmlns="http://www.w3.org/2000/svg" xmlns:xlink="http://www.w3.org/1999/xlink" x="0px" y="0px"
	 viewBox="0 0 52.1307 50.523" enable-background="new 0 0 52.1307 50.523" xml:space="preserve">
<g id="sun">
	<g>
		<path d="M16.4088,18.7552c1.2477-2.2536,3.31-3.9274,6.2952-4.452c4.0977-0.7202,7.5103,0.6223,10.4532,3.3262
			c5.003,4.5965,3.8853,10.5169,1.4261,15.1458c-0.9704,1.8265-2.8475,3.2017-4.8269,4.0971
			c-4.9059,2.2192-11.0173,0.2655-14.5629-3.8391C11.5816,28.8518,12.3071,23.2592,16.4088,18.7552z M31.6402,18.2368
			c-0.7493-0.4574-1.9062-1.1837-3.0824-1.8772c-1.9466-1.1477-7.1777-0.6646-8.6985,0.9509
			c-1.4415,1.5314-2.8136,3.1604-3.9945,4.8973c-1.8235,2.6819-1.6496,6.5345,0.054,9.0795
			c2.1665,3.2365,5.4287,4.3999,9.0195,5.0638c2.1686,0.4009,4.0304-0.5732,5.6552-1.619c1.8111-1.1657,2.9396-3.0311,3.746-5.1785
			C35.8179,25.617,35.077,21.3429,31.6402,18.2368z"/>
		<path d="M45.7892,9.0716c0.2344,1.7608-4.3671,6.4474-6.864,6.924c0.2518-0.5917,0.3224-1.1482,0.638-1.4359
			C41.562,12.7378,43.615,10.9754,45.7892,9.0716z"/>
		<path d="M35.0753,48.9117c-2.9238-2.1048-4.3235-5.0339-5.906-8.3805c0.7485,0.1315,1.4255,0.0559,1.5869,0.3091
			c1.5608,2.4487,3.0354,4.9524,4.5294,7.4435C35.3038,48.3141,35.2548,48.3848,35.0753,48.9117z"/>
		<path d="M52.1307,25.3436c-1.1174,0.0838-2.2798,0.4028-3.3422,0.1995c-1.86-0.3559-3.6706-0.9973-5.472-1.6071
			c-0.3217-0.1089-0.4994-0.6434-0.7436-0.9814c0.4196-0.101,0.8938-0.3816,1.2496-0.2732c1.9565,0.596,3.8632,1.3627,5.8322,1.907
			c0.7505,0.2075,1.6213-0.0205,2.4373-0.05C52.1049,24.8068,52.1178,25.0752,52.1307,25.3436z"/>
		<path d="M47.0693,37.6097c-1.3462,0.8127-2.3982,0.2535-3.2566-0.4004c-1.391-1.0596-2.6813-2.2645-3.9186-3.5035
			c-0.314-0.3144-0.2676-0.9887-0.3868-1.4977c0.5115,0.174,1.1436,0.2138,1.5132,0.5457c1.4076,1.2643,2.6976,2.6595,4.1044,3.9247
			C45.5704,37.0792,46.2433,37.227,47.0693,37.6097z"/>
		<path d="M13.1676,36.0587c-1.4069,1.7024-2.5074,2.9945-3.5611,4.3237c-0.6404,0.8078-1.1649,1.7109-1.8388,2.4866
			c-0.1763,0.203-0.7707,0.2103-1.0673,0.0753c-0.1646-0.0749-0.2781-0.7847-0.13-0.9445c1.7315-1.868,3.5083-3.6947,5.3017-5.504
			C12.0599,36.3063,12.43,36.2976,13.1676,36.0587z"/>
		<path d="M0,31.4909c3.1094-0.9498,5.8551-1.7885,8.6008-2.6271c0.0451,0.1474,0.0903,0.2949,0.1354,0.4423
			C7.3721,30.7805,1.5711,32.561,0,31.4909z"/>
		<path d="M34.102,12.1126c-0.0925-3.6677-0.0146-7.2982,1.7466-10.5609c0.178,0.0389,0.356,0.0778,0.534,0.1167
			C35.6224,5.1497,34.8622,8.6312,34.102,12.1126z"/>
		<path d="M21.5457,43.1237c-0.5769,2.3859-1.1538,4.7717-1.7892,7.3993c-0.2749-0.325-0.7502-0.6253-0.758-0.9374
			C18.9365,47.1035,19.258,44.7291,21.5457,43.1237z"/>
		<path d="M26.454,10.5567C25.2221,8.3525,25.5923,2.7305,27.304,0C27.0119,3.6277,26.7266,7.1714,26.454,10.5567z"/>
		<path d="M18.5418,11.7401c-1.7142-1.4277-3.4439-2.8375-5.13-4.2977c-0.3556-0.3079-0.6026-0.7783-0.7942-1.2196
			c-0.0733-0.1688,0.0948-0.5196,0.2575-0.6837c0.092-0.0927,0.4838-0.0557,0.5924,0.0609c1.7958,1.9272,3.568,3.8763,5.3455,5.8205
			C18.7226,11.527,18.6322,11.6335,18.5418,11.7401z"/>
		<path d="M1.073,19.2934c0.8557-1.0128,6.1453,0.4908,9.0015,2.3721C7.074,20.8749,4.0735,20.0842,1.073,19.2934z"/>
		<path d="M13.3691,45.2192c0.9711-1.9786,1.7658-3.5978,2.5604-5.2169C16.5901,41.5245,15.0103,44.7414,13.3691,45.2192z"/>
		<path d="M34.9297,36.0033c1.2127,1.33,2.3979,2.6299,3.5742,3.92C36.8895,40.4054,34.5494,37.7928,34.9297,36.0033z"/>
		<path d="M39.9894,18.6835c2.0531-0.6011,3.9042-1.143,5.8989-1.727C43.8051,18.7556,41.0413,19.6263,39.9894,18.6835z"/>
		<path d="M19.5488,5.0339c0.9141,1.4732,1.6554,2.6677,2.3748,3.8271C20.103,8.8445,19.3266,7.7887,19.5488,5.0339z"/>
		<path d="M9.7368,11.9545c1.4555,0.7069,2.9109,1.4139,4.3937,2.1341C12.2035,14.4289,10.7537,13.8298,9.7368,11.9545z"/>
		<path d="M25.9473,45.5194c0.4473,1.3716,0.8946,2.7432,1.3418,4.1148c-0.227,0.0698-0.4539,0.1395-0.6809,0.2093
			c-0.3936-1.3884-0.7873-2.7769-1.1809-4.1653C25.6007,45.6253,25.774,45.5723,25.9473,45.5194z"/>
		<path d="M6.8211,33.4005c-1.0054,1.1094-2.0108,2.2189-3.0162,3.3283c-0.0971-0.0903-0.1943-0.1805-0.2914-0.2708
			c1.0057-1.1098,2.0113-2.2195,3.017-3.3293C6.6274,33.2193,6.7243,33.3099,6.8211,33.4005z"/>
		<path fill="#FFFFFF" d="M31.6402,18.2368c3.4368,3.1061,4.1777,7.3802,2.6993,11.3169c-0.8064,2.1474-1.9349,4.0128-3.746,5.1785
			c-1.6248,1.0458-3.4866,2.0199-5.6552,1.619c-3.5908-0.6639-6.853-1.8273-9.0195-5.0638
			c-1.7036-2.5451-1.8775-6.3976-0.054-9.0795c1.1809-1.7368,2.553-3.3659,3.9945-4.8973c1.5208-1.6156,6.7519-2.0986,8.6985-0.9509
			C29.734,17.0531,30.8909,17.7793,31.6402,18.2368z M25.4055,30.0803c0.5439,1.2919,1.5134,0.7812,2.3324,0.5324
			c1.6787-0.5098,1.8041-1.884,1.6341-3.312c-0.1323-1.1114-0.4432-2.167-1.9943-2.5743
			C28.7877,27.1512,29.1234,28.9682,25.4055,30.0803z M22.7585,23.6018c2.1204-0.5089,0.9125-2.2856,1.4737-3.2948
			c0.688-0.1429,1.3826-0.2871,2.0739-0.4307c-0.0334-1.5817-0.8078-1.6879-3.4125-0.4571c0.0137,0.6315,0.0549,1.2847,0.0346,1.936
			C22.9065,22.0475,22.8266,22.7379,22.7585,23.6018z M21.0277,26.1712c0.0348-0.2007,0.0697-0.4015,0.1045-0.6022
			c-0.624-0.099-1.3158-0.4178-1.8579-0.2508c-1.0868,0.3347-2.1427,0.8326-1.921,2.3847c0.1756,1.2294,0.2794,1.4706,1.4964,1.7724
			C18.2672,27.2052,18.4529,26.9234,21.0277,26.1712z"/>
		<path d="M25.4055,30.0803c3.7179-1.1122,3.3822-2.9292,1.9722-5.3539c1.5511,0.4072,1.862,1.4629,1.9943,2.5743
			c0.17,1.4281,0.0446,2.8022-1.6341,3.312C26.9189,30.8615,25.9494,31.3722,25.4055,30.0803z"/>
		<path d="M22.7585,23.6018c0.0681-0.8639,0.148-1.5543,0.1696-2.2465c0.0203-0.6513-0.0209-1.3045-0.0346-1.936
			c2.6047-1.2308,3.3792-1.1246,3.4125,0.4571c-0.6913,0.1436-1.3859,0.2878-2.0739,0.4307
			C23.6709,21.3161,24.8789,23.0929,22.7585,23.6018z"/>
		<path d="M21.0277,26.1712c-2.5748,0.7522-2.7605,1.034-2.178,3.3041c-1.217-0.3018-1.3208-0.543-1.4964-1.7724
			c-0.2216-1.5521,0.8342-2.05,1.921-2.3847c0.5421-0.167,1.2338,0.1518,1.8579,0.2508
			C21.0974,25.7697,21.0625,25.9705,21.0277,26.1712z"/>
	</g>
</g>
</svg>
