<?xml version="1.0" encoding="utf-8"?>
<!-- Generator: Adobe Illustrator 19.1.0, SVG Export Plug-In . SVG Version: 6.00 Build 0)  -->
<svg version="1.1" id="XMLID_2_" xmlns="http://www.w3.org/2000/svg" xmlns:xlink="http://www.w3.org/1999/xlink" x="0px" y="0px"
	 viewBox="0 0 27.2339 29.5786" enable-background="new 0 0 27.2339 29.5786" xml:space="preserve">
<g id="thistle">
	<g>
		<path fill="#FFFFFF" d="M0,29.5786C0,19.7191,0,9.8595,0,0c9.078,0,18.156,0,27.2339,0c0,9.8595,0,19.7191,0,29.5786
			C18.156,29.5786,9.078,29.5786,0,29.5786z M14.9461,28.7701c0.7839-1.2517-0.9875-2.5528,0.3822-3.6275
			c-0.379-0.7852-0.8268-1.5366-1.0912-2.3478c-0.1058-0.3247,0.1086-1.0688,0.3207-1.1307
			c1.351-0.3943,2.4855-1.5266,4.0415-1.2351c0.1028,0.0192,0.2845-0.0333,0.3299-0.1109c0.5738-0.979,1.5525-0.8274,2.4381-0.8487
			c0.6811-0.0163,1.1761-0.1166,0.9976-0.9623c1.4704,0.1253,1.5895,0.0028,1.3387-1.1054
			c0.5851-0.5612,1.1243-1.0498,1.6141-1.5838c0.0626-0.0682-0.0848-0.4194-0.2187-0.5594c-0.3263-0.341-0.7019-0.6349-1.167-1.044
			c-0.0457,0.0059-0.3445,0.0443-0.7504,0.0964c-0.1608,0.153-0.4085,0.4536-0.7185,0.6615
			c-0.2162,0.145-0.5593,0.1023-0.7726,0.2495c-0.5057,0.349-0.9679,0.7611-1.4477,1.1478
			c0.0533,0.0556,0.1065,0.1113,0.1598,0.1669c-0.0162-0.3336-0.0323-0.6671-0.0485-1.0007c-0.066-0.0109-0.132-0.0219-0.198-0.0328
			c-0.3268,0.5645-0.6536,1.1291-0.9804,1.6936c-0.0464-0.0274-0.0929-0.0549-0.1393-0.0823
			c0.0362-0.5044,0.0725-1.0089,0.1087-1.5133c-1.3979,1.7629-2.6184,3.5265-4.9319,4.2775c0-0.5694-0.0817-1.0782,0.014-1.5511
			c0.43-2.1239,0.9086-4.238,1.3773-6.354c0.0286-0.1293,0.0944-0.3152,0.1914-0.3542c0.8701-0.3501,1.7547-0.6645,2.6227-1.0193
			c0.0778-0.0318,0.0696-0.2741,0.1378-0.5844c-0.8391,0.3638-1.5258,0.6615-2.2124,0.9592
			c-0.0273-0.0486-0.0545-0.0971-0.0818-0.1457c0.8734-0.4871,1.7467-0.9742,2.6201-1.4613
			c-0.0049-0.0628-0.0097-0.1257-0.0146-0.1885c-0.3953,0.0505-0.7905,0.101-1.1858,0.1516
			c-0.0352-0.0627-0.0703-0.1254-0.1055-0.188c0.6398-0.4037,1.2797-0.8073,1.9195-1.211
			c-0.0193-0.0474-0.0385-0.0947-0.0578-0.1421c-0.2637,0.0194-0.5275,0.0388-1.0608,0.0781
			c0.4762-0.274,0.7561-0.4351,1.1698-0.6731c-0.3995-0.1488-0.5313-0.1979-0.7203-0.2683
			c0.8246-0.6553,1.5686-1.2466,2.3126-1.8378c-0.0438-0.0563-0.0876-0.1125-0.1314-0.1688c-0.63,0.3765-1.26,0.753-1.89,1.1295
			c-0.0741-0.1067-0.1481-0.2135-0.2222-0.3202c0.7236-0.5778,1.4472-1.1555,2.1708-1.7333
			c-0.0317-0.0614-0.0635-0.1229-0.0952-0.1843c-0.3994,0.1566-0.7987,0.3133-1.2619,0.4949
			c0.1797-0.3519,0.3365-0.6587,0.4932-0.9656c-0.0361-0.0202-0.0722-0.0404-0.1083-0.0606
			c-0.763,0.7281-1.5259,1.4562-2.2889,2.1842c-0.0446-0.042-0.0892-0.0839-0.1338-0.1259
			c0.4983-0.9429,0.9966-1.8858,1.4949-2.8288c-0.0633-0.0318-0.1266-0.0637-0.1899-0.0955
			c-0.5788,0.8446-1.1577,1.6891-1.7365,2.5337c-0.058-0.0245-0.1161-0.0489-0.1741-0.0734
			c0.2365-0.7739,0.473-1.5478,0.7095-2.3217c-0.3445,0.2935-0.575,0.648-0.6815,1.0365c-0.194,0.7075-0.6216,1.57-0.3813,2.1175
			c0.2538,0.5784,0.0665,0.6667-0.281,1.0007c-0.0491-0.8207-0.1336-1.5587-0.1261-2.2958c0.0074-0.7246,0.108-1.4483,0.1678-2.1724
			c-0.0618-0.0029-0.1237-0.0058-0.1855-0.0087c-0.1082,0.3639-0.2165,0.7278-0.3247,1.0918
			c-0.074-0.0469-0.148-0.0937-0.222-0.1406c-0.0754,0.1251-0.195,0.2421-0.2192,0.3764c-0.1959,1.0873-0.3739,2.1779-0.5585,3.2747
			c-0.4869-0.1275-0.8408-0.2202-1.3303-0.3484c0.143,0.6811,0.2615,1.2453,0.3931,1.8726c-0.3051,0-0.5673,0-0.8726,0
			c0.3724,0.4167,0.6971,0.7799,1.0217,1.1432c-0.3558,0.1026-0.5308,0.0047-0.7002,0.0137
			c-0.2251,0.012-0.4458,0.1074-0.6684,0.1669c0.097,0.1597,0.1582,0.3686,0.2976,0.4703c0.482,0.3517,0.9912,0.666,1.6445,1.0962
			c-0.4604,2.9372-0.9444,6.0255-1.4679,9.3656c-0.8666-1.3794-1.5911-2.5194-2.297-3.6708
			c-0.1025-0.1672-0.1869-0.3997-0.1585-0.5832c0.0903-0.5816,0.238-1.1543,0.377-1.7927c-0.3127,0.056-0.4625,0.0829-0.6122,0.1097
			c0.0053-0.1344-0.028-0.2861,0.0229-0.4001c0.1828-0.4089,0.394-0.8051,0.5945-1.206c-0.0684-0.0439-0.1368-0.0878-0.2051-0.1317
			c-0.3521,0.3984-0.7041,0.7968-1.1694,1.3233c-0.38-1.0322,0.4386-1.605,0.6159-2.3211
			c-0.0757-0.0399-0.1514-0.0798-0.2271-0.1197C9.8761,12.3803,9.53,12.94,9.184,13.4996
			c-0.0636-0.0199-0.1272-0.0398-0.1908-0.0597c0.2925-0.9166,0.5851-1.8331,0.8776-2.7497
			c-0.0525-0.0195-0.1051-0.0391-0.1576-0.0586c-0.2858,0.4649-0.5717,0.9297-0.8575,1.3946
			c-0.0433-0.0268-0.0866-0.0536-0.1298-0.0804c0.0825-0.4388,0.165-0.8776,0.2475-1.3164
			C8.9332,10.62,8.8931,10.6104,8.853,10.6008c-0.3305,1.0338-0.661,2.0676-0.9915,3.1014c-0.0933-0.025-0.1867-0.05-0.28-0.075
			c0.235-1.1671,0.47-2.3342,0.7128-3.5399c-1.0029,1.0054-0.8541,2.4806-1.5325,3.6619c-0.248-0.53-0.4324-1.058-0.4299-1.585
			c0.0026-0.5522,0.1847-1.1035,0.2883-1.6552c-0.083-0.0239-0.1661-0.0478-0.2491-0.0716
			c-0.2012,0.628-0.4024,1.2559-0.6036,1.8839c-0.096-0.0227-0.1919-0.0454-0.2879-0.0682
			c0.0679-0.4004,0.1357-0.8009,0.2018-1.1909c-0.6864,0.3889-0.7532,0.8786-0.257,1.6362c0.2672,0.408,0.4929,0.8432,0.7373,1.2661
			c-0.0688,0.0466-0.1376,0.0932-0.2064,0.1398c-0.4252-0.2683-0.8571-0.5271-1.271-0.8118c-0.1-0.0688-0.1496-0.2193-0.207-0.3396
			c-0.0704-0.1476-0.1248-0.3028-0.1861-0.4547c-0.168,0.1326-0.4111,0.2351-0.4801,0.4073
			c-0.0548,0.1368,0.1035,0.359,0.1238,0.4177c-0.3665-0.0835-0.7318-0.1666-1.0971-0.2498
			c-0.0238,0.087-0.0475,0.1739-0.0713,0.2609c0.512,0.3159,1.0239,0.6317,1.5621,0.9637c-1.3849,1.1685-1.3992,1.5206-0.1773,2.453
			c0.6676-1.2768,1.4256-1.6857,2.0252-1.1611C5.8635,15.942,5.523,16.2722,5.256,16.6538c-0.0954,0.1363-0.0132,0.397-0.012,0.6009
			c0.1988-0.0748,0.4292-0.1091,0.5886-0.2342c0.2144-0.1682,0.3738-0.4063,0.6963-0.7728
			c0.0914,0.6875,0.1511,1.1369,0.2119,1.5943c0.4172-0.135,0.7763-0.2512,1.3247-0.4286c0.0808-0.5417,0.4133-0.4787,0.8043-0.07
			c-0.2333,0.3606-0.4109,0.635-0.5885,0.9095c0.0762,0.0515,0.1524,0.1031,0.2286,0.1546
			c0.2301-0.2538,0.4603-0.5077,0.8195-0.9039c0.1717,0.3157,0.3013,0.554,0.4449,0.8182c0.3225-0.3414,0.5409-0.5727,0.7665-0.8115
			c1.4207,2.0325,3.0812,3.922,2.9142,6.6588c-0.1179-0.0514-0.2257-0.0899-0.3255-0.1433
			c-0.9242-0.4951-1.7734-1.1497-2.9672-0.7211c-0.558,0.2003-1.2213,0.1447-1.8361,0.1378
			c-0.4993-0.0056-0.996-0.1384-1.4966-0.1674c-1.1833-0.0685-2.433,0.3773-3.5182-0.4778
			c-0.0458-0.0361-0.2671,0.1508-0.5217,0.3022c0.7372,0.5355,1.3852,1.0062,2.0333,1.477
			c-0.0164,0.0585-0.0327,0.1169-0.0491,0.1754c-0.8471-0.1922-1.6941-0.3843-2.5412-0.5765
			c-0.1056,0.1544-0.2112,0.3089-0.3168,0.4633c0.3948,0.1212,0.7895,0.2425,1.1843,0.3637
			c-0.0903,0.1013-0.1806,0.2025-0.2709,0.3038c-0.428-0.0604-0.8559-0.1208-1.2851-0.1814
			c-0.0603,0.6691,0.8831,0.9807,2.7691,0.88c0.0221,0.4826,0.0439,0.9605,0.0732,1.601c1.1731-0.285,2.3714-0.5762,3.5697-0.8673
			c0.329,0.2222,0.6929,0.3457,0.9787,0.2457c0.8317-0.291,1.6183-0.7123,2.4527-0.9929c0.266-0.0895,0.6263,0.1016,1.1712,0.2092
			c-0.0735,0.0392,0.0827-0.0464,0.241-0.1281c0.975-0.5033,1.3356-0.309,1.46,0.7772c0.051,0.4449,0.0746,0.9,0.1946,1.3268
			C14.5155,28.3935,14.7627,28.5581,14.9461,28.7701z"/>
		<path d="M14.9461,28.7701c-0.1835-0.2119-0.4307-0.3766-0.4917-0.5936c-0.12-0.4268-0.1437-0.882-0.1946-1.3268
			c-0.1244-1.0862-0.4849-1.2805-1.46-0.7772c-0.1582,0.0817-0.3145,0.1673-0.241,0.1281
			c-0.5449-0.1077-0.9052-0.2987-1.1712-0.2092c-0.8344,0.2806-1.621,0.7019-2.4527,0.9929c-0.2857,0.1-0.6496-0.0235-0.9787-0.2457
			c-1.1983,0.2911-2.3966,0.5823-3.5697,0.8673c-0.0293-0.6405-0.0511-1.1183-0.0732-1.601
			c-1.8859,0.1007-2.8294-0.2109-2.7691-0.88c0.4292,0.0606,0.8571,0.121,1.2851,0.1814c0.0903-0.1013,0.1806-0.2025,0.2709-0.3038
			c-0.3948-0.1212-0.7895-0.2425-1.1843-0.3637c0.1056-0.1544,0.2112-0.3089,0.3168-0.4633
			c0.8471,0.1922,1.6941,0.3843,2.5412,0.5765c0.0164-0.0585,0.0327-0.1169,0.0491-0.1754
			c-0.6481-0.4708-1.2961-0.9415-2.0333-1.477c0.2546-0.1514,0.476-0.3383,0.5217-0.3022c1.0852,0.8551,2.3349,0.4094,3.5182,0.4778
			c0.5006,0.029,0.9972,0.1618,1.4966,0.1674c0.6148,0.0069,1.2781,0.0625,1.8361-0.1378c1.1937-0.4286,2.043,0.226,2.9672,0.7211
			c0.0998,0.0534,0.2076,0.0919,0.3255,0.1433c0.167-2.7369-1.4936-4.6263-2.9142-6.6588c-0.2256,0.2388-0.444,0.4701-0.7665,0.8115
			c-0.1437-0.2642-0.2733-0.5025-0.4449-0.8182c-0.3593,0.3963-0.5894,0.6501-0.8195,0.9039
			c-0.0762-0.0515-0.1524-0.1031-0.2286-0.1546c0.1776-0.2745,0.3552-0.549,0.5885-0.9095c-0.391-0.4087-0.7235-0.4717-0.8043,0.07
			C7.517,17.5909,7.158,17.707,6.7407,17.842c-0.0608-0.4574-0.1205-0.9068-0.2119-1.5943
			c-0.3224,0.3665-0.4819,0.6047-0.6963,0.7728c-0.1593,0.125-0.3898,0.1594-0.5886,0.2342
			c-0.0012-0.2039-0.0834-0.4646,0.012-0.6009C5.523,16.2722,5.8635,15.942,6.1763,15.59
			c-0.5996-0.5246-1.3575-0.1156-2.0252,1.1611c-1.2219-0.9324-1.2076-1.2845,0.1773-2.453
			c-0.5382-0.332-1.0501-0.6479-1.5621-0.9637c0.0238-0.087,0.0475-0.1739,0.0713-0.2609c0.3653,0.0832,0.7306,0.1664,1.0971,0.2498
			c-0.0203-0.0587-0.1786-0.2808-0.1238-0.4177c0.069-0.1722,0.3121-0.2747,0.4801-0.4073
			c0.0613,0.1519,0.1156,0.3072,0.1861,0.4547c0.0574,0.1203,0.107,0.2708,0.207,0.3396c0.414,0.2847,0.8458,0.5435,1.271,0.8118
			c0.0688-0.0466,0.1376-0.0932,0.2064-0.1398c-0.2444-0.4229-0.4701-0.8581-0.7373-1.2661
			c-0.4962-0.7576-0.4294-1.2473,0.257-1.6362c-0.0661,0.39-0.1339,0.7904-0.2018,1.1909c0.096,0.0227,0.1919,0.0454,0.2879,0.0682
			c0.2012-0.628,0.4024-1.2559,0.6036-1.8839c0.083,0.0239,0.1661,0.0478,0.2491,0.0716c-0.1036,0.5517-0.2857,1.103-0.2883,1.6552
			c-0.0025,0.5271,0.182,1.055,0.4299,1.585c0.6785-1.1813,0.5296-2.6565,1.5325-3.6619c-0.2428,1.2057-0.4778,2.3728-0.7128,3.5399
			c0.0933,0.025,0.1867,0.05,0.28,0.075c0.3305-1.0338,0.661-2.0676,0.9915-3.1014c0.0401,0.0096,0.0803,0.0191,0.1204,0.0287
			c-0.0825,0.4388-0.165,0.8776-0.2475,1.3164c0.0433,0.0268,0.0866,0.0536,0.1298,0.0804
			c0.2858-0.4649,0.5717-0.9297,0.8575-1.3946c0.0525,0.0195,0.1051,0.0391,0.1576,0.0586
			c-0.2925,0.9166-0.5851,1.8331-0.8776,2.7497c0.0636,0.0199,0.1272,0.0398,0.1908,0.0597
			c0.3461-0.5597,0.6921-1.1193,1.0382-1.679c0.0757,0.0399,0.1514,0.0798,0.2271,0.1197c-0.1773,0.7161-0.9959,1.289-0.6159,2.3211
			c0.4653-0.5265,0.8173-0.9249,1.1694-1.3233c0.0684,0.0439,0.1368,0.0878,0.2051,0.1317c-0.2005,0.401-0.4118,0.7971-0.5945,1.206
			c-0.0509,0.114-0.0176,0.2657-0.0229,0.4001c0.1497-0.0268,0.2994-0.0537,0.6122-0.1097
			c-0.1391,0.6384-0.2868,1.2111-0.377,1.7927c-0.0285,0.1835,0.0559,0.416,0.1585,0.5832c0.706,1.1514,1.4304,2.2914,2.297,3.6708
			c0.5235-3.3401,1.0075-6.4283,1.4679-9.3656c-0.6533-0.4303-1.1625-0.7446-1.6445-1.0962
			c-0.1394-0.1017-0.2005-0.3106-0.2976-0.4703c0.2226-0.0595,0.4433-0.1549,0.6684-0.1669
			c0.1694-0.009,0.3444,0.0889,0.7002-0.0137c-0.3247-0.3633-0.6493-0.7265-1.0217-1.1432c0.3053,0,0.5675,0,0.8726,0
			c-0.1317-0.6273-0.2501-1.1914-0.3931-1.8726c0.4895,0.1282,0.8434,0.2209,1.3303,0.3484
			c0.1847-1.0969,0.3626-2.1874,0.5585-3.2747c0.0242-0.1343,0.1438-0.2514,0.2192-0.3764c0.074,0.0469,0.148,0.0937,0.222,0.1406
			c0.1082-0.3639,0.2165-0.7278,0.3247-1.0918c0.0618,0.0029,0.1237,0.0058,0.1855,0.0087
			c-0.0597,0.7241-0.1604,1.4478-0.1678,2.1724c-0.0075,0.7371,0.0769,1.4751,0.1261,2.2958
			c0.3475-0.3339,0.5348-0.4223,0.281-1.0007c-0.2402-0.5476,0.1874-1.41,0.3813-2.1175c0.1065-0.3885,0.337-0.7431,0.6815-1.0365
			c-0.2365,0.7739-0.473,1.5478-0.7095,2.3217c0.058,0.0245,0.1161,0.0489,0.1741,0.0734c0.5788-0.8446,1.1577-1.6891,1.7365-2.5337
			c0.0633,0.0318,0.1266,0.0637,0.1899,0.0955c-0.4983,0.9429-0.9966,1.8858-1.4949,2.8288
			c0.0446,0.042,0.0892,0.0839,0.1338,0.1259c0.763-0.7281,1.5259-1.4562,2.2889-2.1842c0.0361,0.0202,0.0722,0.0404,0.1083,0.0606
			c-0.1567,0.3069-0.3135,0.6138-0.4932,0.9656c0.4631-0.1816,0.8625-0.3383,1.2619-0.4949
			c0.0317,0.0614,0.0635,0.1229,0.0952,0.1843c-0.7236,0.5778-1.4472,1.1555-2.1708,1.7333
			c0.0741,0.1067,0.1481,0.2135,0.2222,0.3202c0.63-0.3765,1.26-0.753,1.89-1.1295c0.0438,0.0563,0.0876,0.1125,0.1314,0.1688
			c-0.744,0.5913-1.488,1.1825-2.3126,1.8378c0.189,0.0704,0.3209,0.1195,0.7203,0.2683c-0.4136,0.238-0.6935,0.3991-1.1698,0.6731
			c0.5333-0.0393,0.797-0.0587,1.0608-0.0781c0.0193,0.0474,0.0385,0.0947,0.0578,0.1421c-0.6398,0.4037-1.2797,0.8073-1.9195,1.211
			c0.0352,0.0627,0.0703,0.1254,0.1055,0.188c0.3953-0.0505,0.7905-0.101,1.1858-0.1516c0.0049,0.0628,0.0097,0.1257,0.0146,0.1885
			c-0.8734,0.4871-1.7467,0.9742-2.6201,1.4613c0.0273,0.0486,0.0545,0.0971,0.0818,0.1457
			c0.6866-0.2977,1.3733-0.5954,2.2124-0.9592c-0.0682,0.3103-0.06,0.5526-0.1378,0.5844
			c-0.8681,0.3548-1.7526,0.6691-2.6227,1.0193c-0.097,0.039-0.1628,0.225-0.1914,0.3542c-0.4687,2.116-0.9473,4.2301-1.3773,6.354
			c-0.0957,0.4729-0.014,0.9816-0.014,1.5511c2.3134-0.7509,3.534-2.5146,4.9319-4.2775c-0.0362,0.5044-0.0725,1.0089-0.1087,1.5133
			c0.0464,0.0274,0.0929,0.0549,0.1393,0.0823c0.3268-0.5645,0.6536-1.1291,0.9804-1.6936c0.066,0.0109,0.132,0.0219,0.198,0.0328
			c0.0162,0.3336,0.0323,0.6671,0.0485,1.0007c-0.0533-0.0556-0.1065-0.1113-0.1598-0.1669
			c0.4798-0.3866,0.942-0.7987,1.4477-1.1478c0.2132-0.1472,0.5564-0.1045,0.7726-0.2495c0.3099-0.2078,0.5577-0.5085,0.7185-0.6615
			c0.406-0.0522,0.7047-0.0906,0.7504-0.0964c0.4651,0.4091,0.8407,0.703,1.167,1.044c0.1339,0.1399,0.2813,0.4911,0.2187,0.5594
			c-0.4897,0.534-1.029,1.0226-1.6141,1.5838c0.2508,1.1083,0.1317,1.2307-1.3387,1.1054c0.1785,0.8457-0.3165,0.946-0.9976,0.9623
			c-0.8856,0.0213-1.8643-0.1303-2.4381,0.8487c-0.0454,0.0775-0.2272,0.1301-0.3299,0.1109
			c-1.5559-0.2914-2.6905,0.8408-4.0415,1.2351c-0.2121,0.0619-0.4265,0.806-0.3207,1.1307
			c0.2644,0.8112,0.7123,1.5626,1.0912,2.3478C13.9587,26.2173,15.73,27.5184,14.9461,28.7701z M8.0117,25.3627
			c-0.2292,0.3429-0.4251,0.6361-0.5577,0.8345c1.953-0.3919,3.9578-0.7941,5.9632-1.1965
			c-0.5281-0.6254-1.0592-0.9366-1.719-0.2282c-0.0823,0.0884-0.3186,0.0559-0.4807,0.043
			c-0.4422-0.0351-0.8853-0.1453-1.3237-0.126c-1.2679,0.0558-2.5343,0.1514-3.7996,0.2524c-0.3415,0.0272-0.677,0.129-1.261,0.2457
			C5.9759,26.1479,6.8972,25.0459,8.0117,25.3627z M22.396,17.362c0.0014-0.1045,0.0029-0.209,0.0043-0.3135
			c-1.5133,0.7198-3.0267,1.4396-4.54,2.1593c0.034,0.0883,0.0681,0.1765,0.1021,0.2648c0.3786-0.104,0.7574-0.2072,1.1357-0.3123
			c0.4117-0.1144,0.8171-0.2723,1.2364-0.3307c0.2632-0.0367,0.5471,0.0749,0.8274,0.1208c0.143-1.6258,1.4785-0.5713,2.1222-1.0531
			C22.9726,17.7096,22.6843,17.5358,22.396,17.362z M20.4394,17.4076c0.0351,0.0631,0.0701,0.1262,0.1052,0.1893
			c1.2876-0.5914,2.5751-1.1827,3.8627-1.7741c-0.0077-0.0871-0.0153-0.1742-0.023-0.2613
			c-0.2546-0.0739-0.5734-0.2812-0.7511-0.1956c-0.4525,0.2181-0.931,0.4969-1.2339,0.8815
			c-0.3789,0.4811-0.7012,0.669-1.1837,0.2411C20.9288,16.8282,20.6841,17.1179,20.4394,17.4076z M14.3874,20.8412
			c1.0835,0.0797,2.3229-0.4618,2.5997-1.0588C15.9553,19.5807,15.019,19.7004,14.3874,20.8412z M8.9579,24.4167
			c0.0079-0.1007,0.0157-0.2013,0.0236-0.302c-0.8659,0-1.7319-0.0084-2.5976,0.0045c-0.3072,0.0046-0.6135,0.0611-0.9203,0.0939
			c0.0035,0.0679,0.007,0.1357,0.0105,0.2036C6.6354,24.4167,7.7967,24.4167,8.9579,24.4167z"/>
		<path fill="#FFFFFF" d="M8.0117,25.3627c-1.1145-0.3168-2.0358,0.7852-3.1785-0.1751c0.584-0.1166,0.9195-0.2184,1.261-0.2457
			c1.2653-0.1009,2.5317-0.1965,3.7996-0.2524c0.4384-0.0193,0.8815,0.0909,1.3237,0.126c0.1621,0.0129,0.3984,0.0454,0.4807-0.043
			c0.6598-0.7084,1.1909-0.3971,1.719,0.2282c-2.0054,0.4024-4.0102,0.8046-5.9632,1.1965
			C7.5866,25.9988,7.7826,25.7056,8.0117,25.3627z"/>
		<path fill="#FFFFFF" d="M22.396,17.362c0.2883,0.1738,0.5766,0.3476,0.8881,0.5353c-0.6438,0.4818-1.9793-0.5727-2.1222,1.0531
			c-0.2803-0.046-0.5642-0.1575-0.8274-0.1208c-0.4193,0.0584-0.8247,0.2163-1.2364,0.3307
			c-0.3783,0.1051-0.7571,0.2082-1.1357,0.3123c-0.034-0.0883-0.0681-0.1765-0.1021-0.2648c1.5133-0.7198,3.0267-1.4396,4.54-2.1593
			C22.3989,17.153,22.3975,17.2575,22.396,17.362z"/>
		<path fill="#FFFFFF" d="M20.4394,17.4076c0.2447-0.2897,0.4894-0.5795,0.7762-0.919c0.4825,0.4279,0.8048,0.2399,1.1837-0.2411
			c0.3029-0.3846,0.7814-0.6634,1.2339-0.8815c0.1777-0.0856,0.4965,0.1217,0.7511,0.1956c0.0077,0.0871,0.0153,0.1742,0.023,0.2613
			c-1.2876,0.5914-2.5751,1.1827-3.8627,1.7741C20.5095,17.5338,20.4744,17.4707,20.4394,17.4076z"/>
		<path fill="#FFFFFF" d="M14.3874,20.8412c0.6315-1.1409,1.5678-1.2605,2.5997-1.0588
			C16.7104,20.3794,15.4709,20.9209,14.3874,20.8412z"/>
		<path fill="#FFFFFF" d="M8.9579,24.4167c-1.1612,0-2.3225,0-3.4837,0c-0.0035-0.0679-0.007-0.1357-0.0105-0.2036
			c0.3067-0.0328,0.6131-0.0893,0.9203-0.0939c0.8657-0.0129,1.7317-0.0045,2.5976-0.0045
			C8.9736,24.2153,8.9658,24.316,8.9579,24.4167z"/>
	</g>
</g>
</svg>
