<?xml version="1.0" encoding="utf-8"?>
<!-- Generator: Adobe Illustrator 19.1.0, SVG Export Plug-In . SVG Version: 6.00 Build 0)  -->
<svg version="1.1" id="XMLID_1_" xmlns="http://www.w3.org/2000/svg" xmlns:xlink="http://www.w3.org/1999/xlink" x="0px" y="0px"
	 viewBox="0 0 575.4753 38.0794" enable-background="new 0 0 575.4753 38.0794" xml:space="preserve">
<g id="vignette">
	<g id="XMLID_1048_">
		<g id="XMLID_1058_">
			<path id="XMLID_1066_" fill-rule="evenodd" clip-rule="evenodd" fill="#414042" d="M529.1193,7.9751
				c-3.5502-6.3516-9.1385-7.6456-16.0636-7.6028c-7.1148,0.0451-14.1677,0.6138-21.2966,0.1327
				c-1.5097-0.1044-3.0098-0.0498-4.5006-0.1065c-4.413-0.1755-8.8328-0.0073-13.2363-0.1898
				c-1.5097-0.0592-3.0739-0.0971-4.5668-0.0403c-3.4578,0.1422-7.0483-0.2441-10.416-0.0687
				c-1.5027,0.083-7.8613-0.0449-9.3519-0.0379c-1.8842,0.0119-8.6884,0.1636-10.5655,0.3058
				c-1.8818,0.1398-3.915-0.0427-5.913-0.0308c-2.0286,0.0119-4.0266,0.3364-5.913,0.1706c-1.9648-0.173-3.9199-0.1755-5.913-0.166
				c-2.0216,0.0119-4.0504-0.109-6.0436-0.0946c-3.972,0.0235-7.9227,0.1065-11.8925,0.0733
				c-1.9361-0.0189-3.8866-0.1776-5.8465-0.0995c-1.9956,0.083-4.0101-0.0189-5.9771,0.1044
				c-2.2422,0.1398-9.4422,0.109-11.5751,0.1755c-4.7067,0.1468-9.4703,0.2109-14.1748,0.0189
				c-2.3036-0.09-4.164,0.0757-6.451-0.0381c-0.2133-0.0116-0.5521-0.0284-0.9266-0.0354c-1.5216-0.0665-3.6592-0.173-4.7707-0.1138
				c-1.5051,0.0781-3.2658-0.0119-4.7566,0c-1.8842,0.0119-3.8725-0.1065-5.7495,0.0357c-1.8796,0.1398-3.9177-0.0427-5.9108-0.0308
				c-2.0286,0.0119-4.0266,0.3364-5.9155,0.1706c-1.9648-0.173-3.9174-0.1755-5.9084-0.166
				c-2.0237,0.0119-4.055-0.109-6.0479-0.0946c-3.9698,0.0235-7.9229,0.1065-11.8904,0.0733
				c-1.941-0.0189-3.8866-0.1776-5.8465-0.0995c-0.6281,0.0262-1.2561,0.0332-1.8796,0.0357
				c-0.5521,0.0022-0.9882,0.455-0.9882,1.0071c0,0.564,0.4977,0.986,1.0617,0.986c3.0241-0.0192,6.252,0.0614,9.1956-0.0595
				c1.0688-0.0449,2.0548,0.1138,3.0904,0.1825c1.8344,0.1257,3.7257,0.0332,5.5791,0.0332c1.9077,0,3.8179,0.0711,5.7092,0.0995
				c2.0216,0.0284,4.0669-0.1468,6.112-0.0379c7.2924,0.3815,14.8858-0.3769,21.9722-0.0024
				c3.5454,0.1849,7.0813,0.0498,10.627,0.0284c0.962-0.0046,2.1376,0.1684,3.1566,0.1138
				c4.3987-0.2322,9.0131,0.0854,12.7647-0.2133c2.0832-0.1636,9.0961-0.083,11.2385-0.0379
				c2.1638,0.0473,4.2683-0.0949,6.3134-0.1065c3.062-0.0192,6.3516,0.0614,9.3402-0.0595
				c1.0688-0.0449,2.0546,0.1138,3.0879,0.1825c1.8369,0.1257,3.7303,0.0332,5.5791,0.0332c1.9102,0,3.8179,0.0711,5.7092,0.0995
				c2.024,0.0284,4.0669-0.1468,6.1144-0.0379c7.2949,0.3815,24.5908-0.3769,31.6772-0.0024
				c1.2678,0.0665,2.5382-0.1682,3.4932-0.1541c2.1781,0.0238,4.51,0.1709,6.7877,0.159c2.2633-0.0167,4.5336-0.0973,6.8515-0.1114
				c2.2065-0.0143,4.4414,0.1658,6.6525,0.2939c2.8203,0.1658,5.6407,0.1041,8.461,0.2844
				c1.3697,0.0876,2.8557-0.0286,4.3014-0.0262c2.7351,0.0024,5.3988-0.1184,8.1314-0.2512
				c1.3557-0.0663,2.7161-0.0189,4.0953-0.0238c5.8398-0.0379,11.53-0.2582,15.7864,1.4435
				c1.7325,0.6943,4.2897,3.3534,5.176,4.9413c0.7111,1.2821,1.1992,2.5477,1.2089,4.3584c0.007,1.7466,0.0946,2.8962-0.4718,4.638
				c-0.8222,2.5336-3.3464,4.6477-5.913,5.0765c-0.9457,0.1565-1.9672,0.1944-3.0903,0.0879
				c-1.6898-0.1636-3.7446-0.7751-4.702-1.7871c-1.1115-1.1731-2.8914-5.3109-1.1423-6.9107
				c0.3791-0.3461,1.9196-0.8771,2.621-0.7584c1.3416,0.2347,1.4316,2.3582,2.8868,2.4717
				c2.3746,0.1755,2.3344-2.7775,1.4789-4.3108c-0.5167-0.9268-1.5738-1.4884-2.3511-1.6663
				c-1.5925-0.365-2.9127,0.159-3.8939,0.6305c-1.1588,0.557-1.7917,1.2467-2.5572,2.2325
				c-0.7346,0.9504-1.0285,1.7515-1.877,0.6827c-1.4267-1.7893-3.3891-3.0573-5.2401-4.2659
				c-2.0689-1.3556-5.1333-2.7351-8.2642-2.6356c-2.249,0.0735-4.2683,1.0001-5.1736,2.8511
				c-0.839,1.7255,0.2252,4.24,1.2773,4.9651c0.9433,0.647,3.228,1.3297,4.4344,0.6448c0.545-0.3082,1.3083-1.7279,0.6729-2.6924
				c-0.2866-0.4337-1.0096-0.6351-1.4811-0.73c-0.5475-0.1114-1.3627-0.0925-1.4765-0.73
				c-0.1682-0.9528,1.4741-1.6517,2.4198-1.7609c1.9315-0.225,4.2113,0.3366,5.6429,0.9055
				c1.5214,0.6067,3.2539,1.9148,4.4317,3.062c2.2041,2.1473,2.7848,4.9556,4.4344,7.565c1.4124,2.2325,3.2753,4.1878,6.5173,4.6617
				c0.5096,0.0757,1.5927,0.0925,2.2846,0.1422c1.261,0.09,1.8534,0.1233,3.0906-0.3106c0.5167-0.1801,1.1185-0.3626,1.4741-0.5451
				c1.55-0.7844,3.6403-2.5239,4.529-3.9885c0.8176-1.3462,1.4741-2.7067,1.7111-4.3251
				C530.8542,13.3052,530.3446,10.1675,529.1193,7.9751z"/>
			<path id="XMLID_1059_" fill-rule="evenodd" clip-rule="evenodd" fill="#414042" d="M488.7801,5.0743
				c-1.2823-0.2866-3.126-0.1587-4.2353-0.173c-1.8058-0.0235-4.1356-0.2369-5.574-0.2369c-1.1401,0-2.2657,0.0852-3.3631,0.0235
				c-1.41-0.0828-2.8132-0.0733-4.2186-0.0544c-1.3508,0.0235-2.7159,0.09-4.0691,0.0427
				c-3.0454-0.1138-5.5031-0.1992-8.8519,0.0189c-1.2205,0.0806-8.3423-0.0073-9.5344-0.0189
				c-1.218-0.0095-7.2662-0.192-8.4678-0.2111c-2.3038-0.0354-4.8253,0.0451-6.9204,0.0616
				c-3.3891,0.0262-6.8588-0.2393-10.352-0.2701c-1.7231-0.0119-3.4437,0.0806-5.1738,0.1374
				c-4.7896,0.1495-10.0819,0.0024-15.0492-0.2512c-1.6804-0.0852-3.3915,0.0284-5.0529,0.0167
				c-1.6328-0.0143-3.2374-0.1611-4.8159-0.1611c-0.8484,0-1.7228,0.1517-2.588,0.1563c-2.614,0.0165-10.1292,0.1968-12.8002,0.173
				c-1.7515-0.0143-3.5216,0.199-5.292,0.1352c-0.8676-0.0332-1.6898-0.0879-2.5288-0.083c-0.8484,0.007-1.6779,0.116-2.5288,0.1587
				c-1.832,0.09-4.0739-0.1349-6.56-0.0544c-0.9338,0.026-1.742,0.1444-2.9933,0.1374c-0.9079-0.0095-1.8225,0.0308-2.735,0.0616
				c-2.2895-0.0735-4.6025,0.0141-6.899-0.007c-1.218-0.0095-2.4125-0.192-3.6119-0.2111
				c-2.3082-0.0354-4.8275,0.0451-6.9226,0.0616c-3.3867,0.0262-6.8564-0.2393-10.352-0.2701
				c-1.7255-0.0119-3.4388,0.0806-5.1738,0.1374c-4.7872,0.1495-10.0794,0.0024-15.0467-0.2512
				c-1.6828-0.0852-3.3915,0.0284-5.0554,0.0167c-0.8033-0.0073-1.5736-0.0332-2.3557,0.0165
				c-0.4218,0.0284-0.8271,0.2014-0.8271,0.6256c0,0.4101,0.3058,0.7584,0.7157,0.7797c0.9339,0.0498,1.9483,0.0357,2.8867,0.026
				c4.7328-0.0498,9.4989,0.1422,14.4449,0.1849c1.5879,0.0119,3.1593,0.173,4.695,0.1587
				c1.1399-0.0095,2.2919-0.2512,3.4318-0.2677c2.1046-0.0332,4.1972,0.2844,6.2591,0.173
				c2.2657-0.1233,4.5455,0.1398,6.8588,0.0568c1.1326-0.0379,2.2987-0.0946,3.4316-0.0876
				c2.8392,0.0141,8.7973,0.4242,11.812,0.2014c0.8438,0,1.6828-0.0616,2.5263-0.026c1.1091,0.0449,3.6665,0.026,4.0101,0.0379
				c0.5805,0.0214,1.2489-0.0806,1.8626-0.1044c1.7893-0.0641,3.8609,0.1565,5.7189,0.0498
				c0.6849-0.0379,1.3438-0.2155,2.0453-0.2204c3.4838-0.0354,7.1335,0.1019,10.5937-0.0308
				c3.4032-0.1327,11.8523-0.3293,15.3241-0.1517c0.9387,0.0498,1.9529,0.0357,2.8892,0.026
				c4.735-0.0498,9.4987,0.1422,14.4424,0.1849c1.5879,0.0119,3.1617,0.173,4.695,0.1587c1.1377-0.0095,2.2919-0.2512,3.4318-0.2677
				c2.1046-0.0332,4.1994,0.2844,6.2591,0.173c2.2682-0.1233,4.5479,0.1398,6.8634,0.0568
				c1.1282-0.0379,2.2941-0.0946,3.4294-0.0876c2.8392,0.0141,10.7454,0.4194,13.7576,0.1966
				c4.951-0.3648,14.4-0.2228,19.2869,0.6448c2.1116,0.3745,3.8371,0.8365,5.8468,1.6423c3.4316,1.377,6.8136,2.8773,9.4727,4.9818
				c0.481,0.3815,0.7132,0.8506,1.2775,1.3343c0.3766,0.3247,1.2797,1.128,1.6139,0.8625c0.3626-0.2939-0.1089-0.9644-0.4077-1.4054
				c-0.372-0.564-0.5616-0.9006-0.737-1.3413c-0.7276-1.8153-0.5948-4.3632,0.3366-5.5788
				C488.3724,6.5578,490.958,5.565,488.7801,5.0743z M473.797,5.7735c0.3531-0.2179,2.3344-0.0735,2.5526,0.3177
				C477.2785,7.7786,472.9059,6.3186,473.797,5.7735z M478.838,7.9562c-0.7538,0.5237-2.3322-1.6163-0.9457-2.0759
				c0.3839-0.1233,0.8271-0.083,1.0096,0.1279C479.2125,6.3707,479.1082,7.7691,478.838,7.9562z M481.5896,9.2194
				c-0.2609,0.1779-1.192-0.1895-1.4765-0.5972c-0.5429-0.7797-0.2679-2.4552,0.3342-2.6899
				c1.1991-0.4691,1.2039,0.5926,1.2773,1.6733C481.7721,8.2952,481.8668,9.0274,481.5896,9.2194z M485.8223,11.6771
				c-0.4905,0.3009-0.865-0.6232-1.1423-0.7987c-0.2796-0.1801-0.82-0.2155-1.1447-0.3958
				c-0.8176-0.4645-0.7465-0.7038-0.8033-1.9432c-0.0546-1.2561-0.282-2.3108,0.4053-2.555
				c0.2179-0.0806,1.019-0.0141,1.2086,0.3271c0.1303,0.2347,0.0049,0.5759,0,0.9409c-0.026,1.128,0.0592,3.3275,0.4693,3.5573
				c0.4313,0.2417,0.8271-0.1517,1.0072-0.007C486.0948,11.0254,485.948,11.6013,485.8223,11.6771z M486.6304,7.2357
				c-0.2891,0.5759-0.4929,1.3748-0.6824,2.0881c-0.0784,0.2774-0.4529,0.4172-0.531,0.1374
				c-0.2725-0.9882-0.1138-2.9909,0.2039-3.2942c0.256-0.2369,1.2467-0.2985,1.4124-0.007
				C487.2442,6.5389,486.7394,7.0177,486.6304,7.2357z"/>
		</g>
		<g id="XMLID_1049_">
			<path id="XMLID_1057_" fill-rule="evenodd" clip-rule="evenodd" fill="#414042" d="M46.3582,7.9751
				c3.5456-6.3516,9.141-7.6456,16.0614-7.6028c7.117,0.0451,14.1701,0.6138,21.3012,0.1327
				c1.5122-0.1044,3.01-0.0498,4.4982-0.1065c4.4154-0.1755,8.84-0.0073,13.2387-0.1898c1.5097-0.0592,3.0739-0.0971,4.5693-0.0403
				c3.4556,0.1422,7.0437-0.2441,10.4114-0.0687c1.5073,0.083,3.0098-0.0449,4.5028-0.0379
				c1.8842,0.0119,3.8347,0.1636,5.7118,0.3058c1.8793,0.1398,20.903-0.0427,22.8986-0.0308
				c2.0286,0.0119,8.8803,0.3364,10.7667,0.1706c1.9648-0.173,3.9201-0.1755,5.9108-0.166c2.024,0.0119,8.9063-0.109,10.9019-0.0946
				c3.9672,0.0235,7.9203,0.1065,11.8925,0.0733c1.9361-0.0189,11.1647-0.1776,13.1225-0.0995
				c1.9978,0.083,4.0123-0.0189,5.9817,0.1044c2.2373,0.1398,9.4373,0.109,11.5703,0.1755
				c4.7069,0.1468,9.4727,0.2109,14.1772,0.0189c2.306-0.09,4.1664,0.0757,6.451-0.0381c0.2133-0.0116,0.5545-0.0284,0.9266-0.0354
				c1.5216-0.0665,3.657-0.173,4.771-0.1138c1.5049,0.0781,3.2658-0.0119,4.7588,0c1.8818,0.0119,3.8701-0.1065,5.7519,0.0357
				c1.8747,0.1398,3.9128-0.0427,5.9084-0.0308c2.0262,0.0119,4.0242,0.3364,5.9106,0.1706c1.9672-0.173,3.9201-0.1755,5.9133-0.166
				c2.0216,0.0119,4.0526-0.109,6.0479-0.0946c3.9674,0.0235,7.9205,0.1065,11.8904,0.0733
				c1.9386-0.0189,3.8866-0.1776,5.8465-0.0995c0.6256,0.0262,1.2515,0.0332,1.8794,0.0357
				c0.5499,0.0022,0.9884,0.455,0.9884,1.0071c0,0.564-0.4977,0.986-1.0642,0.986c-3.0217-0.0192-6.252,0.0614-9.1978-0.0595
				c-1.069-0.0449-2.0548,0.1138-3.0882,0.1825c-1.8345,0.1257-3.7257,0.0332-5.5767,0.0332c-1.9102,0-3.8204,0.0711-5.7116,0.0995
				c-2.0216,0.0284-4.0645-0.1468-6.1096-0.0379c-7.2973,0.3815-14.8858-0.3769-21.9744-0.0024
				c-3.5432,0.1849-7.0791,0.0498-10.6269,0.0284c-0.9622-0.0046-2.1378,0.1684-3.1569,0.1138
				c-4.3962-0.2322-9.0131,0.0854-12.7672-0.2133c-2.0808-0.1636-9.0912-0.083-11.2337-0.0379
				c-2.1684,0.0473-4.2683-0.0949-6.3159-0.1065c-3.0668-0.0192-13.6297,0.0614-16.6205-0.0595
				c-1.069-0.0449-2.0524,0.1138-3.0882,0.1825c-1.8366,0.1257-3.7257,0.0332-5.5789,0.0332c-1.9102,0-8.6719,0.0711-10.5631,0.0995
				c-2.0216,0.0284-4.0691-0.1468-6.1145-0.0379c-7.2924,0.3815-36.7275-0.3769-43.8091-0.0024
				c-1.2702,0.0665-2.5404-0.1682-3.4956-0.1541c-2.1781,0.0238-4.5101,0.1709-6.7852,0.159
				c-2.2657-0.0167-4.5314-0.0973-6.8515-0.1114c-2.2089-0.0143-4.4414,0.1658-6.6525,0.2939
				c-2.8227,0.1658-5.6407,0.1041-8.4656,0.2844c-1.37,0.0876-2.8535-0.0286-4.2992-0.0262
				c-2.7351,0.0024-5.3963-0.1184-8.1314-0.2512c-1.3556-0.0663-2.7183-0.0189-4.0977-0.0238
				c-5.8395-0.0379-11.5275-0.2582-15.7864,1.4435c-1.7323,0.6943-4.2895,3.3534-5.176,4.9413
				c-0.7133,1.2821-1.1967,2.5477-1.2086,4.3584c-0.0095,1.7466-0.0925,2.8962,0.4715,4.638c0.82,2.5336,3.3464,4.6477,5.913,5.0765
				c0.9457,0.1565,1.9696,0.1944,3.0906,0.0879c1.6898-0.1636,3.7446-0.7751,4.702-1.7871
				c1.1066-1.1731,2.8938-5.3109,1.1423-6.9107c-0.3769-0.3461-1.9196-0.8771-2.6188-0.7584
				c-1.3437,0.2347-1.4338,2.3582-2.8913,2.4717c-2.3701,0.1755-2.3322-2.7775-1.4789-4.3108
				c0.5167-0.9268,1.576-1.4884,2.3533-1.6663c1.5903-0.365,2.9151,0.159,3.8963,0.6305c1.1566,0.557,1.7893,1.2467,2.5526,2.2325
				c0.737,0.9504,1.0309,1.7515,1.8815,0.6827c1.4221-1.7893,3.3915-3.0573,5.2401-4.2659
				c2.0737-1.3556,5.1357-2.7351,8.2642-2.6356c2.2514,0.0735,4.2708,1.0001,5.1714,2.8511c0.8436,1.7255-0.2228,4.24-1.2751,4.9651
				c-0.9457,0.647-3.2304,1.3297-4.4343,0.6448c-0.5451-0.3082-1.3081-1.7279-0.6705-2.6924
				c0.2842-0.4337,1.0071-0.6351,1.4787-0.73c0.5499-0.1114,1.3629-0.0925,1.4765-0.73c0.1706-0.9528-1.4716-1.6517-2.4196-1.7609
				c-1.9293-0.225-4.2091,0.3366-5.6407,0.9055c-1.5214,0.6067-3.2585,1.9148-4.4365,3.062
				c-2.2016,2.1473-2.7846,4.9556-4.4341,7.565c-1.4102,2.2325-3.2753,4.1878-6.5176,4.6617
				c-0.5094,0.0757-1.5925,0.0925-2.2822,0.1422c-1.2632,0.09-1.8558,0.1233-3.0928-0.3106
				c-0.5167-0.1801-1.121-0.3626-1.4789-0.5451c-1.5452-0.7844-3.6332-2.5239-4.5244-3.9885
				c-0.8176-1.3462-1.4765-2.7067-1.7109-4.3251C44.6259,13.3052,45.1329,10.1675,46.3582,7.9751z"/>
			<path id="XMLID_1050_" fill-rule="evenodd" clip-rule="evenodd" fill="#414042" d="M87.5744,7.1624
				c0.9339,1.2156,1.0666,3.7636,0.3366,5.5788c-0.1779,0.4407-0.365,0.7773-0.737,1.3413
				c-0.2963,0.441-0.7727,1.1115-0.4029,1.4054c0.3318,0.2655,1.2324-0.5378,1.609-0.8625
				c0.5642-0.4837,0.7941-0.9528,1.2775-1.3343c2.6591-2.1046,6.0387-3.6048,9.4727-4.9818
				c2.0075-0.8057,3.7352-1.2678,5.8443-1.6423c4.8894-0.8676,9.4871-1.0096,14.4332-0.6448
				c3.0146,0.2228,6.0671-0.1825,8.9087-0.1966c1.1304-0.007,2.299,0.0498,3.4294,0.0876c2.313,0.083,26.4369-0.1801,28.7004-0.0568
				c2.064,0.1114,4.157-0.2063,6.2613-0.173c1.1401,0.0165,7.1481,0.2582,8.2855,0.2677c1.5357,0.0143,3.1071-0.1468,4.695-0.1587
				c4.9437-0.0427,16.9901-0.2347,21.7254-0.1849c0.9363,0.0097,1.9483,0.0238,2.8867-0.026
				c3.4743-0.1776,11.9209,0.0189,15.3265,0.1517c3.4602,0.1327,7.1075-0.0046,10.5915,0.0308
				c0.7038,0.0049,1.3627,0.1825,2.0451,0.2204c1.8582,0.1068,3.9296-0.1138,5.7189-0.0498
				c0.6162,0.0238,1.2821,0.1257,1.8628,0.1044c0.3458-0.0119,2.9008,0.007,4.005-0.0379c0.8487-0.0357,1.6876,0.026,2.5312,0.026
				c3.0146,0.2228,8.9752-0.1874,11.812-0.2014c1.1353-0.007,2.299,0.0498,3.4318,0.0876c2.313,0.083,4.5928-0.1801,6.8585-0.0568
				c2.0643,0.1114,4.157-0.2063,6.2591-0.173c1.1401,0.0165,2.2944,0.2582,3.4318,0.2677c1.5333,0.0143,3.1095-0.1468,4.695-0.1587
				c4.9462-0.0427,9.712-0.2347,14.4424-0.1849c0.9409,0.0097,1.9529,0.0238,2.8916-0.026
				c0.4075-0.0214,0.7157-0.3696,0.7157-0.7797c0-0.4242-0.1446-0.6611-0.5664-0.6516c-0.8557,0.0189-1.8131,0.0022-2.6188,0.0095
				c-1.6638,0.0116-3.3726-0.1019-5.0551-0.0167c-4.9651,0.2536-10.2574,0.4007-15.0448,0.2512
				c-1.7323-0.0568-3.4529-0.1493-5.1782-0.1374c-3.4935,0.0308-6.9607,0.2963-10.3522,0.2701
				c-2.0948-0.0165-4.6142-0.0971-6.9202-0.0616c-1.1994,0.0192-2.3938,0.2017-3.6095,0.2111
				c-2.2965,0.0211-4.6096-0.0665-6.9039,0.007c-0.9122-0.0308-1.8248-0.0711-2.7324-0.0616
				c-1.2537,0.007-2.0597-0.1114-2.9933-0.1374c-2.4861-0.0806-4.7282,0.1444-6.5603,0.0544
				c-0.8506-0.0427-1.6779-0.1517-2.5264-0.1587c-0.8436-0.0049-1.6636,0.0498-2.5288,0.083
				c-1.775,0.0638-3.5408-0.1495-5.2969-0.1352c-2.6686,0.0238-10.1838-0.1565-12.7978-0.173
				c-0.8627-0.0046-1.7396-0.1563-2.588-0.1563c-1.576,0-3.1806,0.1468-4.8134,0.1611c-1.6663,0.0116-3.3772-0.1019-5.0576-0.0167
				c-4.9675,0.2536-17.5379,0.4007-22.3275,0.2512c-1.7325-0.0568-8.302-0.1493-10.0251-0.1374
				c-3.4956,0.0308-11.819,0.2963-15.2081,0.2701c-2.0927-0.0165-21.6021-0.0971-23.9106-0.0616
				c-1.1991,0.0192-2.3914,0.2017-3.6095,0.2111c-1.1969,0.0116-3.4672,0.0995-4.6831,0.0189
				c-3.3488-0.2182-5.8041-0.1327-8.8541-0.0189c-1.3486,0.0473-2.7137-0.0192-4.0645-0.0427
				c-1.4032-0.0189-2.8086-0.0284-4.2259,0.0544c-1.0923,0.0616-2.2181-0.0235-3.358-0.0235c-1.4362,0-3.766,0.2133-5.5767,0.2369
				c-1.1045,0.0143-2.9506-0.1136-4.2305,0.173C84.5219,5.565,87.1099,6.5578,87.5744,7.1624z M99.1303,6.0912
				c0.2182-0.3912,2.197-0.5356,2.555-0.3177C102.5716,6.3186,98.1989,7.7786,99.1303,6.0912z M96.578,6.0082
				c0.1849-0.2109,0.6256-0.2512,1.0071-0.1279c1.3935,0.4596-0.192,2.5996-0.9409,2.0759
				C96.3717,7.7691,96.2674,6.3707,96.578,6.0082z M93.7553,7.6055c0.0735-1.0807,0.0806-2.1424,1.2775-1.6733
				c0.6043,0.2347,0.8744,1.9102,0.3342,2.6899c-0.2822,0.4077-1.2134,0.7751-1.4765,0.5972
				C93.6131,9.0274,93.7102,8.2952,93.7553,7.6055z M89.6576,10.8027c0.1801-0.1446,0.5759,0.2488,1.0074,0.007
				c0.4123-0.2298,0.4929-2.4293,0.4691-3.5573c-0.0046-0.365-0.1279-0.7062,0-0.9409c0.1873-0.3412,0.9931-0.4077,1.211-0.3271
				c0.6851,0.2441,0.4575,1.2989,0.4031,2.555c-0.0522,1.2394,0.0141,1.4787-0.806,1.9432
				c-0.3223,0.1803-0.8625,0.2157-1.1423,0.3958c-0.2771,0.1755-0.654,1.0996-1.1423,0.7987
				C89.5343,11.6013,89.3851,11.0254,89.6576,10.8027z M88.4466,6.1598c0.166-0.2915,1.1588-0.2298,1.4124,0.007
				c0.3177,0.3034,0.4788,2.306,0.2039,3.2942c-0.0781,0.2798-0.455,0.14-0.5286-0.1374c-0.192-0.7133-0.3958-1.5122-0.6824-2.0881
				C88.7429,7.0177,88.2381,6.5389,88.4466,6.1598z"/>
		</g>
	</g>
	<g id="XMLID_1031_">
		<path id="XMLID_1040_" fill-rule="evenodd" clip-rule="evenodd" fill="#414042" d="M532.0771,2.349
			c0.4835,0.68,1.0807,1.4646,1.4692,2.2349c0.3225,0.6351,0.5026,1.4314,0.8011,2.2633c0.2679,0.7395,0.4456,1.569,0.6021,2.4671
			c0.846,4.92-0.1755,9.6931-1.8699,12.8902c-0.2347,0.441-0.4196,0.5594-0.4007,1.1377c0.0189,0.6184,0.1896,0.9385,0.6021,0.9977
			c0.571,0.083,1.2656-0.9836,1.7347-1.4149c0.5309-0.4834,1.2726-0.9977,1.7349-1.4102c2.3604-2.1046,4.5764-3.8558,6.8063-5.7827
			c1.1329-0.9763,2.1781-2.0051,3.337-3.0217c2.2232-1.9553,4.7661-3.6473,6.9442-5.7165c0.5497-0.5283,1.0523-0.8768,1.8083-1.5214
			c0.4431-0.3769,1.1588-1.0523,2.422-1.6614c1.9932-0.9622,4.7566-1.8864,7.3968-1.851c1.5405,0.0214,3.972,0.4621,5.4769,1.9694
			c0.6732,0.6732,1.4908,2.4247,0.827,3.1285c-0.4407,0.474-1.1161,0.0165-1.6352-0.1871c-0.448-0.1779-1.1637-0.4007-1.6401-0.192
			c-1.0569,0.4645-1.1848,2.0689-0.8958,2.6259c0.6376,1.2299,2.9268,1.8983,4.0715,1.8675
			c1.2751-0.0354,3.5408-1.5711,3.7684-3.4743c0.2463-2.0429-0.7443-4.4368-2.5928-5.7189
			c-2.5737-1.7869-5.6524-1.9172-8.1266-1.9031c-2.1638,0.0097-4.9889-0.1941-7.3113,0.0286
			c-3.484,0.2417-6.5792,0.1493-10.5134,0.1895c-4.7305,0.0546-9.3708-0.0735-13.8144-0.0451
			c-0.7562,0.0049-1.8912-0.1658-2.2019,0.0119C530.2475,0.6189,531.6456,1.7398,532.0771,2.349z M556.0374,1.9058
			c0.2417-0.0546,1.0618-0.1992,1.2015,0.1941c0.1611,0.441-0.763,1.0382-1.0663,1.2751c-0.531,0.4101-0.9409,0.6067-1.3343,0.9409
			c-0.4053,0.3436-0.6732,0.8365-1.0688,1.2088c-0.3958,0.3745-0.813,0.7203-1.2018,1.0734
			c-2.3463,2.1543-4.9437,3.9177-7.4084,6.1882c-1.5903,1.4668-3.0574,2.7656-4.8726,4.2327
			c-1.3651,1.1091-2.5312,2.0405-3.7352,3.0976c-0.1138,0.0971-0.9336,1.1399-1.2678,0.8057
			c-0.3128-0.3104,0.1588-1.1472,0.2653-1.4695c0.1328-0.4123,0.2725-1.1564,0.4669-1.3367
			c0.166-0.1517,0.8533-0.2677,1.0001-0.3412c0.282-0.1349,0.4575-0.4313,0.8011-0.737c0.7206-0.64,1.6898-1.3651,2.4031-2.0167
			c1.0239-0.9363,2.2422-1.8463,3.2707-2.6923c0.5545-0.455,0.9052-1.0926,1.4695-1.543c0.4572-0.3672,0.9692-0.647,1.4005-1.0096
			c0.4266-0.3601,0.7822-0.8057,1.2015-1.1423c0.7135-0.5735,1.5168-1.0047,2.204-1.55c1.1234-0.8909,2.1046-1.5403,3.0693-2.5547
			c0.3198-0.3366,0.6516-0.571,1.0025-0.8744C554.5444,3.0457,555.1417,2.1237,556.0374,1.9058z M553.5016,2.1213
			c0.1896,0.5451-0.8863,0.9741-1.1991,1.2775c-0.3745,0.358-0.6921,0.8698-1.0004,1.1399
			c-0.5781,0.5002-1.2797,0.922-1.9385,1.4149c-1.2537,0.9385-2.389,1.998-3.6687,3.0241c-0.6116,0.4907-1.268,0.9076-1.8674,1.4149
			c-0.5759,0.4834-1.0263,1.0666-1.6046,1.543c-1.3722,1.1375-2.7776,2.3698-4.2043,3.6308
			c-0.1752,0.1563-0.6919,0.6208-0.936,0.474c-0.3983-0.2417-0.0854-1.3083,0.0662-1.5998c0.2939-0.557,1.1993-1.0334,1.8723-1.6163
			c0.7016-0.6116,1.3083-1.3154,1.8012-1.6779c1.403-1.0428,2.5026-1.9388,3.8015-3.0952c0.6445-0.5689,1.1991-1.1945,1.8058-1.6804
			c0.6662-0.538,1.3746-0.936,2.0005-1.4814c1.1921-1.038,2.3698-2.6591,4.1378-2.9625
			C552.9565,1.8607,553.3973,1.8134,553.5016,2.1213z M546.963,3.0314c0.571-0.4645,1.1539-1.0001,1.8034-1.0807
			c1.7822-0.2179-0.1136,1.3367-0.4029,1.6044c-1.095,1.0025-1.9742,1.5974-2.9362,2.4222
			c-0.5051,0.4288-0.8557,0.846-1.3345,1.2751c-1.0853,0.9717-2.1614,1.5287-3.2042,2.4907c-0.6257,0.5783-1.41,1.268-2.2703,1.9483
			c-0.2109,0.1706-0.6754,0.5997-0.9339,0.474c-0.2179-0.1068-0.2606-0.7963-0.199-1.0666
			c0.1328-0.5924,2.0286-1.9645,2.5358-2.3533c0.7419-0.564,1.9196-1.3462,2.8013-2.0856c0.5261-0.4383,0.8722-0.9763,1.2702-1.3437
			C545.0266,4.4581,545.875,3.9085,546.963,3.0314z M544.9603,1.9745c0.4218-0.076,1.0688-0.1801,1.2015,0.1279
			c0.1658,0.3839-1.0687,1.1875-1.268,1.3413c-0.5261,0.4031-1.1707,0.7395-1.5357,1.0785c-0.3696,0.3366-0.756,0.929-1.3367,1.4078
			c-1.0758,0.8909-1.8723,1.4243-3.069,2.3557c-0.4575,0.3553-2.3203,1.941-2.0026,0.1468c0.0662-0.372,1.1613-1.3105,1.6019-1.6804
			c1.0571-0.8744,2.5383-2.1305,3.6049-2.9576C542.9885,3.1501,543.7658,2.1924,544.9603,1.9745z M540.1539,1.8039
			c0.3839-0.0806,1.8723-0.256,2.0026,0.2536c0.1066,0.4169-0.6897,0.8484-0.8011,0.9409
			c-0.4526,0.3815-0.6897,0.5735-0.9337,0.8081c-0.5972,0.564-1.3913,1.1161-1.9363,1.5452
			c-0.391,0.308-1.2726,1.5144-1.8675,1.3462c-0.3106-0.0854-0.5523-0.9741-0.4694-1.4648c0.109-0.6138,1.0428-1.2205,1.6022-1.6779
			C538.5993,2.8656,539.0827,2.0313,540.1539,1.8039z M534.7481,2.1735c0.1539-0.3745,1.0404-0.3674,2.0026-0.3483
			c0.6019,0.0141,1.0926,0.1398,0.4691,0.7987c-0.1776,0.1847-1.2656,1.1115-1.6044,1.0783
			C535.4164,3.6808,534.5275,2.6996,534.7481,2.1735z"/>
		<path id="XMLID_1032_" fill-rule="evenodd" clip-rule="evenodd" fill="#414042" d="M44.5997,0.2609
			c-0.3128-0.1776-1.4433-0.007-2.2041-0.0119c-4.4414-0.0284-9.0818,0.0997-13.8146,0.0451
			c-3.9342-0.0403-7.027,0.0522-10.5131-0.1895c-2.3225-0.2228-5.1427-0.0189-7.309-0.0286
			C8.2823,0.0619,5.2061,0.1922,2.6346,1.9791C0.786,3.2612-0.2095,5.6551,0.0371,7.698c0.2322,1.9031,2.4931,3.4388,3.7682,3.4743
			c1.1472,0.0308,3.4342-0.6375,4.0764-1.8675c0.2893-0.557,0.159-2.1614-0.9006-2.6259C6.5071,6.4702,5.789,6.693,5.3412,6.8709
			C4.8197,7.0745,4.1489,7.532,3.7058,7.058C3.0423,6.3542,3.8623,4.6028,4.5353,3.9296C6.0426,2.4223,8.467,1.9815,10.01,1.9602
			c2.6424-0.0354,5.4082,0.8887,7.399,1.851c1.2607,0.6091,1.9789,1.2845,2.4198,1.6614c0.7584,0.6446,1.2583,0.9931,1.8129,1.5214
			c2.1735,2.0691,4.7163,3.7611,6.9393,5.7165c1.1591,1.0166,2.2041,2.0454,3.3393,3.0217
			c2.2278,1.9269,4.4484,3.6781,6.8066,5.7827c0.4621,0.4126,1.2064,0.9268,1.7347,1.4102
			c0.4694,0.4313,1.1612,1.4979,1.7374,1.4149c0.4099-0.0592,0.5781-0.3793,0.5994-0.9977
			c0.0167-0.5783-0.1682-0.6967-0.4029-1.1377c-1.6969-3.1971-2.7137-7.9703-1.865-12.8902
			c0.1517-0.8982,0.3317-1.7277,0.597-2.4671c0.3012-0.8319,0.4812-1.6282,0.8035-2.2633c0.3864-0.7703,0.986-1.5549,1.4695-2.2349
			C43.8318,1.7398,45.2278,0.6189,44.5997,0.2609z M21.6417,3.6548c0.3485,0.3034,0.6802,0.5378,1.0003,0.8744
			c0.9669,1.0144,1.9432,1.6638,3.069,2.5547c0.6873,0.5453,1.4908,0.9766,2.2016,1.55c0.422,0.3366,0.7773,0.7822,1.204,1.1423
			c0.4291,0.3626,0.9433,0.6424,1.4008,1.0096c0.5616,0.4504,0.9171,1.088,1.4692,1.543c1.0263,0.846,2.2492,1.7561,3.2682,2.6923
			c0.7157,0.6516,1.6852,1.3768,2.4033,2.0167c0.3436,0.3058,0.5189,0.6021,0.8009,0.737c0.1517,0.0735,0.8344,0.1895,1.0001,0.3412
			c0.1968,0.1803,0.3342,0.9244,0.4669,1.3367c0.1068,0.3223,0.5783,1.1591,0.2679,1.4695
			c-0.3342,0.3342-1.1566-0.7086-1.2656-0.8057c-1.2088-1.0571-2.3747-1.9886-3.7398-3.0976
			c-1.8131-1.467-3.2777-2.7659-4.8726-4.2327c-2.4625-2.2706-5.06-4.0339-7.4087-6.1882
			c-0.3861-0.3531-0.8009-0.6989-1.1991-1.0734c-0.3958-0.3723-0.6635-0.8652-1.0688-1.2088
			c-0.3912-0.3342-0.8035-0.5308-1.3343-0.9409C19.0017,3.1382,18.0749,2.5409,18.2339,2.1
			c0.1468-0.3934,0.9644-0.2488,1.2037-0.1941C20.336,2.1237,20.9333,3.0457,21.6417,3.6548z M22.9073,1.9269
			c1.7704,0.3034,2.9484,1.9245,4.138,2.9625c0.6281,0.5453,1.3367,0.9433,2.0051,1.4814c0.6019,0.4859,1.1612,1.1115,1.8012,1.6804
			c1.3035,1.1564,2.4006,2.0524,3.8038,3.0952c0.4929,0.3626,1.0972,1.0664,1.8034,1.6779
			c0.6708,0.5829,1.5714,1.0593,1.8653,1.6163c0.1539,0.2915,0.4669,1.3581,0.0687,1.5998
			c-0.2441,0.1468-0.7584-0.3177-0.9338-0.474c-1.4267-1.261-2.8321-2.4933-4.2043-3.6308
			c-0.5829-0.4764-1.0285-1.0596-1.6044-1.543c-0.5997-0.5072-1.2586-0.9241-1.8677-1.4149
			c-1.2797-1.0261-2.415-2.0856-3.6711-3.0241c-0.654-0.4929-1.3603-0.9147-1.9337-1.4149
			c-0.3128-0.2701-0.6281-0.7819-1.0001-1.1399c-0.3177-0.3034-1.3913-0.7324-1.204-1.2775
			C22.0778,1.8134,22.5212,1.8607,22.9073,1.9269z M31.3848,5.316c0.3982,0.3674,0.7441,0.9055,1.268,1.3437
			c0.8814,0.7395,2.0619,1.5216,2.8035,2.0856c0.5072,0.3888,2.4055,1.7609,2.5336,2.3533
			c0.0638,0.2704,0.0214,0.9598-0.1968,1.0666c-0.2582,0.1257-0.7227-0.3034-0.9336-0.474c-0.8603-0.6802-1.6425-1.37-2.2706-1.9483
			c-1.0428-0.962-2.1186-1.519-3.2042-2.4907c-0.4788-0.4291-0.8319-0.8462-1.3343-1.2751
			c-0.9622-0.8249-1.8439-1.4197-2.9365-2.4222c-0.2915-0.2677-2.1851-1.8223-0.4004-1.6044
			c0.647,0.0806,1.2277,0.6162,1.8012,1.0807C29.6,3.9085,30.4509,4.4581,31.3848,5.316z M33.3209,3.7946
			c1.0642,0.8271,2.5455,2.0832,3.6048,2.9576c0.4407,0.3699,1.5357,1.3083,1.5998,1.6804
			c0.3199,1.7942-1.5452,0.2085-2.0002-0.1468c-1.1969-0.9314-1.991-1.4648-3.0717-2.3557
			c-0.5829-0.4788-0.9669-1.0712-1.3365-1.4078c-0.3628-0.339-1.0098-0.6754-1.5311-1.0785
			c-0.2014-0.1539-1.4386-0.9574-1.2702-1.3413c0.1325-0.308,0.7795-0.2039,1.2015-0.1279
			C31.7119,2.1924,32.4844,3.1501,33.3209,3.7946z M37.7244,3.5551c0.564,0.4575,1.4954,1.0642,1.6022,1.6779
			c0.0852,0.4907-0.1565,1.3794-0.4669,1.4648c-0.5948,0.1682-1.4789-1.0382-1.8699-1.3462
			c-0.5429-0.4291-1.3391-0.9812-1.934-1.5452c-0.2466-0.2347-0.4834-0.4266-0.9338-0.8081
			c-0.1136-0.0925-0.9076-0.524-0.8011-0.9409c0.1327-0.5096,1.6165-0.3342,2.0005-0.2536
			C36.395,2.0313,36.8784,2.8656,37.7244,3.5551z M39.8598,3.7022c-0.3342,0.0332-1.4221-0.8936-1.6022-1.0783
			c-0.6232-0.6589-0.1349-0.7846,0.4694-0.7987c0.9622-0.0192,1.8439-0.0262,2.0026,0.3483
			C40.9475,2.6996,40.0588,3.6808,39.8598,3.7022z"/>
	</g>
	<g id="XMLID_1026_">
		<g id="XMLID_1028_">
			<path id="XMLID_1030_" fill-rule="evenodd" clip-rule="evenodd" fill="#414042" d="M257.8926,13.1346
				c0.903-1.851,2.9221-2.78,5.1711-2.8535c3.1309-0.0995,6.1977,1.2821,8.2666,2.6356c1.8461,1.2086,3.8179,2.4766,5.2401,4.2683
				c0.8484,1.0688,1.1447,0.2653,1.8794-0.6827c0.7654-0.9836,1.3983-1.6779,2.5547-2.2349
				c0.9812-0.4694,2.306-0.9931,3.8987-0.6305c0.7725,0.1803,1.8342,0.7419,2.3509,1.6663
				c0.8533,1.5357,0.8911,4.4887-1.4789,4.3108c-1.4573-0.1114-1.5452-2.2349-2.8889-2.4671
				c-0.7016-0.1233-2.2444,0.4077-2.6212,0.7538c-1.749,1.602,0.0333,5.74,1.1423,6.9131c0.9576,1.012,3.0146,1.6211,4.7044,1.7869
				c1.1185,0.1068,2.1424,0.0711,3.0882-0.0876c2.5667-0.4291,5.0906-2.5453,5.913-5.0765c0.564-1.742,0.4788-2.8938,0.4694-4.638
				c-0.0073-1.8131-0.3436-3.3418-0.9409-4.6831c-0.9174-2.0572-2.1118-3.5573-4.1689-4.8372
				c-1.2964-0.8057-3.1141-1.5879-5.5031-1.5427c-0.9244,0.0214-0.9125-1.0926,0.166-1.178
				c2.6994-0.2228,4.9697,0.704,6.3088,1.4411c2.2135,1.218,3.9364,3.2136,5.1522,5.3939c1.2302,2.1946,1.7371,5.3325,1.261,8.6032
				c-0.2347,1.6209-0.8911,2.979-1.7112,4.3276c-0.8911,1.4622-2.9814,3.2017-4.5268,3.9885
				c-0.3577,0.1825-0.962,0.365-1.4787,0.5475c-1.2348,0.4313-1.8296,0.3958-3.0882,0.3058
				c-0.6919-0.0476-1.7774-0.0641-2.2846-0.1398c-3.2444-0.4764-5.1073-2.4293-6.5173-4.6617
				c-1.6495-2.6118-2.2303-5.4179-4.4344-7.565c-1.1777-1.1472-2.9151-2.4552-4.4341-3.062
				c-1.4316-0.5713-3.7138-1.1329-5.6429-0.9079c-0.9457,0.1138-2.5904,0.8081-2.4198,1.7634
				c0.1138,0.6351,0.929,0.6186,1.4789,0.73c0.4691,0.0946,1.1896,0.2961,1.4765,0.73c0.6397,0.9669-0.1281,2.3817-0.6732,2.6921
				c-1.204,0.6851-3.4862,0.0049-4.4319-0.647C258.1154,17.377,257.0536,14.8577,257.8926,13.1346z"/>
			<path id="XMLID_1029_" fill-rule="evenodd" clip-rule="evenodd" fill="#414042" d="M341.8558,13.1346
				c-0.9028-1.851-2.9244-2.78-5.1736-2.8535c-3.1284-0.0995-6.1928,1.2821-8.2641,2.6356
				c-1.8485,1.2086-3.8155,2.4766-5.2422,4.2683c-0.8484,1.0688-1.1401,0.2653-1.8794-0.6827
				c-0.7632-0.9836-1.3937-1.6779-2.5526-2.2349c-0.9812-0.4694-2.3036-0.9931-3.8963-0.6305
				c-0.7749,0.1803-1.8366,0.7419-2.3533,1.6663c-0.8509,1.5357-0.8911,4.4887,1.4789,4.3108
				c1.4597-0.1114,1.5452-2.2349,2.8889-2.4671c0.6992-0.1233,2.2444,0.4077,2.6212,0.7538c1.7491,1.602-0.0308,5.74-1.1423,6.9131
				c-0.9574,1.012-3.0122,1.6211-4.702,1.7869c-1.121,0.1068-2.1449,0.0711-3.0906-0.0876
				c-2.5667-0.4291-5.0906-2.5453-5.913-5.0765c-0.5664-1.742-0.4786-2.8938-0.4715-4.638
				c0.0095-1.8131,0.3461-3.3418,0.9433-4.6831c0.9147-2.0572,2.1116-3.5573,4.1711-4.8372
				c1.294-0.8057,3.1095-1.5879,5.5031-1.5427c0.922,0.0214,0.9125-1.0926-0.1682-1.178c-2.6972-0.2228-4.9724,0.704-6.3091,1.4411
				c-2.2135,1.218-3.9388,3.2136-5.1546,5.3939c-1.2253,2.1946-1.7323,5.3325-1.2583,8.6032
				c0.2344,1.6209,0.8911,2.979,1.7109,4.3276c0.8889,1.4622,2.9792,3.2017,4.5268,3.9885c0.3577,0.1825,0.9574,0.365,1.4789,0.5475
				c1.237,0.4313,1.8247,0.3958,3.0904,0.3058c0.6897-0.0476,1.7728-0.0641,2.2846-0.1398
				c3.2374-0.4764,5.1049-2.4293,6.5151-4.6617c1.6495-2.6118,2.23-5.4179,4.4366-7.565c1.1756-1.1472,2.9127-2.4552,4.4319-3.062
				c1.4338-0.5713,3.7114-1.1329,5.6429-0.9079c0.9479,0.1138,2.5926,0.8081,2.4196,1.7634c-0.1136,0.6351-0.929,0.6186-1.4787,0.73
				c-0.4669,0.0946-1.1923,0.2961-1.4765,0.73c-0.6375,0.9669,0.1279,2.3817,0.6705,2.6921c1.2064,0.6851,3.491,0.0049,4.4365-0.647
				C341.6331,17.377,342.6948,14.8577,341.8558,13.1346z"/>
		</g>
		<path id="XMLID_1027_" fill-rule="evenodd" clip-rule="evenodd" fill="#414042" d="M301.0141,26.9019
			c-0.1422-0.4529-0.3034-0.8984-0.4834-1.3343c-0.1184-0.2774-0.8365-1.825-1.1896-0.7111
			c-1.0618,3.3226-2.9981,8.5651-1.5571,11.9447c0.4739,1.1115,1.659,1.5428,2.844,1.1161
			c1.3911-0.4999,1.7655-1.7015,1.8272-2.9268C302.6234,31.7294,301.7939,29.3974,301.0141,26.9019z"/>
	</g>
	<g id="XMLID_1023_">
		<path id="XMLID_1025_" fill-rule="evenodd" clip-rule="evenodd" fill="#414042" d="M334.1489,5.8873
			c2.6543,0.4596,5.4934,0.5521,8.0246,1.7228c2.6875,1.2396,3.5857,4.1405,4.0834,6.7025
			c0.0262,0.1325,0.0522,0.3791,0.0925,0.6278c0.0781,0.4859,0.7133,0.6329,0.9836,0.256c0.1422-0.199,0.2726-0.3885,0.365-0.4786
			c0.4975-0.5002,0.9693-1.2277,1.5143-1.6947c1.1661-0.9953,2.3912-1.8556,3.7352-2.6851c1.609-0.9931,3.4245-1.6733,5.2068-2.382
			c2.9197-1.1542,6.0174-1.8937,9.1007-2.0997c0.9952-0.0687,0.5356-1.121-0.4599-1.0477
			c-3.5075,0.2585-6.8847,1.0239-10.0202,2.2657c-0.3769,0.1495-0.7679-0.1493-0.7868-0.5545
			c-0.0049-0.173-0.0214-0.3461-0.0476-0.5167c-0.0733-0.4929-0.9101-0.4929-0.9882,0c-0.0449,0.3058-0.0592,0.6186-0.0544,0.9339
			c0.0046,0.5783-0.3201,1.1139-0.839,1.3746c-0.0925,0.0473-0.1825,0.0949-0.275,0.1446c-0.3555,0.1871-0.7349-0.166-0.6897-0.5713
			c0.0806-0.756,0.116-1.5309-0.0238-2.2254c-0.1065-0.5521-1.0001-0.5521-1.1115,0c-0.1138,0.5664-0.0378,1.1447-0.0284,1.7182
			c0.0024,0.3982,0,0.7965-0.0095,1.1945c-0.0143,0.5713-0.2607,1.1258-0.7324,1.4411c-0.0828,0.0544-0.1612,0.1065-0.2417,0.1611
			c-0.2866,0.1944-0.6659-0.0262-0.647-0.3699c0.0711-1.2583,0.0592-2.5358,0.0949-3.7728c0.0214-0.7657-1.1661-0.7657-1.1875,0
			c-0.0425,1.493,0.057,3.0595-0.0663,4.562c-0.0451,0.6045-0.3366,1.1661-0.7962,1.5595
			c-0.1874,0.1565-0.3674,0.3177-0.5475,0.4812c-0.1992,0.1847-0.4907,0.0757-0.6565-0.1495
			c-0.3415-0.4572-0.0049-1.0996-0.0049-1.666c-0.007-1.5903-0.2487-3.228-0.0806-4.7872c0.076-0.6992-1.0758-0.8438-1.218-0.166
			c-0.1589,0.7489-0.0689,1.4078,0,2.1589c0.0095,0.1092,0.019,0.2157,0.026,0.3201c0.019,0.2558-0.275,0.4478-0.4218,0.2393
			c-0.2844-0.3958-0.5997-0.7749-0.9598-1.1399c-2.6166-2.6496-7.2806-2.3701-10.3141-2.6875
			C333.2696,4.662,333.2505,5.7286,334.1489,5.8873z"/>
		<path id="XMLID_1024_" fill-rule="evenodd" clip-rule="evenodd" fill="#414042" d="M265.5998,5.8873
			c-2.6521,0.4596-5.4937,0.5521-8.0249,1.7228c-2.6851,1.2396-3.5857,4.1405-4.081,6.7025
			c-0.0262,0.1325-0.0546,0.3791-0.0949,0.6278c-0.0757,0.4859-0.7086,0.6329-0.9858,0.256
			c-0.1398-0.199-0.2704-0.3885-0.3604-0.4786c-0.5024-0.5002-0.9693-1.2277-1.519-1.6947
			c-1.1637-0.9953-2.389-1.8556-3.7327-2.6851c-1.6117-0.9931-3.4223-1.6733-5.2068-2.382
			c-2.9222-1.1542-6.0152-1.8937-9.1007-2.0997c-0.9955-0.0687-0.538-1.121,0.4596-1.0477
			c3.5075,0.2585,6.8872,1.0239,10.0202,2.2657c0.3769,0.1495,0.7679-0.1493,0.7822-0.5545
			c0.0119-0.173,0.0284-0.3461,0.0522-0.5167c0.0757-0.4929,0.9123-0.4929,0.9858,0c0.0497,0.3058,0.0616,0.6186,0.057,0.9339
			c-0.0049,0.5783,0.3223,1.1139,0.839,1.3746c0.09,0.0473,0.1801,0.0949,0.2747,0.1446c0.358,0.1871,0.7348-0.166,0.6921-0.5713
			c-0.083-0.756-0.1162-1.5309,0.0189-2.2254c0.109-0.5521,1.005-0.5521,1.1115,0c0.1138,0.5664,0.0403,1.1447,0.0332,1.7182
			c-0.007,0.3982-0.0024,0.7965,0.007,1.1945c0.0119,0.5713,0.2607,1.1258,0.7349,1.4411c0.0806,0.0544,0.1587,0.1065,0.2393,0.1611
			c0.2844,0.1944,0.6684-0.0262,0.647-0.3699c-0.0711-1.2583-0.0592-2.5358-0.0971-3.7728c-0.0213-0.7657,1.1659-0.7657,1.1872,0
			c0.0451,1.493-0.0498,3.0595,0.0665,4.562c0.0473,0.6045,0.3388,1.1661,0.8009,1.5595c0.1825,0.1565,0.365,0.3177,0.5429,0.4812
			c0.199,0.1847,0.4929,0.0757,0.6587-0.1495c0.339-0.4572,0.0049-1.0996,0.0049-1.666c0.007-1.5903,0.2487-3.228,0.0781-4.7872
			c-0.0733-0.6992,1.0761-0.8438,1.2207-0.166c0.1587,0.7489,0.0687,1.4078,0,2.1589c-0.0119,0.1092-0.0192,0.2157-0.0262,0.3201
			c-0.0189,0.2558,0.2749,0.4478,0.4218,0.2393c0.2798-0.3958,0.5972-0.7749,0.9576-1.1399
			c2.6188-2.6496,7.2781-2.3701,10.3166-2.6875C266.4812,4.662,266.498,5.7286,265.5998,5.8873z"/>
	</g>
</g>
</svg>
